<svg width="20" height="21" viewBox="0 0 500 500" fill="none" xmlns="http://www.w3.org/2000/svg">
<path d="M381.937 41.6665C422.771 41.6665 456.104 73.6873 458.229 114L458.333 118.062V381.937C458.333 422.771 426.312 456.104 386 458.229L381.937 458.333H118.062C98.5036 458.334 79.6894 450.833 65.4959 437.376C51.3024 423.919 42.8109 405.531 41.7708 386L41.6666 381.937V118.062C41.6666 77.229 73.6875 43.8957 114 41.7707L118.062 41.6665H381.937ZM327.229 193.604C323.322 189.698 318.024 187.504 312.5 187.504C306.976 187.504 301.678 189.698 297.771 193.604L229.167 262.187L202.229 235.271L200.271 233.542C196.083 230.304 190.821 228.781 185.552 229.283C180.282 229.785 175.402 232.274 171.901 236.244C168.4 240.214 166.542 245.368 166.704 250.659C166.865 255.949 169.034 260.98 172.771 264.729L214.437 306.396L216.396 308.125C220.404 311.234 225.409 312.774 230.472 312.456C235.536 312.137 240.308 309.983 243.896 306.396L327.229 223.062L328.958 221.104C332.068 217.096 333.608 212.09 333.289 207.027C332.971 201.964 330.816 197.191 327.229 193.604Z" fill="#1E824C"/>
</svg>
