<svg width="22" height="25" viewBox="0 0 22 25" fill="none" xmlns="http://www.w3.org/2000/svg">
<path fill-rule="evenodd" clip-rule="evenodd" d="M4.3335 2.97233C3.97987 2.97233 3.64074 3.11281 3.39069 3.36286C3.14064 3.6129 3.00016 3.95204 3.00016 4.30566V8.30567C3.00016 8.65929 3.14064 8.99842 3.39069 9.24847C3.64074 9.49852 3.97987 9.639 4.3335 9.639H7.7815C8.48862 9.63915 9.16701 9.92015 9.66697 10.4202C9.66702 10.4202 9.66692 10.4201 9.66697 10.4202L11.0002 11.7534L12.3332 10.4203C12.3333 10.4203 12.3332 10.4204 12.3332 10.4203C12.8332 9.92029 13.5114 9.63915 14.2185 9.639H17.6668C18.0205 9.639 18.3596 9.49852 18.6096 9.24847C18.8597 8.99842 19.0002 8.65929 19.0002 8.30567V4.30566C19.0002 3.95204 18.8597 3.6129 18.6096 3.36286C18.3596 3.11281 18.0205 2.97233 17.6668 2.97233H4.3335ZM1.50507 1.47724C2.25521 0.727091 3.27263 0.305664 4.3335 0.305664H17.6668C18.7277 0.305664 19.7451 0.727091 20.4953 1.47724C21.2454 2.22738 21.6668 3.2448 21.6668 4.30566V8.30567C21.6668 9.36653 21.2454 10.3839 20.4953 11.1341C19.7451 11.8842 18.7277 12.3057 17.6668 12.3057H14.2191L11.943 14.5818C11.4223 15.1025 10.5781 15.1025 10.0574 14.5818L7.78135 12.3058L4.3335 12.3057C3.27263 12.3057 2.25521 11.8842 1.50507 11.1341C0.754923 10.3839 0.333496 9.36653 0.333496 8.30567V4.30566C0.333496 3.2448 0.754923 2.22738 1.50507 1.47724ZM7.00016 20.3057C7.00016 18.0965 8.79102 16.3057 11.0002 16.3057C13.2093 16.3057 15.0002 18.0965 15.0002 20.3057C15.0002 22.5148 13.2093 24.3057 11.0002 24.3057C8.79102 24.3057 7.00016 22.5148 7.00016 20.3057ZM11.0002 18.9723C10.2638 18.9723 9.66683 19.5693 9.66683 20.3057C9.66683 21.042 10.2638 21.639 11.0002 21.639C11.7365 21.639 12.3335 21.042 12.3335 20.3057C12.3335 19.5693 11.7365 18.9723 11.0002 18.9723Z" fill="white"/>
</svg>
