<svg width="16" height="16" viewBox="0 0 16 16" fill="none" xmlns="http://www.w3.org/2000/svg">
<g clip-path="url(#clip0_2592_14850)">
<path d="M12.0364 1.33337H4.03636C3.66802 1.33337 3.36969 1.63171 3.36969 2.00004V14C3.36969 14.3684 3.66802 14.6667 4.03636 14.6667H12.0364C12.4047 14.6667 12.703 14.3684 12.703 14V2.00004C12.703 1.63171 12.4047 1.33337 12.0364 1.33337Z" fill="url(#paint0_linear_2592_14850)"/>
<path d="M8 13.3334C8.55228 13.3334 9 12.8857 9 12.3334C9 11.7811 8.55228 11.3334 8 11.3334C7.44772 11.3334 7 11.7811 7 12.3334C7 12.8857 7.44772 13.3334 8 13.3334Z" fill="url(#paint1_radial_2592_14850)"/>
<path d="M7.99998 13C8.36817 13 8.66665 12.7015 8.66665 12.3333C8.66665 11.9651 8.36817 11.6666 7.99998 11.6666C7.63179 11.6666 7.33331 11.9651 7.33331 12.3333C7.33331 12.7015 7.63179 13 7.99998 13Z" fill="white"/>
<path d="M11.1667 4.66663H4.83335C4.74135 4.66663 4.66669 4.59196 4.66669 4.49996V2.83329C4.66669 2.74129 4.74135 2.66663 4.83335 2.66663H11.1667C11.2587 2.66663 11.3334 2.74129 11.3334 2.83329V4.49996C11.3334 4.59196 11.2587 4.66663 11.1667 4.66663Z" fill="url(#paint2_linear_2592_14850)"/>
<path d="M10.3333 4.00004C10.5174 4.00004 10.6667 3.8508 10.6667 3.66671C10.6667 3.48261 10.5174 3.33337 10.3333 3.33337C10.1492 3.33337 10 3.48261 10 3.66671C10 3.8508 10.1492 4.00004 10.3333 4.00004Z" fill="#50E6FF"/>
<path d="M11.1667 7.33337H4.83335C4.74135 7.33337 4.66669 7.25871 4.66669 7.16671V5.50004C4.66669 5.40804 4.74135 5.33337 4.83335 5.33337H11.1667C11.2587 5.33337 11.3334 5.40804 11.3334 5.50004V7.16671C11.3334 7.25871 11.2587 7.33337 11.1667 7.33337Z" fill="url(#paint3_linear_2592_14850)"/>
<path d="M10.3333 6.66667C10.5174 6.66667 10.6667 6.51743 10.6667 6.33333C10.6667 6.14924 10.5174 6 10.3333 6C10.1492 6 10 6.14924 10 6.33333C10 6.51743 10.1492 6.66667 10.3333 6.66667Z" fill="#50E6FF"/>
<path d="M11.1667 10H4.83335C4.74135 10 4.66669 9.92533 4.66669 9.83333V8.16667C4.66669 8.07467 4.74135 8 4.83335 8H11.1667C11.2587 8 11.3334 8.07467 11.3334 8.16667V9.83333C11.3334 9.92533 11.2587 10 11.1667 10Z" fill="url(#paint4_linear_2592_14850)"/>
<path d="M10.3333 9.33329C10.5174 9.33329 10.6667 9.18405 10.6667 8.99996C10.6667 8.81586 10.5174 8.66663 10.3333 8.66663C10.1492 8.66663 10 8.81586 10 8.99996C10 9.18405 10.1492 9.33329 10.3333 9.33329Z" fill="#50E6FF"/>
<path opacity="0.07" d="M10.5363 10.27V14.6667H10.703L12.703 14.7167V9.55334C11.863 9.60001 10.5363 9.75334 10.5363 10.27Z" fill="black"/>
<path opacity="0.05" d="M10.3697 10.27V14.6666H12.703V9.3833C11.7097 9.42997 10.3697 9.61663 10.3697 10.27Z" fill="black"/>
<path d="M16 13.3754H10.703C10.703 13.3754 10.703 15.1727 10.703 15.3004C10.703 15.687 11.8887 16.0004 13.3517 16.0004C14.8147 16.0004 16 15.687 16 15.3004C16 15.1724 16 13.3754 16 13.3754Z" fill="url(#paint5_linear_2592_14850)"/>
<path d="M16 11.72H10.703C10.703 11.72 10.703 13.6143 10.703 13.7486C10.703 14.156 11.8887 14.4863 13.3517 14.4863C14.8147 14.4863 16 14.1563 16 13.7486C16 13.6143 16 11.72 16 11.72Z" fill="url(#paint6_linear_2592_14850)"/>
<path d="M16 10.2687H10.703C10.703 10.2687 10.703 11.8277 10.703 11.962C10.703 12.3113 11.8887 12.5947 13.3517 12.5947C14.8147 12.5947 16 12.3113 16 11.962C16 11.8277 16 10.2687 16 10.2687Z" fill="url(#paint7_linear_2592_14850)"/>
<path d="M13.3513 10.8364C14.8141 10.8364 16 10.5822 16 10.2687C16 9.9552 14.8141 9.70105 13.3513 9.70105C11.8885 9.70105 10.7026 9.9552 10.7026 10.2687C10.7026 10.5822 11.8885 10.8364 13.3513 10.8364Z" fill="url(#paint8_linear_2592_14850)"/>
</g>
<defs>
<linearGradient id="paint0_linear_2592_14850" x1="3.54202" y1="1.78071" x2="12.2184" y2="13.787" gradientUnits="userSpaceOnUse">
<stop stop-color="#2AA4F4"/>
<stop offset="1" stop-color="#007AD9"/>
</linearGradient>
<radialGradient id="paint1_radial_2592_14850" cx="0" cy="0" r="1" gradientUnits="userSpaceOnUse" gradientTransform="translate(8 12.3334)">
<stop offset="0.582" stop-opacity="0.2"/>
<stop offset="1" stop-opacity="0"/>
</radialGradient>
<linearGradient id="paint2_linear_2592_14850" x1="4.66669" y1="3.66663" x2="11.3334" y2="3.66663" gradientUnits="userSpaceOnUse">
<stop stop-color="#1D59B3"/>
<stop offset="1" stop-color="#195BBC"/>
</linearGradient>
<linearGradient id="paint3_linear_2592_14850" x1="4.66669" y1="6.33337" x2="11.3334" y2="6.33337" gradientUnits="userSpaceOnUse">
<stop stop-color="#1D59B3"/>
<stop offset="1" stop-color="#195BBC"/>
</linearGradient>
<linearGradient id="paint4_linear_2592_14850" x1="4.66669" y1="9" x2="11.3334" y2="9" gradientUnits="userSpaceOnUse">
<stop stop-color="#1D59B3"/>
<stop offset="1" stop-color="#195BBC"/>
</linearGradient>
<linearGradient id="paint5_linear_2592_14850" x1="10.703" y1="14.6877" x2="16" y2="14.6877" gradientUnits="userSpaceOnUse">
<stop stop-color="#7819A2"/>
<stop offset="1" stop-color="#771AA9"/>
</linearGradient>
<linearGradient id="paint6_linear_2592_14850" x1="10.703" y1="13.1033" x2="16" y2="13.1033" gradientUnits="userSpaceOnUse">
<stop stop-color="#912FBD"/>
<stop offset="1" stop-color="#9332BF"/>
</linearGradient>
<linearGradient id="paint7_linear_2592_14850" x1="10.703" y1="11.4317" x2="16" y2="11.4317" gradientUnits="userSpaceOnUse">
<stop stop-color="#AE4CD5"/>
<stop offset="1" stop-color="#AC4AD5"/>
</linearGradient>
<linearGradient id="paint8_linear_2592_14850" x1="10.703" y1="10.2687" x2="16" y2="10.2687" gradientUnits="userSpaceOnUse">
<stop stop-color="#C965EB"/>
<stop offset="1" stop-color="#C767E5"/>
</linearGradient>
<clipPath id="clip0_2592_14850">
<rect width="16" height="16" fill="white"/>
</clipPath>
</defs>
</svg>
