<svg width="17" height="16" viewBox="0 0 17 16" fill="none" xmlns="http://www.w3.org/2000/svg">
<path d="M7.41674 8.34204L2.42041 8.33337L2.42074 12.0007C2.42074 12.3337 2.66641 12.6154 2.99608 12.661L7.41674 13.2727V8.34204Z" fill="url(#paint0_linear_1381_40396)"/>
<path d="M8.0835 8.34338V13.3651L14.3242 14.2284C14.7248 14.2837 15.0822 13.9727 15.0822 13.568L15.0835 8.35538L8.0835 8.34338Z" fill="url(#paint1_linear_1381_40396)"/>
<path d="M7.41681 2.75195L2.99081 3.37862C2.66181 3.42529 2.41715 3.70695 2.41748 4.03929L2.42148 7.66662H7.41681V2.75195Z" fill="url(#paint2_linear_1381_40396)"/>
<path d="M8.0835 2.65765V7.66665H15.0818V2.43432C15.0818 2.02899 14.7232 1.71732 14.3218 1.77432L8.0835 2.65765Z" fill="url(#paint3_linear_1381_40396)"/>
<defs>
<linearGradient id="paint0_linear_1381_40396" x1="3.98441" y1="8.70637" x2="6.27841" y2="12.53" gradientUnits="userSpaceOnUse">
<stop stop-color="#1784D8"/>
<stop offset="1" stop-color="#0864C5"/>
</linearGradient>
<linearGradient id="paint1_linear_1381_40396" x1="8.9515" y1="9.04338" x2="15.5985" y2="13.6317" gradientUnits="userSpaceOnUse">
<stop stop-color="#31ABEC"/>
<stop offset="1" stop-color="#1582D5"/>
</linearGradient>
<linearGradient id="paint2_linear_1381_40396" x1="3.46415" y1="3.89962" x2="9.34615" y2="9.19362" gradientUnits="userSpaceOnUse">
<stop stop-color="#31ABEC"/>
<stop offset="1" stop-color="#1582D5"/>
</linearGradient>
<linearGradient id="paint3_linear_1381_40396" x1="9.38783" y1="3.38232" x2="19.4272" y2="10.206" gradientUnits="userSpaceOnUse">
<stop stop-color="#54DAFF"/>
<stop offset="1" stop-color="#25A2E5"/>
</linearGradient>
</defs>
</svg>
