<svg width="16" height="16" viewBox="0 0 16 16" fill="none" xmlns="http://www.w3.org/2000/svg">
<path d="M14.6666 8.00004C14.6666 11.6817 11.6816 14.6667 7.99998 14.6667C4.31831 14.6667 1.33331 11.6817 1.33331 8.00004C1.33331 4.31837 4.31831 1.33337 7.99998 1.33337C11.6816 1.33337 14.6666 4.31837 14.6666 8.00004Z" fill="url(#paint0_linear_987_1957)"/>
<path opacity="0.05" d="M7.57601 6.66671C7.25834 6.66671 7.00001 6.40504 7.00001 6.08337V4.84471H6.52768C6.31301 4.84471 6.12701 4.72071 6.04268 4.52104C5.95834 4.32137 6.00101 4.09237 6.15134 3.93771L7.50334 2.54437C7.63534 2.40837 7.81201 2.33337 8.00001 2.33337C8.18801 2.33337 8.36468 2.40837 8.49668 2.54437L9.84868 3.93771C9.99901 4.09237 10.0417 4.32137 9.95734 4.52104C9.87301 4.72071 9.68701 4.84471 9.47234 4.84471H9.00001V6.08337C9.00001 6.40504 8.74168 6.66671 8.42401 6.66671H7.57601Z" fill="black"/>
<path opacity="0.07" d="M7.57601 6.5C7.35034 6.5 7.16668 6.313 7.16668 6.08333V4.678H6.52768C6.38101 4.678 6.25401 4.593 6.19601 4.456C6.13801 4.31833 6.16734 4.16033 6.27101 4.05333L7.62301 2.66C7.72334 2.557 7.85734 2.5 8.00001 2.5C8.14268 2.5 8.27668 2.557 8.37701 2.66033L9.72901 4.05367C9.83268 4.16033 9.86168 4.31833 9.80368 4.456C9.74568 4.593 9.61868 4.678 9.47201 4.678H8.83334V6.08333C8.83334 6.313 8.64968 6.5 8.42401 6.5H7.57601Z" fill="black"/>
<path d="M6.52766 4.51129H7.33333V6.08329C7.33333 6.22129 7.442 6.33329 7.576 6.33329H8.424C8.558 6.33329 8.66666 6.22129 8.66666 6.08329V4.51129H9.47233C9.64533 4.51129 9.73166 4.29595 9.60966 4.16995L8.25766 2.77662C8.11566 2.63029 7.885 2.63029 7.743 2.77662L6.391 4.16995C6.26833 4.29595 6.355 4.51129 6.52766 4.51129Z" fill="white"/>
<path opacity="0.05" d="M8.00001 13.6667C7.81201 13.6667 7.63534 13.5917 7.50334 13.4557L6.15134 12.0624C6.00101 11.9077 5.95834 11.6787 6.04268 11.479C6.12701 11.2794 6.31301 11.1554 6.52768 11.1554H7.00001V9.91671C7.00001 9.59504 7.25834 9.33337 7.57601 9.33337H8.42434C8.74168 9.33337 9.00001 9.59504 9.00001 9.91671V11.1554H9.47234C9.68701 11.1554 9.87301 11.2794 9.95734 11.479C10.0417 11.6787 9.99901 11.9077 9.84868 12.0624L8.49668 13.4557C8.36468 13.5917 8.18801 13.6667 8.00001 13.6667Z" fill="black"/>
<path opacity="0.07" d="M8.00001 13.5C7.85734 13.5 7.72334 13.443 7.62301 13.3397L6.27101 11.9463C6.16734 11.8397 6.13834 11.6817 6.19634 11.544C6.25434 11.407 6.38134 11.322 6.52801 11.322H7.16668V9.91667C7.16668 9.687 7.35034 9.5 7.57601 9.5H8.42434C8.65001 9.5 8.83368 9.687 8.83368 9.91667V11.322H9.47268C9.61934 11.322 9.74634 11.407 9.80434 11.544C9.86234 11.6817 9.83301 11.8397 9.72934 11.9467L8.37734 13.34C8.27668 13.443 8.14268 13.5 8.00001 13.5Z" fill="black"/>
<path d="M9.4723 11.4886H8.66664V9.91663C8.66664 9.77863 8.55797 9.66663 8.42397 9.66663H7.57597C7.44197 9.66663 7.3333 9.77863 7.3333 9.91663V11.4886H6.52764C6.35464 11.4886 6.2683 11.704 6.3903 11.83L7.7423 13.2233C7.8843 13.3696 8.11497 13.3696 8.25697 13.2233L9.60897 11.83C9.73164 11.704 9.64497 11.4886 9.4723 11.4886Z" fill="white"/>
<path opacity="0.05" d="M11.31 10C11.1703 10 11.0383 9.946 10.9373 9.84833L9.54431 8.49667C9.40831 8.36467 9.33331 8.188 9.33331 8C9.33331 7.812 9.40831 7.63533 9.54431 7.50333L10.9376 6.15133C11.0383 6.054 11.1703 6 11.31 6C11.605 6 11.8446 6.23667 11.8446 6.52767V7H13.0833C13.405 7 13.6666 7.25833 13.6666 7.576V8.42433C13.6666 8.74167 13.405 9 13.0833 9H11.8446V9.47233C11.8446 9.62233 11.7836 9.76 11.673 9.86033C11.5736 9.95033 11.4446 10 11.31 10Z" fill="black"/>
<path opacity="0.07" d="M11.31 9.83329C11.214 9.83329 11.123 9.79629 11.0537 9.72896L9.66033 8.37696C9.557 8.27663 9.5 8.14263 9.5 7.99996C9.5 7.85729 9.557 7.72329 9.66033 7.62296L11.0537 6.27096C11.123 6.20363 11.2137 6.16663 11.3097 6.16663C11.5127 6.16663 11.6777 6.32863 11.6777 6.52763V7.16663H13.083C13.3127 7.16663 13.4997 7.35029 13.4997 7.57596V8.42429C13.4997 8.64996 13.3127 8.83363 13.083 8.83363H11.6777V9.47263C11.6777 9.57496 11.636 9.66896 11.5607 9.73729C11.4927 9.79896 11.4033 9.83329 11.31 9.83329Z" fill="black"/>
<path d="M11.5113 9.47236V8.6667H13.0833C13.2213 8.6667 13.3333 8.55803 13.3333 8.42403V7.57603C13.3333 7.44203 13.2213 7.33336 13.0833 7.33336H11.5113V6.5277C11.5113 6.3547 11.296 6.26836 11.17 6.39036L9.77668 7.74236C9.63035 7.88436 9.63035 8.11503 9.77668 8.25703L11.17 9.60903C11.296 9.7317 11.5113 9.64503 11.5113 9.47236Z" fill="white"/>
<path opacity="0.05" d="M4.68998 10C4.39498 10 4.15531 9.76333 4.15531 9.47233V9H2.91665C2.59498 9 2.33331 8.74167 2.33331 8.424V7.57567C2.33331 7.25833 2.59498 7 2.91665 7H4.15531V6.52767C4.15531 6.23667 4.39531 6 4.68998 6C4.82931 6 4.96165 6.054 5.06231 6.15167L6.45531 7.50333C6.59165 7.63533 6.66665 7.812 6.66665 8C6.66665 8.188 6.59165 8.36467 6.45565 8.49667L5.06231 9.84867C4.96165 9.946 4.82965 10 4.68998 10Z" fill="black"/>
<path opacity="0.07" d="M4.69 9.83338C4.487 9.83338 4.322 9.67138 4.322 9.47238V8.83338H2.91667C2.687 8.83338 2.5 8.64971 2.5 8.42405V7.57571C2.5 7.35005 2.687 7.16638 2.91667 7.16638H4.322V6.52738C4.322 6.32805 4.48733 6.16638 4.69 6.16638C4.786 6.16638 4.877 6.20338 4.94633 6.27072L6.33967 7.62271C6.443 7.72338 6.5 7.85738 6.5 8.00005C6.5 8.14272 6.443 8.27672 6.33967 8.37705L4.94633 9.72905C4.877 9.79638 4.786 9.83338 4.69 9.83338Z" fill="black"/>
<path d="M4.48869 6.52766V7.33333H2.91669C2.77869 7.33333 2.66669 7.442 2.66669 7.576V8.424C2.66669 8.558 2.77869 8.66666 2.91669 8.66666H4.48869V9.47233C4.48869 9.64533 4.70402 9.73166 4.83002 9.60966L6.22335 8.25766C6.36969 8.11566 6.36969 7.885 6.22335 7.743L4.83002 6.391C4.70402 6.26833 4.48869 6.355 4.48869 6.52766Z" fill="white"/>
<defs>
<linearGradient id="paint0_linear_987_1957" x1="3.87998" y1="0.251374" x2="11.2906" y2="14.1887" gradientUnits="userSpaceOnUse">
<stop stop-color="#2AA4F4"/>
<stop offset="1" stop-color="#007AD9"/>
</linearGradient>
</defs>
</svg>
