<svg width="16" height="16" viewBox="0 0 16 16" fill="none" xmlns="http://www.w3.org/2000/svg">
<path d="M14.6667 12.6666H9.66669V14C9.66669 14.3683 9.96502 14.6666 10.3334 14.6666H14C14.3684 14.6666 14.6667 14.3683 14.6667 14V12.6666Z" fill="#184F85"/>
<path d="M14.6667 10.6666H9.66669V13H14.6667V10.6666Z" fill="#0078D4"/>
<path d="M14.6667 8.33337H9.66669V11H14.6667V8.33337Z" fill="#1B9DE2"/>
<path d="M14.6667 7H9.66669V9H14.6667V7Z" fill="#35C1F1"/>
<path d="M14.6667 7H9.66669V6.66667C9.66669 6.29833 9.96502 6 10.3334 6H14C14.3684 6 14.6667 6.29833 14.6667 6.66667V7Z" fill="#50E6FF"/>
<path d="M11.1667 6.66671C11.2587 6.66671 11.3333 6.59209 11.3333 6.50004C11.3333 6.40799 11.2587 6.33337 11.1667 6.33337C11.0746 6.33337 11 6.40799 11 6.50004C11 6.59209 11.0746 6.66671 11.1667 6.66671Z" fill="#0C63AD"/>
<path d="M12.8334 6.33337C12.7904 6.33337 11.8764 6.33337 11.8334 6.33337C11.7414 6.33337 11.6667 6.40804 11.6667 6.50004C11.6667 6.59204 11.7414 6.66671 11.8334 6.66671C11.8764 6.66671 12.7904 6.66671 12.8334 6.66671C12.9254 6.66671 13 6.59204 13 6.50004C13 6.40804 12.9254 6.33337 12.8334 6.33337Z" fill="#0C63AD"/>
<path d="M7.33333 11.6667C7.51743 11.6667 7.66667 11.5174 7.66667 11.3333C7.66667 11.1492 7.51743 11 7.33333 11C7.14924 11 7 11.1492 7 11.3333C7 11.5174 7.14924 11.6667 7.33333 11.6667Z" fill="#ABB4BE"/>
<path d="M8.66665 11.6667C8.85074 11.6667 8.99998 11.5174 8.99998 11.3333C8.99998 11.1492 8.85074 11 8.66665 11C8.48255 11 8.33331 11.1492 8.33331 11.3333C8.33331 11.5174 8.48255 11.6667 8.66665 11.6667Z" fill="#ABB4BE"/>
<path d="M4.66665 10.3333C4.85074 10.3333 4.99998 10.1841 4.99998 9.99996C4.99998 9.81586 4.85074 9.66663 4.66665 9.66663C4.48255 9.66663 4.33331 9.81586 4.33331 9.99996C4.33331 10.1841 4.48255 10.3333 4.66665 10.3333Z" fill="#ABB4BE"/>
<path d="M4.66665 9.00004C4.85074 9.00004 4.99998 8.8508 4.99998 8.66671C4.99998 8.48261 4.85074 8.33337 4.66665 8.33337C4.48255 8.33337 4.33331 8.48261 4.33331 8.66671C4.33331 8.8508 4.48255 9.00004 4.66665 9.00004Z" fill="#ABB4BE"/>
<path d="M6.00002 11.6667C6.18412 11.6667 6.33335 11.5174 6.33335 11.3333C6.33335 11.1492 6.18412 11 6.00002 11C5.81593 11 5.66669 11.1492 5.66669 11.3333C5.66669 11.5174 5.81593 11.6667 6.00002 11.6667Z" fill="#ABB4BE"/>
<path d="M4.66665 11.6667C4.85074 11.6667 4.99998 11.5174 4.99998 11.3333C4.99998 11.1492 4.85074 11 4.66665 11C4.48255 11 4.33331 11.1492 4.33331 11.3333C4.33331 11.5174 4.48255 11.6667 4.66665 11.6667Z" fill="#ABB4BE"/>
<path d="M6.83331 7H5.99998V6H3.33331V7H2.49998C2.40798 7 2.33331 7.07467 2.33331 7.16667V7.5C2.33331 7.592 2.40798 7.66667 2.49998 7.66667H6.83331C6.92531 7.66667 6.99998 7.592 6.99998 7.5V7.16667C6.99998 7.07467 6.92531 7 6.83331 7Z" fill="url(#paint0_linear_2583_14783)"/>
<path d="M7.66665 6.33337H1.66665C1.48265 6.33337 1.33331 6.18404 1.33331 6.00004V1.66671C1.33331 1.48271 1.48265 1.33337 1.66665 1.33337H7.66665C7.85065 1.33337 7.99998 1.48271 7.99998 1.66671V6.00004C7.99998 6.18404 7.85065 6.33337 7.66665 6.33337Z" fill="url(#paint1_radial_2583_14783)"/>
<path d="M7.66665 6.33329H1.66665C1.48265 6.33329 1.33331 6.18396 1.33331 5.99996V5.66663H7.99998V5.99996C7.99998 6.18396 7.85065 6.33329 7.66665 6.33329Z" fill="url(#paint2_linear_2583_14783)"/>
<defs>
<linearGradient id="paint0_linear_2583_14783" x1="4.66665" y1="5.99633" x2="4.66665" y2="7.67" gradientUnits="userSpaceOnUse">
<stop stop-color="#484B4F"/>
<stop offset="0.374" stop-color="#656D75"/>
<stop offset="0.597" stop-color="#727D86"/>
<stop offset="0.604" stop-color="#86949E"/>
</linearGradient>
<radialGradient id="paint1_radial_2583_14783" cx="0" cy="0" r="1" gradientUnits="userSpaceOnUse" gradientTransform="translate(8.16631 7.78371) scale(9.76133)">
<stop offset="0.323" stop-color="#23D9D6"/>
<stop offset="0.427" stop-color="#23D4D7"/>
<stop offset="0.542" stop-color="#21C7DC"/>
<stop offset="0.664" stop-color="#1FB0E2"/>
<stop offset="0.789" stop-color="#1C91EC"/>
<stop offset="0.917" stop-color="#1969F8"/>
<stop offset="0.944" stop-color="#1860FB"/>
</radialGradient>
<linearGradient id="paint2_linear_2583_14783" x1="4.66665" y1="5.60663" x2="4.66665" y2="6.29429" gradientUnits="userSpaceOnUse">
<stop stop-color="#A1AAB3"/>
<stop offset="1" stop-color="#8F979E"/>
</linearGradient>
</defs>
</svg>
