<svg width="16" height="16" viewBox="0 0 16 16" fill="none" xmlns="http://www.w3.org/2000/svg">
<path d="M13.3334 9.33337H2.66669C2.66669 9.33337 2.66669 12.757 2.66669 13C2.66669 13.7364 5.05435 14.3334 8.00002 14.3334C10.9457 14.3334 13.3334 13.7364 13.3334 13C13.3334 12.757 13.3334 9.33337 13.3334 9.33337Z" fill="url(#paint0_linear_2592_14872)"/>
<path d="M13.3334 6H2.66669C2.66669 6 2.66669 9.42367 2.66669 9.66667C2.66669 10.403 5.05435 11 8.00002 11C10.9457 11 13.3334 10.403 13.3334 9.66667C13.3334 9.42367 13.3334 6 13.3334 6Z" fill="url(#paint1_linear_2592_14872)"/>
<path d="M13.3334 2.66663H2.66669C2.66669 2.66663 2.66669 5.91863 2.66669 6.16663C2.66669 6.81096 5.05435 7.33329 8.00002 7.33329C10.9457 7.33329 13.3334 6.81096 13.3334 6.16663C13.3334 5.91863 13.3334 2.66663 13.3334 2.66663Z" fill="url(#paint2_linear_2592_14872)"/>
<path d="M8.00002 3.66663C10.9455 3.66663 13.3334 3.21891 13.3334 2.66663C13.3334 2.11434 10.9455 1.66663 8.00002 1.66663C5.0545 1.66663 2.66669 2.11434 2.66669 2.66663C2.66669 3.21891 5.0545 3.66663 8.00002 3.66663Z" fill="url(#paint3_linear_2592_14872)"/>
<defs>
<linearGradient id="paint0_linear_2592_14872" x1="2.66669" y1="11.8334" x2="13.3334" y2="11.8334" gradientUnits="userSpaceOnUse">
<stop stop-color="#11408A"/>
<stop offset="1" stop-color="#103F8F"/>
</linearGradient>
<linearGradient id="paint1_linear_2592_14872" x1="2.66669" y1="8.5" x2="13.3334" y2="8.5" gradientUnits="userSpaceOnUse">
<stop stop-color="#1D59B3"/>
<stop offset="1" stop-color="#195BBC"/>
</linearGradient>
<linearGradient id="paint2_linear_2592_14872" x1="2.66669" y1="4.99996" x2="13.3334" y2="4.99996" gradientUnits="userSpaceOnUse">
<stop stop-color="#3079D6"/>
<stop offset="1" stop-color="#297CD2"/>
</linearGradient>
<linearGradient id="paint3_linear_2592_14872" x1="2.66669" y1="2.66663" x2="13.3334" y2="2.66663" gradientUnits="userSpaceOnUse">
<stop stop-color="#42A3F2"/>
<stop offset="1" stop-color="#42A4EB"/>
</linearGradient>
</defs>
</svg>
