<svg width="16" height="16" viewBox="0 0 16 16" fill="none" xmlns="http://www.w3.org/2000/svg">
<path d="M12.6667 14H3.33333C2.6 14 2 13.4 2 12.6667V3.33333C2 2.6 2.6 2 3.33333 2H12.6667C13.4 2 14 2.6 14 3.33333V12.6667C14 13.4 13.4 14 12.6667 14Z" fill="url(#paint0_linear_2583_14665)"/>
<path opacity="0.05" d="M4.97667 8.66663C4.837 8.66663 4.705 8.61263 4.60433 8.51496L3.21067 7.16329C3.075 7.03096 3 6.85463 3 6.66663C3 6.47863 3.075 6.30229 3.21067 6.17029L4.60433 4.81796C4.705 4.72029 4.83733 4.66663 4.97667 4.66663C5.27167 4.66663 5.51133 4.90329 5.51133 5.19429V5.66663H7.08333C7.405 5.66663 7.66667 5.92496 7.66667 6.24263V7.09096C7.66667 7.40829 7.405 7.66663 7.08333 7.66663H5.51133V8.13896C5.51133 8.28863 5.45033 8.42629 5.33967 8.52696C5.24033 8.61696 5.11133 8.66663 4.97667 8.66663Z" fill="black"/>
<path opacity="0.07" d="M4.97669 8.50004C4.88102 8.50004 4.78969 8.46304 4.72035 8.39571L3.32669 7.04371C3.22369 6.94337 3.16669 6.80937 3.16669 6.66671C3.16669 6.52404 3.22369 6.39004 3.32669 6.29004L4.72035 4.93771C4.78969 4.87037 4.88069 4.83337 4.97669 4.83337C5.17969 4.83337 5.34469 4.99537 5.34469 5.19437V5.83337H7.08335C7.31302 5.83337 7.50002 6.01704 7.50002 6.24271V7.09104C7.50002 7.31671 7.31302 7.50037 7.08335 7.50037H5.34469V8.13937C5.34469 8.24171 5.30302 8.33571 5.22769 8.40404C5.15935 8.46571 5.07002 8.50004 4.97669 8.50004Z" fill="black"/>
<path d="M5.17797 8.13899V7.33332H7.08331C7.22131 7.33332 7.33331 7.22466 7.33331 7.09066V6.24266C7.33331 6.10866 7.22131 5.99999 7.08331 5.99999H5.17797V5.19432C5.17797 5.02132 4.96264 4.93499 4.83664 5.05699L3.44331 6.40899C3.29697 6.55099 3.29697 6.78166 3.44331 6.92366L4.83664 8.27566C4.96264 8.39832 5.17797 8.31166 5.17797 8.13899Z" fill="white"/>
<path opacity="0.05" d="M4.97667 13C4.837 13 4.705 12.946 4.60433 12.8483L3.21067 11.4967C3.075 11.3643 3 11.188 3 11C3 10.812 3.075 10.6357 3.21067 10.5037L4.60433 9.15133C4.705 9.05367 4.83733 9 4.97667 9C5.27167 9 5.51133 9.23667 5.51133 9.52767V10H7.08333C7.405 10 7.66667 10.2583 7.66667 10.576V11.4243C7.66667 11.7417 7.405 12 7.08333 12H5.51133V12.4723C5.51133 12.622 5.45033 12.7597 5.33967 12.8603C5.24033 12.9503 5.11133 13 4.97667 13Z" fill="black"/>
<path opacity="0.07" d="M4.97669 12.8333C4.88102 12.8333 4.78969 12.7963 4.72035 12.729L3.32669 11.377C3.22369 11.2766 3.16669 11.1426 3.16669 11C3.16669 10.8573 3.22369 10.7233 3.32669 10.6233L4.72035 9.27096C4.78969 9.20363 4.88069 9.16663 4.97669 9.16663C5.17969 9.16663 5.34469 9.32863 5.34469 9.52763V10.1666H7.08335C7.31302 10.1666 7.50002 10.3503 7.50002 10.576V11.4243C7.50002 11.65 7.31302 11.8336 7.08335 11.8336H5.34469V12.4726C5.34469 12.575 5.30302 12.669 5.22769 12.7373C5.15935 12.799 5.07002 12.8333 4.97669 12.8333Z" fill="black"/>
<path d="M5.17797 12.4724V11.6667H7.08331C7.22131 11.6667 7.33331 11.558 7.33331 11.424V10.576C7.33331 10.442 7.22131 10.3334 7.08331 10.3334H5.17797V9.5277C5.17797 9.3547 4.96264 9.26836 4.83664 9.39036L3.44331 10.7424C3.29697 10.8844 3.29697 11.115 3.44331 11.257L4.83664 12.609C4.96264 12.7317 5.17797 12.645 5.17797 12.4724Z" fill="white"/>
<path opacity="0.05" d="M11.0233 11.3334C10.7283 11.3334 10.4886 11.0967 10.4886 10.8057V10.3334H8.91665C8.59498 10.3334 8.33331 10.075 8.33331 9.75737V8.90904C8.33331 8.59171 8.59498 8.33337 8.91665 8.33337H10.4886V7.86104C10.4886 7.57004 10.7286 7.33337 11.0233 7.33337C11.163 7.33337 11.295 7.38737 11.3956 7.48504L12.7893 8.83671C12.925 8.96904 13 9.14537 13 9.33337C13 9.52137 12.925 9.69771 12.7893 9.82971L11.3956 11.182C11.295 11.2797 11.1626 11.3334 11.0233 11.3334Z" fill="black"/>
<path opacity="0.07" d="M11.0233 11.1666C10.8203 11.1666 10.6553 11.0046 10.6553 10.8056V10.1666H8.91667C8.687 10.1666 8.5 9.98297 8.5 9.7573V8.90897C8.5 8.6833 8.687 8.49963 8.91667 8.49963H10.6553V7.86063C10.6553 7.6613 10.8203 7.49963 11.0233 7.49963C11.119 7.49963 11.2103 7.53663 11.2797 7.60397L12.6733 8.95597C12.7767 9.0563 12.8333 9.1903 12.8333 9.33297C12.8333 9.47563 12.7763 9.60963 12.6733 9.70963L11.2797 11.062C11.2103 11.1296 11.119 11.1666 11.0233 11.1666Z" fill="black"/>
<path d="M10.822 7.86104V8.66671H8.91669C8.77869 8.66671 8.66669 8.77537 8.66669 8.90937V9.75737C8.66669 9.89137 8.77869 10 8.91669 10H10.822V10.8057C10.822 10.9787 11.0374 11.065 11.1634 10.943L12.5567 9.59104C12.703 9.44904 12.703 9.21837 12.5567 9.07637L11.1634 7.72437C11.0374 7.60171 10.822 7.68837 10.822 7.86104Z" fill="white"/>
<path opacity="0.05" d="M11.0233 7C10.7283 7 10.4886 6.76333 10.4886 6.47233V6H8.91665C8.59498 6 8.33331 5.74167 8.33331 5.424V4.57567C8.33331 4.25833 8.59498 4 8.91665 4H10.4886V3.52767C10.4886 3.23667 10.7286 3 11.0233 3C11.163 3 11.295 3.054 11.3956 3.15167L12.7893 4.50333C12.925 4.63567 13 4.812 13 5C13 5.188 12.925 5.36433 12.7893 5.49633L11.3956 6.84867C11.295 6.94633 11.1626 7 11.0233 7Z" fill="black"/>
<path opacity="0.07" d="M11.0233 6.83338C10.8203 6.83338 10.6553 6.67138 10.6553 6.47238V5.83338H8.91667C8.687 5.83338 8.5 5.64971 8.5 5.42405V4.57572C8.5 4.35005 8.687 4.16638 8.91667 4.16638H10.6553V3.52738C10.6553 3.32805 10.8203 3.16638 11.0233 3.16638C11.119 3.16638 11.2103 3.20338 11.2797 3.27072L12.6733 4.62272C12.7767 4.72305 12.8333 4.85705 12.8333 4.99972C12.8333 5.14238 12.7763 5.27638 12.6733 5.37638L11.2797 6.72872C11.2103 6.79638 11.119 6.83338 11.0233 6.83338Z" fill="black"/>
<path d="M10.822 3.52766V4.33333H8.91669C8.77869 4.33333 8.66669 4.442 8.66669 4.576V5.424C8.66669 5.558 8.77869 5.66666 8.91669 5.66666H10.822V6.47233C10.822 6.64533 11.0374 6.73166 11.1634 6.60966L12.5567 5.25766C12.703 5.11566 12.703 4.885 12.5567 4.743L11.1634 3.391C11.0374 3.26833 10.822 3.355 10.822 3.52766Z" fill="white"/>
<defs>
<linearGradient id="paint0_linear_2583_14665" x1="3.745" y1="2.19767" x2="14.2403" y2="16.5097" gradientUnits="userSpaceOnUse">
<stop stop-color="#21AD64"/>
<stop offset="1" stop-color="#088242"/>
</linearGradient>
</defs>
</svg>
