<svg width="16" height="16" viewBox="0 0 16 16" fill="none" xmlns="http://www.w3.org/2000/svg">
<path d="M13.6667 11.6667H2.33335C1.96502 11.6667 1.66669 11.3684 1.66669 11V3.00004C1.66669 2.63171 1.96502 2.33337 2.33335 2.33337H13.6667C14.035 2.33337 14.3334 2.63171 14.3334 3.00004V11C14.3334 11.3684 14.035 11.6667 13.6667 11.6667Z" fill="url(#paint0_linear_2583_14597)"/>
<path d="M13.6666 3H2.33331V11H13.6666V3Z" fill="url(#paint1_radial_2583_14597)"/>
<path d="M11 12.6666H9.33335V11.6666H6.66669V12.6666H5.00002C4.81602 12.6666 4.66669 12.816 4.66669 13V13.6666C4.66669 13.8506 4.81602 14 5.00002 14H11C11.184 14 11.3334 13.8506 11.3334 13.6666V13C11.3334 12.816 11.184 12.6666 11 12.6666Z" fill="url(#paint2_linear_2583_14597)"/>
<path opacity="0.05" d="M7 2.33337H6V14H7C7.36833 14 7.66667 13.7017 7.66667 13.3334V3.00004C7.66667 2.63171 7.36833 2.33337 7 2.33337Z" fill="black"/>
<path opacity="0.07" d="M6.66669 2.33337H5.66669V14H6.66669C7.03502 14 7.33335 13.7017 7.33335 13.3334V3.00004C7.33335 2.63171 7.03502 2.33337 6.66669 2.33337Z" fill="black"/>
<path d="M6.33335 2.33337H2.33335C1.96502 2.33337 1.66669 2.63171 1.66669 3.00004V13.3334C1.66669 13.7017 1.96502 14 2.33335 14H6.33335C6.70169 14 7.00002 13.7017 7.00002 13.3334V3.00004C7.00002 2.63171 6.70169 2.33337 6.33335 2.33337Z" fill="url(#paint3_linear_2583_14597)"/>
<path d="M4.33331 12.6666C4.8856 12.6666 5.33331 12.2189 5.33331 11.6666C5.33331 11.1143 4.8856 10.6666 4.33331 10.6666C3.78103 10.6666 3.33331 11.1143 3.33331 11.6666C3.33331 12.2189 3.78103 12.6666 4.33331 12.6666Z" fill="url(#paint4_radial_2583_14597)"/>
<path d="M4.33335 12.3333C4.70154 12.3333 5.00002 12.0349 5.00002 11.6667C5.00002 11.2985 4.70154 11 4.33335 11C3.96516 11 3.66669 11.2985 3.66669 11.6667C3.66669 12.0349 3.96516 12.3333 4.33335 12.3333Z" fill="white"/>
<path d="M6.16665 4.66671H2.49998C2.40798 4.66671 2.33331 4.59204 2.33331 4.50004V3.50004C2.33331 3.40804 2.40798 3.33337 2.49998 3.33337H6.16665C6.25865 3.33337 6.33331 3.40804 6.33331 3.50004V4.50004C6.33331 4.59204 6.25865 4.66671 6.16665 4.66671Z" fill="#727D86"/>
<path d="M5.66665 4.33329C5.85074 4.33329 5.99998 4.18405 5.99998 3.99996C5.99998 3.81586 5.85074 3.66663 5.66665 3.66663C5.48255 3.66663 5.33331 3.81586 5.33331 3.99996C5.33331 4.18405 5.48255 4.33329 5.66665 4.33329Z" fill="#50E6FF"/>
<path d="M6.16665 6.66671H2.49998C2.40798 6.66671 2.33331 6.59204 2.33331 6.50004V5.50004C2.33331 5.40804 2.40798 5.33337 2.49998 5.33337H6.16665C6.25865 5.33337 6.33331 5.40804 6.33331 5.50004V6.50004C6.33331 6.59204 6.25865 6.66671 6.16665 6.66671Z" fill="#727D86"/>
<path d="M5.66665 6.33329C5.85074 6.33329 5.99998 6.18405 5.99998 5.99996C5.99998 5.81586 5.85074 5.66663 5.66665 5.66663C5.48255 5.66663 5.33331 5.81586 5.33331 5.99996C5.33331 6.18405 5.48255 6.33329 5.66665 6.33329Z" fill="#50E6FF"/>
<defs>
<linearGradient id="paint0_linear_2583_14597" x1="2.88769" y1="2.68637" x2="12.7074" y2="10.9717" gradientUnits="userSpaceOnUse">
<stop stop-color="#C3CDD9"/>
<stop offset="1" stop-color="#9FA7B0"/>
</linearGradient>
<radialGradient id="paint1_radial_2583_14597" cx="0" cy="0" r="1" gradientUnits="userSpaceOnUse" gradientTransform="translate(13.3053 17.3714) scale(23.2718 20.6643)">
<stop offset="0.323" stop-color="#23D9D6"/>
<stop offset="0.427" stop-color="#23D4D7"/>
<stop offset="0.542" stop-color="#21C7DC"/>
<stop offset="0.664" stop-color="#1FB0E2"/>
<stop offset="0.789" stop-color="#1C91EC"/>
<stop offset="0.917" stop-color="#1969F8"/>
<stop offset="0.944" stop-color="#1860FB"/>
</radialGradient>
<linearGradient id="paint2_linear_2583_14597" x1="8.00002" y1="11.6616" x2="8.00002" y2="14.0046" gradientUnits="userSpaceOnUse">
<stop stop-color="#484B4F"/>
<stop offset="0.265" stop-color="#656D75"/>
<stop offset="0.423" stop-color="#727D86"/>
<stop offset="0.429" stop-color="#86949E"/>
</linearGradient>
<linearGradient id="paint3_linear_2583_14597" x1="3.00135" y1="2.62704" x2="5.79069" y2="14.228" gradientUnits="userSpaceOnUse">
<stop stop-color="#C3CDD9"/>
<stop offset="1" stop-color="#9FA7B0"/>
</linearGradient>
<radialGradient id="paint4_radial_2583_14597" cx="0" cy="0" r="1" gradientUnits="userSpaceOnUse" gradientTransform="translate(4.33331 11.6666)">
<stop offset="0.582" stop-opacity="0.2"/>
<stop offset="1" stop-opacity="0"/>
</radialGradient>
</defs>
</svg>
