<svg width="16" height="16" viewBox="0 0 16 16" fill="none" xmlns="http://www.w3.org/2000/svg">
<path d="M14 13.3333H1.99998C1.82333 13.3328 1.65406 13.2624 1.52915 13.1375C1.40423 13.0126 1.33383 12.8433 1.33331 12.6667V5.66667C1.33383 5.49001 1.40423 5.32075 1.52915 5.19583C1.65406 5.07092 1.82333 5.00052 1.99998 5H14C14.1766 5.00052 14.3459 5.07092 14.4708 5.19583C14.5957 5.32075 14.6661 5.49001 14.6666 5.66667V12.6667C14.6661 12.8433 14.5957 13.0126 14.4708 13.1375C14.3459 13.2624 14.1766 13.3328 14 13.3333Z" fill="#6D7882"/>
<path d="M13.3334 5.00004H2.66669V3.66671C2.66672 3.57831 2.70185 3.49355 2.76435 3.43104C2.82686 3.36853 2.91162 3.33341 3.00002 3.33337H13C13.0884 3.33341 13.1732 3.36853 13.2357 3.43104C13.2982 3.49355 13.3333 3.57831 13.3334 3.66671V5.00004Z" fill="#0076D7"/>
<path d="M4.33335 1.66663H11.6667C11.7542 1.6666 11.8409 1.68383 11.9218 1.71732C12.0027 1.75082 12.0762 1.79992 12.1381 1.86183C12.2001 1.92374 12.2492 1.99725 12.2827 2.07814C12.3162 2.15904 12.3334 2.24574 12.3334 2.33329V4.99996H3.66669V2.33329C3.66666 2.24574 3.68389 2.15904 3.71739 2.07814C3.75088 1.99725 3.79999 1.92374 3.8619 1.86183C3.92381 1.79992 3.99731 1.75082 4.0782 1.71732C4.1591 1.68383 4.2458 1.6666 4.33335 1.66663Z" fill="#50E6FF"/>
<path d="M3.33335 7.33337H12.6667C12.8435 7.33337 13.0131 7.40361 13.1381 7.52864C13.2631 7.65366 13.3334 7.82323 13.3334 8.00004V11H2.66669V8.00004C2.66669 7.82323 2.73693 7.65366 2.86195 7.52864C2.98697 7.40361 3.15654 7.33337 3.33335 7.33337Z" fill="#252525"/>
<path d="M14.116 13.3333H1.884C1.72904 13.3333 1.57891 13.2793 1.45944 13.1807C1.33996 13.082 1.2586 12.9447 1.22934 12.7926L0.681059 9.94149C0.659025 9.82692 0.66258 9.70889 0.691469 9.59585C0.720358 9.48281 0.773867 9.37755 0.848171 9.28759C0.922475 9.19764 1.01574 9.12521 1.12129 9.0755C1.22684 9.02578 1.34207 9 1.45875 9H14.5413C14.6579 9 14.7732 9.02578 14.8787 9.0755C14.9843 9.12521 15.0775 9.19764 15.1518 9.28759C15.2261 9.37755 15.2796 9.48281 15.3085 9.59585C15.3374 9.70889 15.341 9.82692 15.3189 9.94149L14.7707 12.7926C14.7414 12.9447 14.66 13.082 14.5406 13.1807C14.4211 13.2793 14.271 13.3333 14.116 13.3333Z" fill="url(#paint0_linear_2583_14642)"/>
<path opacity="0.05" d="M14.6666 8.66663H1.33331V8.99996H14.6666V8.66663Z" fill="black"/>
<path opacity="0.07" d="M14.6666 8.83337H1.33331V9.00004H14.6666V8.83337Z" fill="black"/>
<defs>
<linearGradient id="paint0_linear_2583_14642" x1="8" y1="8.12333" x2="8" y2="13.4073" gradientUnits="userSpaceOnUse">
<stop offset="0.503" stop-color="#A1AAB3"/>
<stop offset="0.658" stop-color="#9EA7AF"/>
<stop offset="0.796" stop-color="#949DA5"/>
<stop offset="0.928" stop-color="#848C92"/>
<stop offset="1" stop-color="#787F85"/>
</linearGradient>
</defs>
</svg>
