<svg width="16" height="16" viewBox="0 0 16 16" fill="none" xmlns="http://www.w3.org/2000/svg">
<path d="M7.20667 2.33033C7.20233 2.315 7.2 2.28833 7.2 2.26833C7.2 2.12 7.31933 2 7.46667 2C7.52933 2 7.573 2.02367 7.59033 2.03033C7.91633 2.15833 10.156 3.221 9.638 6.29267C10.39 5.83667 10.0703 5 10.372 5C10.4643 5 10.502 5.03467 10.5587 5.116C11.3813 6.29733 12 7.65767 12 8.97567C12 11.1983 10.2093 13 8 13C5.57067 13 4 10.9413 4 8.97567C4 5.706 7.83 5.10233 7.20667 2.33033Z" fill="url(#paint0_linear_987_1994)"/>
<path d="M7.7417 6.05067C7.7417 6.05067 7.68103 6 7.59303 6C7.46036 6 7.35236 6.10567 7.35236 6.236C7.59303 7.65267 5.90936 8.125 5.90936 9.77767C5.90936 10.821 6.7707 11.6667 7.83336 11.6667C8.89603 11.6667 9.75736 10.821 9.75736 9.77767C9.75736 8.43167 8.55003 6.63533 7.7417 6.05067Z" fill="url(#paint1_linear_987_1994)"/>
<path d="M10 14H8.66667L6.83333 13.6667L5 14H3.66667L2 12.3334V11L5.889 9.33337H7.33333L9 9.66671L11 9.33337H12.3333L14 11V12.3334L10 14Z" fill="#64717C"/>
<path d="M9 13.6667C9 13.8507 8.85067 14 8.66667 14H5C4.816 14 4.66667 13.8507 4.66667 13.6667V12.3334C4.66667 12.1494 4.816 12 5 12H8.66667C8.85067 12 9 12.1494 9 12.3334V13.6667ZM14 13.6667C14 13.8507 13.8507 14 13.6667 14H10C9.816 14 9.66667 13.8507 9.66667 13.6667V12.3334C9.66667 12.1494 9.816 12 10 12H13.6667C13.8507 12 14 12.1494 14 12.3334V13.6667ZM11 11C11 11.184 10.8507 11.3334 10.6667 11.3334H7C6.816 11.3334 6.66667 11.184 6.66667 11V9.66671C6.66667 9.48271 6.816 9.33337 7 9.33337H10.6667C10.8507 9.33337 11 9.48271 11 9.66671V11ZM2 11C2 11.184 2.14933 11.3334 2.33333 11.3334H5.66667C5.85067 11.3334 6 11.184 6 11V9.66671C6 9.48271 5.85067 9.33337 5.66667 9.33337H2.33333C2.14933 9.33337 2 9.48271 2 9.66671V11ZM13.6667 9.33337H12C11.816 9.33337 11.6667 9.48271 11.6667 9.66671V11C11.6667 11.184 11.816 11.3334 12 11.3334H14V9.66671C14 9.48271 13.8507 9.33337 13.6667 9.33337ZM3.66667 12H2V13.6667C2 13.8507 2.14933 14 2.33333 14H3.66667C3.85067 14 4 13.8507 4 13.6667V12.3334C4 12.1494 3.85067 12 3.66667 12Z" fill="url(#paint2_linear_987_1994)"/>
<defs>
<linearGradient id="paint0_linear_987_1994" x1="8" y1="1.218" x2="8" y2="11.555" gradientUnits="userSpaceOnUse">
<stop stop-color="#F44F5A"/>
<stop offset="0.443" stop-color="#EE3D4A"/>
<stop offset="0.651" stop-color="#ED3B48"/>
<stop offset="0.726" stop-color="#EB3442"/>
<stop offset="0.779" stop-color="#E82938"/>
<stop offset="0.804" stop-color="#E52030"/>
</linearGradient>
<linearGradient id="paint1_linear_987_1994" x1="7.83336" y1="5.88467" x2="7.83336" y2="10.0503" gradientUnits="userSpaceOnUse">
<stop stop-color="#FED100"/>
<stop offset="0.353" stop-color="#FDCF00"/>
<stop offset="0.523" stop-color="#FCC700"/>
<stop offset="0.655" stop-color="#F9BA00"/>
<stop offset="0.766" stop-color="#F4A800"/>
<stop offset="0.865" stop-color="#EE9001"/>
<stop offset="0.954" stop-color="#E77201"/>
<stop offset="1" stop-color="#E36001"/>
</linearGradient>
<linearGradient id="paint2_linear_987_1994" x1="6.36233" y1="8.58704" x2="9.682" y2="14.8297" gradientUnits="userSpaceOnUse">
<stop stop-color="#BEC5C8"/>
<stop offset="0.968" stop-color="#B9C1C4"/>
</linearGradient>
</defs>
</svg>
