<svg width="16" height="16" viewBox="0 0 16 16" fill="none" xmlns="http://www.w3.org/2000/svg">
<path d="M13.943 10.3383L13.1337 3.18367C13.0577 2.50933 12.4873 2 11.809 2H4.192C3.513 2 2.94266 2.51 2.867 3.18467L2.06433 10.338L8 10.3333L13.943 10.3383Z" fill="url(#paint0_linear_2593_14912)"/>
<path d="M3 14H13C13.55 14 14 13.55 14 13V10.6666C14 10.1166 13.55 9.66663 13 9.66663H3C2.45 9.66663 2 10.1166 2 10.6666V13C2 13.55 2.45 14 3 14Z" fill="url(#paint1_linear_2593_14912)"/>
<path d="M12.8334 11.8333C12.8334 12.2933 12.46 12.6667 12 12.6667C11.54 12.6667 11.1667 12.2933 11.1667 11.8333C11.1667 11.3733 11.54 11 12 11C12.46 11 12.8334 11.3733 12.8334 11.8333Z" fill="url(#paint2_linear_2593_14912)"/>
<path d="M12.5 11.8334C12.5 12.1094 12.276 12.3334 12 12.3334C11.724 12.3334 11.5 12.1094 11.5 11.8334C11.5 11.5574 11.724 11.3334 12 11.3334C12.276 11.3334 12.5 11.5574 12.5 11.8334Z" fill="url(#paint3_linear_2593_14912)"/>
<path d="M3.16002 11.3334H7.24002C7.36514 11.3334 7.46668 11.4927 7.46668 11.6889V12.0445C7.46668 12.2408 7.36514 12.4 7.24002 12.4H3.16002C3.0349 12.4 2.93335 12.2408 2.93335 12.0445V11.6889C2.93335 11.4927 3.0349 11.3334 3.16002 11.3334Z" fill="#737B80"/>
<path opacity="0.07" d="M10.3699 11.9647C10.3699 12.0627 10.3367 12.1477 10.2714 12.2174C10.2048 12.2884 10.1198 12.3258 10.026 12.3258C9.93125 12.3258 9.84581 12.2887 9.7787 12.2181C9.7123 12.1484 9.67863 12.0632 9.67863 11.9647C9.67863 11.8654 9.71206 11.7795 9.77801 11.7091C9.84534 11.6376 9.93102 11.6 10.026 11.6C10.12 11.6 10.205 11.6378 10.2716 11.7093C10.3369 11.7799 10.3699 11.8658 10.3699 11.9647ZM9.02478 11.9647C9.02478 12.063 8.99158 12.1479 8.92586 12.2176C8.85946 12.2884 8.77471 12.3258 8.68067 12.3258C8.58594 12.3258 8.50049 12.2887 8.43339 12.2181C8.36698 12.1484 8.33331 12.0632 8.33331 11.9647C8.33331 11.8654 8.36675 11.7795 8.43269 11.7091C8.50003 11.6376 8.5857 11.6 8.68067 11.6C8.77494 11.6 8.85992 11.6378 8.92633 11.7093C8.99158 11.7797 9.02478 11.8656 9.02478 11.9647Z" fill="black"/>
<path d="M8.90868 11.9648C8.90868 12.0328 8.88639 12.0904 8.84134 12.138C8.79676 12.1856 8.74312 12.2097 8.68066 12.2097C8.61728 12.2097 8.56271 12.1856 8.51743 12.138C8.47216 12.0904 8.4494 12.0328 8.4494 11.9648C8.4494 11.8956 8.47216 11.8368 8.51743 11.7885C8.56271 11.7405 8.61728 11.7161 8.68066 11.7161C8.74312 11.7161 8.79676 11.7402 8.84134 11.7885C8.88639 11.8368 8.90868 11.8956 8.90868 11.9648ZM10.2538 11.9648C10.2538 12.0328 10.2312 12.0904 10.1867 12.138C10.1418 12.1856 10.0882 12.2097 10.026 12.2097C9.96259 12.2097 9.90803 12.1856 9.86275 12.138C9.81747 12.0904 9.79472 12.0328 9.79472 11.9648C9.79472 11.8956 9.81747 11.8368 9.86275 11.7885C9.90803 11.7405 9.96259 11.7161 10.026 11.7161C10.0884 11.7161 10.1421 11.7402 10.1867 11.7885C10.2315 11.8368 10.2538 11.8956 10.2538 11.9648Z" fill="white"/>
<defs>
<linearGradient id="paint0_linear_2593_14912" x1="8.00366" y1="9.526" x2="8.00366" y2="0.812333" gradientUnits="userSpaceOnUse">
<stop stop-color="#737B80"/>
<stop offset="0.473" stop-color="#686F74"/>
<stop offset="1" stop-color="#575C61"/>
</linearGradient>
<linearGradient id="paint1_linear_2593_14912" x1="8" y1="9.81463" x2="8" y2="15.5813" gradientUnits="userSpaceOnUse">
<stop stop-color="#899198"/>
<stop offset="1" stop-color="#787E85"/>
</linearGradient>
<linearGradient id="paint2_linear_2593_14912" x1="12.591" y1="12.4243" x2="11.39" y2="11.2233" gradientUnits="userSpaceOnUse">
<stop stop-color="white"/>
<stop offset="0.242" stop-color="#F2F2F2"/>
<stop offset="1" stop-color="#CCCCCC"/>
</linearGradient>
<linearGradient id="paint3_linear_2593_14912" x1="11.6467" y1="11.4797" x2="12.3533" y2="12.187" gradientUnits="userSpaceOnUse">
<stop stop-color="#21AD64"/>
<stop offset="1" stop-color="#088242"/>
</linearGradient>
</defs>
</svg>
