<svg width="16" height="16" viewBox="0 0 16 16" fill="none" xmlns="http://www.w3.org/2000/svg">
<path d="M10.3333 13C10.3017 13 10.2693 12.9953 10.2373 12.986C10.061 12.933 9.96068 12.7473 10.0137 12.571L12.0137 5.90434C12.0667 5.728 12.2527 5.62767 12.4287 5.68067C12.605 5.73367 12.7053 5.91934 12.6523 6.09567L10.6523 12.7623C10.6093 12.907 10.477 13 10.3333 13Z" fill="url(#paint0_linear_2583_14748)"/>
<path d="M5.66669 13C5.52336 13 5.39103 12.9067 5.34736 12.7623L3.34736 6.09567C3.29436 5.91934 3.39469 5.73367 3.57103 5.68067C3.74703 5.62867 3.93303 5.72801 3.98603 5.90434L5.98603 12.571C6.03903 12.7473 5.93869 12.933 5.76236 12.986C5.73036 12.9953 5.69836 13 5.66669 13Z" fill="url(#paint1_linear_2583_14748)"/>
<path d="M13.6667 14H2.33335C1.96502 14 1.66669 13.7017 1.66669 13.3334V11C1.66669 10.6317 1.96502 10.3334 2.33335 10.3334H13.6667C14.035 10.3334 14.3334 10.6317 14.3334 11V13.3334C14.3334 13.7017 14.035 14 13.6667 14Z" fill="url(#paint2_linear_2583_14748)"/>
<path d="M13.6666 11H2.33331V13.3333H13.6666V11Z" fill="#737B80"/>
<path d="M12.1666 13C12.6269 13 13 12.6269 13 12.1667C13 11.7065 12.6269 11.3334 12.1666 11.3334C11.7064 11.3334 11.3333 11.7065 11.3333 12.1667C11.3333 12.6269 11.7064 13 12.1666 13Z" fill="url(#paint3_radial_2583_14748)"/>
<path d="M10.1666 13C10.6269 13 11 12.6269 11 12.1667C11 11.7065 10.6269 11.3334 10.1666 11.3334C9.70641 11.3334 9.33331 11.7065 9.33331 12.1667C9.33331 12.6269 9.70641 13 10.1666 13Z" fill="url(#paint4_radial_2583_14748)"/>
<path d="M8.16665 13C8.62688 13 8.99998 12.6269 8.99998 12.1667C8.99998 11.7065 8.62688 11.3334 8.16665 11.3334C7.70641 11.3334 7.33331 11.7065 7.33331 12.1667C7.33331 12.6269 7.70641 13 8.16665 13Z" fill="url(#paint5_radial_2583_14748)"/>
<path d="M3.83333 13C4.29357 13 4.66667 12.6269 4.66667 12.1667C4.66667 11.7065 4.29357 11.3334 3.83333 11.3334C3.3731 11.3334 3 11.7065 3 12.1667C3 12.6269 3.3731 13 3.83333 13Z" fill="url(#paint6_radial_2583_14748)"/>
<path d="M12.1667 12.6666C12.4428 12.6666 12.6667 12.4428 12.6667 12.1666C12.6667 11.8905 12.4428 11.6666 12.1667 11.6666C11.8905 11.6666 11.6667 11.8905 11.6667 12.1666C11.6667 12.4428 11.8905 12.6666 12.1667 12.6666Z" fill="#50E6FF"/>
<path d="M10.1667 12.6666C10.4428 12.6666 10.6667 12.4428 10.6667 12.1666C10.6667 11.8905 10.4428 11.6666 10.1667 11.6666C9.89054 11.6666 9.66669 11.8905 9.66669 12.1666C9.66669 12.4428 9.89054 12.6666 10.1667 12.6666Z" fill="#50E6FF"/>
<path d="M8.16669 12.6666C8.44283 12.6666 8.66669 12.4428 8.66669 12.1666C8.66669 11.8905 8.44283 11.6666 8.16669 11.6666C7.89054 11.6666 7.66669 11.8905 7.66669 12.1666C7.66669 12.4428 7.89054 12.6666 8.16669 12.6666Z" fill="#50E6FF"/>
<path d="M3.83331 12.6666C4.10946 12.6666 4.33331 12.4428 4.33331 12.1666C4.33331 11.8905 4.10946 11.6666 3.83331 11.6666C3.55717 11.6666 3.33331 11.8905 3.33331 12.1666C3.33331 12.4428 3.55717 12.6666 3.83331 12.6666Z" fill="#50E6FF"/>
<path d="M12.2323 3.88995L11.5313 4.59628L7.99333 3.32262L4.45866 4.59328L3.765 3.89428C3.63766 3.76561 3.632 3.55328 3.76033 3.42562C4.87833 2.31495 6.412 1.66128 7.99333 1.66028C9.56433 1.65861 11.1243 2.31261 12.2377 3.42228C12.3657 3.54962 12.3597 3.76162 12.2323 3.88995Z" fill="#0078D4"/>
<path d="M11.5317 4.59669L11.463 4.66336L10.595 5.53136L7.99402 4.65402L5.39602 5.52802L4.52802 4.66336L4.45935 4.59336C5.33068 3.61236 6.59202 2.99036 7.99402 2.99036C9.39902 2.99036 10.66 3.61202 11.5317 4.59669Z" fill="#199BE2"/>
<path d="M10.5947 5.53098L10.444 5.68065L9.65766 6.46565L7.99332 5.98431L6.33232 6.46565L5.54599 5.68065L5.39532 5.52765C6.02766 4.78931 6.95799 4.32031 7.99332 4.32031C9.03199 4.32065 9.96232 4.78931 10.5947 5.53098Z" fill="#35C1F1"/>
<path d="M9.65767 6.46567L9.412 6.71167L8.22667 7.90367C8.09934 8.032 7.89367 8.032 7.766 7.90433L6.57467 6.71167L6.33234 6.46567C6.72234 5.97 7.32167 5.651 7.99334 5.651C8.66834 5.65067 9.26767 5.97 9.65767 6.46567Z" fill="#50E6FF"/>
<defs>
<linearGradient id="paint0_linear_2583_14748" x1="11.3723" y1="5.813" x2="11.303" y2="12.0213" gradientUnits="userSpaceOnUse">
<stop stop-color="#737B80"/>
<stop offset="0.714" stop-color="#737B80"/>
<stop offset="0.756" stop-color="#737B80"/>
<stop offset="0.863" stop-color="#656C71"/>
<stop offset="1" stop-color="#575C61"/>
</linearGradient>
<linearGradient id="paint1_linear_2583_14748" x1="4.70703" y1="5.72367" x2="4.63769" y2="11.932" gradientUnits="userSpaceOnUse">
<stop stop-color="#737B80"/>
<stop offset="0.773" stop-color="#737B80"/>
<stop offset="1" stop-color="#575C61"/>
</linearGradient>
<linearGradient id="paint2_linear_2583_14748" x1="8.00002" y1="11.092" x2="8.00002" y2="16.6537" gradientUnits="userSpaceOnUse">
<stop stop-color="#899198"/>
<stop offset="1" stop-color="#787E85"/>
</linearGradient>
<radialGradient id="paint3_radial_2583_14748" cx="0" cy="0" r="1" gradientUnits="userSpaceOnUse" gradientTransform="translate(12.1666 12.1667) scale(0.833333)">
<stop offset="0.582" stop-opacity="0.2"/>
<stop offset="1" stop-opacity="0"/>
</radialGradient>
<radialGradient id="paint4_radial_2583_14748" cx="0" cy="0" r="1" gradientUnits="userSpaceOnUse" gradientTransform="translate(10.1666 12.1667) scale(0.833333)">
<stop offset="0.582" stop-opacity="0.2"/>
<stop offset="1" stop-opacity="0"/>
</radialGradient>
<radialGradient id="paint5_radial_2583_14748" cx="0" cy="0" r="1" gradientUnits="userSpaceOnUse" gradientTransform="translate(8.16665 12.1667) scale(0.833333)">
<stop offset="0.582" stop-opacity="0.2"/>
<stop offset="1" stop-opacity="0"/>
</radialGradient>
<radialGradient id="paint6_radial_2583_14748" cx="0" cy="0" r="1" gradientUnits="userSpaceOnUse" gradientTransform="translate(3.83333 12.1667) scale(0.833333)">
<stop offset="0.582" stop-opacity="0.2"/>
<stop offset="1" stop-opacity="0"/>
</radialGradient>
</defs>
</svg>
