<svg width="16" height="16" viewBox="0 0 16 16" fill="none" xmlns="http://www.w3.org/2000/svg">
<path d="M11.776 15.6667H4.22402C3.91635 15.6667 3.66669 15.417 3.66669 15.1094V0.890707C3.66669 0.583041 3.91635 0.333374 4.22402 0.333374H11.776C12.0837 0.333374 12.3334 0.583041 12.3334 0.890707V15.1094C12.3334 15.417 12.0837 15.6667 11.776 15.6667Z" fill="url(#paint0_linear_2583_14705)"/>
<path d="M11.7127 15.507H4.28733C4.04266 15.507 3.84399 15.3087 3.84399 15.0637V0.936375C3.84399 0.691709 4.04233 0.493042 4.28733 0.493042H11.713C11.9577 0.493042 12.1563 0.691375 12.1563 0.936375V15.064C12.156 15.3087 11.9577 15.507 11.7127 15.507Z" fill="url(#paint1_linear_2583_14705)"/>
<path d="M11.7163 14H4.28367C4.127 14 4 13.873 4 13.7163V1.95029C4 1.79363 4.127 1.66663 4.28367 1.66663H11.7163C11.873 1.66663 12 1.79363 12 1.95029V13.7163C12 13.873 11.873 14 11.7163 14Z" fill="url(#paint2_linear_2583_14705)"/>
<path d="M11.7163 1.83329C11.781 1.83329 11.8333 1.88596 11.8333 1.95029V13.7163C11.8333 13.781 11.781 13.8333 11.7163 13.8333H4.28367C4.219 13.8333 4.16667 13.7806 4.16667 13.7163V1.95029C4.16667 1.88563 4.219 1.83329 4.28367 1.83329H11.7163ZM11.7163 1.66663H4.28367C4.127 1.66663 4 1.79363 4 1.95029V13.7163C4 13.873 4.127 14 4.28367 14H11.7163C11.873 14 12 13.873 12 13.7163V1.95029C12 1.79363 11.873 1.66663 11.7163 1.66663Z" fill="url(#paint3_linear_2583_14705)"/>
<path d="M4.98267 15.5076H4.29034C4.04 15.5076 3.83667 15.3046 3.83667 15.054V0.952977C3.83667 0.69831 4.043 0.49231 4.29734 0.49231H4.98234C5.17634 0.491977 5.33334 0.648977 5.33334 0.842643V15.1573C5.33334 15.351 5.17634 15.5076 4.98267 15.5076Z" fill="url(#paint4_linear_2583_14705)"/>
<path d="M11.0127 15.5076H11.718C11.9613 15.5076 12.1587 15.3103 12.1587 15.0669V0.93561C12.1587 0.69061 11.96 0.491943 11.715 0.491943H11.0127C10.819 0.491943 10.662 0.648943 10.662 0.84261V15.1573C10.662 15.3509 10.819 15.5076 11.0127 15.5076Z" fill="url(#paint5_linear_2583_14705)"/>
<path d="M9.251 1.16433H7.082C7.03667 1.16433 7 1.12767 7 1.08233C7 1.03667 7.03667 1 7.08233 1H9.25133C9.29667 1 9.33333 1.03667 9.33333 1.08233C9.33333 1.12767 9.29667 1.16433 9.251 1.16433Z" fill="url(#paint6_linear_2583_14705)"/>
<path d="M9.16667 15H7.16667C7.07467 15 7 14.9253 7 14.8333C7 14.7413 7.07467 14.6666 7.16667 14.6666H9.16667C9.25867 14.6666 9.33333 14.7413 9.33333 14.8333C9.33333 14.9253 9.25867 15 9.16667 15Z" fill="url(#paint7_linear_2583_14705)"/>
<path d="M6 12H5V13H6V12Z" fill="url(#paint8_linear_2583_14705)"/>
<path d="M7.66669 12H6.66669V13H7.66669V12Z" fill="url(#paint9_linear_2583_14705)"/>
<path d="M9.33331 12H8.33331V13H9.33331V12Z" fill="url(#paint10_linear_2583_14705)"/>
<path d="M11 12H10V13H11V12Z" fill="url(#paint11_linear_2583_14705)"/>
<path d="M5.66667 8.33333C6.03486 8.33333 6.33333 8.03486 6.33333 7.66667C6.33333 7.29848 6.03486 7 5.66667 7C5.29848 7 5 7.29848 5 7.66667C5 8.03486 5.29848 8.33333 5.66667 8.33333Z" fill="url(#paint12_linear_2583_14705)"/>
<path d="M5.66667 6.33333C6.03486 6.33333 6.33333 6.03486 6.33333 5.66667C6.33333 5.29848 6.03486 5 5.66667 5C5.29848 5 5 5.29848 5 5.66667C5 6.03486 5.29848 6.33333 5.66667 6.33333Z" fill="url(#paint13_linear_2583_14705)"/>
<path d="M5.66667 4.33333C6.03486 4.33333 6.33333 4.03486 6.33333 3.66667C6.33333 3.29848 6.03486 3 5.66667 3C5.29848 3 5 3.29848 5 3.66667C5 4.03486 5.29848 4.33333 5.66667 4.33333Z" fill="url(#paint14_linear_2583_14705)"/>
<path d="M7.99998 8.33333C8.36817 8.33333 8.66665 8.03486 8.66665 7.66667C8.66665 7.29848 8.36817 7 7.99998 7C7.63179 7 7.33331 7.29848 7.33331 7.66667C7.33331 8.03486 7.63179 8.33333 7.99998 8.33333Z" fill="url(#paint15_linear_2583_14705)"/>
<path d="M5.66667 10.3333C6.03486 10.3333 6.33333 10.0349 6.33333 9.66667C6.33333 9.29848 6.03486 9 5.66667 9C5.29848 9 5 9.29848 5 9.66667C5 10.0349 5.29848 10.3333 5.66667 10.3333Z" fill="url(#paint16_linear_2583_14705)"/>
<path d="M7.99998 10.3333C8.36817 10.3333 8.66665 10.0349 8.66665 9.66667C8.66665 9.29848 8.36817 9 7.99998 9C7.63179 9 7.33331 9.29848 7.33331 9.66667C7.33331 10.0349 7.63179 10.3333 7.99998 10.3333Z" fill="url(#paint17_linear_2583_14705)"/>
<path d="M7.99998 6.33333C8.36817 6.33333 8.66665 6.03486 8.66665 5.66667C8.66665 5.29848 8.36817 5 7.99998 5C7.63179 5 7.33331 5.29848 7.33331 5.66667C7.33331 6.03486 7.63179 6.33333 7.99998 6.33333Z" fill="url(#paint18_linear_2583_14705)"/>
<path d="M7.99998 4.33333C8.36817 4.33333 8.66665 4.03486 8.66665 3.66667C8.66665 3.29848 8.36817 3 7.99998 3C7.63179 3 7.33331 3.29848 7.33331 3.66667C7.33331 4.03486 7.63179 4.33333 7.99998 4.33333Z" fill="url(#paint19_linear_2583_14705)"/>
<path d="M10.3334 8.33333C10.7015 8.33333 11 8.03486 11 7.66667C11 7.29848 10.7015 7 10.3334 7C9.96516 7 9.66669 7.29848 9.66669 7.66667C9.66669 8.03486 9.96516 8.33333 10.3334 8.33333Z" fill="url(#paint20_linear_2583_14705)"/>
<path d="M10.3334 6.33333C10.7015 6.33333 11 6.03486 11 5.66667C11 5.29848 10.7015 5 10.3334 5C9.96516 5 9.66669 5.29848 9.66669 5.66667C9.66669 6.03486 9.96516 6.33333 10.3334 6.33333Z" fill="url(#paint21_linear_2583_14705)"/>
<path d="M10.3334 4.33333C10.7015 4.33333 11 4.03486 11 3.66667C11 3.29848 10.7015 3 10.3334 3C9.96516 3 9.66669 3.29848 9.66669 3.66667C9.66669 4.03486 9.96516 4.33333 10.3334 4.33333Z" fill="url(#paint22_linear_2583_14705)"/>
<path d="M4.28733 0.493042C4.04266 0.493042 3.84399 0.691375 3.84399 0.936375V9.82604L10.552 0.493042H4.28733Z" fill="url(#paint23_linear_2583_14705)"/>
<defs>
<linearGradient id="paint0_linear_2583_14705" x1="-1.83331" y1="0.913041" x2="20.1537" y2="16.7594" gradientUnits="userSpaceOnUse">
<stop offset="0.278" stop-color="#9C9C9C"/>
<stop offset="1" stop-color="#555555"/>
</linearGradient>
<linearGradient id="paint1_linear_2583_14705" x1="-7.29267" y1="8.00004" x2="19.1403" y2="8.00004" gradientUnits="userSpaceOnUse">
<stop stop-color="#EEEEEE"/>
<stop offset="1" stop-color="#999999"/>
</linearGradient>
<linearGradient id="paint2_linear_2583_14705" x1="10.026" y1="13.4336" x2="4.82067" y2="-0.954374" gradientUnits="userSpaceOnUse">
<stop stop-color="#00349C"/>
<stop offset="1" stop-color="#00B1F2"/>
</linearGradient>
<linearGradient id="paint3_linear_2583_14705" x1="7.99533" y1="7.69696" x2="7.723" y2="-0.298374" gradientUnits="userSpaceOnUse">
<stop stop-color="#003399"/>
<stop offset="1" stop-color="#00349C" stop-opacity="0"/>
</linearGradient>
<linearGradient id="paint4_linear_2583_14705" x1="1.99867" y1="7.99998" x2="4.84034" y2="7.99998" gradientUnits="userSpaceOnUse">
<stop stop-color="white" stop-opacity="0.8"/>
<stop offset="1" stop-color="white" stop-opacity="0"/>
</linearGradient>
<linearGradient id="paint5_linear_2583_14705" x1="13.9967" y1="7.99994" x2="11.155" y2="7.99994" gradientUnits="userSpaceOnUse">
<stop stop-color="#171714" stop-opacity="0.4"/>
<stop offset="1" stop-color="#171714" stop-opacity="0"/>
</linearGradient>
<linearGradient id="paint6_linear_2583_14705" x1="4.134" y1="1.08233" x2="8.56467" y2="1.08233" gradientUnits="userSpaceOnUse">
<stop stop-color="#666666"/>
<stop offset="0.999" stop-color="#171714"/>
</linearGradient>
<linearGradient id="paint7_linear_2583_14705" x1="8.16667" y1="14.9316" x2="8.16633" y2="14.6696" gradientUnits="userSpaceOnUse">
<stop stop-color="#666666"/>
<stop offset="0.999" stop-color="#171714"/>
</linearGradient>
<linearGradient id="paint8_linear_2583_14705" x1="5.50033" y1="12.793" x2="5.49933" y2="12.013" gradientUnits="userSpaceOnUse">
<stop stop-color="#F9A825"/>
<stop offset="1" stop-color="#FDD835"/>
</linearGradient>
<linearGradient id="paint9_linear_2583_14705" x1="7.16802" y1="13.2717" x2="7.16569" y2="11.9477" gradientUnits="userSpaceOnUse">
<stop stop-color="#E51E25"/>
<stop offset="0.767" stop-color="#F68381"/>
</linearGradient>
<linearGradient id="paint10_linear_2583_14705" x1="8.83365" y1="12.793" x2="8.83265" y2="12.013" gradientUnits="userSpaceOnUse">
<stop stop-color="#328748"/>
<stop offset="1" stop-color="#89C535"/>
</linearGradient>
<linearGradient id="paint11_linear_2583_14705" x1="10.5003" y1="12.793" x2="10.4993" y2="12.013" gradientUnits="userSpaceOnUse">
<stop stop-color="#0091D8"/>
<stop offset="1" stop-color="#00B3EB"/>
</linearGradient>
<linearGradient id="paint12_linear_2583_14705" x1="5.66733" y1="8.05667" x2="5.66567" y2="7.01867" gradientUnits="userSpaceOnUse">
<stop stop-color="#0091D8"/>
<stop offset="1" stop-color="#00B3EB"/>
</linearGradient>
<linearGradient id="paint13_linear_2583_14705" x1="5.66733" y1="6.05667" x2="5.66567" y2="5.01867" gradientUnits="userSpaceOnUse">
<stop stop-color="#0091D8"/>
<stop offset="1" stop-color="#00B3EB"/>
</linearGradient>
<linearGradient id="paint14_linear_2583_14705" x1="5.66733" y1="4.05667" x2="5.66567" y2="3.01867" gradientUnits="userSpaceOnUse">
<stop stop-color="#0091D8"/>
<stop offset="1" stop-color="#00B3EB"/>
</linearGradient>
<linearGradient id="paint15_linear_2583_14705" x1="8.00065" y1="8.05667" x2="7.99898" y2="7.01867" gradientUnits="userSpaceOnUse">
<stop stop-color="#0091D8"/>
<stop offset="1" stop-color="#00B3EB"/>
</linearGradient>
<linearGradient id="paint16_linear_2583_14705" x1="5.66733" y1="10.0567" x2="5.66567" y2="9.01867" gradientUnits="userSpaceOnUse">
<stop stop-color="#0091D8"/>
<stop offset="1" stop-color="#00B3EB"/>
</linearGradient>
<linearGradient id="paint17_linear_2583_14705" x1="8.00065" y1="10.0567" x2="7.99898" y2="9.01867" gradientUnits="userSpaceOnUse">
<stop stop-color="#0091D8"/>
<stop offset="1" stop-color="#00B3EB"/>
</linearGradient>
<linearGradient id="paint18_linear_2583_14705" x1="8.00065" y1="6.05667" x2="7.99898" y2="5.01867" gradientUnits="userSpaceOnUse">
<stop stop-color="#0091D8"/>
<stop offset="1" stop-color="#00B3EB"/>
</linearGradient>
<linearGradient id="paint19_linear_2583_14705" x1="8.00065" y1="4.05667" x2="7.99898" y2="3.01867" gradientUnits="userSpaceOnUse">
<stop stop-color="#0091D8"/>
<stop offset="1" stop-color="#00B3EB"/>
</linearGradient>
<linearGradient id="paint20_linear_2583_14705" x1="10.334" y1="8.05667" x2="10.3324" y2="7.01867" gradientUnits="userSpaceOnUse">
<stop stop-color="#0091D8"/>
<stop offset="1" stop-color="#00B3EB"/>
</linearGradient>
<linearGradient id="paint21_linear_2583_14705" x1="10.334" y1="6.05667" x2="10.3324" y2="5.01867" gradientUnits="userSpaceOnUse">
<stop stop-color="#0091D8"/>
<stop offset="1" stop-color="#00B3EB"/>
</linearGradient>
<linearGradient id="paint22_linear_2583_14705" x1="10.334" y1="4.05667" x2="10.3324" y2="3.01867" gradientUnits="userSpaceOnUse">
<stop stop-color="#0091D8"/>
<stop offset="1" stop-color="#00B3EB"/>
</linearGradient>
<linearGradient id="paint23_linear_2583_14705" x1="15.8817" y1="-8.63362" x2="-0.118006" y2="9.88404" gradientUnits="userSpaceOnUse">
<stop offset="0.006" stop-color="white" stop-opacity="0.5"/>
<stop offset="0.952" stop-color="white" stop-opacity="0"/>
</linearGradient>
</defs>
</svg>
