<svg width="16" height="16" viewBox="0 0 16 16" fill="none" xmlns="http://www.w3.org/2000/svg">
<path d="M12 1.33337H3.99998C3.63331 1.33337 3.33331 1.63337 3.33331 2.00004V14C3.33331 14.3667 3.63331 14.6667 3.99998 14.6667H12C12.3666 14.6667 12.6666 14.3667 12.6666 14V2.00004C12.6666 1.63337 12.3666 1.33337 12 1.33337Z" fill="url(#paint0_linear_987_1929)"/>
<path d="M7.99998 13C8.36817 13 8.66665 12.7015 8.66665 12.3333C8.66665 11.9651 8.36817 11.6666 7.99998 11.6666C7.63179 11.6666 7.33331 11.9651 7.33331 12.3333C7.33331 12.7015 7.63179 13 7.99998 13Z" fill="white"/>
<path d="M11.1667 4.66663H4.83335C4.73335 4.66663 4.66669 4.59996 4.66669 4.49996V2.83329C4.66669 2.73329 4.73335 2.66663 4.83335 2.66663H11.1667C11.2667 2.66663 11.3334 2.73329 11.3334 2.83329V4.49996C11.3334 4.59996 11.2667 4.66663 11.1667 4.66663Z" fill="url(#paint1_linear_987_1929)"/>
<path d="M10.3333 4.00004C10.5174 4.00004 10.6667 3.8508 10.6667 3.66671C10.6667 3.48261 10.5174 3.33337 10.3333 3.33337C10.1492 3.33337 10 3.48261 10 3.66671C10 3.8508 10.1492 4.00004 10.3333 4.00004Z" fill="#50E6FF"/>
<path d="M11.1667 7.33337H4.83335C4.73335 7.33337 4.66669 7.26671 4.66669 7.16671V5.50004C4.66669 5.40004 4.73335 5.33337 4.83335 5.33337H11.1667C11.2667 5.33337 11.3334 5.40004 11.3334 5.50004V7.16671C11.3334 7.26671 11.2667 7.33337 11.1667 7.33337Z" fill="url(#paint2_linear_987_1929)"/>
<path d="M10.3333 6.66667C10.5174 6.66667 10.6667 6.51743 10.6667 6.33333C10.6667 6.14924 10.5174 6 10.3333 6C10.1492 6 10 6.14924 10 6.33333C10 6.51743 10.1492 6.66667 10.3333 6.66667Z" fill="#50E6FF"/>
<path d="M11.1667 10H4.83335C4.73335 10 4.66669 9.93333 4.66669 9.83333V8.16667C4.66669 8.06667 4.73335 8 4.83335 8H11.1667C11.2667 8 11.3334 8.06667 11.3334 8.16667V9.83333C11.3334 9.93333 11.2667 10 11.1667 10Z" fill="url(#paint3_linear_987_1929)"/>
<path d="M10.3333 9.33329C10.5174 9.33329 10.6667 9.18405 10.6667 8.99996C10.6667 8.81586 10.5174 8.66663 10.3333 8.66663C10.1492 8.66663 10 8.81586 10 8.99996C10 9.18405 10.1492 9.33329 10.3333 9.33329Z" fill="#50E6FF"/>
<defs>
<linearGradient id="paint0_linear_987_1929" x1="3.50565" y1="1.78071" x2="12.182" y2="13.787" gradientUnits="userSpaceOnUse">
<stop stop-color="#2AA4F4"/>
<stop offset="1" stop-color="#007AD9"/>
</linearGradient>
<linearGradient id="paint1_linear_987_1929" x1="4.66669" y1="3.66663" x2="11.3334" y2="3.66663" gradientUnits="userSpaceOnUse">
<stop stop-color="#1D59B3"/>
<stop offset="1" stop-color="#195BBC"/>
</linearGradient>
<linearGradient id="paint2_linear_987_1929" x1="4.66669" y1="6.33337" x2="11.3334" y2="6.33337" gradientUnits="userSpaceOnUse">
<stop stop-color="#1D59B3"/>
<stop offset="1" stop-color="#195BBC"/>
</linearGradient>
<linearGradient id="paint3_linear_987_1929" x1="4.66669" y1="9" x2="11.3334" y2="9" gradientUnits="userSpaceOnUse">
<stop stop-color="#1D59B3"/>
<stop offset="1" stop-color="#195BBC"/>
</linearGradient>
</defs>
</svg>
