<svg width="16" height="16" viewBox="0 0 16 16" fill="none" xmlns="http://www.w3.org/2000/svg">
<path d="M8.33333 13.3333V10.6666H7.66667V13.3333H2.33333C2.14933 13.3333 2 13.4826 2 13.6666C2 13.8506 2.14933 14 2.33333 14H13.6667C13.8507 14 14 13.8506 14 13.6666C14 13.4826 13.8507 13.3333 13.6667 13.3333H8.33333Z" fill="#E9EBED"/>
<path d="M13.943 8.005L12.8913 3.05633C12.7603 2.44033 12.2167 2 11.587 2H4.41401C3.78401 2 3.23968 2.441 3.10934 3.05767L2.05768 8.00467L8.00001 8L13.943 8.005Z" fill="url(#paint0_linear_2593_14889)"/>
<path d="M3 11H13C13.55 11 14 10.55 14 10V8.33337C14 7.78337 13.55 7.33337 13 7.33337H3C2.45 7.33337 2 7.78337 2 8.33337V10C2 10.55 2.45 11 3 11Z" fill="url(#paint1_linear_2593_14889)"/>
<path d="M12.8334 9.16671C12.8334 9.62671 12.46 10 12 10C11.54 10 11.1667 9.62671 11.1667 9.16671C11.1667 8.70671 11.54 8.33337 12 8.33337C12.46 8.33337 12.8334 8.70671 12.8334 9.16671Z" fill="url(#paint2_linear_2593_14889)"/>
<path d="M12.5 9.16663C12.5 9.44263 12.276 9.66663 12 9.66663C11.724 9.66663 11.5 9.44263 11.5 9.16663C11.5 8.89063 11.724 8.66663 12 8.66663C12.276 8.66663 12.5 8.89063 12.5 9.16663Z" fill="url(#paint3_linear_2593_14889)"/>
<path d="M3.66665 8.66663H9.66665C9.85065 8.66663 9.99998 8.81596 9.99998 8.99996V9.33329C9.99998 9.51729 9.85065 9.66663 9.66665 9.66663H3.66665C3.48265 9.66663 3.33331 9.51729 3.33331 9.33329V8.99996C3.33331 8.81596 3.48265 8.66663 3.66665 8.66663Z" fill="#737B80"/>
<path opacity="0.05" d="M9.66667 6C9.23367 6 9 5.65667 9 5.33333V5C9 4.81633 8.85067 4.66667 8.66667 4.66667H7.33333C7.14933 4.66667 7 4.81633 7 5V5.33333C7 5.65667 6.76633 6 6.33333 6H4.66667C4.23367 6 4 5.65667 4 5.33333C4 3.916 5.27267 3 7.24233 3H8.75767C10.7273 3 12 3.916 12 5.33333C12 5.65667 11.7663 6 11.3333 6H9.66667Z" fill="black"/>
<path opacity="0.07" d="M9.66669 5.83329C9.29969 5.83329 9.16669 5.53429 9.16669 5.33329V4.99996C9.16669 4.72429 8.94235 4.49996 8.66669 4.49996H7.33335C7.05769 4.49996 6.83335 4.72429 6.83335 4.99996V5.33329C6.83335 5.53429 6.70035 5.83329 6.33335 5.83329H4.66669C4.29969 5.83329 4.16669 5.53429 4.16669 5.33329C4.16669 4.01696 5.37402 3.16663 7.24235 3.16663H8.75769C10.626 3.16663 11.8337 4.01696 11.8337 5.33329C11.8337 5.53429 11.7007 5.83329 11.3337 5.83329H9.66669Z" fill="black"/>
<path d="M8.75731 3.33337H7.24231C5.63565 3.33337 4.33331 4.00004 4.33331 5.33337C4.33331 5.33337 4.33331 5.66671 4.66665 5.66671C4.99998 5.66671 5.99998 5.66671 6.33331 5.66671C6.66665 5.66671 6.66665 5.33337 6.66665 5.33337V5.00004C6.66665 4.63204 6.96531 4.33337 7.33331 4.33337H8.66665C9.03465 4.33337 9.33331 4.63204 9.33331 5.00004V5.33337C9.33331 5.33337 9.33331 5.66671 9.66665 5.66671C9.99998 5.66671 11 5.66671 11.3333 5.66671C11.6666 5.66671 11.6666 5.33337 11.6666 5.33337C11.6666 4.00004 10.3643 3.33337 8.75731 3.33337Z" fill="#EEF0F1"/>
<path d="M9.66667 13H8.66667V12.3333C8.66667 12.1493 8.51733 12 8.33333 12H7.66667C7.48267 12 7.33333 12.1493 7.33333 12.3333V13H6.33333C6.14933 13 6 13.1493 6 13.3333V14C6 14.184 6.14933 14.3333 6.33333 14.3333H9.66667C9.85067 14.3333 10 14.184 10 14V13.3333C10 13.1493 9.85067 13 9.66667 13Z" fill="#21A366"/>
<defs>
<linearGradient id="paint0_linear_2593_14889" x1="8.00034" y1="7.42" x2="8.00034" y2="1.14467" gradientUnits="userSpaceOnUse">
<stop stop-color="#737B80"/>
<stop offset="0.473" stop-color="#686F74"/>
<stop offset="1" stop-color="#575C61"/>
</linearGradient>
<linearGradient id="paint1_linear_2593_14889" x1="8" y1="7.45871" x2="8" y2="12.338" gradientUnits="userSpaceOnUse">
<stop stop-color="#899198"/>
<stop offset="1" stop-color="#787E85"/>
</linearGradient>
<linearGradient id="paint2_linear_2593_14889" x1="12.591" y1="9.75771" x2="11.39" y2="8.55671" gradientUnits="userSpaceOnUse">
<stop stop-color="white"/>
<stop offset="0.242" stop-color="#F2F2F2"/>
<stop offset="1" stop-color="#CCCCCC"/>
</linearGradient>
<linearGradient id="paint3_linear_2593_14889" x1="11.6467" y1="8.81329" x2="12.3533" y2="9.52029" gradientUnits="userSpaceOnUse">
<stop stop-color="#21AD64"/>
<stop offset="1" stop-color="#088242"/>
</linearGradient>
</defs>
</svg>
