<svg width="16" height="16" viewBox="0 0 16 16" fill="none" xmlns="http://www.w3.org/2000/svg">
<path d="M7.00002 15.3333C4.60669 15.3333 2.66669 13.3933 2.66669 11V8.62732H11.3334V11C11.3334 13.3933 9.39335 15.3333 7.00002 15.3333Z" fill="url(#paint0_linear_2583_14622)"/>
<path d="M6.99998 14.6666C4.97831 14.6666 3.33331 13.0216 3.33331 11V9.29431H10.6666V11C10.6666 13.0216 9.02165 14.6666 6.99998 14.6666Z" fill="url(#paint1_linear_2583_14622)"/>
<path d="M13.418 1.92333C12.8003 1.75666 10.9277 1.37333 6.676 1.33633C6.305 1.333 6 1.63233 6 2.00333V4.66666H8V3.91566C8 3.45266 8.46033 3.126 8.894 3.28766C10.2237 3.78433 11.7993 4.64266 13.1413 5.60733C13.3613 5.76566 13.6667 5.608 13.6667 5.33666V2.24566C13.6667 2.094 13.5647 1.96266 13.418 1.92333Z" fill="url(#paint2_radial_2583_14622)"/>
<path d="M12.1667 3.66663C12.4428 3.66663 12.6667 3.44277 12.6667 3.16663C12.6667 2.89048 12.4428 2.66663 12.1667 2.66663C11.8905 2.66663 11.6667 2.89048 11.6667 3.16663C11.6667 3.44277 11.8905 3.66663 12.1667 3.66663Z" fill="#CCCCCC"/>
<path opacity="0.05" d="M6.99998 14.3333C8.1966 14.3333 9.16665 13.3633 9.16665 12.1667C9.16665 10.97 8.1966 10 6.99998 10C5.80336 10 4.83331 10.97 4.83331 12.1667C4.83331 13.3633 5.80336 14.3333 6.99998 14.3333Z" fill="black"/>
<path opacity="0.07" d="M7 14.1666C8.10457 14.1666 9 13.2712 9 12.1666C9 11.0621 8.10457 10.1666 7 10.1666C5.89543 10.1666 5 11.0621 5 12.1666C5 13.2712 5.89543 14.1666 7 14.1666Z" fill="black"/>
<path d="M7.00002 14C8.01254 14 8.83335 13.1792 8.83335 12.1667C8.83335 11.1542 8.01254 10.3334 7.00002 10.3334C5.9875 10.3334 5.16669 11.1542 5.16669 12.1667C5.16669 13.1792 5.9875 14 7.00002 14Z" fill="url(#paint3_linear_2583_14622)"/>
<path d="M6.99998 13.3333C7.64431 13.3333 8.16665 12.811 8.16665 12.1667C8.16665 11.5223 7.64431 11 6.99998 11C6.35565 11 5.83331 11.5223 5.83331 12.1667C5.83331 12.811 6.35565 13.3333 6.99998 13.3333Z" fill="url(#paint4_radial_2583_14622)"/>
<path d="M11.3333 9.66667H2.66665C2.48265 9.66667 2.33331 9.51733 2.33331 9.33333V7.936C2.33331 7.333 2.48365 6.735 2.79831 6.19467C2.80665 6.18067 2.81498 6.16633 2.82331 6.15233C3.61265 4.81967 5.24631 4 6.99998 4C8.75365 4 10.3873 4.81967 11.1766 6.15233C11.185 6.16667 11.1933 6.18067 11.2016 6.19467C11.5163 6.735 11.6666 7.333 11.6666 7.936V9.33333C11.6666 9.51733 11.5173 9.66667 11.3333 9.66667Z" fill="url(#paint5_linear_2583_14622)"/>
<path d="M6.16669 12C6.44283 12 6.66669 11.7761 6.66669 11.5C6.66669 11.2239 6.44283 11 6.16669 11C5.89054 11 5.66669 11.2239 5.66669 11.5C5.66669 11.7761 5.89054 12 6.16669 12Z" fill="white"/>
<defs>
<linearGradient id="paint0_linear_2583_14622" x1="7.00002" y1="8.67432" x2="7.00002" y2="11.0077" gradientUnits="userSpaceOnUse">
<stop offset="0.519" stop-color="#C1C6C9"/>
<stop offset="0.613" stop-color="#C9CDCF"/>
<stop offset="0.69" stop-color="#D8DADC"/>
<stop offset="0.841" stop-color="#E1E2E4"/>
<stop offset="1" stop-color="#E4E4E6"/>
</linearGradient>
<linearGradient id="paint1_linear_2583_14622" x1="6.99998" y1="14.1443" x2="6.99998" y2="9.25431" gradientUnits="userSpaceOnUse">
<stop stop-color="#4B4B4B"/>
<stop offset="0.793" stop-color="#393939"/>
<stop offset="0.806" stop-color="#373737"/>
<stop offset="0.908" stop-color="#2A2A2A"/>
<stop offset="1" stop-color="#252525"/>
</linearGradient>
<radialGradient id="paint2_radial_2583_14622" cx="0" cy="0" r="1" gradientUnits="userSpaceOnUse" gradientTransform="translate(7.07542 5.58273) rotate(-179.696) scale(3.25505 2.46602)">
<stop offset="0.703" stop-color="#C1C6C9"/>
<stop offset="0.797" stop-color="#C9CDCF"/>
<stop offset="0.886" stop-color="#D8DADC"/>
<stop offset="0.948" stop-color="#E1E2E4"/>
<stop offset="1" stop-color="#E4E4E6"/>
</radialGradient>
<linearGradient id="paint3_linear_2583_14622" x1="6.49435" y1="11.216" x2="7.98402" y2="14.0174" gradientUnits="userSpaceOnUse">
<stop stop-color="#32BDEF"/>
<stop offset="1" stop-color="#1EA2E4"/>
</linearGradient>
<radialGradient id="paint4_radial_2583_14622" cx="0" cy="0" r="1" gradientUnits="userSpaceOnUse" gradientTransform="translate(5.99131 10.8073) scale(2.98533)">
<stop stop-color="#4B4B4B"/>
<stop offset="0.531" stop-color="#393939"/>
<stop offset="1" stop-color="#252525"/>
</radialGradient>
<linearGradient id="paint5_linear_2583_14622" x1="6.99998" y1="4.23133" x2="6.99998" y2="12.6493" gradientUnits="userSpaceOnUse">
<stop offset="0.55" stop-color="#E4E4E6"/>
<stop offset="0.73" stop-color="#E1E2E4"/>
<stop offset="0.854" stop-color="#D8DADC"/>
<stop offset="0.961" stop-color="#C9CDCF"/>
<stop offset="1" stop-color="#C1C6C9"/>
</linearGradient>
</defs>
</svg>
