<svg width="17" height="16" viewBox="0 0 17 16" fill="none" xmlns="http://www.w3.org/2000/svg">
<path d="M6.65961 6.67209C6.43275 7.20143 4.84473 8.86506 4.99597 10.5287C5.60093 17.4857 7.71828 12.7973 10.8943 14.5365C10.8943 14.5365 16.5658 11.3605 12.0286 6.21837C10.7431 4.4035 11.8774 2.96672 11.0456 1.75681C10.2137 0.546889 8.77696 0.47127 7.71828 1.60557C6.65961 2.73986 8.172 4.4035 6.65961 6.67209Z" fill="#333333"/>
<path d="M12.2552 10.1506C12.2552 10.1506 12.9357 8.78948 11.6502 7.80642C12.8601 9.09196 12.1039 10.2263 12.1039 10.2263H11.8771C11.8014 7.57956 11.1209 9.01634 10.1378 4.32792C11.2721 3.04238 9.07912 1.90808 9.07912 4.02544H8.39854C8.47416 2.21056 6.88615 3.118 7.79359 4.40354C7.71797 7.20147 6.05433 8.33576 6.05433 10.3019C5.52499 8.94072 6.50805 7.88204 6.50805 7.88204C6.50805 7.88204 5.14689 9.01634 5.97871 10.68C6.81053 12.3436 8.32292 11.9655 7.26425 12.7217C8.92788 13.856 11.499 13.0998 11.4233 10.68C11.499 10.075 13.087 10.3019 13.2382 10.4531C13.3894 10.6044 13.0113 10.1506 12.2552 10.1506ZM8.02044 4.2523C7.49111 4.10106 7.64235 3.42048 7.86921 3.42048C8.09606 3.42048 8.47416 3.94982 8.02044 4.2523ZM9.45722 4.32792C9.07912 3.79858 9.3816 3.26924 9.7597 3.34486C10.1378 3.42048 10.1378 4.32792 9.45722 4.32792Z" fill="#EEEEEE"/>
<path d="M5.97892 10.9068L7.56694 13.1754C8.39875 13.7048 7.94504 15.8221 5.67644 14.7635C4.39091 14.3854 3.33223 14.461 3.18099 13.7804C3.02975 13.0998 3.48347 13.0242 3.40785 12.7217C3.10537 11.0581 4.46653 11.8899 4.84463 11.0581C5.22273 10.2263 5.22273 9.84817 5.97892 10.9068ZM14.4483 11.9655C14.1459 11.5118 14.4483 10.68 13.3897 10.7556C12.9359 11.663 11.6504 12.5705 11.5748 10.7556C10.8186 10.7556 11.3479 12.5705 11.0454 13.4023C10.3649 15.444 12.331 15.5953 13.1628 14.6122L15.1289 13.2511C15.2802 13.0242 15.507 12.7973 14.4483 11.9655ZM7.49132 5.00851C7.26446 4.55479 8.32313 3.94983 8.70123 3.94983C9.07933 3.94983 9.60867 4.25231 10.138 4.40355C10.6673 4.55479 10.4405 5.08413 10.2892 5.15975C10.138 5.23536 9.30619 5.91594 8.70123 5.91594C8.09628 5.91594 7.94504 5.31098 7.49132 5.00851Z" fill="#FFCC22" stroke="#333333" stroke-width="0.078125"/>
<path d="M7.49121 4.93291C8.09617 5.38663 8.77675 5.76473 10.1379 4.70605L7.49121 4.93291Z" fill="#FFCC22"/>
<path d="M7.49121 4.93291C8.09617 5.38663 8.77675 5.76473 10.1379 4.70605" stroke="#333333" stroke-width="0.078125"/>
<path d="M8.32334 4.47913C8.1721 4.47913 8.39896 4.3279 8.47458 4.40352L8.32334 4.47913ZM9.00391 4.47913C9.07953 4.40352 8.92829 4.3279 8.77705 4.40352L9.00391 4.47913Z" fill="#333333"/>
</svg>
