<svg width="140" height="140" viewBox="0 0 140 140" fill="none" xmlns="http://www.w3.org/2000/svg">
<path d="M91 98H87.5V45.5H38.5V42H91V98Z" fill="#1E2E4F"/>
<path d="M22.75 124.25V119.511L46.459 82.25H50.75V124.25H22.75Z" fill="#1E2E4F"/>
<path d="M49 84V122.5H24.5V120.019L47.4215 84H49ZM52.5 80.5H45.5L21 119V126H52.5V80.5Z" fill="#1E2E4F"/>
<path d="M79.009 113.75C63.0455 113.75 48.041 107.534 36.7535 96.25C13.867 73.36 13.461 36.379 35.532 12.992L120.008 97.468C108.875 107.982 94.3845 113.75 79.009 113.75Z" fill="#F8F9FA"/>
<path d="M35.588 15.5225L117.478 97.412C106.859 106.845 93.331 112 79.009 112C63.5145 112 48.9475 105.966 37.9925 95.011C16.205 73.2235 15.4035 38.276 35.588 15.5225ZM35.5145 10.5C11.494 34.5205 11.494 73.465 35.5145 97.4855C47.5265 109.494 63.266 115.5 79.009 115.5C94.752 115.5 110.492 109.494 122.5 97.4855L35.5145 10.5Z" fill="#1E2E4F"/>
<path d="M8.75 134.75V126C8.75 123.105 11.1055 120.75 14 120.75H52.5C55.3945 120.75 57.75 123.105 57.75 126V134.75H8.75Z" fill="#F8F9FA"/>
<path d="M52.5 122.5C54.4285 122.5 56 124.071 56 126V133H10.5V126C10.5 124.071 12.0715 122.5 14 122.5H52.5ZM52.5 119H14C10.1325 119 7 122.132 7 126V136.5H59.5V126C59.5 122.132 56.3675 119 52.5 119Z" fill="#1E2E4F"/>
<path d="M91 36.75C89.6076 36.75 88.2723 37.3031 87.2877 38.2877C86.3031 39.2723 85.75 40.6076 85.75 42C85.75 43.3924 86.3031 44.7277 87.2877 45.7123C88.2723 46.6969 89.6076 47.25 91 47.25C92.3924 47.25 93.7277 46.6969 94.7123 45.7123C95.6969 44.7277 96.25 43.3924 96.25 42C96.25 40.6076 95.6969 39.2723 94.7123 38.2877C93.7277 37.3031 92.3924 36.75 91 36.75Z" fill="#1E2E4F"/>
<path d="M91 38.5C92.9285 38.5 94.5 40.0715 94.5 42C94.5 43.9285 92.9285 45.5 91 45.5C89.0715 45.5 87.5 43.9285 87.5 42C87.5 40.0715 89.0715 38.5 91 38.5ZM91 35C87.1325 35 84 38.1325 84 42C84 45.8675 87.1325 49 91 49C94.8675 49 98 45.8675 98 42C98 38.1325 94.8675 35 91 35Z" fill="#1E2E4F"/>
<path d="M135.051 4.949C133.119 3.017 129.983 3.017 128.051 4.949L119 14L109.949 4.949C108.017 3.017 104.881 3.017 102.949 4.949C101.017 6.881 101.017 10.017 102.949 11.949L112 21L102.949 30.051C101.017 31.983 101.017 35.119 102.949 37.051C104.881 38.983 108.017 38.983 109.949 37.051L119 28L128.051 37.051C129.983 38.983 133.119 38.983 135.051 37.051C136.983 35.119 136.983 31.983 135.051 30.051L126 21L135.051 11.949C136.983 10.017 136.983 6.881 135.051 4.949Z" fill="#1E2E4F"/>
</svg>
