<svg width="130" height="130" viewBox="0 0 130 130" fill="none" xmlns="http://www.w3.org/2000/svg">
<circle cx="65" cy="65" r="65" fill="#FFF0E6"/>
<circle cx="65" cy="65" r="50" fill="#FFD1B3"/>
<circle cx="65" cy="66" r="35" fill="#FFB380"/>
<circle cx="65" cy="66" r="20" fill="white"/>
<path d="M68.5107 69.56C69.3354 68.7467 69.8521 67.6722 69.9726 66.5202C70.0931 65.3682 69.8099 64.2101 69.1714 63.2437C68.5329 62.2772 67.5786 61.5625 66.4716 61.2215C65.3646 60.8806 64.1736 60.9345 63.102 61.3742C62.0304 61.8138 61.1446 62.6119 60.596 63.632C60.0475 64.6522 59.8701 65.8312 60.0943 66.9676C60.3184 68.104 60.9302 69.1273 61.8251 69.8628C62.7199 70.5983 63.8424 71.0002 65.0007 71M71.8328 71.86C73.1693 70.3021 73.9331 68.3341 73.9975 66.2824C74.0619 64.2308 73.4231 62.2187 72.1869 60.58C70.9508 58.9413 69.1916 57.7744 67.2011 57.2728C65.2107 56.7713 63.1086 56.9651 61.2435 57.8224C59.3784 58.6796 57.8623 60.1486 56.9468 61.9858C56.0312 63.8229 55.7712 65.9179 56.2098 67.9231C56.6484 69.9284 57.7593 71.7235 59.3583 73.0106C60.9572 74.2978 62.9481 74.9997 65.0008 75L65.0007 66M64.0007 66C64.0007 66.2652 64.1061 66.5196 64.2936 66.7071C64.4812 66.8946 64.7355 67 65.0007 67C65.2659 67 65.5203 66.8946 65.7078 66.7071C65.8954 66.5196 66.0007 66.2652 66.0007 66C66.0007 65.7348 65.8954 65.4804 65.7078 65.2929C65.5203 65.1054 65.2659 65 65.0007 65C64.7355 65 64.4812 65.1054 64.2936 65.2929C64.1061 65.4804 64.0007 65.7348 64.0007 66Z" stroke="#FF6600" stroke-width="2" stroke-linecap="round" stroke-linejoin="round"/>
<line x1="80.878" y1="54.7818" x2="114.878" y2="35.7818" stroke="#BF4C00" stroke-width="0.5" stroke-dasharray="2 2"/>
<circle cx="118" cy="33" r="5" fill="#FF6600"/>
</svg>
