<svg width="24" height="24" viewBox="0 0 24 24" fill="none" xmlns="http://www.w3.org/2000/svg">
<path d="M13.2422 2.04468C13.5731 1.9458 13.9491 2.01236 14.2233 2.2226C14.4979 2.42548 14.6675 2.76244 14.6665 3.10388C14.6653 4.60724 14.6681 6.11092 14.6649 7.61428C14.6493 8.1586 14.1763 8.63828 13.6326 8.66388C13.1517 8.7058 12.6713 8.39156 12.5117 7.93684C12.4624 7.80468 12.4429 7.6626 12.4441 7.5218C12.4445 7.16244 12.4445 6.80308 12.4441 6.44404C9.32063 6.4434 6.19711 6.44468 3.07327 6.4434C2.54239 6.43764 2.06303 5.997 2.00863 5.46932C1.93599 4.96404 2.26303 4.44276 2.74687 4.28308C2.87231 4.23892 3.00575 4.221 3.13855 4.22164C6.24031 4.22228 9.34239 4.22164 12.4445 4.22196C12.4451 3.83892 12.4425 3.45588 12.4454 3.07284C12.4537 2.60532 12.7926 2.17044 13.2422 2.04468Z" fill="#041E42"/>
<path d="M17.3288 4.24495C17.4072 4.22863 17.4872 4.22255 17.5672 4.22159C18.5806 4.22223 19.5941 4.22159 20.6078 4.22191C20.8011 4.22479 20.9995 4.20623 21.188 4.26287C21.5841 4.36815 21.9022 4.71279 21.9787 5.11535C22.0651 5.52047 21.8977 5.96271 21.5681 6.21263C21.3777 6.36079 21.1377 6.44367 20.8965 6.44399C19.7765 6.44367 18.6565 6.44399 17.5365 6.44367C17.2107 6.44143 16.8923 6.28399 16.6897 6.02959C16.4161 5.69679 16.3656 5.20111 16.5694 4.82095C16.7198 4.52847 17.0065 4.31023 17.3288 4.24495Z" fill="#041E42"/>
<path d="M8.03143 8.8657C8.38247 8.61418 8.88263 8.60043 9.24807 8.83019C9.56679 9.02347 9.77543 9.38474 9.77735 9.7585C9.77863 11.1876 9.77767 12.6171 9.77799 14.0465C9.78407 14.2513 9.77671 14.4628 9.69095 14.6529C9.53415 15.0353 9.14887 15.3105 8.73543 15.3313C8.38119 15.3556 8.02055 15.1966 7.80039 14.9179C7.63879 14.7198 7.55207 14.4641 7.55591 14.2087C7.55623 13.8433 7.55623 13.4775 7.55591 13.1118C6.17895 13.1115 4.80167 13.1118 3.42471 13.1118C3.15463 13.1137 2.86887 13.13 2.62279 12.9979C2.18631 12.7924 1.92455 12.2814 2.01671 11.8071C2.09639 11.3035 2.56167 10.8971 3.07207 10.8894C4.56679 10.8855 6.06119 10.8891 7.55591 10.8878C7.55655 10.5111 7.55527 10.1348 7.55623 9.75819C7.55815 9.40747 7.74279 9.06442 8.03143 8.8657Z" fill="#0530AD"/>
<path d="M12.585 10.8917C15.2381 10.8827 17.8919 10.8904 20.5453 10.8878C20.7687 10.8926 20.9991 10.8667 21.2154 10.9374C21.554 11.0398 21.8356 11.3134 21.9441 11.6507C22.0423 11.9429 22.0103 12.2753 21.858 12.5435C21.6692 12.8865 21.2884 13.1125 20.8967 13.1112C18.2938 13.1125 15.6913 13.1112 13.0887 13.1118C12.8477 13.1038 12.601 13.1368 12.3658 13.0696C11.9725 12.9633 11.6551 12.6225 11.578 12.2222C11.4903 11.8171 11.6554 11.3726 11.985 11.1221C12.1569 10.9889 12.3681 10.9067 12.585 10.8917Z" fill="#0530AD"/>
<path d="M15.8049 15.7426C16.0385 15.4507 16.4257 15.2939 16.7969 15.3403C17.3189 15.3928 17.7592 15.8584 17.7761 16.3838C17.7806 16.7742 17.7768 17.165 17.7781 17.5557C18.764 17.556 19.7499 17.5557 20.7361 17.5557C20.9291 17.5499 21.1281 17.5586 21.3077 17.637C21.6853 17.7867 21.9624 18.1579 21.9953 18.563C22.0315 18.9208 21.8795 19.2907 21.6017 19.5192C21.4049 19.684 21.1509 19.7778 20.8942 19.7778C19.8555 19.7781 18.8168 19.7774 17.7781 19.7781C17.7777 20.1515 17.7787 20.525 17.7777 20.8984C17.7781 21.2475 17.5998 21.5902 17.3147 21.7915C17.0638 21.9736 16.7349 22.0414 16.4321 21.9752C15.9477 21.8782 15.5643 21.4238 15.5569 20.9288C15.5547 19.435 15.5569 17.9413 15.556 16.4478C15.5541 16.1931 15.643 15.9394 15.8049 15.7426Z" fill="#041E42"/>
<path d="M2.83172 17.5908C2.96164 17.5547 3.09732 17.5534 3.23108 17.5556C6.38852 17.5563 9.54596 17.5547 12.7034 17.5563C13.2228 17.562 13.696 17.9828 13.7648 18.4971C13.8487 18.9796 13.5661 19.4919 13.1162 19.6827C12.9578 19.755 12.7824 19.7825 12.6093 19.778C9.441 19.7771 6.273 19.7783 3.10468 19.7777C2.849 19.7771 2.59492 19.6846 2.3994 19.5201C2.10372 19.2772 1.95044 18.874 2.01316 18.4961C2.07364 18.0667 2.41156 17.6951 2.83172 17.5908Z" fill="#041E42"/>
</svg>
