<svg width="1000" height="1000" viewBox="0 0 1000 1000" fill="none" xmlns="http://www.w3.org/2000/svg">
<path d="M159.308 167.707C163.521 167.053 167.788 166.72 172.054 166.68C389.814 166.653 607.574 166.693 825.348 166.653C836.561 166.493 847.801 168.373 858.321 172.293C886.481 182.547 908.481 207.88 914.628 237.227C917.321 248.613 916.574 260.36 916.668 271.96C916.668 420.413 916.668 568.867 916.668 717.32C916.508 731.653 917.694 746.293 913.641 760.253C908.241 780.76 895.228 799.133 877.708 811.08C863.148 821.067 845.614 826.64 827.961 826.747C609.308 826.747 390.668 826.747 172.014 826.747C150.854 826.613 129.841 818.613 113.974 804.6C94.7209 787.987 83.2676 762.8 83.3343 737.374C83.3343 576.92 83.3343 416.467 83.3343 256C83.3609 236.88 89.7209 217.827 101.228 202.547C115.094 183.973 136.361 171.12 159.308 167.707ZM231.561 323.56C221.934 329.893 216.708 342.16 218.868 353.493C219.881 359.667 223.001 365.4 227.454 369.787C269.414 411.747 311.374 453.707 353.334 495.667C310.361 538.64 267.401 581.613 224.428 624.573C216.814 632.24 214.174 644.28 217.641 654.48C220.788 664.427 229.588 672.36 239.828 674.4C249.294 676.453 259.721 673.533 266.628 666.72C316.854 616.453 367.121 566.24 417.348 515.973C428.174 505.08 428.001 485.773 417.134 474.96C369.214 426.853 321.108 378.933 273.134 330.867C269.574 327.267 265.908 323.56 261.254 321.387C251.881 316.813 240.148 317.64 231.561 323.56ZM659.281 334.133C647.828 336.52 638.361 345.88 635.788 357.28C633.548 367.2 626.388 375.827 616.948 379.653C607.654 383.64 596.521 382.747 587.961 377.4C581.681 373.533 574.081 371.76 566.774 372.92C553.681 374.88 542.401 385.613 539.868 398.613C538.214 406.28 539.934 414.427 543.988 421.08C548.414 428.267 549.974 437.173 547.921 445.387C545.454 456.213 536.854 465.387 526.161 468.453C521.468 469.707 516.734 471.227 512.814 474.213C503.841 480.56 499.108 491.933 500.108 502.773C500.828 512.747 506.494 522.36 515.241 527.36C520.814 530.88 527.801 531.067 533.334 534.693C544.588 541.267 550.828 555.2 548.214 567.973C546.921 576.627 539.734 583.173 539.414 592.12C536.961 611.333 555.294 629.707 574.534 627.24C583.481 626.867 590.054 619.733 598.721 618.427C610.854 615.973 624.134 621.44 630.974 631.773C636.174 638.907 635.814 648.693 641.988 655.307C653.841 670.373 679.468 670.387 691.334 655.307C697.694 648.427 697.174 638.147 702.961 630.947C710.214 620.747 723.841 615.72 736.001 618.733C742.348 619.893 747.254 624.533 753.414 626.187C760.134 628.16 767.534 627.76 773.988 624.973C787.588 619.4 796.721 603.893 793.454 589.293C792.334 582.027 786.801 576.493 785.388 569.347C783.014 559.613 785.641 548.88 792.174 541.307C796.814 535.72 803.494 532.2 810.494 530.573C823.054 527.413 832.481 515.573 833.228 502.72C834.668 488.92 826.121 474.587 812.814 470.187C806.574 468.44 800.188 466.44 795.348 461.907C784.174 452.373 781.201 434.8 788.774 422.173C792.628 416.027 794.774 408.68 793.921 401.4C792.388 386.373 779.094 373.48 763.961 372.64C756.734 372.027 749.748 374.64 743.668 378.347C729.974 386.16 710.974 381.44 702.388 368.253C697.561 361.907 697.734 353.293 693.001 346.907C685.881 336.107 671.708 331.2 659.281 334.133Z" fill="#041E42"/>
<path d="M651.282 427.52C666.495 424.307 682.735 425.947 696.908 432.387C715.508 440.614 730.388 456.88 736.815 476.187C742.802 493.654 741.922 513.387 734.295 530.214C726.055 548.827 709.802 563.734 690.468 570.147C673.002 576.147 653.268 575.254 636.442 567.64C617.855 559.387 602.962 543.16 596.535 523.854C590.268 505.707 591.508 485.134 599.908 467.88C609.615 447.48 629.122 432.067 651.282 427.52Z" fill="#041E42"/>
</svg>
