<svg width="24" height="24" viewBox="0 0 24 24" fill="none" xmlns="http://www.w3.org/2000/svg">
<path d="M2.00064 4.22368C2.01024 3.57952 2.58752 3.00608 3.23168 3.00032C7.2656 2.99968 11.2998 3 15.3338 3C15.3341 6.05536 15.3341 9.11072 15.3338 12.1658C10.8893 12.1664 6.4448 12.1658 2.00032 12.1661C1.99968 9.51872 1.99936 6.87104 2.00064 4.22368Z" fill="#041E42"/>
<path d="M16.6231 3.30848C16.8362 3.11488 17.121 2.99968 17.4099 3C18.4231 3 19.4362 3 20.4493 3C20.6688 3.00256 20.896 2.9808 21.1059 3.06016C21.6381 3.24384 21.9955 3.7952 21.9997 4.3504C22.0003 4.87232 22 5.39392 22 5.91584C20.0554 5.91616 18.1107 5.91584 16.1658 5.91584C16.1667 5.39424 16.1648 4.87232 16.1667 4.3504C16.1709 3.96128 16.3325 3.57088 16.6231 3.30848Z" fill="#0530AD"/>
<path d="M16.1661 6.7504C18.111 6.75136 20.056 6.74688 22.001 6.75264C21.999 10.1654 22.0003 13.5786 22.0003 16.9917C22.0048 17.209 21.968 17.4282 21.8819 17.6282C21.7056 18.063 21.2794 18.4019 20.8019 18.415C19.7885 18.4173 18.7747 18.4154 17.761 18.416C17.504 18.4128 17.2362 18.441 16.9933 18.3373C16.4819 18.1421 16.1661 17.5949 16.1667 17.0595C16.1651 13.623 16.1664 10.1869 16.1661 6.7504ZM18.097 8.024C17.8067 8.11008 17.7462 8.53568 17.9597 8.7296C18.0422 8.80928 18.1606 8.83552 18.272 8.83392C18.8163 8.83392 19.3606 8.83424 19.905 8.83392C20.1306 8.84352 20.3395 8.64544 20.3338 8.41792C20.3414 8.20128 20.1514 8.00768 19.9373 8.00128C19.4038 7.99776 18.8704 8.0016 18.3373 7.99968C18.2566 7.99968 18.1738 7.99648 18.097 8.024ZM18.1821 11.7542C18.1178 11.7619 18.0547 11.784 18.0013 11.8205C17.7856 11.9677 17.7757 12.3251 17.9725 12.4918C18.0566 12.561 18.1677 12.5866 18.2746 12.5843C18.8176 12.5837 19.3603 12.5843 19.9034 12.584C20.1213 12.5926 20.3283 12.4096 20.3331 12.1888C20.3536 11.9533 20.1386 11.7382 19.9043 11.7501C19.3302 11.7526 18.7558 11.7443 18.1821 11.7542ZM18.1901 15.5034C18.1232 15.5101 18.0573 15.5318 18.0019 15.5702C17.7648 15.7277 17.7773 16.1434 18.0294 16.2803C18.1222 16.3338 18.2323 16.3357 18.3363 16.3344C18.8589 16.3334 19.3814 16.3344 19.904 16.3341C20.0883 16.3395 20.2698 16.2122 20.3174 16.0326C20.3987 15.7773 20.1648 15.4973 19.905 15.5002C19.3334 15.5021 18.7616 15.4954 18.1901 15.5034Z" fill="#0530AD"/>
<path d="M2.00036 13C6.44484 13.0003 10.8893 13 15.3338 13C15.3341 14.1114 15.3341 15.2227 15.3338 16.3338C15.1252 16.3344 14.9168 16.3334 14.7082 16.3344C15.0144 17.4448 15.3194 18.5552 15.6247 19.6659C16.2218 19.6662 16.8189 19.6656 17.416 19.6662C17.417 19.943 17.4144 20.2205 17.4173 20.4976C13.6669 20.503 9.9162 20.4989 6.1658 20.4995C6.16644 20.2218 6.1658 19.944 6.16612 19.6659C6.88868 19.6659 7.61092 19.6659 8.33348 19.6659C8.63876 18.5552 8.94468 17.4448 9.24964 16.3341C7.25444 16.3341 5.25924 16.3341 3.26436 16.3341C2.9018 16.3392 2.53508 16.1875 2.29892 15.9094C2.10724 15.688 2.0026 15.3958 2.00036 15.1037C1.99972 14.4026 1.99972 13.7011 2.00036 13Z" fill="#041E42"/>
</svg>
