<svg width="24" height="24" viewBox="0 0 24 24" fill="none" xmlns="http://www.w3.org/2000/svg">
<path d="M4.94388 2.28188C5.05967 2.25656 5.17873 2.24906 5.29732 2.24953C9.79732 2.25141 14.2978 2.24813 18.7978 2.25094C19.5651 2.2575 20.2444 2.93859 20.249 3.70594C20.2504 9.23578 20.2509 14.7656 20.249 20.2955C20.2439 21.0619 19.5647 21.742 18.7983 21.7486C14.2659 21.7509 9.73357 21.7509 5.20123 21.7486C4.43576 21.7416 3.75748 21.0633 3.75138 20.2978C3.74857 14.7816 3.75092 9.26531 3.74998 3.74953C3.73732 3.05906 4.26654 2.41219 4.94388 2.28188ZM5.87154 3.76125C5.48623 3.81938 5.19467 4.21359 5.25654 4.59938C5.29967 4.99781 5.7042 5.30813 6.10076 5.24297C6.49826 5.19938 6.80717 4.79625 6.74342 4.40063C6.69935 3.99188 6.27513 3.67875 5.87154 3.76125ZM17.8692 3.76125C17.4848 3.82078 17.1947 4.21453 17.2565 4.59938C17.3001 4.99828 17.7051 5.30906 18.1022 5.24297C18.4969 5.19844 18.8048 4.79953 18.7439 4.40578C18.7031 3.99375 18.2756 3.67781 17.8692 3.76125ZM10.9242 4.58578C9.56623 4.8 8.28279 5.44781 7.29888 6.40688C6.3731 7.30266 5.7117 8.46797 5.42342 9.72375C5.10045 11.1178 5.23076 12.6141 5.80217 13.927C6.40357 15.3258 7.49482 16.5056 8.84107 17.2158C9.95107 17.8083 11.2303 18.0736 12.4847 17.9827C13.3617 18.5892 14.2406 19.1934 15.1153 19.8033C15.6975 20.2744 16.5309 20.3845 17.2284 20.1272C17.8289 19.9134 18.3253 19.4292 18.5545 18.8344C18.7969 18.2297 18.7523 17.5209 18.442 16.9486C18.1458 16.3781 17.5889 15.9764 16.9729 15.8138C17.849 14.8612 18.4448 13.6528 18.6562 12.375C18.8817 11.0391 18.6979 9.63563 18.1237 8.4075C17.4853 7.02703 16.3645 5.87719 15.0014 5.20313C13.7512 4.57734 12.3033 4.36266 10.9242 4.58578ZM5.8692 18.7612C5.48529 18.8203 5.19513 19.2141 5.25654 19.5989C5.29967 19.9969 5.70232 20.3072 6.09888 20.2434C6.49592 20.2008 6.80623 19.7986 6.74388 19.403C6.70123 18.9923 6.27467 18.6778 5.8692 18.7612Z" fill="#041E42"/>
<path d="M11.7868 10.5304C12.18 10.401 12.639 10.6659 12.728 11.0685C12.8405 11.4688 12.5522 11.9184 12.143 11.9863C11.7516 12.074 11.3307 11.7885 11.2641 11.3943C11.1825 11.0273 11.4254 10.6293 11.7868 10.5304Z" fill="#041E42"/>
<path d="M11.5969 14.9368C11.7413 14.9035 11.8941 14.9134 12.0338 14.9612C13.6632 15.504 15.2935 16.0445 16.9219 16.5882C17.3536 16.7218 17.7108 17.0654 17.8655 17.4887C18.0961 18.0774 17.8969 18.7956 17.3991 19.1837C16.8797 19.6126 16.0571 19.6295 15.5405 19.1874C14.1427 18.211 12.7346 17.2487 11.3354 16.2746C11.0513 16.0731 10.9308 15.6648 11.0855 15.3474C11.1793 15.1402 11.3747 14.9846 11.5969 14.9368Z" fill="#041E42"/>
<path d="M10.0331 5.5803C11.3503 5.12093 12.8278 5.14202 14.1314 5.63984C15.4035 6.11984 16.4981 7.04937 17.182 8.22452C17.8228 9.31155 18.0993 10.6048 17.9695 11.8592C17.834 13.25 17.1871 14.5812 16.1826 15.5511C14.8589 15.1119 13.536 14.6694 12.2114 14.232C11.5739 14.0309 10.8192 14.308 10.4817 14.8892C10.1704 15.3889 10.207 16.0676 10.5553 16.5387C10.7606 16.8392 11.0925 17.007 11.3784 17.218C10.042 17.0858 8.76042 16.4806 7.8037 15.5384C6.83151 14.5934 6.19636 13.3091 6.04167 11.9609C5.88651 10.6747 6.15979 9.34015 6.81839 8.22359C7.53136 6.99874 8.69198 6.04109 10.0331 5.5803ZM11.6456 9.0289C10.7985 9.15359 10.0626 9.80843 9.8362 10.6334C9.65151 11.2719 9.76917 11.9905 10.1526 12.5342C10.5178 13.063 11.1178 13.4225 11.7581 13.4867C12.4256 13.5631 13.1198 13.3184 13.5909 12.8398C14.0568 12.3805 14.301 11.7097 14.241 11.0581C14.1932 10.4567 13.8876 9.88343 13.4184 9.50468C12.9309 9.10296 12.2685 8.92671 11.6456 9.0289Z" fill="#0530AD"/>
</svg>
