<svg width="24" height="24" viewBox="0 0 24 24" fill="none" xmlns="http://www.w3.org/2000/svg">
<path d="M2.69526 3.03092C2.81104 3.00701 2.9301 2.99998 3.04823 2.99951C9.04776 3.00186 15.0473 2.99764 21.0468 3.00139C21.8128 3.00701 22.4924 3.68576 22.4985 4.4517C22.5023 9.7017 22.4981 14.9522 22.5004 20.2022C22.5192 20.5064 22.3392 20.8106 22.0593 20.9329C21.8765 21.022 21.6679 20.9972 21.472 21C15.0642 20.999 8.65635 21.0009 2.24901 20.9995C1.84823 21.0098 1.4887 20.6489 1.50042 20.2486C1.49948 14.9981 1.49995 9.74764 1.49995 4.49764C1.48823 3.8067 2.01838 3.16123 2.69526 3.03092ZM2.99995 7.49998C2.99995 11.4998 2.99995 15.5001 2.99995 19.5C8.99995 19.5 14.9999 19.5 20.9999 19.5C20.9999 15.5001 20.9999 11.4998 20.9999 7.49998C14.9999 7.49998 8.99995 7.49998 2.99995 7.49998Z" fill="#041E42"/>
<path d="M6 9C10.0003 9 14.0002 9 18 9C18 10.5 18 12 18 13.5C14.0002 13.5 9.99984 13.5 6 13.5C6 12 6 10.5 6 9ZM6.75 9.75C6.75 10.7498 6.75 11.7502 6.75 12.75C10.2502 12.75 13.7498 12.75 17.25 12.75C17.25 11.7497 17.25 10.7498 17.25 9.75C13.7498 9.75 10.2502 9.75 6.75 9.75Z" fill="#0530AD"/>
<path d="M6.61646 15.0116C6.75427 14.9929 6.89396 14.9999 7.03224 14.9994C8.18865 15.0009 9.34505 14.9985 10.5015 15.0009C10.9018 14.9891 11.2618 15.3505 11.2491 15.7509C11.2505 16.2515 11.251 16.7521 11.2491 17.2523C11.2599 17.6521 10.8999 18.0107 10.5005 17.9994C9.24943 18.0004 7.99834 18.0004 6.74771 17.999C6.3488 18.0102 5.98974 17.6507 6.00099 17.2518C5.99912 16.7516 5.99959 16.251 6.00099 15.7509C5.99162 15.3979 6.26912 15.0679 6.61646 15.0116Z" fill="#0530AD"/>
<path d="M13.3636 15.0121C13.5182 14.9914 13.6748 15.0008 13.8304 14.9999C14.8921 14.9994 15.9539 15.0008 17.0151 14.9994C17.1862 15.0017 17.3657 14.9835 17.527 15.0528C17.805 15.1597 18.0032 15.4461 17.999 15.7447C17.999 16.2627 18.0037 16.7806 17.9967 17.2981C17.985 17.6806 17.6325 18.0092 17.2504 17.9989C15.9989 18.0003 14.7468 18.0008 13.4953 17.9989C13.1142 18.0074 12.765 17.6788 12.7528 17.2977C12.7443 16.8435 12.7537 16.3892 12.749 15.935C12.7504 15.7803 12.7392 15.6186 12.8029 15.4738C12.8939 15.2371 13.1142 15.0561 13.3636 15.0121Z" fill="#0530AD"/>
</svg>
