<svg width="24" height="24" viewBox="0 0 24 24" fill="none" xmlns="http://www.w3.org/2000/svg">
<path d="M2.5 8.5V15.5C2.5 15.776 2.724 16 3 16H7C7.276 16 7.5 15.776 7.5 15.5V8.5C7.5 8.224 7.276 8 7 8H3C2.724 8 2.5 8.224 2.5 8.5Z" fill="#041E42"/>
<path d="M16 9.5V14.5C16 14.776 16.224 15 16.5 15H20.5C20.776 15 21 14.776 21 14.5V9.5C21 9.224 20.776 9 20.5 9H16.5C16.224 9 16 9.224 16 9.5Z" fill="#0530AD"/>
<path d="M16 1.5V6.5C16 6.776 16.224 7 16.5 7H20.5C20.776 7 21 6.776 21 6.5V1.5C21 1.224 20.776 1 20.5 1H16.5C16.224 1 16 1.224 16 1.5Z" fill="#0530AD"/>
<path d="M16 17.5V22.5C16 22.776 16.224 23 16.5 23H20.5C20.776 23 21 22.776 21 22.5V17.5C21 17.224 20.776 17 20.5 17H16.5C16.224 17 16 17.224 16 17.5Z" fill="#0530AD"/>
<path d="M16 11.5H7.5V12.5H16V11.5Z" fill="#6D6E71"/>
<path d="M16 3.5V4.5H12C11.7245 4.5 11.5 4.7245 11.5 5V19C11.5 19.2755 11.7245 19.5 12 19.5H16V20.5H12C11.173 20.5 10.5 19.827 10.5 19V5C10.5 4.173 11.173 3.5 12 3.5H16Z" fill="#6D6E71"/>
</svg>
