<svg width="24" height="24" viewBox="0 0 24 24" fill="none" xmlns="http://www.w3.org/2000/svg">
<path d="M8.18709 2.78246C9.52533 2.2103 10.9929 1.9415 12.4469 2.00998C14.0815 2.08006 15.6953 2.56934 17.0953 3.41542C18.9234 4.51206 20.3833 6.20582 21.2057 8.17222C21.6946 9.33094 21.9609 10.5812 21.9967 11.8378C20.038 11.8381 18.0793 11.8381 16.1205 11.8378C16.0501 10.7149 15.5231 9.62022 14.6553 8.89734C13.9298 8.28294 12.981 7.95142 12.0325 7.95174C11.1519 7.94022 10.278 8.2455 9.57781 8.77606C8.78101 9.37542 8.19765 10.2577 7.97461 11.2311C7.77141 12.1069 7.87477 13.0474 8.24693 13.8644C8.67957 14.8231 9.48757 15.6074 10.4639 16.001C10.8617 16.1639 11.2857 16.2602 11.7138 16.2922C11.7138 18.2769 11.7141 20.2618 11.7138 22.2465C10.4124 22.2093 9.11861 21.9124 7.93269 21.3745C6.00149 20.5037 4.36757 19.0007 3.32469 17.1585C2.40277 15.5421 1.94325 13.6685 2.00501 11.8093C2.04597 10.4429 2.37141 9.08614 2.95253 7.84902C4.00245 5.59782 5.89909 3.75334 8.18709 2.78246Z" fill="#041E42"/>
<path d="M11.4713 8.56833C12.1734 8.46049 12.9084 8.57025 13.5452 8.88641C14.2284 9.21921 14.7961 9.77953 15.1446 10.4541C15.6947 11.4967 15.6886 12.8103 15.1219 13.8445C14.6214 14.7808 13.6876 15.4759 12.6409 15.6656C11.9683 15.7907 11.2588 15.7149 10.6297 15.4448C9.97949 15.169 9.41725 14.6928 9.03357 14.1005C8.63965 13.5008 8.43549 12.7799 8.45021 12.0627C8.46045 11.2429 8.76349 10.4317 9.29085 9.80449C9.83677 9.14721 10.6252 8.69473 11.4713 8.56833ZM11.5676 9.97633C10.896 10.1107 10.3084 10.5879 10.0288 11.2115C9.77885 11.753 9.76413 12.3975 9.98877 12.9498C10.1808 13.4304 10.5491 13.8387 11.0092 14.0765C11.4185 14.2915 11.8982 14.3677 12.3539 14.2915C12.8252 14.2141 13.2665 13.9725 13.5884 13.6202C14.1916 12.9831 14.3449 11.9725 13.9606 11.1843C13.736 10.7043 13.3315 10.3111 12.8432 10.1037C12.4444 9.93249 11.9926 9.88833 11.5676 9.97633Z" fill="#0530AD"/>
<path d="M16.1205 12.416C18.0805 12.4157 20.0402 12.416 22.0002 12.416C21.9637 13.7396 21.6671 15.0554 21.1276 16.2647C20.2632 18.2167 18.7679 19.8839 16.9138 20.944C15.5119 21.7517 13.9077 22.2039 12.2901 22.2484C12.2898 20.2628 12.2898 18.2772 12.2898 16.2916C13.3288 16.2237 14.3282 15.7335 15.0277 14.9642C15.6674 14.2717 16.0581 13.3568 16.1205 12.416Z" fill="#0530AD"/>
</svg>
