<svg width="24" height="24" viewBox="0 0 24 24" fill="none" xmlns="http://www.w3.org/2000/svg">
<path d="M11.0576 2.04406C13.136 1.84406 15.2739 2.31382 17.0704 3.37974C18.9219 4.46678 20.4061 6.16502 21.2304 8.14774C22.2528 10.5727 22.2557 13.4037 21.2397 15.8313C20.417 17.8239 18.928 19.5314 17.0688 20.6223C15.921 21.2997 14.6349 21.7423 13.313 21.9148C11.8685 22.1042 10.3824 21.9791 8.99265 21.5401C6.99393 20.9148 5.20929 19.637 3.96449 17.9535C3.12001 16.8175 2.52097 15.4997 2.22433 14.1154C1.91553 12.6844 1.92545 11.1855 2.25249 9.7583C2.52289 8.57686 3.01185 7.4463 3.68769 6.44022C4.46113 5.28438 5.47841 4.29302 6.65313 3.54902C7.97473 2.7087 9.49761 2.18774 11.0576 2.04406ZM11.6989 6.55478C11.2854 6.61782 10.8938 6.81718 10.6013 7.11638C10.2429 7.4735 10.0339 7.97494 10.0317 8.48086C10.0086 9.32118 10.593 10.1273 11.3949 10.374C11.8803 10.5321 12.4282 10.4917 12.8832 10.2594C13.3357 10.0348 13.6928 9.62742 13.8586 9.1503C14.0086 8.72246 14.0058 8.24182 13.8464 7.81686C13.6899 7.38934 13.3776 7.0223 12.9837 6.79478C12.5994 6.5711 12.1379 6.4863 11.6989 6.55478ZM6.95201 7.20598C6.42273 7.29014 5.96609 7.70454 5.83009 8.22262C5.71361 8.63894 5.80577 9.10678 6.07201 9.4479C6.32833 9.78422 6.74305 9.99542 7.16705 9.9967C7.57953 10.006 7.98945 9.81846 8.25505 9.50294C8.51041 9.20918 8.63041 8.8047 8.58081 8.41878C8.53793 8.05782 8.34561 7.71798 8.06081 7.49238C7.75393 7.24534 7.33985 7.13878 6.95201 7.20598ZM16.4973 7.22198C15.9654 7.33846 15.528 7.7903 15.4323 8.32662C15.3491 8.75318 15.4781 9.21366 15.7719 9.53398C16.0374 9.8303 16.4333 10.0053 16.832 9.9967C17.2717 9.9951 17.7024 9.76886 17.9555 9.40982C18.1693 9.1167 18.2592 8.73814 18.2032 8.38006C18.1443 7.98038 17.9021 7.61334 17.5587 7.40054C17.2474 7.2031 16.856 7.13846 16.4973 7.22198ZM6.72161 10.5279C5.94945 10.6361 5.22497 11.0396 4.72321 11.6354C4.22337 12.2201 3.94433 12.9893 3.95873 13.7589C3.96417 13.9138 4.02689 14.062 4.12065 14.1839C4.32577 14.4421 4.62881 14.5973 4.93089 14.7138C5.46849 14.9145 6.04161 15.0018 6.61217 15.0402C6.84385 13.4588 7.82145 12.014 9.19169 11.1948C8.50625 10.6447 7.59041 10.3977 6.72161 10.5279ZM16.2826 10.5404C15.7456 10.6287 15.2349 10.8594 14.808 11.1967C16.1799 12.014 17.1568 13.4604 17.3875 15.0418C17.6784 15.0245 17.9683 14.989 18.255 14.9359C18.7155 14.8457 19.1818 14.7189 19.5779 14.4585C19.8151 14.3007 20.0323 14.0585 20.0413 13.7593C20.0509 13.1903 19.9021 12.6201 19.6195 12.1266C19.2973 11.5599 18.7994 11.094 18.2106 10.814C17.6167 10.526 16.9328 10.4322 16.2826 10.5404ZM11.7824 11.0796C10.5207 11.1314 9.29953 11.7503 8.50369 12.7298C7.83361 13.541 7.46177 14.5935 7.48097 15.646C7.49089 15.9052 7.61441 16.1503 7.79105 16.3365C8.07489 16.6399 8.45441 16.8319 8.83713 16.9801C9.47169 17.2194 10.1443 17.3413 10.817 17.4111C11.7328 17.5007 12.6595 17.4885 13.5715 17.3647C14.1981 17.2761 14.824 17.1381 15.4042 16.8799C15.7997 16.6981 16.1994 16.4511 16.4087 16.0553C16.5584 15.7836 16.5235 15.4636 16.5008 15.1673C16.4019 14.0661 15.8752 13.013 15.0595 12.2677C14.184 11.4546 12.976 11.0156 11.7824 11.0796Z" fill="#041E42"/>
</svg>
