<svg width="24" height="24" viewBox="0 0 24 24" fill="none" xmlns="http://www.w3.org/2000/svg">
<path d="M11.0676 1.7998H12.7386C12.931 1.81213 13.0998 1.96721 13.1272 2.15818C13.183 2.52148 13.2365 2.88533 13.2921 3.24837C13.314 3.41139 13.4431 3.54701 13.6001 3.59002C14.0113 3.70619 14.41 3.86757 14.7837 4.07525C14.9275 4.158 15.1212 4.15827 15.2536 4.05169C15.5689 3.81853 15.884 3.58455 16.1999 3.35221C16.3596 3.22919 16.6043 3.25412 16.7435 3.39741C17.1238 3.77743 17.5041 4.15717 17.8838 4.53774C18.0244 4.67665 18.0479 4.91858 17.9271 5.07722C17.6948 5.39367 17.4586 5.70766 17.2265 6.02438C17.1235 6.16357 17.138 6.35974 17.2309 6.5003C17.4052 6.8162 17.552 7.14745 17.6627 7.49075C17.6937 7.58418 17.7139 7.68501 17.777 7.76337C17.8444 7.8505 17.9477 7.90529 18.0564 7.91927C18.454 7.97927 18.8521 8.03681 19.2494 8.09845C19.4461 8.1253 19.5992 8.31326 19.5962 8.50971C19.5968 9.04891 19.5979 9.58839 19.5957 10.1276C19.5932 10.3213 19.4392 10.5008 19.2461 10.5268C18.8677 10.5846 18.489 10.6413 18.1107 10.6986C18.0035 10.7128 17.9038 10.7706 17.8392 10.8575C17.7753 10.938 17.7578 11.0419 17.7301 11.1378C17.6265 11.5024 17.4887 11.8581 17.3145 12.1948C17.2671 12.2817 17.2441 12.383 17.2635 12.4814C17.2802 12.5885 17.3578 12.6696 17.4183 12.7548C17.6268 13.039 17.8356 13.3231 18.0438 13.6075C18.1633 13.7647 18.1438 14.0042 18.0052 14.1437C17.6463 14.5067 17.283 14.8656 16.9232 15.2278C16.8635 15.2881 16.8013 15.3508 16.7202 15.3818C16.5906 15.435 16.4339 15.4169 16.3224 15.3308C16.0591 15.1366 15.7966 14.9418 15.5336 14.747C15.4555 14.6889 15.3771 14.622 15.2782 14.6053C15.1711 14.5837 15.0588 14.6081 14.9661 14.6648C14.6028 14.8818 14.2138 15.0558 13.8102 15.1823C13.6318 15.2218 13.4735 15.3665 13.4562 15.5544C13.4031 15.9194 13.3535 16.2849 13.2987 16.6493C13.2691 16.8635 13.0619 17.0178 12.8499 17.0082C12.8493 17.4172 12.851 17.8266 12.8491 18.2359C13.3242 18.4817 13.7042 18.9072 13.8803 19.4135C15.241 19.4146 16.6013 19.4119 17.9619 19.4149C18.4008 19.4138 18.7921 19.8004 18.7973 20.239C18.8263 20.6903 18.4397 21.1144 17.9874 21.1251C16.5668 21.1276 15.1459 21.1251 13.725 21.1262C13.4836 21.5492 13.0976 21.8901 12.6411 22.0632C12.1356 22.2591 11.5512 22.2446 11.0583 22.0177C10.6501 21.8344 10.3078 21.5141 10.0873 21.1259C8.73024 21.1259 7.37346 21.1265 6.01669 21.1256C5.63667 21.121 5.28679 20.8284 5.2109 20.4568C5.12295 20.0902 5.31254 19.6831 5.6479 19.5124C5.80243 19.428 5.98134 19.4072 6.15477 19.4135C7.41374 19.414 8.6727 19.4135 9.93166 19.4135C10.1292 18.8461 10.5783 18.3732 11.1377 18.1518C11.1369 17.7625 11.1377 17.3729 11.1372 16.9835C11.0008 16.9285 10.884 16.8126 10.8583 16.6638C10.8018 16.3208 10.7536 15.9764 10.6991 15.633C10.6775 15.4769 10.5531 15.3443 10.401 15.3067C9.9481 15.1889 9.50507 15.027 9.09299 14.8034C8.95189 14.7234 8.76394 14.7278 8.63352 14.8281C8.37077 15.0221 8.10719 15.2155 7.84499 15.4106C7.67457 15.5747 7.37949 15.5681 7.22441 15.3865C6.88714 15.0481 6.54877 14.7105 6.21094 14.3724C6.13751 14.2979 6.05203 14.2275 6.0134 14.127C5.95805 13.993 5.9786 13.8308 6.06792 13.7162C6.25862 13.4593 6.44903 13.2023 6.63945 12.9453C6.74302 12.8115 6.74631 12.6173 6.65781 12.4754C6.4126 12.0619 6.22081 11.6172 6.08463 11.1564C6.04025 11.0087 5.91367 10.8841 5.75804 10.8616C5.42159 10.8093 5.08431 10.7599 4.74786 10.7065C4.54977 10.6778 4.38757 10.4942 4.3925 10.2925C4.39195 9.75387 4.39195 9.21549 4.3925 8.67684C4.38675 8.47464 4.55032 8.29189 4.74813 8.26284C5.07007 8.21408 5.39282 8.17078 5.71475 8.12229C5.87668 8.09791 6.01121 7.96667 6.04984 7.80912C6.17121 7.35431 6.35067 6.91429 6.58575 6.50605C6.67096 6.36577 6.66905 6.17508 6.56877 6.04274C6.36026 5.75834 6.14929 5.47587 5.94134 5.1912C5.82298 5.03119 5.84681 4.78898 5.99066 4.65254C6.36931 4.2728 6.74878 3.8936 7.12824 3.51468C7.26414 3.37275 7.50443 3.34782 7.66361 3.46509C7.94856 3.67304 8.23021 3.88538 8.51434 4.09471C8.64174 4.19224 8.82504 4.19389 8.96285 4.1169C9.32013 3.91196 9.69823 3.74181 10.0936 3.62537C10.1859 3.5977 10.2843 3.57852 10.3632 3.51961C10.4585 3.45331 10.5185 3.34371 10.5325 3.22919C10.5843 2.87301 10.6353 2.51655 10.6879 2.16064C10.7144 1.97242 10.8775 1.8157 11.0676 1.7998ZM11.5649 6.39755C10.9147 6.48769 10.2977 6.79757 9.83741 7.26554C9.28095 7.82145 8.95847 8.60231 8.96066 9.38892C8.95463 10.0481 9.17272 10.7065 9.57165 11.2315C9.98153 11.7778 10.5827 12.1773 11.2457 12.343C11.9241 12.5151 12.6617 12.4463 13.294 12.1449C14.0225 11.8038 14.602 11.1589 14.8618 10.3972C15.0979 9.71743 15.082 8.95329 14.8165 8.28394C14.5664 7.64583 14.091 7.0995 13.494 6.76223C12.9151 6.4307 12.2246 6.30385 11.5649 6.39755Z" fill="#041E42"/>
</svg>
