<svg width="24" height="24" viewBox="0 0 24 24" fill="none" xmlns="http://www.w3.org/2000/svg">
<path d="M3.9833 1.94363C4.14746 1.91899 4.31386 1.91835 4.47994 1.91995C9.54649 1.91995 14.6134 1.91995 19.6803 1.91995C20.2332 1.91771 20.7833 2.11675 21.2079 2.47099C21.7462 2.91035 22.0751 3.59323 22.0796 4.28859C22.0803 9.41883 22.0796 14.5494 22.0799 19.6796C22.0822 20.2332 21.8828 20.784 21.5286 21.2086C21.062 21.7817 20.3206 22.1107 19.583 22.0803C14.591 22.0796 9.59866 22.08 4.60666 22.08C4.39386 22.079 4.17978 22.088 3.9689 22.0544C3.37114 21.9689 2.8137 21.6438 2.43994 21.1702C2.10458 20.752 1.91898 20.2176 1.91994 19.6819C1.91994 14.5606 1.91994 9.43963 1.91994 4.31867C1.91802 3.76571 2.11706 3.21595 2.4713 2.79163C2.84666 2.33403 3.39642 2.02395 3.9833 1.94363ZM5.75994 6.71995C5.75994 9.27995 5.75994 11.84 5.75994 14.4C6.39994 14.4 7.03994 14.4 7.67993 14.4C7.68025 14.88 7.67993 15.36 7.67993 15.84C8.31994 15.84 8.95994 15.84 9.59994 15.84C9.60026 16.32 9.59994 16.8 9.59994 17.28C11.1999 17.28 12.7999 17.28 14.3999 17.28C14.3999 16.8 14.3996 16.32 14.3999 15.84C15.0399 15.84 15.6799 15.84 16.3199 15.84C16.3199 15.36 16.3199 14.88 16.3199 14.4C16.9599 14.3996 17.5999 14.4 18.2399 14.4C18.2399 11.84 18.2399 9.27995 18.2399 6.71995C14.0799 6.71995 9.91994 6.71995 5.75994 6.71995Z" fill="#041E42"/>
<path d="M7.19995 8.16016C7.51995 8.16016 7.83995 8.16016 8.15995 8.16016C8.15995 9.28016 8.15995 10.4002 8.15995 11.5202C7.83995 11.5202 7.51995 11.5202 7.19995 11.5202C7.19995 10.4002 7.19995 9.28016 7.19995 8.16016Z" fill="#0530AD"/>
<path d="M8.63989 8.16016C8.95989 8.16016 9.27989 8.16016 9.59989 8.16016C9.59989 9.28016 9.59989 10.4002 9.59989 11.5202C9.27989 11.5202 8.95989 11.5202 8.63989 11.5202C8.63989 10.4002 8.63989 9.28016 8.63989 8.16016Z" fill="#0530AD"/>
<path d="M10.0798 8.16016C10.3998 8.16016 10.7198 8.16016 11.0398 8.16016C11.0398 9.28016 11.0398 10.4002 11.0398 11.5202C10.7198 11.5202 10.3998 11.5202 10.0798 11.5202C10.0798 10.4002 10.0798 9.28016 10.0798 8.16016Z" fill="#0530AD"/>
<path d="M11.52 8.16016C11.84 8.16016 12.16 8.16016 12.48 8.16016C12.48 9.28016 12.48 10.4002 12.48 11.5202C12.16 11.5202 11.84 11.5202 11.52 11.5202C11.52 10.4002 11.52 9.28016 11.52 8.16016Z" fill="#0530AD"/>
<path d="M12.96 8.16016C13.28 8.16016 13.6 8.16016 13.92 8.16016C13.92 9.28016 13.92 10.4002 13.92 11.5202C13.6 11.5202 13.28 11.5202 12.96 11.5202C12.96 10.4002 12.96 9.28016 12.96 8.16016Z" fill="#0530AD"/>
<path d="M14.3999 8.16016C14.7199 8.16016 15.0399 8.16016 15.3599 8.16016C15.3599 9.28016 15.3599 10.4002 15.3599 11.5202C15.0399 11.5202 14.7199 11.5202 14.3999 11.5202C14.3999 10.4002 14.3999 9.28016 14.3999 8.16016Z" fill="#0530AD"/>
<path d="M15.8398 8.16016C16.1598 8.16016 16.4798 8.16016 16.7998 8.16016C16.7998 9.28016 16.7998 10.4002 16.7998 11.5202C16.4798 11.5202 16.1598 11.5202 15.8398 11.5202C15.8398 10.4002 15.8398 9.28016 15.8398 8.16016Z" fill="#0530AD"/>
</svg>
