<svg width="24" height="24" viewBox="0 0 24 24" fill="none" xmlns="http://www.w3.org/2000/svg">
<path d="M11.5907 2.08774C11.7117 1.96742 11.9283 1.97158 12.0429 2.09894C12.3645 2.41894 12.6797 2.74502 13.0003 3.06598C13.137 3.19078 13.1334 3.4327 12.9859 3.54726C12.6166 3.82982 12.2445 4.10822 11.8739 4.38854C11.7379 4.4967 11.5187 4.46342 11.4205 4.32038C11.3203 4.19078 11.3424 3.98662 11.471 3.88422C11.5997 3.7815 11.7344 3.68646 11.8646 3.58566C10.8054 3.5975 9.75296 3.89446 8.83168 4.41478C7.71584 5.04422 6.7968 6.01638 6.23392 7.1671C5.6432 8.35462 5.44128 9.72742 5.65216 11.0362C5.69152 11.2103 5.55744 11.3962 5.38048 11.4154C5.20736 11.4449 5.03264 11.3089 5.01536 11.1351C4.82144 9.94982 4.93856 8.7159 5.35072 7.5879C5.7648 6.44358 6.48192 5.41126 7.40864 4.62278C8.6624 3.54822 10.3024 2.93862 11.9536 2.93254C11.833 2.79558 11.6979 2.67206 11.5728 2.53926C11.4531 2.41734 11.4637 2.2007 11.5907 2.08774Z" fill="#0530AD"/>
<path d="M14.1168 3.55268C14.1866 3.40612 14.3754 3.33284 14.5251 3.39876C15.6944 3.84292 16.7402 4.60644 17.5207 5.58372C18.3472 6.6122 18.8755 7.87684 19.0266 9.18788C19.2045 10.6743 18.8883 12.2106 18.1488 13.5111C18.3287 13.4666 18.5066 13.4138 18.6877 13.3732C18.8563 13.3328 19.0375 13.4599 19.065 13.6292C19.1002 13.7872 18.9933 13.9572 18.8378 13.9988C18.392 14.1159 17.9462 14.233 17.4998 14.3485C17.3222 14.4016 17.1216 14.2682 17.0992 14.0852C17.0406 13.6247 16.9827 13.1642 16.9277 12.7034C16.9018 12.5194 17.0653 12.3437 17.249 12.3485C17.3959 12.346 17.5373 12.4573 17.5638 12.6026C17.5917 12.7709 17.6058 12.9412 17.6298 13.1101C18.2758 11.945 18.5414 10.5748 18.3818 9.2522C18.2368 8.00548 17.7139 6.80612 16.9008 5.84996C16.2064 5.02916 15.3024 4.38756 14.2983 4.00356C14.1187 3.94628 14.0253 3.71844 14.1168 3.55268Z" fill="#0530AD"/>
<path d="M2.21764 5.64352C2.40868 5.39072 2.72164 5.23616 3.03812 5.23584C4.00004 5.23616 4.96196 5.23552 5.92388 5.23648C5.1866 6.18368 4.665 7.29984 4.42948 8.47808C4.14596 9.86656 4.25572 11.3331 4.74532 12.663C4.75844 12.7078 4.7866 12.7549 4.76388 12.8022C4.67268 13.1376 4.57668 13.472 4.48836 13.808C4.39172 14.2166 4.60036 14.6707 4.9722 14.8646C5.27812 15.0365 5.67108 15.0157 5.96548 14.8285C6.6618 15.7021 7.55172 16.4198 8.55172 16.9181C9.75172 17.5178 11.1101 17.7962 12.4493 17.7152C13.737 17.6413 15.0039 17.2358 16.096 16.5498C16.7924 16.1133 17.4186 15.5645 17.9421 14.9309C17.9645 14.8957 18.0048 14.8851 18.0429 14.8752C18.3744 14.7891 18.706 14.7046 19.0365 14.6154C19.4208 14.5021 19.7085 14.1283 19.7184 13.7277C19.7389 13.3546 19.5181 12.991 19.1885 12.8205C19.6922 11.5309 19.8413 10.105 19.6109 8.73952C19.4007 7.4656 18.8624 6.248 18.0637 5.2336C18.944 5.23424 19.8244 5.23392 20.7047 5.23392C20.8554 5.23488 21.0077 5.22656 21.1568 5.25568C21.4983 5.32096 21.7978 5.568 21.9245 5.89216C22.002 6.07168 22.0048 6.2704 22.0004 6.46272C22.0007 10.3558 21.9984 14.249 22.0013 18.1421C18.4864 18.1466 14.9712 18.1427 11.456 18.144C8.3034 18.1421 5.15044 18.1482 1.9978 18.1411C2.00292 14.1843 1.99844 10.2275 2.00004 6.27104C2.00196 6.04544 2.07972 5.82144 2.21764 5.64352Z" fill="#041E42"/>
<path d="M11.2039 5.23398C11.7354 5.2343 12.2666 5.23366 12.7978 5.23398C12.7994 5.50086 12.7953 5.76774 12.8004 6.03462C13.3156 6.13702 13.8103 6.34182 14.2471 6.63398C14.4388 6.44902 14.6189 6.2519 14.8145 6.0711C15.1873 6.44902 15.5668 6.8199 15.9383 7.1991C15.7489 7.38598 15.5613 7.5751 15.3732 7.76326C15.6657 8.2007 15.8705 8.69606 15.9738 9.2119C16.2397 9.21222 16.506 9.2119 16.7719 9.21222C16.769 9.74406 16.778 10.2762 16.7674 10.8081C16.5031 10.8039 16.2388 10.8071 15.9745 10.8061C15.8705 11.3236 15.6637 11.8186 15.3725 12.2589C15.5652 12.4407 15.746 12.6343 15.9383 12.8167C15.5655 13.1965 15.1863 13.57 14.8109 13.9469C14.6228 13.7585 14.4343 13.5706 14.2465 13.3821C13.8074 13.6737 13.3117 13.8794 12.7949 13.9825C12.793 14.249 12.7943 14.5156 12.7943 14.7818C12.2634 14.7821 11.7329 14.7821 11.2023 14.7818C11.202 14.5156 11.2023 14.2493 11.202 13.9828C10.6858 13.8788 10.1898 13.6749 9.75238 13.3821C9.56262 13.5693 9.3767 13.7601 9.18822 13.9479C8.8119 13.5729 8.4375 13.1959 8.06054 12.8215C8.2471 12.6301 8.43814 12.4436 8.62598 12.2538C8.33254 11.8164 8.12838 11.3204 8.0247 10.8042C7.76198 10.802 7.49894 10.8077 7.23622 10.802C7.21382 10.7591 7.23078 10.7028 7.22534 10.6554C7.22694 10.1745 7.22534 9.69318 7.2263 9.21222C7.49222 9.2119 7.75846 9.21222 8.0247 9.2119C8.12742 8.6951 8.33382 8.20006 8.62534 7.76102C8.43654 7.57318 8.24902 7.3847 8.06054 7.19686C8.43494 6.81926 8.81222 6.44486 9.18758 6.06822C9.37734 6.25606 9.56486 6.44582 9.7543 6.63398C10.1892 6.34246 10.6817 6.14214 11.1933 6.03366C11.2186 5.77126 11.1965 5.4999 11.2039 5.23398ZM11.6983 7.54374C10.8977 7.6359 10.1613 8.14694 9.7959 8.86502C9.53094 9.37158 9.4503 9.97158 9.57254 10.53C9.69318 11.0999 10.0231 11.6231 10.4868 11.9764C10.9082 12.3021 11.4369 12.4852 11.9697 12.4903C12.5063 12.498 13.0433 12.3249 13.474 12.0049C13.9313 11.6692 14.266 11.1716 14.4045 10.6215C14.545 10.0785 14.4916 9.48838 14.258 8.9783C14.065 8.55206 13.7473 8.18374 13.3549 7.9287C12.8708 7.61094 12.273 7.47206 11.6983 7.54374Z" fill="#0530AD"/>
<path d="M5.49251 12.5902C5.54083 12.4167 5.75235 12.3159 5.91747 12.3886C6.31523 12.5534 6.71043 12.7249 7.10787 12.8907C7.24355 12.9335 7.38147 13.0292 7.39555 13.1828C7.43491 13.3947 7.21859 13.5975 7.00995 13.5435C6.83459 13.4859 6.67011 13.3998 6.49731 13.3345C7.21475 14.5307 8.33699 15.4766 9.63491 15.986C10.7863 16.4439 12.0714 16.5563 13.2848 16.3067C14.2794 16.1041 15.2253 15.6631 16.016 15.0263C16.1213 14.9182 16.2957 14.8791 16.4285 14.9611C16.6144 15.0625 16.6439 15.3515 16.4759 15.4833C15.5258 16.2663 14.3648 16.7892 13.1504 16.9892C11.8685 17.203 10.5284 17.0532 9.32547 16.5604C7.89827 15.9825 6.67267 14.9223 5.89699 13.5921C5.81987 13.7681 5.79747 13.962 5.73027 14.1415C5.66531 14.3099 5.44387 14.3879 5.28707 14.2996C5.15011 14.2315 5.07875 14.0609 5.12803 13.9156C5.24931 13.4737 5.36931 13.0315 5.49251 12.5902Z" fill="#0530AD"/>
<path d="M1.99652 18.7939C8.66436 18.7888 15.3322 18.7946 22 18.7914C22.0388 19.336 21.5895 19.8541 21.0439 19.8874C20.6416 19.8979 20.2391 19.889 19.8368 19.8919C14.2487 19.8922 8.66052 19.8919 3.07236 19.8922C2.73444 19.9005 2.39684 19.736 2.20004 19.4605C2.05892 19.2691 1.99428 19.0301 1.99652 18.7939Z" fill="#041E42"/>
<path d="M7.84961 20.5424C10.6128 20.535 13.3763 20.545 16.1399 20.5376C16.4442 21.0438 16.736 21.5581 17.0352 22.0672C17.1159 22.1702 17.0275 22.337 16.8967 22.3232C13.697 22.3251 10.4973 22.3232 7.29761 22.3242C7.21633 22.3226 7.13473 22.3293 7.05409 22.3187C6.95585 22.2982 6.90017 22.1741 6.95265 22.088C7.24865 21.5712 7.55457 21.0598 7.84961 20.5424Z" fill="#041E42"/>
</svg>
