<svg width="24" height="24" viewBox="0 0 24 24" fill="none" xmlns="http://www.w3.org/2000/svg">
<path d="M5.00602 3.05945C5.15674 3.01465 5.31482 2.99737 5.47226 2.99961C8.66106 3.00025 11.8502 2.99961 15.0393 2.99993C15.3439 3.00281 15.6598 2.97433 15.9494 3.08953C16.4614 3.26873 16.8569 3.76857 16.8633 4.31865C16.8646 5.17209 16.8633 6.02585 16.8639 6.87961C17.5795 7.00025 18.2959 7.11545 19.0111 7.23673C19.5852 7.34233 20.0723 7.85337 20.0943 8.44569C20.0979 9.11865 20.0953 9.79129 20.0956 10.4643C20.0947 10.9903 19.7247 11.4745 19.2371 11.6537C18.9759 11.7391 18.7225 11.846 18.4655 11.9426C18.4668 12.8108 18.4652 13.6786 18.4665 14.5468C18.7583 14.63 19.0489 14.7174 19.3411 14.8003C19.9711 14.9593 20.5606 15.3689 20.846 15.9634C20.9465 16.1734 21.0009 16.4054 21.0003 16.6387C20.9996 17.9078 21.0003 19.1772 20.9999 20.4467C20.9974 20.8812 20.7916 21.3049 20.4636 21.5868C20.1615 21.8505 19.7622 21.9983 19.3615 21.9999C14.2412 22.0006 9.1209 21.9993 4.00058 22.0006C3.99898 16.1174 4.00026 10.2342 3.99994 4.35097C3.99258 3.75577 4.44026 3.21433 5.00602 3.05945ZM7.27866 4.46937C7.0393 4.53945 6.84986 4.76825 6.85082 5.02137C6.84954 5.48217 6.8489 5.94297 6.85114 6.40377C6.85114 6.70841 7.12506 6.96665 7.42394 6.97753C7.60122 6.97881 7.78906 7.00089 7.9545 6.92281C8.1561 6.83353 8.30522 6.62617 8.30554 6.40313C8.30554 5.93369 8.30746 5.46393 8.30458 4.99481C8.29274 4.69081 8.00922 4.44345 7.71066 4.44249C7.56666 4.44505 7.4185 4.42617 7.27866 4.46937ZM9.9673 4.47001C9.72762 4.54041 9.53882 4.77081 9.54202 5.02425C9.5417 5.48409 9.54138 5.94393 9.54234 6.40377C9.54106 6.70617 9.81338 6.96313 10.1094 6.97721C10.2863 6.97913 10.4735 7.00121 10.6393 6.92473C10.8451 6.83769 10.9977 6.62681 10.9958 6.40057C10.9955 5.93145 10.9971 5.46233 10.9951 4.99321C10.9827 4.68921 10.6975 4.44121 10.3987 4.44217C10.255 4.44537 10.1065 4.42585 9.9673 4.47001ZM12.6572 4.47001C12.4185 4.54137 12.2313 4.77081 12.2326 5.02361C12.2316 5.48313 12.231 5.94265 12.2329 6.40217C12.2319 6.70393 12.5011 6.96121 12.7967 6.97689C12.9737 6.97881 13.1606 7.00121 13.3273 6.92729C13.5331 6.83865 13.6876 6.62937 13.6873 6.40185C13.6889 5.96377 13.687 5.52537 13.6883 5.08729C13.7247 4.74777 13.4227 4.43641 13.086 4.44217C12.943 4.44473 12.7958 4.42681 12.6572 4.47001ZM7.33754 18.7343C7.1193 18.7452 6.90842 18.8739 6.80986 19.0703C6.7129 19.2508 6.72634 19.4831 6.84058 19.6527C6.95834 19.8364 7.17722 19.9423 7.39322 19.9379C10.7961 19.9379 14.199 19.9379 17.6019 19.9379C17.8335 19.9443 18.0694 19.8223 18.1814 19.6166C18.2937 19.4207 18.2748 19.1599 18.135 18.9823C18.0047 18.8079 17.7823 18.7203 17.5683 18.7318C14.158 18.7337 10.7475 18.7286 7.33754 18.7343Z" fill="#041E42"/>
</svg>
