<svg width="24" height="24" viewBox="0 0 24 24" fill="none" xmlns="http://www.w3.org/2000/svg">
<path d="M7.94016 1.05921C8.00928 0.973449 8.128 1.00545 8.22368 0.999689C11.1891 1.00033 14.1549 1.00001 17.1206 0.999689C17.2109 0.986569 17.3098 1.05345 17.305 1.15073C17.3072 2.54561 17.3053 3.94081 17.3059 5.33601C17.9792 5.33697 18.6525 5.33441 19.3258 5.33697C19.7942 5.34273 20.2173 5.74273 20.2384 6.21281C20.2426 6.66785 20.2387 7.12289 20.24 7.57793C20.5437 7.58017 20.8477 7.57377 21.1514 7.58081C21.5994 7.60001 21.9958 7.99489 21.9994 8.44705C22.0013 11.3485 21.9997 14.2502 22 17.1517C21.9997 17.4755 21.8061 17.7888 21.5174 17.9354C21.3763 18.0103 21.2154 18.0435 21.0563 18.0403C19.9725 18.0394 18.8883 18.0403 17.8045 18.04C17.705 17.3917 17.6115 16.7424 17.5155 16.0938C17.7302 16.0963 17.9568 16.1085 18.1539 16.0058C18.5123 15.8419 18.7322 15.424 18.6525 15.0358C18.5834 14.6301 18.2042 14.3082 17.7933 14.3027C13.9421 14.3008 10.0906 14.3027 6.23936 14.3018C5.94144 14.2979 5.64672 14.4531 5.4816 14.7018C5.28448 14.9882 5.27968 15.3898 5.47232 15.6797C5.61952 15.9082 5.8736 16.065 6.14464 16.0896C6.25696 16.0979 6.3696 16.0931 6.48224 16.0941C6.3856 16.7427 6.2928 17.392 6.19296 18.04C5.08864 18.0391 3.98432 18.0413 2.88 18.039C2.41184 18.0374 1.99392 17.6214 2.00032 17.1514C1.99968 14.2611 2 11.3709 2 8.48033C1.99392 8.13185 2.21568 7.79553 2.53504 7.65793C2.672 7.59489 2.824 7.57473 2.97376 7.57761C3.2352 7.57857 3.49664 7.57761 3.75808 7.57793C3.75936 7.12193 3.75584 6.66593 3.75936 6.20993C3.78208 5.74113 4.20544 5.34177 4.67296 5.33665C5.34592 5.33473 6.01888 5.33665 6.69184 5.33601C6.6928 4.34593 6.6912 3.35617 6.69248 2.36641C6.68128 2.28769 6.74688 2.23681 6.79584 2.18721C7.17728 1.81121 7.55776 1.43425 7.94016 1.05921ZM8.216 1.29825C8.216 1.69729 8.216 2.09665 8.216 2.49569C7.81088 2.49633 7.40544 2.49569 7 2.49601C7 4.19009 6.99968 5.88417 7.00032 7.57793C10.3334 7.57793 13.6666 7.57793 16.9997 7.57793C17.0003 5.48481 17 3.39137 17 1.29825C14.072 1.29793 11.144 1.29793 8.216 1.29825Z" fill="#041E42"/>
<path d="M5.94657 21.7638C6.28481 19.3897 6.62305 17.0159 6.96097 14.6418C10.3203 14.6418 13.6797 14.6418 17.0387 14.6418C17.3738 17.015 17.7085 19.3878 18.0435 21.7609C18.0816 21.9708 17.9674 22.1948 17.7766 22.2895C17.6454 22.3625 17.4902 22.3471 17.3462 22.3481C13.7834 22.3478 10.2205 22.3478 6.65761 22.3481C6.51073 22.3462 6.35361 22.3647 6.21921 22.2924C6.02593 22.2002 5.90945 21.9746 5.94657 21.7638Z" fill="#0530AD"/>
</svg>
