<svg width="24" height="24" viewBox="0 0 24 24" fill="none" xmlns="http://www.w3.org/2000/svg">
<path d="M11.4186 1.32531C11.5919 1.15301 11.9021 1.15897 12.0661 1.34135C12.5267 1.79959 12.978 2.26654 13.4372 2.72616C13.6329 2.90488 13.6278 3.25131 13.4166 3.41537C12.8878 3.82 12.3548 4.21867 11.8242 4.62009C11.6294 4.77498 11.3155 4.72732 11.1749 4.52249C11.0314 4.3369 11.063 4.04454 11.2473 3.8979C11.4315 3.7508 11.6244 3.6147 11.8109 3.47036C10.2941 3.48731 8.78694 3.91256 7.46765 4.65767C5.86975 5.55904 4.55367 6.95118 3.74762 8.59903C2.9017 10.2996 2.61255 12.2655 2.91453 14.1397C2.97089 14.389 2.77889 14.6552 2.52548 14.6827C2.27757 14.7249 2.02737 14.5301 2.00262 14.2813C1.72493 12.5839 1.89264 10.8169 2.48286 9.20163C3.07583 7.56294 4.10276 6.08464 5.42984 4.95553C7.22524 3.41674 9.57375 2.54378 11.9383 2.53508C11.7655 2.33895 11.5722 2.16207 11.393 1.97189C11.2216 1.7973 11.2367 1.48707 11.4186 1.32531Z" fill="#0530AD"/>
<path d="M15.0361 3.42328C15.136 3.21341 15.4064 3.10847 15.6209 3.20287C17.2953 3.83891 18.7928 4.93229 19.9105 6.33177C21.0941 7.80457 21.8507 9.61555 22.067 11.493C22.3218 13.6215 21.869 15.8216 20.81 17.6839C21.0676 17.6202 21.3223 17.5446 21.5817 17.4864C21.8232 17.4286 22.0826 17.6106 22.122 17.853C22.1724 18.0793 22.0193 18.3227 21.7966 18.3822C21.1583 18.55 20.52 18.7177 19.8807 18.8831C19.6264 18.9592 19.3391 18.7681 19.307 18.506C19.2231 17.8465 19.1402 17.1871 19.0614 16.5273C19.0242 16.2638 19.2584 16.0122 19.5214 16.0191C19.7318 16.0154 19.9343 16.1749 19.9724 16.3829C20.0122 16.624 20.0324 16.8677 20.0667 17.1097C20.9919 15.4412 21.3723 13.479 21.1436 11.5851C20.936 9.79977 20.1873 8.08226 19.0229 6.71303C18.0285 5.53763 16.7339 4.61885 15.296 4.06895C15.0389 3.98693 14.9051 3.66066 15.0361 3.42328Z" fill="#0530AD"/>
<path d="M10.8647 5.83119C11.6258 5.83165 12.3865 5.83073 13.1472 5.83119C13.1495 6.21336 13.1436 6.59554 13.1509 6.97772C13.8887 7.12435 14.5971 7.41763 15.2226 7.83601C15.4971 7.57114 15.7551 7.28886 16.0351 7.02996C16.5689 7.57114 17.1124 8.10225 17.6444 8.64527C17.3732 8.91289 17.1046 9.18371 16.8352 9.45316C17.254 10.0796 17.5473 10.7889 17.6953 11.5276C18.0761 11.5281 18.4574 11.5276 18.8382 11.5281C18.834 12.2897 18.8469 13.0518 18.8317 13.8134C18.4532 13.8074 18.0747 13.812 17.6962 13.8106C17.5473 14.5516 17.2513 15.2605 16.8343 15.891C17.1101 16.1513 17.369 16.4286 17.6444 16.6898C17.1106 17.2337 16.5676 17.7685 16.03 18.3083C15.7606 18.0384 15.4907 17.7694 15.2217 17.4995C14.593 17.9169 13.8832 18.2116 13.1431 18.3592C13.1403 18.7409 13.1422 19.1226 13.1422 19.5038C12.3819 19.5043 11.6222 19.5043 10.8624 19.5038C10.8619 19.1226 10.8624 18.7413 10.8619 18.3596C10.1228 18.2107 9.41252 17.9188 8.7861 17.4995C8.51436 17.7676 8.24812 18.0407 7.97821 18.3097C7.43932 17.7726 6.90317 17.2328 6.36336 16.6966C6.63051 16.4226 6.90409 16.1554 7.17308 15.8837C6.75287 15.2573 6.46051 14.547 6.31203 13.8079C5.93581 13.8047 5.55914 13.8129 5.18292 13.8047C5.15084 13.7432 5.17513 13.6626 5.16734 13.5948C5.16963 12.906 5.16734 12.2168 5.16871 11.5281C5.54951 11.5276 5.93077 11.5281 6.31203 11.5276C6.45913 10.7876 6.7547 10.0787 7.17216 9.44995C6.9018 9.18096 6.63326 8.91105 6.36336 8.64206C6.8995 8.10133 7.43977 7.56519 7.9773 7.02583C8.24903 7.29482 8.51757 7.56656 8.78885 7.83601C9.4116 7.41855 10.1168 7.13169 10.8496 6.97634C10.8858 6.60058 10.8542 6.21199 10.8647 5.83119ZM11.5727 9.1388C10.4262 9.27078 9.37174 10.0026 8.84842 11.0309C8.46899 11.7563 8.35352 12.6155 8.52857 13.4151C8.70132 14.2313 9.17377 14.9805 9.83777 15.4864C10.4413 15.9529 11.1983 16.215 11.9613 16.2224C12.7298 16.2334 13.4987 15.9854 14.1155 15.5272C14.7703 15.0465 15.2496 14.3339 15.4481 13.5462C15.6492 12.7686 15.5727 11.9236 15.2382 11.1931C14.9619 10.5827 14.5068 10.0553 13.945 9.69007C13.2517 9.23503 12.3957 9.03615 11.5727 9.1388Z" fill="#041E42"/>
<path d="M2.68589 16.3648C2.75508 16.1165 3.05798 15.9721 3.29444 16.0761C3.86403 16.3121 4.42997 16.5577 4.99911 16.7951C5.1934 16.8565 5.39091 16.9935 5.41107 17.2135C5.46743 17.5169 5.15766 17.8074 4.85888 17.7299C4.60777 17.6475 4.37223 17.5242 4.12478 17.4307C5.15216 19.1436 6.75923 20.4982 8.61787 21.2277C10.2666 21.8835 12.1069 22.0443 13.8446 21.6869C15.2688 21.3968 16.6234 20.7654 17.7557 19.8534C17.9065 19.6986 18.1562 19.6427 18.3464 19.76C18.6127 19.9052 18.6548 20.319 18.4142 20.5078C17.0537 21.6291 15.3912 22.3779 13.6521 22.6643C11.8164 22.9704 9.89729 22.756 8.17475 22.0503C6.13097 21.2227 4.37589 19.7045 3.26511 17.7996C3.15467 18.0516 3.12259 18.3293 3.02636 18.5864C2.93334 18.8274 2.61623 18.9392 2.39169 18.8128C2.19556 18.7152 2.09338 18.4709 2.16395 18.2629C2.33762 17.63 2.50946 16.9967 2.68589 16.3648Z" fill="#0530AD"/>
</svg>
