<svg width="24" height="24" viewBox="0 0 24 24" fill="none" xmlns="http://www.w3.org/2000/svg">
<path d="M7.33409 2.33566C7.32705 2.16222 7.47681 2.00574 7.64897 1.99966C7.83361 1.98526 8.00737 2.14974 7.99937 2.33534C8.00097 2.96446 7.99937 3.59326 8.00001 4.22206C8.74081 4.22174 9.48129 4.22206 10.2221 4.22206C10.2224 3.59294 10.2211 2.96414 10.2224 2.33502C10.2167 2.15454 10.3789 1.99262 10.5597 1.99934C10.7376 1.9971 10.8967 2.15902 10.888 2.33726C10.888 2.96542 10.8883 3.59326 10.8874 4.22142C11.6291 4.2227 12.3706 4.22206 13.1123 4.22174C13.1117 3.59326 13.1117 2.96478 13.1123 2.33598C13.1018 2.14686 13.2829 1.98238 13.4691 2.0003C13.6397 2.00894 13.7827 2.16574 13.7776 2.33598C13.7786 2.96446 13.7773 3.59326 13.7783 4.22206C14.5187 4.22206 15.2592 4.22206 16 4.22206C16.0003 3.59326 15.9994 2.96414 16.0003 2.33534C15.9939 2.1603 16.1475 2.00126 16.3223 1.99998C16.505 1.98814 16.6739 2.1523 16.6656 2.33566C16.6666 2.96446 16.6656 3.59326 16.6663 4.22206C16.9472 4.2259 17.2301 4.20766 17.5091 4.25182C18.1667 4.34718 18.7799 4.70334 19.1933 5.2227C19.5482 5.66302 19.7562 6.2195 19.7757 6.78462C19.7808 6.96766 19.7767 7.1507 19.7783 7.33374C20.4074 7.33438 21.0368 7.33342 21.6663 7.33438C21.8387 7.32798 21.9939 7.4771 22 7.64862C22.0147 7.83326 21.8506 8.00734 21.665 7.99934C21.0359 8.00094 20.4071 7.99934 19.7779 7.99998C19.7779 8.74078 19.7779 9.48126 19.7779 10.2217C20.4067 10.2227 21.0355 10.2211 21.6643 10.2224C21.8349 10.2173 21.9907 10.3606 21.9997 10.5309C22.0189 10.7174 21.8535 10.8957 21.6656 10.8877C21.0365 10.8883 20.4074 10.888 19.7783 10.8877C19.7779 11.6294 19.7776 12.3709 19.7786 13.1123C20.4071 13.1117 21.0355 13.1117 21.6643 13.1123C21.8528 13.1021 22.017 13.2822 21.9997 13.4681C21.9917 13.6387 21.8349 13.7824 21.6647 13.7776C21.0359 13.7785 20.4071 13.7776 19.7783 13.7779C19.7779 14.5187 19.7783 15.2592 19.7779 16C20.4067 16.0006 21.0355 15.9993 21.6643 16.0003C21.8384 15.9939 21.9968 16.1456 22 16.3193C22.0131 16.5027 21.849 16.6736 21.665 16.6656C21.0362 16.6665 20.4071 16.6653 19.7783 16.6662C19.7741 16.9401 19.7917 17.2163 19.7514 17.4886C19.6723 18.0553 19.4029 18.5939 18.9962 18.9968C18.5978 19.3987 18.0672 19.6662 17.5072 19.7485C17.2288 19.7923 16.9466 19.7741 16.6663 19.7779C16.6653 20.4077 16.6666 21.0374 16.6656 21.6669C16.6727 21.8505 16.5024 22.0115 16.3203 22.0003C16.1466 21.9968 15.9936 21.8393 16.0007 21.6649C15.9987 21.0358 16.0007 20.407 16 19.7779C15.2592 19.7779 14.5187 19.7779 13.7779 19.7779C13.7773 20.4073 13.7789 21.0365 13.7773 21.6656C13.7831 21.8461 13.6205 22.0073 13.44 22.0006C13.2621 22.0029 13.1037 21.8409 13.112 21.663C13.1117 21.0345 13.112 20.4064 13.1123 19.7782C12.3709 19.7776 11.6295 19.7779 10.888 19.7782C10.8887 20.3853 10.8871 20.9923 10.8887 21.5997C10.8928 21.6989 10.8807 21.8067 10.8096 21.8825C10.6963 22.0224 10.4672 22.0403 10.3351 21.9171C10.2631 21.8541 10.2215 21.759 10.2224 21.6637C10.2215 21.0352 10.2227 20.4064 10.2218 19.7779C9.48129 19.7779 8.74081 19.7779 8.00001 19.7779C7.99809 20.4185 8.00385 21.0595 7.99745 21.6998C7.98625 21.927 7.70721 22.0765 7.51073 21.9619C7.37761 21.8957 7.31777 21.7411 7.33345 21.5987C7.33473 20.9917 7.33377 20.3849 7.33377 19.7779C7.06657 19.7741 6.79809 19.791 6.53249 19.7542C5.96513 19.6797 5.42433 19.4147 5.01857 19.0112C4.60833 18.6112 4.33441 18.0742 4.25153 17.5072C4.20769 17.2288 4.22561 16.9465 4.22177 16.6662C3.59297 16.6656 2.96417 16.6665 2.33505 16.6656C2.15137 16.6736 1.98913 16.5043 1.99969 16.3219C2.00193 16.1478 2.15937 15.9939 2.33441 16.0006C2.96353 15.9987 3.59265 16.0006 4.22209 16C4.22177 15.2592 4.22209 14.5187 4.22177 13.7779C3.59329 13.7776 2.96449 13.7789 2.33569 13.7776C2.16577 13.7827 2.00993 13.6403 2.00065 13.4704C1.97985 13.2825 2.14753 13.1027 2.33665 13.112C2.96513 13.1117 3.59329 13.112 4.22177 13.112C4.22209 12.3705 4.22209 11.6291 4.22177 10.888C3.61377 10.8886 3.00609 10.887 2.39809 10.8886C2.29921 10.8931 2.19233 10.8797 2.11713 10.8093C1.97761 10.6957 1.95969 10.4672 2.08289 10.335C2.14497 10.2633 2.23937 10.2217 2.33409 10.2224C2.96321 10.2214 3.59265 10.2227 4.22209 10.2217C4.22209 9.48126 4.22177 8.74078 4.22209 7.99998C3.59297 7.99934 2.96353 8.00094 2.33441 7.99934C2.16001 8.00542 2.00193 7.85278 2.00001 7.6787C1.98785 7.49598 2.15137 7.32638 2.33473 7.33438C2.96385 7.33342 3.59297 7.33438 4.22177 7.33374C4.22593 7.06622 4.20897 6.7971 4.24609 6.53086C4.32161 5.95678 4.59233 5.41054 5.00385 5.00318C5.40225 4.60126 5.93345 4.33342 6.49345 4.25118C6.77153 4.20766 7.05377 4.2259 7.33377 4.22206C7.33441 3.59326 7.33345 2.96414 7.33409 2.33566ZM15.8839 6.67134C15.3623 6.71006 14.8893 7.08766 14.7322 7.5859C14.6071 7.96446 14.6631 8.39902 14.8851 8.73118C15.0845 9.03742 15.4151 9.25566 15.7763 9.31454C16.1271 9.37534 16.5014 9.28862 16.7872 9.07614C17.1174 8.8371 17.3271 8.43966 17.3328 8.03134C17.3456 7.63326 17.1658 7.2355 16.8595 6.9811C16.593 6.75262 16.2333 6.63998 15.8839 6.67134Z" fill="#041E42"/>
</svg>
