<svg width="24" height="24" viewBox="0 0 24 24" fill="none" xmlns="http://www.w3.org/2000/svg">
<path d="M10.744 2.04163C10.871 2.00003 11.0061 1.99747 11.1385 1.99971C11.7661 2.00131 12.3936 1.99779 13.0211 2.00131C13.4944 2.01091 13.9085 2.43747 13.9021 2.91107C13.8896 3.31107 14.1597 3.69859 14.5417 3.81955C15.0352 3.97379 15.5139 4.17251 15.9718 4.41251C16.2496 4.55907 16.6006 4.54883 16.871 4.39011C17.0259 4.30467 17.1286 4.14915 17.2902 4.07299C17.6329 3.88483 18.0918 3.95107 18.3667 4.22915C18.8406 4.70307 19.3155 5.17571 19.7878 5.65123C20.1165 5.98883 20.1113 6.58019 19.7776 6.91299C19.4553 7.20803 19.3904 7.72451 19.6198 8.09443C19.8118 8.46403 19.9741 8.84899 20.1091 9.24291C20.1616 9.39459 20.1981 9.55619 20.2944 9.68803C20.4685 9.94787 20.7789 10.1037 21.0905 10.096C21.5638 10.0906 21.9904 10.5053 21.999 10.9786C22.0009 11.6589 22.0006 12.3396 21.999 13.0202C21.9904 13.4944 21.5635 13.9114 21.088 13.9037C20.6665 13.881 20.2624 14.1834 20.1638 14.5933C20.023 15.0378 19.8448 15.4704 19.6313 15.8848C19.5648 16.0103 19.5046 16.1424 19.4905 16.2855C19.4512 16.5796 19.5657 16.8839 19.7805 17.0871C20.1133 17.4202 20.1168 18.0106 19.7885 18.3482C19.3097 18.8295 18.8297 19.3092 18.3488 19.7879C18.0054 20.1223 17.4019 20.1095 17.0713 19.7629C16.7936 19.472 16.3238 19.3972 15.9693 19.5872C15.5065 19.8317 15.0201 20.0295 14.5213 20.1872C14.2137 20.2944 13.9766 20.576 13.9206 20.8967C13.8957 21.024 13.9139 21.1562 13.8819 21.2826C13.7929 21.6996 13.3872 22.0173 12.9603 22.0004C12.2992 21.9988 11.6381 22.0023 10.9773 21.9988C10.504 21.9888 10.0912 21.562 10.0969 21.0887C10.1091 20.6976 9.8515 20.3165 9.48062 20.1888C9.21886 20.104 8.95966 20.0112 8.70558 19.9053C9.21054 19.353 9.71134 18.7972 10.2169 18.2455C11.3869 18.585 12.6525 18.5844 13.8224 18.2455C15 17.9092 16.0761 17.2301 16.8886 16.3143C17.6515 15.4592 18.1811 14.3991 18.407 13.2756C18.6717 11.9808 18.5277 10.6068 18.0009 9.39491C17.3485 7.87235 16.0905 6.62243 14.5629 5.98211C13.3885 5.48163 12.0649 5.33923 10.8109 5.57795C9.70878 5.78435 8.66334 6.28227 7.80862 7.00771C6.93182 7.74723 6.25758 8.72355 5.87614 9.80515C5.42206 11.0765 5.38014 12.4893 5.7555 13.786C5.20254 14.2893 4.6499 14.793 4.09566 15.2951C3.9923 15.048 3.90078 14.7962 3.81982 14.5412C3.7235 14.2448 3.4675 14.0096 3.16574 13.9341C2.99646 13.8868 2.81502 13.9236 2.6483 13.8631C2.27486 13.7511 1.99774 13.3828 2.0003 12.9917C2.00062 12.3207 1.99806 11.6493 2.00126 10.9783C2.01118 10.5044 2.4387 10.0906 2.91294 10.098C3.23198 10.1044 3.5491 9.93859 3.71902 9.66755C3.80414 9.53987 3.8403 9.38915 3.88926 9.24547C4.03102 8.82723 4.20638 8.42083 4.4115 8.02979C4.5587 7.75171 4.54942 7.40035 4.39102 7.12899C4.3059 6.97347 4.15006 6.87139 4.0739 6.70979C3.88478 6.36739 3.9507 5.91011 4.22654 5.63363C4.6883 5.16771 5.15294 4.70499 5.61726 4.24195C5.81086 4.04483 6.09438 3.94051 6.36926 3.97059C6.58814 3.99011 6.79454 4.09539 6.94718 4.25219C7.21886 4.52451 7.6659 4.59555 8.00862 4.42115C8.4787 4.17475 8.97086 3.96963 9.47806 3.81283C9.76702 3.71811 9.9971 3.46787 10.0681 3.17251C10.1117 3.01539 10.0784 2.84867 10.1245 2.69219C10.2013 2.38819 10.4435 2.13251 10.744 2.04163Z" fill="#041E42"/>
<path d="M9.82846 8.64408C10.7632 8.03128 11.9593 7.84216 13.0381 8.13464C12.3411 8.83416 11.6419 9.53112 10.944 10.23C11.8867 11.1727 12.8297 12.1158 13.7728 13.0588C14.4717 12.3612 15.1683 11.662 15.8678 10.965C16.1747 12.095 15.9504 13.3535 15.2688 14.3062C14.6534 15.1846 13.6697 15.7926 12.6086 15.9506C11.9008 16.0601 11.1645 15.9737 10.5005 15.7046C8.85087 17.5148 7.20478 19.3279 5.55614 21.1391C5.22366 21.4994 4.74782 21.7218 4.25822 21.7452C3.74142 21.7743 3.2163 21.581 2.84382 21.2214C2.53118 20.926 2.3251 20.5212 2.2691 20.095C2.19838 19.5897 2.3443 19.0594 2.66142 18.6601C2.77662 18.5097 2.92318 18.3884 3.06206 18.2607C4.80702 16.6745 6.55294 15.0892 8.2979 13.503C7.97022 12.6959 7.91518 11.7814 8.14782 10.9417C8.40126 10.0041 9.01246 9.17016 9.82846 8.64408ZM4.01438 19.055C3.75582 19.1282 3.54622 19.3513 3.49214 19.615C3.44286 19.8303 3.49822 20.0655 3.63518 20.2386C3.79998 20.4524 4.08638 20.5634 4.3523 20.5142C4.64606 20.4674 4.89662 20.2287 4.9571 19.9375C5.0227 19.6553 4.90622 19.3407 4.67006 19.1718C4.4851 19.0338 4.2355 18.989 4.01438 19.055Z" fill="#0530AD"/>
</svg>
