<svg width="24" height="24" viewBox="0 0 24 24" fill="none" xmlns="http://www.w3.org/2000/svg">
<path d="M2.99983 11.9998L2.04883 10.9998C2.51683 6.28283 6.26283 2.52983 10.9768 2.05183L11.9998 2.99983L12.9998 2.04883C17.7238 2.51783 21.4808 6.27483 21.9508 10.9998L20.9998 11.9998L21.9508 12.9998C21.4818 17.7238 17.7248 21.4808 12.9998 21.9508L11.9998 20.9998L10.9998 21.9508C6.27583 21.4818 2.51783 17.7238 2.04883 12.9998L2.99983 11.9998Z" fill="#041E42"/>
<path d="M12 5C12.5523 5 13 4.55228 13 4C13 3.44772 12.5523 3 12 3C11.4477 3 11 3.44772 11 4C11 4.55228 11.4477 5 12 5Z" fill="#FDFDFD"/>
<path d="M12 14.0002C11.744 14.0002 11.488 13.9022 11.293 13.7072L8.29301 10.7072C7.90201 10.3162 7.90201 9.68425 8.29301 9.29325C8.68401 8.90225 9.31601 8.90225 9.70701 9.29325L12 11.5863L20.293 3.29325C20.684 2.90225 21.316 2.90225 21.707 3.29325C22.098 3.68425 22.098 4.31625 21.707 4.70725L12.707 13.7072C12.512 13.9022 12.256 14.0002 12 14.0002Z" fill="#0530AD"/>
<path d="M13 2.05V4H11V2.05C11.33 2.02 11.66 2 12 2C12.34 2 12.67 2.02 13 2.05Z" fill="#FDFDFD"/>
<path d="M4 13C4.55228 13 5 12.5523 5 12C5 11.4477 4.55228 11 4 11C3.44772 11 3 11.4477 3 12C3 12.5523 3.44772 13 4 13Z" fill="#FDFDFD"/>
<path d="M2.05 11H4V13H2.05C2.02 12.67 2 12.34 2 12C2 11.66 2.02 11.33 2.05 11Z" fill="#FDFDFD"/>
<path d="M12 21C12.5523 21 13 20.5523 13 20C13 19.4477 12.5523 19 12 19C11.4477 19 11 19.4477 11 20C11 20.5523 11.4477 21 12 21Z" fill="#FDFDFD"/>
<path d="M11 21.95V20H13V21.95C12.67 21.98 12.34 22 12 22C11.66 22 11.33 21.98 11 21.95Z" fill="#FDFDFD"/>
<path d="M20 13C20.5523 13 21 12.5523 21 12C21 11.4477 20.5523 11 20 11C19.4477 11 19 11.4477 19 12C19 12.5523 19.4477 13 20 13Z" fill="#FDFDFD"/>
<path d="M21.95 13H20V11H21.95C21.98 11.33 22 11.66 22 12C22 12.34 21.98 12.67 21.95 13Z" fill="#FDFDFD"/>
</svg>
