<svg width="24" height="24" viewBox="0 0 24 24" fill="none" xmlns="http://www.w3.org/2000/svg">
<path d="M7.35836 2.46133C7.84611 2.37619 8.36341 2.43354 8.808 2.65879C9.42226 2.95557 9.89286 3.53555 10.046 4.20124C10.1666 4.72683 10.111 5.29616 9.8633 5.7774C9.4938 6.52468 8.69744 7.03785 7.86266 7.05617C6.95693 7.09401 6.06008 6.54478 5.68821 5.7165C5.41803 5.14067 5.40147 4.45192 5.64387 3.86367C5.93178 3.14772 6.59866 2.60026 7.35836 2.46133Z" fill="#0530AD"/>
<path d="M15.4572 2.51591C15.9437 2.39412 16.4705 2.429 16.9328 2.62764C17.5157 2.86945 17.9881 3.36192 18.2057 3.95431C18.4404 4.57744 18.3895 5.30344 18.0632 5.88459C17.7617 6.43264 17.2296 6.84767 16.6242 7.00552C16.0791 7.148 15.4808 7.0877 14.9795 6.82757C14.3877 6.52901 13.9372 5.965 13.7811 5.32058C13.6611 4.81629 13.7054 4.2706 13.9236 3.79882C14.205 3.16741 14.7867 2.68322 15.4572 2.51591Z" fill="#0530AD"/>
<path d="M11.0879 3.67853C11.688 3.67676 12.2886 3.68031 12.8893 3.67676C12.7119 4.21594 12.6617 4.7965 12.764 5.35578C12.2437 5.35874 11.7228 5.3546 11.2026 5.35815C11.3049 4.79887 11.2635 4.21889 11.0879 3.67853Z" fill="#041E42"/>
<path d="M17.832 7.25335C18.3612 7.04406 18.8341 6.69998 19.1989 6.26367C19.543 6.84956 19.8758 7.44194 20.2217 8.02665C19.673 8.16913 19.1599 8.44285 18.7425 8.82655C18.4357 8.30392 18.1335 7.77834 17.832 7.25335Z" fill="#041E42"/>
<path d="M5.32618 7.07031C5.71933 7.48179 6.21122 7.79454 6.75158 7.97367C6.45716 8.46437 6.18166 8.9669 5.88724 9.45819C5.48226 9.06326 4.97915 8.77594 4.43701 8.61631C4.73025 8.09901 5.03235 7.58762 5.32618 7.07031Z" fill="#041E42"/>
<path d="M10.1549 7.52185C10.7568 7.26645 11.4124 7.14348 12.0657 7.15176C12.0793 7.60048 12.1012 8.04921 12.1313 8.49734C12.5074 8.57301 12.8834 8.64928 13.2588 8.73028C13.4592 8.32766 13.6543 7.92328 13.8529 7.52008C14.4554 7.76602 15.0016 8.14025 15.4587 8.60317C15.1577 8.93779 14.8538 9.27005 14.5529 9.60585C14.7711 9.92451 14.9798 10.2491 15.1932 10.5701C15.6153 10.4205 16.0434 10.2863 16.4631 10.1285C16.7138 10.7315 16.8421 11.386 16.8285 12.0398C16.3803 12.0528 15.9322 12.0777 15.4853 12.1037C15.4184 12.4791 15.3215 12.8492 15.2624 13.2264C15.6508 13.4505 16.067 13.6225 16.4643 13.8306C16.213 14.4301 15.8423 14.977 15.3794 15.4334C15.0448 15.1318 14.7125 14.828 14.3773 14.5282C14.064 14.7482 13.7317 14.9397 13.4243 15.1673C13.5455 15.5989 13.7164 16.0157 13.847 16.4455C13.2434 16.6844 12.5954 16.815 11.9451 16.805C11.9274 16.3562 11.9079 15.9075 11.8777 15.4594C11.5011 15.3843 11.1251 15.3074 10.7503 15.2264C10.5493 15.6291 10.3512 16.0334 10.1561 16.439C9.55487 16.1889 9.00624 15.8176 8.54864 15.3535C8.85311 15.0219 9.15108 14.6843 9.45555 14.352C9.23917 14.0328 9.02929 13.71 8.81764 13.3878C8.39079 13.5303 7.9669 13.6816 7.53946 13.8217C7.29647 13.2205 7.16759 12.5737 7.17645 11.9246C7.62577 11.895 8.07568 11.8844 8.5244 11.8524C8.57939 11.4723 8.71241 11.0963 8.73192 10.7155C8.34231 10.5074 7.93852 10.3283 7.54537 10.1273C7.7919 9.52426 8.16909 8.98095 8.62845 8.52158C8.96189 8.82546 9.29533 9.12934 9.63291 9.42908C9.95098 9.2127 10.275 9.004 10.5942 8.7894C10.4464 8.36728 10.311 7.94043 10.1549 7.52185ZM11.6584 9.74301C11.0926 9.8311 10.5641 10.1391 10.2164 10.5949C9.84043 11.0797 9.66898 11.7212 9.77066 12.3278C9.86407 12.9397 10.2212 13.5054 10.7361 13.8495C11.2977 14.2374 12.0409 14.3467 12.69 14.1327C13.5887 13.8608 14.2502 12.9781 14.2662 12.0398C14.2857 11.3434 13.9653 10.6452 13.4166 10.2142C12.9307 9.82105 12.2762 9.64251 11.6584 9.74301Z" fill="#041E42"/>
<path d="M3.04489 9.61544C4.08955 9.37778 5.23826 9.97726 5.64678 10.9652C5.88681 11.5162 5.89923 12.1612 5.68166 12.7216C5.46646 13.2803 5.02543 13.748 4.47974 13.9951C3.90273 14.2623 3.21397 14.2735 2.62868 14.0258C1.98604 13.7627 1.47465 13.1952 1.2896 12.5248C1.1081 11.901 1.20506 11.2016 1.55446 10.653C1.88258 10.1239 2.43476 9.74137 3.04489 9.61544Z" fill="#0530AD"/>
<path d="M19.957 9.73322C20.5115 9.60375 21.1128 9.6877 21.6088 9.96793C22.1379 10.2576 22.5406 10.7661 22.7079 11.3449C22.8793 11.9272 22.8096 12.5763 22.5145 13.1066C22.2024 13.6807 21.6366 14.1111 20.9987 14.2524C20.3289 14.412 19.5934 14.2441 19.0536 13.819C18.4335 13.3408 18.0876 12.5349 18.1757 11.7557C18.2561 10.7915 19.0152 9.94074 19.957 9.73322Z" fill="#0530AD"/>
<path d="M4.4353 15.1573C4.98158 14.9989 5.47996 14.7033 5.89381 14.3154C6.21306 14.8729 6.53231 15.4304 6.85806 15.985C6.31533 16.1505 5.8134 16.4408 5.40665 16.8363C5.08031 16.2782 4.76047 15.716 4.4353 15.1573Z" fill="#041E42"/>
<path d="M18.0994 14.4131C18.5109 14.8027 19.0075 15.1024 19.5538 15.2591C19.2251 15.8367 18.8881 16.4096 18.5588 16.9866C18.1745 16.5645 17.6891 16.2429 17.1553 16.043C17.4775 15.5039 17.789 14.9588 18.0994 14.4131Z" fill="#041E42"/>
<path d="M7.23708 17.0017C7.72482 16.8822 8.25159 16.9248 8.71213 17.1276C9.3932 17.4202 9.9176 18.057 10.0619 18.7859C10.1576 19.2831 10.1015 19.814 9.87503 20.2698C9.61136 20.812 9.12598 21.2406 8.55724 21.4393C8.03284 21.6243 7.44045 21.6137 6.92551 21.4032C6.31894 21.162 5.82528 20.6506 5.60831 20.0351C5.39725 19.4564 5.4339 18.7924 5.70526 18.2391C6.00028 17.6278 6.57552 17.1595 7.23708 17.0017Z" fill="#0530AD"/>
<path d="M15.4555 17.0091C16.0567 16.8512 16.7183 16.9505 17.2468 17.2781C17.7884 17.6068 18.1833 18.1678 18.3063 18.7898C18.4121 19.3201 18.3305 19.8877 18.0698 20.3618C17.8014 20.8525 17.3515 21.2421 16.8253 21.4319C16.2294 21.6506 15.543 21.6092 14.9802 21.316C14.4422 21.0446 14.0195 20.5545 13.8314 19.9822C13.6423 19.4052 13.6848 18.7531 13.9621 18.2116C14.2577 17.6216 14.8164 17.1728 15.4555 17.0091Z" fill="#0530AD"/>
<path d="M11.1149 18.4863C11.6458 18.5011 12.1784 18.5017 12.7099 18.4875C12.6213 19.019 12.6059 19.5653 12.7395 20.0915C12.1879 20.0885 11.6363 20.0861 11.0847 20.0932C11.2171 19.5659 11.2024 19.019 11.1149 18.4863Z" fill="#041E42"/>
<path d="M11.0444 18.4279C11.6209 18.4067 12.1991 18.4102 12.7755 18.4262L12.7099 18.4883C12.1784 18.5024 11.6457 18.5018 11.1148 18.4871L11.0444 18.4279Z" fill="#152532"/>
</svg>
