<svg width="24" height="24" viewBox="0 0 24 24" fill="none" xmlns="http://www.w3.org/2000/svg">
<path d="M5.8294 1.40619C5.88604 1.18123 6.10108 1.00715 6.3334 1.00107C6.61276 0.998195 6.89244 1.00011 7.1718 1.00043C7.3814 1.00011 7.58268 1.13291 7.6662 1.32523C7.72156 1.43499 7.70524 1.56171 7.73084 1.67915C7.77564 1.87531 7.93884 2.02859 8.12956 2.08331C8.35324 2.15467 8.56764 2.32907 8.815 2.25195C9.00796 2.21867 9.10684 2.01931 9.29276 1.97195C9.47036 1.91275 9.6662 1.96395 9.81116 2.07659C9.54908 2.33419 9.29116 2.59563 9.031 2.85483C8.91996 2.96715 8.80124 3.07435 8.711 3.20523C8.53372 3.45227 8.43772 3.75307 8.42716 4.05611C8.063 3.69899 7.58012 3.46603 7.07452 3.40107C6.54012 3.33003 5.983 3.44811 5.52412 3.73067C5.1302 3.97003 4.80988 4.32747 4.61371 4.74411C4.36507 5.26443 4.31771 5.8766 4.48124 6.42923C4.62619 6.93163 4.94364 7.38188 5.36764 7.68812C5.83356 8.02828 6.4262 8.1902 7.0006 8.13036C7.01244 8.49964 6.95516 8.88236 7.08028 9.23851C7.19004 9.57067 7.42044 9.85708 7.71292 10.0472C7.67516 10.2977 7.45724 10.5121 7.20027 10.522C6.92251 10.5262 6.64476 10.5227 6.367 10.5236C6.15516 10.5291 5.94844 10.3992 5.8614 10.2062C5.78428 10.0587 5.83547 9.87948 5.75227 9.73388C5.68124 9.5838 5.53756 9.48204 5.38108 9.43564C5.1958 9.3806 5.03228 9.24428 4.83132 9.2542C4.68156 9.2542 4.54203 9.32684 4.43772 9.43116C4.23899 9.62508 3.89116 9.62187 3.69404 9.42636C3.49052 9.22476 3.28636 9.02316 3.08668 8.81739C2.89564 8.61292 2.90652 8.26252 3.1078 8.06828C3.26492 7.91564 3.31804 7.66668 3.2262 7.46604C3.16284 7.33196 3.10588 7.19531 3.05468 7.05612C2.97276 6.84491 2.75131 6.707 2.52635 6.71244C2.24443 6.70924 1.99804 6.4558 2.0006 6.17452C1.99932 5.89772 1.999 5.62059 2.0006 5.34411C2.00188 5.11979 2.15932 4.91052 2.3702 4.83948C2.45116 4.81035 2.53788 4.81323 2.62204 4.80235C2.81308 4.78092 2.98556 4.64555 3.05468 4.46667C3.1062 4.32811 3.16284 4.19179 3.22556 4.05803C3.3158 3.85611 3.26268 3.60619 3.10588 3.45227C2.8758 3.23467 2.9062 2.83339 3.15132 2.63947C3.33372 2.45995 3.51292 2.27691 3.695 2.09739C3.8518 1.94443 4.10364 1.90667 4.30044 1.99947C4.41532 2.04907 4.48828 2.15883 4.59996 2.21355C4.7446 2.28715 4.9222 2.29003 5.06908 2.22059C5.19004 2.16427 5.31196 2.11051 5.43804 2.06699C5.6054 2.01067 5.73916 1.86891 5.78716 1.69931C5.81468 1.60363 5.80412 1.50219 5.8294 1.40619Z" fill="#0530AD"/>
<path d="M13.4298 1.79472C13.4314 1.38 13.7946 1.012 14.2084 1.00112C14.6356 0.998562 15.0631 0.999521 15.4903 1.0008C15.8298 1.00528 16.1482 1.24624 16.2468 1.57072C16.3044 1.7336 16.2669 1.9128 16.3258 2.07568C16.4033 2.32048 16.602 2.5208 16.8452 2.60272C17.0631 2.67664 17.2711 2.77616 17.4839 2.86256C17.777 2.96336 18.1181 2.87184 18.33 2.64752C18.6372 2.34576 19.1805 2.35184 19.4801 2.6616C19.7687 2.95088 20.058 3.23952 20.3469 3.5288C20.6701 3.8472 20.6445 4.42064 20.3069 4.71952C20.0957 4.94096 20.0359 5.29008 20.1575 5.5704C20.217 5.70384 20.2772 5.83728 20.3297 5.97424C20.386 6.11504 20.425 6.26704 20.5217 6.38768C20.6813 6.60368 20.9498 6.72304 21.2161 6.71632C21.625 6.72304 21.9853 7.0808 21.9981 7.4888C22.0023 7.91536 21.9997 8.34192 21.9994 8.76816C21.9972 9.08272 21.7943 9.3832 21.5041 9.50384C21.3831 9.56144 21.2481 9.56944 21.1165 9.5752C20.8039 9.59216 20.5146 9.80912 20.4077 10.1032C20.346 10.2725 20.282 10.4411 20.2065 10.605C20.0429 10.8901 20.0641 11.2654 20.2717 11.523C19.8148 11.5371 19.3684 11.7118 19.0212 12.0082C17.8001 12.9166 16.5777 13.8232 15.3581 14.7336C15.5732 14.293 15.5725 13.7544 15.3553 13.3147C15.0989 12.7723 14.5207 12.4021 13.9197 12.4002C12.4692 12.3995 11.0186 12.4002 9.56805 12.3998C9.43717 12.3995 9.30693 12.4133 9.17765 12.4318C9.11269 12.2155 9.12901 11.9733 9.24293 11.7758C9.30725 11.6514 9.42469 11.5672 9.49797 11.4491C9.63589 11.2296 9.65861 10.9419 9.55237 10.7051C9.49541 10.5771 9.43781 10.4491 9.38757 10.3182C9.32837 10.1717 9.28901 10.0126 9.18565 9.8888C9.02821 9.6824 8.76997 9.56496 8.51173 9.57008C8.09925 9.56944 7.73125 9.212 7.71621 8.80048C7.71173 8.37328 7.71429 7.94576 7.71493 7.51856C7.71653 7.18384 7.94661 6.86576 8.26437 6.76016C8.42981 6.69456 8.61413 6.73328 8.78181 6.67696C9.02213 6.60336 9.22309 6.41328 9.30885 6.17648C9.37797 5.98256 9.45509 5.7912 9.54213 5.60432C9.68485 5.30736 9.61893 4.9288 9.38565 4.69616C9.16165 4.47792 9.07909 4.13104 9.18117 3.83568C9.22437 3.70192 9.30565 3.58352 9.40741 3.48752C9.69157 3.20624 9.97253 2.92176 10.2564 2.64016C10.4999 2.40912 10.8893 2.35632 11.1873 2.50928C11.2925 2.55696 11.3745 2.63984 11.4596 2.71568C11.682 2.90896 12.0157 2.95952 12.2858 2.84208C12.418 2.78384 12.5492 2.72336 12.6842 2.67184C12.8273 2.61488 12.9809 2.57424 13.1037 2.47728C13.3146 2.31952 13.4349 2.05648 13.4298 1.79472ZM14.4349 4.35632C13.9265 4.41296 13.4295 4.57296 12.9844 4.82512C12.282 5.22096 11.7105 5.84528 11.3818 6.58192C11.0289 7.36144 10.9521 8.26128 11.1668 9.08976C11.3921 9.97776 11.9514 10.7755 12.7098 11.2894C13.3261 11.7118 14.0695 11.9461 14.8167 11.9518C15.5092 11.9608 16.2029 11.7749 16.7981 11.421C17.6775 10.9042 18.3309 10.02 18.5633 9.0264C18.8487 7.86288 18.5383 6.57584 17.7546 5.66992C16.9549 4.71888 15.6692 4.2088 14.4349 4.35632Z" fill="#0530AD"/>
<path d="M19.5296 12.5213C19.8976 12.2128 20.4403 12.1524 20.8784 12.3373C21.224 12.4772 21.5072 12.7668 21.6329 13.1184C21.7964 13.5588 21.7001 14.074 21.4185 14.4448C21.3158 14.5853 21.1779 14.6932 21.0508 14.8103C19.6272 16.1066 18.2035 17.4029 16.7798 18.6992C16.2662 19.168 15.5753 19.4362 14.8799 19.4359C13.1932 19.4352 11.5065 19.4362 9.81979 19.4352C9.85435 19.6055 9.80859 19.7978 9.67003 19.9101C9.12475 20.3469 8.57947 20.7837 8.03387 21.2196C7.85691 21.3703 7.57243 21.3594 7.40667 21.1972C5.94331 19.8666 4.48059 18.5357 3.01691 17.2058C2.91771 17.1146 2.79995 17.0282 2.75963 16.8928C2.69179 16.7044 2.75931 16.4804 2.91867 16.3594C3.45883 15.928 3.99835 15.4957 4.53883 15.0647C4.69211 14.937 4.92731 14.9223 5.09371 15.033C5.21115 15.1181 5.31003 15.2253 5.41915 15.3204C6.48411 14.6749 7.54907 14.0288 8.61403 13.3831C8.90971 13.2052 9.25531 13.1124 9.60027 13.1136C11.0297 13.114 12.4591 13.1136 13.8886 13.1136C14.1715 13.1101 14.4515 13.2471 14.6207 13.474C14.8518 13.7722 14.8687 14.2154 14.6582 14.529C14.5001 14.7757 14.2137 14.9335 13.9206 14.9351C13.4399 14.937 12.9593 14.9344 12.4787 14.936C12.2399 14.9341 12.0195 15.1204 11.9801 15.3552C11.9315 15.5888 12.0729 15.84 12.2937 15.9261C12.4022 15.9719 12.5225 15.9636 12.6377 15.9642C13.2249 15.9629 13.8124 15.9645 14.3996 15.9636C14.7401 15.9629 15.0863 15.8576 15.3462 15.6327C16.7404 14.5952 18.1353 13.5588 19.5296 12.5213Z" fill="#041E42"/>
</svg>
