<svg width="1000" height="1000" viewBox="0 0 1000 1000" fill="none" xmlns="http://www.w3.org/2000/svg">
<path d="M100.055 142.903C99.3229 120.762 118.821 100.621 140.998 100.781C199.975 100.728 258.97 100.71 317.947 100.781C333.339 100.656 348.212 109.924 355.033 123.708C368.479 150.277 381.638 177.007 395.066 203.576C397.494 208.772 403.368 211.254 408.886 210.861C567.283 210.861 725.662 210.844 884.06 210.861C889.077 210.611 894.327 212.558 897.237 216.807C900.898 221.718 899.791 228.181 900.005 233.895C899.898 385.132 900.076 536.369 899.916 687.589C900.058 708.658 881.935 727.764 860.847 728.514C834.707 728.889 808.566 728.567 782.426 728.657C792.621 696.856 798.674 663.68 799.87 630.29C800.317 567.76 780.319 505.318 743.822 454.573C712.681 410.952 669.596 375.99 620.493 354.563C561.801 328.655 494.646 322.388 432.205 337.101C375.585 350.135 323 380.115 282.986 422.236C239.829 467.197 211.456 526.013 202.957 587.758C195.85 635.022 203.082 683.41 217.438 728.657C196.743 728.639 176.048 728.728 155.354 728.639C142.159 728.585 129.088 723.657 119.16 714.979C106.662 704.266 99.5728 687.803 100.037 671.376C100.055 495.212 100.019 319.066 100.055 142.903Z" fill="#041E42"/>
<path d="M388.887 127.422C544.981 127.404 701.092 127.386 857.204 127.422C874.042 126.958 890.469 137.618 896.718 153.277C901.111 163.151 899.772 174.186 899.968 184.685C894.719 183.167 889.326 182.114 883.845 182.274C728.001 182.292 572.157 182.292 416.313 182.274C407.153 164.008 397.993 145.724 388.887 127.422Z" fill="#0530AD"/>
<path d="M465.094 360.135C517.179 353.385 571.246 361.992 618.456 385.097C665.006 407.648 704.734 443.895 731.643 488.052C757.123 529.549 770.961 578.08 771.318 626.773C769.729 688.946 750.82 751.887 711.591 800.829C676.487 845.2 625.991 876.519 571.264 890.286C521.143 903.124 467.522 902.124 417.937 887.251C368.245 872.573 322.713 843.236 290.038 802.865C256.987 762.529 237.774 712.033 231.293 660.555C222.293 598.454 238.417 533.78 272.503 481.41C315.018 415.523 387.208 369.777 465.094 360.135ZM543.337 462.894C517.465 473.75 502.073 503.747 508.055 531.156C477.593 549.243 447.042 567.171 416.545 585.205C399.796 569.724 374.334 564.456 353.068 572.991C329.231 581.759 312.75 606.703 314.071 632.076C314.625 658.074 333.837 682.179 359.014 688.589C378.923 694.231 401.135 688.428 416.384 674.608C446.846 692.838 477.379 710.98 507.733 729.389C505.001 745.584 508.912 762.797 518.804 775.956C534.57 798.026 565.889 806.829 590.798 796.044C616.385 786.08 632.58 757.279 627.759 730.228C623.884 702.82 599.19 680.357 571.531 679.107C551.497 677.625 531.428 687.053 519.214 702.891C490.181 685.625 461.273 668.162 432.24 650.878C437.132 637.468 437.15 622.523 432.383 609.078C461.666 591.758 490.913 574.384 520.179 557.029C529.214 567.742 541.588 575.777 555.444 578.491C576.21 583.044 599.029 575.598 613.153 559.725C632.044 539.53 634.169 506.301 617.974 483.874C602.207 460.322 569.085 451.02 543.337 462.894Z" fill="#0530AD"/>
<path d="M557.818 488.374C568.46 484.857 580.834 487.356 589.226 494.856C599.1 503.319 603.082 518.122 598.029 530.246C593.047 543.584 578.495 552.44 564.353 550.655C550.14 549.369 537.802 537.549 535.82 523.443C533.284 508.408 543.391 492.838 557.818 488.374Z" fill="#0530AD"/>
<path d="M364.959 599.365C375.94 595.722 388.742 598.525 397.152 606.507C406.759 615.292 410.24 630.219 404.794 642.2C399.313 655.574 384.135 664.02 369.851 661.449C356.191 659.467 344.692 647.807 342.925 634.112C340.586 619.184 350.62 603.793 364.959 599.365Z" fill="#0530AD"/>
<path d="M561.623 708.23C578.514 704.48 596.709 716.711 599.637 733.746C603.548 751.405 589.37 769.975 571.497 771.492C554.927 773.796 538.232 761.118 535.857 744.602C532.857 728.103 545.213 711.069 561.623 708.23Z" fill="#0530AD"/>
</svg>
