<svg width="24" height="24" viewBox="0 0 24 24" fill="none" xmlns="http://www.w3.org/2000/svg">
<path d="M3.82683 4.02435C3.92635 4.00931 4.02683 4.00131 4.12731 4.00035C9.36539 3.99971 14.6032 4.00035 19.8412 4.00003C20.2899 3.99779 20.7379 4.13987 21.102 4.40259C21.5657 4.73347 21.8889 5.25411 21.974 5.81795C22.0089 6.02051 21.9987 6.22659 22 6.43107C22 10.0576 22 13.6845 22 17.3114C21.9974 17.5805 22.0153 17.8531 21.9574 18.1184C21.8537 18.6384 21.5488 19.1143 21.1203 19.4266C20.7609 19.6903 20.318 19.8391 19.8723 19.8419C14.6246 19.8419 9.37691 19.8419 4.12923 19.8419C3.62811 19.8391 3.13083 19.6525 2.75195 19.3248C2.34619 18.9811 2.07867 18.4807 2.01595 17.953C1.99611 17.8042 1.99963 17.6538 1.99995 17.504C1.99995 13.7168 1.99995 9.92963 1.99995 6.14275C2.00027 5.58563 2.22715 5.03171 2.62267 4.63875C2.94331 4.31043 3.37339 4.09283 3.82683 4.02435ZM6.28411 8.22179C6.23547 8.45475 6.31547 8.70723 6.48603 8.87235C7.49339 9.87907 8.50011 10.8867 9.50779 11.8935C8.48219 12.921 7.45467 13.9466 6.42843 14.9735C6.24507 15.1536 6.16955 15.4346 6.24379 15.6813C6.31675 15.9536 6.56667 16.1655 6.84667 16.1955C7.07195 16.2256 7.30427 16.1367 7.45947 15.9725C8.65403 14.7767 9.85083 13.5834 11.0438 12.3866C11.3036 12.1223 11.3024 11.6554 11.0361 11.3962C9.85179 10.2119 8.66779 9.02755 7.48347 7.84355C7.31291 7.67523 7.05371 7.60483 6.82107 7.66211C6.55323 7.72227 6.33307 7.95171 6.28411 8.22179ZM12.4921 15.5411C12.28 15.6106 12.104 15.7847 12.0361 15.9981C11.9641 16.2099 12.0009 16.4554 12.1318 16.6368C12.2662 16.8307 12.5011 16.9459 12.7366 16.9399C14.1011 16.9402 15.4659 16.9399 16.8304 16.9402C16.9603 16.9389 17.0937 16.9485 17.2198 16.9101C17.4428 16.8464 17.6281 16.6663 17.6992 16.4455C17.7724 16.2259 17.7305 15.9715 17.5888 15.7885C17.4566 15.6147 17.2428 15.504 17.0236 15.5059C15.6473 15.5059 14.2707 15.5059 12.8944 15.5059C12.76 15.5066 12.6214 15.4954 12.4921 15.5411Z" fill="#041E42"/>
</svg>
