<svg width="24" height="24" viewBox="0 0 24 24" fill="none" xmlns="http://www.w3.org/2000/svg">
<path d="M10.6598 2.13263C11.9155 1.87663 13.2432 1.99407 14.4365 2.46031C15.7238 2.95887 16.8477 3.86095 17.6256 5.00015C18.3834 6.10031 18.8109 7.42287 18.8451 8.75791C17.5002 8.75887 16.1555 8.75663 14.8109 8.75919C14.7664 8.16239 14.5498 7.57551 14.1693 7.11151C13.7645 6.60879 13.176 6.26063 12.5424 6.14159C12.033 6.04271 11.4954 6.07983 11.0102 6.26831C10.1997 6.57711 9.55072 7.26959 9.28192 8.09295C9.12128 8.57615 9.09984 9.10319 9.21408 9.59919C9.3664 10.283 9.78208 10.9025 10.3539 11.3064C10.7706 11.6046 11.271 11.7813 11.7814 11.8194C11.7824 13.1826 11.7821 14.5457 11.7818 15.9093C10.4752 15.8747 9.184 15.4478 8.11104 14.7022C6.73024 13.7518 5.71584 12.2856 5.31584 10.6574C4.98112 9.31855 5.05056 7.87983 5.52736 6.58383C5.93344 5.46895 6.6304 4.46319 7.52672 3.68623C8.41568 2.91279 9.50336 2.36559 10.6598 2.13263Z" fill="#0530AD"/>
<path d="M2.23766 6.07296C2.34742 6.01568 2.47446 6.03456 2.59318 6.03168C3.28694 6.03072 3.98103 6.03456 4.67511 6.03008C4.55607 6.3632 4.43703 6.69728 4.35447 7.04192C4.10806 7.04352 3.86134 7.03968 3.61494 7.0432C3.46902 7.0448 3.3311 7.1392 3.27382 7.27264C3.22998 7.37056 3.24374 7.48 3.24182 7.584C3.24278 10.8595 3.24054 14.135 3.24278 17.4106C3.2383 17.6234 3.43702 17.808 3.64822 17.7923C9.21623 17.7917 14.7842 17.792 20.3522 17.7923C20.51 17.8022 20.6658 17.705 20.726 17.559C20.7698 17.4614 20.7554 17.3517 20.758 17.248C20.757 13.9722 20.7593 10.6966 20.757 7.4208C20.7596 7.2224 20.5845 7.04288 20.3858 7.0432C20.1263 7.04032 19.8671 7.04192 19.6079 7.0432C19.5164 6.68928 19.4085 6.33952 19.2732 6C20.0492 6.00384 20.8255 6.00704 21.6012 6.03232C21.822 6.03712 22.0098 6.24224 21.9999 6.46208C22.0002 10.8787 21.9999 15.2954 21.9999 19.7123C21.9967 19.8333 22.0162 19.9622 21.9621 20.0755C21.8946 20.2253 21.7346 20.3254 21.5701 20.3197C15.1909 20.32 8.81175 20.3203 2.43254 20.3197C2.2671 20.3261 2.10518 20.2266 2.03766 20.0758C1.98358 19.9616 2.00278 19.8323 1.99958 19.7107C1.9999 15.2947 1.99958 10.8787 1.9999 6.46272C1.99478 6.3008 2.0911 6.14208 2.23766 6.07296ZM11.7253 17.9078C11.494 17.9571 11.278 18.0803 11.1241 18.2608C10.7423 18.7037 10.7509 19.4304 11.1487 19.8605C11.4505 20.191 11.9561 20.2954 12.374 20.1494C12.6716 20.0531 12.9167 19.8173 13.0322 19.5277C13.2213 19.073 13.1228 18.4979 12.7516 18.1635C12.4783 17.9184 12.0815 17.8256 11.7253 17.9078ZM15.7916 18.7421C15.6085 18.8029 15.4937 19.0118 15.5426 19.1987C15.5839 19.3955 15.8009 19.544 15.9989 19.4877C16.1932 19.4416 16.3269 19.2298 16.2831 19.0342C16.2476 18.8179 16.0005 18.6595 15.7916 18.7421ZM14.1897 18.7709C14.0245 18.8246 13.9097 18.9974 13.9253 19.1706C13.9359 19.3642 14.1074 19.5325 14.3023 19.5347C14.5234 19.5347 14.7113 19.319 14.6805 19.1002C14.6639 18.8714 14.4101 18.6874 14.1897 18.7709Z" fill="#041E42"/>
<path d="M11.5678 6.51971C12.1422 6.41891 12.7521 6.53571 13.2468 6.84547C13.6936 7.12099 14.0472 7.54339 14.2408 8.03107C14.458 8.57187 14.4772 9.18979 14.2926 9.74243C14.1393 10.2083 13.8427 10.6256 13.4536 10.9235C13.0401 11.2432 12.522 11.4259 11.9992 11.4282C11.4574 11.4355 10.9176 11.249 10.492 10.9152C10.0436 10.5667 9.72205 10.0592 9.59917 9.50499C9.48077 8.98243 9.53709 8.42211 9.75757 7.93379C10.0814 7.20387 10.7784 6.65123 11.5678 6.51971ZM11.6929 7.47715C11.1601 7.57795 10.706 7.99491 10.5531 8.51395C10.4174 8.95107 10.4939 9.44771 10.7579 9.82179C10.9969 10.1677 11.387 10.4061 11.8056 10.4535C12.1918 10.5018 12.5947 10.3869 12.8974 10.1427C13.2555 9.86307 13.4708 9.41347 13.4699 8.95939C13.474 8.51107 13.2641 8.06723 12.9156 7.78531C12.5816 7.50627 12.1195 7.39075 11.6929 7.47715Z" fill="#041E42"/>
<path d="M14.8095 9.15608C16.1558 9.15544 17.502 9.1564 18.8483 9.15576C18.8153 10.4079 18.4371 11.6492 17.7631 12.7055C17.1513 13.6716 16.2982 14.4847 15.3007 15.0444C14.3503 15.5807 13.2687 15.8799 12.1782 15.9103C12.1779 14.5465 12.1772 13.1826 12.1785 11.8188C12.8505 11.7724 13.4995 11.4732 13.9734 10.9951C14.4623 10.5094 14.7631 9.84312 14.8095 9.15608Z" fill="#0530AD"/>
<path d="M11.8783 18.7289C12.0892 18.6502 12.3256 18.8288 12.3557 19.0412C12.4005 19.262 12.2223 19.4918 11.9986 19.5068C11.7976 19.51 11.6181 19.3347 11.6085 19.1356C11.5932 18.959 11.7103 18.7833 11.8783 18.7289Z" fill="#0530AD"/>
<path d="M8.20113 21.0713C10.7339 21.0722 13.2667 21.0719 15.7999 21.0713C16.0767 21.485 16.3541 21.8985 16.6277 22.3142C16.6847 22.4082 16.5775 22.5154 16.4802 22.4994C13.4933 22.5004 10.5064 22.5001 7.51985 22.4998C7.45329 22.5033 7.37841 22.4694 7.36145 22.4006C7.34161 22.3465 7.38257 22.3007 7.40817 22.2582C7.67377 21.8633 7.93585 21.4662 8.20113 21.0713Z" fill="#041E42"/>
</svg>
