<svg width="24" height="24" viewBox="0 0 24 24" fill="none" xmlns="http://www.w3.org/2000/svg">
<path d="M14.0985 2.62455C14.2602 2.43655 14.5342 2.35559 14.7719 2.42663C14.8692 2.45287 14.9532 2.51015 15.0401 2.55895C16.511 3.40807 17.9817 4.25735 19.4526 5.10631C19.5553 5.16487 19.6418 5.25191 19.7004 5.35463C19.8105 5.54807 19.8134 5.79815 19.7034 5.99223C19.1015 7.03639 18.4978 8.07943 17.8961 9.12375C16.0052 8.03239 14.1142 6.94103 12.2238 5.84855C12.8057 4.83847 13.3895 3.82967 13.9719 2.81991C14.0108 2.75287 14.0471 2.68327 14.0985 2.62455ZM14.5799 5.69591C14.7695 5.80583 14.958 5.91799 15.1502 6.02327C15.3052 5.74519 15.4679 5.47143 15.6262 5.19511C15.7074 5.04791 15.7994 4.90631 15.874 4.75559C15.6846 4.65047 15.499 4.53863 15.3103 4.43223C15.0662 4.85303 14.8242 5.27511 14.5799 5.69591ZM17.0122 5.41367C16.7686 5.83479 16.5268 6.25703 16.2818 6.67735C16.4692 6.79047 16.6609 6.89639 16.8497 7.00743C17.0913 6.58471 17.3359 6.16391 17.5793 5.74231C17.3908 5.63191 17.2006 5.52455 17.0122 5.41367Z" fill="#041E42"/>
<path d="M11.028 5.73157C11.1843 5.69749 11.3526 5.72405 11.4912 5.80421C13.7664 7.11829 16.0421 8.43157 18.3174 9.74565C18.4699 9.84069 18.5816 10.0004 18.6144 10.1775C18.6456 10.3322 18.6165 10.4965 18.5371 10.6325C17.2425 12.8749 15.948 15.1173 14.6533 17.3596C14.604 17.4496 14.5493 17.5394 14.4691 17.6056C14.3053 17.7474 14.0688 17.8007 13.8606 17.7384C13.7555 17.7112 13.6672 17.6466 13.5734 17.5951C11.355 16.3148 9.1371 15.0336 6.9187 13.7532C6.78574 13.681 6.68046 13.5605 6.6251 13.42C6.54798 13.2274 6.57054 13.0004 6.68206 12.8256C7.9883 10.5642 9.29374 8.30229 10.5997 6.04069C10.6904 5.88309 10.8504 5.76901 11.028 5.73157ZM13.7657 9.22149C13.4731 9.40357 13.1787 9.58293 12.8862 9.76517C12.7923 9.82453 12.7585 9.95573 12.8102 10.0538C12.8585 10.1658 12.9848 10.2005 13.0774 10.2652C12.711 10.8954 12.3499 11.5287 11.9822 12.1581C11.8291 11.9895 11.6726 11.8236 11.5179 11.6562C11.5577 11.5853 11.5987 11.5152 11.6397 11.445C11.751 11.4455 11.8638 11.4239 11.9619 11.3693C12.1312 11.2807 12.2483 11.1015 12.2609 10.9108C12.2862 10.617 12.0789 10.3356 11.8043 10.2436C11.6176 10.1764 11.3993 10.1957 11.2328 10.3055C11.068 10.4103 10.9688 10.6064 10.976 10.801C10.9785 10.9127 11.015 11.0215 11.0723 11.117C10.9899 11.2599 10.9067 11.4023 10.8249 11.5456C10.7595 11.6623 10.7771 11.8192 10.8678 11.918C11.1246 12.1973 11.3848 12.4736 11.6408 12.7538C11.5629 12.881 11.4944 13.014 11.4144 13.1399C11.2177 13.1317 11.0163 13.2215 10.9017 13.3834C10.804 13.5172 10.7715 13.6943 10.8102 13.8549C10.8549 14.0479 10.9912 14.2159 11.1686 14.3029C11.3517 14.398 11.5808 14.4056 11.7657 14.3112C11.9107 14.2405 12.0219 14.1047 12.0621 13.9485C12.1032 13.7986 12.0779 13.6346 12.0027 13.4996C11.9971 13.4842 11.9793 13.4661 11.9936 13.4503C12.1336 13.2104 12.2712 12.9692 12.4107 12.7292C12.7419 12.8044 13.0731 12.8799 13.4043 12.9551C13.4865 12.9733 13.5713 13.0015 13.6561 12.9802C13.7568 12.9604 13.839 12.8861 13.8849 12.7964C13.9459 12.6879 14.0097 12.581 14.0709 12.4727C14.1517 12.524 14.2459 12.5866 14.3461 12.5492C14.4209 12.5296 14.46 12.4602 14.4933 12.3967C14.6049 12.2039 14.716 12.0108 14.8277 11.818C14.8521 11.7744 14.8841 11.7316 14.8856 11.6796C14.8925 11.5989 14.8454 11.5202 14.7774 11.4792C14.524 11.3316 14.2694 11.1861 14.0158 11.0388C13.9448 10.9973 13.8491 10.9959 13.7816 11.045C13.7334 11.0786 13.7102 11.1343 13.6813 11.1832C13.5621 11.3898 13.4425 11.596 13.3237 11.8028C13.2841 11.8669 13.2872 11.9528 13.3286 12.0154C13.3675 12.0805 13.4422 12.1082 13.5037 12.1468C13.4758 12.1938 13.4489 12.2413 13.4201 12.2879C13.1984 12.2348 12.9753 12.1871 12.7534 12.1346C13.0513 11.6207 13.3472 11.1055 13.6449 10.5916C13.7117 10.6266 13.7734 10.6712 13.8429 10.7013C13.9477 10.7453 14.0859 10.7088 14.1425 10.6068C14.175 10.5548 14.1737 10.4919 14.1752 10.4328C14.1833 10.132 14.1928 9.83141 14.2013 9.53061C14.2019 9.47125 14.2101 9.41077 14.1961 9.35237C14.1617 9.22981 14.0309 9.14437 13.9049 9.16165C13.8531 9.16645 13.8088 9.19509 13.7657 9.22149Z" fill="#0530AD"/>
<path d="M7.87699 14.6858C9.09139 15.3842 10.3037 16.0866 11.5173 16.7863C11.8162 16.9604 12.1176 17.1303 12.4151 17.3068C12.2479 17.5941 12.0837 17.8832 11.9156 18.17C11.7786 18.4053 11.4823 18.5298 11.2178 18.4685C11.097 18.4453 10.9943 18.3748 10.89 18.314C10.3356 19.2653 9.78899 20.2215 9.23619 21.1738C9.06723 21.4546 8.67379 21.5612 8.38547 21.4064C7.71555 21.0207 7.04627 20.6341 6.37715 20.2472C6.22643 20.1636 6.11171 20.0181 6.06707 19.8516C6.02003 19.6882 6.04211 19.5072 6.12499 19.3592C6.67171 18.4098 7.22163 17.4621 7.76739 16.5122C7.67331 16.4562 7.57203 16.4087 7.49411 16.33C7.28307 16.1285 7.23667 15.7813 7.38883 15.532C7.55155 15.25 7.71491 14.9684 7.87699 14.6858Z" fill="#041E42"/>
</svg>
