<svg width="24" height="24" viewBox="0 0 24 24" fill="none" xmlns="http://www.w3.org/2000/svg">
<path d="M11.0893 2.0417C12.977 1.86634 14.9133 2.2401 16.5942 3.11849C18.5318 4.11913 20.1229 5.77193 21.0499 7.7457C21.6352 8.98345 21.9584 10.3435 21.9958 11.7121C22.0688 14.0411 21.2874 16.3825 19.839 18.2068C18.4534 19.97 16.455 21.2411 14.2682 21.7415C12.7904 22.0849 11.2346 22.0862 9.75585 21.746C8.67393 21.498 7.63361 21.067 6.69377 20.4759C5.65697 19.8273 4.74465 18.9828 4.00801 18.0071C2.61793 16.1636 1.89537 13.8286 2.01121 11.5217C2.07393 10.1783 2.41185 8.84777 3.00225 7.63945C3.58081 6.44809 4.40001 5.3745 5.39393 4.4993C6.96833 3.10442 8.99297 2.22602 11.0893 2.0417ZM10.3072 3.67338C8.25665 4.08233 6.38465 5.29065 5.15137 6.97705C4.40705 7.98729 3.88993 9.16457 3.65473 10.3975C3.42145 11.6129 3.45729 12.8795 3.76641 14.0782C4.11073 15.4315 4.79073 16.698 5.73025 17.7313C6.35265 16.0683 7.66689 14.683 9.29057 13.9659C10.4339 13.4526 11.7235 13.2756 12.9635 13.4561C14.1814 13.6276 15.3459 14.1495 16.2883 14.9396C17.1747 15.6763 17.8624 16.6465 18.2694 17.7246C19.2544 16.6468 19.9501 15.3102 20.2794 13.8887C20.6096 12.4756 20.5613 10.9774 20.1482 9.58665C19.5514 7.55241 18.1565 5.77098 16.3328 4.69226C14.544 3.61738 12.3498 3.25194 10.3072 3.67338Z" fill="#041E42"/>
<path d="M11.5693 5.49586C12.3539 5.3941 13.1721 5.57586 13.8368 6.00594C14.5117 6.43474 15.0265 7.10802 15.2614 7.8725C15.5033 8.65074 15.4534 9.51538 15.12 10.2594C14.72 11.1675 13.9049 11.8808 12.9501 12.1528C12.2118 12.3682 11.4 12.3243 10.6909 12.0258C9.90653 11.701 9.25406 11.0712 8.90142 10.2991C8.53822 9.51826 8.49117 8.59698 8.77149 7.78258C9.00925 7.0773 9.48765 6.45746 10.1062 6.04434C10.5427 5.75154 11.0477 5.56082 11.5693 5.49586Z" fill="#041E42"/>
</svg>
