<svg width="32" height="32" viewBox="0 0 32 32" fill="none" xmlns="http://www.w3.org/2000/svg">
<path d="M3.404 5.95996L2 6.62396V25.376L3.404 26.04L9.088 16.486L3.404 5.95996Z" fill="#9D5025"/>
<path d="M6.67801 25.314L3.40401 26.04V5.95996L6.67801 6.66596V25.314Z" fill="#F58536"/>
<path d="M4.952 5.22411L6.678 4.41211L14.87 16.8441L6.678 27.5881L4.952 26.7761V5.22411Z" fill="#9D5025"/>
<path d="M10.76 26.4961L6.67799 27.5881V4.41211L10.758 5.50811L10.76 26.4961Z" fill="#F58536"/>
<path d="M8.60001 3.50007L10.76 2.47607L22.846 18.2041L10.76 29.5241L8.60001 28.5021V3.49807V3.50007Z" fill="#9D5025"/>
<path d="M15.996 27.7121L10.76 29.5241V2.47607L15.996 4.29207V27.7121Z" fill="#F58536"/>
<path d="M13.204 1.32L15.996 0L29.072 16.906L15.996 32L13.204 30.68V1.32Z" fill="#9D5025"/>
<path d="M30 25.372L15.996 32V0L30 6.628V25.372Z" fill="#F58536"/>
</svg>
