<svg width="34" height="32" viewBox="0 0 34 32" fill="none" xmlns="http://www.w3.org/2000/svg">
<path fill-rule="evenodd" clip-rule="evenodd" d="M4.70966 23.0107C4.38707 23.466 3.92246 24.5552 3.92246 24.5552L8.58259 23.2082C8.58259 23.2082 8.19939 22.4565 8.05813 21.625C7.9168 20.7936 8.0781 20.14 8.0781 20.14L9.0058 19.7638C9.0058 19.7638 8.88667 20.5169 8.88667 21.2895C8.88667 22.0615 9.34836 22.7935 9.34836 22.7935C9.34836 22.7935 10.1955 21.4472 10.7407 20.4966C11.2852 19.546 11.7499 18.4966 11.7499 18.4966L12.4349 18.2192C12.4349 18.2192 11.9304 19.6252 11.5271 20.4762C11.1239 21.3281 10.2361 22.7332 10.2361 22.7332C10.2361 22.7332 11.6884 22.3171 12.5762 22.0717C13.464 21.8262 14.6336 21.2082 14.6336 21.2082C14.6336 21.2082 13.6652 20.2576 13.322 19.7232C12.9786 19.1887 12.5962 18.1386 12.5962 18.1386L13.0201 17.9607C13.0201 17.9607 13.4233 18.9708 13.9079 19.5845C14.3918 20.1981 15.0576 20.8125 15.0576 20.8125C15.0576 20.8125 15.4208 19.7631 15.5414 18.7726C15.6628 17.7828 15.5821 16.9113 15.5821 16.9113L16.1266 16.6738C16.1266 16.6738 16.1673 17.8227 16.0867 18.8125C16.006 19.8023 15.7234 20.872 15.7234 20.872L19.3545 18.8917L16.3286 16.6739L16.7318 16.5156L19.6371 18.5351L19.5157 15.565L20.2016 15.2876C20.2016 15.2876 20.6854 17.3072 20.2016 22.0717C19.7177 26.8362 16.9738 31.1273 16.9738 31.1273C16.9738 31.1273 4.62755 31.1273 3.13754 25.7825C2.64628 24.0222 5.57376 21.6846 5.57376 21.6846C5.57376 21.6846 5.03295 22.5553 4.70966 23.0107ZM4.72963 26.5552C5.21345 27.1492 5.8793 27.6837 5.8793 27.6837L8.64327 23.8421L3.98313 24.9314C3.9839 24.9314 4.24581 25.9612 4.72963 26.5552ZM9.2492 24.0999L6.18262 27.9218L11.7513 26.1398C11.7513 26.1398 10.8428 25.6845 10.339 25.2292C9.83371 24.7731 9.2492 24.0999 9.2492 24.0999ZM8.24009 29.0895C9.0472 29.4265 10.0556 29.7432 10.0556 29.7432L12.0731 26.7331L6.54516 28.139C6.54516 28.139 7.43292 28.7533 8.24009 29.0895ZM13.0008 26.6343L10.5572 29.8223C10.5572 29.8223 12.6983 29.3866 13.9493 29.03C15.1996 28.6735 17.7417 27.8223 17.7417 27.8223C17.7417 27.8223 15.6435 27.6045 14.7964 27.3474C13.9493 27.0897 13.0008 26.6343 13.0008 26.6343ZM14.2319 30.5151C15.4423 30.6538 16.8139 30.7728 16.8139 30.7728C16.8139 30.7728 17.1165 30.0009 17.2778 29.5848C17.4391 29.1687 17.843 28.0802 17.843 28.0802C17.843 28.0802 15.3816 29.0112 14.414 29.2885C13.4455 29.566 11.2867 30.0213 11.2867 30.0213C11.2867 30.0213 13.0216 30.3771 14.2319 30.5151ZM11.1653 24.8522C11.7098 25.248 12.537 25.7629 12.537 25.7629C12.537 25.7629 13.5454 24.317 13.828 23.6838C14.1106 23.0498 14.6551 21.9809 14.6551 21.9809C14.6551 21.9809 13.1422 22.5321 12.3557 22.7535C11.5693 22.9743 9.81367 23.5255 9.81367 23.5255C9.81367 23.5255 10.6208 24.4565 11.1653 24.8522ZM15.4822 21.763C15.4822 21.763 14.9777 23.0498 14.6551 23.6438C14.3325 24.2386 13.6667 25.585 13.6667 25.585C13.6667 25.585 15.4016 24.9118 16.168 24.5552C16.9345 24.1987 19.1333 23.2655 19.1333 23.2655C19.1333 23.2655 18.0035 23.0106 17.1158 22.5945C16.2287 22.1792 15.4822 21.763 15.4822 21.763ZM15.8655 21.3273C15.8655 21.3273 16.7333 21.8814 17.3384 22.1792C17.9436 22.4762 19.3759 22.8952 19.3759 22.8952C19.3759 22.8952 19.5572 21.6047 19.5979 21.0507C19.6386 20.4958 19.5979 19.1894 19.5979 19.1894C19.5979 19.1894 18.4682 19.9025 17.9843 20.1596C17.4997 20.4167 15.8655 21.3273 15.8655 21.3273ZM19.2746 23.5654C19.2746 23.5654 17.2571 24.5755 16.3996 24.9517C15.5422 25.3279 13.4847 26.179 13.4847 26.179C13.4847 26.179 14.3318 26.7338 15.3003 26.9713C16.2687 27.2087 18.0842 27.3873 18.0842 27.3873C18.0842 27.3873 18.5754 26.0998 18.7574 25.4267C18.9394 24.7535 19.2746 23.5654 19.2746 23.5654Z" fill="url(#paint0_linear_2175_18108)"/>
<path fill-rule="evenodd" clip-rule="evenodd" d="M8.08698 4.07387C8.08698 4.07387 9.17966 3.0128 10.7156 2.34918C12.4283 1.60918 14.6921 0.872803 14.6921 0.872803C14.6921 0.872803 15.4023 2.53655 15.8085 3.51905C16.2146 4.50155 17.317 6.2953 17.317 6.2953L16.4758 6.16674L15.5184 4.37299L13.4595 5.92487L12.702 5.75424L15.3009 4.11674C15.3009 4.11674 13.43 3.90312 12.5747 3.7753C11.7188 3.64749 10.211 3.2343 10.211 3.2343L12.5747 5.62574L11.4288 5.51168L9.94988 3.3048C9.94988 3.3048 9.48597 3.58949 9.18119 3.9308C8.87634 4.2728 8.76097 4.82768 8.76097 4.82768L8.08698 4.07387ZM10.5573 2.96343L15.3299 3.71793C15.3299 3.71793 14.9673 2.87774 14.8223 2.43693C14.6774 1.99543 14.5612 1.21255 14.5612 1.21255C14.5612 1.21255 13.6038 1.49737 12.6177 1.89605C11.6315 2.2948 10.5573 2.96355 10.5573 2.96355V2.96343Z" fill="url(#paint1_linear_2175_18108)"/>
<path fill-rule="evenodd" clip-rule="evenodd" d="M10.8066 16.3383C11.9719 14.7407 12.2648 13.0385 12.418 11.8236C12.8545 8.3633 8.59083 5.20005 8.22168 4.77155C7.85241 4.34312 8.08774 4.01343 8.08774 4.01343C8.08774 4.01343 8.35633 4.63943 10.3857 4.97418C12.9232 5.39249 20.394 6.49774 23.7661 7.50643C29.2719 9.15412 31.3537 13.1416 31.3537 13.1416C31.3537 13.1416 28.5639 13.597 25.1548 14.3878C21.7908 15.1684 17.8246 16.2788 15.3402 17.2933C13.7859 17.928 11.9948 18.6048 10.5587 19.2707C7.37457 20.7471 5.10034 22.0716 5.10034 22.0716C5.10034 22.0716 8.65227 19.291 10.8066 16.3383ZM9.49716 5.26612C9.49716 5.26612 10.1741 5.89205 10.5574 6.32049C10.9406 6.74899 11.8136 7.93487 11.8136 7.93487C11.8136 7.93487 11.6286 6.97555 11.4103 6.35324C11.2587 5.92043 11.1418 5.72724 11.1418 5.72724L9.49716 5.26612ZM11.8136 5.89205L12.5186 8.36405L15.0029 6.41999L11.8136 5.89205ZM15.5068 6.63862L13.0461 8.75762L15.9129 9.58843C15.9129 9.58843 15.9817 8.59649 15.8611 7.93562C15.7398 7.2748 15.5067 6.63868 15.5067 6.63868L15.5068 6.63862ZM16.112 6.74099C16.112 6.74099 16.3369 7.41849 16.3968 7.93562C16.4575 8.45262 16.4575 9.58837 16.4575 9.58837L20.0145 7.46137C20.0145 7.46137 18.728 7.12224 17.8476 6.96105C16.9665 6.7998 16.112 6.74099 16.112 6.74099ZM20.7226 7.67268L16.9664 9.88468C16.9664 9.88468 17.6138 10.2405 18.1235 10.5201C18.6325 10.7997 19.2199 11.1722 19.2199 11.1722C19.2199 11.1722 19.7896 10.4606 20.101 9.74818C20.4117 9.03718 20.7226 7.67268 20.7226 7.67268ZM21.1975 7.67268C21.1975 7.67268 21.0681 8.63855 20.8261 9.36768C20.5842 10.0967 20.2564 11.003 20.2564 11.003C20.2564 11.003 21.9573 10.2231 22.7082 10.0372C23.4592 9.85055 25.8162 9.22387 25.8162 9.22387C25.8162 9.22387 24.3654 8.63055 23.511 8.35968C22.6572 8.08805 21.1975 7.67268 21.1975 7.67268ZM26.1883 9.58843C26.1883 9.58843 23.866 10.2747 22.9501 10.5797C22.0349 10.8847 20.3511 11.7067 20.3511 11.7067C20.3511 11.7067 20.9903 12.1897 21.4475 12.6726C21.9047 13.1555 22.5957 14.0879 22.5957 14.0879C22.5957 14.0879 24.0547 12.4097 24.7375 11.5201C25.4197 10.6306 26.1883 9.58843 26.1883 9.58843ZM26.6292 9.63855C26.6292 9.63855 26.1543 10.7489 25.5757 11.5964C24.9972 12.4438 23.2697 14.1307 23.2697 14.1307C23.2697 14.1307 25.7393 13.5629 27.4489 13.2746C29.1587 12.9863 30.7383 12.9187 30.7383 12.9187C30.7383 12.9187 29.7624 11.8251 28.899 11.1389C28.0364 10.4526 26.6292 9.63855 26.6292 9.63855ZM12.8078 9.58843C12.8078 9.58843 12.9513 10.1607 12.9832 11.0038C13.0069 11.6312 12.8714 12.5593 12.8714 12.5593L15.3891 10.2711C15.3891 10.2711 14.687 10.0133 14.0981 9.84118C13.5092 9.66837 12.8078 9.58843 12.8078 9.58843ZM15.6525 10.8491L13.046 13.0429C13.046 13.0429 13.4715 13.2601 13.7223 13.5062C13.973 13.7524 14.286 14.0879 14.286 14.0879C14.286 14.0879 14.9755 13.1402 15.176 12.4685C15.3765 11.7961 15.6525 10.8491 15.6525 10.8491ZM16.3043 10.64C16.3043 10.64 16.2036 11.3088 16.0158 11.8847C15.8278 12.4606 15.3891 13.4692 15.3891 13.4692L18.3721 11.7467L16.3043 10.64ZM18.2255 12.6087L14.6744 14.528C14.6744 14.528 14.9126 15.069 15.0377 15.4139C15.1627 15.7589 15.338 16.2999 15.338 16.2999C15.338 16.2999 16.4034 15.2048 17.0174 14.4052C17.633 13.605 18.2255 12.6087 18.2255 12.6087ZM19.4374 12.3625C19.4374 12.3625 18.4845 13.6544 17.8956 14.2942C17.3067 14.9339 16.066 16.2992 16.066 16.2992L22.0068 14.3922C22.0068 14.3922 21.4682 13.8018 20.8535 13.3094C20.2394 12.8178 19.4374 12.3625 19.4374 12.3625ZM12.1561 14.8599C11.8927 15.3399 11.4162 16.1024 11.4162 16.1024L13.5972 14.5774C13.5972 14.5774 13.3464 14.2332 13.1208 14.0887C12.8951 13.9449 12.6066 13.8389 12.6066 13.8389C12.6066 13.8389 12.4187 14.3799 12.1561 14.8599ZM13.1963 15.4996L10.9916 16.8162L9.52375 18.6121C9.52375 18.6121 10.902 17.7261 11.579 17.1234C12.2559 16.5207 13.1963 15.4996 13.1963 15.4996ZM14.0981 15.1671C14.0981 15.1671 13.3338 16.1387 12.7442 16.6927C12.1553 17.2469 10.4256 18.6121 10.4256 18.6121C10.4256 18.6121 12.7317 17.6034 13.1955 17.3696C13.6594 17.1357 14.7751 16.6681 14.7751 16.6681C14.7751 16.6681 14.6248 16.0036 14.4865 15.7698C14.3489 15.5367 14.0981 15.1671 14.0981 15.1671Z" fill="url(#paint2_radial_2175_18108)"/>
<defs>
<linearGradient id="paint0_linear_2175_18108" x1="3.08197" y1="23.2074" x2="20.4166" y2="23.2074" gradientUnits="userSpaceOnUse">
<stop stop-color="#706F70"/>
<stop offset="1" stop-color="#D9D9D9"/>
</linearGradient>
<linearGradient id="paint1_linear_2175_18108" x1="8.08698" y1="3.58405" x2="17.317" y2="3.58405" gradientUnits="userSpaceOnUse">
<stop stop-color="#706F70"/>
<stop offset="1" stop-color="#D9D9D9"/>
</linearGradient>
<radialGradient id="paint2_radial_2175_18108" cx="0" cy="0" r="1" gradientUnits="userSpaceOnUse" gradientTransform="translate(819.431 759.171) scale(1068.69 1050.17)">
<stop stop-color="#9DCAEA"/>
<stop offset="0.0744" stop-color="#8CC1E7"/>
<stop offset="0.2677" stop-color="#65ACDE"/>
<stop offset="0.3685" stop-color="#56A4DB"/>
<stop offset="1" stop-color="#3361A1"/>
</radialGradient>
</defs>
</svg>
