<svg width="32" height="18" viewBox="0 0 32 18" fill="none" xmlns="http://www.w3.org/2000/svg">
<g clip-path="url(#clip0_2175_17954)">
<mask id="mask0_2175_17954" style="mask-type:luminance" maskUnits="userSpaceOnUse" x="0" y="0" width="32" height="18">
<path d="M31.9844 0.489258H0V17.5136H31.9844V0.489258Z" fill="white"/>
</mask>
<g mask="url(#mask0_2175_17954)">
<path fill-rule="evenodd" clip-rule="evenodd" d="M7.12011 17.2942V15.8012L7.09053 15.8134C6.75812 15.9768 6.39426 16.0697 6.02268 16.0861C5.6352 16.1211 5.24913 16.0062 4.94703 15.7662C4.72518 15.5946 4.56224 15.3607 4.48004 15.0959C4.38409 14.8061 4.3733 14.4957 4.4489 14.2001C4.5154 13.9179 4.66832 13.6622 4.88723 13.4673C5.10614 13.2724 5.38061 13.1475 5.67398 13.1093C6.16202 13.0516 6.65629 13.1448 7.08742 13.3759L7.12011 13.3927V11.8952L7.05318 11.8769C6.6192 11.7354 6.16191 11.6749 5.70512 11.6986C5.28876 11.7087 4.87904 11.8031 4.50183 11.9759C4.11731 12.1513 3.77992 12.4122 3.51647 12.7376C3.31475 12.9949 3.15703 13.2825 3.04948 13.5892C2.83102 14.2097 2.8212 14.8824 3.02146 15.5087C3.12006 15.8187 3.26936 16.1109 3.46355 16.3741C3.84751 16.8828 4.40262 17.2427 5.03109 17.3902C5.68569 17.5502 6.37316 17.5259 7.01426 17.3201L7.12322 17.2896" fill="#00BCEB"/>
<path fill-rule="evenodd" clip-rule="evenodd" d="M21.7759 17.2942V15.8012L21.7464 15.8134C21.4139 15.9768 21.0501 16.0697 20.6785 16.0861C20.291 16.1211 19.9049 16.0062 19.6029 15.7662C19.381 15.5946 19.2181 15.3607 19.1359 15.0959C19.0399 14.8061 19.0291 14.4957 19.1047 14.2001C19.1712 13.9179 19.3241 13.6622 19.5431 13.4673C19.762 13.2724 20.0364 13.1475 20.3298 13.1093C20.8178 13.0516 21.3121 13.1448 21.7432 13.3759L21.7759 13.3927V11.8952L21.709 11.8769C21.275 11.7354 20.8177 11.6749 20.3609 11.6986C19.9446 11.7087 19.5349 11.8031 19.1577 11.9759C18.7731 12.1513 18.4357 12.4122 18.1723 12.7376C17.9706 12.9949 17.8129 13.2825 17.7053 13.5892C17.4868 14.2097 17.477 14.8824 17.6773 15.5087C17.7759 15.8187 17.9252 16.1109 18.1194 16.3741C18.5033 16.8828 19.0584 17.2427 19.6869 17.3902C20.3415 17.5502 21.029 17.5259 21.6701 17.3201L21.779 17.2896" fill="#00BCEB"/>
<path fill-rule="evenodd" clip-rule="evenodd" d="M23.2299 14.5948C23.2363 15.0312 23.3393 15.461 23.5318 15.8547C23.6272 16.0494 23.7441 16.2333 23.8805 16.4031C24.0183 16.572 24.1749 16.7253 24.3475 16.8601C24.5163 16.9952 24.7001 17.1112 24.8955 17.2059C25.2828 17.3935 25.7086 17.4925 26.1408 17.4954C26.3571 17.4962 26.5728 17.4726 26.7837 17.4253C27.3608 17.3196 27.8886 17.0368 28.2905 16.6179C28.703 16.1999 28.9747 15.6682 29.0688 15.0945C29.174 14.5206 29.0997 13.9291 28.8556 13.3974C28.6937 13.0322 28.4554 12.7043 28.1559 12.435C27.8565 12.1656 27.5027 11.9607 27.1173 11.8335C26.7319 11.7063 26.3235 11.6596 25.9186 11.6965C25.5136 11.7334 25.121 11.853 24.7663 12.0476C24.3055 12.299 23.9226 12.6674 23.6579 13.114C23.3853 13.5624 23.2377 14.073 23.2299 14.5948ZM25.2644 13.4461C25.4131 13.3235 25.5858 13.2317 25.7719 13.1765C25.957 13.1209 26.1517 13.103 26.3442 13.1237C26.5366 13.1444 26.7227 13.2033 26.8911 13.2968C27.0614 13.3907 27.2107 13.5171 27.3301 13.6685C27.4513 13.8211 27.5407 13.9956 27.5931 14.1819C27.7002 14.5596 27.6533 14.9632 27.4624 15.3077C27.3688 15.4768 27.2418 15.626 27.0888 15.7465C26.9385 15.8668 26.7648 15.956 26.5782 16.0085C26.3953 16.0594 26.2038 16.0739 26.015 16.0512C25.8262 16.0284 25.644 15.9688 25.4792 15.876C25.3121 15.7826 25.1656 15.6578 25.048 15.5088C24.929 15.3587 24.8407 15.1875 24.7881 15.0046C24.6804 14.6335 24.7216 14.2363 24.9032 13.894C24.9921 13.7258 25.1137 13.5762 25.2613 13.4537M9.04724 17.3918H10.4482V11.7917H9.04724V17.3918ZM12.3473 16.0542V17.34L12.4407 17.3568C12.7335 17.4116 13.0292 17.4498 13.3265 17.471C13.5852 17.4951 13.8453 17.5002 14.1048 17.4863C14.3545 17.4681 14.6011 17.421 14.8395 17.3461C15.1215 17.2662 15.382 17.1263 15.6023 16.9363C15.8042 16.7635 15.957 16.5425 16.0459 16.2949C16.2105 15.8793 16.2072 15.4179 16.0366 15.0046C15.9514 14.7905 15.8147 14.5998 15.6381 14.4485C15.4705 14.2951 15.2715 14.1783 15.0543 14.1058L14.0923 13.7462C13.9753 13.6973 13.8813 13.607 13.8293 13.4933C13.8072 13.447 13.7966 13.3961 13.7985 13.345C13.8004 13.2939 13.8147 13.244 13.8402 13.1993C13.8572 13.1676 13.8787 13.1383 13.904 13.1125C13.9447 13.0702 13.9927 13.0352 14.0456 13.0089C14.1527 12.9555 14.2687 12.9215 14.3881 12.9083C14.5912 12.8764 14.7983 12.8764 15.0014 12.9083C15.2414 12.9344 15.4791 12.9771 15.7128 13.0363L15.7626 13.047V11.8602L15.6708 11.8404C15.4324 11.783 15.1907 11.7397 14.9469 11.7109C14.6313 11.6696 14.3115 11.6696 13.9958 11.7109C13.5949 11.7474 13.2148 11.9026 12.9062 12.1558C12.6911 12.3253 12.5292 12.5507 12.4392 12.8063C12.2952 13.1972 12.2952 13.625 12.4392 14.0159C12.5101 14.2092 12.6251 14.3843 12.7754 14.5277C12.9046 14.6535 13.0513 14.7607 13.2113 14.8461C13.4202 14.9593 13.6423 15.0473 13.8728 15.1082L14.1001 15.1813L14.2138 15.2239L14.2464 15.2377C14.3595 15.2785 14.4625 15.3424 14.5484 15.425C14.6089 15.4821 14.6552 15.5519 14.6839 15.6292C14.7015 15.7003 14.7015 15.7744 14.6839 15.8455C14.6672 15.9022 14.6391 15.955 14.6011 16.0009C14.5631 16.0467 14.5161 16.0845 14.4628 16.1121C14.3486 16.1724 14.2241 16.2116 14.0954 16.2279C13.9077 16.258 13.7172 16.2677 13.5273 16.2568C13.278 16.2382 13.03 16.2051 12.7848 16.1578C12.6571 16.1304 12.5295 16.1015 12.4018 16.0679L12.3551 16.0557L12.3473 16.0542Z" fill="#00BCEB"/>
<path fill-rule="evenodd" clip-rule="evenodd" d="M1.77114e-06 7.28977C0.00272759 7.4213 0.0461372 7.54894 0.124508 7.65582C0.202879 7.76271 0.312523 7.84383 0.438973 7.88848C0.559346 7.94275 0.694083 7.95871 0.824211 7.93412C0.954338 7.90952 1.0733 7.84561 1.16437 7.75137C1.29287 7.63074 1.37155 7.46807 1.38542 7.29434V5.73739C1.38501 5.64717 1.36638 5.55792 1.33058 5.47477C1.29478 5.39163 1.24252 5.31624 1.17683 5.25294C1.11363 5.18979 1.03819 5.13961 0.954926 5.10536C0.871662 5.07111 0.782248 5.05347 0.691928 5.05347C0.601608 5.05347 0.512199 5.07111 0.428935 5.10536C0.345671 5.13961 0.27023 5.18979 0.207034 5.25294C0.141337 5.31624 0.0890828 5.39163 0.0532835 5.47477C0.0174842 5.55792 -0.00115258 5.64717 -0.0015564 5.73739V7.28977" fill="#00BCEB"/>
<path fill-rule="evenodd" clip-rule="evenodd" d="M3.83557 7.28979C3.84706 7.46413 3.92612 7.6276 4.05662 7.74682C4.18324 7.86697 4.35269 7.93416 4.52906 7.93416C4.70543 7.93416 4.87488 7.86697 5.0015 7.74682C5.13142 7.62736 5.20991 7.46391 5.22099 7.28979V3.80874C5.2177 3.62819 5.14161 3.45624 5.00928 3.33038C4.94622 3.26838 4.87126 3.21919 4.78872 3.18562C4.70617 3.15205 4.61767 3.13477 4.52828 3.13477C4.43889 3.13477 4.35038 3.15205 4.26784 3.18562C4.18529 3.21919 4.11034 3.26838 4.04728 3.33038C3.91496 3.45624 3.83885 3.62819 3.83557 3.80874V7.28979Z" fill="#00BCEB"/>
<path fill-rule="evenodd" clip-rule="evenodd" d="M7.65092 8.69596C7.662 8.87009 7.74049 9.03353 7.87041 9.15299C7.9973 9.27324 8.167 9.34049 8.34363 9.34049C8.52026 9.34049 8.68997 9.27324 8.81685 9.15299C8.94677 9.03353 9.02526 8.87009 9.03634 8.69596V1.16258C9.03021 0.984253 8.95312 0.815328 8.82152 0.69184C8.69441 0.568481 8.52264 0.499268 8.34363 0.499268C8.16462 0.499268 7.99286 0.568481 7.86574 0.69184C7.73414 0.815328 7.65705 0.984253 7.65092 1.16258V8.69596Z" fill="#00BCEB"/>
<path fill-rule="evenodd" clip-rule="evenodd" d="M11.499 7.28979C11.5104 7.46413 11.5895 7.6276 11.72 7.74682C11.8466 7.86697 12.0161 7.93416 12.1924 7.93416C12.3688 7.93416 12.5383 7.86697 12.6649 7.74682C12.7948 7.62736 12.8733 7.46391 12.8844 7.28979V3.80874C12.8811 3.62819 12.805 3.45624 12.6727 3.33038C12.6096 3.26838 12.5347 3.21919 12.4521 3.18562C12.3696 3.15205 12.2811 3.13477 12.1917 3.13477C12.1023 3.13477 12.0138 3.15205 11.9312 3.18562C11.8487 3.21919 11.7737 3.26838 11.7107 3.33038C11.5783 3.45624 11.5022 3.62819 11.499 3.80874V7.28979Z" fill="#00BCEB"/>
<path fill-rule="evenodd" clip-rule="evenodd" d="M15.3268 7.28977C15.3295 7.4213 15.3729 7.54894 15.4513 7.65582C15.5296 7.76271 15.6393 7.84383 15.7657 7.88848C15.8861 7.94275 16.0208 7.95871 16.151 7.93412C16.2811 7.90952 16.4001 7.84561 16.4911 7.75137C16.6196 7.63074 16.6983 7.46807 16.7122 7.29434V5.73739C16.7118 5.64717 16.6931 5.55792 16.6573 5.47477C16.6215 5.39163 16.5693 5.31624 16.5036 5.25294C16.4404 5.18979 16.3649 5.13961 16.2817 5.10536C16.1984 5.07111 16.109 5.05347 16.0187 5.05347C15.9284 5.05347 15.839 5.07111 15.7557 5.10536C15.6724 5.13961 15.597 5.18979 15.5338 5.25294C15.4681 5.31624 15.4158 5.39163 15.38 5.47477C15.3442 5.55792 15.3256 5.64717 15.3252 5.73739V7.28977" fill="#00BCEB"/>
<path fill-rule="evenodd" clip-rule="evenodd" d="M19.1623 7.28979C19.1738 7.46413 19.2529 7.6276 19.3834 7.74682C19.51 7.86697 19.6794 7.93416 19.8558 7.93416C20.0322 7.93416 20.2016 7.86697 20.3283 7.74682C20.4582 7.62736 20.5367 7.46391 20.5477 7.28979V3.80874C20.5445 3.62819 20.4684 3.45624 20.336 3.33038C20.273 3.26838 20.198 3.21919 20.1155 3.18562C20.0329 3.15205 19.9444 3.13477 19.855 3.13477C19.7656 3.13477 19.6771 3.15205 19.5946 3.18562C19.512 3.21919 19.4371 3.26838 19.374 3.33038C19.2417 3.45624 19.1656 3.62819 19.1623 3.80874V7.28979Z" fill="#00BCEB"/>
<path fill-rule="evenodd" clip-rule="evenodd" d="M22.9777 8.69596C22.9888 8.87009 23.0672 9.03353 23.1972 9.15299C23.3241 9.27324 23.4938 9.34049 23.6704 9.34049C23.847 9.34049 24.0167 9.27324 24.1436 9.15299C24.2735 9.03353 24.352 8.87009 24.3631 8.69596V1.16258C24.357 0.984253 24.2799 0.815328 24.1483 0.69184C24.0212 0.568481 23.8494 0.499268 23.6704 0.499268C23.4914 0.499268 23.3196 0.568481 23.1925 0.69184C23.0609 0.815328 22.9838 0.984253 22.9777 1.16258V8.69596Z" fill="#00BCEB"/>
<path fill-rule="evenodd" clip-rule="evenodd" d="M26.8242 7.28979C26.8356 7.46413 26.9147 7.6276 27.0452 7.74682C27.1718 7.86697 27.3413 7.93416 27.5176 7.93416C27.694 7.93416 27.8635 7.86697 27.9901 7.74682C28.12 7.62736 28.1985 7.46391 28.2096 7.28979V3.80874C28.2063 3.62819 28.1302 3.45624 27.9979 3.33038C27.9348 3.26838 27.8598 3.21919 27.7773 3.18562C27.6948 3.15205 27.6063 3.13477 27.5169 3.13477C27.4275 3.13477 27.339 3.15205 27.2564 3.18562C27.1739 3.21919 27.0989 3.26838 27.0359 3.33038C26.9035 3.45624 26.8274 3.62819 26.8242 3.80874V7.28979Z" fill="#00BCEB"/>
<path fill-rule="evenodd" clip-rule="evenodd" d="M30.6161 7.28977C30.6189 7.4213 30.6623 7.54894 30.7406 7.65582C30.819 7.76271 30.9287 7.84383 31.0551 7.88848C31.1755 7.94275 31.3102 7.95871 31.4403 7.93412C31.5705 7.90952 31.6894 7.84561 31.7805 7.75137C31.909 7.63074 31.9877 7.46807 32.0016 7.29434V5.73739C32.0012 5.64717 31.9825 5.55792 31.9467 5.47477C31.9109 5.39163 31.8587 5.31624 31.793 5.25294C31.7298 5.18979 31.6543 5.13961 31.5711 5.10536C31.4878 5.07111 31.3984 5.05347 31.3081 5.05347C31.2177 5.05347 31.1283 5.07111 31.0451 5.10536C30.9618 5.13961 30.8864 5.18979 30.8232 5.25294C30.7575 5.31624 30.7052 5.39163 30.6694 5.47477C30.6336 5.55792 30.615 5.64717 30.6146 5.73739V7.28977" fill="#00BCEB"/>
</g>
</g>
<defs>
<clipPath id="clip0_2175_17954">
<rect width="32" height="17" fill="white" transform="translate(0 0.5)"/>
</clipPath>
</defs>
</svg>
