<svg width="32" height="32" viewBox="0 0 32 32" fill="none" xmlns="http://www.w3.org/2000/svg">
<path d="M16.0445 8.64275e-05L12.6019 9.65212L14.9421 9.65285C16.6279 9.65334 17.3453 10.9825 16.8144 12.471L13.3914 22.0683H9.94688L13.713 11.5081H11.9395L8.1737 22.0683H4.69946L12.4268 0.400379C5.31066 2.0238 -6.10352e-05 8.39126 -6.10352e-05 15.9994C-6.10352e-05 23.4892 5.14618 29.776 12.0953 31.5191L19.9023 9.59832H25.5564C26.7259 9.59832 28.1967 10.3869 27.5611 12.1815L24.3866 21.1452C23.9811 22.2902 23.0172 22.5223 22.2493 22.5223H18.7735L15.4023 31.9877C15.6008 31.995 15.7997 32 15.9998 32C24.8363 32 31.9998 24.8367 31.9998 15.9997C31.9998 7.17774 24.8603 0.0240005 16.044 0L16.0445 8.64275e-05ZM22.7053 11.4822L19.4262 20.6869H21.1724L24.4521 11.4822H22.7053Z" fill="#024AD8"/>
</svg>
