<svg width="24" height="24" viewBox="0 0 24 24" fill="none" xmlns="http://www.w3.org/2000/svg">
<g clip-path="url(#clip0_930_12)">
<path d="M1.75121 13.702H1.74736C1.52084 13.9369 1.39314 14.2792 1.39314 14.6921L1.39302 14.7777H1.9225L1.92318 14.6928C1.92601 14.4058 2.00876 14.1676 2.14133 14.0122C2.27219 13.8584 2.45899 13.7805 2.69661 13.7805C2.92065 13.7805 3.09612 13.8508 3.21793 13.99C3.3411 14.1305 3.40348 14.3469 3.40348 14.606C3.40348 14.8623 3.33204 15.0627 3.19076 15.2021C3.04936 15.341 2.84559 15.4184 2.58499 15.4184H2.36616V15.8566H2.6768C2.95167 15.8566 3.16699 15.94 3.31619 16.0903C3.46563 16.2409 3.54136 16.4577 3.54136 16.7348C3.54136 17.0474 3.46291 17.3191 3.3145 17.494C3.16789 17.6667 2.95155 17.7582 2.68982 17.7582C2.41212 17.7582 2.19872 17.6597 2.0554 17.4649C1.93665 17.3039 1.8694 17.0638 1.8694 16.8137C1.8694 16.8137 1.86759 16.6672 1.86759 16.6524H1.32544C1.32589 16.6675 1.32702 16.8162 1.32702 16.8162C1.34378 17.257 1.47102 17.6008 1.7048 17.8379C1.93914 18.0759 2.27061 18.196 2.6897 18.196C3.11763 18.196 3.47197 18.0602 3.7148 17.8034C3.95695 17.5466 4.0851 17.1729 4.0851 16.7218C4.0851 16.4286 4.00336 16.1659 3.84872 15.9617C3.7233 15.7972 3.55151 15.674 3.35548 15.6079L3.33204 15.6002L3.35446 15.5897C3.53054 15.5096 3.67791 15.3775 3.77684 15.2112C3.88733 15.0292 3.93555 14.8079 3.93555 14.5537C3.93555 14.1934 3.82133 13.8886 3.59774 13.6723C3.3745 13.4564 3.06793 13.3421 2.6965 13.3421C2.29721 13.3424 1.97808 13.4667 1.75121 13.702ZM7.85208 16.6525C7.84665 16.7209 7.8514 16.69 7.84155 16.7552C7.7091 17.6312 7.18382 18.1994 6.38616 18.1994C5.40623 18.1994 4.82887 17.5173 4.82887 15.7675C4.82887 14.1572 5.40635 13.3439 6.42997 13.3439C7.24687 13.3439 7.74374 13.8099 7.84823 14.6484C7.8557 14.7075 7.85559 14.7144 7.85887 14.7774H7.33404C7.32929 14.7189 7.32827 14.7173 7.32046 14.6643C7.23035 14.0551 6.94472 13.7814 6.42985 13.7814C5.86121 13.7814 5.3888 14.1317 5.3888 15.7766C5.3888 17.5255 5.88702 17.7618 6.3771 17.7618C6.86401 17.7618 7.19084 17.4342 7.31084 16.7586C7.32238 16.6939 7.31955 16.7237 7.32725 16.6525H7.85208ZM9.19484 15.7675C9.19484 14.2891 9.64925 13.7814 10.236 13.7814C10.8215 13.7814 11.2764 14.2891 11.2764 15.7675C11.2764 17.2549 10.8214 17.7618 10.236 17.7618C9.64925 17.7618 9.19484 17.2548 9.19484 15.7675ZM8.63446 15.7675C8.63446 17.3854 9.21159 18.1994 10.236 18.1994C11.2587 18.1994 11.8362 17.3854 11.8362 15.7675C11.8362 14.1572 11.2587 13.3439 10.236 13.3439C9.21159 13.3439 8.63446 14.1572 8.63446 15.7675ZM15.0599 13.8425C15.0135 13.7853 14.6603 13.3388 13.9817 13.3388C13.2329 13.3388 12.6238 13.8319 12.6238 14.6355V18.1374H13.1768V14.6905C13.1768 13.9496 13.7397 13.8025 13.9817 13.8025C14.4706 13.8025 14.7866 14.1754 14.7866 14.6736V18.1368L15.3354 18.1371L15.3363 14.6736C15.3363 14.189 15.6375 13.8025 16.1408 13.8025C16.3834 13.8025 16.9462 13.9336 16.9462 14.6746V18.1371H17.4992V14.6197C17.4992 13.8255 16.8667 13.3389 16.1408 13.3389C15.4773 13.3388 15.1088 13.7849 15.0599 13.8425ZM20.862 7.42913C21.2653 8.30717 21.3696 8.94306 21.4415 9.53932C21.5565 10.4894 21.262 11.3702 20.5912 11.3702C20.1327 11.3702 19.7488 11.0232 19.3986 10.5375C19.1308 10.1658 18.8329 9.55676 18.6401 8.95347C18.4294 8.29427 18.3605 7.70106 18.3605 7.27166C18.3605 6.42951 18.6562 5.80064 19.2875 5.80064C19.8993 5.80053 20.4726 6.58166 20.862 7.42913ZM19.3582 6.55325C19.255 6.50627 19.1823 6.52359 19.1377 6.63136C19.096 6.73257 19.057 6.93181 19.057 7.3397C19.057 7.67932 19.1547 8.24185 19.3421 8.80019C19.6 9.57193 20.0084 10.3485 20.4225 10.6061C20.5571 10.6901 20.6187 10.7051 20.7019 10.5562C20.8764 10.2422 20.791 9.56129 20.7763 9.41717C20.7581 9.23887 20.6429 8.57185 20.3247 7.84087C20.053 7.21789 19.6677 6.6943 19.3582 6.55325ZM16.2397 7.37321C15.9119 7.37321 15.1306 7.44985 14.3192 7.80363C14.1639 7.32895 13.495 6.20774 12.4076 6.20751C12.0309 6.20751 11.7035 6.34902 11.429 6.57578C10.855 7.05046 10.5223 7.93449 10.5223 8.92698C10.5223 9.32264 10.608 9.864 10.8087 10.3714C11.1362 11.1982 11.7541 11.9504 12.6932 11.9504C13.8603 11.9504 14.3371 10.6356 14.3371 10.6356C14.3371 10.6356 14.9343 10.5043 15.6016 10.2033C16.4836 9.80513 17.5601 9.05774 17.5601 8.2303C17.5602 7.50159 16.6354 7.37321 16.2397 7.37321ZM16.8599 8.33434C16.827 8.4891 16.675 8.68268 16.3409 8.95268C15.2526 9.83185 13.6771 10.1158 12.9908 10.0044C12.6898 9.95547 12.6267 9.80559 12.8913 9.47955C13.1065 9.21385 13.3465 9.04789 13.5529 8.90695L13.5783 8.89098C13.5538 8.68687 13.4903 8.43136 13.4126 8.23359C13.4108 8.23506 13.3681 8.26042 13.3603 8.26495C12.8936 8.53381 11.9522 9.26604 12.0517 9.97064C12.1565 10.7124 13.1868 10.7746 13.5322 10.7401C13.5322 10.7401 13.1583 11.2646 12.7078 11.2646C11.7448 11.2646 11.1781 9.93589 11.1781 8.92698C11.1781 8.06423 11.5773 6.91393 12.4574 6.91393C13.0003 6.91393 13.4694 7.47102 13.7019 8.10827C13.8074 8.39842 13.9237 8.73068 13.9147 9.41185C13.9136 9.50078 13.9074 9.58957 13.8961 9.67778C14.1183 9.64766 14.372 9.58302 14.5764 9.5211L14.579 9.45057C14.5905 9.07563 14.5753 8.70929 14.5104 8.42072C14.6919 8.35189 15.5175 8.05925 16.1384 8.06095C16.5546 8.06196 16.7493 8.14042 16.834 8.22555C16.8599 8.2577 16.8683 8.2954 16.8599 8.33434ZM22.0167 10.8149H21.611V10.8896H21.7686V11.3264H21.8592V10.8896H22.0168L22.0167 10.8149ZM22.2451 10.8149H22.1059V11.3264H22.1967V10.9105H22.199L22.3592 11.3264H22.4212L22.5814 10.9105H22.5838V11.3264H22.6743V10.8149H22.5354L22.3914 11.191L22.2451 10.8149Z" fill="black"/>
</g>
<defs>
<clipPath id="clip0_930_12">
<rect width="24" height="24" fill="white"/>
</clipPath>
</defs>
</svg>
