<svg width="24" height="24" viewBox="0 0 24 24" fill="none" xmlns="http://www.w3.org/2000/svg">
<g clip-path="url(#clip0_930_34)">
<g clip-path="url(#clip1_930_34)">
<path d="M22.1484 8.37358H22.2035C22.2425 8.37358 22.2679 8.39638 22.2679 8.45507C22.2679 8.49503 22.2525 8.54672 22.2035 8.54672H22.1484V8.37358ZM22.1484 8.63385H22.1797C22.2754 8.63385 22.2653 8.69683 22.2653 8.76974C22.2653 8.81127 22.2653 8.85281 22.2814 8.89005H22.4021C22.3908 8.86432 22.3884 8.74829 22.3884 8.70834C22.3884 8.59683 22.3079 8.58961 22.2814 8.58803V8.58532C22.3621 8.57087 22.3908 8.51241 22.3908 8.43363C22.3908 8.32776 22.3367 8.27043 22.2525 8.27043H22.0251V8.89005H22.1484V8.63385ZM22.2075 8.05034C21.9475 8.05034 21.7388 8.28623 21.7388 8.58238C21.7388 8.87854 21.9475 9.11759 22.2075 9.11759C22.4663 9.11759 22.6734 8.87854 22.6734 8.58238C22.6734 8.28623 22.4663 8.05034 22.2075 8.05034ZM22.2075 9.01736C21.9964 9.01736 21.8268 8.82143 21.8268 8.58238C21.8268 8.34356 21.9964 8.15034 22.2075 8.15034C22.4148 8.15034 22.5856 8.34356 22.5856 8.58238C22.5856 8.82143 22.4148 9.01736 22.2075 9.01736Z" fill="#006C86"/>
<mask id="mask0_930_34" style="mask-type:luminance" maskUnits="userSpaceOnUse" x="1" y="8" width="22" height="6">
<path d="M1 8H22.9999V13.9999H1V8Z" fill="white"/>
</mask>
<g mask="url(#mask0_930_34)">
<path d="M13.8025 12.7983C14.6953 13.0904 14.6173 13.978 14.6173 13.978H15.6874L16.0672 13.066H17.9929L18.3639 13.9753H20.3411V10.6769H21.3544C21.7038 10.6769 22.0509 11.0681 21.9882 11.8453V14.0001H22.9999V11.6469C22.9999 10.2665 22.3388 9.54171 21.4811 9.53607H19.2977V13.3829L17.7755 9.5636H17.0797L15.6076 13.2272C15.6076 12.7313 15.0539 12.3909 15.0539 12.3909C15.5438 12.406 16.1217 9.76473 14.3893 9.5636H11.6049V12.7439H11.3167C11.1275 12.7146 10.9089 12.2706 10.9081 12.0064V9.10899H21.3695V8.00043H4.36592L4.86058 9.10899H9.86447V12.2435C9.86546 13.1313 10.7279 13.957 11.5678 13.978H12.6594V12.7983H13.8025ZM6.95615 9.61552H5.99992V13.3333H5.96742L4.00562 8.00043H3.43625L1 13.978H1.3163L1.79094 12.887H4.67032L5.08333 13.978H8.15138C8.88208 13.9651 9.67302 12.8911 9.67302 11.7805C9.67302 10.8853 9.08046 9.5995 8.15337 9.61643H6.9504M12.6523 10.699H14.1525C14.7609 10.7223 14.7859 11.7929 14.1682 11.7956H12.6523V10.699ZM17.0396 10.5218L17.5642 12.0119H16.4615L17.0396 10.5218ZM7.04632 10.7184L7.90802 10.716C8.16189 10.725 8.56598 11.1512 8.57609 11.8198C8.61711 12.415 8.22332 12.8191 7.94369 12.8096H7.04632V10.7184ZM3.3219 9.05594L4.25811 11.7462L2.1984 11.7419L3.3219 9.05594Z" fill="#006C86"/>
</g>
</g>
</g>
<defs>
<clipPath id="clip0_930_34">
<rect width="24" height="24" fill="white"/>
</clipPath>
<clipPath id="clip1_930_34">
<rect width="22" height="6" fill="white" transform="translate(1 8)"/>
</clipPath>
</defs>
</svg>
