<svg width="24" height="24" viewBox="0 0 24 24" fill="none" xmlns="http://www.w3.org/2000/svg">
<g clip-path="url(#clip0_932_204)">
<g clip-path="url(#clip1_932_204)">
<path d="M1.26001 13.2284C1.29001 13.2489 1.33001 13.2898 1.38001 13.3307C1.38001 13.3307 1.38001 13.3307 1.37001 13.3307C1.33001 13.2898 1.29001 13.2489 1.26001 13.2284Z" fill="#E82C2E"/>
<path d="M1.43018 13.1773C1.50018 13.1568 1.57018 13.1364 1.63018 13.1159C1.57018 13.1466 1.50018 13.1568 1.43018 13.1773Z" fill="#E82C2E"/>
<path d="M1.35998 13.4023C1.30998 13.3511 1.25998 13.3102 1.22998 13.2795C1.22998 13.433 1.22998 13.6068 1.24998 13.883C1.25998 13.8932 1.26998 13.9034 1.27998 13.9136C1.27998 13.9239 1.28998 13.9239 1.28998 13.9341C1.29998 13.9443 1.29998 13.9545 1.30998 13.9648C1.32998 13.9852 1.33998 14.0057 1.35998 14.0159C1.35998 14.0159 1.35998 14.0159 1.35998 14.0261C1.34998 13.8318 1.35998 13.5557 1.35998 13.4023Z" fill="#F3735A"/>
<path d="M8.26001 12.9114C8.26001 12.942 8.29001 12.9727 8.32001 12.9727H9.80001V12.85H8.32001C8.29001 12.85 8.26001 12.8807 8.26001 12.9114Z" fill="#E82C2E"/>
<path d="M11.78 12.9727H22.72C22.76 12.9727 22.78 12.942 22.78 12.9114C22.78 12.8807 22.75 12.85 22.72 12.85H11.78V12.9727Z" fill="#E82C2E"/>
<path d="M8.24016 9.1375C8.03016 9.14772 8.00016 9.22954 8.00016 9.30113C8.00016 9.3625 8.05016 9.43409 8.11016 9.48522L8.17016 9.53636L7.89016 9.85341L7.84016 9.84318C7.75016 9.82272 7.57016 9.73068 7.41016 9.59772C7.60016 9.87386 7.91016 10.0477 8.05016 10.0784L8.10016 10.0886L8.38016 9.77159L8.32016 9.72045C8.27016 9.66932 8.21016 9.59772 8.21016 9.53636C8.21016 9.46477 8.24016 9.37272 8.45016 9.37272C8.52016 9.37272 9.13016 9.35227 10.0502 9.33182V9.09659C9.01016 9.11704 8.31016 9.1375 8.24016 9.1375Z" fill="#D8DCDD"/>
<path d="M15.83 10.692C15.78 10.692 15.7 10.7227 15.63 10.7534V12.042H14.75V12.2773H15.85V10.9886C15.87 10.9784 15.89 10.9682 15.91 10.958V10.7636C15.91 10.7125 15.88 10.692 15.83 10.692Z" fill="#D8DCDD"/>
<path d="M20.52 10.7432C20.42 10.8659 20.3 10.9886 20.16 11.0807V11.1011C20.16 11.7557 19.48 12.1136 18.74 12.1136C18.24 12.1136 17.78 11.9807 17.52 11.6636C17.3 11.8886 16.98 12.1136 16.56 12.1136C16.43 12.1136 16.31 12.0829 16.22 12.0318C16.33 12.2466 16.52 12.3489 16.78 12.3489C17.2 12.3489 17.53 12.1239 17.74 11.8989C18 12.2159 18.47 12.3489 18.96 12.3489C19.71 12.3489 20.38 11.9909 20.38 11.3364V11.3159C20.52 11.2239 20.64 11.1011 20.74 10.9784L20.78 10.9273L20.53 10.6307L20.52 10.6409L20.57 10.7023L20.52 10.7432Z" fill="#D8DCDD"/>
<path d="M14.4601 10.692C14.4101 10.692 14.3301 10.7227 14.2601 10.7534V12.042H13.3801V12.2773H14.4801V10.9886C14.5001 10.9784 14.5201 10.9682 14.5401 10.958V10.7636C14.5301 10.7125 14.5001 10.692 14.4601 10.692Z" fill="#D8DCDD"/>
<path d="M13.1602 11.7557C12.9502 11.95 12.6502 12.1239 12.2802 12.1239C12.1502 12.1239 12.0302 12.0932 11.9402 12.042C12.0502 12.2568 12.2402 12.3591 12.5002 12.3591C12.8302 12.3591 13.1002 12.2159 13.3102 12.0523H13.1702V11.7557H13.1602Z" fill="#D8DCDD"/>
<path d="M17.0001 11.2955C17.0001 11.3466 17.0301 11.367 17.0701 11.367C17.1101 11.367 17.1601 11.3568 17.2101 11.3364V10.9886C17.2101 10.6307 17.1001 10.4057 16.9001 10.2932C16.9601 10.4159 16.9901 10.5693 16.9901 10.7636V11.2955H17.0001Z" fill="#D8DCDD"/>
<path d="M19.05 11.2955C19.03 11.2852 19.01 11.275 18.99 11.2648C19 11.2955 19.02 11.3364 19.04 11.367C19.04 11.3466 19.05 11.3159 19.05 11.2955Z" fill="#D8DCDD"/>
<path d="M18.78 10.7943C18.82 10.6716 18.92 10.5693 19.09 10.5182L19.08 10.5079C19.06 10.4977 18.94 10.4364 18.8 10.4364C18.63 10.4364 18.47 10.5795 18.47 11.0091C18.47 11.3977 18.61 11.6329 18.76 11.6636C18.72 11.5511 18.69 11.4182 18.69 11.2443C18.68 11.0193 18.72 10.8761 18.78 10.7943Z" fill="#D8DCDD"/>
<path d="M12.79 11.367C12.83 11.367 12.88 11.3568 12.93 11.3364V10.2829H12.72V11.2954C12.72 11.3364 12.75 11.367 12.79 11.367Z" fill="#D8DCDD"/>
<path d="M20.16 9.97613C20.09 9.9659 20.02 9.94545 19.96 9.91476C19.98 9.97613 20.02 10.0375 20.07 10.0784L20.12 10.0273C20.13 10.017 20.15 9.99658 20.16 9.97613Z" fill="#D8DCDD"/>
<path d="M22.6502 10.9989C22.7102 11.0909 22.7402 11.2034 22.7402 11.3466C22.7402 11.7352 22.4302 12.1239 21.5302 12.1239C21.3502 12.1239 21.1402 12.0932 20.9802 12.042L20.9102 12.1239L20.9802 12.175C21.1102 12.267 21.4602 12.3489 21.7402 12.3489C22.6402 12.3489 22.9502 11.9602 22.9502 11.5716C22.9502 11.3057 22.8102 11.1216 22.6502 10.9989Z" fill="#D8DCDD"/>
<path d="M22.2602 10.5079C22.1902 10.4773 22.1002 10.4261 22.0002 10.4261C21.9402 10.4261 21.9202 10.4364 21.9202 10.4364C21.9202 10.4364 21.9202 10.4364 21.9202 10.4466C21.9202 10.4466 21.9202 10.4466 21.9302 10.4568C21.9402 10.467 21.9502 10.4773 21.9802 10.4977C22.0302 10.5284 22.1102 10.5693 22.1902 10.6102C22.2302 10.6307 22.2702 10.6511 22.3102 10.6716C22.3802 10.6818 22.4402 10.7125 22.4902 10.7432L22.5502 10.7739L22.8402 10.4364L22.7702 10.3852C22.7202 10.3443 22.6502 10.3136 22.5602 10.2829L22.3402 10.5386L22.2602 10.5079Z" fill="#D8DCDD"/>
<path d="M20.3801 10.3341L20.3301 10.3648L20.5301 10.6L20.5901 10.5591C20.7301 10.467 21.1001 10.2011 21.1001 9.85341C21.1001 9.67954 21.0101 9.53636 20.8601 9.45454C20.8801 9.50568 20.8901 9.55682 20.8901 9.61818C20.8801 9.97614 20.5201 10.242 20.3801 10.3341Z" fill="#D8DCDD"/>
<path d="M21.4801 11.4182C21.4501 11.3977 21.4101 11.367 21.3601 11.3466C21.3101 11.3261 21.2701 11.2955 21.2201 11.2648C21.1701 11.2341 21.1301 11.2136 21.0801 11.1727C21.1601 11.3261 21.3001 11.4182 21.4301 11.5C21.4701 11.5205 21.5101 11.5409 21.5501 11.5614C21.5601 11.5511 21.5601 11.5307 21.5601 11.5205C21.5601 11.5 21.5401 11.4591 21.4801 11.4182Z" fill="#D8DCDD"/>
<path d="M12.56 9.26022C16.48 9.14772 21.79 9.00454 21.9 8.99431C22.53 8.96363 22.95 8.69772 22.95 8.25795C22.95 8.04317 22.83 7.88976 22.68 7.78749C22.71 7.85908 22.74 7.93067 22.74 8.02272C22.74 8.46249 22.32 8.7284 21.69 8.75908C21.57 8.76931 15.21 8.94317 11.28 9.05567V13.0239H10.27V13.2591H11.5V9.2909C11.59 9.2909 11.67 9.2909 11.76 9.28067C11.86 9.20908 12.01 9.16817 12.18 9.16817C12.32 9.15795 12.46 9.19885 12.56 9.26022Z" fill="#D8DCDD"/>
<path d="M12.7201 10.1602C12.8701 10.0886 12.9601 9.9659 12.9601 9.81249C12.9601 9.65908 12.8701 9.54658 12.7301 9.47499C12.7401 9.50567 12.7501 9.54658 12.7501 9.57726C12.7501 9.83295 12.5101 9.98635 12.1801 9.98635C12.0501 9.98635 11.9301 9.95567 11.8301 9.91476C11.8501 9.9659 11.8701 10.0068 11.9101 10.0477H12.7301V10.1602H12.7201Z" fill="#D8DCDD"/>
<path d="M12.2702 12.042C12.7002 12.042 13.0302 11.7864 13.2402 11.5511V11.9602H14.1702V10.7125C14.2602 10.6614 14.3702 10.6102 14.4602 10.6102C14.5502 10.6102 14.6202 10.6716 14.6202 10.7636V11.9602H15.5502V10.7534C15.5502 10.733 15.5502 10.7227 15.5502 10.7125C15.6402 10.6614 15.7502 10.6102 15.8402 10.6102C15.9302 10.6102 16.0002 10.6716 16.0002 10.7636V11.3364C16.0002 11.8273 16.2202 12.0318 16.5702 12.0318C17.0002 12.0318 17.3302 11.7659 17.5402 11.5307C17.7602 11.8784 18.2302 12.0318 18.7502 12.0318C19.4802 12.0318 20.0902 11.6841 20.0902 11.1011C20.0902 11.0807 20.0902 11.0602 20.0902 11.0398C20.2402 10.9477 20.3702 10.825 20.4702 10.692L20.3202 10.5182C20.2502 10.5898 20.1102 10.6716 19.9402 10.733C19.8902 10.6818 19.8302 10.6409 19.7502 10.6102C19.6602 10.242 19.0502 10.058 18.7002 10.058C17.8302 10.058 17.4002 10.4773 17.4002 11.05C17.4002 11.142 17.4102 11.2341 17.4302 11.3159C17.3302 11.3875 17.1902 11.4591 17.0802 11.4591C16.9902 11.4591 16.9202 11.3977 16.9202 11.3057V10.7739C16.9202 10.2727 16.7002 10.0784 16.3502 10.0784C15.9902 10.0784 15.7102 10.2625 15.5002 10.4568C15.4202 10.1909 15.2302 10.0784 14.9802 10.0784C14.6502 10.0784 14.3702 10.2318 14.1702 10.4159V10.1602H13.2402V11.2648C13.1402 11.3466 12.9402 11.4795 12.7902 11.4795C12.7002 11.4795 12.6302 11.4182 12.6302 11.3261V10.1295H11.7002V11.3364C11.7102 11.8375 11.9302 12.042 12.2702 12.042ZM19.9602 10.8045C20.0902 10.7534 20.2202 10.692 20.3002 10.6307L20.3602 10.7023C20.3402 10.7227 20.3202 10.7432 20.3002 10.7636C20.2302 10.8045 20.1502 10.8455 20.0602 10.8761L20.0102 10.8966L19.9702 10.8659C19.9602 10.8557 19.9402 10.8352 19.9302 10.825L19.9602 10.8045ZM18.3802 11.0091C18.3802 10.5693 18.5502 10.3545 18.8002 10.3545C18.9502 10.3545 19.1602 10.4773 19.1702 10.5795C18.9402 10.6409 18.8502 10.7739 18.8502 10.9273C18.8502 11.0807 18.9802 11.1932 19.1502 11.2443C19.1202 11.4693 19.0402 11.7455 18.7802 11.7455C18.5402 11.7455 18.3802 11.3977 18.3802 11.0091ZM19.3202 11.3159C19.3002 11.5307 19.2002 11.8886 18.8702 11.8886C18.7802 11.8886 18.7002 11.858 18.6402 11.7966C18.6802 11.817 18.7202 11.8273 18.7702 11.8273C19.1002 11.8273 19.1902 11.4693 19.2202 11.2545V11.2239C19.2302 11.2239 19.2502 11.2341 19.2602 11.2341L19.3202 11.2545V11.3159ZM19.8502 10.7636C19.7602 10.7125 19.6502 10.692 19.5202 10.692C19.1302 10.692 19.0202 10.8455 19.0202 10.9989C19.0202 11.05 19.0402 11.1011 19.0802 11.142C18.9702 11.0909 18.9202 11.0193 18.9202 10.9273C18.9202 10.7841 19.0302 10.6205 19.4202 10.6205C19.5902 10.6205 19.7402 10.6716 19.8502 10.7636ZM17.0802 11.5205C17.2102 11.5205 17.3702 11.4386 17.4702 11.367L17.5102 11.3364L17.5002 11.2852C17.4802 11.2136 17.4702 11.1318 17.4702 11.0398C17.4702 10.5182 17.8502 10.1193 18.7002 10.1193C18.9002 10.1193 19.0902 10.1705 19.2102 10.2216L19.1902 10.242C19.0802 10.2114 18.9402 10.1807 18.8002 10.1807C17.9602 10.1807 17.5702 10.5795 17.5702 11.1011C17.5702 11.1932 17.5802 11.275 17.6002 11.3466L17.6102 11.3977C17.6202 11.4284 17.6902 11.5614 17.6902 11.5614C17.7402 11.6432 17.8002 11.7045 17.8802 11.7659C17.7702 11.7045 17.6202 11.5409 17.5502 11.4386L17.5302 11.408L17.4602 11.4795L17.4502 11.4898C17.3602 11.5409 17.2602 11.5818 17.1602 11.5818C17.0902 11.5818 17.0202 11.5511 16.9802 11.5C17.0202 11.5205 17.0502 11.5205 17.0802 11.5205ZM16.0702 11.3364V10.7636C16.0702 10.7023 16.0502 10.6511 16.0202 10.6102C16.1102 10.6409 16.1702 10.7227 16.1702 10.825V11.3977C16.1702 11.6534 16.2302 11.817 16.3302 11.9091C16.1702 11.8477 16.0702 11.6739 16.0702 11.3364ZM15.5502 10.4875C15.7502 10.3034 16.0202 10.1295 16.3502 10.1295C16.4802 10.1295 16.5902 10.1602 16.6802 10.242C16.6102 10.2114 16.5402 10.2011 16.4502 10.2011C16.1202 10.2011 15.8502 10.3648 15.6502 10.5591L15.6102 10.6C15.5902 10.6102 15.5702 10.6205 15.5602 10.6307L15.5302 10.5386V10.5284L15.5502 10.4875ZM14.7902 11.8886H14.6902V10.7636C14.6902 10.7023 14.6702 10.6511 14.6402 10.6102C14.7302 10.6409 14.7902 10.7227 14.7902 10.825V11.8886ZM14.1902 10.467L14.2102 10.4466C14.4102 10.2727 14.6602 10.1295 14.9702 10.1295C15.1002 10.1295 15.2102 10.1602 15.3002 10.242C15.2402 10.2114 15.1602 10.2011 15.0802 10.2011C14.7702 10.2011 14.5202 10.3443 14.3202 10.5182L14.2302 10.6C14.2202 10.6102 14.2102 10.6102 14.1902 10.6205V10.467ZM12.7902 11.5205C12.9702 11.5205 13.1802 11.3773 13.2802 11.2955L13.3102 11.275V10.2114H14.0902V10.2727H13.4102V11.2239V11.3364V11.8886H13.3102V11.4182V11.3568L13.1802 11.5C13.0902 11.5511 12.9802 11.592 12.8902 11.592C12.8202 11.592 12.7502 11.5614 12.7102 11.5102C12.7402 11.5205 12.7702 11.5205 12.7902 11.5205ZM11.7802 10.2114H12.5602V10.2727H11.8802V11.408C11.8802 11.6636 11.9402 11.8273 12.0402 11.9193C11.8802 11.8477 11.7802 11.6636 11.7802 11.3364V10.2114Z" fill="#003055"/>
<path d="M20.1801 10.0886L20.3301 10.2625C20.4801 10.1704 20.8001 9.92499 20.8001 9.6284C20.8001 9.4034 20.6201 9.23976 20.3101 9.23976C20.0001 9.23976 19.8201 9.38294 19.8201 9.56703C19.8201 9.7409 19.9901 9.88408 20.2901 9.89431C20.2601 9.97612 20.2301 10.0477 20.1801 10.0886ZM20.4501 9.99658C20.4401 10.0375 20.4201 10.0784 20.3901 10.1193C20.3701 10.1295 20.3501 10.15 20.3401 10.1602L20.2701 10.0784C20.3001 10.0273 20.3301 9.97613 20.3401 9.92499L20.3501 9.89431H20.3701H20.4701L20.4501 9.99658ZM19.9901 9.63862C19.9901 9.68976 20.0101 9.7409 20.0501 9.78181C19.9401 9.73067 19.8901 9.64885 19.8901 9.56703C19.8901 9.44431 20.0101 9.31135 20.3101 9.31135C20.4701 9.31135 20.5801 9.35226 20.6401 9.42385C20.5801 9.39317 20.5001 9.38294 20.4101 9.38294C20.1101 9.38294 19.9901 9.52612 19.9901 9.63862Z" fill="#003055"/>
<path d="M12.6602 9.57727C12.6602 9.39318 12.4802 9.25 12.1702 9.25C11.8602 9.25 11.6802 9.39318 11.6802 9.57727C11.6802 9.76136 11.8602 9.90455 12.1702 9.90455C12.4902 9.90455 12.6602 9.76136 12.6602 9.57727ZM11.9202 9.79205C11.8102 9.74091 11.7602 9.65909 11.7602 9.57727C11.7602 9.45455 11.8802 9.32159 12.1802 9.32159C12.3602 9.32159 12.4702 9.37273 12.5302 9.43409C12.4702 9.40341 12.3802 9.39318 12.2802 9.39318C11.9802 9.39318 11.8602 9.52614 11.8602 9.64886C11.8602 9.68977 11.8802 9.74091 11.9202 9.79205Z" fill="#003055"/>
<path d="M22.65 11.3466C22.65 10.9784 22.38 10.8045 22.13 10.6818C21.96 10.6 21.82 10.5386 21.82 10.4568C21.82 10.4057 21.85 10.3443 21.99 10.3443C22.11 10.3443 22.22 10.3954 22.29 10.4261L22.48 10.2011C22.37 10.1193 22.13 10.0375 21.79 10.0375C21.09 10.0375 20.87 10.4159 20.87 10.6204C20.87 11.2136 21.64 11.2136 21.64 11.5102C21.64 11.6023 21.54 11.725 21.32 11.725C21.19 11.725 21.03 11.6636 20.99 11.6432L20.8 11.8682C20.91 11.95 21.24 12.0318 21.51 12.0318C22.4 12.042 22.65 11.6739 22.65 11.3466ZM22.1 10.7534C22.18 10.7943 22.26 10.8352 22.33 10.8864C22.29 10.8659 22.25 10.8352 22.2 10.8148C22.11 10.7739 22.03 10.7329 21.97 10.7023C21.95 10.692 21.93 10.6818 21.92 10.6614C21.98 10.692 22.04 10.7227 22.1 10.7534ZM21.27 11.1114C21.09 11.0091 20.95 10.8761 20.95 10.6409C20.95 10.4875 21.12 10.1295 21.79 10.1295C22.05 10.1295 22.25 10.1807 22.37 10.2318L22.35 10.2523C22.24 10.2216 22.08 10.1909 21.89 10.1909C21.22 10.1909 21.05 10.5386 21.05 10.7023C21.05 10.8966 21.14 11.0193 21.27 11.1114ZM21.12 11.817L21.05 11.8989C21 11.8886 20.96 11.8682 20.93 11.8579L21.02 11.7557C21.1 11.7864 21.22 11.817 21.33 11.817C21.57 11.817 21.72 11.6841 21.72 11.5307C21.72 11.4284 21.66 11.3568 21.59 11.3057C21.62 11.3261 21.64 11.3364 21.67 11.3568C21.75 11.4079 21.82 11.4898 21.82 11.6023C21.82 11.7557 21.67 11.8886 21.43 11.8886C21.32 11.8784 21.2 11.8477 21.12 11.817Z" fill="#003055"/>
<path d="M22.6501 8.03294C22.6501 7.78749 22.4501 7.63408 22.2701 7.55226L22.0801 7.77726C22.1301 7.8284 22.2101 7.88976 22.2101 7.97158C22.2101 8.08408 22.1401 8.20681 21.5601 8.20681H8.02012C7.42012 8.20681 7.12012 8.53408 7.12012 8.90226C7.12012 9.39317 7.66012 9.72044 7.85012 9.78181L8.04012 9.55681C7.99012 9.50567 7.91012 9.41363 7.91012 9.32158C7.91012 9.19885 7.98012 9.07612 8.23012 9.07612C8.30012 9.07612 9.04012 9.05567 10.1301 9.02499V12.9318H11.2001V8.97385C15.1201 8.86135 21.5601 8.68749 21.6901 8.67726C22.3001 8.64658 22.6501 8.3909 22.6501 8.03294ZM10.3201 12.8602H10.2201V8.99431H10.2401H10.3201V12.8602ZM8.12012 8.32953C7.55012 8.32953 7.30012 8.63635 7.30012 8.9534C7.30012 9.22953 7.51012 9.46476 7.70012 9.60794C7.48012 9.47499 7.20012 9.21931 7.20012 8.88181C7.20012 8.56476 7.45012 8.25794 8.02012 8.25794H21.5601C22.1201 8.25794 22.2801 8.14544 22.2801 7.95112C22.2801 7.88976 22.2501 7.83862 22.2201 7.79772C22.2101 7.78749 22.1901 7.76703 22.1801 7.75681L22.2901 7.63408C22.3401 7.65453 22.3801 7.68522 22.4201 7.7159L22.3901 7.70567L22.2801 7.8284C22.2901 7.83863 22.3101 7.85908 22.3201 7.86931C22.3501 7.91022 22.3801 7.96135 22.3801 8.02272C22.3801 8.21703 22.2201 8.32953 21.6601 8.32953H8.12012Z" fill="#003055"/>
<path d="M18.9202 10.9273C18.9202 11.0193 18.9802 11.0909 19.0802 11.142C19.0402 11.1011 19.0202 11.05 19.0202 10.9989C19.0202 10.8557 19.1302 10.692 19.5202 10.692C19.6402 10.692 19.7602 10.7227 19.8502 10.7636C19.7502 10.6716 19.6002 10.6205 19.4202 10.6205C19.0302 10.6205 18.9202 10.7841 18.9202 10.9273Z" fill="#005D87"/>
<path d="M21.8202 11.592C21.8202 11.4795 21.7502 11.408 21.6702 11.3466C21.6502 11.3261 21.6202 11.3159 21.5902 11.2955C21.6602 11.3466 21.7202 11.4182 21.7202 11.5205C21.7202 11.6739 21.5702 11.8068 21.3302 11.8068C21.2202 11.8068 21.1002 11.7761 21.0202 11.7455L20.9302 11.8477C20.9602 11.858 21.0102 11.8784 21.0502 11.8886L21.1202 11.8068C21.2002 11.8375 21.3202 11.8682 21.4302 11.8682C21.6702 11.8784 21.8202 11.7455 21.8202 11.592Z" fill="#005D87"/>
<path d="M19.2201 11.2239V11.2545C19.2001 11.4693 19.1001 11.8273 18.7701 11.8273C18.7201 11.8273 18.6801 11.817 18.6401 11.7966C18.7001 11.858 18.7801 11.8886 18.8701 11.8886C19.2001 11.8886 19.2901 11.5307 19.3201 11.3159L19.3301 11.2545L19.2701 11.2341C19.2501 11.2341 19.2401 11.2239 19.2201 11.2239Z" fill="#005D87"/>
<path d="M12.05 11.9193C11.95 11.8273 11.89 11.6636 11.89 11.4079V10.2727H12.57V10.2011H11.79V11.3364C11.78 11.6739 11.88 11.8477 12.05 11.9193Z" fill="#005D87"/>
<path d="M20.37 9.89432L20.36 9.925C20.34 9.97614 20.32 10.0273 20.29 10.0784L20.36 10.1602C20.38 10.15 20.39 10.1398 20.41 10.1193C20.43 10.0784 20.45 10.0375 20.47 9.99659L20.5 9.90454H20.4L20.37 9.89432Z" fill="#005D87"/>
<path d="M22.2102 10.825C22.2502 10.8454 22.3002 10.8659 22.3402 10.8966C22.2702 10.8454 22.1902 10.8045 22.1102 10.7636C22.0402 10.7329 21.9802 10.7023 21.9302 10.6716C21.9502 10.6818 21.9702 10.7023 21.9802 10.7125C22.0402 10.7432 22.1202 10.7739 22.2102 10.825Z" fill="#005D87"/>
<path d="M22.3902 8.02273C22.3902 7.96137 22.3602 7.91023 22.3302 7.86932C22.3202 7.84887 22.3002 7.83864 22.2902 7.82841L22.4002 7.70569L22.4302 7.71591C22.3902 7.68523 22.3502 7.65455 22.3002 7.63409L22.1902 7.75682C22.2002 7.76705 22.2202 7.7875 22.2302 7.79773C22.2602 7.83864 22.2902 7.88978 22.2902 7.95114C22.2902 8.14546 22.1302 8.25796 21.5702 8.25796H8.02019C7.4502 8.25796 7.2002 8.56478 7.2002 8.88182C7.2002 9.20909 7.4902 9.475 7.7002 9.60796C7.5002 9.46478 7.3002 9.22955 7.3002 8.95341C7.3002 8.63637 7.5502 8.32955 8.12019 8.32955H21.6602C22.2302 8.32955 22.3902 8.21705 22.3902 8.02273Z" fill="#005D87"/>
<path d="M21.8902 10.2011C22.0802 10.2011 22.2302 10.2318 22.3502 10.2625L22.3702 10.242C22.2602 10.1909 22.0602 10.1398 21.7902 10.1398C21.1202 10.1398 20.9502 10.4875 20.9502 10.6511C20.9502 10.8966 21.0902 11.0193 21.2702 11.1216C21.1402 11.0295 21.0502 10.9068 21.0502 10.7125C21.0502 10.5489 21.2202 10.2011 21.8902 10.2011Z" fill="#005D87"/>
<path d="M12.27 9.38295C12.38 9.38295 12.46 9.4034 12.52 9.42386C12.46 9.36249 12.34 9.31136 12.17 9.31136C11.87 9.31136 11.75 9.44431 11.75 9.56704C11.75 9.64886 11.8 9.73067 11.91 9.78181C11.87 9.7409 11.85 9.68976 11.85 9.63863C11.86 9.52613 11.98 9.38295 12.27 9.38295Z" fill="#005D87"/>
<path d="M10.21 8.99431V12.8602H10.32V8.99431H10.24H10.21Z" fill="#005D87"/>
<path d="M20.0102 10.8966L20.0602 10.8761C20.1502 10.8454 20.2302 10.8045 20.3002 10.7636C20.3202 10.7432 20.3402 10.7227 20.3602 10.7023L20.3002 10.6307C20.2102 10.692 20.0902 10.7534 19.9602 10.8045L19.9302 10.8148C19.9502 10.825 19.9602 10.8454 19.9702 10.8557L20.0102 10.8966Z" fill="#005D87"/>
<path d="M20.6401 9.43409C20.5701 9.37273 20.4601 9.32159 20.3101 9.32159C20.0101 9.32159 19.8901 9.45455 19.8901 9.57728C19.8901 9.65909 19.9401 9.74091 20.0501 9.79205C20.0101 9.75114 19.9901 9.7 19.9901 9.64887C19.9901 9.52614 20.1101 9.39319 20.4101 9.39319C20.5001 9.38296 20.5801 9.40341 20.6401 9.43409Z" fill="#005D87"/>
<path d="M15.56 10.6102C15.58 10.6 15.6 10.5898 15.61 10.5795L15.65 10.5386C15.85 10.3545 16.12 10.1807 16.45 10.1807C16.53 10.1807 16.61 10.1909 16.68 10.2216C16.6 10.1398 16.48 10.1091 16.35 10.1091C16.02 10.1091 15.75 10.2727 15.55 10.467L15.52 10.4875V10.4977L15.56 10.6102Z" fill="#005D87"/>
<path d="M16.17 10.825C16.17 10.7125 16.1 10.6409 16.02 10.6102C16.05 10.6511 16.07 10.7023 16.07 10.7636V11.3364C16.07 11.6636 16.17 11.8477 16.33 11.9193C16.23 11.8273 16.17 11.6636 16.17 11.408V10.825Z" fill="#005D87"/>
<path d="M17.46 11.5L17.53 11.4182L17.55 11.4489C17.62 11.5511 17.76 11.7148 17.88 11.7761C17.8 11.7148 17.74 11.6534 17.69 11.5716C17.69 11.5716 17.62 11.4386 17.61 11.408L17.6 11.3568C17.58 11.2852 17.57 11.2034 17.57 11.1114C17.57 10.5898 17.95 10.1909 18.8 10.1909C18.94 10.1909 19.08 10.2216 19.19 10.2523L19.21 10.2318C19.09 10.1807 18.9 10.1295 18.7 10.1295C17.86 10.1295 17.47 10.5284 17.47 11.05C17.47 11.142 17.48 11.2239 17.5 11.2955L17.51 11.3466L17.47 11.3773C17.36 11.4489 17.21 11.5307 17.08 11.5307C17.05 11.5307 17.03 11.5307 17 11.5205C17.04 11.5716 17.11 11.6023 17.18 11.6023C17.27 11.592 17.37 11.5511 17.46 11.5Z" fill="#005D87"/>
<path d="M14.6401 10.6102C14.6701 10.6511 14.6901 10.7023 14.6901 10.7636V11.8886H14.7901V10.825C14.7901 10.7227 14.7301 10.6409 14.6401 10.6102Z" fill="#005D87"/>
<path d="M14.3202 10.5079C14.5202 10.3341 14.7702 10.1909 15.0802 10.1909C15.1702 10.1909 15.2402 10.2011 15.3002 10.2318C15.2202 10.1602 15.1102 10.1193 14.9702 10.1193C14.6602 10.1193 14.4102 10.2625 14.2102 10.4364L14.1902 10.4568V10.6C14.2002 10.5898 14.2102 10.5898 14.2302 10.5795L14.3202 10.5079Z" fill="#005D87"/>
<path d="M13.18 11.5L13.31 11.3568V11.4182V11.8886H13.41V11.3364V11.2239V10.2727H14.09V10.2011H13.31V11.2648L13.28 11.2852C13.18 11.367 12.96 11.5102 12.79 11.5102C12.76 11.5102 12.74 11.5102 12.71 11.5C12.75 11.5511 12.82 11.5818 12.89 11.5818C12.99 11.592 13.09 11.5511 13.18 11.5Z" fill="#005D87"/>
<path d="M9.15999 13.617H8.98999V14.2409H9.15999V13.617Z" fill="#003055"/>
<path d="M8.56001 13.6068L8.26001 14.2409H8.42001L8.44001 14.1898H8.68001L8.70001 14.2409H8.87001L8.57001 13.6068C8.57001 13.6068 8.57001 13.6068 8.56001 13.6068ZM8.50001 14.067L8.56001 13.9239L8.62001 14.067H8.50001Z" fill="#003055"/>
<path d="M11.1801 13.617C11.0001 13.617 10.8401 13.75 10.8401 13.9341C10.8401 14.1182 11.0001 14.2511 11.1801 14.2511C11.3601 14.2511 11.5201 14.1182 11.5201 13.9341C11.5101 13.7398 11.3601 13.617 11.1801 13.617ZM11.1801 14.1079C11.0801 14.1079 11.0201 14.0364 11.0201 13.9341C11.0201 13.8318 11.0801 13.7602 11.1801 13.7602C11.2801 13.7602 11.3401 13.8318 11.3401 13.9341C11.3401 14.0261 11.2801 14.1079 11.1801 14.1079Z" fill="#003055"/>
<path d="M10.5002 14.1079C10.4002 14.1079 10.3502 14.0364 10.3502 13.9341C10.3502 13.8318 10.4102 13.7602 10.5002 13.7602C10.5802 13.7602 10.6202 13.8011 10.6402 13.8318L10.7702 13.75C10.7202 13.6784 10.6302 13.617 10.5002 13.617C10.3302 13.617 10.1802 13.75 10.1802 13.9341C10.1802 14.1182 10.3302 14.2511 10.5102 14.2511C10.6402 14.2511 10.7202 14.2102 10.7802 14.1079L10.6502 14.0261C10.6202 14.067 10.5802 14.1079 10.5002 14.1079Z" fill="#003055"/>
<path d="M9.81006 13.8625C9.81006 13.7295 9.72006 13.617 9.55006 13.617H9.31006V14.2409H9.48006V14.0977H9.54006L9.63006 14.2409H9.81006L9.70006 14.067C9.77006 14.0261 9.81006 13.9545 9.81006 13.8625ZM9.54006 13.9648H9.48006V13.7602H9.54006C9.62006 13.7602 9.64006 13.8011 9.64006 13.8625C9.64006 13.9239 9.62006 13.9648 9.54006 13.9648Z" fill="#003055"/>
<path d="M12.0401 13.9341L11.6501 13.617C11.6401 13.6068 11.6401 13.617 11.6401 13.617V14.2409H11.8001V13.9341L12.1901 14.2511C12.2001 14.2614 12.2001 14.2614 12.2001 14.2511V13.6273H12.0401V13.9341Z" fill="#003055"/>
<path d="M16.5001 13.9341L16.1101 13.617C16.1001 13.6068 16.1001 13.617 16.1001 13.617V14.2409H16.2601V13.9341L16.6501 14.2511C16.6601 14.2614 16.6601 14.2614 16.6601 14.2511V13.6273H16.5001V13.9341Z" fill="#003055"/>
<path d="M15.94 13.617H15.77V14.2409H15.94V13.617Z" fill="#003055"/>
<path d="M17.11 14.0261H17.23V14.0773C17.2 14.0875 17.17 14.0977 17.11 14.0977C17 14.0977 16.94 14.0159 16.94 13.9239C16.94 13.8216 17 13.75 17.1 13.75C17.16 13.75 17.21 13.7807 17.24 13.8114L17.36 13.7091C17.31 13.6375 17.22 13.5966 17.11 13.5966C16.93 13.5966 16.78 13.7295 16.78 13.9136C16.78 14.0977 16.93 14.2307 17.12 14.2307C17.26 14.2307 17.33 14.1898 17.39 14.1489V13.8932H17.12V14.0261H17.11Z" fill="#003055"/>
<path d="M18.33 13.9136H18.19C18.19 13.9443 18.18 13.975 18.17 13.9954L18.09 13.9034C18.17 13.8625 18.2 13.8216 18.2 13.75C18.2 13.6682 18.13 13.6068 18.02 13.6068C17.91 13.6068 17.84 13.6682 17.84 13.7602C17.84 13.7909 17.85 13.842 17.88 13.8829C17.79 13.9239 17.74 13.975 17.74 14.067C17.74 14.1795 17.84 14.2511 17.98 14.2511C18.04 14.2511 18.09 14.2409 18.13 14.2102L18.15 14.2409H18.34L18.24 14.1182C18.3 14.0568 18.33 13.9954 18.33 13.9136ZM18 14.1182C17.94 14.1182 17.92 14.0875 17.92 14.0568C17.92 14.0261 17.93 14.0057 17.96 13.9852L18.06 14.1079C18.04 14.1079 18.02 14.1182 18 14.1182ZM18.03 13.8216C18.01 13.8011 18 13.7807 18 13.7602C18 13.7295 18.01 13.7295 18.04 13.7295C18.06 13.7295 18.07 13.7398 18.07 13.7704C18.07 13.7807 18.05 13.8011 18.03 13.8216Z" fill="#003055"/>
<path d="M19.12 13.9034H18.9V13.617H18.73V14.2409H18.9V14.0466H19.12V14.2409H19.29V13.617H19.12V13.9034Z" fill="#003055"/>
<path d="M13.21 13.617H13.04V14.2409H13.21V13.617Z" fill="#003055"/>
<path d="M19.6102 14.0364H19.8302V13.9034H19.6102V13.7602H19.8802V13.617H19.4402V14.2409H19.8902V14.0977H19.6102V14.0364Z" fill="#003055"/>
<path d="M13.3301 13.7602H13.5001V14.2409H13.6601V13.7602H13.8301V13.617H13.3301V13.7602Z" fill="#003055"/>
<path d="M14.1202 13.617H13.9502V14.2409H14.1202V13.617Z" fill="#003055"/>
<path d="M15.45 13.9341L15.06 13.617C15.05 13.6068 15.05 13.617 15.05 13.617V14.2409H15.21V13.9341L15.6 14.2511C15.61 14.2614 15.61 14.2614 15.61 14.2511V13.6273H15.45V13.9341Z" fill="#003055"/>
<path d="M14.58 13.617C14.4 13.617 14.24 13.75 14.24 13.9341C14.24 14.1182 14.4 14.2511 14.58 14.2511C14.76 14.2511 14.92 14.1182 14.92 13.9341C14.92 13.7398 14.76 13.617 14.58 13.617ZM14.58 14.1079C14.48 14.1079 14.42 14.0364 14.42 13.9341C14.42 13.8318 14.48 13.7602 14.58 13.7602C14.68 13.7602 14.74 13.8318 14.74 13.9341C14.75 14.0261 14.69 14.1079 14.58 14.1079Z" fill="#003055"/>
<path d="M20.29 13.6068L19.99 14.2409H20.15L20.17 14.1898H20.41L20.43 14.2409H20.6L20.3 13.6068H20.29ZM20.22 14.067L20.28 13.9239L20.34 14.067H20.22Z" fill="#003055"/>
<path d="M20.5801 13.7602H20.7501V14.2409H20.9101V13.7602H21.0801V13.617H20.5801V13.7602Z" fill="#003055"/>
<path d="M21.3702 13.617H21.2002V14.2409H21.3702V13.617Z" fill="#003055"/>
<path d="M22.55 14.0261H22.67V14.0773C22.64 14.0875 22.61 14.0977 22.55 14.0977C22.44 14.0977 22.38 14.0159 22.38 13.9239C22.38 13.8216 22.44 13.75 22.54 13.75C22.6 13.75 22.65 13.7807 22.68 13.8114L22.8 13.7091C22.75 13.6375 22.66 13.5966 22.55 13.5966C22.37 13.5966 22.22 13.7295 22.22 13.9136C22.22 14.0977 22.37 14.2307 22.56 14.2307C22.7 14.2307 22.77 14.1898 22.83 14.1489V13.8932H22.56V14.0261H22.55Z" fill="#003055"/>
<path d="M12.6001 13.617H12.3601V14.2409H12.6001C12.7801 14.2409 12.9201 14.1284 12.9201 13.9341C12.9101 13.7398 12.7801 13.617 12.6001 13.617ZM12.5801 14.0977H12.5201V13.7602H12.5801C12.6801 13.7602 12.7401 13.8318 12.7401 13.9341C12.7401 14.0364 12.6801 14.0977 12.5801 14.0977Z" fill="#003055"/>
<path d="M21.94 13.9341L21.55 13.617C21.54 13.6068 21.54 13.617 21.54 13.617V14.2409H21.7V13.9341L22.09 14.2511C22.1 14.2614 22.1 14.2614 22.1 14.2511V13.6273H21.94V13.9341Z" fill="#003055"/>
<path d="M3.15996 14.7829L3.13996 14.7932C2.84996 14.9466 2.54996 15.0898 2.37996 15.1614L2.35996 15.1716L2.33996 15.1614C2.12996 15.0079 1.75996 14.6807 1.45996 14.3943C1.75996 14.7011 2.22996 15.1204 2.46996 15.2943L2.48996 15.3045L2.50996 15.2943C2.68996 15.2125 2.98996 15.0795 3.26996 14.9261L3.28996 14.9159V14.8954C3.29996 14.65 3.31996 14.2 3.31996 14.0057V13.9852L3.29996 13.975C3.26996 13.9545 3.22996 13.9239 3.17996 13.8932C3.17996 14.0977 3.15996 14.5273 3.14996 14.7523L3.15996 14.7829Z" fill="#D8DCDD"/>
<path d="M3.47013 9.5875C3.31013 9.55682 2.96013 9.475 2.71013 9.40341C2.70013 9.41364 2.69013 9.42387 2.67013 9.44432L2.63013 9.48523L2.69013 9.50568C2.86013 9.55682 3.15013 9.62841 3.38013 9.68978C3.41013 9.65909 3.44013 9.62841 3.48013 9.60796C3.48013 9.59773 3.47013 9.59773 3.47013 9.5875Z" fill="#D8DCDD"/>
<path d="M3.83007 12.4205C3.54007 12.5125 2.88007 12.8602 2.59007 13.1773L2.58007 13.1875H2.57007C2.59007 13.2386 2.60007 13.2898 2.60007 13.3409C2.60007 13.3716 2.60007 13.4023 2.59007 13.433V13.4432C2.64007 13.4739 2.69007 13.5148 2.74007 13.5455C2.74007 13.525 2.75007 13.5045 2.75007 13.4841C2.75007 13.433 2.74007 13.3818 2.72007 13.3307H2.73007L2.74007 13.3205C3.02007 13.0239 3.64007 12.6864 3.95007 12.5841C3.96007 12.5636 3.97007 12.5432 3.97007 12.5227C3.91007 12.4818 3.92007 12.4818 3.83007 12.4205Z" fill="#D8DCDD"/>
<path d="M8.47003 11.6023C8.61002 11.6023 8.78003 11.5511 8.92002 11.4693C9.05002 11.3977 9.17002 11.3057 9.20002 11.2034C9.26003 11.1625 9.31002 11.0909 9.31002 11.0193C9.31002 10.9682 9.29002 10.9375 9.26002 10.917C9.25002 10.8659 9.21002 10.825 9.15002 10.8148C9.16002 10.8352 9.17002 10.8557 9.17002 10.8761C9.17002 10.9477 9.12003 11.0193 9.06003 11.0602C9.03003 11.1625 8.92003 11.2545 8.78003 11.3261C8.64003 11.3977 8.47003 11.4591 8.33003 11.4591C8.24003 11.4591 8.17002 11.4489 8.12003 11.4284C8.11002 11.4898 8.10003 11.5409 8.08003 11.592V11.6023L8.06003 11.6125C7.73003 11.7455 7.06003 11.8989 6.47003 12.0216C6.37003 12.5636 6.12003 13.0136 6.12003 13.7193C6.12003 14.0466 6.21003 14.4148 6.29003 14.6295V14.6398L6.30003 14.6705C6.29003 14.6909 6.28003 14.7011 6.26003 14.7216C6.33003 14.7523 6.44003 14.7932 6.49003 14.8136C6.55003 14.8443 6.55003 14.8852 6.50003 14.9159C6.42003 14.967 6.13003 15.008 5.91003 14.9057C5.82003 14.9364 5.72003 14.9568 5.65003 14.9568C5.64003 14.9568 5.63003 14.9568 5.62003 14.9568H5.61003H5.60003C5.50003 14.875 5.40003 14.742 5.31003 14.6091C5.19003 14.6295 5.07003 14.6398 4.95003 14.6705C4.89003 14.6807 4.83003 14.6909 4.77003 14.7011C4.88003 14.5477 4.99003 14.4148 5.11003 14.292C5.08003 14.2307 5.04003 14.1693 5.02003 14.108C4.71003 14.3739 4.48003 14.7625 4.26003 15.1716V15.1818H4.25003C4.21003 15.2125 4.15003 15.2227 4.08003 15.233C4.09003 15.4068 4.02003 15.5398 3.94003 15.5398C3.79003 15.5398 3.67003 15.3761 3.63003 15.192C3.54003 15.1716 3.48003 15.1409 3.45003 15.0795C3.45003 15.0693 3.45003 15.0693 3.45003 15.0591C2.94003 15.2534 2.64003 15.4784 2.67003 15.6523C2.73003 15.9693 3.84003 16.0409 5.15003 15.8057C6.46003 15.5705 7.48002 15.1307 7.42002 14.8136C7.39003 14.6193 6.97003 14.517 6.36003 14.517C6.31003 14.3227 6.27003 14.0773 6.27003 13.8625C6.27003 13.1568 6.52003 12.6966 6.62003 12.1648C7.21003 12.042 7.88002 11.8886 8.21003 11.7557L8.23003 11.7455V11.7352C8.25003 11.6841 8.26003 11.633 8.27002 11.5716C8.31002 11.592 8.38002 11.6023 8.47003 11.6023Z" fill="#D8DCDD"/>
<path d="M3.81001 10.4261C3.69001 10.4261 3.59001 10.3955 3.51001 10.3443C3.59001 10.467 3.74001 10.5693 3.94001 10.5693C4.02001 10.5693 4.08001 10.5591 4.12001 10.5386C4.08001 10.4875 4.04001 10.4466 4.00001 10.3955C3.96001 10.4159 3.90001 10.4261 3.81001 10.4261Z" fill="#D8DCDD"/>
<path d="M8.87999 10.7023C8.85999 10.6716 8.81999 10.6511 8.76999 10.6511C8.76999 10.6511 8.76999 10.6511 8.75999 10.6511C8.75999 10.6818 8.74999 10.7125 8.73999 10.7432C8.78999 10.733 8.83999 10.7125 8.87999 10.7023Z" fill="#D8DCDD"/>
<path d="M6.30018 9.92499C6.30018 10.1807 6.20018 10.4364 6.06018 10.5898C6.12018 10.6 6.19018 10.6204 6.27018 10.6307C6.38018 10.4773 6.44018 10.2727 6.44018 10.0579C6.44018 9.43408 6.07018 8.88181 5.82018 8.60567C6.02018 8.52385 6.13018 8.45226 6.13018 8.40113C6.13018 8.37045 6.06018 8.34999 5.92018 8.34999C5.87018 8.3909 5.78018 8.43181 5.68018 8.47272C5.93018 8.74885 6.30018 9.30113 6.30018 9.92499Z" fill="#D8DCDD"/>
<path d="M5.87019 8.21704C5.91019 8.11477 5.97019 8.00227 6.02019 7.9L6.04019 7.85909L6.00019 7.84886C5.96019 7.83863 5.91019 7.82841 5.86019 7.80795C5.80019 7.94091 5.73019 8.07386 5.69019 8.19659C5.76019 8.20682 5.82019 8.21704 5.87019 8.21704Z" fill="#D8DCDD"/>
<path d="M2.35016 14.2409C2.27016 14.1795 1.68016 13.6784 1.36016 13.4023C1.36016 13.5454 1.35016 13.8216 1.36016 14.0159C1.60016 14.2716 2.06016 14.7011 2.34016 14.9159C2.35016 14.6704 2.35016 14.4454 2.35016 14.2409Z" fill="#E82C2E"/>
<path d="M2.53999 13.6682C2.52999 13.7602 2.49999 13.8318 2.44999 13.8216C2.40999 13.8114 2.40999 13.7602 2.40999 13.6989C2.35999 13.7295 2.29999 13.75 2.20999 13.75C2.19999 13.75 2.17999 13.75 2.16999 13.75C2.03999 13.7398 1.94999 13.6784 1.86999 13.5864C1.73999 13.525 1.64999 13.4125 1.62999 13.2795C1.58999 13.2898 1.53999 13.3102 1.48999 13.3204C1.68999 13.525 2.21999 13.9648 2.42999 14.1591C2.41999 14.1693 2.39999 14.1693 2.38999 14.1693C2.54999 14.1079 2.86999 13.975 2.97999 13.9239C2.90999 13.8727 2.73999 13.75 2.53999 13.617C2.53999 13.6273 2.53999 13.6477 2.53999 13.6682Z" fill="#E82C2E"/>
<path d="M1.49001 13.3204C1.54001 13.3 1.59001 13.2898 1.63001 13.2795C1.63001 13.2591 1.62001 13.2284 1.62001 13.2079C1.62001 13.1977 1.62001 13.1875 1.62001 13.1773C1.62001 13.1568 1.62001 13.1466 1.63001 13.1261C1.57001 13.1466 1.50001 13.167 1.43001 13.1875C1.43001 13.1875 1.43001 13.1875 1.42001 13.1875C1.41001 13.1875 1.39001 13.1977 1.38001 13.1977C1.37001 13.1977 1.36001 13.1977 1.35001 13.2079C1.34001 13.2079 1.33001 13.2182 1.32001 13.2182C1.30001 13.2284 1.28001 13.2284 1.26001 13.2386C1.29001 13.2591 1.33001 13.3 1.37001 13.3307C1.37001 13.3307 1.37001 13.3307 1.38001 13.3307C1.38001 13.3307 1.39001 13.3307 1.39001 13.3409C1.39001 13.3409 1.40001 13.3409 1.40001 13.3511C1.44001 13.3818 1.48001 13.4125 1.52001 13.4534C1.54001 13.4739 1.56001 13.4841 1.58001 13.5045C1.59001 13.5045 1.59001 13.5148 1.60001 13.5148C1.62001 13.525 1.63001 13.5454 1.65001 13.5557L1.66001 13.5659C1.68001 13.5761 1.69001 13.5966 1.71001 13.6068C1.99001 13.842 2.29001 14.0875 2.38001 14.1591C2.39001 14.1591 2.40001 14.1489 2.42001 14.1489C2.21001 13.9648 1.68001 13.525 1.49001 13.3204Z" fill="#F3735A"/>
<path d="M2.41016 14.9364C2.55016 14.8852 2.73016 14.8034 2.99016 14.6705C2.99016 14.5682 2.99016 14.2409 2.99016 13.9852C2.82016 14.067 2.57016 14.1693 2.41016 14.2409C2.41016 14.425 2.42016 14.7114 2.41016 14.9364Z" fill="#E82C2E"/>
<path d="M3.46008 15.0898C3.49008 15.1511 3.56008 15.1818 3.64008 15.2023C3.69008 15.3864 3.80008 15.55 3.95008 15.55C4.03008 15.55 4.10008 15.417 4.09008 15.2432C4.16008 15.233 4.21008 15.2227 4.26008 15.192H4.27008V15.1818C4.49008 14.7727 4.72008 14.3841 5.03008 14.1182C5.05008 14.1693 5.09008 14.2307 5.12008 14.3023C5.17008 14.4045 5.24008 14.517 5.31008 14.6193C5.40008 14.7523 5.50008 14.875 5.60008 14.967L5.61008 14.9773H5.62008C5.63008 14.9773 5.64008 14.9773 5.65008 14.9773C5.73008 14.9773 5.82008 14.9568 5.91008 14.9261C6.13008 15.0182 6.42008 14.9875 6.50008 14.9364C6.55008 14.8955 6.55008 14.8545 6.49008 14.8341C6.44008 14.8136 6.33008 14.7727 6.26008 14.742C6.28008 14.7216 6.29008 14.7114 6.30008 14.6909L6.31008 14.6807V14.6705C6.24008 14.4557 6.14008 14.0875 6.14008 13.7602C6.14008 13.0545 6.39008 12.5943 6.49008 12.0625C7.08008 11.9398 7.75008 11.7864 8.08008 11.6534L8.10008 11.6432V11.633C8.12008 11.5818 8.13008 11.5307 8.14008 11.4693C8.19008 11.4898 8.26008 11.5 8.35008 11.5C8.49008 11.5 8.66008 11.4489 8.80008 11.367C8.93008 11.2955 9.05008 11.2034 9.08008 11.1011C9.14008 11.0602 9.19008 10.9886 9.19008 10.917C9.19008 10.8966 9.18008 10.8659 9.17008 10.8557C9.16008 10.8352 9.15008 10.825 9.14008 10.8148C9.13008 10.7534 9.08008 10.7125 9.01008 10.7125C8.98008 10.7125 8.93008 10.7227 8.89008 10.733C8.84008 10.7432 8.80008 10.7636 8.75008 10.7739C8.77008 10.7432 8.77008 10.7125 8.77008 10.6818V10.6716C8.77008 10.6 8.71008 10.5489 8.64008 10.5489C8.56008 10.5489 8.49008 10.6 8.42008 10.6409C8.35008 10.692 8.15008 10.7023 8.04008 10.8455C8.03008 10.8455 8.01008 10.8455 8.00008 10.8455C7.45008 10.8455 6.76008 10.7636 6.27008 10.6716C6.20008 10.6614 6.13008 10.6409 6.06008 10.6307C6.21008 10.4773 6.30008 10.2216 6.30008 9.96591C6.30008 9.34204 5.93008 8.78977 5.68008 8.51363C5.79008 8.47272 5.87008 8.42159 5.92008 8.39091C5.96008 8.36022 5.99008 8.32954 5.99008 8.30909C5.99008 8.28863 5.95008 8.26818 5.87008 8.25795C5.82008 8.24772 5.76008 8.24772 5.68008 8.24772C5.73008 8.11477 5.79008 7.99204 5.85008 7.85909C5.86008 7.83863 5.87008 7.8284 5.88008 7.80795L5.90008 7.72613L5.86008 7.7159C5.55008 7.66477 4.82008 7.2659 4.53008 7.07159L4.50008 7.05113L4.48008 7.08181C4.01008 7.76704 3.11008 8.72841 2.54008 9.31136L2.50008 9.35227L2.56008 9.37272C2.60008 9.38295 2.66008 9.40341 2.72008 9.41363C2.97008 9.48522 3.32008 9.57727 3.48008 9.59772L3.49008 9.60795C3.45008 9.62841 3.42008 9.65909 3.39008 9.68977C3.33008 9.75113 3.29008 9.83295 3.29008 9.93522C3.29008 10.0886 3.37008 10.2523 3.52008 10.3545C3.60008 10.4057 3.70008 10.4364 3.82008 10.4364C3.91008 10.4364 3.98008 10.4261 4.02008 10.3955C4.06008 10.4466 4.10008 10.4875 4.14008 10.5386C4.18008 10.5898 4.21008 10.6409 4.24008 10.7023C4.13008 10.8455 3.81008 10.9886 3.41008 11.1318C2.83008 11.4898 2.17008 12.2159 2.01008 12.7068V12.717V12.7273C2.01008 12.7375 2.01008 12.758 2.02008 12.7682C1.93008 12.8193 1.85008 12.8705 1.79008 12.9318C1.57008 12.983 1.37008 13.0443 1.11008 13.1261L1.09008 13.1364V13.1568C1.09008 13.2489 1.08008 13.3409 1.08008 13.4534C1.08008 13.6068 1.09008 13.7705 1.10008 13.975V13.9852V13.9955C1.15008 14.067 1.31008 14.2307 1.49008 14.4148C1.78008 14.7011 2.15008 15.0284 2.37008 15.1818L2.39008 15.192L2.41008 15.1818C2.59008 15.1 2.89008 14.967 3.17008 14.8136L3.19008 14.8034V14.783C3.20008 14.5477 3.22008 14.1284 3.22008 13.9239C3.22008 13.9136 3.22008 13.9034 3.22008 13.9034V13.883L3.18008 13.8523C3.11008 13.8011 2.93008 13.6784 2.73008 13.5352C2.68008 13.5045 2.63008 13.4636 2.58008 13.433V13.4227C2.59008 13.392 2.59008 13.3614 2.59008 13.3307C2.59008 13.2795 2.58008 13.2284 2.56008 13.1773H2.57008L2.58008 13.167C2.87008 12.8602 3.53008 12.5023 3.82008 12.4102C3.91008 12.4716 3.91008 12.4716 3.95008 12.5023C3.94008 12.5227 3.94008 12.5432 3.93008 12.5636C3.75008 13.0239 3.47008 13.9136 3.46008 15.0591C3.46008 15.0693 3.46008 15.0795 3.46008 15.0898ZM8.32008 10.7943C8.39008 10.7636 8.54008 10.692 8.57008 10.6716C8.58008 10.6716 8.58008 10.6614 8.59008 10.6614C8.62008 10.6511 8.65008 10.6511 8.64008 10.692C8.63008 10.7432 8.55008 10.8148 8.47008 10.8557C8.45008 10.917 8.43008 11.0295 8.33008 11.0807C8.40008 11.0909 8.49008 10.9886 8.51008 10.9273C8.62008 10.917 8.85008 10.8352 8.93008 10.8148C8.99008 10.7943 9.02008 10.8045 9.01008 10.8352C8.91008 10.8557 8.76008 10.9477 8.64008 10.9989C8.72008 10.9886 8.89008 10.917 8.97008 10.8966C9.02008 10.8761 9.05008 10.8864 9.05008 10.9068C9.05008 10.9273 9.03008 10.9477 9.00008 10.9682C8.99008 10.958 8.98008 10.9477 8.96008 10.9477C8.89008 10.9477 8.72008 11.0602 8.63008 11.1216C8.73008 11.1011 8.89008 10.9989 8.93008 10.9989C8.95008 10.9989 8.96008 11.0091 8.96008 11.0193C8.96008 11.0909 8.64008 11.3057 8.38008 11.3057C8.28008 11.3057 8.19008 11.2852 8.15008 11.2545C8.15008 11.1932 8.15008 11.142 8.14008 11.1011C8.14008 11.0602 8.13008 11.0193 8.13008 10.9989C8.14008 10.9273 8.21008 10.8455 8.32008 10.7943ZM6.50008 10.8864C6.55008 10.8966 6.60008 10.8966 6.65008 10.9068C6.66008 10.9068 6.68008 10.9068 6.69008 10.9068C6.73008 10.9068 6.77008 10.917 6.81008 10.917C6.83008 10.917 6.85008 10.917 6.86008 10.9273C6.90008 10.9273 6.94008 10.9375 6.97008 10.9375C6.99008 10.9375 7.00008 10.9375 7.02008 10.9375C7.07008 10.9375 7.12008 10.9477 7.18008 10.9477H7.19008C7.25008 10.9477 7.30008 10.958 7.36008 10.958C7.38008 10.958 7.39008 10.958 7.41008 10.958C7.45008 10.958 7.49008 10.9682 7.53008 10.9682C7.55008 10.9682 7.57008 10.9682 7.59008 10.9682C7.63008 10.9682 7.67008 10.9682 7.71008 10.9784C7.73008 10.9784 7.75008 10.9784 7.76008 10.9784C7.82008 10.9784 7.87008 10.9784 7.93008 10.9886C7.93008 10.9989 7.94008 11.0091 7.94008 11.0295C7.94008 11.0398 7.94008 11.0398 7.94008 11.05C7.94008 11.0602 7.94008 11.0602 7.94008 11.0705C7.94008 11.0807 7.94008 11.0909 7.94008 11.1011V11.1114C7.94008 11.1216 7.94008 11.142 7.94008 11.1523C7.94008 11.2443 7.93008 11.3568 7.90008 11.4591C7.70008 11.5409 6.71008 11.7659 6.40008 11.7966C6.38008 11.5716 6.32008 11.3773 6.24008 11.2341C6.27008 11.408 6.29008 11.5102 6.29008 11.725C6.29008 12.1341 6.08008 12.5023 5.98008 13.0648C5.79008 13.2182 5.44008 13.3307 5.13008 13.3307C5.09008 13.3307 5.06008 13.3307 5.02008 13.3307C5.13008 12.9932 5.25008 12.4614 5.27008 12.1852C5.50008 12.0114 5.94008 11.5716 6.07008 11.408C6.03008 11.3568 5.97008 11.2648 5.92008 11.2239C5.96008 11.1932 6.00008 11.1625 6.07008 11.1114C6.01008 11.0091 5.91008 10.8557 5.84008 10.7534C6.03008 10.8148 6.25008 10.8557 6.50008 10.8864ZM4.44008 11.275C4.42008 11.2034 4.38008 10.9886 4.37008 10.8557C4.38008 10.8455 4.38008 10.8455 4.39008 10.8352C4.42008 10.8761 4.45008 10.917 4.49008 10.958C4.74008 11.2443 5.16008 11.6023 5.46008 11.7557C5.44008 11.7966 5.42008 11.8477 5.39008 11.8886C5.15008 11.8375 4.77008 11.6841 4.62008 11.5614C4.64008 11.5307 4.70008 11.4693 4.75008 11.3977C4.66008 11.367 4.56008 11.3159 4.44008 11.275ZM5.12008 11.408C4.91008 11.2341 4.69008 11.0398 4.56008 10.8864C4.76008 10.9682 5.05008 11.0398 5.25008 11.0602C5.20008 11.1625 5.15008 11.3057 5.12008 11.408ZM5.38008 11.4182C5.37008 11.4489 5.35008 11.5 5.33008 11.5614C5.28008 11.5307 5.23008 11.4898 5.18008 11.4489C5.19008 11.3977 5.21008 11.3466 5.23008 11.2852C5.27008 11.3261 5.32008 11.367 5.38008 11.4182ZM5.76008 10.7739C5.81008 10.825 5.92008 10.9989 5.98008 11.1011C5.91008 11.1625 5.87008 11.1932 5.84008 11.2239C5.91008 11.3057 5.95008 11.3773 5.98008 11.4182C5.87008 11.5716 5.63008 11.8375 5.46008 11.9807C5.72008 11.5409 5.78008 11.1727 5.76008 10.7739ZM5.49008 11.3875C5.50008 11.3364 5.51008 11.275 5.51008 11.2136C5.54008 11.2443 5.58008 11.2852 5.61008 11.3159C5.60008 11.367 5.58008 11.4182 5.56008 11.4795C5.55008 11.4591 5.52008 11.4284 5.49008 11.3875ZM5.63008 11.2443C5.57008 11.1625 5.46008 11.0705 5.41008 11.0295C5.50008 10.9682 5.58008 10.8966 5.65008 10.825C5.67008 10.958 5.66008 11.0909 5.63008 11.2443ZM3.13008 9.30113C3.10008 9.2909 3.08008 9.2909 3.05008 9.28068C3.03008 9.28068 3.02008 9.27045 3.01008 9.27045C3.01008 9.27045 3.01008 9.27045 3.00008 9.27045C2.98008 9.27045 2.97008 9.26022 2.96008 9.26022H2.95008C2.94008 9.26022 2.92008 9.25 2.91008 9.25C3.34008 8.84091 4.24008 7.84886 4.57008 7.36818C4.76008 7.4909 5.48008 7.83863 5.61008 7.85909C5.61008 7.87954 5.60008 7.88977 5.60008 7.91022C5.60008 7.92045 5.59008 7.93068 5.59008 7.9409C5.54008 8.07386 5.51008 8.15568 5.48008 8.21704C4.77008 8.28863 3.89008 8.75909 3.52008 9.40341C3.44008 9.38295 3.27008 9.34204 3.13008 9.30113ZM4.13008 10.2318C4.14008 10.2114 4.14008 10.1909 4.15008 10.1807V10.1705C4.15008 10.1602 4.15008 10.1602 4.15008 10.15C4.15008 10.1295 4.16008 10.1091 4.15008 10.0784C4.10008 10.1705 3.97008 10.2625 3.85008 10.2625C3.76008 10.2625 3.67008 10.2318 3.61008 10.1807C3.60008 10.1705 3.58008 10.1602 3.57008 10.15C3.57008 10.15 3.57008 10.15 3.56008 10.1398C3.55008 10.1295 3.55008 10.1295 3.54008 10.1193C3.54008 10.1091 3.53008 10.1091 3.53008 10.0989C3.53008 10.0886 3.52008 10.0886 3.52008 10.0784C3.51008 10.0682 3.51008 10.0477 3.50008 10.0375C3.49008 10.0273 3.49008 10.0068 3.49008 9.98636V9.97613C3.49008 9.95568 3.49008 9.94545 3.49008 9.925C3.49008 9.77159 3.59008 9.63863 3.78008 9.63863C3.80008 9.63863 3.81008 9.63863 3.83008 9.63863H3.84008C3.85008 9.63863 3.86008 9.63863 3.87008 9.64886H3.88008C3.89008 9.64886 3.90008 9.65909 3.92008 9.65909C3.93008 9.65909 3.93008 9.65909 3.94008 9.66931C3.95008 9.66931 3.95008 9.66931 3.96008 9.67954C3.97008 9.67954 3.97008 9.68977 3.98008 9.68977C3.98008 9.68977 3.99008 9.68977 3.99008 9.7C4.00008 9.71022 4.02008 9.72045 4.03008 9.72045C4.06008 9.74091 4.08008 9.76136 4.10008 9.78181C4.13008 9.76136 4.17008 9.74091 4.20008 9.72045C4.17008 9.61818 4.08008 9.25 4.06008 8.98409C4.10008 8.95341 4.14008 8.92272 4.17008 8.90227C4.70008 8.77954 5.17008 8.63636 5.50008 8.52386C5.80008 8.82045 6.11008 9.44431 6.11008 9.87386C6.11008 10.3545 5.85008 10.692 5.40008 10.692C5.27008 10.692 5.11008 10.6716 4.96008 10.6C5.03008 10.733 5.36008 10.8148 5.53008 10.8045C5.49008 10.8455 5.44008 10.8966 5.35008 10.9375C5.12008 10.917 4.85008 10.8659 4.67008 10.8045C4.65008 10.7943 4.63008 10.7943 4.62008 10.7841H4.61008C4.60008 10.7841 4.59008 10.7739 4.58008 10.7739C4.58008 10.7739 4.57008 10.7739 4.57008 10.7636C4.56008 10.7636 4.55008 10.7534 4.54008 10.7534C4.54008 10.7534 4.53008 10.7534 4.53008 10.7432C4.52008 10.733 4.51008 10.733 4.50008 10.7227C4.39008 10.5898 4.15008 10.2932 4.13008 10.2318ZM2.07008 12.8909C2.09008 12.9216 2.12008 12.942 2.14008 12.9625C2.16008 12.983 2.18008 13.0034 2.20008 13.0136C2.27008 13.0648 2.34008 13.1057 2.40008 13.1364C2.43008 13.1977 2.45008 13.3205 2.42008 13.4023C2.38008 13.3614 2.34008 13.3307 2.31008 13.3102C2.33008 13.2795 2.34008 13.2489 2.35008 13.2386C2.22008 13.2693 2.16008 13.4023 2.22008 13.4943C2.22008 13.4841 2.23008 13.4636 2.24008 13.433C2.27008 13.4636 2.31008 13.4943 2.33008 13.525C2.29008 13.5557 2.23008 13.5761 2.16008 13.5761C2.07008 13.5659 2.00008 13.4943 1.97008 13.4534C1.88008 13.4227 1.82008 13.3716 1.79008 13.3205C1.81008 13.3 1.80008 13.2795 1.80008 13.2591C1.80008 13.2489 1.80008 13.2489 1.80008 13.2386V13.2284C1.80008 13.2182 1.80008 13.208 1.80008 13.1977C1.80008 13.0852 1.93008 12.9523 2.07008 12.8909ZM2.35008 14.9159C2.07008 14.7011 1.60008 14.2716 1.37008 14.0159C1.37008 14.0159 1.37008 14.0159 1.37008 14.0057C1.35008 13.9852 1.33008 13.9648 1.32008 13.9545C1.30008 13.9545 1.30008 13.9443 1.29008 13.9443C1.28008 13.9341 1.28008 13.9341 1.28008 13.9239C1.27008 13.9136 1.26008 13.9034 1.25008 13.8932C1.23008 13.617 1.23008 13.4432 1.23008 13.2898C1.26008 13.3205 1.31008 13.3614 1.36008 13.4125C1.67008 13.6886 2.27008 14.1898 2.35008 14.2511C2.35008 14.4455 2.35008 14.6705 2.35008 14.9159ZM3.00008 14.6705C2.73008 14.8034 2.55008 14.8852 2.42008 14.9364C2.42008 14.7114 2.42008 14.4352 2.43008 14.2409C2.59008 14.1693 2.84008 14.067 3.01008 13.9852C3.00008 14.2409 3.00008 14.5682 3.00008 14.6705ZM2.98008 13.9239C2.87008 13.975 2.55008 14.108 2.39008 14.1693C2.30008 14.0977 2.00008 13.842 1.72008 13.617C1.70008 13.6068 1.69008 13.5864 1.67008 13.5761L1.66008 13.5659C1.64008 13.5557 1.63008 13.5352 1.61008 13.525C1.60008 13.525 1.60008 13.5148 1.59008 13.5148C1.57008 13.4943 1.55008 13.4841 1.53008 13.4636C1.49008 13.4227 1.45008 13.392 1.41008 13.3614C1.40008 13.3409 1.39008 13.3409 1.39008 13.3409C1.39008 13.3409 1.38008 13.3409 1.38008 13.3307C1.33008 13.2898 1.29008 13.2591 1.26008 13.2284C1.28008 13.2182 1.30008 13.2182 1.32008 13.208C1.33008 13.208 1.34008 13.1977 1.35008 13.1977C1.36008 13.1977 1.37008 13.1977 1.38008 13.1875C1.39008 13.1875 1.41008 13.1773 1.42008 13.1773C1.42008 13.1773 1.42008 13.1773 1.43008 13.1773C1.50008 13.1568 1.57008 13.1364 1.63008 13.1159C1.63008 13.1364 1.62008 13.1466 1.62008 13.167C1.62008 13.1773 1.62008 13.1875 1.62008 13.1977C1.62008 13.2182 1.62008 13.2489 1.63008 13.2693C1.65008 13.4023 1.75008 13.5148 1.87008 13.5761C1.94008 13.6682 2.04008 13.7295 2.17008 13.7398C2.18008 13.7398 2.20008 13.7398 2.21008 13.7398C2.29008 13.7398 2.36008 13.7193 2.41008 13.6886C2.41008 13.75 2.42008 13.8114 2.45008 13.8114C2.50008 13.8216 2.53008 13.75 2.54008 13.658C2.54008 13.6375 2.54008 13.6273 2.54008 13.6068C2.73008 13.7602 2.91008 13.883 2.98008 13.9239ZM3.92008 12.2364C3.93008 12.175 3.93008 12.1239 3.90008 12.042C3.87008 12.1034 3.81008 12.1955 3.79008 12.2159C3.34008 12.3591 2.86008 12.6659 2.51008 12.9727C2.47008 12.9625 2.42008 12.9318 2.37008 12.8909C2.35008 12.8807 2.34008 12.8705 2.33008 12.85C2.32008 12.8398 2.30008 12.8295 2.29008 12.8091C2.27008 12.7886 2.26008 12.7682 2.24008 12.758C2.23008 12.7477 2.23008 12.7477 2.23008 12.7375C2.23008 12.7375 2.23008 12.7375 2.23008 12.7273C2.23008 12.717 2.22008 12.717 2.22008 12.7068C2.22008 12.7068 2.22008 12.7068 2.22008 12.6966C2.22008 12.6864 2.21008 12.6864 2.21008 12.6761C2.41008 12.1955 2.98008 11.6534 3.48008 11.3159C3.92008 11.1216 4.17008 10.9989 4.32008 10.8864C4.32008 10.9068 4.32008 10.917 4.32008 10.9375C4.32008 10.9477 4.32008 10.958 4.32008 10.9682C4.32008 10.9784 4.32008 10.9886 4.32008 10.9989C4.32008 11.0091 4.32008 11.0295 4.32008 11.0398C4.32008 11.05 4.32008 11.05 4.32008 11.0602C4.32008 11.0705 4.32008 11.0909 4.32008 11.1011C4.33008 11.183 4.33008 11.275 4.34008 11.3364C4.41008 11.367 4.51008 11.3977 4.60008 11.408C4.55008 11.4693 4.50008 11.5102 4.47008 11.5614C4.58008 11.6739 4.98008 11.8784 5.37008 11.9398C5.33008 12.0114 5.28008 12.083 5.23008 12.1545C5.21008 12.308 5.10008 12.942 4.98008 13.3409C4.51008 13.3 4.18008 13.1364 4.02008 12.9625C4.03008 12.9216 4.05008 12.8705 4.06008 12.8295C4.07008 12.7989 4.08008 12.7784 4.09008 12.7477C4.10008 12.7375 4.10008 12.717 4.11008 12.7068C4.12008 12.6761 4.14008 12.6455 4.15008 12.6148C4.15008 12.6045 4.16008 12.6045 4.16008 12.5943C4.17008 12.5636 4.19008 12.533 4.20008 12.5023C4.20008 12.492 4.21008 12.492 4.21008 12.4818V12.4716C4.10008 12.3898 3.97008 12.2773 3.92008 12.2364ZM3.97008 13.0852C3.98008 13.0955 3.99008 13.1057 4.00008 13.1159C4.01008 13.1159 4.01008 13.1261 4.02008 13.1261C4.03008 13.1364 4.03008 13.1364 4.04008 13.1466C4.05008 13.1568 4.06008 13.1568 4.06008 13.167C4.07008 13.167 4.07008 13.1773 4.08008 13.1773C4.09008 13.1875 4.10008 13.1875 4.11008 13.1977C4.34008 13.3511 4.71008 13.4739 5.15008 13.4739C5.44008 13.4739 5.80008 13.3511 5.99008 13.1977C5.96008 13.3614 5.95008 13.5455 5.95008 13.75C5.95008 14.067 6.03008 14.4045 6.08008 14.5784C6.04008 14.6193 5.93008 14.6807 5.83008 14.7114C5.82008 14.7114 5.80008 14.7216 5.79008 14.7216C5.79008 14.7216 5.79008 14.7216 5.78008 14.7216C5.76008 14.7318 5.73008 14.7318 5.71008 14.7318C5.71008 14.7318 5.71008 14.7318 5.70008 14.7318C5.69008 14.7318 5.68008 14.7318 5.67008 14.7318C5.51008 14.5886 5.23008 14.1386 5.14008 13.8727C5.19008 13.8114 5.23008 13.7705 5.25008 13.75C4.85008 13.9239 4.44008 14.3636 4.11008 14.9977C4.01008 15.0284 3.91008 15.0284 3.82008 15.0182C3.81008 15.0182 3.79008 15.0182 3.78008 15.008C3.78008 15.008 3.78008 15.008 3.77008 15.008C3.76008 15.008 3.75008 14.9977 3.74008 14.9977C3.73008 14.9977 3.73008 14.9977 3.73008 14.9875C3.72008 14.9875 3.72008 14.9875 3.71008 14.9773C3.70008 14.9773 3.69008 14.967 3.68008 14.967C3.69008 14.425 3.79008 13.6784 3.97008 13.0852Z" fill="#003055"/>
<path d="M1.88007 13.392C1.85007 13.3716 1.84007 13.3511 1.82007 13.3204C1.85007 13.3716 1.90007 13.4227 2.00007 13.4534C2.03007 13.4943 2.10007 13.5659 2.19007 13.5761C2.27007 13.5864 2.32007 13.5557 2.36007 13.525C2.33007 13.4943 2.30007 13.4534 2.27007 13.4329C2.26007 13.4636 2.25007 13.4841 2.25007 13.4943C2.18007 13.392 2.25007 13.2693 2.38007 13.2386C2.37007 13.2591 2.35007 13.2795 2.34007 13.3102C2.37007 13.3307 2.41007 13.3614 2.45007 13.4023C2.48007 13.3204 2.46007 13.1977 2.43007 13.1364C2.36007 13.1057 2.29007 13.0648 2.23007 13.0136C2.21007 12.9932 2.19007 12.9829 2.17007 12.9625C2.04007 13.0341 1.85007 13.1875 1.88007 13.392Z" fill="#FCC599"/>
<path d="M5.48013 8.21703C5.51013 8.15567 5.54013 8.07385 5.59013 7.9409C5.33013 7.84885 4.87013 7.64431 4.69013 7.55226C4.37013 8.00226 3.59013 8.87158 3.13013 9.30113C3.28013 9.34203 3.44013 9.38294 3.52013 9.41363C3.88013 8.75908 4.76013 8.28862 5.48013 8.21703Z" fill="#0072A6"/>
<path d="M3.61007 10.1909C3.60007 10.1807 3.58007 10.1704 3.57007 10.1602C3.58007 10.1602 3.60007 10.1807 3.61007 10.1909Z" fill="#FCC599"/>
<path d="M5.3401 10.9579C5.4201 10.917 5.4701 10.8659 5.5201 10.825C5.3501 10.8352 5.0201 10.7534 4.9501 10.6204C5.1001 10.7023 5.2601 10.7125 5.3901 10.7125C5.8501 10.7125 6.1001 10.375 6.1001 9.89431C6.1001 9.46477 5.7901 8.8409 5.4901 8.54431C5.1601 8.66704 4.7001 8.79999 4.1601 8.92272C4.1301 8.94318 4.0901 8.97386 4.0501 9.00454C4.0701 9.26022 4.1601 9.63863 4.1901 9.7409C4.1701 9.76136 4.1301 9.77158 4.0901 9.80227C4.0701 9.78181 4.0401 9.76136 4.0201 9.7409C3.8101 9.68977 3.6401 9.77158 3.6201 9.94545C3.6101 10.0375 3.6501 10.1704 3.7401 10.2625C3.6901 10.2523 3.6401 10.2216 3.6001 10.1909C3.6601 10.242 3.7501 10.2727 3.8401 10.2727C3.9501 10.2727 4.0901 10.1807 4.1401 10.0886C4.1501 10.1193 4.1401 10.1398 4.1401 10.1602C4.2301 10.2625 4.4901 10.5591 4.6501 10.8352C4.8401 10.8864 5.1101 10.9375 5.3401 10.9579ZM5.4501 8.86136C5.4901 8.8409 5.5501 8.88181 5.5901 8.9534C5.6301 9.02499 5.6301 9.09658 5.6001 9.12727C5.5601 9.14772 5.5001 9.10681 5.4601 9.03522C5.4201 8.96363 5.4101 8.88181 5.4501 8.86136ZM5.1501 8.78977C5.2201 9.04545 5.5301 9.28068 5.8101 9.41363C5.7901 9.52613 5.6001 9.60795 5.4701 9.57727C5.5701 9.54658 5.6201 9.50568 5.6601 9.45454C5.4101 9.31136 5.1201 9.07613 5.1501 8.78977ZM4.6901 9.05568C4.7401 9.02499 4.8101 9.0659 4.8501 9.14772C4.8901 9.21931 4.8901 9.31136 4.8501 9.33181C4.8001 9.36249 4.7301 9.32158 4.6801 9.23977C4.6501 9.16818 4.6501 9.08636 4.6901 9.05568ZM4.9501 9.67954C4.8901 9.73068 4.8401 9.77158 4.8001 9.81249C5.0601 9.98636 5.5701 10.0273 5.8101 9.75113C5.8301 9.97613 5.6501 10.2216 5.3901 10.2216C5.0901 10.2216 4.8401 10.0375 4.7301 9.87386C4.6801 9.91477 4.6401 9.95568 4.6001 9.99658C4.5901 9.90454 4.7001 9.68977 4.9501 9.67954Z" fill="#FCC599"/>
<path d="M5.6601 9.45454C5.6201 9.49545 5.5701 9.53636 5.4701 9.57726C5.6101 9.60795 5.7901 9.52613 5.8101 9.41363C5.5301 9.28067 5.2201 9.04545 5.1501 8.78976C5.1201 9.07613 5.4101 9.31136 5.6601 9.45454Z" fill="#003055"/>
<path d="M4.8601 9.33182C4.9101 9.30114 4.9101 9.21932 4.8601 9.14773C4.8201 9.06591 4.7401 9.03523 4.7001 9.05568C4.6501 9.08636 4.6501 9.16818 4.7001 9.23977C4.7401 9.32159 4.8101 9.3625 4.8601 9.33182Z" fill="#003055"/>
<path d="M5.6 9.12727C5.64 9.10681 5.64 9.025 5.59 8.95341C5.55 8.88181 5.48 8.84091 5.45 8.86136C5.41 8.88181 5.41 8.96363 5.46 9.03522C5.5 9.10681 5.56 9.14772 5.6 9.12727Z" fill="#003055"/>
<path d="M5.39996 10.2216C5.65996 10.2216 5.83996 9.98635 5.81996 9.75113C5.57996 10.0273 5.06996 9.98635 4.80996 9.81249C4.84996 9.77158 4.89996 9.73067 4.95996 9.67953C4.69996 9.69999 4.58996 9.90453 4.60996 9.99658C4.64996 9.9659 4.68996 9.92499 4.73996 9.87385C4.84996 10.0273 5.09996 10.2216 5.39996 10.2216Z" fill="#003055"/>
<path d="M8.31013 10.8864C8.25013 10.9273 8.18013 11.0193 8.13013 11.1011C8.13013 11.142 8.14013 11.1932 8.14013 11.2545C8.18013 11.2852 8.27013 11.3057 8.37013 11.3057C8.63013 11.3057 8.95013 11.0909 8.95013 11.0193C8.95013 11.0091 8.94013 10.9989 8.92013 10.9989C8.88013 10.9989 8.73013 11.0909 8.62013 11.1216C8.72013 11.0602 8.88013 10.9477 8.95013 10.9477C8.97013 10.9477 8.98013 10.958 8.99013 10.9682C9.02013 10.9477 9.04013 10.9273 9.04013 10.9068C9.04013 10.8864 9.01013 10.8761 8.96013 10.8966C8.88013 10.9273 8.71013 10.9886 8.63013 10.9989C8.75013 10.9375 8.90013 10.8557 9.00013 10.8352C9.00013 10.8045 8.97013 10.8045 8.92013 10.8148C8.84013 10.8352 8.61013 10.917 8.50013 10.9273C8.49013 10.9886 8.40013 11.0909 8.33013 11.0807C8.42013 11.0295 8.45013 10.917 8.47013 10.8557C8.55013 10.8148 8.63013 10.7432 8.64013 10.692C8.65013 10.6511 8.62013 10.6511 8.59013 10.6614C8.60013 10.6614 8.61013 10.6511 8.61013 10.6511C8.53013 10.7432 8.37013 10.8455 8.31013 10.8864Z" fill="#FCC599"/>
<path d="M5.50999 11.2239C5.50999 11.2852 5.49999 11.3364 5.48999 11.3977C5.51999 11.4386 5.54999 11.4693 5.56999 11.5C5.58999 11.4489 5.59999 11.3875 5.61999 11.3364C5.57999 11.2955 5.53999 11.2545 5.50999 11.2239Z" fill="#D6E7F2"/>
<path d="M5.34019 11.5716C5.36019 11.5 5.38019 11.4591 5.39019 11.4284C5.33019 11.3773 5.27019 11.3261 5.24019 11.3057C5.22019 11.367 5.20019 11.4182 5.19019 11.4693C5.24019 11.5 5.29019 11.5307 5.34019 11.5716Z" fill="#D6E7F2"/>
<path d="M5.41016 11.0295C5.47016 11.0602 5.57016 11.1625 5.63016 11.2443C5.66016 11.0909 5.66016 10.958 5.65016 10.825C5.58016 10.8966 5.49016 10.9784 5.41016 11.0295Z" fill="#D6E7F2"/>
<path d="M5.39019 11.8886C5.42019 11.8477 5.44019 11.7966 5.46019 11.7557C5.16019 11.592 4.73019 11.2443 4.49019 10.9579C4.47019 11.0602 4.46019 11.142 4.44019 11.275C4.56019 11.3261 4.66019 11.367 4.75019 11.3875C4.69019 11.4591 4.64019 11.5204 4.62019 11.5511C4.77019 11.6841 5.15019 11.8273 5.39019 11.8886Z" fill="#0072A6"/>
<path d="M5.12006 11.4079C5.14006 11.3057 5.20006 11.1625 5.25006 11.0602C5.05006 11.0398 4.76006 10.9682 4.56006 10.8864C4.70006 11.0398 4.91006 11.2341 5.12006 11.4079Z" fill="#D6E7F2"/>
<path d="M5.97019 11.4079C5.94019 11.367 5.90019 11.2954 5.83019 11.2136C5.86019 11.1932 5.90019 11.1523 5.97019 11.0909C5.92019 10.9886 5.80019 10.8148 5.75019 10.7636C5.78019 11.1625 5.71019 11.5307 5.44019 11.9602C5.62019 11.8273 5.86019 11.5614 5.97019 11.4079Z" fill="#0072A6"/>
<path d="M6.10005 11.1318C6.03005 11.1829 5.99005 11.2239 5.95005 11.2443C6.00005 11.2852 6.06005 11.3773 6.10005 11.4284C5.97005 11.6023 5.53005 12.0318 5.30005 12.2057C5.27005 12.4716 5.16005 13.0034 5.05005 13.3511C5.09005 13.3511 5.12005 13.3511 5.16005 13.3511C5.47005 13.3511 5.82005 13.2386 6.01005 13.0852C6.12005 12.5227 6.32005 12.1443 6.32005 11.7454C6.32005 11.5307 6.30005 11.4284 6.27005 11.2545C6.35005 11.3977 6.41005 11.592 6.43005 11.817C6.73005 11.7864 7.73005 11.5614 7.93005 11.4795C7.96005 11.367 7.97005 11.2648 7.97005 11.1727C7.66005 11.1829 6.79005 11.0398 6.50005 10.8864C6.25005 10.8557 6.03005 10.8045 5.87005 10.7636C5.94005 10.8659 6.04005 11.0193 6.10005 11.1318ZM5.50005 12.9829C5.48005 13.0648 5.44005 13.1261 5.39005 13.1159C5.35005 13.1057 5.32005 13.0341 5.34005 12.9523C5.36005 12.8704 5.40005 12.8091 5.45005 12.8193C5.49005 12.8193 5.52005 12.9011 5.50005 12.9829ZM5.61005 12.4102C5.59005 12.492 5.55005 12.5534 5.50005 12.5432C5.46005 12.5329 5.43005 12.4614 5.45005 12.3795C5.47005 12.2977 5.51005 12.2364 5.56005 12.2466C5.61005 12.2568 5.63005 12.3284 5.61005 12.4102Z" fill="#0072A6"/>
<path d="M3.83008 15.0386C3.92008 15.0489 4.02008 15.0489 4.12008 15.0182C4.45008 14.3841 4.86008 13.9443 5.26008 13.7704C5.24008 13.7909 5.20008 13.8318 5.15008 13.8932C5.33008 14.1386 5.59008 14.5068 5.83008 14.7318C5.93008 14.7011 6.04008 14.6398 6.08008 14.5989C6.03008 14.4148 5.95008 14.0875 5.95008 13.7704C5.95008 13.5659 5.97008 13.3818 5.99008 13.2182C5.80008 13.3716 5.44008 13.4943 5.15008 13.4943C4.71008 13.4943 4.34008 13.3716 4.11008 13.2182C3.95008 13.7704 3.84008 14.4864 3.83008 15.0386Z" fill="#0072A6"/>
<path d="M4.20008 12.4818C4.19008 12.4818 4.19008 12.4818 4.20008 12.4818C4.24008 12.5329 4.30008 12.5739 4.34008 12.6148C4.27008 12.7477 4.21008 12.9114 4.15008 13.0852C4.09008 13.0443 4.05008 13.0034 4.01008 12.9727C4.17008 13.1364 4.50008 13.3102 4.97008 13.3511C5.08008 12.9625 5.20008 12.3182 5.22008 12.1648C5.27008 12.0932 5.32008 12.0216 5.36008 11.95C4.98008 11.8886 4.57008 11.6841 4.46008 11.5716C4.50008 11.5204 4.55008 11.4693 4.59008 11.4182C4.50008 11.3977 4.40008 11.3773 4.33008 11.3466C4.32008 11.275 4.31008 11.1932 4.31008 11.1114V11.1216C4.15008 11.2136 3.93008 11.3159 3.60008 11.4693C3.10008 11.8068 2.53008 12.3489 2.33008 12.8295C2.34008 12.85 2.35008 12.8807 2.37008 12.9011C2.42008 12.9318 2.47008 12.9625 2.51008 12.9829C2.86008 12.6864 3.34008 12.3693 3.79008 12.2261C3.81008 12.2057 3.87008 12.1034 3.90008 12.0523C3.93008 12.1341 3.93008 12.1852 3.92008 12.2466C3.97008 12.2773 4.10008 12.3898 4.20008 12.4818Z" fill="#0072A6"/>
<path d="M5.55997 12.2466C5.51997 12.2364 5.46997 12.2977 5.44997 12.3795C5.42997 12.4614 5.45997 12.5329 5.49997 12.5432C5.53997 12.5534 5.58997 12.492 5.60997 12.4102C5.62997 12.3284 5.60997 12.2568 5.55997 12.2466Z" fill="#002659"/>
<path d="M5.45011 12.8193C5.41011 12.8091 5.36011 12.8705 5.34011 12.9523C5.32011 13.0341 5.35011 13.1057 5.39011 13.1159C5.43011 13.1261 5.48011 13.0648 5.50011 12.983C5.52011 12.9011 5.49011 12.8193 5.45011 12.8193Z" fill="#002659"/>
<path d="M4.68016 7.55227C4.86016 7.64432 5.32016 7.84886 5.58016 7.94091C5.58016 7.93068 5.59016 7.92045 5.59016 7.91022C5.60016 7.88977 5.60016 7.87954 5.61016 7.85909C5.48016 7.84886 4.76016 7.50113 4.57016 7.36818C4.24016 7.84886 3.34016 8.84091 2.91016 9.22954C2.92016 9.22954 2.93016 9.23977 2.95016 9.23977H2.96016C2.97016 9.23977 2.99016 9.25 3.00016 9.25C3.00016 9.25 3.00016 9.25 3.01016 9.25C3.02016 9.25 3.04016 9.26022 3.05016 9.26022C3.07016 9.27045 3.10016 9.27045 3.12016 9.28068C3.58016 8.87159 4.36016 7.99204 4.68016 7.55227Z" fill="#00B3EF"/>
<path d="M3.7402 15.0182C3.7402 15.0182 3.7502 15.0182 3.7502 15.0284C3.7602 15.0284 3.7702 15.0386 3.7802 15.0386C3.7802 15.0386 3.7802 15.0386 3.7902 15.0386C3.8002 15.0386 3.8202 15.0489 3.8302 15.0489C3.8402 14.4966 3.9502 13.7807 4.1102 13.2284C4.1002 13.2182 4.0902 13.2182 4.0802 13.208C4.0702 13.208 4.0702 13.1977 4.0602 13.1977C4.0502 13.1875 4.0402 13.1875 4.0402 13.1773C4.0302 13.167 4.0302 13.167 4.0202 13.1568C4.0102 13.1568 4.0102 13.1466 4.0002 13.1466C3.9902 13.1364 3.9802 13.1261 3.9702 13.1159C3.8002 13.7091 3.7002 14.4557 3.7002 15.0182C3.7102 15.0182 3.7202 15.0284 3.7302 15.0284C3.7302 15.008 3.7302 15.008 3.7402 15.0182Z" fill="#00B3EF"/>
<path d="M5.15015 13.8932C5.24015 14.1591 5.52015 14.6091 5.68015 14.7523C5.69015 14.7523 5.70015 14.7523 5.71015 14.7523C5.71015 14.7523 5.71015 14.7523 5.72015 14.7523C5.74015 14.7523 5.76015 14.7523 5.79015 14.742C5.79015 14.742 5.79015 14.742 5.80015 14.742C5.81015 14.742 5.83015 14.7318 5.84015 14.7318C5.59015 14.5068 5.33015 14.1386 5.15015 13.8932Z" fill="#00B3EF"/>
<path d="M3.6002 11.4591C3.93019 11.3159 4.16019 11.2034 4.31019 11.1114V11.1011C4.31019 11.0909 4.31019 11.0704 4.31019 11.0602C4.31019 11.05 4.31019 11.05 4.31019 11.0398C4.31019 11.0295 4.31019 11.0091 4.31019 10.9989C4.31019 10.9886 4.31019 10.9784 4.31019 10.9682C4.31019 10.9579 4.31019 10.9477 4.31019 10.9375C4.31019 10.917 4.31019 10.9068 4.31019 10.8864C4.16019 10.9989 3.91019 11.1216 3.4702 11.3159C2.9702 11.6534 2.4002 12.1954 2.2002 12.6761C2.2002 12.6864 2.2002 12.6864 2.2102 12.6966C2.2102 12.6966 2.2102 12.6966 2.2102 12.7068C2.2102 12.717 2.2202 12.717 2.2202 12.7273C2.2202 12.7273 2.2202 12.7273 2.2202 12.7375C2.2202 12.7477 2.2302 12.7477 2.2302 12.7579C2.2402 12.7784 2.2602 12.7989 2.2802 12.8091C2.2902 12.8193 2.3102 12.8295 2.3202 12.85C2.3302 12.8602 2.3502 12.8704 2.3602 12.8909C2.3402 12.8602 2.3302 12.8398 2.3202 12.8193C2.5302 12.3386 3.1002 11.7966 3.6002 11.4591Z" fill="#00B3EF"/>
<path d="M4.33 12.6148C4.29 12.5739 4.24 12.5227 4.19 12.492C4.19 12.5023 4.18 12.5023 4.18 12.5125C4.17 12.5432 4.15 12.5739 4.14 12.6045C4.14 12.6148 4.13 12.6148 4.13 12.625C4.12 12.6557 4.1 12.6864 4.09 12.717C4.08 12.7273 4.08 12.7477 4.07 12.7579C4.06 12.7886 4.05 12.8091 4.04 12.8398C4.02 12.8807 4.01 12.9318 4 12.9727C4.04 13.0136 4.09 13.0545 4.14 13.0852C4.2 12.9114 4.26 12.7477 4.33 12.6148Z" fill="#00B3EF"/>
<path d="M7.97003 11.1625C7.97003 11.1523 7.97003 11.1318 7.97003 11.1216V11.1114C7.97003 11.1011 7.97003 11.0909 7.97003 11.0807C7.97003 11.0705 7.97003 11.0705 7.97003 11.0602C7.97003 11.05 7.97003 11.05 7.97003 11.0398C7.97003 11.0295 7.96003 11.0193 7.96003 10.9989C7.90003 10.9989 7.85003 10.9989 7.79003 10.9886C7.77003 10.9886 7.75003 10.9886 7.74003 10.9886C7.70003 10.9886 7.66003 10.9886 7.62003 10.9784C7.60003 10.9784 7.58003 10.9784 7.56003 10.9784C7.52003 10.9784 7.48003 10.9784 7.44003 10.9682C7.42003 10.9682 7.41003 10.9682 7.39003 10.9682C7.33003 10.9682 7.28003 10.958 7.22003 10.958H7.21003C7.16003 10.958 7.11003 10.9477 7.05003 10.9477C7.03003 10.9477 7.02003 10.9477 7.00003 10.9477C6.96003 10.9477 6.92003 10.9375 6.89003 10.9375C6.87003 10.9375 6.85003 10.9375 6.84003 10.9273C6.80003 10.9273 6.76003 10.917 6.72003 10.917C6.71003 10.917 6.69003 10.917 6.68003 10.917C6.63003 10.9068 6.58003 10.9068 6.53003 10.8966C6.79003 11.0398 7.66003 11.183 7.97003 11.1625Z" fill="#00B3EF"/>
<path d="M4.49012 10.9477C4.45012 10.9068 4.42012 10.8659 4.39012 10.825C4.38012 10.8352 4.38012 10.8352 4.37012 10.8455C4.38012 10.9784 4.43012 11.2034 4.44012 11.2648C4.46012 11.1318 4.47012 11.05 4.49012 10.9477Z" fill="#00B3EF"/>
<path d="M3.62999 9.94545C3.64999 9.76136 3.81999 9.68977 4.02999 9.74091C4.01999 9.73068 3.99999 9.72045 3.98999 9.72045C3.98999 9.72045 3.97999 9.72045 3.97999 9.71022C3.96999 9.71022 3.96999 9.7 3.95999 9.7C3.94999 9.7 3.94999 9.7 3.93999 9.68977C3.92999 9.68977 3.92999 9.68977 3.91999 9.67954C3.90999 9.67954 3.89999 9.66932 3.87999 9.66932H3.86999C3.85999 9.66932 3.84999 9.66932 3.83999 9.65909H3.82999C3.80999 9.65909 3.79999 9.65909 3.77999 9.65909C3.57999 9.65909 3.48999 9.79204 3.48999 9.94545C3.48999 9.96591 3.48999 9.97613 3.48999 9.99659V10.0068C3.48999 10.0273 3.49999 10.0375 3.49999 10.058C3.50999 10.0682 3.50999 10.0886 3.51999 10.0989C3.51999 10.1091 3.52999 10.1091 3.52999 10.1193C3.52999 10.1295 3.53999 10.1295 3.53999 10.1398C3.54999 10.15 3.54999 10.1602 3.55999 10.1602C3.55999 10.1602 3.55999 10.1602 3.56999 10.1705C3.57999 10.1807 3.58999 10.1909 3.60999 10.2011C3.64999 10.2318 3.69999 10.2523 3.74999 10.2727C3.65999 10.1705 3.61999 10.0375 3.62999 9.94545Z" fill="#FCE8C5"/>
<path d="M4.51012 10.7636C4.53012 10.7739 4.54012 10.7739 4.55012 10.7841C4.55012 10.7841 4.56012 10.7841 4.56012 10.7943C4.57012 10.7943 4.58012 10.8045 4.59012 10.8045H4.60012C4.62012 10.8148 4.63012 10.8148 4.65012 10.825C4.50012 10.5591 4.23012 10.2523 4.14012 10.15C4.14012 10.1602 4.14012 10.1602 4.14012 10.1704V10.1807C4.14012 10.2011 4.13012 10.2114 4.12012 10.2318C4.14012 10.2932 4.39012 10.5898 4.48012 10.7432C4.49012 10.7534 4.50012 10.7636 4.51012 10.7636Z" fill="#FCE8C5"/>
<path d="M1.79004 13.2386C1.79004 13.2489 1.79004 13.2489 1.79004 13.2591C1.79004 13.2795 1.80004 13.3 1.81004 13.3205C1.82004 13.3409 1.84004 13.3716 1.87004 13.392C1.84004 13.1875 2.03004 13.0341 2.14004 12.9727C2.11004 12.9523 2.09004 12.9216 2.07004 12.9011C1.93004 12.9625 1.80004 13.0852 1.79004 13.208C1.79004 13.2182 1.79004 13.2284 1.79004 13.2386Z" fill="#FCE8C5"/>
<path d="M8.13012 11.1011C8.17012 11.0193 8.25012 10.9273 8.31012 10.8864C8.37012 10.8455 8.53012 10.7432 8.61012 10.6511C8.60012 10.6511 8.60012 10.6511 8.59012 10.6614C8.58012 10.6614 8.58012 10.6716 8.57012 10.6716C8.54012 10.692 8.39012 10.7739 8.32012 10.7943C8.21012 10.8352 8.14012 10.9273 8.12012 10.9886C8.12012 11.0295 8.13012 11.0602 8.13012 11.1011Z" fill="#FCE8C5"/>
</g>
</g>
<defs>
<clipPath id="clip0_932_204">
<rect width="24" height="24" fill="white"/>
</clipPath>
<clipPath id="clip1_932_204">
<rect width="22" height="9" fill="white" transform="translate(1 7)"/>
</clipPath>
</defs>
</svg>
