<svg width="24" height="24" viewBox="0 0 24 24" fill="none" xmlns="http://www.w3.org/2000/svg">
<g clip-path="url(#clip0_1457_4989)">
<path d="M10.6688 18.9125L12.0938 12.7375H8.17505L12.0938 5.01874L11.7375 10.9562H15.8938L10.6688 18.9125Z" fill="black"/>
<path d="M11.7375 4.30625C14.9437 4.30625 17.5562 4.30625 19.1 4.30625C19.1 7.63125 18.625 16.4188 11.5 20.575C5.32496 16.775 3.66246 9.175 4.01871 4.30625C5.32496 4.30625 7.81871 4.30625 11.7375 4.30625ZM11.7375 3C7.34371 3 2.83121 3 2.83121 3C1.99996 8.34375 3.78121 17.725 11.5 22C19.3375 17.8438 20.7625 8.34375 20.2875 3C20.2875 3 16.0125 3 11.7375 3Z" fill="black"/>
</g>
<defs>
<clipPath id="clip0_1457_4989">
<rect width="19" height="19" fill="white" transform="translate(2 3)"/>
</clipPath>
</defs>
</svg>
