<svg width="24" height="24" viewBox="0 0 24 24" fill="none" xmlns="http://www.w3.org/2000/svg">
<g clip-path="url(#clip0_1001_49)">
<path d="M4.14305 14.685C4.4317 15.0396 4.73574 15.3815 5.0543 15.7095C4.0823 16.0035 3.4418 16.5458 3.0428 17.028C2.4098 17.7885 2.0783 18.7905 2.15405 19.6493H0.4823C0.8213 18.9187 2.1623 16.809 4.1438 14.6843L4.14305 14.685ZM23.541 20.1015H21.507C16.8361 17.661 12.7305 15.9427 8.3768 15.5662C8.3843 14.9632 8.4968 14.2703 8.7008 13.5098L8.3018 13.4047C8.0918 14.1885 7.9778 14.9047 7.9628 15.537C7.50642 15.5068 7.04917 15.4918 6.5918 15.492C6.23303 15.4917 5.875 15.5246 5.5223 15.5903C5.13657 15.2061 4.77203 14.8013 4.4303 14.3775C6.4343 12.291 9.7553 10.4003 12.6263 9.684C13.44 12.381 15.18 14.2267 17.2891 15.4695C17.445 15.3809 17.5983 15.2879 17.7488 15.1905L21.4328 19.1603L21.5828 19.1453C22.5923 19.0553 23.1578 19.605 23.3078 19.7783C23.4278 19.8983 23.4878 20.0033 23.5328 20.1023L23.541 20.1015Z" fill="#D1A41B"/>
<path d="M21.7485 6.828C21.8235 10.4895 19.9485 13.4055 17.3415 14.904C12.9045 12.6893 12.069 7.0845 12.8213 4.0785C13.0313 5.23125 13.4168 5.9535 14.2448 6.30075C16.0448 5.7885 18.531 5.7435 20.3543 6.24825C21.1148 5.691 21.4088 4.84725 21.5745 4.1085C21.7695 4.96725 21.7395 6.828 21.747 6.828H21.7485Z" fill="#FFDC76"/>
<path d="M10.5766 10.2937L11.2546 12.3052L9.19806 10.9192L10.5766 10.2937ZM8.59506 11.175L9.31806 12.4252L7.78806 11.649L8.59506 11.175ZM6.94506 12.1545L7.29156 13.4047L6.23706 12.6818L6.94506 12.1545ZM18.1621 15.5145L17.5066 16.5165L18.6593 15.9893L18.1621 15.5145ZM19.1866 16.6672L18.1396 17.4735L19.5946 17.097L19.1866 16.6672ZM16.6261 5.781L17.4023 7.4835L17.9071 5.7585L16.6261 5.781ZM12.6863 8.25975L13.9141 8.91525L12.8063 8.99025L12.6863 8.25975ZM12.9878 9.59325L13.7408 9.89475L13.1078 10.0673L12.9878 9.59325ZM21.7718 8.742L20.7623 9.1635L21.5911 9.291L21.7718 8.742ZM21.3653 9.96975L20.5891 10.1948L21.2146 10.4197L21.3653 9.96975ZM12.2791 11.8447H14.7046V12.1462H12.2791V11.8447ZM12.2791 11.1292H14.7046V11.4307H12.2791V11.1292ZM19.6771 11.8447H22.1026V12.1462H19.6771V11.8447ZM19.6771 11.1292H22.1026V11.4307H19.6771V11.1292ZM18.8183 9.35175H14.8711V9.08025H16.0988C16.2488 8.43225 16.2788 7.815 16.0988 7.50525C16.0238 7.37025 15.9113 7.31025 15.7598 7.31025C15.0593 7.31025 14.7653 8.05575 14.7578 8.0865L14.5103 7.989C14.5253 7.9515 14.8793 7.0395 15.7681 7.0395C15.8848 7.03629 16.0001 7.06559 16.1012 7.12412C16.2022 7.18266 16.285 7.26814 16.3403 7.371C16.5653 7.755 16.5353 8.4105 16.3853 9.096H18.5401C18.8266 8.25225 19.4213 7.86075 20.4151 7.86075V8.13225C19.3306 8.13225 19.0291 8.592 18.8101 9.10425H19.9853V9.37575L18.8183 9.35175Z" fill="#010202"/>
<path d="M18.999 10.6928C18.6825 10.218 18.5775 9.819 18.7125 9.35925H18.441C18.3435 9.66075 18.381 10.1198 18.621 10.5195H15.879C16.0621 10.1479 16.2085 9.75929 16.3162 9.35925H16.0372C15.9097 9.804 15.7357 10.2405 15.54 10.587L15.48 10.6995L17.0175 11.664L16.1512 12.2363L16.3012 12.4613L17.2657 11.8208L18.3127 12.4988L18.4627 12.2738L17.4982 11.6783C17.9973 11.3443 18.4995 11.0153 19.005 10.6913L18.999 10.6928ZM17.259 11.5065L16.1212 10.791H18.3435L17.259 11.5065ZM22.2 6.504C22.2 6.03675 22.05 4.056 21.786 3.513C21.063 3.792 19.737 4.68075 19.4355 5.5995C17.9523 5.39188 16.4463 5.40958 14.9685 5.652C14.7435 4.665 13.545 3.912 12.648 3.48975C12.2715 4.13025 12.1057 5.60625 12.1432 6.65475H12.1357C12.3007 11.0543 14.4637 13.7963 17.2882 15.4613C20.196 13.8113 22.275 10.5638 22.2 6.504ZM19.782 5.65275C19.7895 5.65275 19.8045 5.66025 19.812 5.66025C19.797 5.66025 19.7895 5.65275 19.782 5.65275ZM19.602 5.62275C19.6245 5.63025 19.6545 5.63025 19.677 5.63775C19.647 5.63025 19.6245 5.62275 19.602 5.62275ZM21.75 6.8205C21.825 10.482 19.95 13.398 17.343 14.8965C12.906 12.6818 12.063 7.077 12.8227 4.071C13.0327 5.22375 13.4182 5.946 14.2462 6.29325C16.0462 5.781 18.5325 5.736 20.3557 6.24075C21.1162 5.6835 21.4102 4.83975 21.576 4.101C21.771 4.95975 21.741 6.8205 21.7485 6.8205H21.75Z" fill="#010202"/>
<path d="M23.64 19.5C23.1803 18.9877 22.2915 18.747 21.546 18.7695C21.0188 18.1365 17.946 14.9047 17.946 14.9047L17.736 15.1763L21.45 19.1625L21.6 19.1475C22.6095 19.0725 23.175 19.6073 23.325 19.7805C23.4156 19.8738 23.4871 19.9839 23.5358 20.1045H21.5025C16.8315 17.664 12.726 15.9458 8.37225 15.5693C8.37975 14.9587 8.49225 14.2732 8.69625 13.5127L8.29725 13.4078C8.08725 14.1915 7.97325 14.9077 7.95825 15.54C7.50187 15.5098 7.04462 15.4948 6.58725 15.495C6.22848 15.4947 5.87045 15.5276 5.51775 15.5933C5.13186 15.2088 4.76708 14.8037 4.425 14.3797C6.4515 12.2707 9.789 10.3642 12.69 9.66375L12.6 9.25725C9.4815 10.0102 6.069 12.06 4.1625 14.0332C3.28125 12.843 2.92725 11.8635 2.829 11.1255C2.7015 10.191 2.919 9.3255 3.477 8.63925C4.34325 7.56225 5.5785 7.4865 6.852 7.69725C6.8295 7.89975 6.852 8.08875 6.927 8.2095C7.2585 8.70675 9.06675 8.88 10.137 8.397C9.34575 7.28175 7.734 6.747 7.28925 6.9585C7.13925 7.0335 7.03275 7.161 6.95775 7.32C6.5205 7.245 6.084 7.185 5.7675 7.185C4.65225 7.1925 3.7935 7.584 3.15375 8.37525C2.52825 9.159 2.2725 10.1227 2.42325 11.178C2.57325 12.1725 3.05625 13.2345 3.88575 14.328L3.48675 14.7652C1.47 17.0205 0 19.44 0 19.845V20.055H2.6595L2.6145 19.8075C2.4645 19.0162 2.7645 18.0225 3.375 17.2837C3.759 16.8165 4.3995 16.2892 5.4015 16.041C6.29025 16.9148 7.428 17.841 8.7015 18.7305H10.6755V18.5205C10.6755 18.2955 10.563 18.0832 10.3515 17.9407C10.0425 17.7382 9.56025 17.7157 9.11625 17.8657C8.69475 17.3985 8.46075 16.7662 8.40825 15.9907C12.6945 16.3672 16.8083 18.0997 21.426 20.5185H23.9722L24.0022 20.3535C24.0397 20.1285 23.9123 19.7962 23.6483 19.5022L23.64 19.5ZM3.045 17.0137C2.4195 17.7742 2.0805 18.7762 2.15625 19.635H0.48225C0.82125 18.9045 2.16225 16.8022 4.14375 14.67C4.41525 15.009 4.7235 15.348 5.055 15.6945C4.2688 15.9253 3.56875 16.3841 3.0435 17.013L3.045 17.0137Z" fill="#010202"/>
</g>
<defs>
<clipPath id="clip0_1001_49">
<rect width="24" height="24" fill="white"/>
</clipPath>
</defs>
</svg>
