<svg width="24" height="24" viewBox="0 0 24 24" fill="none" xmlns="http://www.w3.org/2000/svg">
<g clip-path="url(#clip0_941_20188)">
<path d="M1.29568 15.4502C1.29568 15.4852 1.30226 15.5172 1.31483 15.5456C1.3274 15.5746 1.34475 15.5993 1.36689 15.6204C1.38844 15.6409 1.41417 15.6572 1.44349 15.6681C1.47281 15.6796 1.50513 15.6856 1.53983 15.6856C1.61583 15.6856 1.67627 15.6591 1.72235 15.6059C1.76843 15.5534 1.79117 15.484 1.79117 15.3983C1.79117 15.3096 1.76903 15.2395 1.72355 15.187C1.67807 15.1351 1.61763 15.1092 1.54163 15.1092C1.48179 15.1092 1.43092 15.123 1.38963 15.152C1.34834 15.181 1.31722 15.2202 1.29568 15.2697V15.4502ZM1.29568 15.7581C1.29568 15.8088 1.28431 15.8432 1.26097 15.8625C1.23823 15.8818 1.20831 15.8914 1.17301 15.8914H1.14309C1.10479 15.8914 1.07367 15.8824 1.05033 15.8637C1.02759 15.845 1.01562 15.8094 1.01562 15.7568V14.5206C1.01562 14.5152 1.0264 14.5086 1.04734 14.5007C1.06888 14.4929 1.09342 14.4886 1.12095 14.4886C1.14249 14.4886 1.16343 14.4923 1.18378 14.4989C1.20412 14.5055 1.22268 14.517 1.23943 14.5339C1.25559 14.5508 1.26935 14.5738 1.28012 14.6033C1.29089 14.6329 1.29568 14.6703 1.29568 14.7156L1.29688 15.0434C1.33099 14.9933 1.37527 14.9546 1.42853 14.9257C1.48119 14.8967 1.54223 14.8822 1.61164 14.8822C1.67687 14.8822 1.73671 14.8943 1.79177 14.9184C1.84682 14.9426 1.89469 14.977 1.93419 15.021C1.97428 15.0651 2.0054 15.1188 2.02814 15.1828C2.05088 15.2462 2.06165 15.3168 2.06165 15.3947C2.06165 15.4707 2.05088 15.5407 2.02874 15.6047C2.00719 15.6681 1.97608 15.7224 1.93598 15.7671C1.89649 15.8124 1.84802 15.8474 1.79236 15.8727C1.73671 15.8981 1.67508 15.9108 1.60686 15.9108C1.53146 15.9108 1.46683 15.8945 1.41477 15.8619C1.36211 15.8287 1.32261 15.7888 1.29568 15.7424V15.7581Z" fill="#00A650"/>
<path d="M2.46207 16.1975C2.43694 16.2041 2.40642 16.2071 2.37051 16.2071C2.33461 16.2059 2.2993 16.2023 2.264 16.1945C2.22869 16.1872 2.19578 16.1758 2.16526 16.1607C2.13474 16.145 2.112 16.1263 2.09644 16.1033C2.08148 16.0804 2.0761 16.0538 2.07969 16.023C2.08387 15.9923 2.10243 15.9578 2.13534 15.9204C2.18201 15.9403 2.2263 15.9548 2.26878 15.9627C2.30589 15.9693 2.34359 15.9711 2.38129 15.9675C2.41899 15.9645 2.4513 15.9488 2.47823 15.9204C2.49259 15.9029 2.50396 15.8878 2.51174 15.8752C2.51952 15.8625 2.5249 15.8522 2.5279 15.8444C2.53149 15.8335 2.53328 15.8257 2.53149 15.8202C2.50935 15.8172 2.4908 15.8112 2.47583 15.8021C2.46147 15.7925 2.4495 15.778 2.43993 15.758L2.10542 14.9746C2.10422 14.9703 2.10781 14.9637 2.11559 14.954C2.12337 14.945 2.13414 14.9359 2.1485 14.9269C2.16227 14.9184 2.17902 14.9106 2.19817 14.9027C2.21732 14.8955 2.23767 14.8919 2.25921 14.8919C2.29212 14.8919 2.32204 14.9015 2.34837 14.9202C2.3753 14.9389 2.39744 14.9764 2.41599 15.0325L2.62723 15.5933L2.81454 15.0349C2.83189 14.9782 2.85463 14.9408 2.88216 14.9208C2.91028 14.9015 2.9396 14.8919 2.97012 14.8919C2.98987 14.8919 3.00902 14.8955 3.02757 14.9021C3.04612 14.9088 3.06228 14.9166 3.07664 14.9263C3.0904 14.9353 3.10177 14.9444 3.11015 14.9522C3.11913 14.9601 3.12272 14.9661 3.12152 14.9703L2.76666 15.9065C2.75589 15.9331 2.74333 15.9609 2.72777 15.9898C2.71281 16.0188 2.69306 16.0466 2.66912 16.0731C2.64519 16.0997 2.61646 16.1244 2.58235 16.1468C2.54884 16.1685 2.50875 16.1854 2.46207 16.1975Z" fill="#00A650"/>
<path d="M4.75923 15.4894C4.75923 15.5739 4.73769 15.6476 4.6952 15.7098C4.65212 15.7713 4.59168 15.819 4.51508 15.8522C4.43789 15.8848 4.34992 15.9011 4.24998 15.9011C4.22246 15.9011 4.18835 15.8993 4.14766 15.8957C4.10756 15.892 4.05371 15.8824 3.98668 15.8661C3.91966 15.8498 3.85025 15.8256 3.77784 15.7937V15.4611C3.84546 15.5033 3.91188 15.5389 3.97771 15.5667C4.04293 15.5951 4.11295 15.6089 4.18775 15.6089C4.25717 15.6089 4.30145 15.5975 4.32179 15.5739C4.34214 15.551 4.35231 15.5293 4.35231 15.5087C4.35231 15.4725 4.33496 15.4411 4.30025 15.4164C4.26554 15.391 4.21468 15.3651 4.14825 15.3379C4.07465 15.3065 4.01062 15.2727 3.95497 15.2359C3.89932 15.1985 3.85384 15.1526 3.81913 15.0965C3.78382 15.0409 3.76587 14.9752 3.76587 14.8997C3.76587 14.8261 3.78382 14.7597 3.81973 14.7005C3.85503 14.6414 3.90949 14.5943 3.98249 14.5587C4.0555 14.523 4.14466 14.5055 4.24998 14.5055C4.32479 14.5055 4.3942 14.5134 4.45823 14.5279C4.52166 14.5424 4.57432 14.5593 4.61562 14.5774C4.65691 14.5955 4.68563 14.61 4.70119 14.6208V14.9395C4.64613 14.8997 4.5845 14.8641 4.51688 14.8327C4.44926 14.8013 4.37685 14.7856 4.30025 14.7856C4.24939 14.7856 4.21288 14.7959 4.19014 14.8152C4.1674 14.8351 4.15603 14.8593 4.15603 14.8876C4.15603 14.9148 4.1674 14.9377 4.19014 14.9576C4.21288 14.977 4.25298 15.0011 4.31102 15.0289C4.41455 15.0784 4.49773 15.1224 4.55996 15.1617C4.6222 15.2009 4.67127 15.2462 4.70657 15.2975C4.74188 15.3488 4.75923 15.4128 4.75923 15.4894Z" fill="#231F20"/>
<path d="M5.82685 15.8377C5.79753 15.8486 5.76641 15.8588 5.7341 15.8685C5.70178 15.8782 5.66528 15.886 5.62459 15.892C5.58449 15.8981 5.54021 15.9011 5.49234 15.9011C5.38403 15.9011 5.29247 15.883 5.21707 15.8462C5.14227 15.8087 5.08482 15.7629 5.04413 15.7067C5.00344 15.6506 4.97591 15.5939 4.96035 15.5353C4.94479 15.4774 4.93701 15.4261 4.93701 15.3814C4.93701 15.3373 4.94479 15.286 4.96035 15.2275C4.97651 15.1695 5.00403 15.1134 5.04353 15.0591C5.08302 15.0047 5.14047 14.9595 5.21527 14.9226C5.29008 14.8864 5.38223 14.8677 5.49234 14.8677C5.56534 14.8677 5.62519 14.8731 5.67126 14.8834C5.71674 14.8943 5.76342 14.9081 5.81129 14.9257V15.2027C5.697 15.1665 5.60783 15.1478 5.5438 15.1478C5.48157 15.1478 5.42591 15.1671 5.37804 15.2051C5.32957 15.2426 5.30563 15.3017 5.30563 15.3814C5.30563 15.4345 5.3176 15.4792 5.34154 15.5154C5.36548 15.5522 5.3954 15.5788 5.4325 15.5957C5.4696 15.6126 5.5067 15.621 5.5438 15.621C5.57851 15.621 5.6186 15.6162 5.66348 15.6053C5.70777 15.5951 5.76222 15.58 5.82685 15.5601V15.8377Z" fill="#231F20"/>
<path d="M7.05365 15.8842H6.70417V15.3663C6.70417 15.3621 6.70417 15.3584 6.70477 15.3548C6.70477 15.3512 6.70537 15.344 6.70537 15.3319C6.70537 15.2842 6.6952 15.2401 6.67485 15.2003C6.65451 15.1605 6.61621 15.1405 6.56055 15.1405C6.51627 15.1405 6.47738 15.1556 6.44386 15.1852C6.40975 15.2148 6.37804 15.2522 6.34752 15.2975V15.8842H5.99805V14.5249H6.34752V15.0289C6.40497 14.9667 6.46182 14.9244 6.51867 14.9015C6.57492 14.8792 6.63476 14.8677 6.69819 14.8677C6.93516 14.8677 7.05365 15.0023 7.05365 15.2709V15.8842Z" fill="#231F20"/>
<path d="M8.32049 15.8842H7.97102V15.3458C7.97102 15.2908 7.96204 15.2432 7.94469 15.2021C7.92674 15.1611 7.88784 15.1405 7.8274 15.1405C7.79868 15.1405 7.77354 15.146 7.752 15.1568C7.73046 15.1677 7.71071 15.1816 7.69395 15.1985C7.6766 15.2154 7.66224 15.2317 7.65027 15.2474C7.6389 15.2631 7.62693 15.28 7.61437 15.2975V15.8842H7.26489V14.8846H7.61437V15.0289C7.66942 14.9691 7.72447 14.9275 7.78013 14.9039C7.83518 14.8798 7.89741 14.8677 7.96504 14.8677C8.20201 14.8677 8.32049 15.0114 8.32049 15.2975V15.8842Z" fill="#231F20"/>
<path d="M9.21932 15.2951C9.21932 15.2311 9.20316 15.1804 9.17145 15.1424C9.13973 15.1043 9.09485 15.085 9.03501 15.085C8.97637 15.085 8.92909 15.1043 8.89259 15.1436C8.85668 15.1822 8.83873 15.2329 8.83873 15.2951H9.21932ZM9.54725 15.4689H8.84831C8.86207 15.5299 8.89558 15.58 8.94884 15.6186C9.0021 15.6572 9.06254 15.6766 9.13016 15.6766C9.24805 15.6766 9.3791 15.6434 9.52152 15.5764V15.7955C9.47065 15.822 9.40842 15.8468 9.33541 15.8685C9.26241 15.8902 9.16965 15.9011 9.05655 15.9011C8.93448 15.9011 8.83035 15.8782 8.74478 15.8329C8.65921 15.787 8.59518 15.7248 8.55269 15.6464C8.5102 15.5679 8.48926 15.4792 8.48926 15.3796C8.48926 15.2818 8.5102 15.1937 8.55269 15.1164C8.59518 15.0391 8.65921 14.9782 8.74478 14.9341C8.83035 14.89 8.93448 14.8677 9.05655 14.8677C9.13674 14.8677 9.21453 14.8852 9.28934 14.9202C9.36474 14.9552 9.42637 15.012 9.47425 15.0916C9.52272 15.1707 9.54725 15.2733 9.54725 15.3983V15.4689Z" fill="#231F20"/>
<path d="M10.0577 14.6546C10.0577 14.6957 10.0427 14.7307 10.014 14.7597C9.98467 14.788 9.95056 14.8025 9.91047 14.8025C9.88294 14.8025 9.8584 14.7959 9.83626 14.7832C9.81412 14.7699 9.79617 14.7524 9.7836 14.7295C9.77044 14.7071 9.76445 14.6818 9.76445 14.6546C9.76445 14.6142 9.77822 14.5792 9.80694 14.5496C9.83507 14.5206 9.86977 14.5055 9.91047 14.5055C9.95056 14.5055 9.98467 14.5206 10.014 14.5496C10.0427 14.5792 10.0577 14.6142 10.0577 14.6546ZM10.0858 15.8842H9.73633V14.8846H10.0858V15.8842Z" fill="#231F20"/>
<path d="M11.0258 15.5673V15.1852C10.9845 15.1623 10.9522 15.146 10.9294 15.1363C10.9061 15.1261 10.8792 15.1212 10.848 15.1212C10.7924 15.1212 10.7463 15.1448 10.7098 15.1919C10.6727 15.2389 10.6548 15.3035 10.6548 15.3844C10.6548 15.4731 10.6739 15.5377 10.7128 15.5776C10.7511 15.618 10.7966 15.6379 10.848 15.6379C10.8899 15.6379 10.924 15.6313 10.9504 15.618C10.9761 15.6047 11.0012 15.5878 11.0258 15.5673ZM11.3752 15.8842H11.0258V15.7943C10.9887 15.825 10.9492 15.851 10.9079 15.8709C10.8666 15.8914 10.8097 15.9011 10.7373 15.9011C10.6649 15.9011 10.5943 15.883 10.5243 15.8474C10.4549 15.8112 10.398 15.755 10.3532 15.679C10.3083 15.6029 10.2861 15.5069 10.2861 15.3916C10.2861 15.3005 10.3029 15.2154 10.3364 15.1357C10.3705 15.0566 10.4232 14.9921 10.4956 14.9426C10.5674 14.8931 10.656 14.8677 10.7607 14.8677C10.8253 14.8677 10.878 14.875 10.9181 14.8894C10.9587 14.9039 10.9941 14.922 11.0258 14.9444V14.5249H11.3752V15.8842Z" fill="#231F20"/>
<path d="M12.285 15.2951C12.285 15.2311 12.2688 15.1804 12.2377 15.1424C12.206 15.1043 12.1605 15.085 12.1013 15.085C12.0426 15.085 11.9954 15.1043 11.9589 15.1436C11.9224 15.1822 11.9044 15.2329 11.9044 15.2951H12.285ZM12.6129 15.4689H11.9146C11.9277 15.5299 11.9613 15.58 12.0145 15.6186C12.0678 15.6572 12.1282 15.6766 12.1958 15.6766C12.3143 15.6766 12.4448 15.6434 12.5878 15.5764V15.7955C12.5363 15.822 12.4741 15.8468 12.4011 15.8685C12.3281 15.8902 12.2353 15.9011 12.1222 15.9011C12.0002 15.9011 11.8966 15.8782 11.8111 15.8329C11.7255 15.787 11.6609 15.7248 11.619 15.6464C11.5765 15.5679 11.5549 15.4792 11.5549 15.3796C11.5549 15.2818 11.5765 15.1937 11.619 15.1164C11.6609 15.0391 11.7255 14.9782 11.8111 14.9341C11.8966 14.89 12.0002 14.8677 12.1222 14.8677C12.203 14.8677 12.2802 14.8852 12.3556 14.9202C12.4304 14.9552 12.492 15.012 12.5405 15.0916C12.5884 15.1707 12.6129 15.2733 12.6129 15.3983V15.4689Z" fill="#231F20"/>
<path d="M13.6548 14.9389L13.5256 15.292C13.4723 15.2407 13.4185 15.2154 13.364 15.2154C13.3149 15.2154 13.2719 15.2323 13.236 15.2661C13.2001 15.2999 13.1653 15.3621 13.1324 15.4532V15.8842H12.783V14.8846H13.1324V15.1254C13.1546 15.0663 13.1935 15.0083 13.2497 14.9522C13.3048 14.8961 13.3706 14.8677 13.4454 14.8677C13.4849 14.8677 13.5196 14.8737 13.5489 14.8852C13.5788 14.8973 13.6142 14.9148 13.6548 14.9389Z" fill="#231F20"/>
<path d="M14.6018 14.7253H15.2529V14.8725H14.767V15.2275H15.2385V15.3772H14.767V15.7369H15.2696V15.8842H14.6018V14.7253Z" fill="#231F20"/>
<path d="M15.748 14.7253H15.8988V15.8842H15.748V14.7253Z" fill="#231F20"/>
<path d="M16.5504 15.4254H16.931C16.9268 15.3645 16.9095 15.3174 16.8777 15.2842C16.8454 15.2516 16.8029 15.2347 16.7491 15.2347C16.6958 15.2347 16.6515 15.2516 16.6174 15.2842C16.5833 15.3174 16.5606 15.3645 16.5504 15.4254ZM17.0794 15.5148H16.548C16.5516 15.589 16.5761 15.6476 16.6204 15.691C16.6647 15.7345 16.7228 15.7562 16.7928 15.7562C16.8915 15.7562 16.9819 15.726 17.065 15.6645V15.8112C17.019 15.8413 16.9735 15.8637 16.928 15.8763C16.8831 15.8896 16.8299 15.8963 16.7694 15.8963C16.6863 15.8963 16.6186 15.8788 16.5672 15.8438C16.5157 15.8087 16.4744 15.7623 16.4433 15.7031C16.4128 15.644 16.3972 15.5757 16.3972 15.4979C16.3972 15.3814 16.4295 15.2866 16.4954 15.2136C16.5606 15.1411 16.645 15.1043 16.7491 15.1043C16.8496 15.1043 16.9298 15.1399 16.9896 15.2106C17.0495 15.2818 17.0794 15.3766 17.0794 15.4955V15.5148Z" fill="#231F20"/>
<path d="M18.1301 15.7079V15.8564C18.0541 15.8848 17.9805 15.8987 17.9081 15.8987C17.789 15.8987 17.6945 15.8631 17.6233 15.7924C17.5526 15.7212 17.5173 15.6258 17.5173 15.5063C17.5173 15.3862 17.5514 15.289 17.6209 15.2154C17.6903 15.1411 17.7812 15.1043 17.8937 15.1043C17.9332 15.1043 17.9685 15.1079 17.9997 15.1158C18.0308 15.123 18.0697 15.1375 18.1157 15.1574V15.3192C18.0386 15.2697 17.9679 15.2444 17.9021 15.2444C17.8339 15.2444 17.7776 15.2685 17.734 15.3168C17.6897 15.3651 17.6681 15.4267 17.6681 15.5015C17.6681 15.5806 17.6915 15.6427 17.7387 15.6892C17.786 15.7357 17.8501 15.7586 17.9302 15.7586C17.9883 15.7586 18.0547 15.7417 18.1301 15.7079Z" fill="#231F20"/>
<path d="M18.5132 15.2413L18.7956 14.9619V15.1212H19.0326V15.2564H18.7956V15.6319C18.7956 15.72 18.8315 15.7635 18.9022 15.7635C18.9554 15.7635 19.0117 15.746 19.0709 15.7104V15.8504C19.0135 15.8824 18.9512 15.8987 18.8836 15.8987C18.8148 15.8987 18.7585 15.8788 18.7131 15.8383C18.6987 15.8256 18.6867 15.8124 18.6777 15.7967C18.6682 15.7816 18.6604 15.7617 18.6544 15.7369C18.6478 15.7122 18.6448 15.6651 18.6448 15.5957V15.2564H18.5132V15.2413Z" fill="#231F20"/>
<path d="M19.6603 15.1212V15.2951L19.6687 15.2818C19.7411 15.1635 19.8141 15.1043 19.8871 15.1043C19.944 15.1043 20.0032 15.1333 20.0648 15.1912L19.9853 15.324C19.9332 15.2745 19.8847 15.2492 19.8398 15.2492C19.7914 15.2492 19.7489 15.2727 19.7136 15.3192C19.6783 15.3657 19.6603 15.4206 19.6603 15.4846V15.8842H19.5095V15.1212H19.6603Z" fill="#231F20"/>
<path d="M20.4922 15.1212H20.643V15.8842H20.4922V15.1212ZM20.5676 14.8001C20.5921 14.8001 20.6137 14.8086 20.631 14.8261C20.6484 14.843 20.6574 14.8641 20.6574 14.8888C20.6574 14.9136 20.6484 14.9347 20.631 14.9522C20.6137 14.9703 20.5921 14.9788 20.5676 14.9788C20.5449 14.9788 20.5245 14.9697 20.5066 14.9522C20.4892 14.9341 20.4802 14.913 20.4802 14.8888C20.4802 14.8659 20.4892 14.8454 20.5066 14.8273C20.5245 14.8092 20.5449 14.8001 20.5676 14.8001Z" fill="#231F20"/>
<path d="M21.7471 15.7079V15.8564C21.6711 15.8848 21.5974 15.8987 21.525 15.8987C21.406 15.8987 21.3114 15.8631 21.2402 15.7924C21.1696 15.7212 21.1343 15.6258 21.1343 15.5063C21.1343 15.3862 21.1684 15.289 21.2378 15.2154C21.3072 15.1411 21.3982 15.1043 21.5107 15.1043C21.5502 15.1043 21.5855 15.1079 21.6166 15.1158C21.6477 15.123 21.6866 15.1375 21.7327 15.1574V15.3192C21.6555 15.2697 21.5849 15.2444 21.5191 15.2444C21.4508 15.2444 21.3946 15.2685 21.3509 15.3168C21.3066 15.3651 21.2851 15.4267 21.2851 15.5015C21.2851 15.5806 21.3084 15.6427 21.3557 15.6892C21.403 15.7357 21.467 15.7586 21.5472 15.7586C21.6052 15.7586 21.6717 15.7417 21.7471 15.7079Z" fill="#231F20"/>
<path d="M21.7462 13.1975H1.09741V13.0816H21.7462V13.1975Z" fill="#231F20"/>
<path d="M4.70597 11.709L3.97112 10.3871H6.62628L5.29301 7.53862L3.3386 11.709H1L4.06148 6.07968H6.52455L9.56328 11.709H4.70597Z" fill="#E51636"/>
<path d="M9.57483 8.43861H12.4891C13.224 8.43861 13.5172 8.39273 13.5172 7.8688C13.5172 7.36719 13.2802 7.30985 12.5232 7.30985H9.56346L8.9082 6.07968H13.0205C14.9641 6.07968 15.6864 6.935 15.6864 7.84586C15.6864 8.72352 15.0204 9.69171 12.8853 9.69171H11.9128V11.709H9.56346V8.43861H9.57483Z" fill="#E51636"/>
<path d="M21.7764 11.2877C21.0756 11.6178 20.2061 11.7778 19.2792 11.7778C16.4774 11.7778 15.5176 10.2048 15.5176 8.9058C15.5176 7.26518 16.9406 6 19.3929 6C20.2851 6 21.0643 6.13642 21.7195 6.38752V8.01668C21.0421 7.6527 20.4545 7.49274 19.7651 7.49274C18.5898 7.49274 17.63 8.02815 17.63 8.88287C17.63 9.72612 18.6126 10.2736 19.7879 10.2736C20.4659 10.2736 21.0194 10.1372 21.7764 9.78346V11.2877Z" fill="#E51636"/>
<path d="M22.1282 6.45512C22.1055 6.45512 22.0935 6.44304 22.0935 6.42252V6.4189C22.0935 6.39898 22.1055 6.38751 22.1282 6.38751H22.4591C22.4813 6.38751 22.4926 6.39898 22.4926 6.4189V6.42252C22.4926 6.44304 22.4813 6.45512 22.4591 6.45512H22.3311V6.82815C22.3311 6.85049 22.3197 6.86256 22.2976 6.86256H22.288C22.2664 6.86256 22.2557 6.85049 22.2557 6.82815V6.45512H22.1282Z" fill="#231F20"/>
<path d="M22.5571 6.82815V6.42614C22.5571 6.40079 22.5739 6.38449 22.6002 6.38449H22.6194C22.6487 6.38449 22.6565 6.39596 22.6678 6.42252L22.7785 6.67423L22.8898 6.42252C22.9012 6.39475 22.9102 6.38449 22.9377 6.38449H22.9557C22.9826 6.38449 23 6.40079 23 6.42614V6.82815C23 6.85048 22.9904 6.86255 22.9688 6.86255H22.9587C22.9377 6.86255 22.9287 6.85048 22.9287 6.82815V6.48167L22.8252 6.71648C22.8174 6.73579 22.8097 6.74847 22.7779 6.74847C22.745 6.74847 22.739 6.73579 22.7301 6.71648L22.6283 6.48409V6.82815C22.6283 6.85048 22.6194 6.86255 22.5978 6.86255H22.5859C22.5661 6.86255 22.5571 6.85048 22.5571 6.82815Z" fill="#231F20"/>
</g>
<defs>
<clipPath id="clip0_941_20188">
<rect width="24" height="24" fill="white"/>
</clipPath>
</defs>
</svg>
