<svg width="24" height="24" viewBox="0 0 24 24" fill="none" xmlns="http://www.w3.org/2000/svg">
<g clip-path="url(#clip0_941_20263)">
<path d="M20.0409 15.8949C19.9749 15.7927 19.8674 15.7245 19.7468 15.7082C18.16 15.5009 17.0417 14.0466 17.249 12.4599C17.3954 11.339 18.1802 10.4057 19.2593 10.0691C19.4785 9.99882 19.5992 9.76426 19.529 9.54512C19.518 9.51102 19.5027 9.47844 19.4835 9.4482C18.7553 8.13408 17.4606 7.2303 15.976 6.99991C15.2279 7.03561 14.4906 7.19354 13.7935 7.4674C13.2929 7.66889 12.7642 7.79228 12.2261 7.83322C11.6879 7.79228 11.1592 7.66889 10.6586 7.4674C9.96147 7.19354 9.22422 7.03561 8.4761 6.99991C6.92029 6.99991 3.89282 9.20571 3.89282 13.2498C3.89282 17.0931 6.69611 21.9998 8.89277 21.9998C9.73093 22.0073 10.559 21.8165 11.3094 21.4431C11.592 21.2872 11.9044 21.1929 12.2261 21.1664C12.5477 21.1929 12.8602 21.2872 13.1428 21.4431C13.8932 21.8165 14.7213 22.0073 15.5594 21.9998C17.3011 21.9998 19.2669 19.0098 20.0902 16.239C20.1247 16.1226 20.1067 15.9969 20.0409 15.8949Z" fill="#37474F"/>
<path d="M11.8095 6.99995C14.3396 6.99718 16.39 4.94681 16.3927 2.41668C16.3927 2.18656 16.2062 2 15.9761 2C13.446 2.00277 11.3956 4.05314 11.3928 6.58328C11.3928 6.81339 11.5793 6.99995 11.8095 6.99995Z" fill="#37474F"/>
</g>
<defs>
<clipPath id="clip0_941_20263">
<rect width="24" height="24" fill="white"/>
</clipPath>
</defs>
</svg>
