<svg width="24" height="24" viewBox="0 0 24 24" fill="none" xmlns="http://www.w3.org/2000/svg">
<g clip-path="url(#clip0_941_20357)">
<path d="M13.4794 12.0615C13.4794 13.131 12.5292 14 11.3713 14C10.2134 14 9.26325 13.131 9.26325 12.0615V10.4156C9.26325 10.4156 10.2714 10.6416 10.2714 11.5989V12.0565C10.2714 12.6433 10.7619 13.1101 11.3713 13.1101C11.9807 13.1101 12.4712 12.6433 12.4712 12.0565V11.1229C12.5157 10.3227 13.2731 10.0694 13.467 9.97598H13.4794V12.0615ZM8.05111 10.1337C8.33364 10.1337 8.60104 10.1737 8.83934 10.2672V11.2807C8.63106 11.1207 8.34842 11.0273 8.05088 11.0273C7.38146 11.0272 6.84585 11.4941 6.84585 12.081V13.9929H5.83765V10.4939C5.83765 10.4939 6.25411 10.5071 6.52185 10.6805C6.90852 10.3338 7.45879 10.1338 8.05375 10.1338M3.20407 13.1212C2.53476 13.1212 1.98449 12.641 1.98449 12.0542C1.98449 11.4674 2.53441 10.9873 3.20407 10.9873C3.87372 10.9873 4.42365 11.4674 4.42365 12.0542C4.42365 12.641 3.87372 13.1212 3.20407 13.1212ZM3.20109 10.1338C1.98151 10.1338 1 11.0007 1 12.0542C1 13.1212 1.98162 13.9747 3.20109 13.9747C3.70679 13.9747 4.16782 13.828 4.53971 13.5741C4.76277 13.9075 5.40229 13.9747 5.40229 13.9747V12.0542C5.40229 11.0007 4.42067 10.1338 3.20109 10.1338ZM20.7988 13.1212C20.1295 13.1212 19.5792 12.641 19.5792 12.0542C19.5792 11.4674 20.1291 10.9873 20.7988 10.9873C21.4684 10.9873 22.0184 11.4674 22.0184 12.0542C22.0184 12.641 21.4684 13.1212 20.7988 13.1212ZM20.7988 10.1338C19.5792 10.1338 18.5977 11.0007 18.5977 12.0542C18.5977 13.1212 19.5793 13.9747 20.7988 13.9747C21.3045 13.9747 21.7655 13.828 22.1374 13.5741C22.3605 13.9075 23 13.9747 23 13.9747V12.0542C23 11.0007 22.0184 10.1338 20.7988 10.1338ZM16.1286 13.1212C15.4595 13.1212 14.9091 12.641 14.9091 12.0542C14.9091 11.4674 15.459 10.9873 16.1286 10.9873C16.7983 10.9873 17.3483 11.4674 17.3483 12.0542C17.3632 12.641 16.8128 13.1212 16.1286 13.1212ZM16.1356 10.1336C15.6878 10.1336 15.2698 10.2537 14.9115 10.4537V10.1469C14.8667 9.34673 14.1352 9.09339 13.9411 9H13.9262V13.988C13.9262 13.988 14.583 13.9213 14.8368 13.6012C15.21 13.8279 15.6579 13.9746 16.1356 13.9746C17.3598 13.9746 18.345 13.1077 18.345 12.0541C18.36 11.0006 17.3597 10.1336 16.1356 10.1336Z" fill="#F5831F"/>
</g>
<defs>
<clipPath id="clip0_941_20357">
<rect width="24" height="24" fill="white"/>
</clipPath>
</defs>
</svg>
