<svg width="24" height="24" viewBox="0 0 24 24" fill="none" xmlns="http://www.w3.org/2000/svg">
<g clip-path="url(#clip0_1457_5066)">
<path d="M4.33911 16.2021V21.7772H18.1765V16.2021" fill="black"/>
<path d="M4.33911 16.2021V21.7772H18.1765V16.2021" stroke="white" stroke-width="0.4"/>
<path d="M4.33911 5.08114L6.75349 3.18759H20.6551L18.1765 5.08114H4.33911Z" fill="#007EBA" stroke="white" stroke-width="0.4"/>
<path d="M18.1764 21.8828L20.6551 19.872V14.2206L18.1764 16.1142V21.8828Z" fill="black" stroke="white" stroke-width="0.4" stroke-linecap="round" stroke-linejoin="round"/>
<path d="M18.1765 18.0077H4.33911" stroke="white" stroke-width="0.4" stroke-linecap="round" stroke-linejoin="round"/>
<path d="M18.1765 19.9306H4.33911" stroke="white" stroke-width="0.4" stroke-linecap="round" stroke-linejoin="round"/>
<path d="M20.468 18.2598L18.2875 19.9599" stroke="white" stroke-width="0.4" stroke-linecap="round" stroke-linejoin="round"/>
<path d="M8.43713 20.0244V21.7714" stroke="white" stroke-width="0.4" stroke-linecap="round" stroke-linejoin="round"/>
<path d="M13.7861 20.0244V21.7714" stroke="white" stroke-width="0.4" stroke-linecap="round" stroke-linejoin="round"/>
<path d="M11.2197 18.0956V19.8368" stroke="white" stroke-width="0.4" stroke-linecap="round" stroke-linejoin="round"/>
<path d="M5.87073 18.0956V19.8368" stroke="white" stroke-width="0.4" stroke-linecap="round" stroke-linejoin="round"/>
<path d="M16.5687 18.0956V19.8368" stroke="white" stroke-width="0.4" stroke-linecap="round" stroke-linejoin="round"/>
<path d="M18.2407 4.98149V18.0136H4.26892V4.95804L18.2407 4.98149Z" fill="#007EBA" stroke="white" stroke-width="0.4"/>
<path d="M20.5674 16.0204V3.2345L18.194 5.02839V17.9315L20.5674 16.0204Z" fill="#007EBA" stroke="white" stroke-width="0.4"/>
<path d="M20.0413 16.548V18.6115" stroke="white" stroke-width="0.4" stroke-linecap="round" stroke-linejoin="round"/>
<path d="M19.2404 19.2212V21.2848" stroke="white" stroke-width="0.4" stroke-linecap="round" stroke-linejoin="round"/>
<path d="M6.95215 9.93519H12.348V9.56586L13.5522 10.2987L12.348 11.049V10.6856H6.95215V9.93519Z" fill="white"/>
<path d="M15.2534 11.8698H10.717V11.5005L9.5127 12.2333L10.717 12.9836V12.6202H15.2534V11.8698Z" fill="white"/>
<path d="M16.9956 16.5069C16.75 16.5363 16.5279 16.3604 16.4987 16.1142C16.4694 15.8679 16.6448 15.6452 16.8903 15.6159C17.1359 15.5866 17.358 15.7624 17.3872 16.0086C17.4165 16.2549 17.2353 16.4776 16.9956 16.5069Z" fill="white" stroke="black" stroke-width="0.2"/>
<path d="M14.529 13.2986L13.7588 14.2498L16.5043 16.4856L17.2745 15.5345L14.529 13.2986Z" fill="white" stroke="black" stroke-width="0.2"/>
<path d="M7.34392 10.6445C7.08085 12.9192 8.71771 14.9769 10.9859 15.2407C13.2542 15.4986 15.3119 13.863 15.5692 11.5884C15.8264 9.31378 14.1954 7.25022 11.9271 6.99228C9.65891 6.73433 7.60114 8.36994 7.34392 10.6445ZM7.91682 10.709C8.13897 8.751 9.91029 7.34402 11.857 7.56679C13.8037 7.78956 15.2126 9.56587 14.9904 11.5239C14.7683 13.4819 12.9969 14.8889 11.0502 14.6661C9.10355 14.4434 7.69467 12.6671 7.91682 10.7149V10.709Z" fill="white" stroke="black" stroke-width="0.2"/>
<path d="M6.83528 10.8263C6.57806 13.1009 8.20908 15.1644 10.4773 15.4224C12.7455 15.6862 14.8033 14.0447 15.0605 11.7701C15.3177 9.49552 13.6867 7.43196 11.4185 7.17401C9.15028 6.91607 7.0925 8.55167 6.83528 10.8263ZM7.40819 10.8908C7.63033 8.93273 9.40165 7.52575 11.3484 7.74853C13.3009 7.9713 14.7039 9.7476 14.4818 11.7056C14.2596 13.6578 12.4883 15.0706 10.5416 14.8479C8.58907 14.6251 7.18604 12.8488 7.40819 10.8966V10.8908Z" fill="white" stroke="black" stroke-width="0.2"/>
<path d="M15.2534 12.3271H17.545" stroke="white" stroke-width="0.5"/>
<path d="M5.05811 10.2987H7.34971" stroke="white" stroke-width="0.5"/>
</g>
<defs>
<clipPath id="clip0_1457_5066">
<rect width="17" height="19" fill="white" transform="translate(4 3)"/>
</clipPath>
</defs>
</svg>
