<svg width="24" height="24" viewBox="0 0 24 24" fill="none" xmlns="http://www.w3.org/2000/svg">
<g clip-path="url(#clip0_943_22069)">
<g clip-path="url(#clip1_943_22069)">
<path d="M13.2528 11.6074V11.9465H12.7715L12.5377 12.3261H13.2542C13.2542 12.3261 13.2441 13.3722 13.2542 13.5733C13.2644 13.7746 13.5146 13.7535 13.5146 13.7535H14.5762L14.8158 13.3739C14.8158 13.3739 14.2574 13.3739 14.0146 13.3739C13.775 13.3739 13.7886 13.262 13.7886 13.262V12.3261H14.965L15.2003 11.9465H13.785V11.6074H13.2528ZM18.8355 11.9452C18.639 11.9453 18.4728 11.9459 18.3786 11.9465C18.0025 11.9491 18.0307 12.2035 18.0307 12.2035V13.7535H18.5823C18.5823 13.7535 18.5856 12.6045 18.5823 12.4618C18.5794 12.319 18.6985 12.3267 18.6985 12.3267C18.6985 12.3267 19.8591 12.3242 19.9502 12.3267C20.0411 12.3294 20.0284 12.3996 20.0284 12.3996C20.0284 12.3996 20.0284 12.5003 20.0284 12.5658C20.0284 12.6383 19.9523 12.6599 19.9523 12.6599H19.0177L18.7674 13.0394C20.0708 13.0394 20.0284 13.7535 20.0284 13.7535H20.6216C20.4954 13.1635 20.1231 13.005 20.1231 13.005L20.2421 13.0057C20.6498 12.9869 20.6029 12.6599 20.6029 12.6599C20.6029 12.5561 20.6029 12.5561 20.6029 12.2267C20.6029 11.946 20.2859 11.9465 20.2859 11.9465C20.2859 11.9465 19.4249 11.9448 18.8355 11.9452ZM21.1918 11.9458C21.032 11.9458 20.9021 12.0654 20.9021 12.2128V13.4852C20.9021 13.6328 21.032 13.7528 21.1918 13.7528H23.1572C23.317 13.7528 23.447 13.6328 23.447 13.4852V12.2128C23.447 12.0654 23.317 11.9458 23.1572 11.9458H21.1918ZM7.70738 11.9465L7.46923 12.3261C7.46923 12.3261 9.20943 12.3262 9.30695 12.3261C9.40411 12.3261 9.4045 12.4075 9.4045 12.4075C9.4045 12.4075 9.40502 12.4405 9.4045 12.5632C9.40414 12.6602 9.25961 12.6599 9.25961 12.6599C9.25961 12.6599 7.94175 12.6599 7.67079 12.6599C7.40016 12.6599 7.40683 12.907 7.40683 12.907C7.39128 13.3928 7.39024 13.3926 7.40683 13.5866C7.42254 13.7715 7.67079 13.7535 7.67079 13.7535H9.00066L9.23809 13.3739C9.23809 13.3739 8.20253 13.3739 8.061 13.3739C7.91931 13.3739 7.93476 13.2693 7.93476 13.2693C7.93476 13.2693 7.93476 13.2456 7.93476 13.1441C7.93476 13.0426 8.03877 13.0394 8.03877 13.0394C8.03877 13.0394 9.14928 13.0394 9.29117 13.0394C9.43286 13.0394 9.42315 13.1648 9.42315 13.1646V13.7535H9.96758C9.96758 13.7535 9.97403 12.4569 9.97403 12.2148C9.97403 11.9725 9.65268 11.9465 9.65268 11.9465H7.70738ZM10.5744 11.9465C10.2606 11.9465 10.2574 12.2042 10.2574 12.2042V12.2552C10.2574 12.2552 10.2486 12.6682 10.2574 12.8526C10.2669 13.049 10.5328 13.0394 10.5328 13.0394C10.5328 13.0394 12.1375 13.0337 12.2271 13.0394C12.317 13.045 12.3096 13.1302 12.3096 13.1302C12.3096 13.1302 12.3165 13.207 12.3096 13.2832C12.3025 13.3595 12.2199 13.3739 12.2199 13.3739H10.5271L10.2918 13.7535H12.6166C12.8616 13.7564 12.8719 13.5382 12.8719 13.5382C12.8719 13.5382 12.8719 13.2262 12.8719 12.9487C12.8719 12.6711 12.6345 12.6599 12.6345 12.6599H12.5585C12.5585 12.6599 11.0956 12.6599 10.961 12.6599C10.8266 12.6599 10.8369 12.536 10.8369 12.536C10.8369 12.536 10.8369 12.5397 10.8369 12.434C10.8369 12.3167 10.9675 12.3261 10.9675 12.3261H12.2507L12.4874 11.9465C12.4874 11.9465 10.8883 11.9465 10.5744 11.9465ZM15.4857 11.9465L15.2476 12.3261C15.2476 12.3261 16.9872 12.3208 17.0846 12.3261C17.1823 12.331 17.1829 12.4075 17.1829 12.4075C17.1829 12.4075 17.1829 12.4312 17.1829 12.5539C17.1829 12.6599 17.038 12.6599 17.038 12.6599C17.038 12.6599 15.7099 12.6599 15.4391 12.6599C15.1685 12.6599 15.1845 12.8977 15.1845 12.8977C15.1845 12.8977 15.1688 13.4019 15.1845 13.5866C15.2002 13.7715 15.4484 13.7535 15.4484 13.7535H16.7783L17.0157 13.3739C17.0157 13.3739 15.9809 13.3739 15.8394 13.3739C15.6977 13.3739 15.7131 13.2693 15.7131 13.2693C15.7131 13.2693 15.7131 13.2542 15.7131 13.1527C15.7131 13.0512 15.8171 13.0394 15.8171 13.0394C15.8171 13.0394 16.9273 13.0342 17.0688 13.0394C17.2105 13.0445 17.2015 13.1739 17.2015 13.1739V13.7535H17.7459C17.7459 13.7535 17.7524 12.4569 17.7524 12.2148C17.7524 11.9725 17.4311 11.9465 17.4311 11.9465H15.4857ZM21.5885 12.3254H22.7412C22.8439 12.3254 22.927 12.402 22.927 12.4969V13.2011C22.927 13.2961 22.8439 13.3733 22.7412 13.3733H21.5885C21.4858 13.3733 21.4027 13.2961 21.4027 13.2011V12.4969C21.4027 12.402 21.4858 12.3254 21.5885 12.3254Z" fill="#455560"/>
<path d="M9.42383 14.0377V14.1277H9.52138V14.0377H9.42383ZM21.5999 14.0377V14.1277H21.6968V14.0377H21.5999ZM10.8864 14.1271V14.2437H10.7602V14.3106H10.8864V14.5868C10.8864 14.6666 10.9293 14.7418 11.1109 14.7418H11.164C11.3735 14.7418 11.3849 14.6638 11.3849 14.5656V14.5119H11.306V14.5484C11.306 14.6513 11.286 14.6742 11.1575 14.6742H11.1267C11.0207 14.6742 10.9832 14.6465 10.9832 14.555V14.3106H11.3677V14.2437H10.9832V14.1271H10.8864ZM15.4599 14.1271V14.2437H15.3336V14.3106H15.4599V14.5868C15.4599 14.6666 15.5028 14.7418 15.6844 14.7418H15.7375C15.9473 14.7418 15.9584 14.6638 15.9584 14.5656V14.5119H15.8795V14.5484C15.8795 14.6513 15.8589 14.6742 15.7303 14.6742H15.7002C15.5942 14.6742 15.5567 14.6465 15.5567 14.555V14.3106H15.9419V14.2437H15.5567V14.1271H15.4599ZM22.0576 14.1271V14.2437H21.9313V14.3106H22.0576V14.5868C22.0576 14.6666 22.1005 14.7418 22.2821 14.7418H22.3352C22.5449 14.7418 22.5561 14.6638 22.5561 14.5656V14.5119H22.4772V14.5484C22.4772 14.6513 22.4566 14.6742 22.328 14.6742H22.2979C22.1919 14.6742 22.1544 14.6465 22.1544 14.555V14.3106H22.5389V14.2437H22.1544V14.1271H22.0576ZM10.1548 14.2357C10.0341 14.2357 9.95861 14.2518 9.92235 14.3278H9.9202V14.2437H9.82982V14.7345H9.92737V14.455C9.92737 14.3396 9.97906 14.3026 10.2057 14.3026H10.2301C10.4184 14.3026 10.4424 14.3503 10.4424 14.4225V14.7345H10.5392V14.402C10.5392 14.3134 10.4819 14.2357 10.3004 14.2357H10.1548ZM11.872 14.2357C11.7344 14.2357 11.5901 14.2556 11.5901 14.4338V14.5404C11.5901 14.7213 11.7341 14.7418 11.8605 14.7418H12.0369C12.2175 14.7418 12.3267 14.7081 12.3267 14.5954V14.5861H12.2292C12.2236 14.6613 12.1746 14.6742 12.0527 14.6742H11.9193C11.7502 14.6742 11.6869 14.6453 11.6869 14.5338V14.5033H12.3267V14.4483C12.3267 14.2732 12.2012 14.2357 12.0276 14.2357H11.872ZM12.8676 14.2357C12.801 14.2357 12.7279 14.2509 12.6918 14.3145H12.6897V14.2437H12.5993V14.7345H12.6961V14.4225C12.6961 14.3589 12.7457 14.3026 12.8482 14.3026H12.9085C13.0809 14.3026 13.11 14.3224 13.11 14.4437V14.4649H13.2004V14.4059C13.2004 14.2856 13.1402 14.2357 12.9587 14.2357H12.8676ZM13.7527 14.2357C13.6321 14.2357 13.5564 14.2518 13.5203 14.3278H13.5182V14.2437H13.4278V14.7345H13.5253V14.455C13.5253 14.3396 13.577 14.3026 13.8036 14.3026H13.8287C14.017 14.3026 14.0404 14.3503 14.0404 14.4225V14.7345H14.1372V14.402C14.1372 14.3134 14.0797 14.2357 13.8983 14.2357H13.7527ZM14.6888 14.2357C14.5512 14.2357 14.4069 14.2556 14.4069 14.4338V14.5404C14.4069 14.7213 14.551 14.7418 14.6773 14.7418H14.853C15.0336 14.7418 15.1428 14.7081 15.1428 14.5954V14.5861H15.046C15.0405 14.6613 14.9912 14.6742 14.8695 14.6742H14.7361C14.567 14.6742 14.5037 14.6453 14.5037 14.5338V14.5033H15.1428V14.4483C15.1428 14.2732 15.0181 14.2357 14.8444 14.2357H14.6888ZM17.124 14.2357C16.885 14.2357 16.8321 14.2797 16.8321 14.3596V14.3887C16.8321 14.482 16.8829 14.5192 17.0193 14.5192H17.3184C17.4346 14.5192 17.4504 14.5456 17.4504 14.5927V14.5967C17.4504 14.6699 17.4036 14.6742 17.2581 14.6742H17.0508C16.9516 14.6742 16.9146 14.6493 16.9146 14.5888V14.5649H16.8242V14.5947C16.8242 14.742 16.9585 14.7418 17.1018 14.7418H17.2797C17.3981 14.7418 17.5472 14.7371 17.5472 14.5994V14.5974C17.5472 14.4646 17.4481 14.4523 17.3026 14.4523H17.0465C16.9451 14.4523 16.9296 14.429 16.9296 14.3887V14.3702C16.9296 14.3144 16.9594 14.3026 17.0982 14.3026H17.2675C17.3734 14.3026 17.4324 14.305 17.4324 14.3801V14.3847H17.5221V14.3589C17.5221 14.2897 17.4919 14.2357 17.2732 14.2357H17.124ZM18.0773 14.2357C17.9396 14.2357 17.7954 14.2556 17.7954 14.4338V14.5404C17.7954 14.7213 17.9395 14.7418 18.0658 14.7418H18.2416C18.4221 14.7418 18.5313 14.7081 18.5313 14.5954V14.5861H18.4345C18.429 14.6613 18.379 14.6742 18.2573 14.6742H18.1246C17.9555 14.6742 17.8922 14.6453 17.8922 14.5338V14.5033H18.5313V14.4483C18.5313 14.2732 18.4066 14.2357 18.233 14.2357H18.0773ZM19.0593 14.2357C18.9173 14.2357 18.7702 14.2556 18.7702 14.4338V14.5437C18.7702 14.7218 18.9251 14.7418 19.0119 14.7418H19.2307C19.4111 14.7418 19.4832 14.6937 19.4832 14.5696V14.555H19.3928V14.5715C19.3928 14.6514 19.3174 14.6742 19.2271 14.6742H19.0636C18.9464 14.6742 18.8678 14.6494 18.8678 14.5397V14.4371C18.8678 14.3149 18.9529 14.3026 19.0442 14.3026H19.2228C19.3197 14.3026 19.3828 14.3222 19.3828 14.404V14.4159H19.4732V14.402C19.4732 14.298 19.4017 14.2357 19.2214 14.2357H19.0593ZM21.0254 14.2357C20.9589 14.2357 20.8857 14.2509 20.8496 14.3145H20.8475V14.2437H20.7571V14.7345H20.8547V14.4225C20.8547 14.3589 20.904 14.3026 21.0067 14.3026H21.0663C21.2389 14.3026 21.2678 14.3224 21.2678 14.4437V14.4649H21.3582V14.4059C21.3582 14.2856 21.2988 14.2357 21.1172 14.2357H21.0254ZM9.42383 14.2437V14.7345H9.52138V14.2437H9.42383ZM19.745 14.2437V14.5755C19.745 14.6642 19.8023 14.7418 19.9839 14.7418H20.1295C20.2501 14.7418 20.3258 14.7257 20.3619 14.6497H20.364V14.7345H20.4544V14.2437H20.3569V14.5225C20.3569 14.6381 20.3051 14.6742 20.0786 14.6742H20.0534C19.8651 14.6742 19.8418 14.6272 19.8418 14.555V14.2437H19.745ZM21.5999 14.2437V14.7345H21.6968V14.2437H21.5999ZM22.7003 14.2437L23.0259 14.7418H23.0496C22.9989 14.8409 22.9674 14.8497 22.8186 14.8497V14.9173C23.0181 14.9154 23.0588 14.8958 23.1185 14.7948L23.4434 14.2437H23.338L23.0883 14.6775L22.8093 14.2437H22.7003ZM11.8856 14.3026H12.0276C12.1854 14.3026 12.2292 14.3532 12.2292 14.4033V14.4358H11.6869C11.6959 14.324 11.7322 14.3026 11.8856 14.3026ZM14.7024 14.3026H14.8444C15.0024 14.3026 15.046 14.3532 15.046 14.4033V14.4358H14.5037C14.5127 14.324 14.549 14.3026 14.7024 14.3026ZM18.0909 14.3026H18.233C18.3909 14.3026 18.4345 14.3532 18.4345 14.4033V14.4358H17.8922C17.9014 14.324 17.9377 14.3026 18.0909 14.3026Z" fill="#F5821F"/>
<path d="M2.21724 15.8156L1.27954 13.9757L2.02963 12.0276L3.71741 12.0814L4.56121 14.0408L3.85823 15.7289L2.21724 15.8156Z" fill="#F5821F"/>
<path d="M2.00633 11.6477L0.553101 9.52633L1.23295 8.18437L2.89706 8.6174L4.02219 10.284L3.7174 11.7243L2.00633 11.6477Z" fill="#F89848"/>
<path d="M4.85725 13.7966L4.01843 11.8946L4.37122 10.4198L5.37795 10.6798L6.12804 12.4113L5.96407 13.7534L4.85725 13.7966Z" fill="#F68D32"/>
</g>
</g>
<defs>
<clipPath id="clip0_943_22069">
<rect width="24" height="24" fill="white"/>
</clipPath>
<clipPath id="clip1_943_22069">
<rect width="24" height="8" fill="white" transform="translate(0 8)"/>
</clipPath>
</defs>
</svg>
