<svg width="24" height="24" viewBox="0 0 24 24" fill="none" xmlns="http://www.w3.org/2000/svg">
<g clip-path="url(#clip0_943_22084)">
<path fill-rule="evenodd" clip-rule="evenodd" d="M19.6708 12.2976H21.1914L21.4374 12.9063H19.3857L19.0578 13.6053H18.1515L20.399 9H21.0259L23.2725 13.6053H22.367L20.712 10.0496L19.6708 12.2976Z" fill="#ED1B2D"/>
<path fill-rule="evenodd" clip-rule="evenodd" d="M2.51927 12.3315H4.03948L4.28548 12.9403H2.23374L1.90589 13.6392H1L3.24706 9.03395H3.87393L6.12052 13.6392H5.21509L3.56049 10.0835L2.51927 12.3315Z" fill="#ED1B2D"/>
<path fill-rule="evenodd" clip-rule="evenodd" d="M11.0629 12.3315H12.5831L12.8296 12.9403H10.7773L10.45 13.6392H9.54407L11.7911 9.03395H12.418L14.6646 13.6392H13.7592L12.1041 10.0835L11.0629 12.3315Z" fill="#ED1B2D"/>
<path fill-rule="evenodd" clip-rule="evenodd" d="M5.27466 9.01906L7.52032 13.6243H8.14812L10.3942 9.01906H9.48929L7.83422 12.6426L6.17915 9.01906H5.27466Z" fill="#ED1B2D"/>
<path fill-rule="evenodd" clip-rule="evenodd" d="M15.9192 15.3533L19.0201 9.01906H18.116L16.3922 12.7105L14.805 9.01906H13.9L15.9429 13.6243L15.0529 15.3533H15.9192Z" fill="#ED1B2D"/>
</g>
<defs>
<clipPath id="clip0_943_22084">
<rect width="24" height="24" fill="white"/>
</clipPath>
</defs>
</svg>
