<svg width="24" height="24" viewBox="0 0 24 24" fill="none" xmlns="http://www.w3.org/2000/svg">
<g clip-path="url(#clip0_943_22106)">
<g clip-path="url(#clip1_943_22106)">
<path fill-rule="evenodd" clip-rule="evenodd" d="M6.59951 13.5332H5.26697L6.45316 11.8559L5.30341 10.3445H6.70486L7.26635 11.177L7.82784 10.3445H9.18202L8.09549 11.8169L9.37621 13.5332H8.00095L7.28742 12.4771L6.59951 13.5332Z" fill="#231F20"/>
<path fill-rule="evenodd" clip-rule="evenodd" d="M10.7087 9.9603H9.65405V9.01877H10.7087V9.9603ZM10.7087 13.5332H9.65405V10.3446H10.7087V13.5332Z" fill="#231F20"/>
<path fill-rule="evenodd" clip-rule="evenodd" d="M16.3139 12.2144H18.9591V11.5355C18.9591 11.1318 18.8435 10.8247 18.6128 10.6135C18.3765 10.4022 18.0411 10.2994 17.5998 10.2994H16.6186C16.1778 10.2994 15.8418 10.4022 15.6112 10.6197C15.3743 10.8309 15.2593 11.1388 15.2593 11.5355V12.3999C15.2593 12.7779 15.3743 13.0725 15.6112 13.2706C15.8418 13.4756 16.1778 13.5722 16.6237 13.5722H17.5998C18.0827 13.5722 18.4295 13.495 18.639 13.3283C18.8492 13.1622 18.9539 12.8933 18.9539 12.5215V12.4701H17.9619C17.9357 12.6049 17.8936 12.6945 17.8253 12.746C17.7575 12.7904 17.6049 12.8161 17.3794 12.8161H16.9386C16.7131 12.8161 16.5502 12.7779 16.4557 12.6945C16.3561 12.6174 16.3088 12.4833 16.3088 12.304C16.3088 12.2978 16.3088 12.2846 16.3088 12.2589C16.3139 12.2401 16.3139 12.2269 16.3139 12.2144ZM16.3139 11.5036C16.3139 11.35 16.3612 11.2472 16.4506 11.1832C16.54 11.1193 16.692 11.0873 16.9124 11.0873H17.3481C17.5633 11.0873 17.7154 11.1193 17.8048 11.1832C17.8936 11.2409 17.9357 11.35 17.9357 11.5036V11.5161H16.3139V11.5036Z" fill="#231F20"/>
<mask id="mask0_943_22106" style="mask-type:luminance" maskUnits="userSpaceOnUse" x="19" y="10" width="4" height="4">
<path d="M19.077 10.2452H23V13.625H19.077V10.2452Z" fill="white"/>
</mask>
<g mask="url(#mask0_943_22106)">
<path fill-rule="evenodd" clip-rule="evenodd" d="M20.2507 13.5332H19.2057V10.3633H20.2507V10.8504C20.3708 10.6579 20.5285 10.5176 20.7176 10.4342C20.9067 10.3508 21.1897 10.3126 21.5678 10.3126C22.045 10.3126 22.4021 10.4085 22.6435 10.6002C22.8799 10.799 23 11.0873 23 11.4716V13.5332H21.9454V11.926C21.9454 11.6446 21.8873 11.4584 21.7723 11.3688C21.6515 11.2791 21.4311 11.2347 21.1003 11.2347C20.7962 11.2347 20.5752 11.2923 20.4494 11.4077C20.3184 11.523 20.2507 11.721 20.2507 11.99V13.5332Z" fill="#231F20"/>
</g>
<mask id="mask1_943_22106" style="mask-type:luminance" maskUnits="userSpaceOnUse" x="10" y="10" width="6" height="5">
<path d="M10.9132 10.2452H15.1409V15.0001H10.9132V10.2452Z" fill="white"/>
</mask>
<g mask="url(#mask1_943_22106)">
<path fill-rule="evenodd" clip-rule="evenodd" d="M13.9735 10.3571C13.9683 10.5176 13.9683 10.6968 13.9421 10.8184C13.7633 10.5752 13.3698 10.4342 13.0077 10.3633C12.8083 10.3251 12.6142 10.3056 12.4724 10.3056C11.2497 10.3056 10.9348 10.7225 10.9348 11.9775C10.9348 13.495 11.4018 13.5145 12.7087 13.5145C12.793 13.5145 12.8977 13.5145 13.0077 13.5145C13.3596 13.5145 13.7952 13.4756 13.9524 13.2324V13.7195C13.8949 14.2253 13.2594 14.1739 13.0077 14.1676C12.9923 14.1676 12.9763 14.1676 12.9661 14.1676C12.7873 14.1676 12.5771 14.1802 12.3887 14.1357V14.9549H14.0259C14.1517 14.9549 15.0811 14.6096 15.0754 14.1357V10.3571H13.9735ZM13.0077 12.6751C12.441 12.6751 12.0475 12.7203 12.0475 11.958C12.0475 11.1256 12.3363 11.1895 12.9866 11.1895H13.0077C13.5959 11.1895 13.9683 11.1895 13.9683 11.9323C13.9683 12.7717 13.4592 12.6751 13.0077 12.6751Z" fill="#231F20"/>
</g>
<mask id="mask2_943_22106" style="mask-type:luminance" maskUnits="userSpaceOnUse" x="11" y="13" width="2" height="2">
<path d="M11.3506 13.9807H12.2253V15.0001H11.3506V13.9807Z" fill="white"/>
</mask>
<g mask="url(#mask2_943_22106)">
<path fill-rule="evenodd" clip-rule="evenodd" d="M11.4076 14.1419H12.1524V14.9549H11.4076V14.1419Z" fill="#F26531"/>
</g>
<mask id="mask3_943_22106" style="mask-type:luminance" maskUnits="userSpaceOnUse" x="1" y="9" width="5" height="6">
<path d="M1 9H5.22769V15.0001H1V9Z" fill="white"/>
</mask>
<g mask="url(#mask3_943_22106)">
<path fill-rule="evenodd" clip-rule="evenodd" d="M5.09329 9.84225C5.08817 9.25371 4.6457 9.04386 4.26928 8.99939H1.00513L1 15.0002H5.09329V9.84225Z" fill="#F26531"/>
</g>
<path fill-rule="evenodd" clip-rule="evenodd" d="M4.78409 10.8692C4.67874 10.3765 4.18046 10.2549 3.92307 10.2549H1.55638V11.0234C1.96013 11.0102 2.9527 10.9845 3.09393 10.9845C3.28299 10.9845 3.7135 10.94 3.83935 11.2215V11.3118H3.83992V11.671C3.55007 11.3841 2.95726 11.3841 2.61672 11.3841C1.8656 11.3841 1.25229 11.4355 1.25229 12.4409C1.25229 12.4611 1.25172 12.4944 1.25343 12.5347C1.28475 13.4651 1.88553 13.5145 2.61672 13.5145C2.98915 13.5145 3.55576 13.495 3.82341 13.124C3.83423 13.2386 3.83423 13.354 3.81828 13.4631H4.81029V11.0741C4.81029 11.0165 4.80004 10.9206 4.78409 10.8692ZM3.41397 12.8099H2.62184C2.42253 12.8099 2.25853 12.6952 2.21753 12.5361C2.21183 12.5069 2.20728 12.4736 2.20728 12.4409C2.20728 12.2422 2.39064 12.0886 2.62184 12.0886H3.41397C3.55747 12.0886 3.77444 12.2088 3.81999 12.3867C3.82512 12.4097 3.8291 12.4333 3.8291 12.4576C3.8291 12.6563 3.64517 12.8099 3.41397 12.8099Z" fill="white"/>
</g>
</g>
<defs>
<clipPath id="clip0_943_22106">
<rect width="24" height="24" fill="white"/>
</clipPath>
<clipPath id="clip1_943_22106">
<rect width="22" height="6" fill="white" transform="translate(1 9)"/>
</clipPath>
</defs>
</svg>
