<svg width="24" height="24" viewBox="0 0 24 24" fill="none" xmlns="http://www.w3.org/2000/svg">
<g clip-path="url(#clip0_943_22166)">
<g clip-path="url(#clip1_943_22166)">
<mask id="mask0_943_22166" style="mask-type:luminance" maskUnits="userSpaceOnUse" x="1" y="10" width="8" height="5">
<path d="M1 10H8.04275V15.0001H1V10Z" fill="white"/>
</mask>
<g mask="url(#mask0_943_22166)">
<path d="M8.0399 10C8.0399 10 3.69381 11.6683 2.88805 15.0001H6.54678C6.54678 15.0001 3.9192 14.3313 8.0399 10ZM2.36881 15.0001H1C1.00224 12.8897 1.5763 11.5493 1.5763 11.5493C1.3931 13.8199 2.36881 15.0001 2.36881 15.0001Z" fill="#0075C9"/>
</g>
<mask id="mask1_943_22166" style="mask-type:luminance" maskUnits="userSpaceOnUse" x="8" y="12" width="15" height="3">
<path d="M8.04272 12.4843H23V15.0001H8.04272V12.4843Z" fill="white"/>
</mask>
<g mask="url(#mask1_943_22166)">
<path d="M22.7726 12.7669C22.6614 12.7669 22.5711 12.8546 22.5711 12.9628C22.5711 13.0707 22.6614 13.1584 22.7726 13.1584C22.8837 13.1584 22.974 13.0707 22.974 12.9628C22.974 12.8546 22.8837 12.7669 22.7726 12.7669ZM22.7726 13.1838C22.6471 13.1838 22.545 13.0846 22.545 12.9628C22.545 12.8408 22.6471 12.7415 22.7726 12.7415C22.898 12.7415 23.0001 12.8408 23.0001 12.9628C23.0001 13.0846 22.898 13.1838 22.7726 13.1838ZM22.7734 12.9489C22.7814 12.9489 22.7889 12.9487 22.7963 12.9479C22.8036 12.9473 22.8099 12.9457 22.8152 12.9428C22.8205 12.94 22.825 12.936 22.8285 12.9309C22.8317 12.9259 22.8334 12.9188 22.8334 12.9095C22.8334 12.9018 22.8315 12.8958 22.8281 12.8913C22.8246 12.8867 22.8201 12.8833 22.8146 12.881C22.8093 12.8786 22.8032 12.877 22.7965 12.8764C22.79 12.8758 22.7834 12.8754 22.7771 12.8754H22.7258V12.9489H22.7734ZM22.7258 13.0915H22.6836V12.8402H22.7816C22.8128 12.8402 22.8362 12.8459 22.8521 12.8572C22.868 12.8685 22.8757 12.8871 22.8757 12.9125C22.8757 12.935 22.8692 12.9517 22.8566 12.9622C22.8436 12.9729 22.8277 12.979 22.8083 12.9812L22.8808 13.0915H22.8328L22.7659 12.9842H22.7258V13.0915ZM8.2873 14.7981V13.8056H9.12567C9.34311 13.8056 9.5096 13.8457 9.62555 13.9257C9.7413 14.0059 9.79938 14.1261 9.79938 14.2861C9.79938 14.3861 9.78144 14.4689 9.74558 14.535C9.70971 14.6014 9.6608 14.6543 9.59865 14.6937C9.5365 14.7331 9.46497 14.7604 9.38366 14.7755C9.30235 14.7905 9.21635 14.7981 9.12567 14.7981H8.2873ZM8.2873 13.6036V12.7156H9.12567C9.51021 12.7156 9.70258 12.8713 9.70258 13.1824C9.70258 13.2404 9.69056 13.2949 9.66671 13.346C9.64287 13.3971 9.60701 13.4418 9.55932 13.4801C9.51143 13.5183 9.45172 13.5486 9.38019 13.5706C9.30846 13.5925 9.22369 13.6036 9.12567 13.6036H8.2873ZM8.04358 12.5138V15.0001H9.12567C9.26424 15.0001 9.38305 14.988 9.48229 14.9634C9.58133 14.9391 9.66488 14.9078 9.73294 14.8695C9.80101 14.8311 9.85542 14.7866 9.89617 14.7355C9.93673 14.6842 9.9677 14.6327 9.9891 14.5804C10.0107 14.5281 10.025 14.4772 10.0323 14.4271C10.0394 14.3774 10.0429 14.3326 10.0429 14.293C10.0429 14.1306 9.99399 13.9944 9.89617 13.8839C9.79795 13.7738 9.66671 13.708 9.50185 13.6872V13.6803C9.56869 13.6664 9.62901 13.6419 9.68281 13.6072C9.73661 13.5723 9.78328 13.53 9.82261 13.4801C9.86194 13.4302 9.89251 13.3743 9.9139 13.3129C9.9355 13.2515 9.9463 13.1881 9.9463 13.1232C9.9463 13.0071 9.92348 12.9103 9.87804 12.8324C9.8328 12.7546 9.77248 12.6918 9.69728 12.6443C9.62188 12.5968 9.53487 12.5631 9.43562 12.5433C9.33638 12.5237 9.23327 12.5138 9.12567 12.5138H8.04358ZM22.3259 13.9989H22.319C22.305 14.0239 22.2783 14.0419 22.2389 14.0532C22.1996 14.0645 22.1647 14.0724 22.1346 14.077C22.0417 14.0926 21.9459 14.1067 21.8475 14.1192C21.749 14.1314 21.6588 14.15 21.5776 14.1748C21.4965 14.1998 21.4299 14.2354 21.3775 14.2815C21.3256 14.3277 21.2995 14.3936 21.2995 14.4792C21.2995 14.5333 21.3103 14.5814 21.3325 14.623C21.3543 14.6646 21.3841 14.7006 21.4209 14.7311C21.4582 14.7618 21.5012 14.7848 21.5499 14.8004C21.5986 14.8163 21.6486 14.8242 21.6995 14.8242C21.7831 14.8242 21.8631 14.8117 21.9396 14.787C22.0162 14.7622 22.0828 14.726 22.1397 14.6788C22.1965 14.6313 22.2418 14.5741 22.2754 14.5063C22.309 14.4386 22.3259 14.3622 22.3259 14.2762V13.9989ZM22.4859 13.4589C22.5252 13.5321 22.545 13.6274 22.545 13.7444L22.5446 14.9527H22.3363V14.6483C22.2968 14.7048 22.2567 14.7547 22.2163 14.7988C22.1758 14.8426 22.1303 14.8794 22.0804 14.9088C22.0307 14.9381 21.9738 14.9606 21.9098 14.9763C21.8462 14.9921 21.7702 15.0001 21.6822 15.0001C21.5986 15.0001 21.5204 14.9906 21.4472 14.9711C21.3743 14.9521 21.3103 14.9218 21.2561 14.88C21.2013 14.8383 21.1583 14.7854 21.1271 14.721C21.0959 14.6568 21.0802 14.5806 21.0802 14.4927C21.0802 14.3711 21.1081 14.2758 21.1636 14.2069C21.2194 14.1382 21.2928 14.0859 21.3847 14.05C21.4762 14.0138 21.5795 13.9884 21.6942 13.9738C21.8091 13.9591 21.9257 13.9449 22.0441 13.9314C22.0902 13.927 22.1311 13.9211 22.1658 13.9144C22.2006 13.9076 22.2296 13.896 22.2528 13.8791C22.2762 13.8621 22.2939 13.8389 22.3068 13.8096C22.3194 13.7803 22.3259 13.7419 22.3259 13.6947C22.3259 13.6228 22.3137 13.5896 22.2893 13.5432C22.265 13.4973 22.2312 13.4605 22.1884 13.4335C22.1454 13.4064 22.0955 13.3878 22.0388 13.3777C21.9818 13.3676 21.921 13.3622 21.8562 13.3622H21.4613V13.1838H21.897C21.9716 13.1846 22.0459 13.1915 22.1205 13.2052C22.1996 13.22 22.2701 13.2476 22.3329 13.2882C22.3954 13.3286 22.4464 13.3856 22.4859 13.4589ZM11.473 13.9991H11.4661C11.4521 14.0241 11.4256 14.0419 11.3862 14.0532C11.3465 14.0647 11.3119 14.0726 11.2819 14.077C11.189 14.0926 11.0934 14.1069 10.9948 14.1193C10.8961 14.1314 10.8063 14.1502 10.7252 14.1748C10.6437 14.1998 10.577 14.2354 10.5248 14.2815C10.4727 14.3277 10.4466 14.3938 10.4466 14.4792C10.4466 14.5335 10.4576 14.5814 10.4796 14.6232C10.5018 14.665 10.5312 14.7008 10.5683 14.7313C10.6053 14.7618 10.6483 14.785 10.697 14.8004C10.746 14.8165 10.7957 14.8242 10.8466 14.8242C10.9304 14.8242 11.0105 14.8119 11.0869 14.787C11.1635 14.7622 11.2301 14.7262 11.287 14.679C11.3439 14.6315 11.3891 14.5741 11.4225 14.5065C11.4561 14.4388 11.473 14.3622 11.473 14.2764V13.9991ZM11.6332 13.4589C11.6726 13.5321 11.6923 13.6276 11.6923 13.7446L11.6919 14.9529H11.4834V14.6485C11.4441 14.7048 11.404 14.7549 11.3634 14.7988C11.3229 14.8428 11.2776 14.8796 11.2277 14.9088C11.178 14.9379 11.1211 14.9606 11.0571 14.9765C10.9935 14.9923 10.9177 15.0001 10.8293 15.0001C10.746 15.0001 10.6675 14.9906 10.5945 14.9713C10.5214 14.9523 10.4576 14.9218 10.403 14.88C10.3486 14.8383 10.3058 14.7854 10.2744 14.721C10.243 14.6568 10.2271 14.5808 10.2271 14.4929C10.2271 14.3711 10.2552 14.2758 10.3109 14.2069C10.3665 14.1384 10.4401 14.0861 10.532 14.05C10.6233 14.0138 10.7266 13.9882 10.8413 13.9738C10.9565 13.9593 11.0728 13.9451 11.1912 13.9314C11.2377 13.927 11.2782 13.9213 11.3131 13.9148C11.3477 13.9078 11.3767 13.896 11.3999 13.8791C11.4233 13.8621 11.4413 13.8391 11.4541 13.8098C11.4665 13.7803 11.473 13.7421 11.473 13.6947C11.473 13.6228 11.461 13.5898 11.4368 13.5434C11.4123 13.4973 11.3787 13.4606 11.3355 13.4337C11.2925 13.4066 11.2428 13.3878 11.1861 13.3777C11.1291 13.3676 11.0681 13.3624 11.0035 13.3624H10.6086V13.184H11.0441C11.1189 13.1848 11.1933 13.1915 11.2678 13.2052C11.3465 13.22 11.4172 13.2476 11.48 13.2882C11.5427 13.3288 11.5937 13.3858 11.6332 13.4589ZM15.2687 13.9991H15.2618C15.2477 14.0241 15.2212 14.0419 15.1817 14.0532C15.1422 14.0647 15.1073 14.0726 15.0774 14.077C14.9844 14.0926 14.8889 14.1069 14.7902 14.1193C14.6916 14.1314 14.6017 14.1502 14.5204 14.1748C14.4393 14.1998 14.3725 14.2354 14.3203 14.2815C14.2683 14.3277 14.2423 14.3938 14.2423 14.4792C14.2423 14.5335 14.2533 14.5814 14.2753 14.6232C14.2971 14.665 14.3268 14.7008 14.3639 14.7313C14.401 14.7618 14.444 14.785 14.4925 14.8004C14.5416 14.8165 14.5913 14.8242 14.6423 14.8242C14.7256 14.8242 14.8059 14.8119 14.8823 14.787C14.959 14.7622 15.0256 14.7262 15.0827 14.679C15.1393 14.6315 15.1846 14.5741 15.2182 14.5065C15.2516 14.4388 15.2687 14.3622 15.2687 14.2764V13.9991ZM15.4287 13.4589C15.4682 13.5321 15.4878 13.6276 15.4878 13.7446L15.4874 14.9529H15.2791V14.6485C15.2394 14.7048 15.1996 14.7549 15.1591 14.7988C15.1185 14.8428 15.0731 14.8796 15.0232 14.9088C14.9736 14.9379 14.9166 14.9606 14.8528 14.9765C14.7888 14.9923 14.713 15.0001 14.625 15.0001C14.5416 15.0001 14.4632 14.9906 14.39 14.9713C14.3171 14.9523 14.2533 14.9218 14.1989 14.88C14.144 14.8383 14.1012 14.7854 14.0699 14.721C14.0385 14.6568 14.0228 14.5808 14.0228 14.4929C14.0228 14.3711 14.0507 14.2758 14.1063 14.2069C14.1622 14.1384 14.2355 14.0861 14.3274 14.05C14.4189 14.0138 14.5223 13.9882 14.637 13.9738C14.7519 13.9593 14.8683 13.9451 14.9869 13.9314C15.0331 13.927 15.0739 13.9213 15.1085 13.9148C15.1432 13.9078 15.1723 13.896 15.1956 13.8791C15.2188 13.8621 15.2367 13.8391 15.2496 13.8098C15.2622 13.7803 15.2687 13.7421 15.2687 13.6947C15.2687 13.6228 15.2565 13.5898 15.2322 13.5434C15.2078 13.4973 15.1742 13.4606 15.1312 13.4337C15.0882 13.4066 15.0384 13.3878 14.9814 13.3777C14.9245 13.3676 14.8636 13.3624 14.799 13.3624H14.4039V13.1935L14.8398 13.184C14.9143 13.1848 14.9887 13.1915 15.0633 13.2052C15.1422 13.22 15.2129 13.2476 15.2756 13.2882C15.3384 13.3288 15.3892 13.3858 15.4287 13.4589ZM19.4601 14.3491C19.4381 14.2602 19.4271 14.1704 19.4271 14.0801C19.4271 13.9902 19.4381 13.9005 19.4601 13.8114C19.4823 13.7225 19.5168 13.6429 19.5645 13.5729C19.612 13.5032 19.6729 13.4462 19.7471 13.4022C19.8214 13.3585 19.9109 13.3363 20.015 13.3363C20.131 13.3363 20.229 13.3585 20.3091 13.4022C20.389 13.4462 20.454 13.5032 20.5039 13.5729C20.5536 13.6429 20.5899 13.7225 20.6117 13.8114C20.6337 13.9005 20.6449 13.9902 20.6449 14.0801C20.6449 14.1704 20.6337 14.2602 20.6117 14.3491C20.5899 14.4382 20.5536 14.5176 20.5039 14.5873C20.454 14.6574 20.389 14.7143 20.3091 14.758C20.229 14.802 20.131 14.8242 20.015 14.8242C19.9109 14.8242 19.8214 14.802 19.7471 14.758C19.6729 14.7143 19.612 14.6574 19.5645 14.5873C19.5168 14.5176 19.4823 14.4382 19.4601 14.3491ZM20.864 14.9527V12.5384H20.6449V13.5391H20.638C20.6146 13.4759 20.5816 13.4208 20.5388 13.3735C20.4956 13.326 20.4467 13.2862 20.3908 13.2535C20.3352 13.2208 20.2755 13.1965 20.2117 13.1806C20.1479 13.165 20.0821 13.1568 20.015 13.1568C19.8783 13.1568 19.7593 13.1818 19.6584 13.2315C19.5577 13.2812 19.4736 13.3482 19.4061 13.4325C19.3387 13.5173 19.289 13.6153 19.2566 13.7268C19.224 13.8385 19.2079 13.9564 19.2079 14.0801C19.2079 14.2041 19.224 14.3219 19.2566 14.4336C19.289 14.5453 19.3387 14.6432 19.4061 14.7277C19.4736 14.8123 19.5577 14.8789 19.6584 14.9272C19.7593 14.9759 19.8783 15.0001 20.015 15.0001C20.0798 15.0001 20.1457 14.9911 20.2117 14.9729C20.2775 14.9549 20.3397 14.9296 20.3977 14.8969C20.4556 14.8644 20.5076 14.8242 20.5526 14.7769C20.5979 14.7295 20.6321 14.6774 20.6553 14.6212H20.6623V14.9527H20.864ZM18.9713 14.9527V13.2077H18.752V14.1243C18.752 14.2122 18.7416 14.2984 18.7208 14.3831C18.6998 14.4675 18.6674 14.5424 18.6232 14.6077C18.5792 14.6731 18.5238 14.7256 18.4563 14.765C18.3891 14.8044 18.3079 14.8242 18.2128 14.8242C18.0385 14.8242 17.9163 14.7836 17.8458 14.7024C17.7746 14.6212 17.7371 14.5018 17.7327 14.3439V13.2077H17.5132V14.3406C17.5132 14.4443 17.525 14.5366 17.548 14.6178C17.5713 14.699 17.6079 14.7679 17.6577 14.8242C17.7076 14.8804 17.7726 14.924 17.8527 14.9543C17.9326 14.9848 18.0294 15.0001 18.1433 15.0001C18.2776 15.0001 18.4001 14.9692 18.5103 14.907C18.6203 14.845 18.7045 14.7555 18.7624 14.6382H18.7695V14.9527H18.9713ZM16.9218 13.448C17.0029 13.5224 17.0588 13.6248 17.0889 13.7557H17.3082C17.2825 13.5551 17.203 13.4052 17.0696 13.306C16.9363 13.2068 16.7733 13.1568 16.5807 13.1568C16.4439 13.1568 16.3229 13.1818 16.2171 13.2315C16.1118 13.2812 16.0229 13.3476 15.9512 13.4309C15.8791 13.5145 15.8244 13.6118 15.7873 13.7235C15.7505 13.8352 15.7317 13.954 15.7317 14.0803C15.7317 14.2065 15.7505 14.3253 15.7873 14.437C15.8244 14.5487 15.8791 14.646 15.9512 14.7295C16.0229 14.8127 16.1118 14.8789 16.2171 14.9272C16.3229 14.9759 16.4439 15.0001 16.5807 15.0001C16.7849 15.0001 16.9522 14.9408 17.082 14.8226C17.2118 14.7042 17.2917 14.539 17.3218 14.3271H17.1028C17.0958 14.3992 17.0773 14.4657 17.0471 14.5265C17.017 14.5873 16.9785 14.6398 16.9322 14.6838C16.8857 14.7277 16.8326 14.7622 16.7722 14.787C16.7119 14.8117 16.6481 14.8242 16.5807 14.8242C16.4763 14.8242 16.3848 14.8026 16.3058 14.7598C16.2269 14.7172 16.1615 14.6608 16.1091 14.5909C16.057 14.521 16.0178 14.4416 15.9909 14.3524C15.9644 14.2633 15.9512 14.1726 15.9512 14.0803C15.9512 13.9876 15.9644 13.8969 15.9909 13.808C16.0178 13.7189 16.057 13.6395 16.1091 13.5696C16.1615 13.4999 16.2269 13.4436 16.3058 13.4006C16.3848 13.3577 16.4763 13.3363 16.5807 13.3363C16.727 13.3363 16.8407 13.3735 16.9218 13.448ZM12.0797 13.2075V14.9527H12.2992V14.0227C12.2992 13.9302 12.3151 13.8453 12.3477 13.7674C12.3801 13.6896 12.4261 13.6227 12.4852 13.5664C12.5443 13.51 12.7245 13.3624 12.9672 13.3624V13.184C12.8048 13.1772 12.665 13.2125 12.5478 13.2887C12.4308 13.3656 12.3442 13.4749 12.2886 13.6169H12.2817V13.2075H12.0797ZM13.4504 13.2075V13.6169H13.4573C13.5131 13.4749 13.5995 13.3656 13.7167 13.2887C13.8337 13.2125 13.9737 13.1772 14.1359 13.184V13.3624C13.8932 13.3624 13.7132 13.51 13.6539 13.5664C13.5946 13.6227 13.549 13.6896 13.5166 13.7674C13.484 13.8453 13.4679 13.9302 13.4679 14.0227V14.9527H13.2486V13.2075" fill="#54565B"/>
</g>
</g>
</g>
<defs>
<clipPath id="clip0_943_22166">
<rect width="24" height="24" fill="white"/>
</clipPath>
<clipPath id="clip1_943_22166">
<rect width="22" height="5" fill="white" transform="translate(1 10)"/>
</clipPath>
</defs>
</svg>
