<svg width="24" height="24" viewBox="0 0 24 24" fill="none" xmlns="http://www.w3.org/2000/svg">
<g clip-path="url(#clip0_944_22230)">
<path d="M7.6471 9.66229C7.67277 9.66229 7.67277 9.66229 7.6992 9.66211C7.7561 9.66211 7.81299 9.66211 7.86988 9.66229C7.90934 9.66229 7.94861 9.66211 7.98807 9.66211C8.07082 9.66211 8.15338 9.66211 8.23614 9.66229C8.34226 9.66229 8.44838 9.66229 8.5547 9.66229C8.63611 9.66211 8.71752 9.66211 8.79893 9.66229C8.83801 9.66229 8.87728 9.66229 8.91636 9.66211C8.97095 9.66211 9.02554 9.66211 9.08033 9.66229C9.09661 9.66229 9.11289 9.66229 9.12975 9.66211C9.24143 9.66267 9.24143 9.66267 9.26269 9.68343C9.26461 9.71767 9.26518 9.75209 9.26499 9.78651C9.26518 9.82 9.26518 9.82 9.26518 9.85442C9.26499 9.87931 9.26499 9.90437 9.26499 9.92944C9.26499 9.95563 9.26499 9.98183 9.26499 10.008C9.26499 10.0793 9.2648 10.1504 9.26461 10.2217C9.26461 10.2961 9.26461 10.3706 9.26461 10.445C9.26442 10.5859 9.26442 10.727 9.26422 10.868C9.26384 11.0284 9.26384 11.1889 9.26365 11.3494C9.26346 11.6796 9.26327 12.0098 9.26269 12.34C9.34487 12.34 9.35215 12.3373 9.40885 12.2874C9.42015 12.2775 9.43145 12.2678 9.44314 12.2577C9.47762 12.2255 9.47762 12.2255 9.51172 12.1716C9.54313 12.152 9.57512 12.1332 9.6075 12.1155C9.62186 12.1061 9.63604 12.097 9.65079 12.0874C9.77243 12.0101 9.88736 11.9744 10.0289 11.9471C10.0427 11.9439 10.0565 11.9407 10.0707 11.9376C10.199 11.9093 10.3216 11.9041 10.4528 11.905C10.4825 11.9048 10.4825 11.9048 10.5128 11.9046C10.6272 11.9048 10.7239 11.9157 10.8335 11.9471C10.8783 11.9574 10.9229 11.9675 10.9676 11.9774C10.9894 11.9823 11.011 11.9873 11.0334 11.9922C11.0497 11.9959 11.0658 11.9995 11.0825 12.0032C11.0825 12.0156 11.0825 12.0279 11.0825 12.0406C11.0967 12.0461 11.111 12.0513 11.1256 12.0569C11.2788 12.1185 11.3737 12.2092 11.4729 12.3364C11.4826 12.3489 11.4924 12.3613 11.5026 12.374C11.7102 12.6507 11.6823 13.0346 11.6819 13.3629C11.6821 13.3985 11.6823 13.434 11.6823 13.4696C11.6826 13.565 11.6828 13.6604 11.6828 13.7558C11.6828 13.8158 11.6828 13.8757 11.683 13.9358C11.6834 14.1458 11.6836 14.3559 11.6834 14.566C11.6834 14.7602 11.6838 14.9546 11.6845 15.149C11.6849 15.317 11.6851 15.485 11.6851 15.6532C11.6851 15.7529 11.6853 15.8528 11.6857 15.9527C11.6899 17.069 11.6899 17.069 11.5422 17.2976C11.5348 17.3169 11.5273 17.3361 11.5196 17.356C11.4233 17.576 11.2353 17.7529 11.0139 17.8521C10.9923 17.8605 10.9706 17.8689 10.9484 17.8775C10.9317 17.8846 10.9149 17.8919 10.8974 17.8994C10.8072 17.9368 10.7411 17.9567 10.6419 17.9524C10.6218 17.9585 10.6017 17.9647 10.581 17.9711C10.503 17.9909 10.4352 17.993 10.3559 17.9873C10.3419 17.9866 10.3279 17.9857 10.3136 17.9847C10.2113 17.9767 10.113 17.9598 10.0134 17.9359C10.0008 17.9329 9.98793 17.9299 9.9749 17.9269C9.90422 17.9084 9.85556 17.8846 9.79905 17.8401C9.77702 17.8339 9.7548 17.8278 9.73201 17.8214C9.58681 17.7718 9.469 17.6321 9.36479 17.526C9.32265 17.4811 9.32265 17.4811 9.26269 17.466C9.26346 17.4837 9.26442 17.5015 9.26518 17.5196C9.26269 17.5782 9.26269 17.5782 9.22438 17.6156C9.21289 17.6585 9.21289 17.6585 9.20522 17.7067C9.19431 17.7711 9.1786 17.8199 9.14776 17.8775C8.93111 17.8785 8.71465 17.879 8.498 17.8794C8.39743 17.8796 8.29686 17.88 8.1961 17.8803C8.09917 17.8807 8.00225 17.8809 7.90513 17.8811C7.86816 17.8811 7.83099 17.8813 7.79402 17.8815C7.74211 17.8818 7.69039 17.8818 7.63867 17.8818C7.62315 17.8818 7.60764 17.882 7.59174 17.8822C7.48562 17.8818 7.48562 17.8818 7.4429 17.8401C7.43926 17.7954 7.43792 17.7529 7.4383 17.708C7.4383 17.6944 7.43811 17.6805 7.43811 17.6663C7.43811 17.6195 7.43811 17.5728 7.4383 17.526C7.4383 17.4923 7.4383 17.4587 7.4383 17.425C7.43811 17.332 7.4383 17.239 7.43849 17.1462C7.43869 17.0461 7.43869 16.9461 7.43869 16.846C7.43849 16.6726 7.43869 16.4991 7.43888 16.3255C7.43926 16.0748 7.43926 15.824 7.43945 15.5731C7.43945 15.1662 7.43964 14.7593 7.44003 14.3524C7.44041 13.9571 7.44079 13.5616 7.44079 13.1663C7.44079 13.1298 7.44079 13.1298 7.44098 13.0924C7.44098 12.9702 7.44098 12.8481 7.44098 12.7259C7.44137 11.7118 7.44213 10.6976 7.4429 9.68343C7.5065 9.65238 7.57737 9.66211 7.6471 9.66229Z" fill="#000100"/>
<path d="M19.2309 11.905C19.2443 11.905 19.2575 11.905 19.2713 11.905C20.0023 11.9052 20.0023 11.9052 20.2389 12.0593C20.2676 12.0674 20.2963 12.0747 20.3251 12.0816C20.5266 12.1407 20.6628 12.2606 20.8101 12.4019C20.8237 12.415 20.8375 12.4281 20.8517 12.4415C21.0287 12.6164 21.1273 12.808 21.1583 13.0508C21.1647 13.057 21.1712 13.0632 21.1775 13.0696C21.1817 13.1139 21.1846 13.1584 21.1871 13.2029C21.1913 13.2757 21.1963 13.3472 21.207 13.4196C21.2143 13.4703 21.2175 13.5156 21.2158 13.5664C21.215 13.6175 21.2177 13.6594 21.2267 13.7103C21.2355 13.7647 21.2281 13.802 21.2158 13.8553C21.2221 13.8676 21.2286 13.88 21.235 13.8927C21.242 13.9543 21.2432 14.0162 21.2457 14.0779C21.2465 14.0983 21.2474 14.1187 21.2482 14.1398C21.2595 14.4657 21.2566 14.792 21.2562 15.1181C21.256 15.2154 21.256 15.3126 21.256 15.4099C21.256 15.5935 21.2558 15.777 21.2556 15.9605C21.2555 16.1698 21.2553 16.379 21.2553 16.5883C21.2549 17.0181 21.2547 17.4478 21.2541 17.8775C21.0248 17.8779 20.7953 17.8783 20.5659 17.8784C20.4593 17.8786 20.3528 17.8786 20.2463 17.879C20.1435 17.8792 20.0408 17.8792 19.9381 17.8792C19.8989 17.8794 19.8596 17.8794 19.8203 17.8796C19.7655 17.8796 19.7107 17.8796 19.6558 17.8796C19.6395 17.8798 19.623 17.8798 19.6062 17.8798C19.4941 17.8796 19.4941 17.8796 19.4726 17.8588C19.4698 17.8268 19.4678 17.7948 19.4667 17.7628C19.4659 17.7436 19.465 17.7241 19.4642 17.7043C19.4634 17.6839 19.4627 17.6635 19.4619 17.6425C19.4611 17.6221 19.4604 17.6016 19.4594 17.5806C19.4575 17.5299 19.4554 17.4792 19.4535 17.4285C19.391 17.4886 19.3316 17.5501 19.274 17.6145C19.0499 17.8588 18.7945 17.9699 18.4574 17.9898C18.438 17.9909 18.438 17.9909 18.4181 17.9922C18.3392 17.9944 18.27 17.9838 18.1942 17.9628C18.1427 17.9503 18.0911 17.9434 18.0384 17.9361C17.749 17.8899 17.4753 17.7406 17.3006 17.5099C17.1862 17.346 17.1678 17.1694 17.142 16.9763C17.1372 16.9404 17.1372 16.9404 17.1165 16.9047C17.1146 16.8706 17.114 16.8364 17.1138 16.8024C17.1136 16.7808 17.1136 16.7595 17.1134 16.7374C17.1134 16.7142 17.1134 16.6909 17.1134 16.6669C17.1132 16.6432 17.1132 16.6194 17.1132 16.5949C17.113 16.5444 17.113 16.4939 17.113 16.4434C17.113 16.3788 17.1128 16.3143 17.1125 16.2497C17.1123 16.1882 17.1123 16.1264 17.1121 16.0649C17.1121 16.0417 17.1119 16.0185 17.1117 15.9947C17.1119 15.973 17.1119 15.9515 17.1119 15.9293C17.1119 15.9104 17.1119 15.8913 17.1119 15.8718C17.1169 15.8168 17.133 15.7766 17.1548 15.7261C17.1517 15.7137 17.1485 15.7014 17.1452 15.6887C17.1356 15.6513 17.1356 15.6513 17.1531 15.6094C17.183 15.5356 17.1904 15.461 17.2015 15.3826C17.2123 15.3332 17.2123 15.3332 17.2506 15.2958C17.2554 15.2816 17.2602 15.2672 17.2651 15.2526C17.2965 15.1862 17.3458 15.1518 17.4038 15.1087C17.4201 15.0953 17.4364 15.0818 17.453 15.0678C17.4996 15.0339 17.5419 15.0171 17.5954 14.9965C17.6088 14.9832 17.6088 14.9832 17.6226 14.9697C17.6551 14.9383 17.6839 14.9222 17.7249 14.9028C17.7385 14.8964 17.7521 14.8898 17.7661 14.8831C17.78 14.8766 17.794 14.87 17.8086 14.8631C17.8996 14.8259 17.8996 14.8259 17.9785 14.772C18.0233 14.7712 18.0679 14.7712 18.1126 14.772C18.1191 14.7535 18.1252 14.7349 18.1317 14.7159C18.2011 14.6827 18.2679 14.6586 18.3424 14.641C18.456 14.609 18.5581 14.5653 18.6629 14.5125C18.7146 14.4874 18.7662 14.47 18.8213 14.4539C19.0188 14.3974 19.0188 14.3974 19.1853 14.2856C19.2075 14.2833 19.2295 14.2809 19.2523 14.2787C19.2857 14.2729 19.2857 14.2729 19.3194 14.2669C19.3433 14.2313 19.3433 14.2313 19.3577 14.192C19.3709 14.1866 19.3839 14.1812 19.3974 14.1758C19.4096 14.1687 19.4219 14.1617 19.4343 14.1546C19.4594 14.0551 19.4585 13.9524 19.461 13.8506C19.4615 13.8323 19.4619 13.8139 19.4625 13.7951C19.4634 13.7565 19.4644 13.718 19.4654 13.6794C19.4667 13.6203 19.4684 13.5614 19.4701 13.5025C19.4711 13.465 19.4721 13.4274 19.473 13.3898C19.4736 13.3723 19.474 13.3547 19.4746 13.3365C19.4763 13.2505 19.4751 13.1855 19.4343 13.107C19.4286 13.0845 19.4226 13.0623 19.4165 13.0391C19.3884 12.9523 19.3571 12.9321 19.2811 12.8825C19.2181 12.8757 19.2181 12.8757 19.1483 12.8767C19.1248 12.8763 19.1014 12.8759 19.0771 12.8757C19.0093 12.8829 18.9865 12.8956 18.9363 12.9386C18.9238 12.9386 18.9112 12.9386 18.898 12.9386C18.8698 13.1156 18.8572 13.2926 18.8537 13.4714C18.8531 13.4978 18.8531 13.4978 18.8526 13.5247C18.8512 13.5799 18.8501 13.6351 18.8489 13.6905C18.8482 13.7283 18.8474 13.7661 18.8464 13.8038C18.8445 13.8959 18.8424 13.9877 18.8405 14.0798C18.6187 14.0802 18.3967 14.0805 18.1746 14.0807C18.0716 14.0809 17.9687 14.0809 17.8657 14.0813C17.7662 14.0815 17.6668 14.0815 17.5674 14.0815C17.5295 14.0817 17.4916 14.0817 17.4534 14.0818C17.4004 14.0818 17.3475 14.0818 17.2944 14.0818C17.2785 14.082 17.2626 14.082 17.2464 14.082C17.1379 14.0818 17.1379 14.0818 17.1165 14.0611C17.1117 13.975 17.113 13.8888 17.113 13.8027C17.1128 13.7784 17.1125 13.7541 17.1123 13.7292C17.1123 13.7058 17.1123 13.6824 17.1121 13.6585C17.1121 13.637 17.1121 13.6156 17.1119 13.5936C17.1165 13.5382 17.1293 13.5105 17.1548 13.4624C17.1485 13.4439 17.1423 13.4254 17.1356 13.4063C17.1374 13.3653 17.1374 13.3653 17.1429 13.321C17.1446 13.3062 17.1464 13.2916 17.1481 13.2765C17.1548 13.2379 17.1548 13.2379 17.174 13.2005C17.1793 13.1588 17.1826 13.1169 17.186 13.075C17.1931 13.0321 17.1931 13.0321 17.213 12.994C17.2372 12.953 17.2372 12.953 17.2314 12.8825C17.2441 12.8825 17.2569 12.8825 17.2697 12.8825C17.2722 12.8524 17.2722 12.8524 17.2747 12.8217C17.2906 12.7437 17.3065 12.7276 17.3655 12.6767C17.3849 12.6454 17.404 12.6144 17.423 12.5831C17.5471 12.4273 17.6973 12.2904 17.8827 12.209C17.9168 12.1903 17.9507 12.1716 17.9846 12.1529C18.0647 12.1096 18.1421 12.0773 18.23 12.0526C18.2716 12.0404 18.2716 12.0404 18.3233 12.0032C18.3614 11.9923 18.3614 11.9923 18.4047 11.9837C18.4288 11.9791 18.4288 11.9791 18.4534 11.9742C18.4702 11.971 18.4869 11.9678 18.5041 11.9647C18.5202 11.9613 18.5363 11.9581 18.553 11.9547C18.7775 11.9113 19.0026 11.9052 19.2309 11.905Z" fill="#000100"/>
<path d="M14.3737 11.9225C14.4112 11.9227 14.4486 11.9229 14.4861 11.9231C14.5222 11.9233 14.5584 11.9237 14.5944 11.9238C14.6107 11.924 14.6271 11.9242 14.644 11.9244C14.9137 11.9285 14.9137 11.9285 14.952 11.9658C14.9941 11.9719 15.0365 11.9772 15.0788 11.9822C15.1825 11.9961 15.2619 12.0125 15.3543 12.0593C15.3798 12.0718 15.4052 12.0844 15.4309 12.0967C15.4437 12.1033 15.4568 12.1096 15.47 12.1164C15.5112 12.1366 15.5112 12.1366 15.5709 12.1575C15.8602 12.278 16.0671 12.5287 16.2163 12.7889C16.2249 12.8031 16.2337 12.8175 16.2427 12.8321C16.2929 12.9142 16.2929 12.9142 16.2929 12.9573C16.3056 12.9573 16.3182 12.9573 16.3312 12.9573C16.3333 12.9676 16.3354 12.9777 16.3375 12.9881C16.3538 13.0635 16.3722 13.1354 16.3994 13.2076C16.4287 13.2893 16.4354 13.3674 16.4414 13.4534C16.4444 13.5021 16.4444 13.5021 16.4653 13.5548C16.5004 13.6596 16.5205 13.7872 16.4845 13.8927C16.4908 13.905 16.4971 13.9174 16.5036 13.9301C16.5036 14.3005 16.5036 14.6709 16.5036 15.0526C15.2993 15.0619 15.2993 15.0619 14.0708 15.0713C14.0772 15.096 14.0835 15.1207 14.09 15.1461C14.0915 15.1904 14.0919 15.235 14.0919 15.2793C14.0917 15.2991 14.0917 15.2991 14.0917 15.3195C14.0917 15.3483 14.0915 15.3772 14.0913 15.406C14.0911 15.4518 14.091 15.4976 14.091 15.5433C14.0908 15.6574 14.0902 15.7713 14.0898 15.8853C14.0894 15.9812 14.089 16.0774 14.0889 16.1736C14.0889 16.2183 14.0885 16.2628 14.0883 16.3075C14.0785 16.6216 14.0785 16.6216 14.1475 16.9234C14.2519 17.0107 14.3806 17.0321 14.5145 17.0261C14.6185 17.0087 14.6917 16.9643 14.7536 16.8811C14.7838 16.8216 14.7926 16.7707 14.8011 16.7047C14.8164 16.5896 14.8164 16.5896 14.8371 16.5492C14.8386 16.5182 14.839 16.4871 14.839 16.456C14.8388 16.4366 14.8388 16.4171 14.8388 16.3971C14.8384 16.3657 14.8384 16.3657 14.8382 16.3335C14.8382 16.312 14.838 16.2905 14.838 16.2684C14.8378 16.1994 14.8375 16.1305 14.8371 16.0617C14.8365 15.9709 14.8361 15.8804 14.8357 15.7897C14.8355 15.7582 14.8355 15.7582 14.8353 15.7259C14.8353 15.7066 14.8352 15.6871 14.8352 15.6673C14.835 15.6501 14.835 15.6331 14.8348 15.6153C14.8371 15.5764 14.8371 15.5764 14.8562 15.5577C14.9066 15.5556 14.9566 15.5549 15.0072 15.5547C15.0231 15.5547 15.0388 15.5545 15.0553 15.5545C15.1077 15.5541 15.1602 15.5539 15.2129 15.5539C15.2493 15.5538 15.2857 15.5538 15.3221 15.5536C15.3983 15.5534 15.4748 15.5534 15.5512 15.5532C15.6493 15.5532 15.7474 15.5526 15.8454 15.5521C15.9205 15.5519 15.9958 15.5517 16.0709 15.5517C16.1071 15.5517 16.1433 15.5515 16.1793 15.5511C16.2299 15.551 16.2805 15.551 16.3308 15.5511C16.346 15.551 16.3611 15.5508 16.3766 15.5506C16.4182 15.551 16.4182 15.551 16.4845 15.5577C16.5247 15.6168 16.5274 15.6286 16.5256 15.6958C16.5253 15.7122 16.5249 15.7287 16.5247 15.7457C16.5237 15.7723 16.5237 15.7723 16.523 15.7996C16.5224 15.8271 16.5224 15.8271 16.5216 15.8551C16.5207 15.8939 16.5197 15.9328 16.5186 15.9717C16.5168 16.0308 16.5153 16.0901 16.514 16.1494C16.513 16.187 16.512 16.2248 16.5109 16.2626C16.5105 16.2802 16.5101 16.298 16.5096 16.3161C16.5057 16.4433 16.4875 16.5612 16.4569 16.6848C16.4521 16.7043 16.4475 16.7238 16.4425 16.7436C16.427 16.7924 16.427 16.7924 16.3887 16.8298C16.3789 16.8596 16.3701 16.8897 16.3623 16.9198C16.3387 16.9999 16.3121 17.048 16.2546 17.1104C16.2362 17.1368 16.2184 17.1634 16.2008 17.19C15.9586 17.5454 15.6629 17.7809 15.2393 17.8962C15.2259 17.9007 15.2125 17.9052 15.1987 17.9098C14.8064 18.0314 14.3396 18.0137 13.9368 17.9523C13.9304 17.9461 13.9241 17.94 13.9176 17.9336C13.8753 17.9276 13.8329 17.9222 13.7906 17.9173C13.6873 17.9035 13.6079 17.8853 13.5153 17.8401C13.477 17.8275 13.4387 17.815 13.4004 17.8026C13.2537 17.7493 13.1236 17.6885 12.9981 17.5969C12.982 17.5853 12.9661 17.5737 12.9497 17.5617C12.6506 17.3372 12.439 17.0061 12.366 16.6427C12.3595 16.5928 12.3543 16.5432 12.3509 16.4931C12.3489 16.4544 12.3489 16.4544 12.3277 16.4183C12.2624 15.9666 12.2834 15.4988 12.2844 15.0442C12.2846 14.9371 12.2844 14.8299 12.2842 14.7227C12.284 14.6386 12.284 14.5544 12.2842 14.4702C12.2842 14.4307 12.2842 14.3912 12.284 14.3518C12.2838 14.1434 12.2892 13.9365 12.3066 13.7286C12.3087 13.7017 12.3087 13.7017 12.311 13.6742C12.3572 13.1737 12.4916 12.6697 12.9004 12.3352C12.9136 12.3246 12.9269 12.3137 12.9407 12.3025C12.9525 12.2918 12.9644 12.281 12.9767 12.2698C13.1058 12.1592 13.2604 12.1098 13.4201 12.0548C13.4581 12.0413 13.4581 12.0413 13.4935 12.0222C13.7548 11.9006 14.0919 11.9182 14.3737 11.9225Z" fill="#E03238"/>
<path d="M3.39989 14.8433C3.41311 14.8431 3.42633 14.8429 3.43993 14.8426C3.53915 14.8424 3.62765 14.8482 3.70428 14.9146C3.71328 14.9258 3.72228 14.937 3.73148 14.9485C3.74067 14.9597 3.74987 14.9709 3.75944 14.9823C3.85369 15.1071 3.85082 15.2399 3.82975 15.3905C3.80791 15.5015 3.76347 15.5907 3.70753 15.6887C3.69546 15.714 3.68359 15.7392 3.67171 15.7647C3.62535 15.8545 3.56214 15.9295 3.49682 16.0068C3.4813 16.0251 3.46579 16.0436 3.4497 16.0627C3.41675 16.1016 3.38361 16.1403 3.35028 16.1789C3.32423 16.2092 3.29837 16.2397 3.27289 16.2707C3.21485 16.3405 3.15336 16.3921 3.07827 16.4443C3.03229 16.478 2.99073 16.5147 2.94858 16.5528C2.88499 16.6088 2.82752 16.6445 2.74975 16.6802C2.71795 16.7018 2.68653 16.7235 2.65512 16.7457C2.57964 16.7985 2.5103 16.8344 2.4241 16.8673C2.40111 16.8817 2.40111 16.8817 2.37736 16.8965C2.313 16.9319 2.24672 16.9455 2.17508 16.9609C2.16186 16.9642 2.14864 16.9678 2.13504 16.9713C2.01359 17.0022 1.8977 17.003 1.77281 16.9983C1.75882 16.9983 1.74465 16.9985 1.73028 16.9985C1.6096 16.9938 1.5278 16.9304 1.44716 16.8486C1.36326 16.7324 1.37303 16.5716 1.38969 16.437C1.43528 16.2447 1.51899 16.0717 1.63872 15.9132C1.64619 15.9033 1.65366 15.8934 1.66132 15.8831C1.75384 15.7596 1.84981 15.6438 1.96436 15.5391C1.97835 15.5247 1.99233 15.5104 2.00689 15.4957C2.07029 15.436 2.13791 15.3855 2.2086 15.3344C2.22239 15.3245 2.23618 15.3146 2.25036 15.3043C2.28905 15.2764 2.32775 15.2487 2.36663 15.221C2.38234 15.2096 2.39805 15.1984 2.41433 15.1868C2.69649 14.9928 3.05222 14.8437 3.39989 14.8433Z" fill="#E03137"/>
<path d="M5.7572 15.7448C5.86639 15.8501 5.89512 15.9188 5.89608 16.0686C5.89665 16.09 5.89665 16.09 5.89723 16.1119C5.898 16.2 5.88823 16.2512 5.83382 16.3248C5.8275 16.3433 5.82118 16.3618 5.81467 16.3809C5.79532 16.4378 5.77004 16.4797 5.73805 16.5305C5.72866 16.547 5.71946 16.5633 5.70989 16.5803C5.56967 16.825 5.40474 17.0136 5.19134 17.198C5.15284 17.2321 5.11683 17.2682 5.08081 17.3047C4.9699 17.4139 4.84539 17.494 4.70938 17.5709C4.66494 17.5961 4.66494 17.5961 4.62491 17.6266C4.5728 17.6646 4.51457 17.6854 4.45461 17.7091C4.43641 17.7168 4.41822 17.7243 4.39944 17.7322C4.37971 17.7404 4.35998 17.7486 4.33968 17.757C4.3211 17.7649 4.30252 17.7726 4.28336 17.7806C4.14965 17.8309 4.0328 17.8474 3.89067 17.8483C3.87343 17.8489 3.85619 17.8495 3.83837 17.8502C3.69566 17.8513 3.60793 17.8109 3.50296 17.7181C3.46828 17.6803 3.46445 17.6478 3.45622 17.598C3.44491 17.5318 3.44491 17.5318 3.42672 17.4673C3.40335 17.3286 3.51138 17.1234 3.57345 16.9982C3.59222 16.973 3.61138 16.9481 3.63092 16.9234C3.63877 16.9068 3.64662 16.8903 3.65486 16.8731C3.69202 16.8042 3.73646 16.7477 3.78627 16.6871C3.81021 16.6578 3.83378 16.628 3.85695 16.5979C3.92228 16.5128 3.98587 16.4464 4.0715 16.3809C4.08606 16.3663 4.10081 16.3515 4.11575 16.3364C4.17302 16.2819 4.23394 16.2355 4.29754 16.1882C4.33278 16.1616 4.36688 16.1343 4.40078 16.1061C4.50614 16.0215 4.62203 15.957 4.7408 15.8922C4.75555 15.8838 4.7703 15.8756 4.78562 15.8672C4.87182 15.8198 4.9517 15.7867 5.04844 15.7635C5.09135 15.7495 5.13407 15.7349 5.17659 15.7201C5.35225 15.6694 5.59859 15.6427 5.7572 15.7448Z" fill="#E03137"/>
<path d="M11.0249 5.64249C11.2381 5.66849 11.4383 5.7162 11.5805 5.88569C11.6866 6.03517 11.7322 6.20896 11.7145 6.39081C11.7029 6.42916 11.6889 6.46564 11.6732 6.50268C11.658 6.53823 11.646 6.57508 11.6343 6.61175C11.5213 6.90415 11.2154 7.16868 10.9483 7.32621C10.9276 7.33911 10.9276 7.33911 10.9068 7.35221C10.592 7.53648 10.2147 7.5812 9.85645 7.51329C9.67753 7.45024 9.55513 7.35333 9.45073 7.19918C9.38311 7.02033 9.43368 6.79452 9.49977 6.62241C9.54727 6.5255 9.60972 6.45048 9.68404 6.3721C9.70512 6.34759 9.72638 6.32308 9.74745 6.29839C9.77082 6.27295 9.79438 6.24769 9.81813 6.22243C9.83384 6.2056 9.84974 6.18876 9.86602 6.17136C9.98077 6.0535 10.0903 5.97511 10.2396 5.9044C10.2861 5.87839 10.3294 5.85295 10.371 5.81965C10.4271 5.78205 10.4874 5.76353 10.552 5.74426C10.5654 5.74014 10.5786 5.73603 10.5924 5.73191C10.7112 5.69749 10.8288 5.68046 10.9518 5.66793C11.0039 5.66681 11.0039 5.66681 11.0249 5.64249Z" fill="#E03137"/>
<path d="M8.57762 6.8165C8.74945 6.88141 8.86611 7.00058 8.95767 7.1553C8.98909 7.22639 8.98238 7.3001 8.98258 7.37643C8.98296 7.39251 8.98353 7.4086 8.98392 7.42525C8.98449 7.54611 8.95499 7.63123 8.89867 7.73786C8.89159 7.75433 8.8845 7.77079 8.87722 7.78781C8.84216 7.86901 8.80634 7.93355 8.74543 7.99978C8.73566 8.011 8.7257 8.02241 8.71555 8.03401C8.6077 8.15674 8.50311 8.26824 8.36231 8.35523C8.33665 8.37412 8.31117 8.3932 8.28569 8.41247C8.17286 8.49535 8.04816 8.54306 7.91809 8.59488C7.8861 8.60816 7.8543 8.622 7.82327 8.63734C7.71294 8.69029 7.58344 8.70207 7.462 8.71068C7.44897 8.71161 7.43575 8.71255 7.42215 8.71367C7.21795 8.72172 7.03061 8.67644 6.86606 8.55746C6.82947 8.52304 6.81089 8.49423 6.79155 8.44877C6.7789 8.44877 6.76626 8.44877 6.75323 8.44877C6.69021 8.31538 6.66148 8.16665 6.71435 8.02466C6.72086 8.01025 6.72737 7.99585 6.73408 7.98107C6.73925 7.96124 6.74442 7.94159 6.74959 7.92139C6.86702 7.55378 7.19937 7.22601 7.54053 7.04268C7.56563 7.0307 7.59072 7.01892 7.61601 7.0075C7.65413 6.98992 7.65413 6.98992 7.69071 6.96691C7.80967 6.89432 7.93246 6.86588 8.0677 6.83595C8.23589 6.79723 8.40426 6.77702 8.57762 6.8165Z" fill="#E03238"/>
<path d="M2.92093 12.9503C2.93548 12.9499 2.95004 12.9494 2.96498 12.949C3.07455 12.9484 3.15712 12.9712 3.24772 13.0322C3.3412 13.1245 3.39043 13.2274 3.39618 13.3572C3.38833 13.491 3.34312 13.6038 3.28603 13.7244C3.27914 13.7403 3.27224 13.7562 3.26515 13.7727C3.16171 13.9959 2.98893 14.1691 2.81442 14.3405C2.7991 14.3556 2.78377 14.3706 2.76806 14.3861C2.68742 14.464 2.60581 14.5352 2.51368 14.5998C2.48532 14.6196 2.45812 14.6413 2.43131 14.6632C2.38016 14.7014 2.32882 14.7261 2.27078 14.7534C2.24492 14.768 2.21887 14.7829 2.19301 14.7977C2.08363 14.8576 1.96735 14.8991 1.84936 14.9405C1.83192 14.9474 1.8143 14.9543 1.79629 14.9614C1.71163 14.9839 1.63155 14.9839 1.54401 14.9837C1.51911 14.984 1.51911 14.984 1.49363 14.9846C1.33196 14.9846 1.204 14.935 1.08313 14.8282C0.996734 14.7197 0.991562 14.626 1.0065 14.4915C1.03236 14.3412 1.0837 14.2121 1.15975 14.0799C1.16933 14.0629 1.17871 14.0458 1.18848 14.0282C1.23522 13.9598 1.29039 13.8988 1.34633 13.8376C1.39786 13.7809 1.44498 13.7276 1.48655 13.6634C1.53041 13.6028 1.57524 13.5781 1.63864 13.5374C1.66795 13.5093 1.69649 13.4807 1.72484 13.4519C1.78863 13.3882 1.8415 13.3478 1.92598 13.3129C1.94935 13.299 1.97253 13.285 1.99551 13.2706C2.07903 13.2191 2.16351 13.1699 2.24933 13.1222C2.2635 13.114 2.27749 13.1058 2.29224 13.0973C2.38399 13.0465 2.46655 13.0191 2.57095 13.0023C2.62018 12.9948 2.62018 12.9948 2.68397 12.9741C2.76442 12.9535 2.83817 12.9505 2.92093 12.9503Z" fill="#E03238"/>
<path d="M6.29452 8.60245C6.38379 8.66961 6.45045 8.75548 6.48512 8.86024C6.49949 9.00317 6.51194 9.18576 6.42765 9.30923C6.42172 9.32701 6.41578 9.34478 6.40965 9.36311C6.38973 9.42036 6.36521 9.46414 6.33188 9.51502C6.32364 9.52961 6.31521 9.54439 6.30678 9.55955C6.27211 9.61193 6.2338 9.6572 6.19147 9.70397C6.16944 9.72848 6.1476 9.75336 6.12614 9.77862C6.05987 9.85569 5.99818 9.90995 5.91045 9.96401C5.88421 9.9859 5.85835 10.0082 5.83268 10.0306C5.74897 10.1034 5.66909 10.1481 5.56565 10.1885C5.55186 10.1966 5.53806 10.2048 5.5237 10.213C5.28253 10.3544 4.94883 10.4798 4.66284 10.4166C4.65096 10.413 4.63909 10.4093 4.62683 10.4057C4.58622 10.3924 4.58622 10.3924 4.53258 10.3872C4.40807 10.3627 4.29658 10.2749 4.2236 10.1745C4.151 10.0446 4.15789 9.90452 4.19199 9.76459C4.2144 9.69219 4.2485 9.62783 4.28585 9.56179C4.29352 9.54795 4.30118 9.5341 4.30903 9.51989C4.36765 9.41643 4.43201 9.32327 4.51208 9.2344C4.52434 9.22037 4.53641 9.20615 4.54905 9.19156C4.84309 8.85744 5.22985 8.65539 5.66143 8.54221C5.67388 8.53847 5.68633 8.53472 5.69916 8.53079C5.88766 8.49544 6.12787 8.50573 6.29452 8.60245Z" fill="#E03238"/>
<path d="M4.22469 10.7498C4.3289 10.8317 4.39498 10.9303 4.41261 11.0596C4.42008 11.1599 4.4082 11.241 4.35878 11.3297C4.34575 11.3598 4.34575 11.3598 4.33234 11.3905C4.322 11.4139 4.31166 11.4373 4.30131 11.4607C4.28656 11.4942 4.28656 11.4942 4.27143 11.5284C4.04443 11.9619 3.55788 12.3276 3.0945 12.4896C3.04987 12.5023 3.00524 12.5149 2.96041 12.527C2.92842 12.5368 2.89662 12.5465 2.86463 12.5562C2.70698 12.6022 2.53994 12.6337 2.38574 12.5645C2.36256 12.5609 2.36256 12.5609 2.339 12.5573C2.22119 12.5293 2.14821 12.4503 2.07925 12.3587C2.02101 12.2389 2.02025 12.1121 2.05703 11.9853C2.13748 11.7877 2.24265 11.5856 2.4049 11.442C2.41447 11.4261 2.42386 11.4104 2.43363 11.3941C2.46409 11.3456 2.49876 11.3155 2.54416 11.2807C2.58094 11.2521 2.61542 11.2214 2.65028 11.1905C2.71579 11.1344 2.78418 11.0865 2.85754 11.0407C2.89471 11.0169 2.92976 10.9922 2.9652 10.9664C3.03857 10.915 3.11557 10.8776 3.19756 10.8411C3.21193 10.8345 3.22629 10.828 3.24104 10.8212C3.3372 10.7784 3.43241 10.7384 3.53508 10.7124C3.54887 10.7086 3.56286 10.7049 3.57723 10.7009C3.78621 10.6514 4.03524 10.6381 4.22469 10.7498Z" fill="#E03238"/>
<path d="M9.77756 12.8837C9.87257 12.9682 9.91644 13.0584 9.9331 13.1819C9.93502 13.2314 9.93578 13.2806 9.93578 13.3302C9.93578 13.3448 9.93578 13.3594 9.93597 13.3746C9.93597 13.4232 9.93597 13.472 9.93597 13.5209C9.93597 13.5558 9.93617 13.5908 9.93617 13.626C9.93636 13.721 9.93636 13.8161 9.93636 13.9111C9.93636 13.9704 9.93655 14.0299 9.93655 14.0892C9.93674 14.2963 9.93674 14.5036 9.93674 14.7107C9.93674 14.9039 9.93693 15.097 9.93732 15.2903C9.93751 15.456 9.93751 15.622 9.93751 15.7877C9.93751 15.8869 9.9377 15.9858 9.93789 16.0848C9.93808 16.178 9.93808 16.2711 9.93789 16.3643C9.93789 16.3983 9.93789 16.4326 9.93808 16.4666C9.93808 16.5134 9.93808 16.56 9.93789 16.6067C9.93808 16.6202 9.93808 16.6337 9.93827 16.6475C9.9377 16.728 9.92429 16.7923 9.89479 16.8673C9.89058 16.8838 9.88617 16.9005 9.88176 16.9175C9.83637 16.9955 9.74806 17.0086 9.66492 17.0357C9.6268 17.0365 9.5883 17.0365 9.54999 17.0357C9.53102 17.0357 9.51206 17.0357 9.49252 17.0357C9.44635 17.0131 9.44635 17.0131 9.39559 16.983C9.3705 16.9684 9.3705 16.9684 9.34464 16.9534C9.30096 16.9235 9.30096 16.9235 9.26265 16.8673C9.25346 16.8118 9.24656 16.7579 9.24158 16.702C9.23986 16.6842 9.23832 16.6662 9.2366 16.6477C9.21438 16.3665 9.21878 16.0837 9.21936 15.8017C9.21936 15.7174 9.21936 15.633 9.21917 15.5486C9.21917 15.4072 9.21917 15.2658 9.21936 15.1243C9.21974 14.9617 9.21955 14.7992 9.21936 14.6364C9.21917 14.4957 9.21917 14.355 9.21936 14.2144C9.21936 14.1307 9.21936 14.0471 9.21917 13.9637C9.21917 13.8851 9.21917 13.8065 9.21936 13.728C9.21936 13.6993 9.21936 13.6709 9.21936 13.6423C9.21802 13.1592 9.21802 13.1592 9.28181 12.9574C9.31456 12.9302 9.31456 12.9302 9.35498 12.907C9.37471 12.8955 9.37471 12.8955 9.39483 12.8835C9.51455 12.8251 9.65439 12.8391 9.77756 12.8837Z" fill="#FCFBFB"/>
<path d="M14.0128 5.10713C14.1218 5.19225 14.2091 5.28373 14.243 5.41805C14.2473 5.46725 14.2496 5.51384 14.2492 5.56304C14.249 5.57613 14.2488 5.58942 14.2488 5.60307C14.2421 5.88313 14.0846 6.08088 13.9174 6.29733C13.9028 6.31697 13.8883 6.33661 13.8731 6.35682C13.7952 6.4367 13.7032 6.49619 13.6109 6.55924C13.5984 6.56878 13.5858 6.57832 13.573 6.58824C13.2929 6.78467 12.9546 6.86437 12.6148 6.83986C12.5541 6.82676 12.4997 6.80693 12.4424 6.78374C12.4231 6.77943 12.4037 6.77513 12.3838 6.77083C12.27 6.72106 12.1689 6.61368 12.1168 6.50312C12.0903 6.41818 12.0932 6.32913 12.0976 6.2412C12.0982 6.22886 12.0987 6.21651 12.0993 6.20379C12.1074 6.09098 12.1417 6.00922 12.1982 5.91138C12.2093 5.89136 12.2093 5.89136 12.2204 5.87116C12.3895 5.56959 12.6759 5.31553 12.9979 5.17485C13.0228 5.16194 13.0475 5.14903 13.0722 5.13612C13.1592 5.09384 13.249 5.06803 13.3427 5.04389C13.3638 5.03809 13.3638 5.03809 13.3852 5.03211C13.5988 4.97823 13.826 4.98515 14.0128 5.10713Z" fill="#E03238"/>
<path d="M16.1811 5.16296C16.2581 5.22974 16.3176 5.30364 16.3504 5.39924C16.3527 5.45368 16.3539 5.50737 16.3539 5.56181C16.3542 5.5764 16.3544 5.591 16.3546 5.60596C16.3548 5.7053 16.3425 5.79061 16.3121 5.88565C16.2931 5.90417 16.2931 5.90417 16.2738 5.92306C16.2665 5.94682 16.2665 5.94682 16.2594 5.97114C16.2267 6.0587 16.1755 6.1281 16.1205 6.20368C16.1113 6.21659 16.1021 6.22931 16.0928 6.2426C15.9943 6.37636 15.882 6.49197 15.7374 6.57784C15.7211 6.58832 15.7049 6.5988 15.6882 6.60946C15.5918 6.67101 15.5005 6.72601 15.3926 6.76492C15.3742 6.77241 15.3742 6.77241 15.3555 6.78008C15.1585 6.85416 14.958 6.85884 14.7589 6.79074C14.6747 6.75201 14.6132 6.69982 14.5498 6.63397C14.5396 6.62573 14.5297 6.6175 14.5193 6.6089C14.4465 6.52546 14.4475 6.41939 14.4479 6.31481C14.4477 6.3019 14.4473 6.2888 14.4469 6.27552C14.4469 6.19077 14.4616 6.14139 14.5115 6.07273C14.5201 6.05234 14.5287 6.03194 14.5377 6.0108C14.6431 5.76442 14.8509 5.51542 15.0861 5.38053C15.1116 5.36463 15.1371 5.34873 15.1627 5.33264C15.2248 5.29485 15.2884 5.2623 15.3543 5.23087C15.3685 5.22189 15.3827 5.21309 15.3974 5.20374C15.6075 5.08794 15.9696 5.02452 16.1811 5.16296Z" fill="#E03137"/>
<path d="M17.5379 5.92312C17.6255 5.99945 17.6887 6.09 17.7103 6.20374C17.7134 6.32946 17.6797 6.44302 17.6337 6.55919C17.6259 6.58033 17.6178 6.60166 17.6098 6.62355C17.5347 6.77265 17.4339 6.89145 17.3111 7.00538C17.2736 7.04205 17.2439 7.07909 17.2123 7.12043C17.145 7.1977 17.0621 7.24073 16.9717 7.28768C16.9575 7.29498 16.9435 7.30228 16.9292 7.30976C16.7481 7.39937 16.5501 7.40143 16.3514 7.37075C16.2497 7.32603 16.1821 7.26804 16.1216 7.17656C16.0771 7.0557 16.0758 6.89575 16.129 6.77939C16.1388 6.76218 16.1486 6.74515 16.1587 6.72757C16.1666 6.70792 16.1746 6.68828 16.1827 6.66789C16.3378 6.31917 16.6455 6.06231 17.0016 5.92312C17.1772 5.85708 17.369 5.82285 17.5379 5.92312Z" fill="#E03238"/>
<path d="M19.4152 15.0152C19.4405 15.0275 19.4658 15.0399 19.4918 15.0526C19.4907 15.2823 19.4891 15.5123 19.4872 15.742C19.4865 15.8486 19.4857 15.9555 19.4851 16.0621C19.4847 16.165 19.484 16.2681 19.483 16.371C19.4826 16.4103 19.4824 16.4495 19.4823 16.4888C19.4821 16.5438 19.4815 16.599 19.4809 16.654C19.4809 16.6701 19.4811 16.6864 19.4811 16.703C19.4796 16.7966 19.4679 16.8609 19.4152 16.9421C19.3294 17.0145 19.2284 17.0519 19.115 17.0446C18.9944 17.0205 18.8905 16.9709 18.8191 16.8708C18.7754 16.7919 18.7771 16.7311 18.7831 16.6428C18.78 16.6318 18.7771 16.6207 18.7739 16.6095C18.7595 16.5502 18.7614 16.4933 18.7614 16.4323C18.7614 16.4192 18.7614 16.4063 18.7612 16.3929C18.7612 16.3655 18.7614 16.338 18.7614 16.3107C18.7614 16.2688 18.7614 16.2269 18.7612 16.185C18.7612 16.1583 18.7614 16.1317 18.7614 16.1049C18.7614 16.0808 18.7614 16.0565 18.7614 16.0316C18.7635 15.9813 18.7689 15.9422 18.7831 15.8945C18.7829 15.8645 18.7821 15.8344 18.7808 15.8045C18.7796 15.7126 18.798 15.6578 18.8405 15.5764C18.8449 15.5624 18.8493 15.5484 18.8539 15.534C18.8896 15.4608 18.9432 15.4116 19.0022 15.3555C19.0141 15.3439 19.026 15.3323 19.0382 15.3205C19.1252 15.2378 19.2148 15.1667 19.3154 15.1003C19.3531 15.0745 19.384 15.0481 19.4152 15.0152Z" fill="#FCFBFB"/>
<path d="M18.1382 7.16194C18.2064 7.22181 18.2296 7.28018 18.2382 7.36773C18.2458 7.52095 18.2393 7.66275 18.1508 7.7939C18.142 7.8083 18.1332 7.82271 18.124 7.83749C17.9782 8.05862 17.7708 8.25767 17.5187 8.35514C17.5124 8.36131 17.5061 8.36748 17.4995 8.37385C17.4459 8.37628 17.3928 8.3774 17.3392 8.3774C17.3243 8.37759 17.3093 8.37777 17.2938 8.37815C17.2185 8.37834 17.1806 8.37815 17.1164 8.33643C17.1164 8.32408 17.1164 8.31173 17.1164 8.29901C17.1015 8.29396 17.0865 8.2891 17.071 8.28386C17.0206 8.2616 17.0206 8.2616 16.9823 8.20547C16.9611 8.03729 16.9921 7.8923 17.059 7.73777C17.0647 7.72393 17.0703 7.7099 17.076 7.69549C17.1262 7.59073 17.2055 7.5129 17.2877 7.43152C17.2992 7.42011 17.3107 7.4087 17.3224 7.39691C17.3896 7.33275 17.4507 7.28897 17.5379 7.25137C17.5497 7.2422 17.5616 7.23285 17.5739 7.2233C17.7271 7.1176 17.9681 7.07532 18.1382 7.16194Z" fill="#E03137"/>
<path d="M14.6455 12.8825C14.7453 12.9723 14.783 13.0696 14.7903 13.2011C14.7912 13.2445 14.7918 13.2879 14.7918 13.3315C14.7924 13.3659 14.7924 13.3659 14.793 13.4011C14.7937 13.4495 14.7943 13.4978 14.7945 13.5461C14.7951 13.6205 14.7962 13.6948 14.7974 13.7692C14.7979 13.8162 14.7985 13.8632 14.7991 13.9101C14.7993 13.9326 14.7997 13.9548 14.7999 13.9778C14.8001 13.9984 14.8002 14.0188 14.8004 14.0399C14.8004 14.0581 14.8006 14.0762 14.8008 14.0949C14.7987 14.1359 14.7987 14.1359 14.7796 14.1546C14.7336 14.1567 14.6882 14.1576 14.642 14.1578C14.6282 14.1578 14.6144 14.1578 14.6003 14.158C14.5709 14.158 14.5416 14.1582 14.5123 14.1582C14.4675 14.1582 14.4227 14.1586 14.3779 14.1587C14.3495 14.1589 14.321 14.1589 14.2924 14.1589C14.2792 14.1591 14.2658 14.1591 14.252 14.1593C14.1825 14.1591 14.1288 14.1569 14.0708 14.1172C14.0407 14.0585 14.0486 13.9956 14.0484 13.9311C14.0484 13.9161 14.0484 13.9011 14.0482 13.8856C14.0482 13.8536 14.048 13.8216 14.048 13.7896C14.048 13.7417 14.0476 13.694 14.0474 13.6461C14.0453 13.0756 14.0453 13.0756 14.193 12.9047C14.3024 12.8155 14.5248 12.8065 14.6455 12.8825Z" fill="#FCFCFC"/>
<path d="M17.9786 8.52353C18.0473 8.56432 18.0818 8.60173 18.1126 8.6732C18.1548 8.86271 18.0588 9.03987 17.9594 9.19702C17.8675 9.319 17.7546 9.39794 17.6205 9.47053C17.6087 9.47708 17.597 9.48344 17.5847 9.49017C17.4761 9.54443 17.3909 9.54779 17.2757 9.5115C17.2083 9.47539 17.1759 9.44771 17.1357 9.3841C17.0918 9.22377 17.1583 9.07467 17.2345 8.93324C17.2916 8.8455 17.3617 8.77796 17.4422 8.71061C17.4527 8.70145 17.4635 8.69228 17.4744 8.68274C17.609 8.57741 17.8058 8.49641 17.9786 8.52353Z" fill="#E03137"/>
<path d="M17.423 9.72084C17.4673 9.76293 17.4673 9.76293 17.4996 9.81438C17.5079 9.82561 17.5163 9.83683 17.5247 9.84824C17.5569 9.94796 17.522 10.0404 17.4793 10.1313C17.4023 10.2722 17.2851 10.4155 17.1357 10.4879C17.0912 10.501 17.0476 10.5107 17.002 10.5185C16.9594 10.5249 16.9594 10.5249 16.9058 10.544C16.8323 10.5141 16.769 10.472 16.7215 10.4095C16.6968 10.2297 16.7905 10.08 16.8943 9.94029C16.9276 9.90511 16.9579 9.89146 17.0016 9.8705C17.0142 9.85198 17.0269 9.83346 17.0399 9.81438C17.0847 9.79343 17.1276 9.77509 17.174 9.75826C17.193 9.75096 17.2119 9.74366 17.2315 9.73599C17.3 9.71785 17.3523 9.71186 17.423 9.72084Z" fill="#E03238"/>
<path d="M16.7526 10.7124C16.823 10.775 16.8457 10.8016 16.8568 10.8948C16.8483 10.9556 16.8483 10.9556 16.81 10.993C16.8018 11.0132 16.7937 11.0334 16.7853 11.0542C16.7541 11.1277 16.7093 11.1756 16.6508 11.2315C16.633 11.2487 16.6154 11.2661 16.5972 11.2839C16.5426 11.329 16.4917 11.357 16.4269 11.3859C16.4206 11.392 16.4143 11.3982 16.4078 11.4046C16.343 11.4128 16.2809 11.4137 16.2162 11.4046C16.1576 11.3589 16.1576 11.3589 16.1204 11.311C16.1141 11.3048 16.1078 11.2987 16.1013 11.2923C16.0852 11.1685 16.1262 11.0764 16.197 10.9743C16.2507 10.9191 16.3085 10.8719 16.3694 10.8246C16.3848 10.81 16.4003 10.7952 16.4162 10.7801C16.5118 10.721 16.6401 10.7028 16.7526 10.7124Z" fill="#E13238"/>
<path d="M6.29458 8.60245C6.38385 8.66961 6.45051 8.75548 6.48518 8.86024C6.49955 9.00317 6.512 9.18576 6.42771 9.30923C6.42178 9.32701 6.41584 9.34478 6.40971 9.36311C6.38979 9.42036 6.36527 9.46414 6.33194 9.51502C6.3237 9.52961 6.31527 9.54439 6.30684 9.55955C6.27217 9.61193 6.23386 9.6572 6.19152 9.70397C6.16949 9.72848 6.14766 9.75336 6.1262 9.77862C6.06031 9.85532 5.99843 9.9107 5.91051 9.96401C5.88427 9.98833 5.85841 10.013 5.83389 10.0388C5.82124 10.0327 5.8086 10.0265 5.79558 10.0201C5.80649 10.0097 5.8176 9.99919 5.82891 9.98852C5.87948 9.94025 5.92967 9.89199 5.97985 9.84353C5.99729 9.82726 6.01453 9.8108 6.03234 9.79377C6.25531 9.57844 6.38883 9.35881 6.40856 9.04845C6.40952 9.03348 6.41067 9.01833 6.41162 9.0028C6.41584 8.89279 6.39572 8.81815 6.32083 8.73191C6.31029 8.72293 6.29975 8.71395 6.28884 8.70478C6.27849 8.69561 6.26815 8.68645 6.25742 8.6769C6.13597 8.60937 5.96625 8.63294 5.8314 8.6335C5.80918 8.63331 5.78676 8.63331 5.76378 8.63313C5.74213 8.63331 5.72068 8.63331 5.69846 8.63331C5.67892 8.63331 5.65938 8.63331 5.63926 8.63331C5.58678 8.63575 5.53985 8.64061 5.48908 8.65445C5.46782 8.69131 5.46782 8.69131 5.45077 8.72929C5.41227 8.7422 5.37377 8.75492 5.33488 8.76652C5.09965 8.84546 4.91441 8.9665 4.74201 9.14086C4.72458 9.15807 4.72458 9.15807 4.70676 9.17547C4.45717 9.41999 4.2727 9.6269 4.25756 9.98646C4.25871 10.0667 4.27327 10.1161 4.32537 10.1803C4.34913 10.202 4.37307 10.2235 4.39721 10.2446C4.42077 10.2862 4.42077 10.2862 4.43552 10.3195C4.33035 10.2957 4.28725 10.2545 4.22481 10.1698C4.19052 10.1124 4.17883 10.0639 4.17213 9.99788C4.17021 9.98141 4.1683 9.96495 4.16638 9.94811C4.16868 9.80462 4.2158 9.68601 4.28591 9.56179C4.29358 9.54795 4.30124 9.5341 4.30909 9.51989C4.36771 9.41643 4.43207 9.32327 4.51214 9.2344C4.5244 9.22037 4.53647 9.20615 4.54911 9.19156C4.84315 8.85744 5.22991 8.65539 5.66149 8.54221C5.67394 8.53847 5.68639 8.53472 5.69922 8.53079C5.88771 8.49544 6.12793 8.50573 6.29458 8.60245Z" fill="#DE1B1F"/>
<path d="M5.75711 15.7448C5.8663 15.8501 5.89503 15.9188 5.89599 16.0686C5.89637 16.0829 5.89676 16.0971 5.89714 16.1119C5.8979 16.2 5.88814 16.2512 5.83373 16.3248C5.82741 16.3433 5.82109 16.3618 5.81458 16.3809C5.79523 16.4378 5.76994 16.4797 5.73795 16.5305C5.72857 16.547 5.71937 16.5633 5.7098 16.5803C5.56287 16.8368 5.38702 17.0297 5.16328 17.2227C5.15217 17.2341 5.14106 17.2454 5.12976 17.2572C5.10582 17.2789 5.10582 17.2789 5.0675 17.2789C5.0949 17.2169 5.12861 17.1784 5.17899 17.1322C5.19355 17.1187 5.20811 17.1051 5.22305 17.091C5.23856 17.0766 5.25389 17.0622 5.26979 17.0473C5.43031 16.8944 5.55253 16.7446 5.65233 16.5476C5.68049 16.4931 5.68049 16.4931 5.71056 16.4484C5.83258 16.2628 5.83201 16.0503 5.79542 15.8383C5.68183 15.814 5.57015 15.7961 5.45445 15.7865C5.41231 15.7822 5.41231 15.7822 5.35599 15.7693C5.31078 15.7583 5.31078 15.7583 5.25906 15.8009C5.22286 15.8095 5.18665 15.8181 5.15026 15.8266C4.91253 15.8896 4.68075 16.0019 4.49283 16.1564C4.45893 16.1829 4.42502 16.2095 4.39112 16.2359C4.3756 16.2482 4.35989 16.2606 4.34399 16.2733C4.30856 16.3004 4.27312 16.3255 4.23538 16.3493C4.18672 16.3784 4.18672 16.3784 4.15282 16.4136C4.14497 16.4213 4.13711 16.4291 4.12887 16.437C4.11623 16.437 4.10359 16.437 4.09056 16.437C4.08635 16.3936 4.08635 16.3936 4.09056 16.3435C4.11872 16.3145 4.11872 16.3145 4.15761 16.2896C4.21508 16.2512 4.26775 16.2118 4.31928 16.1657C4.44877 16.0542 4.59436 15.9725 4.74416 15.8898C4.75891 15.8816 4.77346 15.8735 4.7886 15.8651C4.87384 15.8187 4.95295 15.7865 5.04835 15.7635C5.09126 15.7495 5.13397 15.7349 5.1765 15.7201C5.35216 15.6694 5.5985 15.6427 5.75711 15.7448Z" fill="#DE1D22"/>
<path d="M4.00848 16.4698C4.02303 16.4713 4.0374 16.4728 4.05234 16.4745C4.01269 16.542 3.96844 16.601 3.91825 16.6616C3.81309 16.7901 3.7244 16.9158 3.65371 17.0657C3.63092 17.1106 3.63092 17.1106 3.59261 17.148C3.58015 17.1944 3.58015 17.1944 3.5723 17.2473C3.56924 17.2649 3.56617 17.2827 3.56311 17.3008C3.56023 17.3182 3.55736 17.3358 3.55429 17.3538C3.55027 17.3689 3.54625 17.3843 3.54203 17.4C3.53341 17.4593 3.54376 17.5027 3.55908 17.5607C3.56636 17.5893 3.56636 17.5893 3.57364 17.6187C3.59318 17.6733 3.60946 17.7047 3.65007 17.7466C3.69528 17.7571 3.69528 17.7571 3.74604 17.7545C3.76481 17.7543 3.78378 17.7543 3.80332 17.7541C3.82305 17.7536 3.84278 17.753 3.86308 17.7524C3.88243 17.7523 3.90178 17.7521 3.9217 17.7519C3.97802 17.7511 4.03434 17.7491 4.09065 17.7466C4.10617 17.7459 4.12169 17.7453 4.13778 17.7446C4.2462 17.7369 4.32665 17.7042 4.42109 17.6531C4.57778 17.57 4.57778 17.57 4.66533 17.5596C4.64617 17.6157 4.64617 17.6157 4.61054 17.6383C4.3732 17.7483 4.15693 17.8465 3.89067 17.8482C3.87343 17.849 3.85619 17.8495 3.83837 17.8501C3.69566 17.8512 3.60774 17.811 3.50296 17.7182C3.46828 17.6802 3.46445 17.6479 3.45602 17.5981C3.44491 17.5317 3.44491 17.5317 3.42672 17.4671C3.40335 17.3287 3.51138 17.1235 3.57345 16.9983C3.59222 16.9731 3.61138 16.9482 3.63092 16.9235C3.63877 16.9068 3.64662 16.8902 3.65486 16.8732C3.69202 16.8043 3.73627 16.7478 3.78608 16.6876C3.81079 16.6571 3.83454 16.6262 3.85753 16.5946C3.86902 16.5793 3.88032 16.5639 3.89182 16.548C3.90714 16.5269 3.90714 16.5269 3.92266 16.5054C3.95656 16.4745 3.95656 16.4745 4.00848 16.4698Z" fill="#DE1C20"/>
<path d="M3.43937 10.7872C3.35432 10.8856 3.25011 10.9303 3.13288 10.9859C2.94956 11.0761 2.80206 11.1735 2.65398 11.311C2.62257 11.3372 2.59096 11.3632 2.55936 11.3894C2.49403 11.4465 2.44136 11.5067 2.39098 11.5767C2.36665 11.6104 2.36665 11.6104 2.32604 11.6571C2.25018 11.7559 2.20708 11.8569 2.18371 11.978C2.17777 12.0083 2.17088 12.0384 2.16302 12.0683C2.13582 12.1768 2.12567 12.2732 2.17509 12.3774C2.21053 12.4142 2.24807 12.4406 2.29003 12.4709C2.29003 12.4894 2.29003 12.508 2.29003 12.527C2.1908 12.5014 2.13563 12.4391 2.07931 12.3587C2.0205 12.2395 2.02031 12.1115 2.05709 11.9853C2.13755 11.7877 2.24271 11.5857 2.40496 11.442C2.41454 11.4261 2.42392 11.4104 2.43369 11.3941C2.46415 11.3456 2.49882 11.3155 2.54422 11.2807C2.581 11.2521 2.61548 11.2214 2.65034 11.1905C2.71739 11.1331 2.78731 11.0847 2.86221 11.0377C2.90722 11.0098 2.90722 11.0098 2.96277 10.966C3.03154 10.9178 3.10606 10.8824 3.18192 10.8469C3.19418 10.8409 3.20644 10.8351 3.21889 10.8289C3.2957 10.7941 3.35508 10.7807 3.43937 10.7872Z" fill="#DE1D21"/>
<path d="M11.5805 6.5966C11.5868 6.5966 11.5931 6.5966 11.5997 6.5966C11.5924 6.7053 11.5592 6.77059 11.4895 6.85272C11.4801 6.86394 11.4709 6.87517 11.4614 6.88658C11.3154 7.05832 11.1461 7.21303 10.9484 7.32621C10.9334 7.33557 10.9185 7.34492 10.9032 7.35446C10.5909 7.53818 10.2118 7.58064 9.85649 7.51329C9.67623 7.44969 9.55881 7.35241 9.45039 7.20031C9.42606 7.13259 9.43104 7.06524 9.43276 6.99415C9.43276 6.97937 9.43295 6.9644 9.43315 6.94925C9.43372 6.91277 9.4343 6.87629 9.43506 6.83981C9.45403 6.83363 9.47299 6.82746 9.49253 6.8211C9.51168 6.87704 9.51398 6.92362 9.51532 6.98199C9.51705 7.14363 9.51705 7.14363 9.59348 7.2815C9.84921 7.48205 10.1572 7.46129 10.4695 7.43846C10.5861 7.41826 10.6892 7.37785 10.7951 7.32621C10.8083 7.31967 10.8217 7.31331 10.8353 7.30657C10.8616 7.29385 10.8876 7.28094 10.9137 7.26803C10.9447 7.25307 10.9765 7.23978 11.0081 7.22688C11.07 7.19133 11.1028 7.15335 11.1472 7.09947C11.1794 7.06299 11.2133 7.034 11.2512 7.0035C11.387 6.89051 11.4995 6.75151 11.5805 6.5966Z" fill="#DE1B1F"/>
<path d="M14.3736 11.9225C14.4112 11.9227 14.4485 11.9229 14.4861 11.9231C14.5221 11.9233 14.5583 11.9237 14.5943 11.9238C14.6106 11.924 14.627 11.9242 14.6439 11.9244C14.9136 11.9285 14.9136 11.9285 14.9519 11.9657C14.9968 11.9732 15.042 11.9798 15.0872 11.9858C15.1119 11.9889 15.1366 11.9923 15.1621 11.9957C15.1908 11.9994 15.1908 11.9994 15.2201 12.0032C15.2391 12.0496 15.2391 12.0496 15.2584 12.0967C15.1444 12.1038 15.0581 12.0795 14.9519 12.0406C14.8924 12.0213 14.8525 12.02 14.7901 12.0206C14.7581 12.0209 14.7581 12.0209 14.7253 12.0211C14.6906 12.0217 14.6906 12.0217 14.6554 12.0222C14.6316 12.0224 14.6077 12.0228 14.5832 12.0232C14.5328 12.0239 14.4824 12.0247 14.432 12.0254C14.3805 12.0262 14.329 12.0269 14.2775 12.0273C14.2031 12.028 14.1286 12.0292 14.0543 12.0305C14.02 12.0307 14.02 12.0307 13.9849 12.0309C13.8591 12.0335 13.7641 12.0462 13.6493 12.0967C13.5162 12.1352 13.3852 12.1603 13.2471 12.1715C13.2471 12.153 13.2471 12.1345 13.2471 12.1154C13.2614 12.1105 13.2756 12.1055 13.2904 12.1004C13.3093 12.0937 13.3281 12.0872 13.3476 12.0804C13.3662 12.0739 13.385 12.0673 13.4041 12.0606C13.4557 12.0426 13.4557 12.0426 13.4944 12.0219C13.7547 11.9001 14.0928 11.9182 14.3736 11.9225Z" fill="#DE1A1E"/>
<path d="M3.57341 14.8655C3.62762 14.867 3.66018 14.8758 3.69983 14.9127C3.81956 15.0491 3.8504 15.1533 3.83756 15.334C3.81879 15.4677 3.77416 15.5716 3.7075 15.6887C3.69543 15.7139 3.68355 15.7394 3.67148 15.7646C3.62532 15.8546 3.5621 15.9295 3.49678 16.0067C3.48127 16.0252 3.46556 16.0436 3.44966 16.0627C3.41671 16.1016 3.38357 16.1403 3.35024 16.1788C3.32419 16.2093 3.29814 16.2398 3.27285 16.2707C3.21481 16.3405 3.15313 16.3921 3.07804 16.4443C3.03226 16.478 2.99069 16.5148 2.94855 16.5528C2.88495 16.6087 2.82729 16.6447 2.74971 16.6802C2.70086 16.713 2.65297 16.7466 2.60528 16.7809C2.55815 16.8112 2.51639 16.8325 2.46237 16.8486C2.44341 16.8424 2.42445 16.8362 2.40491 16.8299C2.50796 16.741 2.50796 16.741 2.56601 16.7186C2.6206 16.6971 2.66064 16.6701 2.70776 16.6357C2.72596 16.6226 2.74415 16.6093 2.76293 16.5957C2.77289 16.5884 2.78304 16.5811 2.79319 16.5734C2.82978 16.5466 2.86656 16.5204 2.90353 16.4941C2.93054 16.4746 2.95736 16.4553 2.98437 16.4359C2.99701 16.4269 3.00965 16.4177 3.02268 16.4086C3.1516 16.315 3.25868 16.211 3.35312 16.0838C3.40292 16.0174 3.4533 15.9528 3.50751 15.8898C3.68968 15.6565 3.78508 15.4064 3.74581 15.1087C3.71631 15.0449 3.69447 15.0199 3.63815 14.9767C3.59045 14.9387 3.57973 14.9237 3.57341 14.8655Z" fill="#DE1B1F"/>
<path d="M2.69228 13.0321C2.65397 13.0883 2.65397 13.0883 2.61509 13.0987C2.59938 13.1006 2.58386 13.1027 2.56777 13.1047C2.45705 13.1236 2.3697 13.1653 2.27201 13.2181C2.25611 13.2263 2.24002 13.2346 2.22354 13.2432C2.15324 13.2802 2.09712 13.3133 2.04099 13.3689C2.02394 13.3769 2.00708 13.3852 1.98946 13.3934C1.71956 13.5277 1.50884 13.7696 1.32993 14.0016C1.31805 14.0151 1.30618 14.0285 1.29392 14.0424C1.28127 14.0424 1.26863 14.0424 1.25561 14.0424C1.24124 14.0003 1.24124 14.0003 1.23645 13.9488C1.26518 13.915 1.26518 13.915 1.31307 13.874C1.37667 13.807 1.43644 13.7408 1.48662 13.6635C1.53049 13.6029 1.57531 13.5782 1.63872 13.5373C1.66784 13.5092 1.69657 13.4808 1.72492 13.452C1.78852 13.3883 1.84158 13.3479 1.92606 13.3128C1.94943 13.2991 1.97241 13.2851 1.99521 13.2707C2.08007 13.2183 2.16665 13.1691 2.254 13.121C2.26894 13.1126 2.28369 13.1044 2.29883 13.0958C2.43713 13.0198 2.53712 13.0086 2.69228 13.0321Z" fill="#DE1A1F"/>
<path d="M8.1899 6.85851C8.17438 6.89462 8.17438 6.89462 8.15159 6.93335C8.09144 6.95542 8.03531 6.96796 7.9721 6.97806C7.86578 6.99564 7.78686 7.02445 7.69453 7.07908C7.65584 7.10041 7.62059 7.1135 7.57807 7.12623C7.4095 7.18516 7.16028 7.39169 7.07887 7.55071C7.06622 7.55071 7.05358 7.55071 7.04056 7.55071C7.03289 7.57092 7.03289 7.57092 7.02504 7.59168C6.99343 7.66464 6.95148 7.72806 6.90647 7.79391C6.89382 7.79391 6.88118 7.79391 6.86815 7.79391C6.85379 7.74359 6.85379 7.74359 6.849 7.68167C6.88195 7.63714 6.88195 7.63714 6.92562 7.58813C6.93884 7.57204 6.95187 7.55595 6.96547 7.5393C7.15128 7.31368 7.33939 7.15129 7.60258 7.01585C7.65028 6.99115 7.69664 6.96478 7.74338 6.93802C7.8905 6.85889 8.02382 6.85309 8.1899 6.85851Z" fill="#DE1D22"/>
<path d="M5.27822 15.7448C5.2719 15.7633 5.26557 15.7819 5.25906 15.8009C5.22343 15.8105 5.18761 15.8196 5.1516 15.8273C4.91388 15.8849 4.67941 16.003 4.49283 16.1564C4.45893 16.1829 4.42502 16.2095 4.39112 16.2359C4.3756 16.2482 4.35989 16.2606 4.34399 16.2733C4.30856 16.3004 4.27312 16.3255 4.23538 16.3493C4.18672 16.3784 4.18672 16.3784 4.15282 16.4136C4.14497 16.4213 4.13711 16.4291 4.12887 16.437C4.11623 16.437 4.10359 16.437 4.09056 16.437C4.08635 16.3936 4.08635 16.3936 4.09056 16.3435C4.11872 16.3145 4.11872 16.3145 4.15761 16.2896C4.21508 16.2512 4.26775 16.2118 4.31928 16.1657C4.44877 16.0542 4.59436 15.9725 4.74416 15.8898C4.75891 15.8816 4.77346 15.8735 4.7886 15.8651C4.87441 15.8183 4.95314 15.7865 5.04835 15.7635C5.0677 15.7562 5.08704 15.7489 5.10697 15.7413C5.17152 15.7239 5.21366 15.7298 5.27822 15.7448Z" fill="#DE1A1E"/>
<path d="M16.7525 10.7124C16.823 10.775 16.8456 10.8016 16.8568 10.8948C16.8483 10.9556 16.8483 10.9556 16.81 10.993C16.801 11.0145 16.7918 11.0362 16.7824 11.0585C16.7525 11.1239 16.7525 11.1239 16.6951 11.1614C16.7047 11.0916 16.7117 11.0527 16.7525 10.993C16.7571 10.9544 16.7571 10.9544 16.7548 10.9146C16.7541 10.891 16.7533 10.8676 16.7525 10.8433C16.6679 10.8158 16.6208 10.8007 16.5334 10.8224C16.3913 10.8942 16.2551 11.0244 16.1779 11.1614C16.1618 11.2207 16.1618 11.2207 16.1779 11.2736C16.2147 11.3157 16.2147 11.3157 16.2545 11.3484C16.2545 11.3608 16.2545 11.3731 16.2545 11.3859C16.1984 11.3799 16.1666 11.3741 16.124 11.3368C16.0907 11.2717 16.0917 11.2338 16.1013 11.1614C16.1534 11.0108 16.2443 10.9217 16.3694 10.8246C16.3848 10.81 16.4003 10.7952 16.4162 10.7801C16.5118 10.721 16.6401 10.7028 16.7525 10.7124Z" fill="#DE1D21"/>
<path d="M14.8562 15.5577C14.9127 15.5673 14.9591 15.5875 15.0094 15.6138C14.9905 15.62 14.9715 15.6262 14.952 15.6326C14.9522 15.6436 14.9522 15.6546 14.9523 15.6659C14.9537 15.7805 14.9545 15.8954 14.955 16.0101C14.9554 16.0529 14.9558 16.0956 14.9564 16.1384C14.9569 16.2 14.9573 16.2615 14.9575 16.3231C14.9579 16.3421 14.9581 16.3612 14.9585 16.3809C14.9585 16.4828 14.9527 16.5543 14.8945 16.6428C14.8819 16.6428 14.8692 16.6428 14.8562 16.6428C14.8409 16.5773 14.8345 16.5167 14.8345 16.4495C14.8345 16.4303 14.8344 16.4108 14.8344 16.3908C14.8344 16.37 14.8345 16.3493 14.8345 16.3279C14.8345 16.3066 14.8345 16.2851 14.8344 16.263C14.8344 16.2179 14.8345 16.1727 14.8345 16.1276C14.8347 16.0582 14.8345 15.9888 14.8344 15.9193C14.8344 15.8754 14.8345 15.8316 14.8345 15.7878C14.8345 15.7669 14.8344 15.7459 14.8344 15.7244C14.8344 15.7053 14.8345 15.6861 14.8345 15.6664C14.8345 15.6494 14.8345 15.6324 14.8345 15.615C14.837 15.5764 14.837 15.5764 14.8562 15.5577Z" fill="#DE1C21"/>
<path d="M3.22856 14.9029C3.19197 14.9521 3.16841 14.9596 3.10654 14.9735C2.99332 14.9995 2.89065 15.0492 2.78568 15.0971C2.76537 15.1061 2.74507 15.1151 2.72419 15.1244C2.5901 15.1849 2.47593 15.25 2.36061 15.3403C2.27633 15.4051 2.18859 15.4634 2.09837 15.5203C2.08573 15.5141 2.07308 15.508 2.06006 15.5016C2.06178 15.4698 2.06178 15.4698 2.07921 15.4268C2.12059 15.3935 2.16063 15.3645 2.20488 15.3355C2.22978 15.319 2.25449 15.3022 2.27939 15.2855C2.29127 15.2777 2.30314 15.2696 2.3154 15.2616C2.35237 15.2363 2.38686 15.209 2.42172 15.1813C2.59469 15.0532 2.81288 14.9677 3.01784 14.9029C3.09542 14.8777 3.14791 14.8913 3.22856 14.9029Z" fill="#DE1A1E"/>
<path d="M3.32436 13.5186C3.35329 13.6048 3.31938 13.6632 3.28241 13.7419C3.27667 13.755 3.27073 13.7681 3.26479 13.7818C3.22935 13.8592 3.19008 13.9217 3.13281 13.9863C3.12323 13.9988 3.11365 14.0115 3.10388 14.0244C3.01423 14.1408 2.91213 14.2433 2.80716 14.3464C2.7926 14.3608 2.77804 14.3752 2.7631 14.39C2.68418 14.4665 2.6043 14.5363 2.51389 14.5995C2.48534 14.6195 2.45814 14.6412 2.43132 14.6633C2.38037 14.7011 2.32827 14.7258 2.2708 14.7533C2.23996 14.7735 2.23996 14.7735 2.20854 14.7943C2.15587 14.8281 2.15587 14.8281 2.11755 14.8281C2.17483 14.7031 2.2662 14.6695 2.38937 14.613C2.43726 14.5879 2.46466 14.5673 2.50067 14.5288C2.51772 14.5183 2.53457 14.508 2.5522 14.4972C2.67422 14.4197 2.77096 14.3054 2.86482 14.198C2.89451 14.1644 2.92439 14.1309 2.95485 14.0978C3.06116 13.9797 3.14487 13.8695 3.20943 13.7243C3.22686 13.6895 3.24429 13.6549 3.26211 13.6203C3.26996 13.6048 3.27762 13.5893 3.28567 13.5734C3.30521 13.5373 3.30521 13.5373 3.32436 13.5186Z" fill="#DE1A1E"/>
<path d="M12.3276 16.306C12.382 16.3326 12.4167 16.3496 12.4454 16.4031C12.4646 16.4653 12.4649 16.5184 12.4653 16.5831C12.4743 16.8239 12.6088 17.0401 12.7343 17.2418C12.7529 17.2723 12.7703 17.3036 12.7873 17.335C12.781 17.3473 12.7747 17.3597 12.7682 17.3724C12.6918 17.3475 12.669 17.3006 12.6282 17.2368C12.6205 17.225 12.613 17.2132 12.6052 17.2012C12.4655 16.9807 12.3688 16.7532 12.3508 16.4931C12.3489 16.4544 12.3489 16.4544 12.3276 16.4183C12.3268 16.3809 12.3268 16.3435 12.3276 16.306Z" fill="#DE1A1E"/>
<path d="M15.7756 12.3025C15.981 12.3863 16.113 12.6088 16.2162 12.7889C16.225 12.8032 16.2336 12.8174 16.2427 12.8322C16.2928 12.9143 16.2928 12.9143 16.2928 12.9573C16.3055 12.9573 16.3181 12.9573 16.3312 12.9573C16.3333 12.9676 16.3354 12.9777 16.3375 12.9882C16.3538 13.0636 16.3721 13.1352 16.3993 13.2076C16.4438 13.3322 16.4472 13.4624 16.4461 13.5934C16.4013 13.5612 16.3735 13.5339 16.3593 13.4806C16.3524 13.4336 16.3469 13.3869 16.3419 13.3397C16.3252 13.2106 16.3041 13.1016 16.2411 12.9854C16.2133 12.9334 16.1946 12.8804 16.1743 12.8252C16.1208 12.6975 16.0323 12.6181 15.9289 12.527C15.8664 12.4679 15.8155 12.4159 15.7756 12.34C15.7756 12.3276 15.7756 12.3153 15.7756 12.3025Z" fill="#DE1C20"/>
<path d="M10.4119 5.84828C10.4119 5.8668 10.4119 5.88532 10.4119 5.90441C10.3863 5.91769 10.3863 5.91769 10.36 5.93116C10.2238 6.00337 10.1064 6.07783 9.99396 6.18353C9.9522 6.22244 9.9522 6.22244 9.90431 6.25799C9.84971 6.3027 9.8137 6.3504 9.77252 6.40728C9.70547 6.49707 9.64015 6.56648 9.54993 6.63402C9.56161 6.57864 9.57387 6.55208 9.60739 6.50306C9.61678 6.48473 9.61678 6.48473 9.62617 6.46602C9.73976 6.24527 9.97212 6.02713 10.1991 5.92349C10.2424 5.90572 10.2424 5.90572 10.2778 5.86699C10.3223 5.85951 10.3671 5.85315 10.4119 5.84828Z" fill="#DE191D"/>
<path d="M16.1765 5.17845C16.2278 5.19791 16.2454 5.22242 16.2772 5.26601C16.287 5.2791 16.2968 5.2922 16.3067 5.30567C16.3596 5.38705 16.3538 5.4688 16.3538 5.56178C16.354 5.57637 16.3544 5.59096 16.3546 5.60593C16.3548 5.70527 16.3425 5.79058 16.3119 5.88562C16.2992 5.89796 16.2866 5.91031 16.2736 5.92303C16.269 5.93893 16.2642 5.95484 16.2592 5.97111C16.2268 6.05829 16.1749 6.12826 16.1203 6.20365C16.1014 6.1913 16.0824 6.17896 16.0629 6.16624C16.0845 6.13312 16.106 6.10001 16.1276 6.0669C16.1397 6.04856 16.1516 6.03004 16.164 6.01096C16.1874 5.97523 16.2113 5.93968 16.2353 5.90432C16.2544 5.79451 16.2586 5.686 16.2592 5.57469C16.2596 5.55935 16.2602 5.54401 16.2606 5.52829C16.2613 5.40332 16.2349 5.32662 16.1456 5.23327C16.1309 5.22017 16.1163 5.20708 16.1012 5.19342C16.1395 5.17471 16.1395 5.17471 16.1765 5.17845Z" fill="#DE1B1F"/>
<path d="M18.0551 7.81262C18.0677 7.81262 18.0804 7.81262 18.0934 7.81262C18.0779 7.92412 18.0174 7.97688 17.9402 8.05583C17.9279 8.06873 17.9158 8.08146 17.9032 8.09474C17.7904 8.21035 17.6714 8.29678 17.5187 8.35515C17.5124 8.36133 17.5061 8.3675 17.4996 8.37386C17.4448 8.37517 17.3904 8.37555 17.3356 8.37498C17.3201 8.37498 17.3046 8.3748 17.2887 8.3748C17.2506 8.37461 17.2123 8.37424 17.1739 8.37386C17.1676 8.34917 17.1613 8.32447 17.1548 8.29903C17.2191 8.28668 17.2812 8.2792 17.3467 8.27826C17.5446 8.27995 17.5446 8.27995 17.7111 8.18809C17.7233 8.17537 17.7358 8.16265 17.7486 8.14937C17.7678 8.13141 17.7867 8.11363 17.8061 8.09586C17.9235 7.98717 17.9235 7.98717 18.0212 7.86164C18.0325 7.84555 18.0436 7.82927 18.0551 7.81262Z" fill="#DE1D22"/>
<path d="M14.1665 5.77345C14.1729 5.77345 14.1792 5.77345 14.1857 5.77345C14.2127 5.97569 14.0348 6.14537 13.9175 6.29728C13.903 6.31692 13.8882 6.33656 13.8733 6.35695C13.7951 6.43665 13.7034 6.49614 13.611 6.55919C13.5986 6.56873 13.5863 6.57808 13.5735 6.588C13.5241 6.62261 13.4725 6.64917 13.4183 6.67611C13.3982 6.68622 13.3783 6.69632 13.3578 6.70679C13.3045 6.72756 13.3045 6.72756 13.2471 6.70885C13.2913 6.65853 13.3331 6.62766 13.394 6.59997C13.4902 6.55432 13.5754 6.49614 13.6629 6.43665C13.6748 6.42861 13.6869 6.42056 13.6993 6.41214C13.7101 6.40503 13.7206 6.39774 13.7317 6.39026C13.7643 6.37211 13.7643 6.37211 13.8053 6.36294C13.8171 6.35976 13.8288 6.35658 13.8409 6.3534C13.8629 6.31037 13.8629 6.31037 13.8792 6.25986C13.8964 6.22955 13.9145 6.19943 13.933 6.16988C13.9432 6.1536 13.9533 6.13732 13.9637 6.12049C13.9907 6.07821 14.0181 6.0363 14.0457 5.99439C14.0876 5.92948 14.1177 5.86325 14.1474 5.79216C14.1537 5.78599 14.16 5.77981 14.1665 5.77345Z" fill="#DE1B1F"/>
<path d="M2.27082 11.6665C2.27715 11.6788 2.28347 11.6912 2.28998 11.7039C2.2714 11.7396 2.25263 11.7755 2.23347 11.8111C2.20761 11.8657 2.19497 11.9188 2.18367 11.9779C2.17773 12.0083 2.17083 12.0384 2.16298 12.0683C2.13578 12.1768 2.12562 12.2732 2.17505 12.3774C2.21048 12.4142 2.24803 12.4406 2.28998 12.4709C2.28998 12.4894 2.28998 12.5079 2.28998 12.527C2.19075 12.5014 2.13558 12.4391 2.07927 12.3587C2.01969 12.2378 2.01988 12.108 2.05973 11.9808C2.08329 11.9244 2.10877 11.8704 2.13673 11.8161C2.14382 11.8021 2.15091 11.7881 2.15819 11.7737C2.20416 11.6882 2.20416 11.6882 2.27082 11.6665Z" fill="#DE1B1F"/>
<path d="M12.1935 5.92311C12.2124 5.92311 12.2314 5.92311 12.251 5.92311C12.2479 5.94444 12.245 5.96558 12.2419 5.98765C12.1872 6.3055 12.1872 6.3055 12.2797 6.59884C12.2956 6.61662 12.3113 6.63439 12.3276 6.65272C12.3402 6.69351 12.3402 6.69351 12.3467 6.72755C12.287 6.70211 12.2515 6.67499 12.2103 6.62578C12.2008 6.61475 12.1912 6.60352 12.1814 6.59192C12.0703 6.45273 12.0872 6.28268 12.1075 6.11431C12.1234 6.0434 12.1571 5.98597 12.1935 5.92311Z" fill="#DE1B1F"/>
<path d="M8.93699 7.47589C8.94331 7.47589 8.94963 7.47589 8.95614 7.47589C8.96285 7.57448 8.94024 7.64744 8.90461 7.7378C8.90002 7.75071 8.89523 7.76343 8.89044 7.77672C8.85557 7.86708 8.81209 7.92825 8.74543 7.99971C8.73413 8.01262 8.72302 8.02553 8.71152 8.03881C8.60425 8.15967 8.50139 8.2693 8.36231 8.35517C8.32324 8.38491 8.28454 8.41503 8.24604 8.44553C8.20907 8.46741 8.20907 8.46741 8.13245 8.46741C8.16099 8.38996 8.20543 8.36901 8.27841 8.33178C8.37687 8.27846 8.44966 8.22159 8.52476 8.14002C8.55387 8.11196 8.55387 8.11196 8.59218 8.11196C8.60004 8.09569 8.60004 8.09569 8.60789 8.07885C8.6303 8.03732 8.65559 8.00364 8.68566 7.96698C8.76822 7.86071 8.81956 7.74865 8.86554 7.62368C8.88565 7.57242 8.91093 7.52434 8.93699 7.47589Z" fill="#DE1D22"/>
<path d="M16.0438 5.13739C16.0438 5.14973 16.0438 5.16208 16.0438 5.1748C15.9833 5.20436 15.9176 5.19893 15.8511 5.20174C15.6729 5.21091 15.5396 5.22363 15.3898 5.32372C15.3391 5.3514 15.2962 5.3501 15.2393 5.34317C15.2393 5.32465 15.2393 5.30613 15.2393 5.28705C15.2563 5.279 15.2732 5.27077 15.2908 5.26254C15.3519 5.23336 15.3519 5.23336 15.3977 5.20342C15.5615 5.11381 15.8777 5.02925 16.0438 5.13739Z" fill="#DE1A1F"/>
<path d="M11.3314 5.73604C11.4255 5.74446 11.4954 5.7843 11.5613 5.84829C11.6779 6.00768 11.7335 6.19476 11.7145 6.39082C11.6912 6.47613 11.6768 6.52776 11.5996 6.5779C11.5981 6.48698 11.6002 6.40036 11.6115 6.31019C11.6237 6.19588 11.6046 6.09093 11.5804 5.97924C11.5615 5.97307 11.5425 5.96689 11.523 5.96053C11.5167 5.92967 11.5103 5.8988 11.5038 5.86699C11.4766 5.86419 11.4766 5.86419 11.4487 5.86119C11.3889 5.84829 11.3889 5.84829 11.3506 5.79216C11.3569 5.77981 11.3632 5.76747 11.3697 5.75475C11.3571 5.74857 11.3444 5.7424 11.3314 5.73604Z" fill="#DE1D21"/>
<path d="M4.33956 11.2549C4.35221 11.2611 4.36485 11.2672 4.37788 11.2736C4.3568 11.3561 4.33535 11.4128 4.2821 11.4794C4.27367 11.4994 4.26543 11.5194 4.25681 11.54C4.13977 11.812 3.83309 12.0992 3.57334 12.2464C3.55437 12.2402 3.53541 12.2341 3.51587 12.2277C3.53828 12.2086 3.5605 12.1895 3.58291 12.1705C3.60418 12.1521 3.60418 12.1521 3.62582 12.1336C3.65187 12.1113 3.67812 12.0893 3.70474 12.0674C3.95243 11.8616 4.13805 11.6608 4.26601 11.3643C4.28516 11.3232 4.3093 11.2889 4.33956 11.2549Z" fill="#DE1A1E"/>
<path d="M22.5568 12.4522C22.5947 12.4615 22.5947 12.4615 22.6334 12.4709C22.6468 12.5137 22.6598 12.5566 22.6729 12.5996C22.6767 12.6118 22.6805 12.6239 22.6846 12.6365C22.7121 12.7285 22.7121 12.7285 22.6909 12.7702C22.7095 12.7749 22.728 12.7796 22.7472 12.7843C22.8058 12.8076 22.8058 12.8076 22.825 12.8393C22.825 12.9014 22.8064 12.9547 22.7867 13.0134C22.7142 12.9663 22.7154 12.9444 22.6909 12.8638C22.6775 12.8271 22.6639 12.7904 22.6503 12.7538C22.6434 12.7358 22.6367 12.7177 22.6296 12.6991C22.6246 12.6855 22.6194 12.672 22.6143 12.658C22.5779 12.7291 22.6052 12.8187 22.6131 12.8958C22.6143 12.9573 22.6143 12.9573 22.5759 13.0134C22.5279 12.9431 22.5326 12.8879 22.534 12.8065C22.5342 12.7923 22.5344 12.7781 22.5344 12.7635C22.5359 12.6587 22.5432 12.556 22.5568 12.4522Z" fill="#4B4545"/>
<path d="M17.0399 9.81438C17.0968 9.82373 17.0968 9.82373 17.1548 9.83308C17.1246 9.87836 17.1018 9.90548 17.0531 9.93242C16.9397 10.002 16.8713 10.1027 16.8292 10.226C16.82 10.2761 16.8146 10.3247 16.81 10.3756C16.829 10.3878 16.829 10.3878 16.8484 10.4001C16.8673 10.4158 16.8673 10.4158 16.8867 10.4317C16.8867 10.4503 16.8867 10.4688 16.8867 10.4879C16.7957 10.4714 16.7957 10.4714 16.7526 10.4504C16.7099 10.3857 16.7139 10.3373 16.7275 10.2645C16.7604 10.1275 16.8273 10.0116 16.925 9.90792C16.9505 9.89538 16.9759 9.88285 17.0016 9.8705C17.0142 9.85198 17.0269 9.83346 17.0399 9.81438Z" fill="#DE1B1F"/>
<path d="M8.18991 6.85852C8.17439 6.89462 8.17439 6.89462 8.1516 6.93335C8.09145 6.95542 8.03532 6.96796 7.97211 6.97806C7.86598 6.99565 7.78725 7.02427 7.69492 7.07871C7.6545 7.10116 7.616 7.11631 7.57213 7.1309C7.50528 7.15373 7.45739 7.18591 7.40452 7.23268C7.39188 7.2265 7.37924 7.22033 7.36621 7.21397C7.37598 7.2063 7.38556 7.19863 7.39552 7.19077C7.40797 7.18067 7.42042 7.17056 7.43326 7.16009C7.44571 7.15017 7.45816 7.14026 7.47099 7.12997C7.48555 7.11594 7.48555 7.11594 7.5003 7.10172C7.5003 7.08937 7.5003 7.07702 7.5003 7.0643C7.52195 7.05383 7.54378 7.04354 7.5662 7.03269C7.62539 7.00406 7.68266 6.97301 7.73975 6.94046C7.88859 6.85964 8.02134 6.85309 8.18991 6.85852Z" fill="#DE191D"/>
<path d="M16.4652 13.9489C16.4778 13.9489 16.4905 13.9489 16.5035 13.9489C16.5035 14.3069 16.5035 14.665 16.5035 15.0339C16.4845 15.0339 16.4656 15.0339 16.446 15.0339C16.4456 14.8979 16.4453 14.7621 16.4451 14.6261C16.4449 14.5628 16.4449 14.4998 16.4445 14.4368C16.4443 14.3642 16.4443 14.2916 16.4441 14.2192C16.4441 14.1964 16.4439 14.1737 16.4439 14.1502C16.4439 14.1187 16.4439 14.1187 16.4439 14.0867C16.4437 14.0682 16.4437 14.0497 16.4437 14.0306C16.446 13.9863 16.446 13.9863 16.4652 13.9489Z" fill="#DE191D"/>
<path d="M12.5 12.8825C12.519 12.8887 12.5379 12.8948 12.5575 12.9012C12.5454 13.0432 12.5454 13.0432 12.5092 13.0823C12.4577 13.1609 12.4724 13.2576 12.4724 13.3485C12.4699 13.4544 12.4542 13.5111 12.3851 13.5934C12.3353 13.5221 12.3467 13.4549 12.3575 13.3736C12.3592 13.3597 12.3609 13.3459 12.3628 13.3317C12.4146 12.9659 12.4146 12.9659 12.5 12.8825Z" fill="#DE1C21"/>
<path d="M16.3503 6.40952C16.3692 6.40952 16.3882 6.40952 16.4077 6.40952C16.4003 6.48921 16.3671 6.53224 16.3185 6.59472C16.2783 6.65627 16.2568 6.72306 16.2332 6.79209C16.2162 6.8398 16.2162 6.8398 16.1949 6.87684C16.1725 6.9266 16.1756 6.96589 16.1779 7.01977C16.1802 7.0744 16.1802 7.0744 16.1779 7.12042C16.1652 7.13277 16.1526 7.14511 16.1396 7.15783C16.0932 7.08992 16.0955 7.05513 16.0953 6.97431C16.0947 6.94045 16.0947 6.94045 16.0944 6.90603C16.1018 6.834 16.1225 6.79004 16.1587 6.72755C16.167 6.70716 16.1754 6.68658 16.1838 6.66563C16.2223 6.57564 16.2794 6.47873 16.3503 6.40952Z" fill="#DE1E22"/>
<path d="M4.32043 9.49634C4.33308 9.49634 4.34572 9.49634 4.35874 9.49634C4.32273 9.5852 4.32273 9.5852 4.30128 9.62729C4.28825 9.69895 4.28059 9.77116 4.27254 9.84356C4.26967 9.86339 4.2668 9.88322 4.26392 9.9038C4.25205 10.0155 4.25415 10.0802 4.32695 10.1704C4.33901 10.1829 4.35127 10.1956 4.36372 10.2087C4.39648 10.2441 4.41583 10.2761 4.43537 10.3195C4.3302 10.2955 4.2871 10.2546 4.22465 10.1698C4.1532 10.0507 4.15378 9.89725 4.18864 9.76592C4.2237 9.67201 4.27197 9.58427 4.32043 9.49634Z" fill="#DF2126"/>
<path d="M16.3311 16.9047C16.3437 16.9371 16.3437 16.9371 16.3502 16.9795C16.3311 17.0184 16.3311 17.0184 16.3012 17.059C16.2905 17.0738 16.2797 17.0886 16.2688 17.1038C16.2521 17.1256 16.2521 17.1256 16.2353 17.1479C16.2257 17.1608 16.2159 17.1735 16.206 17.1868C16.187 17.2117 16.1681 17.2364 16.1487 17.2611C16.1303 17.2847 16.1127 17.3086 16.0956 17.3329C16.0363 17.4166 15.9669 17.486 15.8905 17.5548C15.8809 17.5634 15.8713 17.572 15.8616 17.5808C15.7983 17.6364 15.7346 17.6865 15.6606 17.7279C15.6417 17.7217 15.6227 17.7155 15.6031 17.7091C15.6131 17.7007 15.6231 17.6925 15.6332 17.6837C15.6918 17.6343 15.7495 17.5849 15.8043 17.5314C15.8581 17.4788 15.9152 17.4308 15.9734 17.3827C16.0073 17.3554 16.0073 17.3554 16.0246 17.3163C16.0372 17.3163 16.0499 17.3163 16.0629 17.3163C16.0681 17.3058 16.0734 17.2953 16.0788 17.2845C16.1495 17.1488 16.2347 17.0241 16.3311 16.9047Z" fill="#DE1A1E"/>
<path d="M13.3812 5.08125C13.3689 5.11624 13.3689 5.11624 13.3429 5.15608C13.2923 5.17779 13.2923 5.17779 13.2316 5.19462C13.1515 5.21726 13.0875 5.24326 13.0172 5.28704C12.991 5.30107 12.9647 5.31473 12.9383 5.32801C12.9255 5.33437 12.9128 5.34092 12.8998 5.34747C12.864 5.36187 12.864 5.36187 12.8065 5.36187C12.8002 5.33718 12.7939 5.31248 12.7874 5.28704C13.2446 5.04084 13.2446 5.04084 13.3812 5.08125Z" fill="#DE1A1E"/>
<path d="M5.7188 16.4557C5.73182 16.4868 5.73182 16.4868 5.73795 16.5305C5.61766 16.8085 5.39028 17.0269 5.16328 17.2227C5.14662 17.2398 5.14662 17.2398 5.12976 17.2572C5.10582 17.2789 5.10582 17.2789 5.0675 17.2789C5.0949 17.2169 5.12861 17.1784 5.17899 17.1322C5.19355 17.1187 5.20811 17.1051 5.22305 17.091C5.23857 17.0766 5.25389 17.0622 5.26979 17.0473C5.43127 16.8935 5.55406 16.7429 5.65367 16.5442C5.68049 16.4931 5.68049 16.4931 5.7188 16.4557Z" fill="#DE1A1F"/>
<path d="M1.04491 14.6598C1.1064 14.6805 1.12134 14.697 1.15506 14.7533C1.179 14.8094 1.179 14.8094 1.179 14.8468C1.30869 14.8814 1.43282 14.8908 1.56652 14.8932C1.60809 14.8947 1.60809 14.8947 1.67705 14.903C1.68969 14.9215 1.70234 14.94 1.71536 14.9591C1.25563 14.9847 1.25563 14.9847 1.11521 14.8641C1.05181 14.793 1.05181 14.793 1.02576 14.7533C1.0317 14.7019 1.0317 14.7019 1.04491 14.6598Z" fill="#DE191E"/>
<path d="M1.52368 16.8673C1.53747 16.8699 1.55107 16.8727 1.56525 16.8755C1.74091 16.9075 1.9135 16.9184 2.09107 16.8942C2.15582 16.886 2.15582 16.886 2.21329 16.9047C2.21329 16.9171 2.21329 16.9294 2.21329 16.9421C2.05276 17.0362 1.79608 17.0158 1.61946 16.9795C1.56199 16.9432 1.56199 16.9432 1.52368 16.9047C1.52368 16.8924 1.52368 16.88 1.52368 16.8673Z" fill="#DE1C20"/>
<path d="M11.0249 5.64249C11.0663 5.64885 11.1073 5.65689 11.1483 5.66587C11.1707 5.67055 11.1933 5.67541 11.2165 5.68028C11.2739 5.69861 11.2739 5.69861 11.3122 5.75473C11.2638 5.80207 11.1306 5.777 11.0655 5.777C11.0335 5.77737 11.0335 5.77737 11.0009 5.77756C10.9805 5.77775 10.96 5.77775 10.9389 5.77775C10.9199 5.77775 10.9011 5.77793 10.8818 5.77793C10.8333 5.77344 10.8333 5.77344 10.7759 5.73603C10.7695 5.72368 10.7632 5.71133 10.7567 5.69861C10.7833 5.69487 10.7833 5.69487 10.8105 5.69113C10.8335 5.68776 10.8563 5.68439 10.8801 5.68103C10.9029 5.67784 10.9259 5.67448 10.9494 5.6713C11.0034 5.66699 11.0034 5.66699 11.0249 5.64249Z" fill="#DE1A1E"/>
<path d="M16.0628 6.20374C16.0755 6.20991 16.0881 6.21608 16.1011 6.22244C16.0126 6.36893 15.886 6.49015 15.7372 6.5779C15.7232 6.58762 15.709 6.59716 15.6945 6.60727C15.6793 6.61756 15.6642 6.62803 15.6487 6.6387C15.6345 6.64842 15.6205 6.65815 15.606 6.66825C15.5648 6.69014 15.5648 6.69014 15.4882 6.69014C15.4937 6.65478 15.4937 6.65478 15.5073 6.61531C15.5426 6.59754 15.5778 6.57995 15.6138 6.56368C15.7897 6.47612 15.9287 6.34236 16.0628 6.20374Z" fill="#DE1C20"/>
<path d="M5.29739 10.3008C5.27824 10.3382 5.27824 10.3382 5.24108 10.3528C5.04109 10.4063 4.80816 10.4677 4.60779 10.3943C4.61411 10.3758 4.62043 10.3573 4.62694 10.3382C4.64687 10.3376 4.64687 10.3376 4.66736 10.3371C4.72809 10.3352 4.78881 10.3331 4.84953 10.3311C4.88114 10.3303 4.88114 10.3303 4.91313 10.3294C5.0409 10.3249 5.17748 10.2664 5.29739 10.3008Z" fill="#DE1B1F"/>
<path d="M14.6646 12.9012C14.7209 12.9074 14.7525 12.913 14.7948 12.9508C14.9009 13.1075 14.8862 13.2632 14.8753 13.4437C14.8563 13.4437 14.8373 13.4437 14.8178 13.4437C14.7613 13.3885 14.7739 13.3283 14.7722 13.2544C14.7676 13.1306 14.7544 13.0443 14.6837 12.9386C14.6774 12.9263 14.6711 12.9139 14.6646 12.9012Z" fill="#DE191D"/>
<path d="M14.109 17.9149C14.2088 17.9146 14.3088 17.9142 14.4086 17.914C14.4427 17.9138 14.4766 17.9136 14.5107 17.9134C14.5594 17.9133 14.6082 17.9133 14.6571 17.9131C14.6798 17.9129 14.6798 17.9129 14.7032 17.9129C14.7657 17.9129 14.8157 17.9142 14.8752 17.9336C14.8752 17.946 14.8752 17.9583 14.8752 17.9711C14.6208 17.9931 14.3626 18.0072 14.109 17.9711C14.109 17.9525 14.109 17.934 14.109 17.9149Z" fill="#DE2125"/>
<path d="M3.43931 10.7872C3.35484 10.8832 3.25312 10.9335 3.13876 10.9907C3.12037 11.0003 3.10198 11.0098 3.08302 11.0196C2.9813 11.0712 2.9813 11.0712 2.94127 11.0865C2.92862 11.0804 2.91598 11.0742 2.90295 11.0678C2.90295 11.0493 2.90295 11.0308 2.90295 11.0117C2.98666 10.9399 3.08206 10.8938 3.18186 10.8469C3.20025 10.8381 3.20025 10.8381 3.21883 10.8291C3.29565 10.7941 3.35484 10.7807 3.43931 10.7872Z" fill="#DE1A1E"/>
<path d="M17.1165 5.94182C17.0973 5.99794 17.0973 5.99794 17.0569 6.01777C17.0402 6.02357 17.0236 6.02937 17.0063 6.03536C16.9354 6.06117 16.8738 6.08905 16.81 6.1289C16.7502 6.16163 16.7502 6.16163 16.695 6.18502C16.6761 6.17885 16.6571 6.17267 16.6376 6.16631C16.6786 6.05444 16.7939 6.01328 16.8962 5.96408C16.9768 5.92872 17.0297 5.91207 17.1165 5.94182Z" fill="#DE1A1E"/>
<path d="M13.113 12.209C13.1319 12.2152 13.1509 12.2213 13.1704 12.2277C12.8992 12.5007 12.8992 12.5007 12.7873 12.5645C12.7747 12.5645 12.762 12.5645 12.749 12.5645C12.7427 12.5398 12.7364 12.5151 12.7299 12.4896C12.7661 12.4559 12.8023 12.4225 12.8389 12.389C12.854 12.3748 12.854 12.3748 12.8695 12.3603C12.9289 12.3063 12.9775 12.272 13.0555 12.2464C13.0745 12.2341 13.0934 12.2217 13.113 12.209Z" fill="#DE1A1E"/>
<path d="M2.04095 15.539C2.02237 15.6138 1.98732 15.6483 1.92832 15.6958C1.85361 15.7562 1.81779 15.8112 1.77277 15.8945C1.72967 15.9401 1.72967 15.9401 1.69615 15.9693C1.68351 15.9508 1.67086 15.9323 1.65784 15.9132C1.72048 15.7775 1.88043 15.539 2.04095 15.539Z" fill="#DE1B1F"/>
<path d="M8.51562 6.82109C8.71006 6.86973 8.83227 6.94793 8.93705 7.12042C8.93073 7.13894 8.92441 7.15746 8.9179 7.17654C8.89702 7.15952 8.87633 7.14231 8.85564 7.1251C8.84319 7.11481 8.83093 7.10452 8.81809 7.09404C8.78381 7.06429 8.78381 7.06429 8.74664 7.02332C8.70584 6.98834 8.67883 6.97805 8.62826 6.9614C8.55738 6.93783 8.55738 6.93783 8.5252 6.8948C8.51562 6.85851 8.51562 6.85851 8.51562 6.82109Z" fill="#DE1A1E"/>
<path d="M17.4614 7.2888C17.4677 7.30115 17.474 7.3135 17.4805 7.32622C17.4995 7.32005 17.5185 7.31387 17.538 7.30751C17.5116 7.36869 17.4853 7.39712 17.429 7.43379C17.3555 7.48505 17.2995 7.5423 17.2419 7.61002C17.2143 7.64201 17.1855 7.67138 17.1549 7.70038C17.1365 7.65342 17.1365 7.65342 17.1357 7.58813C17.175 7.53201 17.2248 7.48804 17.2758 7.44202C17.2894 7.4293 17.3028 7.41658 17.3166 7.40348C17.4148 7.31144 17.4148 7.31144 17.4614 7.2888Z" fill="#DE1A1E"/>
<path d="M13.4003 17.7653C13.4282 17.7679 13.4562 17.7707 13.4842 17.7735C13.5073 17.7758 13.5073 17.7758 13.5313 17.778C13.5727 17.784 13.5727 17.784 13.611 17.8027C13.6468 17.8087 13.6828 17.8139 13.7186 17.8192C13.8177 17.8347 13.9029 17.8558 13.9941 17.8962C14.0004 17.9086 14.0067 17.9209 14.0133 17.9336C13.6671 17.9076 13.6671 17.9076 13.5152 17.8401C13.4771 17.8272 13.4388 17.8147 13.4003 17.8027C13.4003 17.7903 13.4003 17.778 13.4003 17.7653Z" fill="#DE1B1F"/>
<path d="M22.9206 12.4335C22.9781 12.4522 22.9781 12.4522 22.9972 12.4896C22.9992 12.5166 22.9997 12.5435 22.9997 12.5704C22.9997 12.5867 22.9999 12.6028 22.9999 12.6195C22.9997 12.6365 22.9997 12.6533 22.9995 12.6709C22.9997 12.6874 22.9997 12.704 22.9999 12.721C22.9997 12.8144 22.9944 12.9029 22.9781 12.9947C22.9398 12.9573 22.9398 12.9573 22.9359 12.8842C22.9363 12.8548 22.9367 12.8254 22.9375 12.7961C22.9375 12.7809 22.9377 12.7659 22.9379 12.7506C22.9384 12.7134 22.939 12.6763 22.9398 12.6393C22.9271 12.6393 22.9145 12.6393 22.9015 12.6393C22.8773 12.559 22.8894 12.5106 22.9206 12.4335Z" fill="#3C3C3C"/>
<path d="M3.49687 12.2838C3.44783 12.3111 3.39879 12.3385 3.34956 12.3658C3.32887 12.3772 3.32887 12.3772 3.3078 12.389C3.1534 12.4745 3.00361 12.5246 2.82642 12.5457C2.84461 12.5014 2.85649 12.476 2.89863 12.4501C2.96051 12.426 3.02008 12.426 3.08617 12.423C3.14153 12.4133 3.16662 12.3931 3.20953 12.3587C3.43825 12.2552 3.43825 12.2552 3.49687 12.2838Z" fill="#DE1B1F"/>
<path d="M15.5649 17.7279C15.5649 17.7464 15.5649 17.7649 15.5649 17.784C15.1649 17.9458 15.1649 17.9458 14.9711 17.9336C15.0475 17.8508 15.1117 17.8233 15.2237 17.8132C15.3427 17.8025 15.4521 17.7645 15.5649 17.7279Z" fill="#DE1C20"/>
<path d="M18.0552 7.81262C18.0678 7.81262 18.0805 7.81262 18.0935 7.81262C18.078 7.92412 18.0175 7.97688 17.9403 8.05583C17.928 8.06873 17.9159 8.08146 17.9033 8.09474C17.8159 8.18435 17.7226 8.2532 17.6146 8.31774C17.602 8.31156 17.5893 8.30539 17.5763 8.29903C17.5841 8.29192 17.5922 8.285 17.6002 8.2777C17.8473 8.06256 17.8473 8.06256 18.0552 7.81262Z" fill="#DE1A1E"/>
<path d="M18.0935 7.15784C18.1492 7.19937 18.1883 7.23136 18.2276 7.28879C18.232 7.32602 18.232 7.32602 18.2314 7.36793C18.2312 7.38289 18.231 7.39805 18.231 7.41339C18.2307 7.4291 18.2303 7.44463 18.2299 7.46072C18.2299 7.47643 18.2297 7.49234 18.2295 7.50861C18.2289 7.54752 18.2284 7.58662 18.2276 7.62554C18.1897 7.64406 18.1897 7.64406 18.151 7.66295C18.15 7.63901 18.1491 7.61506 18.1481 7.59037C18.1468 7.55856 18.1452 7.52657 18.1437 7.49458C18.1429 7.47101 18.1429 7.47101 18.142 7.44706C18.1372 7.34567 18.1219 7.25531 18.0935 7.15784Z" fill="#DE191D"/>
<path d="M12.7298 5.38058C12.7424 5.38676 12.7551 5.39293 12.7681 5.39929C12.7599 5.40678 12.7516 5.41426 12.7432 5.42193C12.7057 5.45598 12.6681 5.49021 12.6304 5.52445C12.6175 5.53605 12.6047 5.54783 12.5913 5.55981C12.5212 5.6236 12.4522 5.68814 12.385 5.75474C12.3723 5.74857 12.3597 5.7424 12.3467 5.73604C12.3702 5.60134 12.5066 5.49545 12.6149 5.418C12.658 5.40397 12.658 5.40397 12.6915 5.39929C12.7041 5.39312 12.7168 5.38695 12.7298 5.38058Z" fill="#DE1B20"/>
<path d="M17.4421 10.095C17.4558 10.1268 17.4558 10.1268 17.4613 10.1698C17.3879 10.295 17.2674 10.4209 17.1357 10.4879C17.0736 10.498 17.0267 10.4948 16.9633 10.4879C16.9728 10.46 16.9728 10.46 16.9824 10.4317C17.0069 10.4282 17.0315 10.4248 17.0567 10.4213C17.1893 10.3971 17.2772 10.3015 17.3655 10.2072C17.3854 10.1766 17.405 10.1455 17.423 10.1137C17.4293 10.1075 17.4356 10.1014 17.4421 10.095Z" fill="#DE1C20"/>
<path d="M16.1778 7.13914C16.1905 7.13914 16.2031 7.13914 16.2162 7.13914C16.2351 7.1629 16.2533 7.18722 16.2713 7.21173C16.3324 7.28338 16.3769 7.30134 16.4711 7.31463C16.5006 7.31706 16.5006 7.31706 16.5309 7.31968C16.5801 7.32622 16.5801 7.32622 16.6184 7.36364C16.5389 7.40237 16.4433 7.38515 16.3587 7.37075C16.2765 7.33857 16.2217 7.29218 16.1587 7.23268C16.165 7.20182 16.1713 7.17095 16.1778 7.13914Z" fill="#DE1B1F"/>
<path d="M16.4077 15.5577C16.4545 15.5648 16.4545 15.5648 16.5035 15.5764C16.5307 15.6297 16.5228 15.6728 16.5204 15.7321C16.5194 15.7557 16.5184 15.779 16.5175 15.8034C16.5165 15.8281 16.5154 15.8527 16.5142 15.878C16.5133 15.9031 16.5123 15.9281 16.5112 15.9532C16.5087 16.0148 16.5062 16.0763 16.5035 16.1377C16.4845 16.1315 16.4656 16.1253 16.446 16.119C16.4462 16.1032 16.4464 16.0875 16.4466 16.0714C16.4474 16.0135 16.4478 15.9553 16.4481 15.8973C16.4483 15.8597 16.4489 15.8221 16.4495 15.7847C16.4495 15.7611 16.4497 15.7377 16.4499 15.7134C16.45 15.6917 16.4502 15.67 16.4504 15.6475C16.4516 15.5925 16.4516 15.5925 16.4077 15.5577Z" fill="#DE191D"/>
<path d="M17.538 8.6732C17.5569 8.67938 17.5759 8.68555 17.5954 8.69191C17.5795 8.70594 17.5636 8.71997 17.5472 8.73438C17.5261 8.7529 17.505 8.77161 17.4841 8.79013C17.4684 8.80397 17.4684 8.80397 17.4523 8.818C17.3562 8.90331 17.3008 8.98188 17.247 9.09881C17.2368 9.1207 17.2267 9.14259 17.2163 9.16522C17.2087 9.18187 17.201 9.19852 17.1932 9.21573C17.1868 9.21573 17.1805 9.21573 17.174 9.21573C17.1388 9.10423 17.1794 9.03333 17.2315 8.93511C17.2441 8.93511 17.2568 8.93511 17.2698 8.93511C17.2999 8.90537 17.2999 8.90537 17.3309 8.86739C17.4623 8.71698 17.4623 8.71698 17.538 8.6732Z" fill="#DE191D"/>
<path d="M13.9104 5.05319C14.0225 5.10183 14.1192 5.18601 14.1859 5.28704C14.1859 5.30556 14.1859 5.32408 14.1859 5.34316C14.1395 5.32389 14.1096 5.30612 14.0744 5.27039C14.0169 5.21613 13.9516 5.18358 13.882 5.14598C13.8411 5.11867 13.8411 5.11867 13.8219 5.06254C13.8602 5.04383 13.8602 5.04383 13.9104 5.05319Z" fill="#DE191D"/>
<path d="M15.7756 12.3025C15.9559 12.3753 16.0921 12.5697 16.1779 12.7328C16.1101 12.7048 16.0674 12.6662 16.0162 12.6148C16.0013 12.5996 15.9862 12.5847 15.9706 12.5691C15.9568 12.5551 15.9431 12.5412 15.9289 12.527C15.9107 12.51 15.8925 12.4932 15.8737 12.4756C15.7756 12.374 15.7756 12.374 15.7756 12.3025Z" fill="#DE1A1E"/>
<path d="M14.1665 5.77345C14.1728 5.77345 14.1791 5.77345 14.1857 5.77345C14.2117 5.9682 14.0468 6.12909 13.9366 6.27857C13.924 6.27239 13.9113 6.26622 13.8983 6.25986C13.9177 6.17979 13.9523 6.12311 14.0014 6.05763C14.0569 5.9828 14.0979 5.90983 14.1334 5.82415C14.1473 5.79216 14.1473 5.79216 14.1665 5.77345Z" fill="#DE191D"/>
<path d="M1.54295 16.0628C1.56824 16.0628 1.59352 16.0628 1.61958 16.0628C1.56537 16.277 1.56537 16.277 1.50464 16.3622C1.49162 16.3871 1.47878 16.4119 1.46633 16.437C1.45369 16.437 1.44104 16.437 1.42802 16.437C1.3968 16.3618 1.42304 16.312 1.45311 16.2394C1.46173 16.2181 1.47035 16.197 1.47936 16.1751C1.50464 16.119 1.50464 16.119 1.54295 16.0628Z" fill="#DE1C21"/>
<path d="M17.423 9.72083C17.4776 9.77134 17.5076 9.81606 17.5188 9.8892C17.4998 9.88303 17.4808 9.87686 17.4613 9.8705C17.4613 9.85815 17.4613 9.8458 17.4613 9.83308C17.3665 9.82691 17.2716 9.82073 17.174 9.81437C17.174 9.79585 17.174 9.77733 17.174 9.75825C17.2598 9.72551 17.3308 9.70923 17.423 9.72083Z" fill="#DE1B1F"/>
<path d="M14.5688 5.94183C14.5877 5.94801 14.6067 5.95418 14.6262 5.96054C14.6201 6.04566 14.6113 6.1089 14.5688 6.18391C14.5241 6.26342 14.5155 6.33863 14.5113 6.42824C14.505 6.42824 14.4987 6.42824 14.4921 6.42824C14.491 6.41552 14.4898 6.40299 14.4887 6.38989C14.487 6.37324 14.4854 6.35659 14.4837 6.33938C14.4822 6.32292 14.4807 6.30645 14.4791 6.28943C14.4743 6.24191 14.4743 6.24191 14.4613 6.20038C14.4538 6.16633 14.4538 6.16633 14.4778 6.12311C14.4944 6.09823 14.4944 6.09823 14.5113 6.07279C14.5318 6.02957 14.5502 5.9858 14.5688 5.94183Z" fill="#DE191D"/>
<path d="M17.4422 6.76497C17.4549 6.76497 17.4675 6.76497 17.4805 6.76497C17.4721 6.85439 17.4365 6.8905 17.3704 6.95093C17.3145 7.00312 17.2604 7.05401 17.2124 7.11331C17.1997 7.12809 17.1871 7.14268 17.1741 7.15784C17.1614 7.15784 17.1488 7.15784 17.1357 7.15784C17.1633 7.07103 17.2149 7.01491 17.2783 6.95093C17.3516 6.87609 17.3516 6.87609 17.4177 6.79546C17.4258 6.78536 17.434 6.77526 17.4422 6.76497Z" fill="#DE1B1F"/>
<path d="M14.7987 16.755C14.824 16.7612 14.8493 16.7674 14.8753 16.7738C14.8493 16.8839 14.7863 16.9769 14.7029 17.0544C14.6506 17.0686 14.6506 17.0686 14.6072 17.0731C14.5945 17.0546 14.5819 17.036 14.5688 17.017C14.5792 17.0113 14.5897 17.0055 14.6003 16.9997C14.6997 16.9431 14.7589 16.898 14.7928 16.7867C14.7947 16.7762 14.7966 16.7657 14.7987 16.755Z" fill="#DE191D"/>
<path d="M22.2789 12.4393C22.3013 12.4408 22.3235 12.4423 22.3465 12.4438C22.4034 12.4522 22.4034 12.4522 22.4417 12.4897C22.3912 12.4958 22.3406 12.502 22.2885 12.5084C22.2885 12.6751 22.2885 12.8417 22.2885 13.0135C22.2758 13.0073 22.2632 13.0011 22.2502 12.9948C22.2508 12.9815 22.2511 12.968 22.2517 12.9544C22.2536 12.8941 22.255 12.8339 22.2561 12.7738C22.2569 12.7529 22.2578 12.7319 22.2586 12.7102C22.259 12.6902 22.2592 12.6702 22.2596 12.6494C22.2599 12.6309 22.2605 12.6124 22.2611 12.5933C22.255 12.5415 22.255 12.5415 22.204 12.5136C22.1877 12.5056 22.1713 12.4977 22.1544 12.4897C22.1418 12.4773 22.1291 12.465 22.1161 12.4522C22.1718 12.4249 22.2172 12.4348 22.2789 12.4393Z" fill="#424242"/>
<path d="M22.8632 12.6019C22.8759 12.6019 22.8885 12.6019 22.9016 12.6019C22.9016 12.6142 22.9016 12.6266 22.9016 12.6393C22.9142 12.6393 22.9268 12.6393 22.9399 12.6393C22.9399 12.7628 22.9399 12.8862 22.9399 13.0134C22.9335 13.0134 22.9272 13.0134 22.9207 13.0134C22.9144 12.9579 22.9081 12.9023 22.9016 12.8451C22.8826 12.8451 22.8636 12.8451 22.8441 12.8451C22.8152 12.7601 22.8347 12.6855 22.8632 12.6019Z" fill="#A68C88"/>
<path d="M14.7221 14.1546C14.7158 14.167 14.7095 14.1793 14.703 14.1921C14.5323 14.1921 14.3616 14.1921 14.1858 14.1921C14.1795 14.1797 14.1731 14.1674 14.1666 14.1546C14.5647 14.12 14.5647 14.12 14.7221 14.1546Z" fill="#DA393D"/>
<path d="M14.1666 14.192C14.3689 14.192 14.5712 14.192 14.7796 14.192C14.6932 14.2553 14.6932 14.2553 14.6122 14.2549C14.5949 14.2549 14.5777 14.2549 14.5599 14.2549C14.5419 14.2547 14.5239 14.2543 14.5055 14.254C14.4877 14.2542 14.4701 14.2542 14.4517 14.2542C14.3496 14.2534 14.2634 14.2435 14.1666 14.2108C14.1666 14.2046 14.1666 14.1984 14.1666 14.192Z" fill="#DE191D"/>
<path d="M11.3314 5.73604C11.4261 5.74446 11.4929 5.78636 11.5613 5.84829C11.6188 5.9407 11.6188 5.9407 11.6188 5.99795C11.572 5.98504 11.572 5.98504 11.523 5.96053C11.5075 5.91152 11.5075 5.91152 11.5038 5.86699C11.4766 5.86419 11.4766 5.86419 11.4487 5.86119C11.3889 5.84829 11.3889 5.84829 11.3506 5.79216C11.3569 5.77981 11.3632 5.76747 11.3697 5.75475C11.3571 5.74857 11.3444 5.7424 11.3314 5.73604Z" fill="#DE1C20"/>
<path d="M17.9785 8.52353C17.9911 8.54822 18.0038 8.57292 18.0168 8.59836C17.9977 8.61707 17.9977 8.61707 17.9371 8.61894C17.9002 8.61856 17.9002 8.61856 17.8624 8.61819C17.8377 8.618 17.813 8.61782 17.7875 8.61782C17.7684 8.61744 17.7492 8.61726 17.7295 8.61707C17.7232 8.59855 17.7168 8.58003 17.7103 8.56094C17.8048 8.52409 17.8785 8.52016 17.9785 8.52353Z" fill="#DE1D21"/>
<path d="M14.4323 12.7656C14.463 12.7648 14.463 12.7648 14.4944 12.7641C14.5496 12.7702 14.5496 12.7702 14.5858 12.7962C14.607 12.8264 14.607 12.8264 14.607 12.8638C14.5061 12.8638 14.4049 12.8638 14.3005 12.8638C14.3005 12.7506 14.3266 12.7671 14.4323 12.7656Z" fill="#DE1C20"/>
<path d="M14.5304 6.54048C14.539 6.54796 14.5474 6.55545 14.5564 6.56312C14.6501 6.64338 14.7382 6.70362 14.856 6.74627C14.856 6.75862 14.856 6.77096 14.856 6.78369C14.7536 6.79323 14.7055 6.7719 14.6262 6.70885C14.5857 6.66676 14.548 6.62317 14.5112 6.5779C14.5176 6.56555 14.5239 6.5532 14.5304 6.54048Z" fill="#DE1A1E"/>
<path d="M14.0132 16.5492C14.0385 16.5492 14.0638 16.5492 14.0898 16.5492C14.0898 16.6542 14.0898 16.7592 14.0898 16.8673C14.0708 16.8611 14.0519 16.8549 14.0323 16.8486C14.0107 16.7483 14.0113 16.6512 14.0132 16.5492Z" fill="#DE1C20"/>
<path d="M4.07141 10.6936C4.18175 10.7262 4.26565 10.7543 4.32771 10.8527C4.35875 10.9181 4.35875 10.9181 4.33959 10.9743C4.29113 10.9301 4.26508 10.9058 4.24381 10.8433C4.22217 10.8349 4.20033 10.8263 4.17792 10.8175C4.10972 10.7872 4.10972 10.7872 4.08214 10.7369C4.07869 10.7226 4.07505 10.7084 4.07141 10.6936Z" fill="#DE1A1E"/>
<path d="M14.9519 12.0032C15.0404 12.0032 15.1289 12.0032 15.2201 12.0032C15.2327 12.0341 15.2454 12.065 15.2584 12.0968C15.1448 12.1039 15.0578 12.0801 14.9519 12.0406C14.9519 12.0283 14.9519 12.0159 14.9519 12.0032Z" fill="#DE1D22"/>
<path d="M6.77245 8.33646C6.85022 8.36171 6.86517 8.3995 6.90654 8.46741C6.92033 8.49828 6.93336 8.52934 6.94485 8.56095C6.8916 8.55384 6.85693 8.54842 6.8144 8.5153C6.79161 8.48612 6.79161 8.48612 6.79161 8.4487C6.77896 8.4487 6.76632 8.4487 6.7533 8.4487C6.75962 8.41166 6.76594 8.37462 6.77245 8.33646Z" fill="#DE1B1F"/>
<path d="M8.40063 8.28032C8.37381 8.34262 8.34335 8.37554 8.28799 8.41595C8.27516 8.42568 8.26213 8.43541 8.24872 8.44551C8.20907 8.4674 8.20907 8.4674 8.13245 8.4674C8.1608 8.39519 8.19892 8.36974 8.26654 8.33177C8.28358 8.32204 8.30044 8.31231 8.31807 8.30221C8.36231 8.28032 8.36231 8.28032 8.40063 8.28032Z" fill="#DE191D"/>
<path d="M6.79161 7.83133C6.81058 7.8375 6.82954 7.84368 6.84908 7.85004C6.84697 7.87997 6.84448 7.91009 6.8418 7.94002C6.84065 7.95686 6.83931 7.97351 6.83778 7.99072C6.82992 8.03712 6.82992 8.03712 6.79161 8.09324C6.77897 8.09324 6.76633 8.09324 6.7533 8.09324C6.73031 8.00082 6.74008 7.93946 6.77246 7.85004C6.77878 7.84386 6.7851 7.83769 6.79161 7.83133Z" fill="#DE1A1F"/>
<path d="M4.22472 10.0763C4.23736 10.0763 4.25001 10.0763 4.26303 10.0763C4.29483 10.1105 4.29483 10.1105 4.33008 10.1558C4.34751 10.1779 4.34751 10.1779 4.36533 10.2005C4.39329 10.2392 4.41532 10.2766 4.43543 10.3195C4.32644 10.2948 4.28698 10.2566 4.22472 10.1698C4.20787 10.1266 4.20787 10.1266 4.20557 10.095C4.21189 10.0888 4.21821 10.0826 4.22472 10.0763Z" fill="#DE191D"/>
<path d="M10.2012 5.97924C10.1633 5.99776 10.1254 6.01629 10.0863 6.03537C10.08 6.02302 10.0736 6.01067 10.0671 5.99795C10.1365 5.95829 10.1365 5.95829 10.2012 5.97924ZM10.0671 6.01666C10.0394 6.07914 10.0039 6.12086 9.95449 6.16857C9.94166 6.18148 9.92863 6.1942 9.91523 6.20748C9.87768 6.23928 9.84435 6.2593 9.79895 6.27857C9.82941 6.20636 9.87691 6.16015 9.93304 6.10552C9.95009 6.08887 9.96695 6.07222 9.98457 6.05501C10.0288 6.01666 10.0288 6.01666 10.0671 6.01666Z" fill="#DF272C"/>
<path d="M5.46977 16.8673C5.46977 16.9537 5.41461 16.9943 5.35484 17.0544C5.31653 17.0886 5.27764 17.1217 5.23799 17.1546C5.19144 17.1939 5.14873 17.2357 5.10582 17.2789C5.09317 17.2727 5.08053 17.2665 5.0675 17.2602C5.20025 17.1305 5.333 17.0009 5.46977 16.8673Z" fill="#DE1C20"/>
<path d="M1.06402 14.2669C1.08931 14.2792 1.1146 14.2916 1.14065 14.3043C1.13394 14.4605 1.13394 14.4605 1.08203 14.5112C1.06977 14.517 1.05751 14.5228 1.04487 14.5288C1.01422 14.4362 1.0395 14.358 1.06402 14.2669Z" fill="#DE1A1E"/>
<path d="M12.5 12.8825C12.519 12.8887 12.5379 12.8948 12.5575 12.9012C12.5481 13.0392 12.5481 13.0392 12.4989 13.0976C12.4866 13.107 12.4743 13.1161 12.4617 13.1257C12.4387 13.0237 12.4443 12.9719 12.5 12.8825Z" fill="#DE191D"/>
<path d="M7.28484 8.63081C7.30533 8.631 7.32583 8.631 7.34709 8.63119C7.37793 8.631 7.37793 8.631 7.40935 8.63081C7.46203 8.63586 7.46203 8.63586 7.50034 8.67328C7.46203 8.7107 7.46203 8.7107 7.42391 8.71556C7.33886 8.715 7.27124 8.71219 7.19385 8.67328C7.23216 8.63586 7.23216 8.63586 7.28484 8.63081Z" fill="#DE1D21"/>
<path d="M8.93696 7.47589C8.94328 7.47589 8.9496 7.47589 8.95611 7.47589C8.9678 7.58402 8.93351 7.68168 8.87949 7.77522C8.86052 7.78139 8.84156 7.78757 8.82202 7.79393C8.84118 7.67214 8.8678 7.57935 8.93696 7.47589Z" fill="#DE191D"/>
<path d="M5.68053 10.0763C5.67689 10.1114 5.67689 10.1114 5.66138 10.1511C5.61828 10.1709 5.61828 10.1709 5.5656 10.1885C5.54893 10.1986 5.53246 10.2085 5.51541 10.2188C5.46982 10.2447 5.46982 10.2447 5.41235 10.2447C5.43342 10.1852 5.44913 10.1706 5.50698 10.1395C5.52633 10.1309 5.54568 10.1225 5.5656 10.1137C5.62307 10.0763 5.62307 10.0763 5.68053 10.0763Z" fill="#DE191D"/>
<path d="M16.427 16.5492C16.4333 16.5492 16.4396 16.5492 16.4461 16.5492C16.4496 16.6454 16.4492 16.7217 16.4078 16.8112C16.3888 16.8235 16.3699 16.8359 16.3503 16.8486C16.3569 16.7365 16.366 16.6475 16.427 16.5492Z" fill="#DE1B1F"/>
<path d="M17.4421 5.8857C17.5383 5.91245 17.5772 5.9581 17.6337 6.03536C17.6337 6.05388 17.6337 6.0724 17.6337 6.09148C17.5584 6.06698 17.5111 6.04004 17.4613 5.97924C17.4469 5.92779 17.4469 5.92779 17.4421 5.8857Z" fill="#DE191D"/>
<path d="M15.3901 12.0816C15.4763 12.1137 15.5332 12.1521 15.584 12.2277C15.5102 12.2164 15.4526 12.1946 15.3865 12.1611C15.3696 12.1525 15.3528 12.144 15.3353 12.1352C15.3225 12.1287 15.3098 12.1222 15.2966 12.1154C15.3541 12.078 15.3541 12.078 15.3901 12.0816Z" fill="#DE1A1E"/>
<path d="M16.9549 7.23151C16.9781 7.23207 16.9781 7.23207 17.0017 7.23263C16.9365 7.30353 16.8691 7.35872 16.7685 7.36714C16.7314 7.36714 16.694 7.36546 16.6569 7.36358C16.7011 7.31382 16.7385 7.29567 16.8028 7.27715C16.8584 7.26088 16.8996 7.23282 16.9549 7.23151Z" fill="#DE1B1F"/>
<path d="M14.722 5.69861C14.7473 5.69861 14.7726 5.69861 14.7986 5.69861C14.7869 5.76296 14.7618 5.80188 14.7208 5.85295C14.7103 5.86623 14.6998 5.87933 14.6891 5.89298C14.681 5.9029 14.6728 5.91281 14.6645 5.9231C14.6429 5.89074 14.6429 5.89074 14.6262 5.84827C14.6408 5.80824 14.6408 5.80824 14.6668 5.76876C14.6753 5.75548 14.6837 5.74239 14.6923 5.72873C14.7021 5.71881 14.7118 5.7089 14.722 5.69861Z" fill="#DE1C20"/>
<path d="M5.0293 17.3163C5.00765 17.3799 4.99041 17.3935 4.93716 17.4332C4.92394 17.4433 4.91072 17.4534 4.89731 17.4639C4.8569 17.4846 4.8569 17.4846 4.8136 17.4785C4.80249 17.4744 4.79158 17.4702 4.78027 17.4659C4.92528 17.3163 4.92528 17.3163 5.0293 17.3163Z" fill="#DE1B1F"/>
<path d="M22.5566 12.4522C22.5819 12.4584 22.6072 12.4645 22.6333 12.4709C22.6396 12.5203 22.6459 12.5697 22.6524 12.6206C22.6208 12.6144 22.5892 12.6082 22.5566 12.6019C22.5566 12.5525 22.5566 12.5031 22.5566 12.4522Z" fill="#050605"/>
<path d="M22.9206 12.4335C22.9781 12.4522 22.9781 12.4522 22.9973 12.4896C22.998 12.527 22.998 12.5645 22.9973 12.6019C22.972 12.608 22.9467 12.6142 22.9206 12.6206C22.8992 12.4756 22.8992 12.4756 22.9206 12.4335Z" fill="#000100"/>
<path d="M22.7866 12.8076C22.808 12.8368 22.808 12.8368 22.8249 12.8825C22.808 12.9526 22.808 12.9526 22.7866 13.0134C22.7291 12.976 22.7291 12.976 22.7159 12.9177C22.713 12.8909 22.713 12.8909 22.71 12.8638C22.7352 12.8453 22.7605 12.8267 22.7866 12.8076Z" fill="#0C0C0C"/>
<path d="M7.80688 8.57966C7.80055 8.60435 7.79423 8.62904 7.78772 8.65449C7.66436 8.66384 7.66436 8.66384 7.5387 8.6732C7.627 8.61576 7.69807 8.5703 7.80688 8.57966Z" fill="#DE1C20"/>
<path d="M15.4116 6.72756C15.3733 6.78368 15.3733 6.78368 15.3277 6.79322C15.3103 6.79434 15.2931 6.79547 15.2752 6.79659C15.2576 6.79771 15.2402 6.79902 15.2224 6.80033C15.2023 6.80127 15.2023 6.80127 15.1818 6.80239C15.1881 6.78387 15.1944 6.76535 15.2009 6.74627C15.2783 6.71184 15.3298 6.70417 15.4116 6.72756Z" fill="#DE1B1F"/>
<path d="M14.0517 13.0134C14.0643 13.0134 14.0769 13.0134 14.09 13.0134C14.0915 13.0404 14.0926 13.0671 14.0936 13.0941C14.0942 13.109 14.0949 13.124 14.0955 13.1395C14.0888 13.1908 14.0729 13.2059 14.0325 13.2379C14.0036 13.1814 14.0099 13.1319 14.0133 13.0696C14.026 13.051 14.0386 13.0325 14.0517 13.0134Z" fill="#DE1B1F"/>
<path d="M14.7987 16.755C14.8239 16.7612 14.8492 16.7674 14.8753 16.7738C14.8544 16.8806 14.8029 16.9186 14.7159 16.9777C14.7 16.9878 14.7 16.9878 14.6837 16.9982C14.7048 16.9562 14.7264 16.9165 14.7519 16.8766C14.7766 16.8347 14.7896 16.8022 14.7987 16.755Z" fill="#DF2429"/>
<path d="M17.6529 6.33469C17.6656 6.33469 17.6782 6.33469 17.6912 6.33469C17.6786 6.39642 17.6659 6.45816 17.6529 6.52177C17.6276 6.52794 17.6023 6.53411 17.5763 6.54047C17.5905 6.39567 17.5905 6.39567 17.6529 6.33469Z" fill="#DE1D22"/>
<path d="M3.13279 12.9947C3.17838 12.9947 3.17838 12.9947 3.22857 13.0134C3.3052 13.1085 3.3052 13.1085 3.3052 13.1631C3.24466 13.1375 3.22876 13.1259 3.19026 13.0696C3.14141 13.0471 3.14141 13.0471 3.09448 13.0322C3.10713 13.0198 3.11977 13.0075 3.13279 12.9947Z" fill="#DE1C20"/>
<path d="M2.69226 13.0321C2.6733 13.06 2.6733 13.06 2.65395 13.0883C2.51699 13.0989 2.51699 13.0989 2.44324 13.0509C2.53289 13.0043 2.59533 13.0161 2.69226 13.0321Z" fill="#DE1D21"/>
<path d="M17.9593 9.06606C17.9656 9.06606 17.9719 9.06606 17.9785 9.06606C17.9691 9.18504 17.9691 9.18504 17.9221 9.24266C17.8827 9.27184 17.8827 9.27184 17.8444 9.27184C17.8568 9.19252 17.9014 9.12255 17.9593 9.06606Z" fill="#DE1B1F"/>
<path d="M22.2789 12.4393C22.3013 12.4408 22.3235 12.4423 22.3465 12.4438C22.4034 12.4522 22.4034 12.4522 22.4417 12.4897C22.3946 12.4906 22.3475 12.4913 22.3004 12.4919C22.2804 12.4925 22.2804 12.4925 22.2599 12.4928C22.2247 12.4932 22.1895 12.4915 22.1544 12.4897C22.1418 12.4773 22.1291 12.465 22.1161 12.4522C22.1718 12.4249 22.2172 12.4348 22.2789 12.4393Z" fill="#2C2C2C"/>
<path d="M3.22864 14.8842C3.32978 14.8842 3.43092 14.8842 3.53513 14.8842C3.45314 14.9443 3.43993 14.9497 3.34357 14.9404C3.27883 14.9217 3.27883 14.9217 3.22864 14.903C3.22864 14.8968 3.22864 14.8906 3.22864 14.8842Z" fill="#DE191D"/>
<path d="M22.6143 12.6393C22.6269 12.6393 22.6395 12.6393 22.6526 12.6393C22.6562 12.6572 22.6562 12.6572 22.6598 12.6756C22.6656 12.6947 22.6656 12.6947 22.6717 12.7141C22.6844 12.7203 22.697 12.7265 22.71 12.7328C22.7037 12.7452 22.6974 12.7575 22.6909 12.7702C22.7162 12.7826 22.7415 12.7949 22.7675 12.8077C22.7675 12.82 22.7675 12.8323 22.7675 12.8451C22.7422 12.8512 22.7169 12.8574 22.6909 12.8638C22.678 12.8299 22.6654 12.7961 22.6526 12.762C22.6455 12.7431 22.6384 12.7242 22.6311 12.7048C22.6143 12.658 22.6143 12.658 22.6143 12.6393Z" fill="#725957"/>
<path d="M2.2708 11.6665C2.27713 11.6788 2.28345 11.6912 2.28996 11.7039C2.27502 11.7404 2.27502 11.7404 2.2528 11.781C2.24552 11.7946 2.23824 11.8081 2.23077 11.8221C2.22502 11.8324 2.21928 11.8429 2.21334 11.8535C2.2007 11.8535 2.18805 11.8535 2.17503 11.8535C2.16794 11.7503 2.16794 11.7503 2.20146 11.7074C2.23249 11.6852 2.23249 11.6852 2.2708 11.6665Z" fill="#DE191D"/>
<path d="M17.7295 9.36539C17.7295 9.37773 17.7295 9.39008 17.7295 9.4028C17.7021 9.41908 17.6745 9.43498 17.6469 9.4507C17.624 9.46417 17.624 9.46417 17.6004 9.47763C17.5571 9.49634 17.5571 9.49634 17.4996 9.47763C17.5542 9.41178 17.6422 9.36539 17.7295 9.36539Z" fill="#DE191D"/>
<path d="M11.5039 5.82957C11.5614 5.84828 11.5614 5.84828 11.5937 5.90328C11.6188 5.96053 11.6188 5.96053 11.6188 5.99795C11.5713 5.97943 11.5713 5.97943 11.5231 5.96053C11.5167 5.91732 11.5104 5.8741 11.5039 5.82957Z" fill="#DE191D"/>
<path d="M16.5464 11.2608C16.5575 11.2651 16.5688 11.2692 16.5803 11.2735C16.5353 11.3394 16.501 11.3564 16.4271 11.3858C16.4081 11.3796 16.3892 11.3734 16.3696 11.3671C16.3899 11.3478 16.4108 11.3287 16.4319 11.3098C16.4434 11.2992 16.4549 11.2885 16.4667 11.2777C16.5037 11.2548 16.5037 11.2548 16.5464 11.2608Z" fill="#DE1D21"/>
<path d="M5.29738 10.3008C5.29106 10.3131 5.28474 10.3255 5.27823 10.3382C5.23436 10.35 5.23436 10.35 5.1813 10.3592C5.16368 10.3623 5.14605 10.3655 5.12785 10.3687C5.10755 10.3721 5.10755 10.3721 5.08667 10.3756C5.10583 10.3195 5.10583 10.3195 5.14893 10.2961C5.20697 10.2806 5.24011 10.2849 5.29738 10.3008Z" fill="#DE1E22"/>
<path d="M11.0251 5.64249C11.044 5.64866 11.063 5.65483 11.0825 5.66119C11.0825 5.67354 11.0825 5.68589 11.0825 5.69861C11.0249 5.71732 10.986 5.71919 10.9256 5.71844C10.8998 5.71825 10.8998 5.71825 10.8733 5.71807C10.8601 5.71769 10.8471 5.71751 10.8335 5.71732C10.8335 5.70497 10.8335 5.69262 10.8335 5.6799C10.8519 5.67822 10.8519 5.67822 10.8705 5.67654C10.8942 5.6741 10.8942 5.6741 10.9185 5.67167C10.9343 5.67017 10.95 5.66868 10.9662 5.66718C11.0057 5.66512 11.0057 5.66512 11.0251 5.64249Z" fill="#D93437"/>
<path d="M14.1666 16.9421C14.2122 16.955 14.2122 16.955 14.2624 16.9795C14.2875 17.0286 14.2875 17.0286 14.3007 17.0731C14.2691 17.0731 14.2375 17.0731 14.2049 17.0731C14.1666 16.9842 14.1666 16.9842 14.1666 16.9421Z" fill="#DE191D"/>
<path d="M6.14029 9.70213C6.14661 9.71448 6.15293 9.72683 6.15944 9.73955C6.13895 9.76424 6.11807 9.78875 6.09719 9.81326C6.08569 9.82692 6.07401 9.84057 6.06213 9.8546C6.02325 9.89108 6.00141 9.90081 5.94873 9.90792C6.01022 9.83664 6.07152 9.76668 6.14029 9.70213Z" fill="#DE1E22"/>
<path d="M8.09415 8.46741C8.08782 8.4921 8.0815 8.5168 8.07499 8.54224C8.0181 8.55459 7.9612 8.56693 7.90259 8.57966C7.90891 8.56113 7.91523 8.54261 7.92174 8.52353C8.03879 8.46741 8.03879 8.46741 8.09415 8.46741Z" fill="#DE1C20"/>
<path d="M17.0207 8.16806C17.1127 8.21408 17.1127 8.21408 17.132 8.26515C17.1332 8.27638 17.1345 8.28742 17.1357 8.29902C17.079 8.2876 17.0518 8.27563 17.0016 8.24289C17.0079 8.2182 17.0142 8.1935 17.0207 8.16806Z" fill="#DE191D"/>
<path d="M17.0398 7.77521C17.0587 7.78138 17.0777 7.78755 17.0972 7.79392C17.1009 7.85715 17.1009 7.85715 17.0972 7.92487C17.0783 7.93722 17.0593 7.94957 17.0398 7.96229C17.0183 7.83844 17.0183 7.83844 17.0398 7.77521Z" fill="#DE1A1E"/>
<path d="M17.3655 7.36363C17.3782 7.37598 17.3908 7.38833 17.4038 7.40105C17.3469 7.45661 17.2901 7.51217 17.2314 7.56942C17.2251 7.5509 17.2188 7.53238 17.2123 7.5133C17.2629 7.46391 17.3134 7.41452 17.3655 7.36363Z" fill="#E13238"/>
<path d="M12.5575 12.7328C12.5954 12.7422 12.5954 12.7422 12.6341 12.7515C12.6278 12.7886 12.6215 12.8256 12.6149 12.8638C12.596 12.8638 12.577 12.8638 12.5575 12.8638C12.536 12.7749 12.536 12.7749 12.5575 12.7328Z" fill="#DE191D"/>
</g>
<defs>
<clipPath id="clip0_944_22230">
<rect width="24" height="24" fill="white"/>
</clipPath>
</defs>
</svg>
