<svg width="24" height="24" viewBox="0 0 24 24" fill="none" xmlns="http://www.w3.org/2000/svg">
<g clip-path="url(#clip0_946_40345)">
<g clip-path="url(#clip1_946_40345)">
<path d="M2 2H22V22H2V2Z" fill="#FFBE00"/>
<path d="M12.0001 18.1652C17.3182 18.1652 21.6294 15.528 21.6294 12.2749C21.6294 9.02172 17.3182 6.38454 12.0001 6.38454C6.68193 6.38454 2.37073 9.02172 2.37073 12.2749C2.37073 15.528 6.68193 18.1652 12.0001 18.1652Z" fill="#005C87"/>
<path d="M15.969 13.36C15.969 13.728 16.233 13.912 16.761 13.912C17.2943 13.912 17.561 13.7467 17.561 13.416C17.561 13.24 17.4703 13.096 17.289 12.984C17.1077 12.872 16.8863 12.7787 16.625 12.704C16.369 12.6293 16.1103 12.544 15.849 12.448C15.593 12.3467 15.3743 12.192 15.193 11.984C15.0117 11.7707 14.921 11.5067 14.921 11.192C14.921 9.85334 15.7823 9.18401 17.505 9.18401C18.1343 9.18401 18.609 9.30401 18.929 9.54401C19.2543 9.77867 19.417 10.1067 19.417 10.528C19.417 10.6827 19.3957 10.832 19.353 10.976C19.3157 11.1147 19.2757 11.2133 19.233 11.272L19.169 11.368H17.753C17.8703 11.2453 17.929 11.0907 17.929 10.904C17.929 10.5573 17.7023 10.384 17.249 10.384C16.6783 10.384 16.393 10.5653 16.393 10.928C16.393 11.1093 16.4837 11.2533 16.665 11.36C16.8463 11.4667 17.065 11.552 17.321 11.616C17.5823 11.6747 17.8437 11.7493 18.105 11.84C18.3663 11.9307 18.5877 12.0827 18.769 12.296C18.9503 12.504 19.041 12.776 19.041 13.112C19.041 13.7893 18.8383 14.2933 18.433 14.624C18.0277 14.9493 17.4037 15.112 16.561 15.112C15.7183 15.112 15.1423 14.9627 14.833 14.664C14.6037 14.44 14.489 14.1307 14.489 13.736C14.489 13.5867 14.505 13.424 14.537 13.248L14.561 13.12H16.001L15.985 13.216C15.9743 13.2693 15.969 13.3173 15.969 13.36Z" fill="white"/>
<path d="M12.3455 9.24001C13.0441 9.24001 13.5428 9.41601 13.8415 9.76801C14.0601 10.0347 14.1695 10.368 14.1695 10.768C14.1695 10.912 14.1561 11.064 14.1295 11.224L13.8175 13.008C13.7108 13.6107 13.4495 14.0933 13.0335 14.456C12.6175 14.8187 12.0788 15 11.4175 15H9.08948L10.1055 9.24001H12.3455ZM11.8415 10.488H11.3215L10.7535 13.752H11.5135C11.7641 13.752 11.9588 13.6853 12.0975 13.552C12.2415 13.4133 12.3401 13.1893 12.3935 12.88L12.6255 11.568C12.6468 11.4507 12.6575 11.344 12.6575 11.248C12.6575 10.7413 12.3855 10.488 11.8415 10.488Z" fill="white"/>
<path d="M8.16798 15H4.15198L5.16798 9.24001H9.18398L8.95998 10.488H6.38398L6.19998 11.568H8.32798L8.10398 12.816H5.97598L5.81598 13.752H8.39198L8.16798 15Z" fill="white"/>
</g>
</g>
<defs>
<clipPath id="clip0_946_40345">
<rect width="24" height="24" fill="white"/>
</clipPath>
<clipPath id="clip1_946_40345">
<rect width="20" height="20" fill="white" transform="translate(2 2)"/>
</clipPath>
</defs>
</svg>
