<svg width="24" height="24" viewBox="0 0 24 24" fill="none" xmlns="http://www.w3.org/2000/svg">
<g clip-path="url(#clip0_946_28215)">
<g clip-path="url(#clip1_946_28215)">
<path fill-rule="evenodd" clip-rule="evenodd" d="M14.0527 22C7.82995 21.8594 2.83337 17.4326 2.83337 11.9969C2.83337 6.5613 7.82995 2.14063 14.0527 2V4.45796C11.7774 4.52522 9.71842 5.35677 8.21683 6.66524C6.6431 8.02874 5.67264 9.91807 5.67264 12.0031C5.67264 14.088 6.6431 15.9713 8.21683 17.3409C9.72498 18.6493 11.7774 19.4748 14.0527 19.5482V22.0061V22Z" fill="#FF7518"/>
<path fill-rule="evenodd" clip-rule="evenodd" d="M14.3609 5.369C18.5772 5.369 22.0001 8.33446 22.0001 11.9969C22.0001 15.6594 18.5838 18.6249 14.3609 18.6249C14.2429 18.6249 14.1249 18.6249 14.0068 18.6188V16.1547C14.1249 16.1608 14.2429 16.1669 14.3609 16.1669C15.6855 16.1669 16.892 15.7022 17.7575 14.9441C18.6297 14.192 19.1673 13.1464 19.1673 11.9969C19.1673 10.8475 18.6297 9.8019 17.7575 9.04983C16.8854 8.29777 15.6855 7.82697 14.3609 7.82697C14.2429 7.82697 14.1249 7.82697 14.0068 7.8392V5.38123C14.1249 5.38123 14.2429 5.37512 14.3609 5.37512V5.369Z" fill="#FF7518"/>
<path fill-rule="evenodd" clip-rule="evenodd" d="M14.0068 15.4699C16.21 15.4699 18.0001 13.9107 18.0001 12.0031C18.0001 10.0954 16.2034 8.53622 14.0068 8.53622C11.8101 8.53622 10.0134 10.0954 10.0134 12.0031C10.0134 13.9107 11.8101 15.4699 14.0068 15.4699Z" fill="#FF7518"/>
</g>
</g>
<defs>
<clipPath id="clip0_946_28215">
<rect width="24" height="24" fill="white"/>
</clipPath>
<clipPath id="clip1_946_28215">
<rect width="20" height="20" fill="white" transform="translate(2 2)"/>
</clipPath>
</defs>
</svg>
