<svg width="24" height="24" viewBox="0 0 24 24" fill="none" xmlns="http://www.w3.org/2000/svg">
<g clip-path="url(#clip0_946_40399)">
<g clip-path="url(#clip1_946_40399)">
<path d="M2 2H22V22H2V2Z" fill="#FFBE00"/>
<path d="M12.0001 18.1652C17.3182 18.1652 21.6294 15.528 21.6294 12.2749C21.6294 9.02172 17.3182 6.38454 12.0001 6.38454C6.68193 6.38454 2.37073 9.02172 2.37073 12.2749C2.37073 15.528 6.68193 18.1652 12.0001 18.1652Z" fill="#005C87"/>
<path d="M7.84044 9.96L8.58944 12.375L10.1994 9.96H11.5224L10.6334 15H9.36644L9.87044 12.158L8.79244 13.852H7.87544L7.39944 12.158L6.89544 15H5.63544L6.52444 9.96H7.84044ZM16.2016 9.96L16.0826 13.775H16.2436L17.4616 9.96H18.8336L17.1046 15H15.0046L15.1936 11.773L14.2556 15H12.1556L12.2046 9.96H13.5766L13.4506 13.775H13.6116L14.8366 9.96H16.2016Z" fill="white"/>
</g>
</g>
<defs>
<clipPath id="clip0_946_40399">
<rect width="24" height="24" fill="white"/>
</clipPath>
<clipPath id="clip1_946_40399">
<rect width="20" height="20" fill="white" transform="translate(2 2)"/>
</clipPath>
</defs>
</svg>
