<svg width="24" height="24" viewBox="0 0 24 24" fill="none" xmlns="http://www.w3.org/2000/svg">
<g clip-path="url(#clip0_946_40380)">
<g clip-path="url(#clip1_946_40380)">
<path d="M2 2H22V22H2V2Z" fill="#FFBE00"/>
<path d="M12.0001 18.1652C17.3182 18.1652 21.6294 15.528 21.6294 12.2749C21.6294 9.02172 17.3182 6.38454 12.0001 6.38454C6.68193 6.38454 2.37073 9.02172 2.37073 12.2749C2.37073 15.528 6.68193 18.1652 12.0001 18.1652Z" fill="#005C87"/>
<path d="M7.11832 13.688C6.80232 13.952 6.35432 14.084 5.77432 14.084C5.19432 14.084 4.79232 13.95 4.56832 13.682C4.40832 13.498 4.32832 13.244 4.32832 12.92C4.32832 12.776 4.34432 12.618 4.37632 12.446L4.86232 9.68H5.94232L5.45632 12.422C5.44032 12.522 5.43232 12.626 5.43232 12.734C5.43232 13.014 5.60032 13.154 5.93632 13.154C6.13632 13.154 6.29632 13.102 6.41632 12.998C6.53632 12.894 6.62032 12.702 6.66832 12.422L7.15432 9.68H8.23432L7.74832 12.446C7.64832 13.006 7.43832 13.42 7.11832 13.688ZM9.43676 12.77C9.43676 13.046 9.63476 13.184 10.0308 13.184C10.4308 13.184 10.6308 13.06 10.6308 12.812C10.6308 12.68 10.5628 12.572 10.4268 12.488C10.2908 12.404 10.1248 12.334 9.92876 12.278C9.73676 12.222 9.54276 12.158 9.34676 12.086C9.15476 12.01 8.99076 11.894 8.85476 11.738C8.71876 11.578 8.65076 11.38 8.65076 11.144C8.65076 10.14 9.29676 9.638 10.5888 9.638C11.0608 9.638 11.4168 9.728 11.6568 9.908C11.9008 10.084 12.0228 10.33 12.0228 10.646C12.0228 10.762 12.0068 10.874 11.9748 10.982C11.9468 11.086 11.9168 11.16 11.8848 11.204L11.8368 11.276H10.7748C10.8628 11.184 10.9068 11.068 10.9068 10.928C10.9068 10.668 10.7368 10.538 10.3968 10.538C9.96876 10.538 9.75476 10.674 9.75476 10.946C9.75476 11.082 9.82276 11.19 9.95876 11.27C10.0948 11.35 10.2588 11.414 10.4508 11.462C10.6468 11.506 10.8428 11.562 11.0388 11.63C11.2348 11.698 11.4008 11.812 11.5368 11.972C11.6728 12.128 11.7408 12.332 11.7408 12.584C11.7408 13.092 11.5888 13.47 11.2848 13.718C10.9808 13.962 10.5128 14.084 9.88076 14.084C9.24876 14.084 8.81676 13.972 8.58476 13.748C8.41276 13.58 8.32676 13.348 8.32676 13.052C8.32676 12.94 8.33876 12.818 8.36276 12.686L8.38076 12.59H9.46076L9.44876 12.662C9.44076 12.702 9.43676 12.738 9.43676 12.77ZM13.3274 12.77C13.3274 13.046 13.5254 13.184 13.9214 13.184C14.3214 13.184 14.5214 13.06 14.5214 12.812C14.5214 12.68 14.4534 12.572 14.3174 12.488C14.1814 12.404 14.0154 12.334 13.8194 12.278C13.6274 12.222 13.4334 12.158 13.2374 12.086C13.0454 12.01 12.8814 11.894 12.7454 11.738C12.6094 11.578 12.5414 11.38 12.5414 11.144C12.5414 10.14 13.1874 9.638 14.4794 9.638C14.9514 9.638 15.3074 9.728 15.5474 9.908C15.7914 10.084 15.9134 10.33 15.9134 10.646C15.9134 10.762 15.8974 10.874 15.8654 10.982C15.8374 11.086 15.8074 11.16 15.7754 11.204L15.7274 11.276H14.6654C14.7534 11.184 14.7974 11.068 14.7974 10.928C14.7974 10.668 14.6274 10.538 14.2874 10.538C13.8594 10.538 13.6454 10.674 13.6454 10.946C13.6454 11.082 13.7134 11.19 13.8494 11.27C13.9854 11.35 14.1494 11.414 14.3414 11.462C14.5374 11.506 14.7334 11.562 14.9294 11.63C15.1254 11.698 15.2914 11.812 15.4274 11.972C15.5634 12.128 15.6314 12.332 15.6314 12.584C15.6314 13.092 15.4794 13.47 15.1754 13.718C14.8714 13.962 14.4034 14.084 13.7714 14.084C13.1394 14.084 12.7074 13.972 12.4754 13.748C12.3034 13.58 12.2174 13.348 12.2174 13.052C12.2174 12.94 12.2294 12.818 12.2534 12.686L12.2714 12.59H13.3514L13.3394 12.662C13.3314 12.702 13.3274 12.738 13.3274 12.77ZM18.514 9.68C19.038 9.68 19.412 9.812 19.636 10.076C19.8 10.276 19.882 10.526 19.882 10.826C19.882 10.934 19.872 11.048 19.852 11.168L19.618 12.506C19.538 12.958 19.342 13.32 19.03 13.592C18.718 13.864 18.314 14 17.818 14H16.072L16.834 9.68H18.514ZM18.136 10.616H17.746L17.32 13.064H17.89C18.078 13.064 18.224 13.014 18.328 12.914C18.436 12.81 18.51 12.642 18.55 12.41L18.724 11.426C18.74 11.338 18.748 11.258 18.748 11.186C18.748 10.806 18.544 10.616 18.136 10.616Z" fill="white"/>
</g>
</g>
<defs>
<clipPath id="clip0_946_40380">
<rect width="24" height="24" fill="white"/>
</clipPath>
<clipPath id="clip1_946_40380">
<rect width="20" height="20" fill="white" transform="translate(2 2)"/>
</clipPath>
</defs>
</svg>
