<svg width="24" height="24" viewBox="0 0 24 24" fill="none" xmlns="http://www.w3.org/2000/svg">
<g clip-path="url(#clip0_946_40357)">
<g clip-path="url(#clip1_946_40357)">
<path d="M2 2H22V22H2V2Z" fill="#FFBE00"/>
<path d="M12.0001 18.1652C17.3182 18.1652 21.6294 15.528 21.6294 12.2749C21.6294 9.02172 17.3182 6.38454 12.0001 6.38454C6.68193 6.38454 2.37073 9.02172 2.37073 12.2749C2.37073 15.528 6.68193 18.1652 12.0001 18.1652Z" fill="#005C87"/>
<path d="M13.7266 15L13.7746 13.744H12.4386L12.0466 15H10.5186L12.5746 9.24001H15.2146L15.2466 15H13.7266ZM13.3986 10.64L12.7666 12.672H13.8146L13.9026 10.64H13.3986Z" fill="white"/>
<path d="M10.7564 9.24001L9.74841 15H8.30042L9.31642 9.24001H10.7564Z" fill="white"/>
</g>
</g>
<defs>
<clipPath id="clip0_946_40357">
<rect width="24" height="24" fill="white"/>
</clipPath>
<clipPath id="clip1_946_40357">
<rect width="20" height="20" fill="white" transform="translate(2 2)"/>
</clipPath>
</defs>
</svg>
