<svg width="241" height="240" viewBox="0 0 241 240" fill="none" xmlns="http://www.w3.org/2000/svg">
<path d="M111.939 20.3206C125.525 19.2487 139.343 20.8565 152.248 25.2718C171.823 31.8586 189.185 44.7323 201.261 61.4604C207.672 70.2826 212.618 80.1656 215.826 90.5873C222.777 113.022 221.481 137.914 212.118 159.468C205.893 173.939 196.163 186.882 184.03 196.937C168.809 209.63 149.726 217.639 129.982 219.525C117.535 220.724 104.858 219.661 92.8228 216.253C73.2063 210.783 55.4914 199.003 42.6167 183.272C35.4801 174.608 29.8142 164.731 25.9832 154.184C17.4093 130.714 18.0571 104.005 27.8793 81.0154C35.5163 62.9321 48.6996 47.2898 65.0661 36.4599C78.9862 27.2267 95.2805 21.6257 111.939 20.3206ZM114.177 35.8795C102.242 36.7293 90.4875 40.1199 79.9676 45.8236C72.5613 49.839 65.7445 54.9569 59.8784 61.0022C46.6868 74.3702 38.1768 92.259 36.1779 110.925C34.1123 129.778 38.6022 149.366 48.9748 165.281C54.6073 173.692 62.653 180.476 71.9275 184.558C82.2584 189.159 94.0461 190.417 105.117 188.09C115.492 185.946 125.195 180.659 132.604 173.092C135.57 170.19 138.183 166.933 140.463 163.47C141.405 162.129 139.737 160.163 138.264 160.899C129.568 164.722 119.651 165.725 110.371 163.656C99.9344 161.382 90.4097 155.206 84.1016 146.592C77.6017 137.872 74.5269 126.712 75.5416 115.899C76.3062 107.443 79.5728 99.2457 84.7994 92.5534C90.165 85.625 97.6158 80.3267 105.951 77.5859C114.791 74.6312 124.569 74.5035 133.457 77.3415C146.563 81.4069 157.513 91.8009 162.17 104.708C167.897 121.5 167.669 140.269 161.364 156.872C157.605 166.847 151.775 176.055 144.28 183.65C137.118 191.011 128.428 196.865 118.962 200.844C118.036 201.205 117.508 202.394 118.002 203.291C118.305 203.999 119.101 204.346 119.837 204.346C130.847 204.335 141.867 202.236 152.059 198.054C170.194 190.714 185.498 176.774 194.645 159.513C200.85 147.917 204.275 134.851 204.536 121.705C204.762 110.028 202.537 98.2988 198.009 87.5272C193.93 77.7969 188.02 68.8275 180.638 61.2799C172.932 53.3352 163.63 46.9594 153.466 42.5774C141.155 37.2597 127.558 34.891 114.177 35.8795ZM118.525 91.0094C115.845 91.176 113.184 91.6842 110.649 92.5645C104.266 94.7138 98.7556 99.2374 95.2777 104.983C92.0805 110.212 90.5904 116.465 91.1687 122.572C91.6691 128.126 93.7903 133.527 97.246 137.911C102.573 144.779 111.13 149.011 119.832 149.022C126.268 149.102 132.706 146.95 137.797 143.018C145.514 137.153 149.968 127.267 149.079 117.604C148.386 108.709 143.329 100.287 135.765 95.5302C130.682 92.2646 124.558 90.6734 118.525 91.0094Z" fill="#0066CC"/>
</svg>
