<svg width="24" height="24" viewBox="0 0 24 24" fill="none" xmlns="http://www.w3.org/2000/svg">
<g clip-path="url(#clip0_946_40413)">
<path d="M11.2123 14.1065C11.2063 14.1185 11.2095 14.1111 11.2083 14.1127L11.136 14.2211L11.0622 14.1137C10.9658 13.9737 10.8346 13.8405 10.6746 13.7527C10.6129 13.7185 10.5471 13.6921 10.4789 13.6741L10.4779 13.6739C10.0868 13.5723 9.8059 13.4976 9.60348 13.3583C9.39181 13.2126 9.27464 13.0063 9.22657 12.648C9.18076 12.3074 9.30681 12.0828 9.41997 11.8811C9.49157 11.7535 9.55729 11.6362 9.55567 11.5132C9.55191 11.2338 9.46016 11.1272 9.36615 11.0181L9.36577 11.0177L9.32847 10.9744L9.28303 10.9198L9.32709 10.8635L9.75733 10.3139L9.79713 10.2633L9.8571 10.2854C10.1936 10.4097 10.4549 10.3952 10.6526 10.3287C10.8495 10.2625 10.9866 10.1436 11.0717 10.0593L11.1317 10L11.1935 10.057C11.195 10.0583 11.742 10.5686 12.4031 10.2898L12.4664 10.263L12.5078 10.3175L12.9382 10.8844L12.98 10.9395L12.9362 10.9935C12.9193 11.0142 12.9008 11.0351 12.8824 11.0559C12.7965 11.1528 12.7137 11.2464 12.7172 11.5082C12.7189 11.6311 12.7826 11.7491 12.8514 11.8769C12.9621 12.0823 13.0851 12.3099 13.0401 12.651C12.945 13.3753 12.5895 13.4668 11.7986 13.67V13.6696L11.7896 13.6721L11.7891 13.6725C11.605 13.7198 11.4519 13.8267 11.3332 13.954C11.31 13.9789 11.2878 14.0047 11.2669 14.0315C11.2473 14.0564 11.2292 14.0816 11.2123 14.1065Z" fill="#344572"/>
<path d="M11.1337 13.9155C11.1558 13.8879 11.1792 13.8604 11.2042 13.8335C11.3439 13.6839 11.5254 13.5575 11.7458 13.501V13.5013L11.755 13.4987L11.7554 13.4985C12.4665 13.3159 12.7861 13.2336 12.8658 12.628C12.903 12.3437 12.7945 12.1421 12.6963 11.9604C12.6166 11.8125 12.5427 11.676 12.5406 11.51C12.5362 11.1813 12.6416 11.0623 12.7507 10.939L12.7545 10.9348L12.4072 10.4772C11.8123 10.6914 11.3103 10.3714 11.1381 10.2393C11.0397 10.328 10.8989 10.4319 10.7086 10.4958C10.4903 10.5693 10.2092 10.5896 9.85703 10.4724L9.51028 10.9153C9.62219 11.0455 9.72797 11.1787 9.73247 11.511C9.73485 11.6808 9.65787 11.8181 9.574 11.9674C9.47436 12.1452 9.36345 12.3428 9.40125 12.6246C9.44194 12.9271 9.53569 13.0977 9.70356 13.2133C9.88081 13.3353 10.1486 13.4064 10.522 13.5031L10.523 13.5035C10.6055 13.5249 10.685 13.5566 10.7596 13.5979C10.9071 13.6788 11.033 13.792 11.1337 13.9155Z" fill="#DCB23B"/>
<path fill-rule="evenodd" clip-rule="evenodd" d="M11.1402 12.4688L11.7843 12.9478L11.5423 12.1671L12.2798 11.6983L11.3889 11.6788L11.1402 10.9003L10.8915 11.6788L10.0025 11.6983L10.738 12.1671L10.4959 12.9478L11.1402 12.4688ZM22.4849 10.6766V10.9977H22.4406V10.6766H22.3264V10.6344H22.5993V10.6766H22.4849ZM23 10.9977H22.9552V10.6935L22.8492 10.9977H22.8015L22.6948 10.6935V10.9977H22.6506V10.6344H22.7186L22.8251 10.9406L22.9323 10.6344H23V10.9977ZM2.53769 13.5717H1V10.4145H2.4557C3.0881 10.4145 3.40656 10.7421 3.40656 11.2698C3.40656 11.5336 3.29277 11.7475 3.09712 11.8883C3.36562 12.0294 3.52936 12.2841 3.52936 12.6435C3.52923 13.2076 3.14719 13.5717 2.53769 13.5717ZM1.60061 10.9605V11.6565H2.4557C2.66049 11.6565 2.82423 11.5154 2.82423 11.3062C2.82423 11.0971 2.68315 10.9605 2.4557 10.9605H1.60061ZM2.44193 12.2068H1.60061V13.0211H2.4557C2.68778 13.0211 2.91511 12.9301 2.91511 12.6207C2.91511 12.3571 2.74674 12.2068 2.44193 12.2068ZM3.64365 10.1873H4.24413V13.5717H3.64365V10.1873ZM6.49459 13.5717H5.92164V13.3578C5.77581 13.5262 5.57114 13.6263 5.32542 13.6263C4.77038 13.6263 4.4021 13.2122 4.4021 12.5981V11.2288H5.00246V12.598C5.00246 12.7301 5.04802 13.0575 5.43908 13.0575C5.70771 13.0575 5.8941 12.8573 5.8941 12.598V11.2288H6.49446L6.49459 13.5717ZM7.20059 12.6344C7.27795 12.9212 7.54821 13.0987 7.83012 13.0987C8.03028 13.0987 8.31168 13.0119 8.36888 12.8254H9.0103C8.91667 13.303 8.41695 13.6261 7.83475 13.6261C7.17531 13.6261 6.5911 13.0801 6.5911 12.4023C6.5911 11.7246 7.13237 11.1697 7.79206 11.1697C8.4833 11.1697 9.09955 11.7063 9.01293 12.6343H7.20059V12.6344ZM8.37414 12.1432C8.30129 11.8704 8.07409 11.6974 7.78718 11.6974C7.51429 11.6974 7.29598 11.8704 7.20948 12.1432H8.37414ZM14.7301 13.6262C13.8702 13.6262 13.2015 12.9028 13.2015 11.9793C13.2015 11.0559 13.8702 10.3326 14.7301 10.3326C15.4442 10.3326 15.9719 10.7376 16.1676 11.3834H15.5171C15.376 11.0969 15.0944 10.8833 14.7301 10.8833C14.2115 10.8833 13.802 11.3834 13.802 11.9793C13.802 12.5797 14.2115 13.0801 14.7301 13.0801C15.0895 13.0801 15.376 12.8573 15.5171 12.5707H16.1632C15.9628 13.2122 15.4308 13.6262 14.7301 13.6262ZM18.5838 12.4024C18.5838 13.1029 18.0516 13.6262 17.401 13.6262C16.7505 13.6262 16.2228 13.1028 16.2228 12.4024C16.2228 11.7021 16.7505 11.1698 17.401 11.1698C18.0516 11.1698 18.5838 11.7019 18.5838 12.4024ZM17.9787 12.4068C17.9787 12.0022 17.7196 11.7201 17.401 11.7201C17.0824 11.7201 16.8231 12.0022 16.8231 12.4068C16.8231 12.8028 17.0824 13.0759 17.401 13.0759C17.7196 13.0759 17.9787 12.8028 17.9787 12.4068ZM20.3033 13.3534C20.1486 13.5171 19.9121 13.6173 19.5843 13.6173C19.0887 13.6173 18.6334 13.3668 18.6334 12.8575C18.6334 12.3298 19.0747 12.1933 19.5933 12.1479C19.9847 12.1111 20.2625 12.0658 20.2625 11.8749C20.2625 11.7521 20.1029 11.6519 19.8349 11.6519C19.6209 11.6519 19.3752 11.7476 19.3208 11.9475H18.72C18.7792 11.5016 19.2068 11.1698 19.821 11.1698C20.7716 11.1698 20.8447 11.7838 20.8447 11.9702V13.1894C20.8447 13.3031 20.8811 13.4806 20.9129 13.5717H20.3624C20.3351 13.5126 20.3167 13.4395 20.3033 13.3534ZM20.2849 12.4435C20.1572 12.5254 19.9619 12.5663 19.7162 12.5935C19.4206 12.6252 19.2388 12.689 19.2388 12.862C19.2388 12.9939 19.3932 13.0848 19.6343 13.0848C19.9937 13.0848 20.2849 12.9621 20.2849 12.6618V12.4435ZM22.2592 13.5673C21.5722 13.6398 21.2083 13.2259 21.2083 12.5843V11.761H20.9264V11.2288H21.2083V10.6328H21.8088V11.2288H22.232V11.761H21.8088V12.5891C21.8088 12.9164 21.9589 13.0393 22.2592 13.0211V13.5673Z" fill="#344572"/>
</g>
<defs>
<clipPath id="clip0_946_40413">
<rect width="24" height="24" fill="white"/>
</clipPath>
</defs>
</svg>
