<svg width="24" height="24" viewBox="0 0 24 24" fill="none" xmlns="http://www.w3.org/2000/svg">
<g clip-path="url(#clip0_946_40424)">
<path d="M10.3962 11.2385L11.1171 11.9554L10.3962 12.6722H5.32125V15.0606L2.22632 11.9554L5.32125 8.90235V11.2385H10.3962ZM12.627 5.13942H18.7933V11.3058H12.627V5.13942Z" fill="#932279"/>
<path d="M12.6943 10.3962L11.9775 11.1172L11.2607 10.3962V5.32129H8.87219L11.9775 2.22636L15.0304 5.32129H12.6943V10.3962ZM12.6271 12.627H18.7934V18.7935H12.6271V12.627Z" fill="#EFA724"/>
<path d="M13.5366 12.6942L12.8155 11.9775L13.5366 11.2607H18.6114V8.87213L21.7065 11.9775L18.6114 15.0304V12.6942H13.5366ZM5.1394 12.627H11.3057V18.7934H5.1394V12.627Z" fill="#262577"/>
<path d="M11.2385 13.5366L11.9553 12.8155L12.6722 13.5366V18.6116H15.0606L11.9553 21.7065L8.90247 18.6116H11.2385V13.5366ZM5.1394 5.13942H11.3057V11.3058H5.1394V5.13942Z" fill="#9CCD2A"/>
<path d="M4.91919 4.91916H11.526V11.526H4.91919V4.91916ZM5.35958 11.0856H11.0855V5.35969H5.35958V11.0856ZM12.4069 4.91916H19.0137V11.526H12.4069V4.91916ZM12.8473 11.0856H18.5732V5.35969H12.8473V11.0856ZM12.4069 12.4069H19.0137V19.0139H12.4069V12.4069ZM12.8473 18.5732H18.5732V12.8473H12.8473V18.5732ZM4.91919 12.4069H11.526V19.0139H4.91919V12.4069ZM5.35958 18.5732H11.0855V12.8473H5.35958V18.5732Z" fill="white"/>
<path d="M6.67185 16.6382L2 11.9664L6.67171 7.29466L11.3436 11.9664L6.67185 16.6382ZM2.62295 11.9664L6.67185 16.0153L10.7206 11.9664L6.67171 7.91761L2.62295 11.9664ZM11.9664 11.3436L7.29466 6.67185L11.9664 2L16.6381 6.67185L11.9664 11.3436ZM7.91761 6.67185L11.9664 10.7206L16.0153 6.67185L11.9664 2.62295L7.91761 6.67185ZM17.261 16.6382L12.5893 11.9664L17.261 7.29466L21.9327 11.9664L17.261 16.6382ZM13.2121 11.9664L17.261 16.0153L21.3098 11.9664L17.261 7.91761L13.2121 11.9664ZM11.9664 21.9327L7.29466 17.261L11.9664 12.5893L16.6381 17.261L11.9664 21.9327ZM7.91761 17.261L11.9664 21.3098L16.0153 17.261L11.9664 13.2123L7.91761 17.261Z" fill="white"/>
</g>
<defs>
<clipPath id="clip0_946_40424">
<rect width="24" height="24" fill="white"/>
</clipPath>
</defs>
</svg>
