<svg width="24" height="24" viewBox="0 0 24 24" fill="none" xmlns="http://www.w3.org/2000/svg">
<g clip-path="url(#clip0_946_40454)">
<path d="M8.35584 2.06382C8.42428 2.10806 8.47506 2.16103 8.50284 2.23959C8.53061 2.38579 8.51692 2.53239 8.49351 2.67781C8.46931 2.82877 8.45344 2.98033 8.43816 3.13229C8.42963 3.21561 8.42091 3.29873 8.41238 3.38185C8.41059 3.39832 8.409 3.41478 8.40722 3.43184C8.39214 3.57607 8.37647 3.72009 8.36 3.86411C8.35782 3.88375 8.35564 3.90339 8.35346 3.92363C8.33977 4.04087 8.32211 4.15672 8.30108 4.27257C8.28879 4.35669 8.28541 4.44159 8.29315 4.5261C8.33164 4.56479 8.39016 4.54852 8.44134 4.54872C8.46019 4.54872 8.47883 4.54852 8.49808 4.54852C8.52783 4.54852 8.52783 4.54852 8.55799 4.54872C8.62524 4.54872 8.69249 4.54872 8.75954 4.54872C8.80794 4.54872 8.85615 4.54872 8.90455 4.54872C9.00989 4.54892 9.11543 4.54892 9.22077 4.54892C9.37769 4.54892 9.53441 4.54892 9.69133 4.54912C9.9389 4.54912 10.1865 4.54931 10.4341 4.54931C10.827 4.54951 11.22 4.54971 11.613 4.55011C11.6967 4.55031 11.7803 4.55031 11.8638 4.55031C11.8804 4.5505 11.8971 4.5505 11.9144 4.5505C11.9481 4.5505 11.9818 4.5505 12.0155 4.5505C12.0495 4.5505 12.0834 4.5505 12.1173 4.5507C12.5172 4.5511 12.9172 4.5513 13.3169 4.55169C13.3433 4.55169 13.3433 4.55169 13.3701 4.55169C13.9376 4.55209 14.5054 4.55229 15.0731 4.55249C15.6564 4.55269 16.2396 4.55308 16.8229 4.55388C16.9054 4.55388 16.9877 4.55407 17.07 4.55407C17.0861 4.55407 17.1024 4.55407 17.119 4.55427C17.3801 4.55447 17.6414 4.55447 17.9024 4.55447C18.1647 4.55427 18.4271 4.55447 18.6894 4.55507C18.8453 4.55526 19.0013 4.55526 19.1574 4.55507C19.2736 4.55487 19.3899 4.55507 19.5061 4.55566C19.5533 4.55566 19.6006 4.55566 19.6478 4.55546C19.7117 4.55526 19.7755 4.55546 19.8394 4.55586C19.8579 4.55566 19.8763 4.55546 19.8955 4.55526C20.0082 4.55665 20.0691 4.57213 20.1562 4.64513C20.2409 4.74492 20.2443 4.85997 20.2441 4.98575C20.2342 5.05022 20.2149 5.0891 20.1761 5.14108C20.163 5.14108 20.1499 5.14108 20.1364 5.14108C20.132 5.15477 20.1278 5.16845 20.1233 5.18254C20.0888 5.25713 20.0408 5.3099 19.9862 5.3706C19.9098 5.45749 19.8366 5.54498 19.768 5.63841C19.6964 5.73602 19.6202 5.82846 19.5414 5.92051C19.4345 6.04569 19.3323 6.17404 19.2326 6.30497C19.1457 6.41904 19.0558 6.52953 18.9626 6.63844C18.9146 6.69439 18.8681 6.75073 18.8245 6.81004C18.8156 6.82214 18.8066 6.83404 18.7973 6.84654C18.7739 6.87809 18.7507 6.90983 18.7277 6.94157C18.6138 7.09055 18.5089 7.18319 18.3212 7.21672C18.2062 7.19609 18.0915 7.15443 18.0183 7.0598C17.9725 6.95902 17.978 6.85626 17.9939 6.74795C18.023 6.68447 18.0651 6.64003 18.1129 6.58925C18.1423 6.55354 18.1716 6.51763 18.2008 6.48153C18.2163 6.46288 18.2315 6.44423 18.2472 6.42519C18.2974 6.36369 18.346 6.301 18.3944 6.23831C18.4345 6.18713 18.4757 6.13714 18.517 6.08715C18.5787 6.01216 18.6378 5.93598 18.6956 5.85782C18.7701 5.75705 18.8493 5.66123 18.9318 5.5668C18.9834 5.50709 19.0253 5.44718 19.0651 5.37913C19.0973 5.34541 19.1302 5.31208 19.1643 5.27994C19.1512 5.27994 19.1381 5.27994 19.1246 5.27994C19.1246 5.26705 19.1246 5.25396 19.1246 5.24027C19.0889 5.24047 19.0889 5.24047 19.0524 5.24047C18.0032 5.24245 16.9538 5.24424 15.9046 5.24543C15.8808 5.24543 15.8808 5.24543 15.8564 5.24543C15.5112 5.24582 15.166 5.24622 14.8206 5.24642C14.6514 5.24662 14.4822 5.24681 14.3128 5.24681C14.2959 5.24701 14.279 5.24701 14.2618 5.24701C13.7156 5.24741 13.1695 5.2484 12.6236 5.24939C12.0624 5.25058 11.5011 5.25138 10.9399 5.25158C10.8608 5.25158 10.7814 5.25158 10.7023 5.25158C10.6866 5.25158 10.6709 5.25177 10.6549 5.25177C10.4037 5.25177 10.1528 5.25237 9.90161 5.25316C9.64907 5.25376 9.39673 5.25396 9.1442 5.25396C9.00731 5.25376 8.87063 5.25396 8.73375 5.25455C8.60857 5.25515 8.4834 5.25515 8.35822 5.25475C8.31299 5.25475 8.26756 5.25495 8.22233 5.25515C7.81367 5.25832 7.81367 5.25832 7.66984 5.15457C7.58315 5.06272 7.59426 4.97047 7.59605 4.85025C7.60081 4.73341 7.6137 4.62053 7.6385 4.50627C7.65199 4.4287 7.6633 4.35113 7.67242 4.27297C7.67639 4.24163 7.67639 4.24163 7.68016 4.20949C7.68551 4.16585 7.69067 4.12201 7.69583 4.07816C7.6996 4.04702 7.6996 4.04702 7.70357 4.01508C7.70694 3.98651 7.70694 3.98651 7.71031 3.95755C7.71785 3.91113 7.71785 3.91113 7.73769 3.87145C7.74324 3.83396 7.74781 3.79607 7.75177 3.75838C7.75435 3.73556 7.75693 3.71295 7.75951 3.68954C7.76348 3.65383 7.76348 3.65383 7.76745 3.61733C7.7724 3.57051 7.77756 3.52369 7.78292 3.47688C7.78629 3.44553 7.78629 3.44553 7.78966 3.41379C7.79641 3.36063 7.80573 3.30885 7.81704 3.25648C7.71091 3.28623 7.64683 3.35765 7.57026 3.43264C7.43516 3.56416 7.43516 3.56416 7.36176 3.61277C7.27745 3.66911 7.20782 3.73814 7.13501 3.80837C7.02729 3.91152 6.91818 4.0123 6.80531 4.10951C6.78031 4.13133 6.75512 4.15295 6.73012 4.17477C6.70572 4.196 6.68112 4.21723 6.65652 4.23845C6.56507 4.31781 6.47362 4.39716 6.38276 4.47691C6.34685 4.50805 6.31075 4.5388 6.27464 4.56955C6.23874 4.6001 6.20501 4.63065 6.17168 4.66378C6.12268 4.71278 6.07051 4.75761 6.01814 4.80304C5.96696 4.84807 5.91677 4.8941 5.86658 4.94032C5.79476 5.00598 5.72176 5.06907 5.64598 5.12997C5.54441 5.2119 5.44879 5.29859 5.35357 5.38766C5.31429 5.42357 5.27501 5.45809 5.23395 5.49181C5.1784 5.53645 5.1784 5.53645 5.13138 5.58505C5.03418 5.68226 4.92884 5.76954 4.82152 5.85524C4.78144 5.88996 4.74177 5.92487 4.70209 5.95979C4.66837 5.98935 4.63425 6.01791 4.59953 6.04628C4.54319 6.0925 4.54319 6.0925 4.4928 6.14428C4.44599 6.1911 4.39699 6.23058 4.34541 6.27184C4.33093 6.28632 4.31664 6.3006 4.30196 6.31528C4.00816 6.60908 4.00816 6.60908 3.88914 6.6686C3.90044 6.73704 3.92207 6.76779 3.97265 6.8146C3.98575 6.8269 3.99884 6.8392 4.01233 6.8517C4.02661 6.8646 4.0407 6.87749 4.05518 6.89058C4.06966 6.90387 4.08414 6.91736 4.09902 6.93105C4.19385 7.01794 4.29125 7.10067 4.39183 7.18101C4.47336 7.24786 4.55013 7.31988 4.6275 7.39169C4.68424 7.44386 4.74197 7.49465 4.80029 7.54504C4.86992 7.60653 4.93777 7.67001 5.00561 7.7333C5.06056 7.78051 5.11829 7.819 5.1786 7.85887C5.20518 7.8918 5.23157 7.92493 5.25795 7.95806C5.30893 8.00666 5.36289 8.0515 5.41665 8.09693C5.46208 8.13581 5.50751 8.17469 5.55294 8.21357C5.56504 8.22389 5.57714 8.2342 5.58944 8.24472C5.70906 8.34728 5.82591 8.45242 5.94196 8.55875C6.04016 8.64802 6.14034 8.73313 6.24528 8.81466C6.28952 8.85096 6.3288 8.88945 6.36887 8.93012C6.39129 8.95035 6.4141 8.97019 6.43692 8.98963C6.51151 9.0543 6.58411 9.12096 6.65652 9.18801C6.77119 9.29454 6.88783 9.39809 7.00706 9.49966C7.03067 9.5197 7.05427 9.53994 7.07808 9.56017C7.08998 9.57029 7.10188 9.5804 7.11438 9.59092C7.19254 9.65817 7.26912 9.72681 7.3445 9.79684C7.48674 9.92836 7.63235 10.0577 7.7972 10.1601C7.7972 10.1537 7.7972 10.147 7.7972 10.1402C7.80117 10.1244 7.80534 10.1085 7.8095 10.092C7.81188 10.0752 7.81446 10.0585 7.81704 10.041C7.80395 10.0279 7.79085 10.0151 7.77736 10.0014C7.76883 9.96427 7.76883 9.96427 7.76387 9.91785C7.76189 9.89999 7.75971 9.88214 7.75773 9.86389C7.75554 9.84425 7.75336 9.82461 7.75118 9.80437C7.72777 9.60183 7.70119 9.39988 7.67242 9.19813C7.66786 9.16659 7.66349 9.13524 7.65913 9.1037C7.65278 9.05906 7.64643 9.01463 7.64009 8.96999C7.63652 8.9442 7.63275 8.91841 7.62898 8.89163C7.62184 8.83291 7.62184 8.83291 7.59882 8.79125C7.57502 8.65278 7.54883 8.46928 7.59882 8.33498C7.64703 8.29292 7.64703 8.29292 7.69801 8.25563C7.71111 8.23599 7.7242 8.21635 7.73769 8.19612C8.08604 8.08939 8.50799 8.10347 8.86845 8.07709C8.86032 8.08641 8.85218 8.09554 8.84405 8.10506C8.82798 8.12331 8.82798 8.12331 8.81171 8.14216C8.8014 8.15426 8.79088 8.16616 8.77997 8.17866C8.67701 8.30443 8.66134 8.41076 8.66333 8.57204C8.67007 8.63275 8.68455 8.67659 8.70975 8.73174C8.7153 8.74939 8.72105 8.76705 8.727 8.7851C8.75438 8.84144 8.77065 8.84977 8.82877 8.8706C8.84921 8.87715 8.86964 8.8839 8.89067 8.89044C8.9478 8.91028 8.9478 8.91028 8.98748 8.94996C8.95633 8.95055 8.92538 8.95095 8.89444 8.95134C8.87718 8.95154 8.85992 8.95174 8.84206 8.95194C8.7889 8.94996 8.74188 8.94083 8.68991 8.93012C8.64805 8.92635 8.60639 8.92317 8.56453 8.9202C8.46673 8.91365 8.37032 8.90334 8.27331 8.89044C8.27549 8.94559 8.27807 9.00054 8.28065 9.05549C8.28164 9.07831 8.28164 9.07831 8.28244 9.10152C8.2868 9.18543 8.29553 9.26617 8.3114 9.3487C8.33937 9.49371 8.35326 9.64031 8.36873 9.78692C8.39036 9.99045 8.41337 10.1934 8.43995 10.3963C8.44233 10.4142 8.44471 10.4318 8.44709 10.4503C8.46078 10.5552 8.46078 10.5552 8.47487 10.6602C8.53438 11.0932 8.53438 11.0932 8.46257 11.2246C8.37449 11.315 8.31755 11.3615 8.19019 11.3789C8.03089 11.3607 7.91504 11.2801 7.80851 11.1645C7.77518 11.1278 7.77518 11.1278 7.71785 11.0924C7.65516 11.0508 7.60854 11.005 7.55657 10.9512C7.50479 10.8994 7.44885 10.853 7.39251 10.8064C7.36077 10.775 7.36077 10.775 7.34093 10.7155C7.31455 10.702 7.28816 10.6889 7.26158 10.6759C7.19096 10.6201 7.12668 10.561 7.0632 10.4973C6.94278 10.3888 6.8186 10.2847 6.69541 10.1793C6.6843 10.1698 6.67299 10.1601 6.66148 10.1501C6.63728 10.1295 6.61308 10.1089 6.58888 10.0883C6.57658 10.0779 6.56447 10.0674 6.55178 10.0567C6.54067 10.0472 6.52956 10.0379 6.51825 10.0281C6.46211 9.97895 6.41073 9.92539 6.35935 9.87143C6.27345 9.78315 6.18101 9.70578 6.08519 9.62841C6.01258 9.56949 5.94275 9.508 5.87293 9.4459C5.84773 9.42408 5.82234 9.40226 5.79714 9.38024C5.5579 9.17095 5.5579 9.17095 5.46466 9.07732C5.43054 9.04339 5.39463 9.01245 5.35833 8.9811C5.30278 8.9329 5.25041 8.8831 5.19844 8.83093C5.16154 8.79839 5.12444 8.76646 5.08734 8.73432C5.04172 8.69405 4.99708 8.65298 4.95265 8.61152C4.85861 8.52423 4.76299 8.44191 4.66063 8.36454C4.61084 8.32546 4.56799 8.28102 4.52395 8.23579C4.49439 8.21139 4.49439 8.21139 4.46443 8.1862C4.4079 8.13938 4.35751 8.08939 4.30573 8.03741C4.28927 8.02432 4.273 8.01142 4.25614 7.99774C4.20218 7.95489 4.15595 7.90767 4.10735 7.85887C4.06133 7.81483 4.01491 7.77119 3.96849 7.72754C3.95639 7.71624 3.94448 7.70493 3.93218 7.69322C3.86791 7.63312 3.80641 7.5859 3.73043 7.54146C3.70028 7.51032 3.70028 7.51032 3.67449 7.47719C3.59196 7.37661 3.49277 7.29726 3.39319 7.21414C3.33248 7.16355 3.27297 7.11178 3.21385 7.0594C3.17914 7.02945 3.14382 7.00088 3.10792 6.97251C3.02242 6.89713 3.00754 6.83107 3 6.71819C3.00159 6.57873 3.05039 6.50612 3.14561 6.41189C3.17457 6.38452 3.20453 6.35794 3.23448 6.33135C3.24877 6.31826 3.26305 6.30497 3.27793 6.29148C3.31562 6.25756 3.35431 6.22502 3.39319 6.19249C3.51003 6.09092 3.51003 6.09092 3.62132 5.983C3.66477 5.94074 3.70801 5.90543 3.75642 5.86893C3.83359 5.81001 3.90124 5.74594 3.96888 5.6765C4.03177 5.61342 4.09902 5.55589 4.16687 5.49816C4.17837 5.48804 4.18988 5.47793 4.20178 5.46761C4.28113 5.39897 4.28113 5.39897 4.32557 5.39897C4.32954 5.38826 4.3337 5.37755 4.33787 5.36664C4.37616 5.30097 4.42952 5.25475 4.48546 5.20436C4.49697 5.19385 4.50847 5.18333 4.52038 5.17242C4.59913 5.1014 4.68047 5.03514 4.76518 4.97127C4.81457 4.93258 4.85703 4.88854 4.90087 4.84351C5.00442 4.74829 5.11016 4.65505 5.21649 4.5626C5.24803 4.53483 5.27938 4.50646 5.31032 4.4779C5.32818 4.46163 5.34603 4.44516 5.36448 4.4283C5.38095 4.41303 5.39761 4.39755 5.41447 4.38188C5.45633 4.34756 5.45633 4.34756 5.49601 4.34756C5.50096 4.33586 5.50592 4.32395 5.51108 4.31166C5.53886 4.26246 5.56504 4.24202 5.61126 4.21009C5.67951 4.16267 5.73525 4.10951 5.79357 4.04999C5.94375 3.90518 6.0965 3.76532 6.25976 3.63518C6.32662 3.57924 6.38613 3.51735 6.44684 3.45486C6.48413 3.41895 6.52063 3.38979 6.56348 3.36082C6.62716 3.32016 6.62716 3.32016 6.66505 3.26778C6.71286 3.20847 6.76603 3.17137 6.82733 3.12713C6.87454 3.09024 6.90708 3.0456 6.94417 2.99858C6.98385 2.9722 7.02352 2.94582 7.0632 2.91923C7.09831 2.8863 7.13184 2.85178 7.16556 2.81727C7.25821 2.72383 7.36037 2.6413 7.46353 2.55977C7.53316 2.50442 7.59684 2.44828 7.65834 2.38361C8.07533 1.95035 8.07533 1.95035 8.35584 2.06382Z" fill="black"/>
<path d="M15.9991 12.3866C16.0586 12.4279 16.1104 12.4749 16.1626 12.5247C16.2531 12.6094 16.3467 12.6881 16.4443 12.7649C16.4953 12.806 16.5403 12.8504 16.5853 12.8978C16.6605 12.977 16.7381 13.049 16.8234 13.1172C16.9565 13.2243 17.0795 13.3416 17.2037 13.4588C17.3937 13.6405 17.3937 13.6405 17.6006 13.8022C17.65 13.8405 17.6921 13.8849 17.7359 13.9294C17.7742 13.9651 17.8125 14.0008 17.8512 14.0359C17.8617 14.0456 17.8722 14.0552 17.8831 14.0651C17.9389 14.1161 17.995 14.1664 18.0522 14.2158C18.1234 14.2775 18.1926 14.3414 18.2616 14.4055C18.3791 14.5142 18.4981 14.6203 18.6207 14.7233C18.6398 14.7394 18.6398 14.7394 18.6592 14.7558C18.6848 14.7775 18.7106 14.7989 18.7364 14.8203C18.7673 14.8465 18.7973 14.8739 18.827 14.9014C18.827 14.9145 18.827 14.9276 18.827 14.9411C18.8387 14.9465 18.8504 14.9518 18.8625 14.9574C18.9056 14.9804 18.9369 15.0042 18.9734 15.0365C18.9869 15.0488 19.0006 15.0609 19.0147 15.0736C19.0905 15.1429 19.1659 15.2131 19.241 15.2831C19.3263 15.3627 19.413 15.4404 19.5015 15.5164C19.6551 15.6485 19.8078 15.7809 19.9566 15.9183C20.0084 15.9661 20.0605 16.0134 20.1141 16.0594C20.1758 16.1127 20.2353 16.1681 20.2948 16.2238C20.4232 16.3443 20.5545 16.4577 20.6918 16.5678C20.8362 16.6884 20.9544 16.796 20.9993 16.9868C21.0068 17.1027 20.958 17.1927 20.8902 17.282C20.7926 17.3832 20.6835 17.4681 20.57 17.5506C20.5186 17.5909 20.4746 17.6365 20.4291 17.6833C20.3819 17.7307 20.3317 17.7738 20.2809 17.8174C20.2262 17.8654 20.1726 17.9146 20.1191 17.9638C19.9727 18.0983 19.8263 18.2318 19.6739 18.3594C19.5505 18.4627 19.4325 18.5711 19.3148 18.681C18.9149 19.0535 18.9149 19.0535 18.7477 19.1864C18.6225 19.2922 18.5027 19.4039 18.3821 19.5147C18.2926 19.5973 18.2027 19.6796 18.1129 19.7617C18.096 19.7772 18.0789 19.7929 18.0615 19.8087C17.9805 19.8825 17.8984 19.9538 17.8129 20.022C17.7016 20.1119 17.5981 20.2089 17.4945 20.3075C17.4173 20.3809 17.3386 20.4521 17.258 20.5221C17.2017 20.5715 17.1471 20.6229 17.0924 20.6743C17.0228 20.7393 16.9533 20.8022 16.8768 20.859C16.7427 20.9597 16.6246 21.08 16.503 21.1952C16.4413 21.2533 16.3782 21.3099 16.3149 21.366C16.2802 21.3972 16.2461 21.4289 16.2124 21.461C16.0789 21.5866 15.9912 21.6646 15.8043 21.6773C15.6831 21.6737 15.6002 21.6315 15.5141 21.5471C15.4641 21.4741 15.4443 21.3976 15.4546 21.3091C15.4611 21.3025 15.4677 21.296 15.4744 21.2892C15.4802 21.2484 15.4847 21.2073 15.4887 21.1663C15.4913 21.1411 15.4937 21.1159 15.4964 21.0897C15.499 21.0629 15.5016 21.0359 15.5042 21.0089C15.5093 20.957 15.5145 20.9048 15.5196 20.8526C15.522 20.8294 15.5242 20.8062 15.5266 20.7822C15.5341 20.713 15.5437 20.6441 15.5538 20.5751C15.5569 20.5465 15.5599 20.5181 15.5625 20.4896C15.5762 20.3475 15.5923 20.2059 15.6083 20.0643C15.6117 20.0335 15.6151 20.0026 15.6182 19.9716C15.6198 19.9559 15.6216 19.9403 15.6232 19.9242C15.6246 19.9101 15.6262 19.896 15.6276 19.8816C15.6331 19.8405 15.6426 19.8018 15.653 19.7617C15.6597 19.7167 15.6659 19.6717 15.6716 19.6266C15.6746 19.603 15.6778 19.5796 15.6807 19.5556C15.6825 19.5421 15.6843 19.5288 15.6861 19.5151C15.695 19.4465 15.7041 19.3781 15.7133 19.3096C15.7151 19.2959 15.7168 19.282 15.7188 19.268C15.7234 19.234 15.7277 19.2003 15.7323 19.1666C15.6952 19.1666 15.6952 19.1666 15.6573 19.1666C14.565 19.1668 13.473 19.1668 12.3809 19.166C12.3644 19.166 12.348 19.166 12.3309 19.166C11.9716 19.1656 11.6124 19.1654 11.2531 19.165C11.0769 19.165 10.9008 19.1648 10.7246 19.1646C10.707 19.1646 10.6895 19.1646 10.6715 19.1646C10.1031 19.1642 9.53475 19.164 8.96639 19.1642C8.38237 19.1644 7.79834 19.164 7.21431 19.1634C7.13178 19.1632 7.04926 19.1632 6.96693 19.163C6.95066 19.163 6.9344 19.163 6.91773 19.163C6.65627 19.1626 6.395 19.1628 6.13354 19.163C5.87089 19.1632 5.60804 19.1632 5.34538 19.1624C5.18926 19.1622 5.03313 19.1622 4.87701 19.1626C4.76056 19.1628 4.64391 19.1626 4.52746 19.162C4.48025 19.1618 4.43304 19.162 4.38582 19.1622C4.32175 19.1626 4.25767 19.1622 4.19359 19.1616C4.17534 19.162 4.15689 19.1622 4.13805 19.1626C3.98271 19.1598 3.87876 19.0968 3.77005 18.9881C3.76509 18.9321 3.76271 18.8791 3.76271 18.8232C3.76192 18.8006 3.76192 18.8006 3.76113 18.7774C3.76053 18.6754 3.77541 18.6268 3.8494 18.5516C3.86309 18.535 3.87658 18.5183 3.89067 18.5012C3.90495 18.4838 3.91904 18.4665 3.93372 18.4487C4.05314 18.303 4.17078 18.156 4.28604 18.0073C4.33623 17.9426 4.38661 17.8783 4.4372 17.8138C4.44613 17.8023 4.45525 17.7908 4.46458 17.7789C4.5227 17.7047 4.58241 17.6319 4.64292 17.5597C4.73874 17.4441 4.83317 17.3272 4.92561 17.2088C5.00814 17.1035 5.09165 16.9989 5.17616 16.8952C5.18668 16.8821 5.19739 16.869 5.2083 16.8555C5.22854 16.8307 5.24877 16.8059 5.2692 16.7813C5.28745 16.7587 5.3057 16.7361 5.32356 16.713C5.4041 16.6115 5.49377 16.5527 5.61498 16.5083C5.70822 16.4996 5.784 16.5166 5.87049 16.5504C5.97464 16.6424 6.00499 16.7446 6.01392 16.8795C6.01094 16.9414 5.98972 16.9755 5.95222 17.0241C5.94607 17.041 5.93992 17.0576 5.93357 17.0749C5.90878 17.1318 5.87723 17.1592 5.83319 17.2026C5.80602 17.235 5.77904 17.2677 5.75265 17.3006C5.69373 17.3732 5.63422 17.4451 5.57332 17.5161C5.4783 17.627 5.38922 17.7404 5.30253 17.8579C5.25591 17.9194 5.20731 17.9783 5.15752 18.037C5.07816 18.1309 5.00496 18.2275 4.93434 18.3278C4.90557 18.3667 4.87661 18.3997 4.8413 18.4326C4.93612 18.4816 5.0246 18.4776 5.12855 18.477C5.15732 18.477 5.15732 18.477 5.18648 18.477C5.25095 18.4772 5.31543 18.477 5.3799 18.4766C5.42652 18.4766 5.47294 18.4766 5.51956 18.4766C5.63422 18.4766 5.74888 18.4766 5.86355 18.4762C6.00102 18.476 6.1385 18.476 6.27578 18.4758C6.51383 18.4758 6.75189 18.4756 6.98994 18.4752C7.36786 18.4748 7.74557 18.4748 8.12348 18.4748C8.20383 18.4748 8.28437 18.4748 8.36471 18.475C8.38078 18.475 8.39665 18.475 8.41331 18.475C8.44565 18.475 8.47818 18.475 8.51072 18.475C8.54325 18.475 8.57598 18.475 8.60852 18.475C8.99298 18.475 9.37744 18.475 9.76189 18.475C9.78709 18.475 9.78709 18.475 9.81288 18.475C10.3586 18.4748 10.9044 18.4744 11.4501 18.4739C12.0109 18.4731 12.5719 18.4729 13.1329 18.4735C13.2121 18.4735 13.2913 18.4735 13.3704 18.4737C13.3861 18.4737 13.4018 18.4737 13.4178 18.4737C13.6688 18.4739 13.9197 18.4735 14.1707 18.4727C14.423 18.4721 14.6751 18.4721 14.9273 18.4727C15.064 18.4729 15.2007 18.4729 15.3373 18.4723C15.4623 18.4715 15.5873 18.4717 15.7125 18.4723C15.7577 18.4725 15.8029 18.4723 15.8484 18.4719C16.2294 18.4683 16.2294 18.4683 16.3344 18.5677C16.4332 18.6964 16.4173 18.8573 16.3997 19.0113C16.3899 19.0767 16.3794 19.1422 16.3683 19.2075C16.3455 19.3463 16.3237 19.484 16.3124 19.6243C16.3076 19.6625 16.3076 19.6625 16.2878 19.7022C16.279 19.7584 16.2713 19.8145 16.2642 19.871C16.262 19.8877 16.2598 19.9044 16.2576 19.9214C16.2507 19.9748 16.2437 20.0282 16.237 20.0815C16.2322 20.1178 16.2277 20.1539 16.2229 20.19C16.2114 20.2787 16.1999 20.3674 16.1886 20.4561C16.2509 20.4561 16.2755 20.416 16.3201 20.3741C16.3786 20.3192 16.4379 20.2686 16.5028 20.2212C16.5893 20.1571 16.6665 20.0855 16.744 20.0109C16.8795 19.8816 17.0166 19.7556 17.1644 19.6401C17.234 19.585 17.2969 19.5278 17.359 19.4642C17.3963 19.4308 17.434 19.3983 17.4717 19.3656C17.5437 19.3027 17.6137 19.2378 17.6842 19.1731C17.8248 19.0476 17.8248 19.0476 17.8748 19.0476C17.8788 19.0369 17.8827 19.0259 17.8867 19.0148C17.9264 18.9484 17.9831 18.9051 18.0422 18.8565C18.0674 18.8355 18.0926 18.8143 18.1178 18.793C18.1305 18.7825 18.143 18.7718 18.1559 18.7611C18.2081 18.7167 18.2585 18.6708 18.3089 18.6248C18.4328 18.5111 18.5562 18.4014 18.6919 18.3019C18.7413 18.2636 18.7836 18.2193 18.827 18.1747C18.8439 18.1616 18.8605 18.1485 18.8778 18.135C18.9282 18.0967 18.9282 18.0967 18.9659 18.0446C19.0085 17.9926 19.0472 17.9704 19.1048 17.9366C19.1381 17.9039 19.1712 17.8708 19.2039 17.8375C19.2452 17.7982 19.2873 17.7595 19.3291 17.7208C19.3406 17.7103 19.3519 17.7 19.3636 17.6891C19.4355 17.623 19.5081 17.5581 19.5819 17.4945C19.6281 17.454 19.6731 17.4125 19.7185 17.3713C19.782 17.3139 19.8465 17.2596 19.9143 17.2076C19.9808 17.1566 20.0419 17.1074 20.0966 17.0439C20.1034 16.9812 20.1034 16.9812 20.054 16.9376C20.026 16.9116 20.026 16.9116 19.9975 16.8852C19.9796 16.8684 19.9618 16.8515 19.9433 16.8341C19.8286 16.7283 19.7126 16.6265 19.5902 16.5295C19.5376 16.4855 19.4902 16.4381 19.442 16.3893C19.4188 16.3687 19.3952 16.3484 19.3714 16.3286C19.3196 16.2847 19.2718 16.2389 19.2238 16.1909C19.1264 16.103 19.026 16.0183 18.9262 15.933C18.7703 15.7993 18.6163 15.6642 18.4656 15.5246C18.3955 15.4597 18.3245 15.396 18.2523 15.3335C18.2013 15.2887 18.1515 15.2425 18.1017 15.1964C18.042 15.1421 17.9835 15.0899 17.9171 15.0441C17.8558 15.0012 17.8078 14.9548 17.7558 14.9014C17.7395 14.8883 17.723 14.8753 17.7062 14.8618C17.6524 14.8187 17.606 14.7717 17.5574 14.7229C17.433 14.6059 17.3049 14.495 17.1719 14.3876C17.0636 14.2992 16.9619 14.2067 16.8631 14.1079C16.8234 14.0748 16.7837 14.0417 16.744 14.0087C16.7177 13.9824 16.6911 13.9558 16.6647 13.9294C16.6125 13.8822 16.5594 13.8363 16.506 13.7905C16.4957 13.7814 16.4852 13.7725 16.4744 13.7631C16.4399 13.7334 16.4054 13.7036 16.3709 13.6739C16.3598 13.6644 16.3485 13.6546 16.337 13.6445C16.2876 13.6025 16.2507 13.5731 16.1886 13.5525C16.2175 13.8461 16.2616 14.1365 16.3076 14.4277C16.3883 14.9407 16.3884 14.9407 16.4131 15.1252C16.4163 15.1488 16.4197 15.1724 16.4229 15.1966C16.428 15.2829 16.4173 15.3651 16.3671 15.4371C16.3409 15.4508 16.3146 15.464 16.2878 15.4767C16.2747 15.4964 16.2616 15.516 16.2481 15.5363C16.2112 15.546 16.2112 15.546 16.1666 15.5493C16.1501 15.5507 16.1336 15.5521 16.1168 15.5535C16.0991 15.5549 16.0815 15.5561 16.0634 15.5573C16.0269 15.5605 15.9902 15.5634 15.9537 15.5666C15.9271 15.5688 15.9271 15.5688 15.8999 15.5712C15.841 15.5769 15.7831 15.5864 15.725 15.597C15.5377 15.6283 15.3465 15.6291 15.157 15.6354C15.157 15.6158 15.157 15.5962 15.157 15.5759C15.1868 15.5517 15.1868 15.5517 15.2253 15.5261C15.2723 15.4879 15.2931 15.4672 15.3092 15.4083C15.3139 15.3522 15.3151 15.2974 15.3145 15.2411C15.3147 15.2218 15.3151 15.2026 15.3155 15.1825C15.3161 15.1351 15.3163 15.0877 15.3157 15.0403C15.3026 15.0338 15.2895 15.0272 15.276 15.0205C15.2604 14.9953 15.2457 14.9695 15.2314 14.9435C15.1854 14.8669 15.1431 14.834 15.0578 14.8023C15.0578 14.7957 15.0578 14.7892 15.0578 14.7824C15.0955 14.7818 15.133 14.7814 15.1707 14.7812C15.1915 14.781 15.2126 14.7806 15.2342 14.7804C15.2909 14.7822 15.3395 14.7907 15.3951 14.8023C15.4464 14.807 15.4974 14.8112 15.5488 14.8146C15.5692 14.8161 15.5692 14.8161 15.5901 14.8177C15.6242 14.8201 15.6583 14.8211 15.6926 14.8221C15.6992 14.8155 15.7057 14.809 15.7125 14.8023C15.7117 14.7675 15.7093 14.7328 15.7065 14.6981C15.7047 14.6767 15.703 14.6551 15.7012 14.6328C15.6992 14.6102 15.6972 14.5876 15.6952 14.5642C15.6924 14.5311 15.6924 14.5311 15.6897 14.4973C15.6845 14.2867 15.6845 14.2867 15.6331 14.0881C15.6331 14.0419 15.6331 13.9954 15.6331 13.9492C15.6266 13.9296 15.62 13.9099 15.6133 13.8897C15.6083 13.853 15.6042 13.8161 15.6004 13.7792C15.5982 13.7566 15.5958 13.7342 15.5934 13.7112C15.5911 13.687 15.5885 13.663 15.5861 13.638C15.5647 13.4317 15.5413 13.2257 15.5125 13.0202C15.4623 12.6439 15.4623 12.6439 15.5538 12.4812C15.5661 12.4592 15.5661 12.4592 15.5786 12.4366C15.6932 12.3219 15.8581 12.3158 15.9991 12.3866Z" fill="black"/>
<path d="M9.20931 8.01312C9.24542 8.01312 9.24542 8.01312 9.28231 8.01312C9.34877 8.01312 9.41523 8.01332 9.48188 8.01352C9.5537 8.01391 9.62551 8.01391 9.69732 8.01391C9.83797 8.01411 9.97862 8.01451 10.1193 8.0149C10.2337 8.0153 10.348 8.0155 10.4623 8.0159C10.7866 8.01649 11.111 8.01748 11.4351 8.01867C11.4526 8.01867 11.4702 8.01867 11.4881 8.01887C11.5055 8.01887 11.5232 8.01887 11.5411 8.01907C11.8247 8.01986 12.1082 8.02046 12.3919 8.02086C12.6831 8.02145 12.9745 8.02205 13.266 8.02304C13.4294 8.02363 13.5929 8.02403 13.7564 8.02423C13.8956 8.02443 14.0347 8.02482 14.1739 8.02542C14.2448 8.02582 14.3158 8.02601 14.3868 8.02601C14.4638 8.02582 14.5407 8.02641 14.6177 8.02701C14.6401 8.02681 14.6626 8.02661 14.6856 8.02661C14.8377 8.02839 14.951 8.04962 15.0629 8.16151C15.0742 8.17956 15.0857 8.19741 15.0976 8.21606C15.1047 8.22717 15.1119 8.23848 15.1192 8.24998C15.1881 8.37 15.2144 8.49974 15.1885 8.63682C15.1343 8.78462 15.0119 8.90007 14.9089 9.01553C14.8675 9.06274 14.8282 9.11174 14.7887 9.16074C14.7074 9.26132 14.6205 9.35555 14.5318 9.44958C14.4816 9.50394 14.4816 9.50394 14.4437 9.56425C14.3973 9.63328 14.3449 9.69101 14.2878 9.75092C14.2666 9.77373 14.2452 9.79655 14.2239 9.81936C14.2138 9.83027 14.2035 9.84118 14.1932 9.85249C14.0779 9.97608 13.9728 10.1072 13.8676 10.2395C13.772 10.3597 13.6736 10.4758 13.5687 10.5879C13.4709 10.6926 13.3804 10.8009 13.2923 10.914C13.1914 11.0408 13.0868 11.1628 12.9765 11.2814C12.9019 11.3622 12.8319 11.4463 12.7629 11.532C12.6478 11.6738 12.5298 11.8131 12.407 11.948C12.329 12.0339 12.2554 12.1227 12.1824 12.213C12.1404 12.2646 12.0973 12.3148 12.0539 12.365C12.015 12.411 11.9773 12.4578 11.9396 12.5048C11.8727 12.5869 11.8033 12.6655 11.7313 12.7429C11.6619 12.8175 11.5978 12.8932 11.5383 12.976C11.4679 13.0674 11.3867 13.1501 11.3086 13.2351C11.229 13.3225 11.154 13.4128 11.08 13.5048C10.9763 13.634 10.8699 13.7588 10.7565 13.8794C10.6706 13.9712 10.5924 14.0682 10.515 14.1674C10.3799 14.3372 10.2403 14.5084 10.0822 14.6578C10.0542 14.6822 10.0542 14.6822 10.0588 14.7229C10.0967 14.7231 10.0967 14.7231 10.1353 14.7231C10.7356 14.7251 11.3361 14.7273 11.9364 14.7294C12.0104 14.7296 12.0842 14.73 12.1582 14.7302C12.1729 14.7302 12.1878 14.7304 12.2029 14.7304C12.4409 14.7312 12.6792 14.732 12.9172 14.7328C13.1618 14.7336 13.4062 14.7346 13.6508 14.7356C13.8016 14.7362 13.9524 14.7366 14.1031 14.737C14.2188 14.7374 14.3346 14.738 14.4503 14.7384C14.4977 14.7386 14.5451 14.7388 14.5925 14.7388C14.6574 14.739 14.7221 14.7394 14.7869 14.7396C14.8056 14.7396 14.8242 14.7396 14.8435 14.7396C14.9623 14.7404 15.0788 14.7487 15.1968 14.7626C15.1968 14.7691 15.1968 14.7757 15.1968 14.7824C15.1575 14.789 15.1182 14.7955 15.0778 14.8022C15.1035 14.8114 15.1035 14.8114 15.1297 14.8209C15.2216 14.877 15.2692 14.9437 15.3158 15.0403C15.3317 15.1159 15.3325 15.1877 15.3307 15.2647C15.3313 15.2936 15.3313 15.2936 15.3321 15.3234C15.3315 15.3773 15.3295 15.4244 15.3158 15.4767C15.2577 15.5259 15.2577 15.5259 15.1968 15.5561C15.1837 15.5757 15.1706 15.5954 15.1571 15.6156C15.1637 15.6287 15.1702 15.6418 15.1769 15.6553C15.0299 15.7138 14.9048 15.7229 14.7475 15.7215C14.7227 15.7215 14.6979 15.7215 14.6723 15.7215C14.6038 15.7217 14.5352 15.7213 14.4668 15.7209C14.3928 15.7205 14.3186 15.7205 14.2446 15.7203C14.0998 15.7201 13.9549 15.7196 13.8099 15.719C13.6923 15.7186 13.5744 15.718 13.4568 15.7178C13.4316 15.7178 13.4316 15.7178 13.4058 15.7176C13.3719 15.7176 13.3378 15.7174 13.3037 15.7174C12.9843 15.7164 12.6649 15.7152 12.3455 15.7138C12.0715 15.7126 11.7976 15.7118 11.5236 15.7112C11.2054 15.7104 10.887 15.7094 10.5688 15.7082C10.5349 15.7082 10.5008 15.708 10.4668 15.7078C10.4502 15.7078 10.4335 15.7078 10.4162 15.7076C10.2986 15.7073 10.1812 15.7071 10.0635 15.7067C9.9201 15.7065 9.77687 15.7059 9.63344 15.7051C9.56044 15.7047 9.48724 15.7045 9.41424 15.7043C9.33488 15.7043 9.25553 15.7039 9.17618 15.7033C9.15317 15.7033 9.13016 15.7033 9.10655 15.7035C8.90262 15.7013 8.76613 15.6495 8.60564 15.5202C8.51855 15.4113 8.5251 15.2805 8.52014 15.147C8.54553 14.9933 8.66575 14.8727 8.76296 14.7564C8.77526 14.7417 8.78736 14.7269 8.80005 14.7118C8.88476 14.6102 8.97225 14.512 9.06211 14.415C9.12064 14.3501 9.1744 14.2821 9.22855 14.2135C9.272 14.1589 9.31743 14.1067 9.36365 14.0548C9.41662 13.9944 9.46859 13.9333 9.52057 13.8722C9.59 13.7909 9.66023 13.7106 9.73263 13.6318C9.80187 13.5556 9.86555 13.4763 9.92843 13.3949C10.0256 13.2696 10.1292 13.1529 10.2373 13.0367C10.3228 12.9418 10.4028 12.8442 10.4807 12.7431C10.5228 12.6895 10.5674 12.6385 10.6126 12.5875C10.6662 12.5266 10.719 12.4647 10.7715 12.403C10.8394 12.3237 10.9076 12.2449 10.9775 12.1676C11.0267 12.1126 11.0729 12.0565 11.1175 11.9976C11.1858 11.9083 11.2609 11.8266 11.3371 11.744C11.403 11.671 11.4647 11.5951 11.5264 11.5187C11.568 11.4675 11.6109 11.4173 11.6541 11.3673C11.6932 11.3215 11.7307 11.2745 11.7684 11.2277C11.8345 11.1465 11.9031 11.0688 11.9743 10.9922C12.0531 10.9075 12.1269 10.8204 12.1981 10.7293C12.3211 10.5756 12.451 10.4276 12.5843 10.283C12.6528 10.2082 12.7159 10.1318 12.7772 10.0513C12.8938 9.90248 13.02 9.76064 13.1471 9.62078C13.2566 9.50017 13.3582 9.3734 13.4602 9.24624C13.4758 9.2266 13.4917 9.20696 13.508 9.18693C13.5223 9.16907 13.5366 9.15122 13.5512 9.13277C13.5899 9.08893 13.5899 9.08893 13.6494 9.04925C13.6429 9.02961 13.6363 9.00997 13.6296 8.98974C11.3218 8.97982 11.3218 8.97982 8.96768 8.9699C8.96114 8.95681 8.95459 8.94372 8.94785 8.93023C8.92979 8.92487 8.91174 8.91951 8.89329 8.91416C8.79271 8.87746 8.72745 8.80088 8.67012 8.71201C8.63123 8.5908 8.62608 8.44102 8.66952 8.3216C8.71416 8.24046 8.76792 8.16686 8.82882 8.09703C8.82227 8.08394 8.81573 8.07085 8.80898 8.05736C8.94408 8.01609 9.06846 8.01233 9.20931 8.01312Z" fill="#00B1E8"/>
</g>
<defs>
<clipPath id="clip0_946_40454">
<rect width="24" height="24" fill="white"/>
</clipPath>
</defs>
</svg>
