<svg width="24" height="24" viewBox="0 0 24 24" fill="none" xmlns="http://www.w3.org/2000/svg">
<path d="M5.96892 4.15107C7.74317 2.77076 9.99255 2.02197 12.2399 2.06307C14.6798 2.08713 17.0935 3.04843 18.8808 4.7094C20.6651 6.33429 21.8098 8.62578 22.0695 11.0235V13.1025C21.8399 15.402 20.7844 17.6103 19.1284 19.2241C17.5176 20.83 15.3424 21.8404 13.0809 22.0669H11.1223C8.09 21.7873 5.24719 20.0321 3.62832 17.4539C2.3663 15.4832 1.84004 13.0584 2.16181 10.7398C2.4926 8.15365 3.90398 5.73686 5.96892 4.15107ZM7.11566 6.00951C5.81856 7.06604 4.9575 8.57365 4.43024 10.1424C4.26083 10.4892 4.55854 10.8772 4.92442 10.8822C5.0407 10.789 5.2081 10.7268 5.25421 10.5714C5.80152 8.07646 7.7993 5.92932 10.2873 5.2938C11.863 4.88583 13.5671 5.06325 15.0507 5.72283C17.1918 6.73726 18.7846 8.87136 19.0422 11.241C19.2778 12.7126 18.957 14.2192 18.3115 15.5473C18.3886 15.6867 18.4728 15.823 18.5651 15.9533C18.7204 15.9192 18.9229 15.9694 19.0352 15.827C19.2076 15.6165 19.2908 15.3519 19.3951 15.1053C20.0135 13.5496 20.1158 11.7984 19.7098 10.1765C19.2016 8.26892 17.9877 6.5448 16.3227 5.47323C15.0607 4.64224 13.5531 4.2062 12.0445 4.20119C10.2682 4.26434 8.49296 4.8738 7.11566 6.00951ZM11.002 6.22303C8.92299 6.58389 7.11466 8.12758 6.40998 10.1113C6.24157 10.5895 6.20448 11.1578 5.81856 11.5257C5.45469 11.8926 4.95349 12.069 4.46933 12.2144C4.30995 12.2585 4.18164 12.3958 4.15859 12.5612C4.0824 12.8218 4.3711 13.0935 4.63072 13.0193C5.23817 12.896 5.80854 12.5933 6.27866 12.1913C6.88311 11.662 7.07557 10.8461 7.31414 10.1133C8.02183 8.28697 9.89632 7.02996 11.841 6.97182C13.529 6.88561 15.2291 7.70357 16.2455 9.04879C17.1487 10.2366 17.292 11.8284 17.0033 13.2529C16.5573 15.408 15.3724 17.3286 14.0001 19.0156C13.9169 19.1179 13.8909 19.2332 13.92 19.3625C13.9981 19.6832 14.4943 19.7354 14.6808 19.4878C15.7503 18.1686 16.7197 16.7422 17.3431 15.1534C17.9516 13.5977 18.2463 11.8485 17.7792 10.2146C17.3722 8.75108 16.2716 7.55221 14.9374 6.86256C13.7475 6.20699 12.3372 5.98445 11.002 6.22303ZM11.3899 8.09651C10.0697 8.30802 8.95406 9.23724 8.30451 10.377C8.05892 11.1859 7.73916 11.9808 7.28407 12.6965C6.81595 13.311 6.07818 13.6328 5.3765 13.9024C5.06576 14.0327 4.65076 14.0498 4.48437 14.3896C4.34102 14.6251 4.57358 14.9399 4.8312 14.9239C5.23717 14.9008 5.61207 14.7224 5.98797 14.585C6.75781 14.2583 7.53667 13.8172 7.99176 13.0905C8.43382 12.3898 8.75058 11.6209 9.04428 10.8501C9.67679 9.47581 11.2947 8.56964 12.7953 8.95356C13.6403 9.20015 14.4783 9.65624 14.9735 10.407C15.4707 11.1929 15.4215 12.1873 15.181 13.0514C14.8351 14.2532 14.3881 15.4431 13.6974 16.4926C13.0008 17.4559 12.1507 18.3039 11.2265 19.0497C11.0531 19.1961 10.7945 19.3144 10.7794 19.573C10.7033 19.9449 11.2616 20.1694 11.4961 19.8948C12.7171 18.8903 13.8779 17.7747 14.7098 16.4184C15.173 15.6366 15.5118 14.7885 15.8145 13.9335C16.1363 12.9421 16.3448 11.8565 16.048 10.8321C15.8015 9.90584 15.1248 9.15304 14.3239 8.65685C13.4659 8.09451 12.3913 7.94715 11.3899 8.09651ZM10.3063 10.6977C9.92238 11.1358 9.8031 11.7222 9.54548 12.2304C9.1776 12.9792 8.85182 13.7731 8.28045 14.3946C7.66197 14.978 6.86807 15.3378 6.07718 15.6225C5.84963 15.7188 5.56395 15.7248 5.39154 15.9182C5.2081 16.251 5.53989 16.7502 5.92782 16.5838C6.99538 16.232 8.06393 15.7589 8.89192 14.98C9.8061 13.9936 10.189 12.6685 10.8225 11.5097C11.0521 11.1067 11.4621 10.7809 11.9372 10.7529C12.4224 10.6997 12.8775 10.9544 13.2343 11.2591C13.5851 11.5829 13.5771 12.1121 13.4458 12.5351C13.094 13.5105 12.7421 14.4998 12.1648 15.3689C11.3729 16.6209 10.2141 17.5983 8.9691 18.3781C8.77664 18.5094 8.50499 18.6127 8.4659 18.8743C8.44685 19.144 8.68843 19.3244 8.91898 19.3976C10.4126 18.5275 11.849 17.4639 12.8203 16.0095C13.4268 15.0321 13.8618 13.9555 14.1886 12.8559C14.363 12.2825 14.4262 11.6209 14.1244 11.0786C13.8177 10.5143 13.2253 10.1845 12.6389 9.97902C11.8079 9.70737 10.8556 10.0331 10.3063 10.6977ZM11.7748 11.9818C11.4861 12.1352 11.4731 12.484 11.3749 12.7577C11.0381 13.736 10.4777 14.6301 9.79107 15.4C8.96609 16.3022 7.86245 16.8785 6.77786 17.4058C6.5443 17.5662 6.54831 17.9451 6.78487 18.1045C6.94826 18.2628 7.19686 18.2037 7.36927 18.0924C8.47091 17.504 9.60262 16.8966 10.4637 15.9714C11.3418 14.9359 11.9963 13.715 12.3933 12.4179C12.4103 12.1292 12.0555 11.7432 11.7748 11.9818Z" fill="#00BCEB"/>
<path d="M7.11568 6.0095C8.49298 4.87378 10.2682 4.26432 12.0445 4.20117C13.5531 4.20618 15.0607 4.64223 16.3227 5.47322C17.9877 6.54478 19.2016 8.26891 19.7098 10.1765C20.1158 11.7984 20.0136 13.5495 19.3951 15.1053C19.2908 15.3519 19.2076 15.6165 19.0352 15.827C18.9229 15.9693 18.7205 15.9192 18.5651 15.9533C18.4729 15.823 18.3887 15.6867 18.3115 15.5473C18.957 14.2192 19.2778 12.7125 19.0422 11.241C18.7846 8.87135 17.1918 6.73724 15.0507 5.72281C13.5671 5.06324 11.863 4.88581 10.2873 5.29379C7.79932 5.92931 5.80154 8.07645 5.25423 10.5714C5.20812 10.7268 5.04072 10.7889 4.92444 10.8822C4.55856 10.8772 4.26085 10.4892 4.43025 10.1424C4.95752 8.57364 5.81858 7.06603 7.11568 6.0095Z" fill="white"/>
<path d="M11.0019 6.22304C12.3371 5.98447 13.7475 6.207 14.9373 6.86257C16.2715 7.55222 17.3722 8.75109 17.7791 10.2146C18.2463 11.8485 17.9516 13.5977 17.3431 15.1534C16.7196 16.7422 15.7503 18.1686 14.6807 19.4878C14.4943 19.7354 13.9981 19.6833 13.9199 19.3625C13.8908 19.2332 13.9169 19.1179 14.0001 19.0157C15.3724 17.3286 16.5572 15.408 17.0033 13.2529C17.292 11.8285 17.1486 10.2366 16.2455 9.04881C15.229 7.70359 13.529 6.88563 11.8409 6.97183C9.89627 7.02997 8.02179 8.28698 7.31409 10.1134C7.07552 10.8461 6.88306 11.6621 6.27861 12.1913C5.80849 12.5933 5.23812 12.896 4.63067 13.0193C4.37105 13.0935 4.08236 12.8218 4.15854 12.5612C4.18159 12.3958 4.3099 12.2585 4.46928 12.2144C4.95344 12.069 5.45464 11.8926 5.81851 11.5257C6.20444 11.1579 6.24152 10.5895 6.40993 10.1113C7.11461 8.1276 8.92294 6.58391 11.0019 6.22304Z" fill="white"/>
<path d="M11.3899 8.0965C12.3913 7.94714 13.4659 8.0945 14.3239 8.65684C15.1248 9.15303 15.8015 9.90583 16.0481 10.832C16.3448 11.8565 16.1363 12.9421 15.8145 13.9335C15.5118 14.7885 15.173 15.6365 14.7099 16.4184C13.8779 17.7747 12.7171 18.8903 11.4962 19.8947C11.2616 20.1694 10.7033 19.9449 10.7794 19.573C10.7945 19.3144 11.0531 19.1961 11.2265 19.0497C12.1507 18.3039 13.0008 17.4559 13.6974 16.4926C14.3881 15.4431 14.8352 14.2532 15.181 13.0514C15.4216 12.1873 15.4707 11.1929 14.9735 10.407C14.4783 9.65623 13.6403 9.20014 12.7953 8.95355C11.2947 8.56963 9.67681 9.4758 9.04429 10.8501C8.75059 11.6209 8.43383 12.3898 7.99177 13.0905C7.53668 13.8172 6.75782 14.2582 5.98798 14.585C5.61208 14.7224 5.23718 14.9008 4.83121 14.9238C4.57359 14.9399 4.34103 14.6251 4.48438 14.3896C4.65078 14.0498 5.06577 14.0327 5.37651 13.9024C6.07819 13.6328 6.81596 13.311 7.28408 12.6965C7.73917 11.9808 8.05893 11.1859 8.30452 10.377C8.95408 9.23723 10.0697 8.30801 11.3899 8.0965Z" fill="white"/>
<path d="M10.3063 10.6977C10.8556 10.0331 11.8079 9.70736 12.6389 9.97901C13.2253 10.1845 13.8177 10.5143 14.1244 11.0786C14.4262 11.6209 14.363 12.2825 14.1886 12.8559C13.8618 13.9555 13.4268 15.0321 12.8203 16.0094C11.849 17.4639 10.4126 18.5275 8.91898 19.3976C8.68843 19.3244 8.44685 19.1439 8.4659 18.8743C8.50499 18.6127 8.77664 18.5094 8.9691 18.3781C10.2141 17.5983 11.3729 16.6209 12.1648 15.3689C12.7421 14.4998 13.094 13.5105 13.4458 12.5351C13.5771 12.1121 13.5852 11.5829 13.2343 11.2591C12.8775 10.9543 12.4224 10.6997 11.9372 10.7529C11.4621 10.7809 11.0521 11.1067 10.8225 11.5097C10.189 12.6685 9.80611 13.9936 8.89192 14.98C8.06394 15.7588 6.99538 16.232 5.92782 16.5838C5.5399 16.7502 5.2081 16.251 5.39154 15.9182C5.56395 15.7248 5.84964 15.7188 6.07718 15.6225C6.86807 15.3378 7.66197 14.978 8.28046 14.3946C8.85182 13.7731 9.1776 12.9792 9.54548 12.2304C9.8031 11.7222 9.92239 11.1358 10.3063 10.6977Z" fill="white"/>
<path d="M11.7749 11.9818C12.0555 11.7432 12.4104 12.1291 12.3934 12.4178C11.9964 13.7149 11.3418 14.9359 10.4637 15.9713C9.60268 16.8966 8.47097 17.504 7.36933 18.0924C7.19692 18.2037 6.94832 18.2628 6.78493 18.1044C6.54837 17.9451 6.54436 17.5662 6.77792 17.4058C7.86251 16.8785 8.96615 16.3021 9.79113 15.4C10.4778 14.6301 11.0381 13.736 11.3749 12.7576C11.4732 12.484 11.4862 12.1352 11.7749 11.9818Z" fill="white"/>
</svg>
