<svg width="24" height="24" viewBox="0 0 24 24" fill="none" xmlns="http://www.w3.org/2000/svg">
<g clip-path="url(#clip0_1457_4939)">
<path d="M2.31567 6.91966L4.5639 5.17303H21.6788L19.3707 6.91966H2.31567Z" fill="#007EBA" stroke="white" stroke-width="0.4"/>
<path d="M19.3707 18.8432H2.31567" stroke="white" stroke-width="0.4" stroke-linecap="round" stroke-linejoin="round"/>
<path d="M19.436 6.82772V18.8486H2.25037V6.80609L19.436 6.82772Z" fill="#007EBA" stroke="white" stroke-width="0.4"/>
<path d="M21.5971 17.0101V5.21631L19.3925 6.871V18.7729L21.5971 17.0101Z" fill="#007EBA" stroke="white" stroke-width="0.4"/>
<path d="M17.9717 14.263H15.6962V13.9224L14.5748 14.5983L15.6962 15.2905V14.9552H17.9717V14.263Z" fill="white"/>
<path d="M6.80668 10.4291H4.53668V10.0938L3.41528 10.7698L4.53668 11.4619V11.1267H6.80668V10.4291Z" fill="white"/>
<path d="M14.9994 11.1699H17.1823V11.5052L18.3037 10.8293L17.1823 10.1371V10.4778H14.9994V11.1699Z" fill="white"/>
<path d="M3.56775 14.9714H5.75066V15.3121L6.87205 14.6362L5.75066 13.944V14.2793H3.56775V14.9714Z" fill="white"/>
<path d="M5.65267 17.7563C5.63634 17.5292 5.81054 17.3291 6.03917 17.3129C6.26781 17.2966 6.46922 17.4697 6.48011 17.6968C6.49644 17.9239 6.32224 18.124 6.09361 18.1402C5.86497 18.1564 5.66356 17.9834 5.65267 17.7563Z" fill="white" stroke="black" stroke-width="0.2"/>
<path d="M7.88041 14.8682L5.68481 17.3067L6.53283 18.0601L8.72842 15.6216L7.88041 14.8682Z" fill="white" stroke="black" stroke-width="0.2"/>
<path d="M7.29123 11.781C7.04626 13.8791 8.57048 15.7771 10.6826 16.0205C12.7948 16.2638 14.7109 14.7497 14.9505 12.6516C15.19 10.5535 13.6712 8.65005 11.5591 8.41212C9.44691 8.16878 7.53075 9.68288 7.29123 11.781ZM7.8247 11.8405C8.03156 10.0344 9.68099 8.73657 11.4937 8.94205C13.3119 9.14754 14.6184 10.786 14.4115 12.5921C14.2047 14.3982 12.5552 15.696 10.7425 15.4905C8.92977 15.285 7.61784 13.6466 7.8247 11.8459V11.8405Z" fill="white" stroke="black" stroke-width="0.2"/>
<path d="M6.81758 11.9486C6.57806 14.0467 8.09684 15.9502 10.209 16.1881C12.3211 16.4314 14.2373 14.9173 14.4768 12.8192C14.7163 10.7211 13.1975 8.81767 11.0854 8.57974C8.97327 8.34181 7.0571 9.8505 6.81758 11.9486ZM7.35106 12.0081C7.55791 10.202 9.20734 8.90419 11.0201 9.10968C12.8383 9.31516 14.1447 10.9536 13.9379 12.7543C13.731 14.5604 12.0816 15.8582 10.2689 15.6527C8.45612 15.4473 7.1442 13.8088 7.35106 12.0081Z" fill="white" stroke="black" stroke-width="0.2"/>
<path d="M9.2128 12.2514H12.1905C12.2776 12.2514 12.3483 12.3217 12.3483 12.4083V14.3171C12.3483 14.4036 12.2776 14.4739 12.1905 14.4739H9.2128C9.1257 14.4739 9.05493 14.4036 9.05493 14.3171V12.4083C9.05493 12.3217 9.1257 12.2514 9.2128 12.2514Z" fill="#007EBA" stroke="white" stroke-width="0.3" stroke-linecap="round" stroke-linejoin="round"/>
<path d="M12.3483 12.246L12.9744 11.6242H9.68095L9.05493 12.246H12.3483Z" fill="#007EBA" stroke="white" stroke-width="0.3" stroke-linecap="round" stroke-linejoin="round"/>
<path d="M12.9744 13.8412V11.6242L12.3484 12.246V14.4685L12.9744 13.8412Z" fill="#007EBA" stroke="white" stroke-width="0.3" stroke-linecap="round" stroke-linejoin="round"/>
<path d="M11.0365 10.2507C10.5629 10.2507 10.1764 10.6346 10.1764 11.1051V11.8621C10.1818 11.9216 10.1219 11.9865 10.0348 11.9919C9.9423 12.0027 9.84431 11.954 9.83887 11.8945V11.1429C9.83887 10.4994 10.3669 9.97488 11.0147 9.97488C11.6625 9.97488 12.1905 10.4994 12.1905 11.1429V11.9648C12.1851 12.0243 12.1198 12.0676 12.0272 12.0622C11.9456 12.0622 11.8694 11.9486 11.8748 11.8891V11.0996C11.8748 10.6292 11.5101 10.2453 11.0365 10.2453V10.2507Z" fill="#007EBA" stroke="white" stroke-width="0.3" stroke-linecap="round" stroke-linejoin="round"/>
<path d="M10.6934 13.5546C10.8404 13.5546 10.9656 13.3978 10.9656 13.2086C10.9656 13.0193 10.8459 12.8625 10.6934 12.8625C10.541 12.8625 10.4213 13.0193 10.4213 13.2086C10.4213 13.3978 10.541 13.5546 10.6934 13.5546Z" fill="white"/>
<path d="M10.7751 13.9115V13.2302L10.6063 13.3546V14.0305L10.7751 13.9115Z" fill="white"/>
</g>
<defs>
<clipPath id="clip0_1457_4939">
<rect width="20" height="14" fill="white" transform="translate(2 5)"/>
</clipPath>
</defs>
</svg>
