<svg width="24" height="24" viewBox="0 0 24 24" fill="none" xmlns="http://www.w3.org/2000/svg">
<g clip-path="url(#clip0_951_2400)">
<path d="M9.72037 16.6566L9.71703 17.4547L9.77518 17.4647C9.95827 17.4988 10.1431 17.5226 10.3289 17.5359C10.4915 17.5507 10.655 17.5539 10.8181 17.5455C10.974 17.5341 11.1281 17.505 11.2774 17.4588C11.4526 17.4092 11.6152 17.3225 11.7541 17.2047C11.879 17.098 11.9745 16.9611 12.0315 16.807C12.1308 16.5489 12.1288 16.2629 12.0259 16.0062C11.9717 15.8731 11.8863 15.7548 11.777 15.6614C11.6712 15.5663 11.5471 15.494 11.4122 15.4488L10.8104 15.2266C10.7385 15.196 10.6802 15.1403 10.6463 15.0699C10.6332 15.0411 10.6269 15.0095 10.6281 14.9778C10.6292 14.9462 10.6378 14.9152 10.653 14.8873C10.6637 14.8675 10.6771 14.8493 10.693 14.8333C10.7115 14.8148 10.7321 14.7985 10.7544 14.7847C10.7633 14.7792 10.7726 14.774 10.7818 14.7692C10.849 14.7355 10.9216 14.7142 10.9963 14.7062C11.1236 14.6879 11.253 14.6891 11.38 14.7099C11.5298 14.7263 11.6783 14.7529 11.8244 14.7896L11.8556 14.7966V14.0607L11.7981 14.0484C11.649 14.0125 11.4979 13.9855 11.3455 13.9677C11.1482 13.9415 10.9483 13.9406 10.7507 13.9651C10.5004 13.9882 10.2622 14.084 10.0655 14.2407C9.93238 14.3453 9.83105 14.4849 9.77296 14.644C9.68603 14.8864 9.68603 15.1516 9.77296 15.394C9.81812 15.5144 9.89005 15.6229 9.98333 15.7114C10.0644 15.7895 10.1561 15.8558 10.2556 15.9084C10.3866 15.979 10.5256 16.0336 10.6696 16.071C10.7174 16.0855 10.7644 16.1003 10.8115 16.1162L10.8826 16.1425L10.9033 16.1507C10.9735 16.1759 11.0376 16.2155 11.0915 16.267C11.1289 16.3021 11.1578 16.3453 11.1759 16.3933C11.187 16.4373 11.187 16.4833 11.1759 16.5273C11.1536 16.5983 11.1043 16.6577 11.0385 16.6925C10.9667 16.7296 10.889 16.7539 10.8089 16.7644C10.6913 16.7829 10.5721 16.7888 10.4533 16.7822C10.2976 16.7703 10.1427 16.7496 9.98925 16.7203C9.90901 16.7038 9.82925 16.6851 9.74999 16.6644L9.72037 16.6566Z" fill="#C71618"/>
<path d="M6.44927 17.4255V16.4995L6.43113 16.5077C6.22262 16.6086 5.99583 16.6662 5.76446 16.677C5.52374 16.696 5.28448 16.6254 5.09261 16.4788C4.95527 16.3731 4.85324 16.2282 4.80001 16.0633C4.74081 15.8837 4.734 15.691 4.78038 15.5077C4.82278 15.3204 4.92719 15.153 5.07668 15.0325C5.20986 14.9213 5.37251 14.8511 5.54483 14.8307C5.84946 14.7969 6.15723 14.8547 6.4289 14.9966L6.4489 15.007V14.0766L6.40668 14.0651C6.13471 13.9775 5.84911 13.9398 5.56372 13.954C5.30376 13.9606 5.04775 14.0192 4.81076 14.1262C4.57168 14.2359 4.36087 14.3988 4.19446 14.6025C3.94154 14.9225 3.80116 15.3169 3.79507 15.7248C3.78897 16.1326 3.9175 16.531 4.16075 16.8584C4.40697 17.1729 4.75237 17.3948 5.14076 17.4881C5.55023 17.5877 5.97923 17.5727 6.38076 17.4447L6.4489 17.4258" fill="#C71618"/>
<path d="M8.5326 17.487V14.0125H7.65668V17.487H8.5326Z" fill="#C71618"/>
<path d="M21.4981 17.0833V17.0307H21.1274V17.0833H21.2815V17.487H21.3437V17.0833H21.4981Z" fill="#C71618"/>
<path d="M21.5341 17.487H21.5933V17.1225H21.6011L21.7344 17.487H21.7937L21.9378 17.1051V17.487H22V17.0307H21.9037L21.7685 17.4062L21.6318 17.0307H21.5341V17.487Z" fill="#C71618"/>
<path d="M2 11.2203C2.00845 11.3294 2.05774 11.4313 2.13804 11.5056C2.21834 11.5799 2.32373 11.6212 2.43315 11.6212C2.54256 11.6212 2.64795 11.5799 2.72825 11.5056C2.80855 11.4313 2.85785 11.3294 2.8663 11.2203V10.2573C2.863 10.1447 2.81592 10.0377 2.73505 9.95914C2.65418 9.8806 2.54588 9.83667 2.43315 9.83667C2.32041 9.83667 2.21212 9.8806 2.13125 9.95914C2.05038 10.0377 2.0033 10.1447 2 10.2573V11.2203Z" fill="#1D3A3E"/>
<path d="M4.39813 11.2203C4.40598 11.3299 4.45505 11.4324 4.53545 11.5072C4.61585 11.5821 4.72162 11.6237 4.83147 11.6237C4.94131 11.6237 5.04708 11.5821 5.12748 11.5072C5.20788 11.4324 5.25695 11.3299 5.2648 11.2203V9.06178C5.26017 8.94995 5.2125 8.84424 5.13174 8.76675C5.05098 8.68926 4.94339 8.646 4.83147 8.646C4.71954 8.646 4.61195 8.68926 4.53119 8.76675C4.45043 8.84424 4.40276 8.94995 4.39813 9.06178V11.2203Z" fill="#1D3A3E"/>
<path d="M6.78369 12.0899C6.79214 12.199 6.84144 12.3009 6.92174 12.3752C7.00204 12.4495 7.10742 12.4908 7.21684 12.4908C7.32626 12.4908 7.43164 12.4495 7.51194 12.3752C7.59224 12.3009 7.64154 12.199 7.64999 12.0899V7.42067C7.64669 7.30798 7.59961 7.20101 7.51874 7.12247C7.43787 7.04393 7.32957 7 7.21684 7C7.10411 7 6.99581 7.04393 6.91494 7.12247C6.83407 7.20101 6.78699 7.30798 6.78369 7.42067V12.0899Z" fill="#1D3A3E"/>
<path d="M9.18146 11.2203C9.1899 11.3294 9.2392 11.4313 9.3195 11.5056C9.3998 11.5799 9.50519 11.6212 9.61461 11.6212C9.72402 11.6212 9.82941 11.5799 9.90971 11.5056C9.99001 11.4313 10.0393 11.3294 10.0478 11.2203V9.06178C10.0445 8.94909 9.99738 8.84213 9.91651 8.76359C9.83564 8.68505 9.72734 8.64111 9.61461 8.64111C9.50187 8.64111 9.39358 8.68505 9.3127 8.76359C9.23183 8.84213 9.18475 8.94909 9.18146 9.06178V11.2203Z" fill="#1D3A3E"/>
<path d="M11.5689 11.2203C11.5774 11.3294 11.6267 11.4313 11.707 11.5056C11.7873 11.5799 11.8926 11.6212 12.0021 11.6212C12.1115 11.6212 12.2169 11.5799 12.2972 11.5056C12.3775 11.4313 12.4268 11.3294 12.4352 11.2203V10.2573C12.4319 10.1447 12.3848 10.0377 12.304 9.95914C12.2231 9.8806 12.1148 9.83667 12.0021 9.83667C11.8893 9.83667 11.781 9.8806 11.7002 9.95914C11.6193 10.0377 11.5722 10.1447 11.5689 10.2573V11.2203Z" fill="#1D3A3E"/>
<path d="M13.9648 11.2203C13.9733 11.3294 14.0226 11.4313 14.1029 11.5056C14.1832 11.5799 14.2886 11.6212 14.398 11.6212C14.5074 11.6212 14.6128 11.5799 14.6931 11.5056C14.7734 11.4313 14.8227 11.3294 14.8311 11.2203V9.06178C14.8278 8.94909 14.7808 8.84213 14.6999 8.76359C14.619 8.68505 14.5107 8.64111 14.398 8.64111C14.2853 8.64111 14.177 8.68505 14.0961 8.76359C14.0152 8.84213 13.9681 8.94909 13.9648 9.06178V11.2203Z" fill="#1D3A3E"/>
<path d="M16.3511 12.0899C16.3596 12.199 16.4089 12.3009 16.4892 12.3752C16.5695 12.4495 16.6749 12.4908 16.7843 12.4908C16.8937 12.4908 16.9991 12.4495 17.0794 12.3752C17.1597 12.3009 17.209 12.199 17.2174 12.0899V7.42067C17.2141 7.30798 17.1671 7.20101 17.0862 7.12247C17.0053 7.04393 16.897 7 16.7843 7C16.6716 7 16.5633 7.04393 16.4824 7.12247C16.4015 7.20101 16.3544 7.30798 16.3511 7.42067V12.0899Z" fill="#1D3A3E"/>
<path d="M18.7452 11.2203C18.7536 11.3294 18.8029 11.4313 18.8832 11.5056C18.9635 11.5799 19.0689 11.6212 19.1783 11.6212C19.2877 11.6212 19.3931 11.5799 19.4734 11.5056C19.5537 11.4313 19.603 11.3294 19.6115 11.2203V9.06178C19.6082 8.94909 19.5611 8.84213 19.4802 8.76359C19.3994 8.68505 19.2911 8.64111 19.1783 8.64111C19.0656 8.64111 18.9573 8.68505 18.8764 8.76359C18.7956 8.84213 18.7485 8.94909 18.7452 9.06178V11.2203Z" fill="#1D3A3E"/>
<path d="M21.1337 11.2203C21.1422 11.3294 21.1915 11.4313 21.2718 11.5056C21.3521 11.5799 21.4575 11.6212 21.5669 11.6212C21.6763 11.6212 21.7817 11.5799 21.862 11.5056C21.9423 11.4313 21.9916 11.3294 22 11.2203V10.2573C21.9967 10.1447 21.9497 10.0377 21.8688 9.95914C21.7879 9.8806 21.6796 9.83667 21.5669 9.83667C21.4541 9.83667 21.3458 9.8806 21.265 9.95914C21.1841 10.0377 21.137 10.1447 21.1337 10.2573V11.2203Z" fill="#1D3A3E"/>
<path d="M15.6026 17.4255V16.4995L15.5845 16.5077C15.376 16.6086 15.1492 16.6662 14.9178 16.677C14.6771 16.6959 14.4379 16.6255 14.2459 16.4792C14.1087 16.3732 14.0066 16.2282 13.953 16.0633C13.8941 15.8836 13.8873 15.691 13.9333 15.5077C13.9762 15.3202 14.0813 15.1527 14.2315 15.0325C14.3646 14.9212 14.5273 14.8511 14.6996 14.8307C15.0043 14.797 15.312 14.8548 15.5837 14.9966L15.6037 15.007V14.0766L15.5615 14.0651C15.2895 13.9775 15.0039 13.9398 14.7185 13.954C14.4577 13.9601 14.2008 14.0184 13.963 14.1255C13.7238 14.2351 13.513 14.398 13.3467 14.6018C13.0938 14.9218 12.9534 15.3162 12.9473 15.724C12.9412 16.1318 13.0697 16.5303 13.313 16.8577C13.5592 17.1722 13.9046 17.3941 14.293 17.4873C14.7025 17.5869 15.1315 17.5719 15.533 17.444L15.6011 17.4251" fill="#C71618"/>
<path d="M16.5256 15.751C16.5298 16.0222 16.5943 16.289 16.7143 16.5321C16.8344 16.7752 17.0071 16.9886 17.2198 17.1567C17.4325 17.3249 17.68 17.4436 17.9443 17.5043C18.2085 17.565 18.483 17.5662 18.7478 17.5077C19.1035 17.4409 19.4305 17.2675 19.6853 17.0104C19.9401 16.7533 20.1106 16.4247 20.1742 16.0684C20.2377 15.7121 20.1913 15.3448 20.0411 15.0155C19.8909 14.6862 19.6441 14.4104 19.3334 14.2247C19.0574 14.054 18.7413 13.9592 18.4169 13.9501C18.0926 13.941 17.7716 14.0178 17.4865 14.1728C17.2014 14.3278 16.9624 14.5554 16.7937 14.8326C16.625 15.1097 16.5326 15.4266 16.5259 15.751M17.7974 15.0395C17.9627 14.9075 18.1685 14.8369 18.38 14.8397C18.5915 14.8424 18.7955 14.9185 18.9572 15.0548C19.1189 15.1911 19.2283 15.3792 19.2668 15.5872C19.3053 15.7952 19.2705 16.01 19.1684 16.1952C19.0662 16.3804 18.903 16.5244 18.7065 16.6027C18.5101 16.6811 18.2925 16.6888 18.091 16.6247C17.8894 16.5606 17.7164 16.4286 17.6012 16.2512C17.4861 16.0738 17.4361 15.8619 17.4596 15.6518C17.473 15.5325 17.5096 15.4171 17.5676 15.312C17.6256 15.207 17.7037 15.1144 17.7974 15.0395Z" fill="#C71618"/>
</g>
<defs>
<clipPath id="clip0_951_2400">
<rect width="24" height="24" fill="white"/>
</clipPath>
</defs>
</svg>
