<svg width="24" height="24" viewBox="0 0 24 24" fill="none" xmlns="http://www.w3.org/2000/svg">
<g clip-path="url(#clip0_951_2628)">
<path fill-rule="evenodd" clip-rule="evenodd" d="M7.60341 9.8046V10.9167H8.57364V14.0615H9.84352V10.9167H10.8139V9.8046H7.60341ZM13.5541 12.3653C14.0422 12.1993 14.3488 11.7456 14.3488 11.1605C14.3488 10.7641 14.2298 10.4442 13.9948 10.2094C13.73 9.94464 13.3284 9.8047 12.8329 9.8047H11.1589V14.0616H12.4355V12.7897L13.2469 14.0614H14.855L13.5541 12.3653ZM12.4355 10.8432C12.6001 10.8443 12.8218 10.861 12.9365 10.9756C12.9943 11.0335 13.0225 11.1148 13.0225 11.2243C13.0225 11.4911 12.8513 11.6017 12.4357 11.6051L12.4355 10.8432ZM16.3218 14.0615V9.80267H15.0568V14.0615H16.3218ZM19.7289 11.764L21.1376 9.80738H19.5716L18.9869 10.709L18.482 9.80738H16.92L18.2283 11.7569L16.5235 14.0615H18.0684L18.9674 12.8074L19.6781 14.0615H21.2082L19.7289 11.764ZM5.98161 9.80267V14.0615H7.25833V9.80267H5.98161Z" fill="black"/>
<path fill-rule="evenodd" clip-rule="evenodd" d="M6.61992 9.54397C6.8323 9.54397 7.03599 9.4596 7.18617 9.30943C7.33634 9.15925 7.42071 8.95556 7.42071 8.74318C7.42071 8.53079 7.33634 8.32711 7.18617 8.17693C7.03599 8.02675 6.8323 7.94238 6.61992 7.94238C6.40753 7.94238 6.20385 8.02675 6.05367 8.17693C5.90349 8.32711 5.81912 8.53079 5.81912 8.74318C5.81912 8.95556 5.90349 9.15925 6.05367 9.30943C6.20385 9.4596 6.40753 9.54397 6.61992 9.54397ZM15.6951 15.9218C15.9074 15.9218 16.1111 15.8374 16.2612 15.6873C16.4114 15.5371 16.4958 15.3335 16.4958 15.1211C16.4958 14.9087 16.4114 14.7051 16.2612 14.5549C16.1111 14.4048 15.9074 14.3204 15.6951 14.3204C15.4827 14.3204 15.279 14.4048 15.1289 14.5549C14.9787 14.7051 14.8944 14.9087 14.8944 15.1211C14.8944 15.3335 14.9787 15.5371 15.1289 15.6873C15.279 15.8374 15.4827 15.9218 15.6951 15.9218Z" fill="#CC2131"/>
<path fill-rule="evenodd" clip-rule="evenodd" d="M4.92243 12.3883C4.73311 12.7017 4.36163 12.9033 3.98598 12.9033C3.44955 12.9033 3.05658 12.4687 3.05658 11.9321C3.05658 11.3957 3.44955 10.961 3.98598 10.961C4.36174 10.961 4.73322 11.1628 4.92243 11.4762L5.59356 10.3901C5.18787 9.9672 4.61819 9.70273 3.98587 9.70273C2.75459 9.70273 1.75635 10.7009 1.75635 11.9321C1.75635 13.1635 2.75459 14.1617 3.98587 14.1617C4.61819 14.1617 5.18776 13.8971 5.59356 13.4743L4.92243 12.3883ZM21.4136 9.97404C21.4136 9.92859 21.4317 9.88501 21.4638 9.85287C21.4959 9.82073 21.5395 9.80268 21.585 9.80268C21.6304 9.80268 21.674 9.82073 21.7062 9.85287C21.7383 9.88501 21.7563 9.92859 21.7563 9.97404C21.7548 10.0184 21.736 10.0605 21.7041 10.0914C21.6721 10.1222 21.6294 10.1395 21.585 10.1395C21.5406 10.1395 21.4979 10.1222 21.4659 10.0914C21.4339 10.0605 21.4152 10.0184 21.4136 9.97404ZM21.585 10.1223C21.6045 10.1223 21.6238 10.1184 21.6418 10.111C21.6598 10.1035 21.6761 10.0926 21.6899 10.0788C21.7036 10.065 21.7146 10.0486 21.722 10.0306C21.7294 10.0126 21.7333 9.99331 21.7333 9.97383C21.7332 9.95434 21.7294 9.93505 21.7219 9.91705C21.7145 9.89906 21.7035 9.88271 21.6897 9.86894C21.6759 9.85517 21.6596 9.84425 21.6416 9.83681C21.6236 9.82937 21.6043 9.82554 21.5848 9.82556C21.5454 9.82559 21.5077 9.84125 21.4799 9.86909C21.4521 9.89694 21.4365 9.93469 21.4365 9.97404C21.4365 10.0134 21.4522 10.0511 21.48 10.0789C21.5079 10.1067 21.5456 10.1223 21.585 10.1223ZM21.6161 9.97949C21.6378 9.97618 21.6621 9.9656 21.6621 9.93321C21.6621 9.88831 21.6218 9.87879 21.5812 9.87879H21.518V10.067H21.5486V9.99275H21.5812C21.6155 9.99275 21.6286 10.0035 21.6286 10.0433C21.6286 10.0539 21.6292 10.0602 21.6311 10.067H21.662C21.6595 10.0627 21.6584 10.049 21.6584 10.0358C21.6585 10.0023 21.6441 9.98548 21.6161 9.97949ZM21.5486 9.97019V9.90146H21.5812C21.6113 9.90146 21.6288 9.91204 21.6288 9.93321C21.6288 9.95811 21.6124 9.97019 21.5812 9.97019H21.5486Z" fill="black"/>
</g>
<defs>
<clipPath id="clip0_951_2628">
<rect width="24" height="24" fill="white"/>
</clipPath>
</defs>
</svg>
