<svg width="24" height="24" viewBox="0 0 24 24" fill="none" xmlns="http://www.w3.org/2000/svg">
<g clip-path="url(#clip0_951_2671)">
<g clip-path="url(#clip1_951_2671)">
<path d="M11.3703 9.76511L9.13377 11.4845C8.90373 10.6248 8.15821 9.99347 7.24142 9.99347H5.63619V13.9494H7.24142C8.15821 13.9494 8.96082 13.3181 9.13377 12.4584L11.3703 14.1778L13.6069 12.4584V13.9494H16.1289V13.1468H14.4666V9.99347H13.5498V11.4845L11.4274 13.2039L10.969 12.8026L12 12L13.0881 11.1403L12.4584 10.6248L10.3377 12.2871L9.87929 11.8858L12 10.2806L11.3703 9.76511ZM6.49757 10.7961H7.18601C7.32873 10.7961 7.46978 10.828 7.59739 10.8884C7.72668 10.9472 7.84422 11.0328 7.94496 11.1403C8.04571 11.2478 8.12799 11.3771 8.18507 11.5215C8.24216 11.6659 8.27407 11.8287 8.27407 12C8.27407 12.1578 8.24552 12.3123 8.19179 12.4534C8.13974 12.5961 8.0625 12.7271 7.96511 12.8379C7.86772 12.9487 7.75187 13.041 7.6209 13.1032C7.48993 13.167 7.34216 13.2022 7.18433 13.2022H6.4959L6.49757 10.7961ZM18.9935 13.1468V13.9494H16.4715V9.99347H17.3882V13.1468H18.9935ZM12 3C7.07015 3 3 7.07015 3 12C3 16.9299 7.01306 21 12 21C16.9869 21 21 16.9869 21 12C21 7.01306 16.9299 3 12 3ZM12 3.91679C12.5591 3.91679 13.1049 3.9722 13.6304 4.07966C14.1576 4.18713 14.6647 4.34496 15.1483 4.54981C15.6319 4.75466 16.092 5.00485 16.5218 5.29366C16.9517 5.58246 17.353 5.91325 17.7174 6.27929C18.0817 6.64534 18.4125 7.04496 18.703 7.47481C18.9935 7.90466 19.2437 8.36474 19.4468 8.84832C19.6517 9.3319 19.8095 9.84067 19.917 10.3662C20.0244 10.8935 20.0799 11.4375 20.0799 11.9966C20.0799 12.5558 20.0244 13.1015 19.917 13.6271C19.8095 14.1543 19.6517 14.6614 19.4468 15.145C19.242 15.6285 18.9918 16.0886 18.703 16.5185C18.4142 16.9483 18.0834 17.3496 17.7174 17.714C17.3513 18.0784 16.9517 18.4091 16.5218 18.6996C16.092 18.9901 15.6319 19.2403 15.1483 19.4435C14.6647 19.6483 14.156 19.8062 13.6304 19.9136C13.1032 20.0211 12.5591 20.0765 12 20.0765C11.4409 20.0765 10.8951 20.0211 10.3696 19.9136C9.84235 19.8062 9.33526 19.6483 8.85168 19.4435C8.3681 19.2386 7.90802 18.9884 7.47817 18.6979C7.04832 18.4075 6.64869 18.0784 6.28265 17.7123C5.9166 17.3463 5.58582 16.9534 5.29534 16.5235C5.00485 16.0937 4.75466 15.6336 4.55149 15.15C4.34664 14.6664 4.18881 14.1576 4.08134 13.6304C3.97388 13.1032 3.91847 12.5591 3.91847 12C3.91847 11.4409 3.97388 10.8951 4.08134 10.3696C4.18881 9.84235 4.34664 9.33526 4.55149 8.85168C4.75634 8.3681 5.00653 7.90802 5.29534 7.47817C5.58582 7.04832 5.91493 6.64869 6.28097 6.28265C6.64702 5.9166 7.04664 5.5875 7.47649 5.29702C7.90634 5.00653 8.36642 4.75634 8.85 4.55317C9.33358 4.34832 9.84235 4.19049 10.3696 4.08302C10.8951 3.97388 11.4409 3.91847 12 3.91679Z" fill="#007DB8"/>
</g>
</g>
<defs>
<clipPath id="clip0_951_2671">
<rect width="24" height="24" fill="white"/>
</clipPath>
<clipPath id="clip1_951_2671">
<rect width="18" height="18" fill="white" transform="translate(3 3)"/>
</clipPath>
</defs>
</svg>
