<svg width="24" height="24" viewBox="0 0 24 24" fill="none" xmlns="http://www.w3.org/2000/svg">
<path d="M2.10278 9.34914L6.63636 9.36389V10.7047C6.65111 10.7923 6.53691 10.7771 6.51978 10.6905C6.47601 10.4716 6.09773 9.94677 6.02446 9.90299H4.1288V11.536H5.71755C5.83461 11.4922 6.02065 11.172 6.14103 10.8503C6.18433 10.7342 6.27331 10.807 6.27188 10.8365C6.24286 11.3609 6.24999 12.322 6.25761 12.7165C6.25989 12.8635 6.18433 12.9063 6.14103 12.775C6.09773 12.6442 5.87838 12.1921 5.73278 12.0751H4.1288V13.9412H6.18433C6.30091 13.8542 6.6021 13.1952 6.63636 13.0229C6.65111 12.9501 6.76768 12.9501 6.76768 13.0082V14.5536L3.54593 14.5098C2.89025 14.5098 2.72943 14.5098 2.10278 14.5684C2 14.5779 2.00238 14.4271 2.07328 14.3933C2.78748 14.0583 2.8755 14.2472 2.8755 13.227V10.4426C2.8755 9.68459 2.65758 9.71409 2.07328 9.49474C2.01237 9.4719 2.04473 9.36389 2.10278 9.34914ZM7.74453 9.31964L9.85811 9.36389L11.4764 12.6875L13.1531 9.40767H14.582C14.6986 9.40767 15.1511 9.36389 15.2234 9.34914C15.2967 9.33439 15.311 9.48047 15.2523 9.50949C15.1938 9.53852 14.4939 9.83019 14.4216 9.93249L14.8441 13.985C14.9026 14.1163 15.6149 14.4171 15.7329 14.437C15.8209 14.4518 15.7938 14.5565 15.7478 14.5536C15.2967 14.5246 13.2573 14.5246 12.8177 14.5536C12.7739 14.5563 12.5898 14.4846 12.7886 14.4223C13.0217 14.35 13.4885 14.1891 13.5903 14.014L13.2986 10.4863L11.2869 14.5536H10.9519L9.11479 10.5739L8.79409 13.985C8.92542 14.2472 9.53779 14.3642 9.61059 14.3933C9.68292 14.4223 9.68292 14.5308 9.62487 14.5246C9.18759 14.4808 7.55411 14.5098 7.38044 14.5393C7.29241 14.5536 7.13397 14.4428 7.33619 14.3785C7.90717 14.1982 8.09464 14.3642 8.22549 13.0377L8.57569 10.1219C8.61899 9.64082 8.00804 9.58229 7.73016 9.48047C7.68877 9.46524 7.64223 9.31964 7.74453 9.31964Z" fill="#00478C"/>
<path d="M19.9364 10.661L19.9802 9.31964C19.3816 9.24732 17.9065 9.00465 16.6851 9.90299C15.4185 10.8351 15.0726 13.2185 16.7146 14.2914C17.8076 15.0057 19.8051 14.5098 19.9511 14.437C20.0092 14.408 20.082 14.3642 20.082 14.3057C20.082 14.2472 20.0966 13.0519 20.0966 12.9939C20.0966 12.9358 20.0091 12.9501 19.9653 13.0082C19.922 13.0667 19.6979 13.9213 19.4843 14.0288C19.0142 14.2662 17.8965 14.4166 17.3122 13.227C16.9277 12.4439 16.9163 11.3823 17.472 10.4135C18.0506 9.40624 19.1345 9.69506 19.2659 9.77214C19.5133 9.91774 19.6655 10.2408 19.7759 10.6472C19.8197 10.807 19.922 10.778 19.9363 10.661M20.3451 8.63494C20.9565 8.06634 21.4966 8.27047 21.6855 8.45984C21.8753 8.64922 22 9.0646 21.5551 9.50949C21.3358 9.72837 20.8837 10.0781 20.8837 10.0781H21.5837C21.6565 10.0633 21.7845 9.81354 21.8316 9.74264C21.8611 9.69934 21.8896 9.71362 21.8896 9.77214V10.5154C21.6855 10.5006 20.476 10.5006 20.2866 10.5006V10.2532C20.6068 10.0053 20.9132 9.65557 21.1464 9.36389C21.3795 9.07222 21.3415 8.29473 20.5197 8.75152C20.3884 8.82432 20.3009 8.75152 20.3451 8.63494Z" fill="#00478C"/>
</svg>
