<svg width="24" height="24" viewBox="0 0 24 24" fill="none" xmlns="http://www.w3.org/2000/svg">
<path fill-rule="evenodd" clip-rule="evenodd" d="M8.43699 12.9977C8.39291 13.186 8.28568 13.3361 8.1153 13.4481C7.94493 13.5601 7.73642 13.6161 7.48979 13.6161C7.18478 13.6161 6.94292 13.5279 6.76301 13.3504C6.58311 13.1741 6.49375 12.9358 6.49375 12.6355C6.49375 12.3532 6.58549 12.1232 6.76778 11.9457C6.95007 11.7682 7.18598 11.6788 7.47431 11.6788C7.78408 11.6788 8.02594 11.7753 8.20228 11.9695C8.37861 12.1637 8.46678 12.4318 8.46678 12.7749V12.8178H7.15738C7.17287 12.9191 7.21219 12.9977 7.27414 13.0537C7.3361 13.1097 7.41473 13.1383 7.50886 13.1383C7.56962 13.1383 7.62204 13.1264 7.66613 13.1014C7.71021 13.0776 7.74119 13.043 7.76144 12.9989H8.43699V12.9977ZM7.17287 12.4318H7.80434C7.78885 12.3436 7.7531 12.2757 7.69711 12.2281C7.64111 12.1804 7.56962 12.1566 7.48145 12.1566C7.4052 12.1566 7.33967 12.1804 7.28606 12.2281C7.23244 12.2757 7.19551 12.3436 7.17406 12.4306L7.17287 12.4318Z" fill="#1D5366"/>
<path fill-rule="evenodd" clip-rule="evenodd" d="M8.64192 13.5636V11.7276H9.29483V12.0147C9.37347 11.9039 9.46283 11.8205 9.56291 11.7669C9.66299 11.7133 9.77499 11.6859 9.8989 11.6859C10.0919 11.6859 10.2432 11.749 10.3528 11.8765C10.4624 12.004 10.5173 12.1779 10.5173 12.4007V13.5648H9.8286V12.5127C9.8286 12.4317 9.80835 12.3685 9.76664 12.3245C9.72494 12.2804 9.66656 12.2577 9.59031 12.2577C9.51406 12.2577 9.4521 12.2816 9.40326 12.3292C9.35441 12.3769 9.33058 12.4377 9.33058 12.5127V13.5648H8.64192V13.5636Z" fill="#1D5366"/>
<path fill-rule="evenodd" clip-rule="evenodd" d="M10.6531 12.1803V11.7311H10.8795V11.1783H11.5717V11.7311H11.8529V12.1803H11.5717V12.9464C11.5717 12.994 11.5836 13.0274 11.6074 13.0477C11.6313 13.0679 11.6718 13.0786 11.7301 13.0786C11.7468 13.0786 11.7647 13.0786 11.785 13.0763C11.804 13.0751 11.8278 13.0727 11.8541 13.0691V13.5636C11.7504 13.5826 11.6622 13.5957 11.5907 13.6053C11.5193 13.6136 11.4609 13.6184 11.4144 13.6184C11.2297 13.6184 11.0939 13.5719 11.0093 13.4802C10.9235 13.3884 10.8818 13.2419 10.8818 13.0417V12.1791H10.6555L10.6531 12.1803Z" fill="#1D5366"/>
<path fill-rule="evenodd" clip-rule="evenodd" d="M13.9129 12.9977C13.8688 13.186 13.7616 13.3361 13.5912 13.4481C13.4208 13.5601 13.2123 13.6161 12.9657 13.6161C12.6607 13.6161 12.4188 13.5279 12.2389 13.3504C12.059 13.1741 11.9696 12.9358 11.9696 12.6355C11.9696 12.3532 12.0614 12.1232 12.2437 11.9457C12.4259 11.7682 12.6618 11.6788 12.9502 11.6788C13.26 11.6788 13.5018 11.7753 13.6781 11.9695C13.8545 12.1637 13.9427 12.4318 13.9427 12.7749V12.8178H12.6333C12.6487 12.9191 12.6881 12.9977 12.75 13.0537C12.812 13.1097 12.8906 13.1383 12.9847 13.1383C13.0455 13.1383 13.0979 13.1264 13.142 13.1014C13.1861 13.0776 13.2171 13.043 13.2373 12.9989H13.9129V12.9977ZM12.6487 12.4318H13.2802C13.2647 12.3436 13.229 12.2757 13.173 12.2281C13.117 12.1804 13.0455 12.1566 12.9573 12.1566C12.8811 12.1566 12.8155 12.1804 12.7619 12.2281C12.7083 12.2757 12.6714 12.3436 12.6499 12.4306L12.6487 12.4318Z" fill="#1D5366"/>
<path fill-rule="evenodd" clip-rule="evenodd" d="M14.1238 13.5636V11.73H14.7671V12.0362C14.8029 11.923 14.8708 11.836 14.9721 11.7776C15.0721 11.7192 15.2056 11.6871 15.37 11.6847V12.315C15.3474 12.3102 15.3235 12.3078 15.3009 12.3054C15.2783 12.303 15.2532 12.3018 15.2282 12.3018C15.0984 12.3018 14.9983 12.3376 14.9268 12.4103C14.8553 12.4829 14.8196 12.5842 14.8196 12.7153V13.5624H14.1238V13.5636Z" fill="#1D5366"/>
<path fill-rule="evenodd" clip-rule="evenodd" d="M15.4891 12.371C15.4987 12.1399 15.5785 11.9659 15.7274 11.8516C15.8776 11.7372 16.098 11.6788 16.3911 11.6788C16.5185 11.6788 16.6317 11.6883 16.7306 11.7062C16.8295 11.7241 16.9141 11.7515 16.9832 11.7872C17.1107 11.8504 17.2001 11.929 17.2501 12.0231C17.3001 12.1173 17.3263 12.2555 17.3263 12.4401V13.4016C17.3263 13.4266 17.3335 13.4493 17.3466 13.4684C17.3597 13.4874 17.3788 13.5029 17.4038 13.5148V13.5649H16.6889L16.6675 13.3611C16.596 13.4517 16.5138 13.516 16.4232 13.5565C16.3315 13.5958 16.2135 13.6161 16.0694 13.6161C15.8668 13.6161 15.7072 13.566 15.5892 13.4672C15.4713 13.3683 15.4129 13.2336 15.4129 13.0645C15.4129 12.8953 15.4665 12.7666 15.5737 12.6772C15.681 12.5879 15.8644 12.52 16.123 12.4759C16.1587 12.4699 16.2076 12.4616 16.2695 12.452C16.5114 12.4139 16.6317 12.3579 16.6317 12.2841C16.6317 12.2352 16.6127 12.1983 16.5745 12.1733C16.5364 12.1482 16.4816 12.1351 16.4089 12.1351C16.3255 12.1351 16.2624 12.1542 16.2195 12.1911C16.1766 12.2281 16.1504 12.2888 16.1397 12.371H15.4891ZM16.6579 12.7308C16.6115 12.7702 16.5328 12.8023 16.4209 12.8285C16.4113 12.8309 16.4042 12.8321 16.3982 12.8333C16.2636 12.8655 16.1766 12.8941 16.1385 12.9203C16.1004 12.9465 16.0813 12.9811 16.0813 13.0239C16.0813 13.0668 16.1039 13.1026 16.148 13.1324C16.1921 13.161 16.2493 13.1753 16.3184 13.1753C16.4292 13.1753 16.5138 13.1431 16.5722 13.0799C16.6305 13.0168 16.6603 12.9262 16.6603 12.8071C16.6603 12.7857 16.6603 12.7702 16.6603 12.7594C16.6603 12.7487 16.6591 12.7392 16.6579 12.7297V12.7308Z" fill="#1D5366"/>
<path fill-rule="evenodd" clip-rule="evenodd" d="M17.48 12.9404H18.1234C18.1294 13.0238 18.1544 13.0858 18.1973 13.1251C18.2402 13.1656 18.3045 13.1847 18.3879 13.1847C18.4546 13.1847 18.5083 13.1715 18.5488 13.1441C18.5893 13.1167 18.6107 13.0822 18.6107 13.0393C18.6107 12.9761 18.5095 12.9249 18.3081 12.8844C18.2676 12.8761 18.2366 12.8701 18.2152 12.8653C17.9614 12.8093 17.7803 12.7367 17.6731 12.6461C17.5646 12.5556 17.511 12.4352 17.511 12.2815C17.511 12.0885 17.5849 11.9396 17.7326 11.8347C17.8804 11.7299 18.0901 11.6763 18.3605 11.6763C18.631 11.6763 18.8597 11.7275 19.0075 11.8288C19.1552 11.9301 19.2315 12.079 19.2339 12.2756H18.6191C18.6107 12.2148 18.5869 12.1695 18.5476 12.1409C18.5083 12.1124 18.4511 12.0981 18.3772 12.0981C18.3176 12.0981 18.2688 12.1076 18.233 12.1278C18.1973 12.1481 18.1794 12.1731 18.1794 12.2053C18.1794 12.2315 18.1949 12.2541 18.2271 12.2732C18.2593 12.2923 18.3093 12.3089 18.3772 12.322C18.4249 12.3316 18.4904 12.3447 18.575 12.3602C18.7871 12.4007 18.9193 12.4352 18.9717 12.4638C19.0861 12.527 19.1683 12.5985 19.2172 12.6795C19.266 12.7605 19.2899 12.8642 19.2899 12.9916C19.2899 13.1906 19.2136 13.3443 19.0599 13.4527C18.9062 13.5611 18.6882 13.6148 18.4034 13.6148C18.096 13.6148 17.8649 13.5588 17.7112 13.4468C17.5575 13.3348 17.48 13.1656 17.4777 12.9392L17.48 12.9404Z" fill="#93A9B4"/>
<path fill-rule="evenodd" clip-rule="evenodd" d="M19.2577 11.73H20.0047L20.1787 12.5736C20.1822 12.5879 20.1858 12.6093 20.1918 12.6355C20.2239 12.7868 20.2406 12.9024 20.2442 12.981H20.2597C20.268 12.8929 20.2776 12.8166 20.2871 12.7523C20.2966 12.6891 20.3073 12.6296 20.3193 12.576L20.5075 11.7288H21.2391L20.7303 13.4255C20.6469 13.7066 20.5456 13.9008 20.4253 14.0069C20.305 14.1129 20.131 14.1665 19.9023 14.1665C19.8891 14.1665 19.8748 14.1665 19.8582 14.1653C19.8415 14.1653 19.8177 14.163 19.7867 14.1606L19.4662 14.1379V13.5768C19.5138 13.5839 19.5543 13.5887 19.5889 13.5923C19.6235 13.5958 19.652 13.597 19.6771 13.597C19.7307 13.597 19.7688 13.5875 19.7903 13.5684C19.8117 13.5494 19.8224 13.5172 19.8224 13.4707C19.8224 13.4552 19.8212 13.4386 19.8177 13.4219C19.8141 13.4052 19.8105 13.3897 19.8069 13.3778L19.2601 11.7276L19.2577 11.73Z" fill="#93A9B4"/>
<path fill-rule="evenodd" clip-rule="evenodd" d="M21.1902 12.9404H21.8336C21.8395 13.0238 21.8646 13.0858 21.9075 13.1251C21.9503 13.1656 22.0147 13.1847 22.0981 13.1847C22.1648 13.1847 22.2184 13.1715 22.2589 13.1441C22.2994 13.1167 22.3209 13.0822 22.3209 13.0393C22.3209 12.9761 22.2196 12.9249 22.0183 12.8844C21.9777 12.8761 21.9468 12.8701 21.9253 12.8653C21.6715 12.8093 21.4904 12.7367 21.3832 12.6461C21.2748 12.5556 21.2212 12.4352 21.2212 12.2815C21.2212 12.0885 21.2951 11.9396 21.4428 11.8347C21.5905 11.7299 21.8002 11.6763 22.0707 11.6763C22.3411 11.6763 22.5699 11.7275 22.7176 11.8288C22.8654 11.9301 22.9416 12.079 22.944 12.2756H22.3292C22.3209 12.2148 22.2971 12.1695 22.2577 12.1409C22.2184 12.1124 22.1612 12.0981 22.0874 12.0981C22.0278 12.0981 21.9789 12.1076 21.9432 12.1278C21.9075 12.1481 21.8896 12.1731 21.8896 12.2053C21.8896 12.2315 21.9051 12.2541 21.9372 12.2732C21.9694 12.2923 22.0194 12.3089 22.0874 12.322C22.135 12.3316 22.2005 12.3447 22.2851 12.3602C22.4972 12.4007 22.6295 12.4352 22.6819 12.4638C22.7963 12.527 22.8785 12.5985 22.9273 12.6795C22.9762 12.7605 23 12.8642 23 12.9916C23 13.1906 22.9238 13.3443 22.7701 13.4527C22.6164 13.5611 22.3983 13.6148 22.1136 13.6148C21.8062 13.6148 21.575 13.5588 21.4213 13.4468C21.2676 13.3348 21.1902 13.1656 21.1878 12.9392L21.1902 12.9404Z" fill="#93A9B4"/>
<path d="M3.73793 14.8849C5.08686 14.8849 6.18039 13.7914 6.18039 12.4425C6.18039 11.0935 5.08686 10 3.73793 10C2.389 10 1.29547 11.0935 1.29547 12.4425C1.29547 13.7914 2.389 14.8849 3.73793 14.8849Z" fill="#E53662"/>
<path fill-rule="evenodd" clip-rule="evenodd" d="M1.60168 12.1827H3.55565C3.51633 11.9468 3.41029 11.7609 3.23753 11.6275C3.06477 11.4928 2.84555 11.4261 2.57986 11.4261C2.31416 11.4261 2.09732 11.4928 1.92456 11.6275C1.75061 11.7621 1.64219 11.9468 1.60049 12.1827H1.60168ZM1.58619 12.5401V12.5604C1.58619 12.8237 1.67913 13.0381 1.8638 13.2038C2.04847 13.3694 2.28795 13.4528 2.58224 13.4528C2.80147 13.4528 2.98852 13.4087 3.1446 13.3217C3.29949 13.2347 3.40672 13.1132 3.46391 12.9607H4.0501C3.95002 13.2645 3.77249 13.5004 3.51514 13.6708C3.25779 13.8412 2.94682 13.9246 2.58224 13.9246C2.11996 13.9246 1.75061 13.7899 1.4742 13.5207C1.19778 13.2514 1.05958 12.8916 1.05958 12.4412C1.05958 11.9909 1.19778 11.631 1.4742 11.363C1.75061 11.0937 2.12115 10.9591 2.58343 10.9591C3.04571 10.9591 3.42697 11.0901 3.69505 11.3534C3.96312 11.6168 4.09776 11.979 4.09776 12.4412V12.5401H1.58619Z" fill="white"/>
<path fill-rule="evenodd" clip-rule="evenodd" d="M2.58343 11.0186C2.13335 11.0186 1.77888 11.1493 1.51576 11.4056L1.51567 11.4057C1.25281 11.6607 1.11914 12.004 1.11914 12.4412C1.11914 12.8784 1.25279 13.2218 1.51576 13.478C1.77891 13.7343 2.13221 13.865 2.58224 13.865C2.93752 13.865 3.23648 13.7838 3.48225 13.6211C3.70555 13.4733 3.86587 13.2742 3.96536 13.0203H3.50394C3.4384 13.1689 3.32675 13.2877 3.17377 13.3736L3.1736 13.3737C3.00697 13.4666 2.8095 13.5123 2.58224 13.5123C2.27606 13.5123 2.02154 13.4252 1.82402 13.2481C1.62597 13.0705 1.52662 12.8395 1.52662 12.5604V12.4805H4.03818V12.4412C4.03818 11.9911 3.9075 11.6456 3.6533 11.3959C3.39923 11.1464 3.03463 11.0186 2.58343 11.0186ZM1.43267 11.3202C1.72238 11.0381 2.10897 10.8995 2.58343 10.8995C3.05679 10.8995 3.45471 11.0339 3.73679 11.3109C4.01873 11.5879 4.15732 11.9668 4.15732 12.4412V12.5997H1.64651C1.65527 12.8289 1.74144 13.014 1.90357 13.1594C2.0754 13.3135 2.29984 13.3932 2.58224 13.3932C2.79339 13.3932 2.97 13.3508 3.11552 13.2697C3.25923 13.189 3.35632 13.0779 3.40813 12.9398L3.42262 12.9011H4.13244L4.10668 12.9793C4.00258 13.2953 3.81699 13.5424 3.54802 13.7205C3.27909 13.8985 2.95611 13.9841 2.58224 13.9841C2.10771 13.9841 1.72231 13.8455 1.43263 13.5633C1.14277 13.281 1 12.9047 1 12.4412C1 11.9778 1.14274 11.6015 1.43267 11.3202ZM1.88803 11.5804C2.07331 11.4361 2.30382 11.3665 2.57985 11.3665C2.85574 11.3665 3.08868 11.436 3.27405 11.5804C3.45991 11.724 3.5729 11.9239 3.61441 12.1729L3.62597 12.2422H1.52946L1.54182 12.1723C1.58588 11.9231 1.70145 11.7248 1.88803 11.5804ZM2.57985 11.4857C2.32454 11.4857 2.12141 11.5496 1.96118 11.6745L1.96102 11.6746C1.81707 11.786 1.72094 11.9343 1.67397 12.1231H3.48293C3.438 11.9337 3.34373 11.7848 3.20111 11.6746L3.20091 11.6745C3.04078 11.5497 2.8353 11.4857 2.57985 11.4857Z" fill="white"/>
<path fill-rule="evenodd" clip-rule="evenodd" d="M9.16019 14.5621H9.35797L9.80953 15.1149V14.6896C9.80953 14.6443 9.80476 14.6157 9.79404 14.605C9.78093 14.5895 9.75949 14.5823 9.7297 14.5823H9.70349V14.5621H9.96203V14.5823H9.93582C9.90484 14.5823 9.88221 14.5919 9.8691 14.6109C9.86076 14.6229 9.85719 14.6491 9.85719 14.6908V15.3115H9.83812L9.3532 14.7182V15.1721C9.3532 15.2174 9.35797 15.246 9.3675 15.2567C9.3818 15.2722 9.40325 15.2793 9.43184 15.2793H9.45805V15.2996H9.19951V15.2793H9.22572C9.25789 15.2793 9.28053 15.2698 9.29363 15.2507C9.30197 15.2388 9.30555 15.2126 9.30555 15.1709V14.6586C9.2841 14.6336 9.26861 14.6169 9.2567 14.6086C9.24598 14.6002 9.2293 14.5931 9.20785 14.5859C9.19713 14.5823 9.18164 14.5812 9.16019 14.5812V14.5609V14.5621Z" fill="#1D5366"/>
<path fill-rule="evenodd" clip-rule="evenodd" d="M10.1991 14.9885C10.1991 15.0624 10.217 15.1196 10.2527 15.1613C10.2885 15.203 10.3314 15.2244 10.3802 15.2244C10.4124 15.2244 10.441 15.2161 10.4648 15.1982C10.4886 15.1803 10.5089 15.1494 10.5256 15.1065L10.5423 15.1172C10.5351 15.1672 10.5125 15.2125 10.4767 15.253C10.4398 15.2935 10.3945 15.3138 10.3397 15.3138C10.2801 15.3138 10.2289 15.2911 10.1872 15.2447C10.1443 15.1982 10.1241 15.1362 10.1241 15.0576C10.1241 14.973 10.1455 14.9063 10.1896 14.8586C10.2337 14.811 10.2873 14.7872 10.354 14.7872C10.41 14.7872 10.4553 14.805 10.491 14.842C10.5268 14.8789 10.5446 14.9277 10.5446 14.9885H10.2015H10.1991ZM10.1991 14.9575H10.4291C10.4267 14.9254 10.4231 14.9039 10.4172 14.8908C10.4076 14.8706 10.3945 14.8551 10.3766 14.8432C10.3588 14.8312 10.3397 14.8253 10.3206 14.8253C10.2909 14.8253 10.2635 14.8372 10.2396 14.8598C10.2158 14.8837 10.2027 14.9158 10.1979 14.9575H10.1991Z" fill="#1D5366"/>
<path fill-rule="evenodd" clip-rule="evenodd" d="M10.8568 14.6383V14.8015H10.9724V14.8384H10.8568V15.1613C10.8568 15.1935 10.8616 15.2149 10.8711 15.2268C10.8806 15.2376 10.8926 15.2435 10.9068 15.2435C10.9188 15.2435 10.9307 15.24 10.9414 15.2328C10.9521 15.2257 10.9617 15.2137 10.9676 15.1994H10.9891C10.976 15.2352 10.9581 15.2626 10.9354 15.2805C10.9128 15.2983 10.8878 15.3079 10.864 15.3079C10.8473 15.3079 10.8306 15.3031 10.8151 15.2936C10.7996 15.284 10.7877 15.2709 10.7794 15.2543C10.7722 15.2376 10.7674 15.2102 10.7674 15.1744V14.8396H10.6888V14.8218C10.7091 14.8134 10.7293 14.8003 10.7496 14.7812C10.771 14.7622 10.7889 14.7395 10.8056 14.7145C10.8139 14.7002 10.8258 14.6752 10.8401 14.6395H10.8568V14.6383Z" fill="#1D5366"/>
<path fill-rule="evenodd" clip-rule="evenodd" d="M11.0951 14.8015H11.3036V14.8217C11.2845 14.8229 11.2714 14.8265 11.2655 14.8324C11.2595 14.8384 11.2559 14.8455 11.2559 14.8563C11.2559 14.867 11.2595 14.8813 11.2655 14.8968L11.3727 15.1827L11.4799 14.9492L11.4513 14.8765C11.443 14.8551 11.4311 14.8396 11.4168 14.8312C11.4084 14.8265 11.3941 14.8229 11.3727 14.8217V14.8015H11.6074V14.8217C11.5824 14.8217 11.5645 14.8277 11.5538 14.836C11.5467 14.842 11.5431 14.8515 11.5431 14.8646C11.5431 14.8718 11.5443 14.8789 11.5478 14.886L11.6598 15.1696L11.7647 14.8956C11.7718 14.8765 11.7754 14.861 11.7754 14.8491C11.7754 14.842 11.7718 14.836 11.7647 14.8312C11.7575 14.8253 11.7432 14.8229 11.723 14.8217V14.8015H11.8791V14.8217C11.8481 14.8265 11.8243 14.8479 11.81 14.8849L11.6444 15.3126H11.6229L11.499 14.9945L11.3524 15.3126H11.3334L11.1737 14.8944C11.163 14.8682 11.1535 14.8503 11.1428 14.8408C11.1332 14.8312 11.1165 14.8241 11.0951 14.8193V14.7991V14.8015Z" fill="#1D5366"/>
<path fill-rule="evenodd" clip-rule="evenodd" d="M12.2734 14.7872C12.3485 14.7872 12.4093 14.8158 12.4545 14.873C12.4927 14.9218 12.5129 14.9778 12.5129 15.0409C12.5129 15.085 12.5022 15.1303 12.4807 15.1756C12.4593 15.2209 12.4295 15.2554 12.3926 15.278C12.3556 15.3007 12.3139 15.3126 12.2675 15.3126C12.1924 15.3126 12.1328 15.2828 12.0888 15.2232C12.0518 15.1732 12.0328 15.1172 12.0328 15.0541C12.0328 15.0088 12.0435 14.9635 12.0661 14.9182C12.0888 14.873 12.1185 14.8396 12.1555 14.8181C12.1924 14.7967 12.2317 14.786 12.2722 14.786L12.2734 14.7872ZM12.2568 14.8229C12.2377 14.8229 12.2186 14.8289 12.1996 14.8396C12.1805 14.8515 12.165 14.8706 12.1531 14.8992C12.1412 14.9278 12.1352 14.9647 12.1352 15.0088C12.1352 15.0815 12.1495 15.1434 12.1781 15.1958C12.2067 15.2483 12.2448 15.2745 12.2913 15.2745C12.3259 15.2745 12.3556 15.2602 12.3783 15.2316C12.4009 15.203 12.4128 15.1529 12.4128 15.0826C12.4128 14.9945 12.3938 14.9254 12.3556 14.8753C12.3294 14.8408 12.2973 14.8229 12.2579 14.8229H12.2568Z" fill="#1D5366"/>
<path fill-rule="evenodd" clip-rule="evenodd" d="M12.8346 14.7872V14.8992C12.8763 14.8241 12.918 14.7872 12.9621 14.7872C12.9823 14.7872 12.9978 14.7931 13.0109 14.805C13.024 14.817 13.03 14.8313 13.03 14.8467C13.03 14.861 13.0252 14.873 13.0157 14.8825C13.0062 14.892 12.9955 14.8968 12.9823 14.8968C12.9692 14.8968 12.9561 14.8908 12.9406 14.8777C12.9252 14.8646 12.9132 14.8587 12.9061 14.8587C12.9001 14.8587 12.893 14.8622 12.8846 14.8694C12.868 14.8837 12.8513 14.9087 12.8346 14.9433V15.1803C12.8346 15.2078 12.8382 15.2292 12.8453 15.2435C12.8501 15.253 12.8584 15.2614 12.8703 15.2673C12.8823 15.2733 12.8989 15.2769 12.9216 15.2769V15.2971H12.6678V15.2769C12.6928 15.2769 12.7119 15.2733 12.7238 15.2649C12.7333 15.259 12.7393 15.2495 12.7429 15.2375C12.7452 15.2316 12.7452 15.2137 12.7452 15.1851V14.9933C12.7452 14.9361 12.7452 14.9016 12.7417 14.8896C12.7393 14.8789 12.7345 14.8706 12.7286 14.8658C12.7226 14.861 12.7143 14.8587 12.7047 14.8587C12.694 14.8587 12.6809 14.861 12.6666 14.867L12.6607 14.8467L12.8108 14.786H12.8334L12.8346 14.7872Z" fill="#1D5366"/>
<path fill-rule="evenodd" clip-rule="evenodd" d="M13.3088 14.5263V15.022L13.4351 14.9064C13.4613 14.8814 13.4768 14.8659 13.4816 14.8599C13.4839 14.8552 13.4863 14.8516 13.4863 14.8468C13.4863 14.8397 13.4839 14.8337 13.4768 14.8278C13.4708 14.823 13.4613 14.8194 13.447 14.8182V14.8004H13.6627V14.8182C13.6329 14.8182 13.609 14.823 13.5888 14.8313C13.5697 14.8397 13.5471 14.8552 13.5244 14.8766L13.397 14.9946L13.5233 15.1566C13.559 15.2007 13.5828 15.2293 13.5947 15.2412C13.6126 15.2579 13.6281 15.2686 13.6412 15.2734C13.6507 15.2769 13.6662 15.2781 13.6889 15.2781V15.2984H13.447V15.2781C13.4613 15.2781 13.4696 15.2757 13.4744 15.2722C13.4792 15.2686 13.4816 15.2626 13.4816 15.2567C13.4816 15.2483 13.4744 15.2352 13.4601 15.2174L13.3076 15.0232V15.1876C13.3076 15.2197 13.31 15.2412 13.3148 15.2507C13.3195 15.2603 13.3255 15.2686 13.3338 15.2722C13.3422 15.2757 13.36 15.2793 13.3874 15.2793V15.2996H13.1348V15.2793C13.1599 15.2793 13.1789 15.2757 13.192 15.2698C13.1992 15.2662 13.2051 15.2603 13.2099 15.2519C13.2159 15.24 13.2182 15.2197 13.2182 15.19V14.7372C13.2182 14.68 13.2171 14.6455 13.2147 14.6324C13.2123 14.6193 13.2075 14.6109 13.2028 14.6061C13.1968 14.6014 13.1896 14.599 13.1801 14.599C13.173 14.599 13.1611 14.6026 13.1456 14.6085L13.136 14.5883L13.2838 14.5275H13.3088V14.5263Z" fill="#1D5366"/>
<path fill-rule="evenodd" clip-rule="evenodd" d="M14.1404 14.7872V14.9563H14.1226C14.1094 14.9039 14.0916 14.867 14.0701 14.8479C14.0487 14.8289 14.0213 14.8193 13.9879 14.8193C13.9629 14.8193 13.9426 14.8265 13.9272 14.8396C13.9117 14.8527 13.9045 14.8682 13.9045 14.8837C13.9045 14.9039 13.9105 14.9218 13.9212 14.9361C13.9319 14.9504 13.9546 14.9671 13.9891 14.9837L14.0677 15.0219C14.1416 15.0576 14.1774 15.1053 14.1774 15.1637C14.1774 15.2089 14.1607 15.2447 14.1261 15.2733C14.0916 15.3007 14.0534 15.315 14.0117 15.315C13.982 15.315 13.9462 15.3102 13.9081 15.2995C13.8962 15.2959 13.8866 15.2947 13.8783 15.2947C13.87 15.2947 13.864 15.2995 13.8592 15.3078H13.8414V15.1303H13.8592C13.87 15.1815 13.889 15.2196 13.9176 15.2447C13.9462 15.2697 13.9784 15.2828 14.0141 15.2828C14.0392 15.2828 14.0594 15.2756 14.0749 15.2613C14.0904 15.2471 14.0987 15.2292 14.0987 15.2089C14.0987 15.1839 14.0904 15.1637 14.0725 15.1458C14.0546 15.1291 14.0201 15.1077 13.9677 15.0814C13.9152 15.0552 13.8807 15.0326 13.8652 15.0111C13.8485 14.9909 13.8414 14.9647 13.8414 14.9325C13.8414 14.892 13.8557 14.8575 13.8831 14.83C13.9105 14.8026 13.9474 14.7883 13.9915 14.7883C14.0106 14.7883 14.0344 14.7931 14.063 14.8015C14.0809 14.8074 14.094 14.8098 14.0999 14.8098C14.1059 14.8098 14.1106 14.8086 14.113 14.8062C14.1166 14.8038 14.1202 14.7979 14.1249 14.7895H14.1428L14.1404 14.7872Z" fill="#1D5366"/>
<path fill-rule="evenodd" clip-rule="evenodd" d="M14.8839 14.6383V14.8015H14.9994V14.8384H14.8839V15.1613C14.8839 15.1935 14.8886 15.2149 14.8982 15.2268C14.9077 15.2376 14.9196 15.2435 14.9339 15.2435C14.9458 15.2435 14.9577 15.24 14.9685 15.2328C14.9792 15.2257 14.9887 15.2137 14.9947 15.1994H15.0161C15.003 15.2352 14.9852 15.2626 14.9625 15.2805C14.9399 15.2983 14.916 15.3079 14.891 15.3079C14.8743 15.3079 14.8577 15.3031 14.8422 15.2936C14.8267 15.284 14.8148 15.2709 14.8064 15.2543C14.7981 15.2376 14.7945 15.2102 14.7945 15.1744V14.8396H14.7159V14.8218C14.7361 14.8134 14.7564 14.8003 14.7766 14.7812C14.7969 14.7622 14.816 14.7395 14.8326 14.7145C14.841 14.7002 14.8529 14.6752 14.8672 14.6395H14.8839V14.6383Z" fill="#1D5366"/>
<path fill-rule="evenodd" clip-rule="evenodd" d="M15.2961 14.5263V14.8897C15.3366 14.8456 15.3676 14.8171 15.3914 14.8051C15.4153 14.7932 15.4379 14.7861 15.4617 14.7861C15.4903 14.7861 15.5142 14.7944 15.5344 14.8099C15.5547 14.8254 15.5702 14.8504 15.5797 14.8838C15.5868 14.9064 15.5904 14.9493 15.5904 15.0113V15.1876C15.5904 15.2186 15.5928 15.24 15.5976 15.2519C15.6011 15.2603 15.6071 15.2674 15.6154 15.2722C15.6238 15.2769 15.6404 15.2793 15.6631 15.2793V15.2996H15.42V15.2793H15.4319C15.4546 15.2793 15.4713 15.2758 15.4796 15.2686C15.4891 15.2615 15.4951 15.2507 15.4987 15.2376C15.4987 15.2317 15.4999 15.215 15.4999 15.1864V15.0101C15.4999 14.9553 15.4975 14.9195 15.4915 14.9028C15.4856 14.8862 15.4772 14.873 15.4641 14.8647C15.4522 14.8564 15.4367 14.8516 15.42 14.8516C15.4033 14.8516 15.3843 14.8564 15.364 14.8659C15.345 14.8754 15.3223 14.8945 15.2949 14.9231V15.1864C15.2949 15.2198 15.2973 15.2412 15.3009 15.2495C15.3045 15.2579 15.3116 15.265 15.3223 15.2698C15.3331 15.2758 15.3497 15.2781 15.3759 15.2781V15.2984H15.1305V15.2781C15.152 15.2781 15.1698 15.2746 15.1817 15.2674C15.1889 15.2638 15.1948 15.2567 15.1984 15.2472C15.2032 15.2376 15.2044 15.2162 15.2044 15.1852V14.7348C15.2044 14.6788 15.2032 14.6443 15.2008 14.6312C15.1984 14.6181 15.1937 14.6097 15.1889 14.605C15.1829 14.6002 15.1758 14.5978 15.1663 14.5978C15.1591 14.5978 15.146 14.6002 15.1293 14.6062L15.1222 14.5859L15.2711 14.5251H15.2961V14.5263Z" fill="#1D5366"/>
<path fill-rule="evenodd" clip-rule="evenodd" d="M16.0884 15.2268C16.0372 15.2661 16.005 15.2888 15.9919 15.2959C15.9729 15.3054 15.9514 15.309 15.93 15.309C15.8954 15.309 15.8668 15.2971 15.8454 15.2733C15.8227 15.2495 15.812 15.2185 15.812 15.1803C15.812 15.1565 15.818 15.1351 15.8287 15.1172C15.843 15.0922 15.8692 15.0695 15.9061 15.0481C15.9431 15.0267 16.0038 15.0004 16.0896 14.9683V14.9492C16.0896 14.9004 16.0813 14.8658 16.0658 14.8479C16.0503 14.8301 16.0277 14.8205 15.9979 14.8205C15.9752 14.8205 15.9574 14.8265 15.9443 14.8384C15.9312 14.8503 15.924 14.8646 15.924 14.8813V14.9123C15.924 14.929 15.9204 14.9421 15.9121 14.9504C15.9038 14.9599 15.8918 14.9635 15.8787 14.9635C15.8656 14.9635 15.8537 14.9587 15.8454 14.9492C15.837 14.9397 15.8323 14.9266 15.8323 14.9111C15.8323 14.8801 15.8478 14.8515 15.8799 14.8253C15.9121 14.7991 15.9562 14.786 16.0146 14.786C16.0586 14.786 16.0944 14.7931 16.123 14.8086C16.1444 14.8193 16.1599 14.8372 16.1706 14.861C16.1766 14.8765 16.1802 14.9087 16.1802 14.9564V15.1244C16.1802 15.172 16.1802 15.2006 16.1826 15.2113C16.1849 15.222 16.1873 15.2292 16.1921 15.2328C16.1969 15.2363 16.2016 15.2387 16.2064 15.2387C16.2123 15.2387 16.2171 15.2375 16.2219 15.2352C16.229 15.2304 16.2445 15.2173 16.266 15.1958V15.2256C16.2254 15.2804 16.1861 15.3078 16.1492 15.3078C16.1313 15.3078 16.117 15.3019 16.1063 15.29C16.0956 15.278 16.0908 15.2566 16.0896 15.2268H16.0884ZM16.0884 15.1911V15.0016C16.0336 15.0231 15.9979 15.0386 15.9824 15.0481C15.9538 15.0636 15.9335 15.0803 15.9204 15.0981C15.9085 15.116 15.9014 15.1339 15.9014 15.1553C15.9014 15.1815 15.9097 15.203 15.9252 15.2197C15.9407 15.2363 15.9586 15.2459 15.9788 15.2459C16.0062 15.2459 16.0432 15.228 16.0884 15.1923V15.1911Z" fill="#1D5366"/>
<path fill-rule="evenodd" clip-rule="evenodd" d="M16.5495 14.6383V14.8015H16.6651V14.8384H16.5495V15.1613C16.5495 15.1935 16.5543 15.2149 16.5638 15.2268C16.5733 15.2376 16.5853 15.2435 16.5996 15.2435C16.6115 15.2435 16.6234 15.24 16.6341 15.2328C16.6448 15.2257 16.6544 15.2137 16.6603 15.1994H16.6818C16.6687 15.2352 16.6508 15.2626 16.6282 15.2805C16.6055 15.2983 16.5805 15.3079 16.5567 15.3079C16.54 15.3079 16.5233 15.3031 16.5078 15.2936C16.4923 15.284 16.4804 15.2709 16.4721 15.2543C16.4637 15.2376 16.4602 15.2102 16.4602 15.1744V14.8396H16.3815V14.8218C16.4018 14.8134 16.422 14.8003 16.4423 14.7812C16.4637 14.7622 16.4816 14.7395 16.4983 14.7145C16.5066 14.7002 16.5185 14.6752 16.5328 14.6395H16.5495V14.6383Z" fill="#1D5366"/>
<path fill-rule="evenodd" clip-rule="evenodd" d="M17.4943 14.8909L17.766 15.1602C17.8101 15.2054 17.8482 15.2352 17.8804 15.2519C17.9113 15.2686 17.9435 15.2769 17.9745 15.2793V15.2996H17.6242V15.2793C17.6456 15.2793 17.6599 15.2757 17.6695 15.2686C17.679 15.2614 17.6838 15.2531 17.6838 15.2448C17.6838 15.2364 17.6826 15.2281 17.679 15.2209C17.6754 15.2138 17.6647 15.2007 17.6456 15.1828L17.3919 14.9314V15.1685C17.3919 15.2054 17.3943 15.2305 17.399 15.2424C17.4026 15.2519 17.4109 15.2591 17.4217 15.2662C17.4371 15.2745 17.4538 15.2793 17.4717 15.2793H17.4967V15.2996H17.181V15.2793H17.2072C17.2382 15.2793 17.2596 15.271 17.2739 15.2531C17.2823 15.2412 17.287 15.2138 17.287 15.1697V14.6931C17.287 14.6562 17.2846 14.6312 17.2799 14.6192C17.2763 14.6109 17.2692 14.6026 17.2572 14.5966C17.2417 14.5883 17.2251 14.5835 17.2072 14.5835H17.181V14.5632H17.4967V14.5835H17.4717C17.455 14.5835 17.4383 14.5871 17.4217 14.5954C17.4097 14.6014 17.4026 14.6097 17.3978 14.6216C17.3931 14.6335 17.3907 14.6574 17.3907 14.6931V14.9183C17.3978 14.9111 17.4228 14.8885 17.4646 14.8492C17.5718 14.7503 17.6373 14.6848 17.6588 14.6526C17.6683 14.6383 17.6731 14.6252 17.6731 14.6145C17.6731 14.6061 17.6695 14.599 17.6611 14.593C17.654 14.5871 17.6409 14.5835 17.623 14.5835H17.6063V14.5632H17.8768V14.5835C17.8613 14.5835 17.847 14.5859 17.8339 14.5907C17.8208 14.5942 17.8053 14.6026 17.7862 14.6145C17.7672 14.6264 17.7445 14.6443 17.7171 14.6705C17.7088 14.6776 17.6719 14.7146 17.6063 14.7813L17.4931 14.8933L17.4943 14.8909Z" fill="#1D5366"/>
<path fill-rule="evenodd" clip-rule="evenodd" d="M18.2485 14.8908C18.3069 14.8217 18.3617 14.7872 18.4141 14.7872C18.4415 14.7872 18.4642 14.7943 18.4844 14.8074C18.5035 14.8205 18.519 14.8432 18.5309 14.8742C18.5392 14.8956 18.5428 14.929 18.5428 14.9742V15.1863C18.5428 15.2173 18.5452 15.2387 18.55 15.2495C18.5535 15.259 18.5607 15.265 18.569 15.2709C18.5774 15.2757 18.594 15.2781 18.6179 15.2781V15.2983H18.3724V15.2781H18.3831C18.4058 15.2781 18.4225 15.2745 18.432 15.2673C18.4415 15.2602 18.4475 15.2495 18.4511 15.2364C18.4523 15.2304 18.4534 15.2137 18.4534 15.1851V14.9802C18.4534 14.9349 18.4475 14.9016 18.4356 14.8813C18.4237 14.8611 18.4046 14.8503 18.376 14.8503C18.3331 14.8503 18.2902 14.8742 18.2485 14.9206V15.1839C18.2485 15.2173 18.2509 15.2376 18.2545 15.2459C18.2592 15.2566 18.2664 15.2638 18.2759 15.2685C18.2843 15.2733 18.3033 15.2757 18.3295 15.2757V15.2959H18.0829V15.2757H18.0936C18.1186 15.2757 18.1365 15.2697 18.1449 15.2566C18.1532 15.2435 18.158 15.2197 18.158 15.1839V14.9993C18.158 14.9397 18.1568 14.9039 18.1544 14.8908C18.152 14.8777 18.1472 14.8694 18.1425 14.8646C18.1365 14.8599 18.1294 14.8575 18.1198 14.8575C18.1103 14.8575 18.0972 14.8599 18.0841 14.8658L18.0758 14.8456L18.2259 14.7848H18.2497V14.8885L18.2485 14.8908Z" fill="#1D5366"/>
<path fill-rule="evenodd" clip-rule="evenodd" d="M19.0075 14.7872C19.0825 14.7872 19.1433 14.8158 19.1886 14.873C19.2267 14.9218 19.247 14.9778 19.247 15.0409C19.247 15.085 19.2362 15.1303 19.2148 15.1756C19.1933 15.2209 19.1636 15.2554 19.1266 15.278C19.0897 15.3007 19.048 15.3126 19.0015 15.3126C18.9265 15.3126 18.8669 15.2828 18.8228 15.2232C18.7859 15.1732 18.7668 15.1172 18.7668 15.0541C18.7668 15.0088 18.7775 14.9635 18.8002 14.9182C18.8228 14.873 18.8526 14.8396 18.8895 14.8181C18.9265 14.7967 18.9658 14.786 19.0063 14.786L19.0075 14.7872ZM18.9908 14.8229C18.9717 14.8229 18.9527 14.8289 18.9336 14.8396C18.9145 14.8515 18.8991 14.8706 18.8871 14.8992C18.8752 14.9278 18.8693 14.9647 18.8693 15.0088C18.8693 15.0815 18.8836 15.1434 18.9122 15.1958C18.9408 15.2483 18.9789 15.2745 19.0253 15.2745C19.0599 15.2745 19.0897 15.2602 19.1123 15.2316C19.135 15.203 19.1469 15.1529 19.1469 15.0826C19.1469 14.9945 19.1278 14.9254 19.0897 14.8753C19.0635 14.8408 19.0313 14.8229 18.992 14.8229H18.9908Z" fill="#1D5366"/>
<path fill-rule="evenodd" clip-rule="evenodd" d="M19.3935 14.8015H19.602V14.8217C19.5829 14.8229 19.5698 14.8265 19.5639 14.8324C19.5579 14.8384 19.5543 14.8455 19.5543 14.8563C19.5543 14.867 19.5579 14.8813 19.5639 14.8968L19.6711 15.1827L19.7783 14.9492L19.7497 14.8765C19.7414 14.8551 19.7295 14.8396 19.7152 14.8312C19.7069 14.8265 19.6926 14.8229 19.6711 14.8217V14.8015H19.9058V14.8217C19.8808 14.8217 19.8629 14.8277 19.8522 14.836C19.8451 14.842 19.8415 14.8515 19.8415 14.8646C19.8415 14.8718 19.8427 14.8789 19.8462 14.886L19.9582 15.1696L20.0631 14.8956C20.0702 14.8765 20.0738 14.861 20.0738 14.8491C20.0738 14.842 20.0702 14.836 20.0631 14.8312C20.0559 14.8253 20.0416 14.8229 20.0214 14.8217V14.8015H20.1775V14.8217C20.1465 14.8265 20.1227 14.8479 20.1084 14.8849L19.9428 15.3126H19.9213L19.7974 14.9945L19.6509 15.3126H19.6318L19.4721 14.8944C19.4614 14.8682 19.4519 14.8503 19.4412 14.8408C19.4316 14.8312 19.4149 14.8241 19.3935 14.8193V14.7991V14.8015Z" fill="#1D5366"/>
</svg>
