<svg width="24" height="24" viewBox="0 0 24 24" fill="none" xmlns="http://www.w3.org/2000/svg">
<path d="M22.1538 8.33991V8.31574C22.1538 8.30365 22.1418 8.30365 22.1297 8.29156C22.1176 8.29156 22.1055 8.27947 22.1055 8.27947H22.033V8.40035H22.1055C22.1176 8.40035 22.1297 8.38826 22.1418 8.38826C22.1538 8.38826 22.1538 8.37617 22.1538 8.36409V8.33991ZM22.3473 8.6542H22.2022L22.0692 8.49705H22.033V8.6542H21.9242V8.21903H22.1659C22.1901 8.21903 22.2022 8.23112 22.2264 8.24321C22.2506 8.2553 22.2626 8.26738 22.2747 8.27947C22.2868 8.29156 22.2868 8.31574 22.2868 8.33991C22.2868 8.37617 22.2747 8.40035 22.2626 8.42453C22.2505 8.4487 22.2264 8.46079 22.1901 8.47288L22.3473 8.6542ZM22.444 8.4487C22.444 8.352 22.4077 8.26738 22.3473 8.20694C22.2747 8.13442 22.2022 8.09815 22.1055 8.09815C22.0088 8.09815 21.9242 8.13442 21.8637 8.20694C21.7912 8.27947 21.767 8.352 21.767 8.4487C21.767 8.54541 21.8033 8.63002 21.8637 8.69046C21.9363 8.76299 22.0088 8.79925 22.1055 8.79925C22.2022 8.79925 22.2868 8.76299 22.3473 8.69046C22.4077 8.61793 22.444 8.54541 22.444 8.4487ZM22.5407 8.4487C22.5407 8.56958 22.4923 8.67837 22.4077 8.76299C22.3231 8.8476 22.2143 8.89595 22.0934 8.89595C21.9725 8.89595 21.8637 8.8476 21.7791 8.76299C21.6945 8.67837 21.6462 8.56958 21.6462 8.4487C21.6462 8.32782 21.6945 8.21903 21.7791 8.13442C21.8637 8.0498 21.9725 8.00145 22.0934 8.00145C22.2143 8.00145 22.3231 8.0498 22.4077 8.13442C22.5044 8.21903 22.5407 8.32782 22.5407 8.4487ZM4.03407 8.4487C2.94615 8.4487 2.01538 9.01683 1.51978 9.81464C1.0967 10.5641 1 11.7729 1 12.5707C1 13.3685 1.0967 14.5894 1.51978 15.3267C2.0033 16.1245 2.93407 16.6927 4.03407 16.6927H19.9659C21.0538 16.6927 21.9846 16.1245 22.4802 15.3267C22.9033 14.5894 23 13.3685 23 12.5707C23 11.7729 22.9033 10.552 22.4802 9.81464C21.9967 9.01683 21.0659 8.4487 19.9659 8.4487H4.03407Z" fill="#0094A1"/>
<path d="M14.6352 12.1236H15.9769V12.0873C15.9769 11.4708 15.7352 11.4346 15.2879 11.4346C14.744 11.4225 14.6473 11.5917 14.6352 12.1236ZM5.21868 11.4587C5.65385 11.4587 5.8956 11.5071 5.8956 12.0994V12.1236H4.57802C4.59011 11.6159 4.6989 11.4587 5.21868 11.4587ZM3.35714 12.595C3.35714 14.0335 3.71978 14.5532 5.24286 14.5532C5.81099 14.5532 6.27033 14.5049 6.60879 14.3236C6.92308 14.1423 7.11648 13.828 7.11648 13.2598H5.91978C5.90769 13.6708 5.62967 13.7192 5.24286 13.7192C4.68681 13.7192 4.57802 13.4895 4.57802 12.8005V12.7763H7.11648V12.595C7.11648 11.0236 6.69341 10.6247 5.24286 10.6247C3.6956 10.6247 3.35714 11.1082 3.35714 12.595ZM7.92637 11.8818C7.92637 12.6554 8.19231 13.006 9.81209 13.006C9.95714 13.006 10.1868 12.9939 10.3198 13.0543C10.4407 13.1148 10.5011 13.2236 10.5011 13.417C10.5011 13.7554 10.3802 13.7917 9.8 13.7917C9.48571 13.7917 9.15934 13.7796 9.13517 13.3565H7.92637C7.93846 14.2027 8.33736 14.4807 9.08681 14.5412C9.31648 14.5532 9.55824 14.5532 9.81209 14.5532C10.8396 14.5532 11.6978 14.384 11.6978 13.2719C11.6978 12.2082 11.1418 12.1357 9.81209 12.0994C9.14725 12.0873 9.11099 11.9422 9.11099 11.7247C9.11099 11.4708 9.13517 11.3862 9.81209 11.3862C10.0538 11.3862 10.3077 11.4104 10.356 11.7126H11.5044V11.5554C11.5044 10.6368 10.5374 10.6247 9.81209 10.6247C8.71209 10.6247 7.92637 10.6488 7.92637 11.8818ZM17.9352 10.6247H20.933V11.5071H20.0385V14.517H18.8176V11.5071H17.9231V10.6247H17.9352ZM13.4385 12.5708C13.4385 11.084 13.7648 10.6126 15.3121 10.6126C16.7505 10.6126 17.1736 10.9994 17.1736 12.5708V12.7401H14.6352V12.7763C14.6352 13.4653 14.744 13.7071 15.3121 13.7071C15.6868 13.7071 15.9769 13.6708 16.0011 13.2477H17.1736C17.1615 13.7917 16.9802 14.106 16.6659 14.2873C16.3396 14.4686 15.8802 14.517 15.3121 14.517C13.8011 14.517 13.4385 14.0093 13.4385 12.5708ZM2.47473 15.2423C1.85824 14.5774 1.72528 13.5499 1.72528 12.5708C1.72528 11.5917 1.85824 10.5642 2.47473 9.89939C2.86154 9.4884 3.61099 9.17412 4.23956 9.17412H12.4473V15.9675H4.23956C3.5989 15.9675 2.86154 15.6532 2.47473 15.2423Z" fill="white"/>
</svg>
