<svg width="24" height="24" viewBox="0 0 24 24" fill="none" xmlns="http://www.w3.org/2000/svg">
<g clip-path="url(#clip0_1433_395)">
<path d="M10.2786 9H10.3451C10.4278 9.01364 10.5101 9.04079 10.5753 9.0951C10.7032 9.19491 10.7629 9.37251 10.7207 9.52926C10.6777 9.71042 10.5022 9.84929 10.3156 9.84654C10.1327 9.85307 9.95785 9.72336 9.90686 9.5484C9.85897 9.39864 9.90537 9.22458 10.0209 9.11802C10.09 9.04984 10.1839 9.01421 10.2786 9Z" fill="black"/>
<path d="M15.8909 9.01524C16.0963 9.01524 16.3018 9.01501 16.5073 9.01536C16.507 9.61325 16.5072 10.2111 16.5072 10.8089C16.6132 10.6894 16.7388 10.587 16.8795 10.5108C17.1199 10.3788 17.3995 10.3252 17.6722 10.343C17.9018 10.3539 18.1315 10.4141 18.3301 10.5319C18.4894 10.6256 18.6261 10.7566 18.7296 10.9096C18.838 11.0697 18.9111 11.252 18.9539 11.4401C19.0018 11.6426 19.0087 11.8519 19.0055 12.0593C19.0055 12.7599 19.0055 13.4607 19.0055 14.1615C18.8027 14.1614 18.5997 14.1616 18.3969 14.1614C18.3972 13.4033 18.397 12.6454 18.3969 11.8874C18.3953 11.6634 18.341 11.4325 18.2048 11.2509C18.088 11.0918 17.9091 10.9839 17.7171 10.9433C17.4801 10.8934 17.2244 10.9189 17.0077 11.03C16.7892 11.1404 16.6208 11.3433 16.5511 11.5779C16.518 11.6851 16.5047 11.7979 16.5071 11.91C16.5072 12.6605 16.5072 13.411 16.5072 14.1615C16.3018 14.1615 16.0963 14.1613 15.891 14.1616C15.8909 12.4461 15.8912 10.7307 15.8909 9.01524Z" fill="black"/>
<path d="M19.8524 9.01501C20.0552 9.01547 20.2581 9.01479 20.4611 9.01547C20.4607 9.48824 20.4608 9.96101 20.461 10.4338C21.301 10.4347 22.141 10.4342 22.9809 10.434C22.9812 10.6295 22.981 10.8249 22.981 11.0202C22.141 11.0202 21.301 11.0205 20.461 11.0202C20.4608 11.573 20.4607 12.1258 20.461 12.6787C20.4605 12.8721 20.5089 13.0679 20.6135 13.2318C20.7134 13.3906 20.8657 13.5152 21.0404 13.5831C21.2344 13.6591 21.4507 13.6728 21.6545 13.632C21.8622 13.5899 22.0568 13.4765 22.1875 13.3086C22.3212 13.1406 22.3877 12.9259 22.3938 12.7127C22.3955 12.5875 22.3936 12.4623 22.3946 12.3371C22.5963 12.3375 22.7982 12.3371 23 12.3372V12.7643C22.9892 13.0414 22.9106 13.3176 22.7625 13.5529C22.5944 13.8229 22.3333 14.0318 22.0354 14.142C21.7807 14.2388 21.5032 14.2642 21.2333 14.2377C20.8761 14.2008 20.5272 14.0463 20.2776 13.7851C19.9948 13.4969 19.8517 13.0903 19.8525 12.6899C19.8522 11.4649 19.8523 10.24 19.8524 9.01501Z" fill="black"/>
<path d="M6.95399 9.05041C7.26211 9.00148 7.57916 9.00286 7.88624 9.05912C8.23779 9.1242 8.58291 9.28244 8.82182 9.55458C9.07058 9.83187 9.18218 10.2114 9.17703 10.5794C8.96974 10.5778 8.76235 10.5788 8.55507 10.5788C8.55575 10.3733 8.5027 10.1623 8.37758 9.99641C8.2591 9.83565 8.08092 9.72714 7.89174 9.66927C7.64791 9.59434 7.38781 9.58987 7.13584 9.6168C6.9077 9.6451 6.67327 9.71282 6.49875 9.86922C6.36641 9.98541 6.2854 10.1546 6.27073 10.3295C6.2563 10.4951 6.27681 10.6769 6.38635 10.8093C6.50265 10.9495 6.67544 11.0248 6.84331 11.0844C7.07717 11.1647 7.32032 11.2129 7.56278 11.2587C7.83285 11.3116 8.10235 11.3735 8.36085 11.469C8.54899 11.5393 8.73256 11.6288 8.88885 11.7564C9.03941 11.878 9.15846 12.0391 9.22492 12.2213C9.30272 12.4326 9.31991 12.6623 9.30204 12.8854C9.28244 13.1282 9.20498 13.3686 9.0637 13.5683C8.8759 13.838 8.5844 14.0201 8.27571 14.1213C8.00988 14.2088 7.72915 14.245 7.44991 14.2475C7.01381 14.2542 6.56395 14.1637 6.19534 13.9217C5.90109 13.7309 5.67421 13.4375 5.57086 13.1017C5.51666 12.9297 5.49042 12.749 5.49283 12.5687C5.70481 12.5689 5.9169 12.5689 6.12888 12.5687C6.12899 12.7671 6.17689 12.968 6.28334 13.1367C6.39059 13.3098 6.55502 13.4431 6.73938 13.5271C6.95411 13.6256 7.1929 13.6638 7.42803 13.661C7.66728 13.6601 7.91042 13.632 8.13432 13.5436C8.30585 13.4757 8.46466 13.3639 8.56469 13.2067C8.68787 13.0145 8.71514 12.7733 8.67653 12.5517C8.65097 12.4054 8.56309 12.2752 8.44427 12.1879C8.26975 12.0588 8.05972 11.9904 7.85233 11.9345C7.59784 11.8651 7.33521 11.834 7.07832 11.775C6.85075 11.7236 6.6248 11.6592 6.41167 11.5633C6.18147 11.4598 5.96182 11.3115 5.82225 11.0969C5.6796 10.8823 5.63365 10.6175 5.64545 10.3635C5.65611 10.0463 5.78169 9.73138 6.00673 9.50519C6.25767 9.24898 6.60452 9.10782 6.95399 9.05041Z" fill="black"/>
<path d="M2.09599 10.5189C2.46036 10.3415 2.88593 10.2931 3.28044 10.3863C3.63416 10.4683 3.96003 10.6608 4.20684 10.9265C4.45297 11.1896 4.61659 11.5228 4.6968 11.8726C4.64444 11.8978 4.59013 11.9184 4.53696 11.9416C3.63668 12.3222 2.73605 12.7018 1.83611 13.0833C1.92148 13.218 2.03308 13.3359 2.16291 13.4288C2.38589 13.5892 2.66146 13.6735 2.93589 13.6687C3.19461 13.667 3.45873 13.6009 3.67002 13.4471C3.83113 13.3329 3.95602 13.1747 4.05147 13.0033C4.26391 13.0033 4.47646 13.0032 4.6889 13.0033C4.62576 13.1758 4.54395 13.3419 4.43945 13.4932C4.28167 13.723 4.06877 13.916 3.82024 14.0432C3.50823 14.2047 3.15016 14.2628 2.80148 14.2447C2.43825 14.2257 2.08086 14.0999 1.78753 13.8843C1.47621 13.6574 1.23879 13.3324 1.11344 12.9685C1.04446 12.7738 1.01226 12.5681 1 12.3626V12.2479C1.01478 11.9102 1.10393 11.574 1.27649 11.2822C1.46704 10.955 1.75407 10.683 2.09599 10.5189ZM2.48775 10.9913C2.16715 11.1094 1.89971 11.3593 1.75465 11.668C1.62608 11.9396 1.58987 12.2518 1.6396 12.5473C2.40708 12.224 3.17445 11.9003 3.94227 11.5779C3.76776 11.2692 3.4679 11.0269 3.11979 10.947C2.91079 10.897 2.68827 10.9161 2.48775 10.9913Z" fill="black"/>
<path d="M12.2567 10.5867C12.6116 10.3797 13.0368 10.3005 13.4431 10.3577C13.8896 10.4168 14.3085 10.6518 14.5945 10.9994C14.8587 11.3155 15.0131 11.7177 15.044 12.1274C15.0556 12.2571 15.0499 12.3874 15.0513 12.5175C15.0513 13.0138 15.0514 13.5103 15.0513 14.0068C15.0491 14.2597 15.0127 14.5134 14.9313 14.7533C14.8168 15.0951 14.6046 15.4069 14.3146 15.6233C14.0078 15.8554 13.6249 15.9735 13.2429 15.9896H13.0475C12.6411 15.9791 12.2305 15.8533 11.9103 15.5978C11.6446 15.3887 11.4546 15.0888 11.3715 14.7616C11.5889 14.7615 11.8062 14.7614 12.0235 14.7617C12.0876 14.9053 12.1838 15.0348 12.3067 15.1333C12.4706 15.2658 12.6735 15.3429 12.88 15.3772C13.1248 15.417 13.3804 15.4023 13.6163 15.3238C13.7957 15.2635 13.9603 15.1583 14.0874 15.0175C14.2485 14.8415 14.3493 14.617 14.4001 14.3854C14.458 14.1391 14.44 13.8847 14.4431 13.634C14.251 13.8861 13.9834 14.0807 13.6806 14.1765C13.3724 14.2759 13.0367 14.2784 12.7233 14.2013C12.3614 14.112 12.0299 13.907 11.7867 13.625C11.5544 13.3591 11.4013 13.0273 11.3399 12.6802C11.2634 12.2464 11.318 11.7867 11.5128 11.39C11.6746 11.0569 11.9356 10.772 12.2567 10.5867ZM13.0592 10.911C12.7818 10.9398 12.5194 11.074 12.3262 11.2738C12.0527 11.5519 11.9129 11.9471 11.9233 12.3345C11.9285 12.7178 12.0846 13.1028 12.3697 13.3628C12.5822 13.5595 12.8667 13.6787 13.1571 13.6829C13.4052 13.6897 13.6528 13.6103 13.8556 13.4682C14.0371 13.3412 14.1849 13.1673 14.2845 12.9696C14.497 12.554 14.4942 12.0379 14.2814 11.623C14.1425 11.348 13.9109 11.1167 13.6259 10.9958C13.4482 10.9196 13.2513 10.8905 13.0592 10.911Z" fill="black"/>
<path d="M10.2055 10.5415C10.38 10.4937 10.5789 10.5738 10.6712 10.7294C10.7384 10.8378 10.7517 10.9771 10.7071 11.0965C10.6635 11.218 10.5603 11.3155 10.437 11.353C10.2804 11.4036 10.0975 11.3516 9.99135 11.2259C9.90174 11.1235 9.86748 10.9765 9.90232 10.8449C9.93818 10.6985 10.0593 10.5778 10.2055 10.5415Z" fill="#F82734"/>
<path d="M10.2376 11.9239C10.4215 11.8882 10.6202 11.9919 10.6952 12.1636C10.7539 12.2901 10.7442 12.4459 10.6692 12.5635C10.6032 12.6702 10.4874 12.7439 10.3627 12.7582C10.2025 12.7799 10.0347 12.6992 9.95156 12.5607C9.87995 12.4459 9.86918 12.2962 9.92338 12.1723C9.97757 12.0437 10.0998 11.9471 10.2376 11.9239Z" fill="#1FCD8A"/>
<path d="M10.2178 13.3172C10.3425 13.2884 10.4794 13.3201 10.5782 13.4016C10.7158 13.5104 10.7696 13.709 10.7081 13.873C10.6714 13.9749 10.5938 14.061 10.4962 14.1081C10.3837 14.1632 10.2462 14.1646 10.1328 14.1111C10.031 14.0645 9.95003 13.9751 9.91325 13.8695C9.87165 13.7537 9.88449 13.62 9.94739 13.5144C10.0053 13.415 10.1056 13.3419 10.2178 13.3172Z" fill="#1C6BF7"/>
</g>
<defs>
<clipPath id="clip0_1433_395">
<rect width="22" height="6.98958" fill="white" transform="translate(1 9)"/>
</clipPath>
</defs>
</svg>
