<svg width="24" height="24" viewBox="0 0 24 24" fill="none" xmlns="http://www.w3.org/2000/svg">
<path d="M11.2537 22.363C16.9166 22.363 21.5073 17.7722 21.5073 12.1093C21.5073 6.44634 16.9166 1.85562 11.2537 1.85562C5.59072 1.85562 1 6.44634 1 12.1093C1 17.7722 5.59072 22.363 11.2537 22.363Z" fill="#E21D38"/>
<path d="M11.018 13.1208C16.0524 13.5365 17.9923 14.9221 17.8999 16.8158C17.8076 17.8319 16.8376 18.8019 15.5906 18.8942C14.1126 18.9866 13.4197 18.3862 13.0041 17.7396C12.6345 17.1391 12.2189 16.5387 11.8032 15.892C11.7108 15.7073 11.526 15.8459 11.3875 15.9382C11.0642 16.2154 10.787 16.5387 10.5099 16.8158C10.3252 17.0006 10.3714 17.1391 10.4175 17.2777C10.6947 17.9243 10.9718 18.5709 11.2489 19.1714C11.7108 19.4485 13.7892 19.818 15.3134 19.6794C16.3758 19.5871 17.669 19.1714 18.7775 18.3862C19.8398 17.5548 20.625 16.4463 20.7636 14.645C20.8098 13.5365 20.625 12.3818 19.6551 11.3195C18.6851 10.2572 17.0224 9.37959 13.6507 9.14865C13.8354 8.5944 13.974 8.08633 14.1587 7.57827C16.191 7.67064 17.9923 7.80921 19.5165 7.99396C19.6551 7.39352 19.7013 6.83926 19.8398 6.28501L19.4241 5.77695C18.6389 5.68457 17.8999 5.49982 17.0686 5.40745C16.0063 5.26888 14.8977 5.17651 13.6969 5.13032C12.9117 7.34733 11.9879 10.1648 11.018 13.1208ZM9.67854 4.48369C9.30904 4.48369 8.80097 4.57607 7.96959 4.76082C6.16828 5.26888 3.95127 6.51595 3.72033 8.5944C3.67414 8.91771 3.67414 9.28721 3.62795 9.61053C3.11989 9.65671 2.65801 9.7029 2.19614 9.74909C2.14995 10.1648 2.14995 10.5343 2.10376 10.95C2.56564 10.9038 3.02751 10.9038 3.53558 10.8576C3.4432 13.0284 3.53558 15.1992 3.72033 17.2315C3.76652 17.5548 3.76652 17.8319 3.76652 18.0167C3.72033 18.2014 3.39701 18.2938 2.93514 18.2938L3.53558 19.0328C5.29071 19.3561 7.50772 19.5871 9.86329 19.6333V18.9404C8.47766 18.8481 7.83103 18.6633 7.73866 18.3862C7.64628 18.1552 7.64628 17.8319 7.60009 17.5086C7.50772 15.384 7.46153 13.0746 7.50772 10.719C8.29291 10.719 9.0781 10.719 9.86329 10.6728C10.279 10.4881 10.6485 10.3033 11.018 10.1186V9.3334C9.8171 9.3334 8.66241 9.37959 7.50772 9.37959C7.55391 8.40965 7.60009 7.48589 7.64628 6.60833C7.69247 6.00789 8.10816 5.5922 8.47766 5.5922C9.12429 5.54601 9.72473 5.82314 10.3252 6.10026C10.6485 6.23882 10.9718 6.42358 11.2951 6.56214C11.4337 6.60833 11.6184 6.65451 11.757 6.51595C11.9417 6.28501 12.1265 6.05407 12.3112 5.86932C12.4036 5.73076 12.3574 5.63839 12.3112 5.5922C11.8955 5.26888 11.526 4.99176 11.1104 4.66844C10.8794 4.48369 10.4637 4.48369 10.0942 4.48369C9.95567 4.43751 9.8171 4.48369 9.67854 4.48369Z" fill="white"/>
<path d="M21.8944 18.8717V18.1443H22.2169C22.2817 18.1443 22.331 18.1509 22.3648 18.1641C22.3985 18.177 22.4255 18.2 22.4456 18.2331C22.4658 18.2662 22.4759 18.3027 22.4759 18.3427C22.4759 18.3944 22.4592 18.4378 22.4258 18.4732C22.3924 18.5086 22.3408 18.5311 22.271 18.5407C22.2965 18.553 22.3158 18.565 22.329 18.5769C22.3572 18.6027 22.3838 18.635 22.4089 18.6737L22.5354 18.8717H22.4144L22.3181 18.7203C22.29 18.6767 22.2669 18.6433 22.2487 18.6201C22.2305 18.5969 22.2141 18.5807 22.1995 18.5715C22.1853 18.5622 22.1708 18.5558 22.1559 18.5521C22.145 18.5498 22.1271 18.5487 22.1023 18.5487H21.9907V18.8717H21.8944ZM21.9907 18.4653H22.1976C22.2416 18.4653 22.276 18.4608 22.3008 18.4519C22.3256 18.4426 22.3444 18.4281 22.3573 18.4082C22.3702 18.3881 22.3767 18.3662 22.3767 18.3427C22.3767 18.3083 22.3641 18.2801 22.339 18.2579C22.3142 18.2357 22.2748 18.2247 22.2209 18.2247H21.9907V18.4653Z" fill="#E21D38"/>
<path fill-rule="evenodd" clip-rule="evenodd" d="M22.2494 17.8367C21.8834 17.8367 21.5867 18.1334 21.5867 18.4994C21.5867 18.8654 21.8834 19.1622 22.2494 19.1622C22.6154 19.1622 22.9121 18.8654 22.9121 18.4994C22.9121 18.1334 22.6154 17.8367 22.2494 17.8367ZM21.4988 18.4994C21.4988 18.0849 21.8348 17.7488 22.2494 17.7488C22.6639 17.7488 23 18.0849 23 18.4994C23 18.914 22.6639 19.25 22.2494 19.25C21.8348 19.25 21.4988 18.914 21.4988 18.4994Z" fill="#E21D38"/>
</svg>
