<svg width="241" height="240" viewBox="0 0 241 240" fill="none" xmlns="http://www.w3.org/2000/svg">
<path d="M20.2939 102.981H76.8744V140.101H20.2939V102.981ZM92.5099 50.225H148.078V87.3454H92.5099V50.225ZM92.5099 155.512H148.078V192.632H92.5099V155.512ZM163.601 102.981H220.406V140.101H163.601V102.981ZM43.5785 50.225C31.7675 53.2622 22.5437 66.423 20.2939 83.2959V87.4579H76.8744V50.225H43.5785ZM20.2939 155.512V160.124C22.3187 176.209 30.9801 189.033 42.1162 192.632H76.9869V155.512H20.2939ZM220.294 87.3454V83.1834C218.044 66.5355 208.82 53.2622 197.009 50.1125H163.489V87.2329H220.294V87.3454ZM198.472 192.857C209.495 189.033 218.157 176.434 220.294 160.349V155.737H163.489V192.857H198.472Z" fill="#EE3124"/>
</svg>
