<svg width="24" height="24" viewBox="0 0 24 24" fill="none" xmlns="http://www.w3.org/2000/svg">
<g clip-path="url(#clip0_1456_691)">
<path d="M2 10.2981H7.65804V14.0101H2V10.2981ZM9.2216 5.02251H14.7784V8.73455H9.2216V5.02251ZM9.2216 15.5512H14.7784V19.2632H9.2216V15.5512ZM16.3307 10.2981H22.0112V14.0101H16.3307V10.2981ZM4.32846 5.02251C3.14736 5.32622 2.22497 6.64231 2 8.3296V8.74579H7.65804V5.02251H4.32846ZM2 15.5512V16.0124C2.20247 17.6209 3.06862 18.9033 4.18223 19.2632H7.66929V15.5512H2ZM22 8.73455V8.31835C21.775 6.65356 20.8526 5.32622 19.6715 5.01126H16.3195V8.7233H22V8.73455ZM19.8178 19.2857C20.9201 18.9033 21.7863 17.6434 22 16.0349V15.5737H16.3195V19.2857H19.8178Z" fill="#EE3124"/>
</g>
<defs>
<clipPath id="clip0_1456_691">
<rect width="20" height="14.2857" fill="white" transform="translate(2 5)"/>
</clipPath>
</defs>
</svg>
