<svg width="24" height="24" viewBox="0 0 24 24" fill="none" xmlns="http://www.w3.org/2000/svg">
<path opacity="0.882" fill-rule="evenodd" clip-rule="evenodd" d="M1.82867 9.00308C2.20889 8.99486 2.58877 9.00308 2.96824 9.02786C3.28613 9.09519 3.58341 9.21083 3.86008 9.37468C3.78749 9.49508 3.72145 9.61894 3.66189 9.74628C2.79869 9.26062 1.95641 9.2854 1.13503 9.8206C0.479378 10.6078 0.322479 11.4914 0.664334 12.4713C1.09747 13.3443 1.79939 13.6828 2.77006 13.487C3.00332 13.434 3.2345 13.3762 3.46371 13.3136C3.46371 12.9007 3.46371 12.4878 3.46371 12.075C3.03429 12.075 2.60492 12.075 2.1755 12.075C2.1755 11.9428 2.1755 11.8107 2.1755 11.6786C2.75356 11.6786 3.33157 11.6786 3.90962 11.6786C3.92607 12.307 3.90957 12.9346 3.86008 13.5614C3.16811 13.8877 2.44146 13.995 1.68004 13.8834C0.764824 13.6486 0.228068 13.0623 0.0697774 12.1245C-0.142623 11.0689 0.129882 10.1688 0.887293 9.42423C1.18224 9.23005 1.49602 9.08969 1.82867 9.00308Z" fill="#B02022"/>
<path opacity="0.926" fill-rule="evenodd" clip-rule="evenodd" d="M16.1476 9.05263C16.8579 9.04436 17.5681 9.05263 18.2781 9.0774C19.5582 9.26756 20.2023 10.0108 20.2104 11.307C20.1854 12.6852 19.5082 13.5275 18.179 13.8339C17.502 13.8586 16.8249 13.8669 16.1476 13.8586C16.1476 12.2566 16.1476 10.6546 16.1476 9.05263ZM17.0394 9.74628C18.9325 9.56638 19.6344 10.3921 19.1451 12.2236C18.908 12.751 18.5033 13.0565 17.9313 13.1402C17.6344 13.1649 17.3371 13.1732 17.0394 13.165C17.0394 12.0254 17.0394 10.8858 17.0394 9.74628Z" fill="#3E3A38"/>
<path opacity="0.921" fill-rule="evenodd" clip-rule="evenodd" d="M20.7058 9.05263C21.3666 9.04436 22.0273 9.05263 22.6877 9.0774C23.5335 9.20756 23.8721 9.69475 23.7034 10.539C23.5989 10.888 23.3759 11.1275 23.0345 11.2574C23.8229 11.5374 24.1285 12.0907 23.9511 12.9173C23.7207 13.444 23.3161 13.7495 22.7372 13.8339C22.0603 13.8586 21.3832 13.8669 20.7058 13.8586C20.7058 12.2566 20.7058 10.6546 20.7058 9.05263ZM21.5976 9.69673C21.9152 9.68103 22.229 9.7058 22.539 9.77105C22.9059 9.98093 22.9802 10.27 22.762 10.6381C22.646 10.8034 22.4891 10.9107 22.2913 10.9602C22.0607 10.9849 21.8295 10.9932 21.5976 10.9849C21.5976 10.5555 21.5976 10.1262 21.5976 9.69673ZM21.5976 11.6786C21.9646 11.6613 22.3279 11.6861 22.6877 11.7529C23.0663 11.947 23.2067 12.2526 23.1088 12.6695C22.9799 12.9942 22.7405 13.1676 22.3904 13.1898C22.1267 13.2145 21.8624 13.2228 21.5976 13.2145C21.5976 12.7026 21.5976 12.1906 21.5976 11.6786Z" fill="#3E3A38"/>
<path opacity="0.871" fill-rule="evenodd" clip-rule="evenodd" d="M5.34647 10.2417C5.71415 10.2224 6.07748 10.2471 6.43649 10.3161C6.88201 10.5707 7.10497 10.9588 7.10537 11.4804C7.13014 12.273 7.13841 13.0657 7.13014 13.8586C6.998 13.8586 6.86591 13.8586 6.73377 13.8586C6.74625 13.7189 6.72148 13.5868 6.65945 13.4623C6.1623 13.9031 5.59252 14.0269 4.9501 13.8339C4.5724 13.6487 4.39072 13.3432 4.40509 12.9173C4.42079 12.2668 4.75112 11.8952 5.39601 11.8025C5.82509 11.7777 6.25451 11.7695 6.68422 11.7777C6.76746 11.0824 6.47018 10.686 5.79239 10.5886C5.45696 10.6208 5.13491 10.7034 4.82623 10.8363C4.80146 10.8198 4.77668 10.8033 4.75191 10.7868C4.72253 10.6935 4.68948 10.6027 4.65282 10.5143C4.88366 10.4073 5.11484 10.3165 5.34647 10.2417ZM5.79239 12.075C6.09046 12.0796 6.38774 12.0961 6.68422 12.1245C6.69245 12.4222 6.68417 12.7195 6.65945 13.0163C6.25931 13.4522 5.77212 13.609 5.19783 13.487C4.89228 13.2965 4.78491 13.024 4.87578 12.6695C5.05935 12.2767 5.3649 12.0785 5.79239 12.075Z" fill="#B02022"/>
<path opacity="0.862" fill-rule="evenodd" clip-rule="evenodd" d="M11.7875 10.2417C12.1922 10.2145 12.5886 10.2558 12.9766 10.3656C13.203 10.4706 13.236 10.6275 13.0757 10.8363C12.6852 10.6078 12.2723 10.55 11.837 10.6629C11.4223 10.9024 11.3893 11.1832 11.7379 11.5052C12.0772 11.683 12.4241 11.8482 12.7784 12.0006C13.329 12.3742 13.4528 12.8614 13.15 13.4623C12.8418 13.8101 12.4537 13.9588 11.9857 13.9082C11.6282 13.9426 11.2979 13.8683 10.9948 13.6852C11.0527 13.5858 11.0857 13.4785 11.0938 13.3632C11.4626 13.4962 11.8425 13.554 12.2334 13.5366C12.7065 13.4604 12.913 13.1879 12.8527 12.7191C12.7972 12.6138 12.7228 12.523 12.6298 12.4466C12.2499 12.2649 11.8701 12.0832 11.4902 11.9015C11.1974 11.7317 11.0653 11.4756 11.0938 11.1336C11.0885 10.6474 11.3198 10.3502 11.7875 10.2417Z" fill="#B02022"/>
<path opacity="0.86" fill-rule="evenodd" clip-rule="evenodd" d="M14.1657 10.2417C14.4469 10.2335 14.7277 10.2418 15.008 10.2665C15.2207 10.3071 15.4189 10.3814 15.6025 10.4895C15.5688 10.6078 15.5275 10.7234 15.4787 10.8363C15.0795 10.6111 14.6584 10.5533 14.2152 10.6629C13.956 10.7933 13.8652 10.9998 13.9427 11.2822C13.9816 11.3707 14.0394 11.445 14.1161 11.5052C14.496 11.6869 14.8758 11.8685 15.2557 12.0502C15.6283 12.3087 15.7687 12.6638 15.6768 13.1154C15.5878 13.5348 15.3318 13.7908 14.9089 13.8834C14.4034 13.9408 13.908 13.8995 13.4225 13.7595C13.4098 13.5892 13.4677 13.4571 13.5959 13.3632C14.0035 13.5535 14.4247 13.5948 14.8593 13.487C15.3046 13.2501 15.3872 12.9281 15.1071 12.5209C14.7425 12.3056 14.3627 12.1157 13.9675 11.9511C13.5024 11.6626 13.3621 11.258 13.5463 10.7372C13.6894 10.4862 13.8958 10.3211 14.1657 10.2417Z" fill="#B02022"/>
<path opacity="0.859" fill-rule="evenodd" clip-rule="evenodd" d="M7.82378 10.2913C7.97242 10.2913 8.12106 10.2913 8.2697 10.2913C8.26143 11.1668 8.2697 12.0421 8.29447 12.9173C8.34917 13.3187 8.58041 13.5334 8.98812 13.5614C9.45599 13.5009 9.83586 13.2862 10.1277 12.9173C10.1525 12.0421 10.1607 11.1668 10.1525 10.2913C10.3011 10.2913 10.4497 10.2913 10.5984 10.2913C10.5984 11.4804 10.5984 12.6695 10.5984 13.8586C10.4662 13.8586 10.3342 13.8586 10.202 13.8586C10.2163 13.7026 10.1916 13.554 10.1277 13.4127C9.58595 13.921 8.96662 14.0448 8.2697 13.7843C8.0182 13.5704 7.87784 13.2979 7.84856 12.9668C7.82378 12.0751 7.81551 11.1833 7.82378 10.2913Z" fill="#B02022"/>
</svg>
