<svg width="24" height="24" viewBox="0 0 24 24" fill="none" xmlns="http://www.w3.org/2000/svg">
<path fill-rule="evenodd" clip-rule="evenodd" d="M9.99711 7.00037L12.0887 9.36496L11.894 9.53722L9.80237 7.17263L9.99711 7.00037Z" fill="#284A6A"/>
<path fill-rule="evenodd" clip-rule="evenodd" d="M6.97829 10.0596L5.34119 7.66924L5.44844 7.59578L7.08554 9.98617L6.97829 10.0596Z" fill="#284A6A"/>
<path fill-rule="evenodd" clip-rule="evenodd" d="M12.2533 9.35027L16.9631 9.89029L16.9479 10.0231L17.0318 10.1226L14.6936 12.0927L17.0339 14.1512L16.8622 14.3465L14.4067 12.1866L14.4912 12.0906L14.4088 11.9927L16.6377 10.1147L11.99 9.58179L7.34152 10.1148L9.48534 11.9905L9.3993 12.0889L9.48502 12.1868L7.12043 14.2558L6.94922 14.0601L9.20251 12.0886L6.94953 10.1173L7.03461 10.02L7.0197 9.88997L11.9296 9.32701L13.9621 6.97877L14.1587 7.14893L12.2533 9.35027ZM11.9917 14.4646L14.1799 16.8906L13.9868 17.0647L11.9917 14.8528L9.99668 17.0647L9.80361 16.8906L11.9917 14.4646Z" fill="#284A6A"/>
<path fill-rule="evenodd" clip-rule="evenodd" d="M14.1896 7.0527L14.623 12.0889L14.2132 16.9882L13.9541 16.9665L14.3621 12.0892L13.9305 7.075L14.1896 7.0527Z" fill="#284A6A"/>
<path fill-rule="evenodd" clip-rule="evenodd" d="M11.9786 14.7902L7.02173 14.287L7.04799 14.0283L11.9805 14.5291L11.9805 14.5282L16.9374 14.1193L16.9587 14.3784L12.0018 14.7873L11.9916 14.6629L11.9786 14.7902Z" fill="#284A6A"/>
<path fill-rule="evenodd" clip-rule="evenodd" d="M9.26733 12.0757L9.77057 7.0738L10.0293 7.09982L9.52732 12.0889L10.0292 16.9644L9.7706 16.991L9.26736 12.1026L9.39977 12.089L9.26733 12.0757Z" fill="#284A6A"/>
<path fill-rule="evenodd" clip-rule="evenodd" d="M10.4018 4.19812L14.0993 7.01213L14.0206 7.11557L10.4891 4.42791L9.96354 7.09967L9.90224 7.08761L9.86484 7.14004L7.47445 5.43469L7.54995 5.32886L9.85579 6.97389L10.4018 4.19812ZM7.05259 10.0823L4.77858 10.7189L4.74353 10.5938L7.01754 9.95716L7.05259 10.0823Z" fill="#284A6A"/>
<path fill-rule="evenodd" clip-rule="evenodd" d="M13.4508 4.32566L13.5783 4.30037L14.1041 6.95216L16.4104 5.32862L16.4852 5.43492L14.2334 7.02013L18.5931 7.56802L18.5854 7.62961L18.6386 7.66609L17.0531 9.98122L19.2841 10.5937L19.2497 10.719L16.8427 10.0583L18.4692 7.68347L14.0053 7.12249L13.4508 4.32566Z" fill="#284A6A"/>
<path fill-rule="evenodd" clip-rule="evenodd" d="M9.85986 7.03556L13.475 4.26145L13.5542 4.36458L9.939 7.13869L9.85986 7.03556ZM19.1676 13.5115L16.8936 10.0555L17.0022 9.98402L19.2762 13.44L19.1676 13.5115Z" fill="#284A6A"/>
<path fill-rule="evenodd" clip-rule="evenodd" d="M16.5094 5.37445L17.0126 10.0127L16.8834 10.0268L16.3801 5.38847L16.5094 5.37445ZM19.2429 13.5373L16.9689 14.3104L16.9271 14.1873L19.2011 13.4142L19.2429 13.5373Z" fill="#284A6A"/>
<path fill-rule="evenodd" clip-rule="evenodd" d="M16.9941 14.42L16.5093 18.7123L16.4481 18.7054L16.4095 18.7581L14.0449 17.0302L14.1216 16.9252L16.3929 18.585L16.8851 14.2264L19.2123 10.6211L19.3216 10.6916L17.027 14.2463L18.6373 16.4156L18.5329 16.493L16.9941 14.42Z" fill="#284A6A"/>
<path fill-rule="evenodd" clip-rule="evenodd" d="M14.138 17.0367L18.5925 16.5192L18.5775 16.39L14.0579 16.9152L10.4881 19.656L9.96354 16.9652L9.83594 16.9901L10.3816 19.7894L10.4496 19.7761L10.485 19.8222L13.9867 17.1337L13.4772 19.7583L13.6048 19.783L14.138 17.0367Z" fill="#284A6A"/>
<path fill-rule="evenodd" clip-rule="evenodd" d="M6.98163 14.1204L7.08777 14.1955L5.51146 16.4245L10.0774 16.9317L10.01 16.9804L13.5805 19.7191L13.5014 19.8222L9.90008 17.0599L7.55055 18.7583L7.47439 18.653L9.72826 17.0237L5.27808 16.5294L6.98163 14.1204Z" fill="#284A6A"/>
<path fill-rule="evenodd" clip-rule="evenodd" d="M6.98071 9.98362L7.08878 10.0559L4.84132 13.4169L7.0949 14.1084L7.57684 18.6986L7.44755 18.7121L6.97459 14.2075L4.63611 13.4899L6.98071 9.98362Z" fill="#284A6A"/>
<path fill-rule="evenodd" clip-rule="evenodd" d="M6.97004 10.0137L7.44749 5.37543L7.57681 5.38874L7.09936 10.027L6.97004 10.0137ZM4.8152 10.6213L7.08921 14.1225L6.98019 14.1934L4.70618 10.6921L4.8152 10.6213Z" fill="#284A6A"/>
<path fill-rule="evenodd" clip-rule="evenodd" d="M9.9044 7.15134L5.40261 7.69704L5.38696 7.56798L9.88876 7.02228L9.9044 7.15134Z" fill="#284A6A"/>
<path fill-rule="evenodd" clip-rule="evenodd" d="M7.32083 3.40442L10.4587 4.26431L10.4321 4.36172L7.4317 3.53953L7.56862 5.46391L5.74011 4.60912L5.78288 4.51763L7.45567 5.29962L7.32083 3.40442Z" fill="#24405D"/>
<path fill-rule="evenodd" clip-rule="evenodd" d="M10.9624 2.29201L13.5453 4.27294L13.4838 4.35309L11.0192 2.46285L10.4677 4.42011L9.13288 2.78638L7.55541 5.40781L7.46887 5.35573L9.12032 2.61137L10.4231 4.20592L10.9624 2.29201Z" fill="#24405D"/>
<path fill-rule="evenodd" clip-rule="evenodd" d="M12.9711 2.22548L13.5366 4.20622L14.7943 2.66661L14.8324 2.69776L14.8738 2.6728L16.4911 5.35538L16.4046 5.40753L14.8254 2.78815L13.4926 4.41981L12.9157 2.39916L10.4739 4.35214L10.4108 4.27326L12.9711 2.22548Z" fill="#24405D"/>
<path fill-rule="evenodd" clip-rule="evenodd" d="M16.5506 3.53914L13.5277 4.36174L13.5012 4.26429L16.593 3.42293L16.6063 3.47193L16.6572 3.47617L16.5056 5.2958L18.2177 4.42713L18.2634 4.5172L16.6108 5.35567L19.5701 5.8093L19.5548 5.90914L16.3935 5.42455L16.5506 3.53914Z" fill="#24405D"/>
<path fill-rule="evenodd" clip-rule="evenodd" d="M18.7532 7.67008L20.6352 7.52371L20.6273 7.42301L18.6744 7.5749L19.6067 5.8836L19.5183 5.83484L18.618 7.46799L18.2939 4.46674L18.1935 4.47759L18.5375 7.66363L21.3593 9.26791L21.4092 9.1801L18.7532 7.67008Z" fill="#24405D"/>
<path fill-rule="evenodd" clip-rule="evenodd" d="M19.3812 10.518L20.6775 7.49325L20.5846 7.45346L19.1961 10.6936L21.5277 11.1643L19.1862 13.4395L19.2565 13.512L21.7355 11.1033L19.3949 10.6307L21.4098 9.26581L21.3532 9.18219L19.3812 10.518Z" fill="#24405D"/>
<path fill-rule="evenodd" clip-rule="evenodd" d="M21.5943 12.9889L19.2316 10.6926L19.302 10.6201L21.8051 13.053L19.353 13.5029L21.4319 14.8888L18.61 16.4982L18.5599 16.4104L21.2397 14.8821L19.0895 13.4486L21.5943 12.9889Z" fill="#24405D"/>
<path fill-rule="evenodd" clip-rule="evenodd" d="M20.528 16.5998L19.1784 13.4959L19.2711 13.4556L20.6893 16.7176L18.6774 16.5144L19.5876 18.2233L19.4985 18.2708L18.6197 16.6209L18.2744 19.5978L18.1741 19.5862L18.5566 16.2877L18.6202 16.4071L20.528 16.5998Z" fill="#24405D"/>
<path fill-rule="evenodd" clip-rule="evenodd" d="M16.6138 18.7316L19.5468 18.3002L19.5321 18.2003L16.4165 18.6586L14.787 21.4078L14.8739 21.4593L16.4085 18.8703L16.5338 20.69L16.6346 20.6831L16.5042 18.7897L18.1984 19.6372L18.2436 19.5468L16.6138 18.7316Z" fill="#24405D"/>
<path fill-rule="evenodd" clip-rule="evenodd" d="M13.53 19.7147L16.6022 20.6319L16.5733 20.7286L13.6775 19.8641L14.8703 21.3994L14.7906 21.4614L13.5617 19.8797L12.9918 21.8311L12.8948 21.8028L13.4475 19.9105L11.0262 21.8563L10.9629 21.7776L13.53 19.7147Z" fill="#24405D"/>
<path fill-rule="evenodd" clip-rule="evenodd" d="M9.10597 21.4595L7.46887 18.731L7.55548 18.6791L9.15381 21.3429L10.4374 19.6988L12.9754 21.7779L12.9114 21.856L10.5346 19.909L11.0399 21.8039L10.9423 21.83L10.4228 19.8817L9.1894 21.4615L9.15173 21.4321L9.10597 21.4595Z" fill="#24405D"/>
<path fill-rule="evenodd" clip-rule="evenodd" d="M5.68543 19.6882L5.34448 16.4823L5.44492 16.4716L5.77797 19.6033L7.56977 18.6156L7.40935 20.6555L10.4304 19.7224L10.4602 19.8189L7.36846 20.7738L7.35457 20.7288L7.30259 20.7247L7.45439 18.7945L5.76317 19.7268L5.73878 19.6826L5.68543 19.6882Z" fill="#24405D"/>
<path fill-rule="evenodd" clip-rule="evenodd" d="M2.29155 12.9712L4.87031 13.4251L2.6749 14.904L5.46343 16.4574L4.47287 18.2329L7.51902 18.655L7.50516 18.7551L4.39073 18.3235L4.39793 18.2716L4.35042 18.2451L5.30348 16.5368L3.35343 16.7316L3.34339 16.6311L5.22947 16.4427L2.48201 14.9122L4.60628 13.4811L2.27405 13.0707L2.29155 12.9712Z" fill="#24405D"/>
<path fill-rule="evenodd" clip-rule="evenodd" d="M2.24768 12.9844L4.72614 10.6198L4.79585 10.6929L2.3174 13.0575L2.24768 12.9844ZM3.30803 16.6618L4.69193 13.4332L4.78477 13.473L3.40086 16.7016L3.30803 16.6618Z" fill="#24405D"/>
<path fill-rule="evenodd" clip-rule="evenodd" d="M2.67476 9.20463L4.78931 10.6143L4.73329 10.6984L2.61874 9.28867L2.67476 9.20463ZM2.31752 11.0971L4.77302 13.4164L4.70366 13.4898L2.24817 11.1705L2.31752 11.0971Z" fill="#24405D"/>
<path fill-rule="evenodd" clip-rule="evenodd" d="M3.39743 7.45291L4.83283 10.6939L2.29205 11.1834L2.27295 11.0842L4.68908 10.6188L3.30508 7.49381L3.39743 7.45291Z" fill="#24405D"/>
<path fill-rule="evenodd" clip-rule="evenodd" d="M5.80873 4.56869L5.44187 7.66335L2.67225 9.29019L2.62109 9.20311L5.23047 7.67039L3.34446 7.52371L3.35229 7.42301L5.3028 7.57471L4.37596 5.97576L4.46334 5.9251L5.36236 7.47607L5.70843 4.5568L5.80873 4.56869Z" fill="#24405D"/>
<path fill-rule="evenodd" clip-rule="evenodd" d="M4.41052 5.90076L7.50293 5.3321L7.5212 5.43144L4.42879 6.0001L4.41052 5.90076Z" fill="#24405D"/>
<path d="M8.18201 13.271L8.19868 10.8806L10.5906 10.8973L10.574 13.2877L8.18201 13.271ZM10.7699 10.6378L10.7866 8.2474L13.1785 8.26407L13.1619 10.6545L10.7699 10.6378ZM10.7693 15.8809L10.786 13.4905L13.1779 13.5072L13.1612 15.8976L10.7693 15.8809ZM13.3798 13.2483L13.3965 10.858L15.7885 10.8746L15.7718 13.265L13.3798 13.2483Z" fill="#256EA5"/>
<path d="M13.2421 7.89545L13.2538 6.23571L14.9208 6.24734L14.9091 7.90709L13.2421 7.89545ZM9.0747 7.89514L9.08633 6.23539L10.7533 6.24703L10.7417 7.90678L9.0747 7.89514ZM6.18988 10.8517L6.20151 9.19192L7.86849 9.20356L7.85686 10.8633L6.18988 10.8517ZM6.18799 15.0213L6.20529 13.3616L7.87164 13.3789L7.85434 15.0386L6.18799 15.0213ZM16.1263 14.9899L16.138 13.3301L17.805 13.3418L17.7933 15.0015L16.1263 14.9899ZM16.16 10.8633L16.1773 9.20356L17.8436 9.22086L17.8263 10.8806L16.16 10.8633Z" fill="#3378BC"/>
<path d="M4.83895 8.17412L4.8465 7.08272L5.9357 7.09027L5.92815 8.18167L4.83895 8.17412ZM6.96828 5.95295L6.97583 4.86155L8.06503 4.86909L8.05748 5.9605L6.96828 5.95295ZM9.89965 4.85431L9.9072 3.76291L10.9964 3.77046L10.9888 4.86186L9.89965 4.85431ZM4.19763 11.1967L4.20518 10.1053L5.28715 10.1129L5.2796 11.2043L4.19763 11.1967ZM18.0345 7.09782L19.1259 7.09027L19.1335 8.17947L18.0421 8.18702L18.0345 7.09782ZM15.9042 4.83953L16.9956 4.83198L17.0032 5.92118L15.9118 5.92873L15.9042 4.83953ZM12.9634 3.76826L14.0548 3.76071L14.0624 4.84991L12.971 4.85746L12.9634 3.76826ZM18.6689 10.1173L19.7603 10.1097L19.7679 11.1989L18.6765 11.2065L18.6689 10.1173Z" fill="#169BD6"/>
<path d="M9.05164 17.852L9.06327 16.1923L10.7303 16.2039L10.7186 17.8637L9.05164 17.852ZM13.2191 17.852L13.2307 16.1923L14.8977 16.2039L14.8861 17.8637L13.2191 17.852Z" fill="#3378BC"/>
<path d="M18.0273 17.0123L18.0348 15.9209L19.124 15.9284L19.1165 17.0198L18.0273 17.0123ZM15.9206 19.2561L15.9281 18.1647L17.0173 18.1722L17.0098 19.2636L15.9206 19.2561ZM12.9892 20.3318L12.9968 19.2404L14.086 19.2479L14.0784 20.3393L12.9892 20.3318ZM18.6683 13.9897L18.6758 12.8983L19.765 12.9058L19.7575 13.9972L18.6683 13.9897ZM4.84115 15.9209L5.93255 15.9133L5.9401 17.0025L4.8487 17.0101L4.84115 15.9209ZM6.97111 18.1565L8.06251 18.149L8.07006 19.2382L6.97866 19.2457L6.97111 18.1565ZM9.88864 19.2275L10.98 19.2199L10.9876 20.3091L9.89619 20.3167L9.88864 19.2275ZM4.20581 12.9014L5.29721 12.8939L5.30476 13.9831L4.21336 13.9906L4.20581 12.9014Z" fill="#169BD6"/>
<path d="M20.317 7.76587L20.3211 7.17456L20.9237 7.17865L20.9196 7.76995L20.317 7.76587Z" fill="#00A8DA"/>
<path d="M21.0951 9.55174L21.0992 8.96043L21.7018 8.96452L21.6977 9.55583L21.0951 9.55174Z" fill="#00A8DA"/>
<path d="M19.2639 6.1857L19.268 5.59439L19.8706 5.59848L19.8665 6.18978L19.2639 6.1857Z" fill="#00A8DA"/>
<path d="M5.45752 4.83481L5.46161 4.2435L6.06424 4.24759L6.06015 4.8389L5.45752 4.83481Z" fill="#00A8DA"/>
<path d="M2 11.4285L2.00409 10.8372L2.60672 10.8413L2.60263 11.4326L2 11.4285Z" fill="#00A8DA"/>
<path d="M17.936 4.83513L17.9401 4.24382L18.5428 4.24791L18.5387 4.83922L17.936 4.83513Z" fill="#00A8DA"/>
<path d="M2.34375 9.55111L2.34784 8.9598L2.95047 8.96389L2.94638 9.5552L2.34375 9.55111Z" fill="#00A8DA"/>
<path d="M8.84558 3.00333L8.84967 2.41203L9.4523 2.41612L9.44821 3.00742L8.84558 3.00333Z" fill="#00A8DA"/>
<path d="M3.07593 7.76524L3.08002 7.17393L3.68265 7.17802L3.67856 7.76933L3.07593 7.76524Z" fill="#00A8DA"/>
<path d="M4.15234 6.16305L4.15643 5.57174L4.75906 5.57583L4.75497 6.16714L4.15234 6.16305Z" fill="#00A8DA"/>
<path d="M7.07104 3.17318L7.66235 3.16909L7.66644 3.77172L7.07513 3.77581L7.07104 3.17318ZM10.7233 2.01069L11.3146 2.0066L11.3187 2.60923L10.7274 2.61332L10.7233 2.01069Z" fill="#00A8DA"/>
<path d="M16.3329 3.78178L16.337 3.19048L16.9396 3.19457L16.9355 3.78587L16.3329 3.78178Z" fill="#00A8DA"/>
<path d="M21.3932 11.4062L21.3973 10.8149L21.9999 10.819L21.9958 11.4103L21.3932 11.4062Z" fill="#00A8DA"/>
<path d="M12.6466 2.59131L12.6507 2L13.2533 2.00409L13.2492 2.5954L12.6466 2.59131Z" fill="#00A8DA"/>
<path d="M14.5244 2.98037L14.5285 2.38907L15.1311 2.39316L15.127 2.98446L14.5244 2.98037Z" fill="#00A8DA"/>
<path d="M17.9354 19.9005L17.9395 19.3092L18.5421 19.3133L18.5381 19.9046L17.9354 19.9005Z" fill="#00A8DA"/>
<path d="M21.3932 13.3065L21.3973 12.7152L21.9999 12.7193L21.9958 13.3106L21.3932 13.3065Z" fill="#00A8DA"/>
<path d="M5.45691 19.9002L5.461 19.3089L6.06363 19.313L6.05954 19.9043L5.45691 19.9002Z" fill="#00A8DA"/>
<path d="M21.0951 15.21L21.0992 14.6187L21.7018 14.6228L21.6977 15.2141L21.0951 15.21Z" fill="#00A8DA"/>
<path d="M14.5238 21.7553L14.5279 21.164L15.1305 21.1681L15.1264 21.7594L14.5238 21.7553Z" fill="#00A8DA"/>
<path d="M20.3167 16.9928L20.3207 16.4015L20.9234 16.4055L20.9193 16.9969L20.3167 16.9928Z" fill="#00A8DA"/>
<path d="M19.2637 18.5956L19.2678 18.0043L19.8704 18.0084L19.8663 18.5997L19.2637 18.5956Z" fill="#00A8DA"/>
<path d="M16.3086 20.4104L16.8999 20.4063L16.904 21.0089L16.3127 21.013L16.3086 20.4104ZM12.6783 21.527L13.2697 21.5229L13.2737 22.1255L12.6824 22.1296L12.6783 21.527Z" fill="#00A8DA"/>
<path d="M7.08276 21.0225L7.08685 20.4311L7.68948 20.4352L7.68539 21.0265L7.08276 21.0225Z" fill="#00A8DA"/>
<path d="M3.05298 16.9695L3.05707 16.3782L3.6597 16.3823L3.65561 16.9736L3.05298 16.9695Z" fill="#00A8DA"/>
<path d="M2.34314 15.2069L2.34723 14.6156L2.94986 14.6197L2.94577 15.211L2.34314 15.2069Z" fill="#00A8DA"/>
<path d="M4.12866 18.595L4.13275 18.0036L4.73538 18.0077L4.73129 18.599L4.12866 18.595Z" fill="#00A8DA"/>
<path d="M2 13.3062L2.00409 12.7149L2.60672 12.719L2.60263 13.3103L2 13.3062Z" fill="#00A8DA"/>
<path d="M10.746 22.1214L10.7501 21.5301L11.3527 21.5342L11.3486 22.1255L10.746 22.1214Z" fill="#00A8DA"/>
<path d="M8.823 21.732L8.82709 21.1407L9.42972 21.1448L9.42563 21.7361L8.823 21.732Z" fill="#00A8DA"/>
</svg>
