<svg width="24" height="24" viewBox="0 0 24 24" fill="none" xmlns="http://www.w3.org/2000/svg">
<g clip-path="url(#clip0_1006_1207)">
<path d="M20.4 0H3.6C1.61177 0 0 1.61177 0 3.6V20.4C0 22.3882 1.61177 24 3.6 24H20.4C22.3882 24 24 22.3882 24 20.4V3.6C24 1.61177 22.3882 0 20.4 0Z" fill="white"/>
<path d="M11.9984 1.92712C11.8462 1.92712 11.694 1.92712 11.5471 1.93762L9.485 7.60657H11.2795C12.3447 7.60657 12.9219 8.42542 12.5546 9.43323L10.015 16.4144H7.87937L10.6079 8.92932H9.00751L6.279 16.4144H4.14866L7.34941 7.59607L9.28561 2.29456C7.13514 2.89556 5.24518 4.19419 3.91265 5.98644C2.58012 7.77868 1.88052 9.96298 1.92377 12.1962C1.96701 14.4294 2.75064 16.5849 4.15155 18.3242C5.55247 20.0635 7.49128 21.2879 9.6634 21.8052L11.5366 16.6611L14.8318 7.59607H18.7672C19.8324 7.59607 20.4095 8.42017 20.0422 9.42798L17.8122 15.5641C17.7103 15.8064 17.5419 16.0149 17.3265 16.1654C17.111 16.3159 16.8574 16.4022 16.5949 16.4144H13.7614L11.7045 22.0729L12.0036 22.0781C14.6755 22.0781 17.238 21.0163 19.1274 19.1263C21.0167 17.2363 22.0781 14.6729 22.0781 12C22.0781 9.32712 21.0167 6.7637 19.1274 4.87369C17.238 2.98367 14.6755 1.92188 12.0036 1.92188L11.9984 1.92712ZM16.4899 8.92407L14.2441 15.0864H15.8498L18.0955 8.92407H16.4899Z" fill="#0096D6"/>
</g>
<defs>
<clipPath id="clip0_1006_1207">
<rect width="24" height="24" fill="white"/>
</clipPath>
</defs>
</svg>
