<svg width="24" height="24" viewBox="0 0 24 24" fill="none" xmlns="http://www.w3.org/2000/svg">
<g clip-path="url(#clip0_1006_1219)">
<path d="M20.4 0H3.6C1.61177 0 0 1.61177 0 3.6V20.4C0 22.3882 1.61177 24 3.6 24H20.4C22.3882 24 24 22.3882 24 20.4V3.6C24 1.61177 22.3882 0 20.4 0Z" fill="white"/>
<g clip-path="url(#clip1_1006_1219)">
<path d="M19.5933 15.357V14.297H16.7173L16.5782 13.0284L19.2109 9.39649H21.2789V12.9068H22V14.297H21.2789V15.357H19.5933ZM18.3073 12.9068H19.5933V11.1169L18.3073 12.9068Z" fill="#121721"/>
<path d="M12.9078 15.4613C11.144 15.4613 9.6582 14.045 9.6582 12.3681C9.6582 10.6911 11.144 9.28355 12.9078 9.28355C14.6716 9.28355 16.1574 10.6911 16.1574 12.3681C16.1574 14.045 14.6716 15.4613 12.9078 15.4613ZM12.9078 13.932C13.7246 13.932 14.4197 13.2196 14.4197 12.3681C14.4197 11.5253 13.7246 10.8128 12.9078 10.8128C12.0911 10.8128 11.396 11.5253 11.396 12.3681C11.396 13.2196 12.0911 13.932 12.9078 13.932Z" fill="#121721"/>
<path d="M6.38533 13.8539H9.16574V15.357H4.69971V9.38784H6.38533V13.8539Z" fill="#121721"/>
<path d="M2.86888 10.387C2.38231 10.387 2 9.98736 2 9.51817C2 9.06635 2.38231 8.66667 2.86888 8.66667C3.33807 8.66667 3.72038 9.06635 3.72038 9.51817C3.72038 9.98736 3.33807 10.387 2.86888 10.387ZM2.01738 15.357V10.8649H3.69431V15.357H2.01738Z" fill="#121721"/>
</g>
</g>
<defs>
<clipPath id="clip0_1006_1219">
<rect width="24" height="24" fill="white"/>
</clipPath>
<clipPath id="clip1_1006_1219">
<rect width="20" height="20" fill="white" transform="translate(2 2)"/>
</clipPath>
</defs>
</svg>
