<svg width="241" height="240" viewBox="0 0 241 240" fill="none" xmlns="http://www.w3.org/2000/svg">
<path d="M80.3823 186.849V205.54C80.3823 210.849 77.7479 213.682 72.9609 213.682C68.147 213.682 65.4968 210.767 65.4968 205.313V186.869H58.874V205.54C58.874 214.726 63.9768 219.991 72.8736 219.991C81.8547 219.991 87.0051 214.626 87.0051 205.271V186.849H80.3823ZM104.749 186.849L90.3648 219.482H97.1251L99.9016 213.162L100.1 212.688H115.043L117.974 219.482H124.918L110.668 187.042L110.54 186.849L104.749 186.849ZM144.127 186.849L136.715 209.302L129.5 186.866H122.452L133.829 219.502H139.313L146.74 198.063L154.162 219.502H159.693L171.042 186.866H164.174L156.944 209.302L149.53 186.849H144.127ZM208.938 186.849V219.454H215.474V186.849H208.938ZM21.4828 186.851V219.5H28.1075V206.24H43.0654V219.5H49.6919V186.851H43.0654V200.022H28.1075V186.851H21.4828ZM176.383 186.873V219.478H201.04V213.533H182.919V205.449H194.968V199.502H182.919V192.818H200.408V186.873H176.383ZM107.555 195.111L112.278 206.043H112.261L112.583 206.797H102.563L102.881 206.043L107.555 195.111Z" fill="#232527"/>
<path d="M103.977 19.9912C101.349 20.2236 94.2485 21.8399 94.2485 21.8399C78.2436 25.9767 74.4578 40.5008 74.4578 40.5008C73.6762 42.9431 73.3212 45.4461 73.2168 47.8042V51.0137C73.4292 55.9724 74.532 59.6751 74.532 59.6751C79.8781 83.3809 106.164 122.333 111.814 130.516C112.215 130.913 112.536 130.77 112.536 130.77C113.145 130.601 113.098 130.016 113.098 130.016L113.109 130.019C121.811 43.0452 103.977 19.9912 103.977 19.9912ZM132.728 19.9912C132.728 19.9912 114.817 43.0574 123.525 130.082H123.537C123.604 130.634 123.996 130.75 123.996 130.75C124.579 130.975 124.877 130.416 124.877 130.416C130.672 122.024 156.811 83.2895 162.134 59.6747C162.134 59.6747 165.019 48.2451 162.234 40.5003C162.234 40.5003 158.277 25.7514 142.252 21.8537C142.252 21.8537 137.633 20.6818 132.728 19.9912ZM50.1112 46.101C50.1112 46.101 34.8615 60.5749 34.1035 75.9196L34.1096 78.2447C34.1212 78.4197 34.13 78.5969 34.1411 78.7752C34.798 91.1486 44.1063 98.4717 44.1063 98.4717C59.1039 113.089 95.4188 131.543 103.858 135.731C103.976 135.775 104.412 135.917 104.668 135.594C104.668 135.594 104.801 135.493 104.862 135.311V134.926C104.856 134.904 104.844 134.882 104.833 134.857C81.7235 84.3732 50.1112 46.101 50.1112 46.101ZM186.557 46.101C186.557 46.101 155.038 84.2535 131.938 134.635C131.938 134.635 131.674 135.216 132.115 135.594C132.115 135.594 132.247 135.693 132.429 135.733H132.749C132.806 135.717 132.868 135.695 132.928 135.653C141.596 131.351 177.63 113.024 192.557 98.4741C192.557 98.4741 202.01 90.8831 202.505 78.6949C203.597 61.767 186.557 46.101 186.557 46.101ZM214.926 96.2208C214.926 96.2208 163.54 123.797 136.971 141.719L136.98 141.727C136.98 141.727 136.498 142.043 136.666 142.609C136.666 142.609 136.918 143.066 137.285 143.066C146.802 143.082 182.813 143.125 183.716 142.957C183.716 142.957 188.372 142.771 194.126 140.561C194.126 140.561 206.935 136.488 213.589 121.945C213.589 121.945 216.629 115.864 216.673 107.321V106.959C216.651 103.665 216.186 100.017 214.926 96.2208ZM21.7276 96.3495C17.0522 110.823 23.3465 122.486 23.3566 122.505C29.916 136.364 42.4369 140.564 42.4369 140.564C48.2176 142.939 53.9997 143.103 53.9997 143.103C54.9025 143.268 89.9546 143.119 99.3466 143.075C99.7441 143.072 99.9628 142.673 99.9628 142.673C99.9904 142.629 100.015 142.584 100.026 142.544V142.182C99.9478 141.94 99.7403 141.769 99.7403 141.769C73.1845 123.853 21.7276 96.3495 21.7276 96.3495ZM98.2739 147.525L37.8237 149.645C44.3793 161.331 55.4196 170.413 66.9205 167.624C74.8572 165.639 92.8375 153.098 98.7732 148.86L98.7533 148.843C99.2148 148.429 99.05 148.096 99.05 148.096C98.8981 147.553 98.274 147.554 98.274 147.554L98.2739 147.525ZM138.312 147.569L138.306 147.591C138.306 147.591 137.775 147.658 137.626 148.056C137.626 148.056 137.498 148.599 137.855 148.869C143.642 153.019 161.181 165.291 169.633 167.672C169.633 167.672 170.913 168.108 173.059 168.186H174.349C180.012 167.987 189.877 165.078 198.841 149.676L138.312 147.569Z" fill="#CF0A2C"/>
</svg>
