<svg width="24" height="24" viewBox="0 0 24 24" fill="none" xmlns="http://www.w3.org/2000/svg">
<path d="M16.911 10.4702H16.9067C16.9067 10.4702 16.9046 10.4787 16.911 10.4702Z" fill="#FFBE00"/>
<path d="M9.37843 10.5717C9.86559 10.5717 10.4722 10.355 11.2021 9.92177C11.6557 9.65334 12.0271 9.36579 12.3183 9.06095C12.4285 8.94594 12.5162 8.83859 12.5853 8.73889C12.6637 8.62387 12.714 8.51842 12.7364 8.42257C12.7458 8.38231 12.7532 8.34397 12.7532 8.30754C12.7532 8.09666 12.5983 7.9893 12.2903 7.9893C11.945 7.95288 11.245 8.23086 10.6253 8.56635L10.9128 9.07823C10.9221 9.09358 10.9239 9.10888 10.9221 9.12617C10.9203 9.15299 10.9034 9.17792 10.8717 9.20475C10.8605 9.21245 10.8512 9.22199 10.8362 9.23157C10.7429 9.28527 10.6813 9.2872 10.6533 9.23733L10.3603 8.71781C10.3434 8.72739 10.3266 8.73698 10.3099 8.74656H10.3136C9.36348 9.33703 8.91174 9.8489 8.91174 10.2534C8.91174 10.4662 9.06855 10.5717 9.38212 10.5717" fill="#FFBE00"/>
<path d="M9.89166 7.26084L9.8282 7.14773L9.77405 7.05187C9.78526 7.03654 9.789 7.0212 9.79642 7.00586C9.81326 6.97327 9.82446 6.94068 9.8282 6.90809C9.83752 6.84099 9.8282 6.77389 9.789 6.70487C9.68071 6.51892 9.52764 6.48249 9.33168 6.59752C9.14314 6.71063 9.10205 6.86016 9.21033 7.04804C9.27564 7.16498 9.37646 7.22058 9.509 7.21675L10.3564 8.71785C10.4423 8.66609 10.5319 8.61624 10.6233 8.56832L9.89166 7.26276V7.26084Z" fill="#FFBE00"/>
<path d="M10.8343 9.22971C10.8492 9.22012 10.8586 9.21247 10.8698 9.20289C10.9015 9.17795 10.9183 9.15113 10.9202 9.1243C10.9202 9.10895 10.9202 9.09361 10.9108 9.07637L10.6233 8.56448C10.5319 8.61433 10.4423 8.66417 10.3564 8.71402L10.6495 9.23358C10.6775 9.28147 10.7391 9.27958 10.8324 9.22782" fill="#FFBE00"/>
<path d="M12.4507 15.4239C12.5272 15.4681 12.628 15.4949 12.7624 15.4949C13.0051 15.4949 13.2776 15.4335 13.5781 15.3108C13.7704 15.2323 13.9739 15.1306 14.1904 15.0022C14.5245 14.8028 14.7896 14.6111 14.9855 14.4251C15.2655 14.1606 15.4055 13.9094 15.4055 13.6698C15.4055 13.618 15.3943 13.5682 15.3701 13.5241C15.2991 13.4033 15.0957 13.2749 14.7597 13.1407L14.3453 13.018C14.3341 13.0295 14.321 13.039 14.3098 13.0506C14.2893 13.0697 14.265 13.0889 14.2445 13.11C14.0168 13.3113 13.7442 13.5107 13.4176 13.7081C12.9957 13.9113 12.6728 14.059 12.4525 14.1491C12.3555 14.452 12.3051 14.7146 12.2939 14.9389C12.2939 14.9638 12.2902 14.9926 12.2902 15.0175C12.2902 15.1575 12.3069 15.2591 12.3387 15.3224C12.3629 15.3664 12.4021 15.399 12.4488 15.4259" fill="#FFBE00"/>
<path d="M11.0471 10.9743L10.2482 12.7611L10.866 13.8289C10.9538 13.9862 11.1405 14.0647 11.4242 14.0647C11.9132 14.0705 12.49 13.873 13.1508 13.4723C13.5988 13.2078 13.9628 12.9164 14.2446 12.5981C14.5265 12.2818 14.6665 12.0057 14.6665 11.7757C14.6665 11.7028 14.6515 11.6377 14.618 11.5801L13.9889 10.4261L12.2137 10.2535L13.2105 9.07065L12.9193 8.54343C12.9324 8.57219 12.9399 8.60861 12.9399 8.6527C12.9399 8.83483 12.7924 9.08024 12.4975 9.38503C12.2044 9.68986 11.8274 9.97935 11.3682 10.2535C10.6197 10.7021 9.99996 10.9245 9.50902 10.9245C9.31674 10.9245 9.13941 10.8612 9.08716 10.7692L9.41756 11.3463L11.0434 10.9724L11.0471 10.9743Z" fill="#FFBE00"/>
<path d="M14.6682 5.81918L12.7455 6.38282L11.8962 7.83791L13.2868 7.56376L14.6682 5.81918Z" fill="#FFBE00"/>
<path d="M15.8762 8.30364C14.4911 8.65831 13.6791 9.00529 13.6791 9.00529L12.8112 10.0137L16.1487 10.3665L17.4497 8.04483C17.4497 8.04483 17.1138 7.98731 15.8762 8.30555" fill="#FFBE00"/>
<path d="M5.4248 11.4113L8.26579 10.6119L9.09272 9.45779L7.2429 9.66676L5.4248 11.4113Z" fill="#FFBE00"/>
<path d="M7.7378 14.6206C8.31646 14.5688 8.78683 14.5171 9.17133 14.4691L10.5209 11.4113L9.13587 11.7238L6.28369 14.6436C6.72607 14.6685 7.21139 14.6647 7.73591 14.6187" fill="#FFBE00"/>
<path d="M3.91281 14.1988C4.4448 14.3656 5.05705 14.4998 5.75703 14.5957C3.62722 13.9879 3.02057 13.0083 2.8171 11.5647C2.43258 8.82706 6.62501 5.94179 12.1819 5.11551C15.4243 4.63431 18.4127 4.96214 20.4175 5.86127C18.381 4.65157 14.8232 4.16078 10.9052 4.74167C5.06265 5.61013 0.63876 8.5299 1.02328 11.2675C1.21741 12.6402 2.08539 13.6237 3.91281 14.1988Z" fill="#FFBE00"/>
<path d="M22.5101 11.0798C22.1424 9.58443 20.804 8.32105 18.2654 8.12167C17.5486 9.41574 16.9103 10.4395 16.9103 10.4395C18.2449 10.5794 19.3891 10.5737 20.1059 11.4229C21.2595 12.7937 18.62 14.7127 16.7478 15.5754C14.8868 16.4324 12.9157 17.1111 10.336 17.4695C7.50807 17.8625 5.01427 17.5578 3.02258 17.2817C5.14493 17.9412 10.8642 18.3342 13.9759 17.6172C16.0124 17.1475 23.4994 15.1019 22.5101 11.0798Z" fill="#FFBE00"/>
</svg>
