<svg width="24" height="24" viewBox="0 0 24 24" fill="none" xmlns="http://www.w3.org/2000/svg">
<g clip-path="url(#clip0_1455_498)">
<path d="M22 2H2V22H22V2Z" fill="#EBECF0"/>
<path d="M16.825 6.77499H11.775C11.775 8.02499 12.8 9.04999 14.05 9.04999H14.975V9.94999C14.975 11.2 16 12.225 17.25 12.225V7.19999C17.25 6.97499 17.075 6.77499 16.825 6.77499Z" fill="#2684FF"/>
<path d="M14.325 9.27499H9.27502C9.27502 10.525 10.3 11.55 11.55 11.55H12.475V12.45C12.475 13.7 13.5 14.725 14.75 14.725V9.72499C14.75 9.47499 14.55 9.27499 14.325 9.27499Z" fill="url(#paint0_linear_1455_498)"/>
<path d="M11.8251 11.8H6.75012C6.75012 13.05 7.77512 14.075 9.02512 14.075H9.95012V14.975C9.95012 16.225 10.9751 17.25 12.2251 17.25V12.25C12.2501 12 12.0501 11.8 11.8251 11.8Z" fill="url(#paint1_linear_1455_498)"/>
</g>
<defs>
<linearGradient id="paint0_linear_1455_498" x1="14.6513" y1="9.29424" x2="12.5005" y2="11.5123" gradientUnits="userSpaceOnUse">
<stop offset="0.176" stop-color="#0052CC"/>
<stop offset="1" stop-color="#2684FF"/>
</linearGradient>
<linearGradient id="paint1_linear_1455_498" x1="12.2918" y1="11.8279" x2="9.80494" y2="14.2475" gradientUnits="userSpaceOnUse">
<stop offset="0.176" stop-color="#0052CC"/>
<stop offset="1" stop-color="#2684FF"/>
</linearGradient>
<clipPath id="clip0_1455_498">
<rect width="20" height="20" fill="white" transform="translate(2 2)"/>
</clipPath>
</defs>
</svg>
