<svg width="24" height="24" viewBox="0 0 24 24" fill="none" xmlns="http://www.w3.org/2000/svg">
<g clip-path="url(#clip0_996_43)">
<path d="M23.086 13.164C23.132 13.164 23.158 13.151 23.158 13.102C23.158 13.054 23.133 13.043 23.085 13.043H22.983V13.164H23.086ZM22.983 13.206V13.335H22.938V13H23.087C23.172 13 23.204 13.034 23.204 13.1C23.204 13.154 23.181 13.191 23.124 13.202L23.199 13.334H23.151L23.076 13.205L22.983 13.206ZM23.057 12.914C22.99 12.9143 22.9258 12.941 22.8784 12.9884C22.831 13.0358 22.8043 13.1 22.804 13.167C22.804 13.307 22.918 13.421 23.057 13.421C23.1242 13.4207 23.1885 13.3939 23.236 13.3463C23.2834 13.2986 23.31 13.2342 23.31 13.167C23.31 13.0999 23.2833 13.0355 23.2359 12.9881C23.1884 12.9407 23.1241 12.914 23.057 12.914ZM22.767 13.167C22.7673 13.0902 22.7979 13.0166 22.8522 12.9622C22.9066 12.9079 22.9802 12.8773 23.057 12.877C23.1338 12.8773 23.2074 12.9079 23.2618 12.9622C23.3161 13.0166 23.3467 13.0902 23.347 13.167C23.347 13.244 23.3165 13.3179 23.2621 13.3724C23.2078 13.427 23.134 13.4577 23.057 13.458C22.9802 13.4577 22.9066 13.4271 22.8522 13.3728C22.7979 13.3184 22.7673 13.2448 22.767 13.168V13.167ZM2.022 12.507V8.83H1.6V12.507C1.6 13.357 1.633 14.04 0.16 14.04C0.106652 14.0401 0.0533082 14.0391 0 14.037L0 14.434C0.0533225 14.4354 0.10666 14.436 0.16 14.436C1.946 14.436 2.022 13.636 2.022 12.507ZM17.562 10.81H20.696C20.654 9.892 20.595 9.109 19.256 9.109C17.966 9.109 17.613 9.808 17.562 10.809V10.81ZM19.264 8.721C21.058 8.721 21.117 9.925 21.109 11.197H17.554C17.562 12.317 17.84 13.152 19.297 13.152C20.072 13.152 20.427 12.942 20.805 12.663L21.041 12.975C20.62 13.287 20.123 13.531 19.297 13.531C17.477 13.531 17.141 12.478 17.141 11.121C17.141 9.766 17.529 8.721 19.264 8.721ZM15.115 11.426C15.859 11.426 16.229 11.064 16.229 10.332C16.229 9.599 15.83 9.252 15.097 9.252H13.368V11.427L15.115 11.426ZM15.11 8.84C16.178 8.84 16.662 9.37 16.662 10.314C16.662 11.264 16.184 11.841 15.104 11.841H13.369V13.439H12.957V8.84H15.11ZM12.185 8.84V13.44H11.773V8.84H12.185ZM10.991 13.44H10.561V10.626C10.561 9.817 10.57 9.135 9.087 9.135C7.613 9.135 7.647 9.817 7.647 10.668V13.439H7.225V10.668C7.225 9.539 7.301 8.738 9.087 8.738C10.881 8.738 10.991 9.539 10.991 10.634V13.44ZM2.747 8.83H3.177V11.644C3.177 12.453 3.167 13.134 4.65 13.134C6.124 13.134 6.09 12.453 6.09 11.602V8.83H6.512V11.602C6.512 12.73 6.436 13.531 4.65 13.531C2.856 13.531 2.747 12.731 2.747 11.635V8.83ZM21.714 10.667V13.438H22.135V10.667C22.135 9.817 22.101 9.134 23.575 9.134C23.734 9.134 23.874 9.142 24 9.157V8.756C23.859 8.74382 23.7175 8.73782 23.576 8.738C21.79 8.738 21.714 9.538 21.714 10.667ZM21.283 15.027C21.4184 15.1136 21.5763 15.1584 21.737 15.156C21.999 15.156 22.116 15.082 22.116 14.907C22.116 14.727 21.965 14.701 21.736 14.66C21.463 14.612 21.277 14.566 21.277 14.309C21.277 14.063 21.435 13.967 21.737 13.967C21.936 13.967 22.078 14.012 22.179 14.081L22.107 14.191C21.9955 14.1235 21.8673 14.0889 21.737 14.091C21.509 14.091 21.411 14.154 21.411 14.305C21.411 14.466 21.543 14.497 21.769 14.538C22.047 14.588 22.248 14.629 22.248 14.902C22.248 15.154 22.087 15.275 21.74 15.275C21.554 15.281 21.3706 15.2305 21.214 15.13L21.283 15.027ZM20.494 14.585L20.24 14.862V15.258H20.108V13.988H20.24V14.689L20.883 13.989H21.039L20.583 14.487L21.101 15.258H20.948L20.494 14.585ZM19.394 14.617C19.574 14.617 19.684 14.562 19.684 14.362C19.684 14.165 19.577 14.113 19.388 14.113H18.975V14.617H19.394ZM19.356 14.741H18.976V15.258H18.843V13.988H19.392C19.687 13.988 19.82 14.106 19.82 14.358C19.82 14.578 19.716 14.706 19.494 14.735L19.801 15.258H19.657L19.356 14.741ZM18.432 14.624C18.432 14.281 18.272 14.096 17.926 14.096C17.581 14.096 17.424 14.281 17.424 14.624C17.424 14.969 17.581 15.154 17.926 15.154C18.272 15.154 18.432 14.969 18.432 14.624ZM17.926 13.967C18.334 13.967 18.567 14.17 18.567 14.622C18.567 15.077 18.334 15.279 17.926 15.279C17.52 15.279 17.288 15.077 17.288 14.622C17.288 14.17 17.52 13.967 17.926 13.967ZM15.569 13.988L15.903 15.038L16.244 13.988H16.361L16.701 15.038L17.036 13.988H17.166L16.758 15.267H16.642L16.299 14.209L15.958 15.267H15.84L15.43 13.988H15.569ZM14.177 14.117V13.988H15.265V14.117H14.789V15.258H14.653V14.117H14.177ZM13.973 13.988V14.117H13.268V14.537H13.956V14.664H13.268V15.134H13.98V15.258H13.133V13.988H13.973ZM11.919 13.988L12.679 15.036V13.988H12.809V15.258H12.685L11.902 14.18V15.258H11.772V13.988H11.919Z" fill="black"/>
</g>
<defs>
<clipPath id="clip0_996_43">
<rect width="24" height="24" fill="white"/>
</clipPath>
</defs>
</svg>
