<svg width="24" height="24" viewBox="0 0 24 24" fill="none" xmlns="http://www.w3.org/2000/svg">
<g clip-path="url(#clip0_1045_14)">
<path d="M20.4 0H3.6C1.61177 0 0 1.61177 0 3.6V20.4C0 22.3882 1.61177 24 3.6 24H20.4C22.3882 24 24 22.3882 24 20.4V3.6C24 1.61177 22.3882 0 20.4 0Z" fill="white"/>
<path d="M19.7778 2H4.22222C2.995 2 2 2.995 2 4.22222V19.7778C2 21.005 2.995 22 4.22222 22H19.7778C21.005 22 22 21.005 22 19.7778V4.22222C22 2.995 21.005 2 19.7778 2ZM18.1111 8.11833C18.0389 13.6756 12.565 17.8194 12.3322 17.9928L12 18.2406L11.6678 17.9933C11.435 17.8194 5.96111 13.6761 5.88889 8.11833L5.88167 7.55556H6.44444C9.53722 7.55556 11.6467 6.015 11.6678 5.99944L12.0006 5.75222L12.3333 6C12.3533 6.01444 14.4628 7.55556 17.5556 7.55556H18.1183L18.1111 8.11833Z" fill="#F44336"/>
</g>
<defs>
<clipPath id="clip0_1045_14">
<rect width="24" height="24" fill="white"/>
</clipPath>
</defs>
</svg>
