<svg width="24" height="24" viewBox="0 0 24 24" fill="none" xmlns="http://www.w3.org/2000/svg">
<path d="M21.316 3H16.7384C16.5665 2.99999 16.3963 3.03384 16.2375 3.09964C16.0788 3.16543 15.9345 3.26187 15.813 3.38344L5.00828 14.1881C4.88671 14.3096 4.79028 14.4539 4.7245 14.6127C4.65871 14.7715 4.62486 14.9416 4.62488 15.1135V19.6911C4.62486 19.863 4.65871 20.0332 4.72448 20.192C4.79024 20.3508 4.88665 20.4951 5.00819 20.6167C5.12973 20.7382 5.27402 20.8346 5.43282 20.9004C5.59162 20.9662 5.76182 21 5.9337 21H10.5113C10.6832 21 10.8534 20.9662 11.0122 20.9004C11.171 20.8346 11.3153 20.7381 11.4368 20.6166L22.2416 9.81187C22.487 9.56643 22.6249 9.23357 22.6249 8.88649V4.30886C22.6249 4.13698 22.591 3.96677 22.5253 3.80797C22.4595 3.64916 22.3631 3.50487 22.2416 3.38332C22.12 3.26178 21.9757 3.16537 21.8169 3.0996C21.6581 3.03383 21.4879 2.99999 21.316 3Z" fill="#28A8EA"/>
<path d="M21.3162 21H16.7384C16.3913 21 16.0584 20.8621 15.813 20.6167L13.6249 18.4285V14.34C13.6249 13.7194 13.8714 13.1242 14.3102 12.6854C14.7491 12.2465 15.3443 12 15.9649 12H20.0535L22.2416 14.1881C22.487 14.4336 22.6249 14.7664 22.6249 15.1135V19.6912C22.6249 20.0384 22.487 20.3712 22.2416 20.6167C21.9962 20.8621 21.6633 21 21.3162 21Z" fill="#0078D4"/>
<path d="M5.93363 3H10.5113C10.8584 3 11.1913 3.13789 11.4368 3.38333L13.6249 5.57145V9.66C13.6249 9.96729 13.5644 10.2716 13.4468 10.5555C13.3292 10.8394 13.1568 11.0973 12.9395 11.3146C12.7222 11.5319 12.4643 11.7043 12.1804 11.8219C11.8965 11.9395 11.5922 12 11.2849 12H7.19629L5.00817 9.81187C4.76275 9.56644 4.62488 9.23357 4.62488 8.88649V4.30875C4.62488 3.96165 4.76276 3.62876 5.0082 3.38332C5.25364 3.13789 5.58653 3 5.93363 3Z" fill="#50D9FF"/>
<path opacity="0.2" d="M12.8749 7.62375V17.5012C12.8757 17.5516 12.8707 17.602 12.8599 17.6512C12.8258 17.854 12.7207 18.0382 12.5634 18.1708C12.4061 18.3034 12.2068 18.3757 12.0011 18.375H4.62488V6.75H12.0011C12.1159 6.7498 12.2296 6.77227 12.3357 6.81611C12.4418 6.85995 12.5382 6.9243 12.6194 7.00547C12.7006 7.08665 12.7649 7.18305 12.8088 7.28915C12.8526 7.39524 12.8751 7.50895 12.8749 7.62375Z" fill="black"/>
<path opacity="0.1" d="M13.2499 7.62375V16.7513C13.2468 17.0815 13.1143 17.3973 12.8807 17.6308C12.6472 17.8644 12.3314 17.9969 12.0011 18H4.62488V6.375H12.0011C12.332 6.37617 12.6489 6.50811 12.8828 6.74204C13.1168 6.97597 13.2487 7.29292 13.2499 7.62375Z" fill="black"/>
<path opacity="0.2" d="M12.8749 7.62375V16.7512C12.8751 16.866 12.8526 16.9798 12.8088 17.0859C12.765 17.192 12.7006 17.2884 12.6194 17.3695C12.5382 17.4507 12.4418 17.5151 12.3357 17.5589C12.2296 17.6027 12.1159 17.6252 12.0011 17.625H4.62488V6.75H12.0011C12.1159 6.7498 12.2296 6.77227 12.3357 6.81611C12.4418 6.85995 12.5382 6.9243 12.6194 7.00547C12.7006 7.08665 12.7649 7.18305 12.8088 7.28915C12.8526 7.39524 12.8751 7.50895 12.8749 7.62375Z" fill="black"/>
<path opacity="0.1" d="M12.4999 7.62375V16.7512C12.5001 16.866 12.4776 16.9798 12.4338 17.0859C12.39 17.192 12.3256 17.2884 12.2444 17.3695C12.1632 17.4507 12.0668 17.5151 11.9607 17.5589C11.8546 17.6027 11.7409 17.6252 11.6261 17.625H4.62488V6.75H11.6261C11.7409 6.7498 11.8546 6.77227 11.9607 6.81611C12.0668 6.85995 12.1632 6.9243 12.2444 7.00547C12.3256 7.08665 12.3899 7.18305 12.4338 7.28915C12.4776 7.39524 12.5001 7.50895 12.4999 7.62375Z" fill="black"/>
<path d="M11.625 6.75H2.87499C2.39175 6.75 2 7.14175 2 7.62499V16.375C2 16.8583 2.39175 17.25 2.87499 17.25H11.625C12.1083 17.25 12.5 16.8583 12.5 16.375V7.62499C12.5 7.14175 12.1083 6.75 11.625 6.75Z" fill="#0078D4"/>
<path d="M8.96932 10.0805H6.51416V11.5162H8.81868V12.4363H6.51416V13.9275H9.1002V14.8438H5.39966V9.15619H8.96932V10.0805Z" fill="white"/>
</svg>
