<svg width="24" height="24" viewBox="0 0 24 24" fill="none" xmlns="http://www.w3.org/2000/svg">
<mask id="path-1-inside-1_1004_1038" fill="white">
<path d="M21.3548 11.6774H12.9677C12.5806 11.6774 12.3226 11.4194 12.3226 11.0323V4.12903C12.3226 3.80645 12.5806 3.54839 12.8387 3.48387L21.2258 2C21.4194 2 21.6129 2 21.7419 2.12903C21.9355 2.25806 22 2.45161 22 2.64516V11.0323C22 11.4194 21.7419 11.6774 21.3548 11.6774Z"/>
<path d="M10.3871 11.6774H2.64516C2.25806 11.6774 2 11.4194 2 11.0323V5.87097C2 5.54839 2.25806 5.29032 2.51613 5.22581L10.2581 3.93548C10.4516 3.93548 10.6452 3.93548 10.7742 4.06452C10.9677 4.19355 11.0323 4.3871 11.0323 4.58065V11.0323C11.0323 11.4194 10.7742 11.6774 10.3871 11.6774Z"/>
<path d="M10.3871 20.7097C10.3226 20.7097 10.3226 20.7097 10.2581 20.7097L2.51613 19.4194C2.25806 19.3548 2 19.0968 2 18.7742V13.6129C2 13.2258 2.25806 12.9677 2.64516 12.9677H10.3871C10.7742 12.9677 11.0323 13.2258 11.0323 13.6129V20.0645C11.0323 20.2581 10.9677 20.4516 10.7742 20.5806C10.7097 20.6452 10.5161 20.7097 10.3871 20.7097Z"/>
<path d="M17.0438 13C15.3545 13 13.8801 13.8064 13.0876 15H14.2046C14.6164 14.5552 15.1538 14.2032 15.7793 14.0008C15.6361 14.292 15.5213 14.632 15.4334 15H16.3744C16.5936 14.2092 16.9006 13.8 17.0438 13.8C17.187 13.8 17.494 14.2092 17.7131 15H18.6542C18.5663 14.632 18.4511 14.292 18.3083 14.0008C18.9333 14.2032 19.4711 14.5552 19.8829 15H21C20.2075 13.8064 18.7331 13 17.0438 13ZM13 15.8V18.2H13.9759C14.2138 18.1988 14.4281 18.1511 14.6175 18.0555C14.8069 17.9599 14.9533 17.8252 15.0572 17.6516C15.1611 17.478 15.2136 17.2794 15.2136 17.0562V16.9453C15.2136 16.7221 15.1602 16.5229 15.0545 16.3477C14.9488 16.1725 14.802 16.0374 14.613 15.9422C14.4241 15.8474 14.2098 15.8 13.9705 15.8H13ZM15.9937 15.8V18.2H16.5594V16.6211L17.6604 18.2H18.2261V15.8H17.6622V17.382L16.5594 15.8H15.9937ZM19.9419 15.8C19.7525 15.8 19.5813 15.828 19.429 15.8836C19.2766 15.9392 19.1601 16.0168 19.0786 16.1156C18.9972 16.2144 18.9562 16.3267 18.9562 16.4531C18.9562 16.6959 19.1086 16.8888 19.412 17.032C19.5236 17.0844 19.6743 17.1382 19.8651 17.1922C20.0559 17.2462 20.1877 17.2973 20.2609 17.3461C20.3346 17.3945 20.3718 17.4647 20.3718 17.5555C20.3718 17.6387 20.3346 17.7044 20.2609 17.7508C20.1873 17.7972 20.0853 17.8203 19.9544 17.8203C19.6021 17.8203 19.4263 17.6904 19.4263 17.4328H18.874C18.874 17.5836 18.9184 17.7161 19.0071 17.8305C19.0959 17.9449 19.2244 18.036 19.3932 18.1016C19.562 18.1676 19.749 18.2 19.9544 18.2C20.2505 18.2 20.4861 18.1425 20.6604 18.0273C20.8357 17.9125 20.9231 17.7536 20.9231 17.5516C20.9231 17.3696 20.8519 17.2181 20.7087 17.0961C20.5655 16.9741 20.3371 16.8722 20.0241 16.7898C19.8544 16.745 19.7255 16.6965 19.6381 16.6453C19.5507 16.5941 19.5067 16.5307 19.5067 16.4547C19.5067 16.3735 19.5447 16.3074 19.6193 16.2578C19.6939 16.2082 19.7985 16.1836 19.933 16.1836C20.0725 16.1836 20.1805 16.2135 20.2574 16.2727C20.3347 16.3323 20.3735 16.4159 20.3735 16.5227H20.924C20.924 16.3823 20.8822 16.2573 20.7998 16.1469C20.7175 16.0365 20.6014 15.951 20.4522 15.8906C20.303 15.8302 20.1327 15.8 19.9419 15.8ZM13.5898 16.2008H13.9294C14.1499 16.2008 14.3177 16.2631 14.4325 16.3891C14.5474 16.5151 14.605 16.6998 14.605 16.9438V17.0703C14.6027 17.3055 14.5429 17.4861 14.4272 17.6125C14.3114 17.7389 14.1432 17.8023 13.924 17.8023H13.5898V16.2008ZM13.0876 19C13.8801 20.1936 15.3545 21 17.0438 21C18.7331 21 20.2075 20.1936 21 19H19.8829C19.4711 19.4448 18.9338 19.7968 18.3083 19.9992C18.4511 19.708 18.5654 19.368 18.6533 19H17.7122C17.4931 19.7908 17.1861 20.2 17.0429 20.2C16.8997 20.2 16.5936 19.7908 16.3744 19H15.4334C15.5213 19.368 15.6365 19.708 15.7793 19.9992C15.1543 19.7968 14.6164 19.4448 14.2046 19H13.0876Z"/>
</mask>
<path d="M21.3548 11.6774H12.9677C12.5806 11.6774 12.3226 11.4194 12.3226 11.0323V4.12903C12.3226 3.80645 12.5806 3.54839 12.8387 3.48387L21.2258 2C21.4194 2 21.6129 2 21.7419 2.12903C21.9355 2.25806 22 2.45161 22 2.64516V11.0323C22 11.4194 21.7419 11.6774 21.3548 11.6774Z" fill="#00ADEF"/>
<path d="M10.3871 11.6774H2.64516C2.25806 11.6774 2 11.4194 2 11.0323V5.87097C2 5.54839 2.25806 5.29032 2.51613 5.22581L10.2581 3.93548C10.4516 3.93548 10.6452 3.93548 10.7742 4.06452C10.9677 4.19355 11.0323 4.3871 11.0323 4.58065V11.0323C11.0323 11.4194 10.7742 11.6774 10.3871 11.6774Z" fill="#00ADEF"/>
<path d="M10.3871 20.7097C10.3226 20.7097 10.3226 20.7097 10.2581 20.7097L2.51613 19.4194C2.25806 19.3548 2 19.0968 2 18.7742V13.6129C2 13.2258 2.25806 12.9677 2.64516 12.9677H10.3871C10.7742 12.9677 11.0323 13.2258 11.0323 13.6129V20.0645C11.0323 20.2581 10.9677 20.4516 10.7742 20.5806C10.7097 20.6452 10.5161 20.7097 10.3871 20.7097Z" fill="#00ADEF"/>
<path d="M21.3548 11.6774H12.9677C12.5806 11.6774 12.3226 11.4194 12.3226 11.0323V4.12903C12.3226 3.80645 12.5806 3.54839 12.8387 3.48387L21.2258 2C21.4194 2 21.6129 2 21.7419 2.12903C21.9355 2.25806 22 2.45161 22 2.64516V11.0323C22 11.4194 21.7419 11.6774 21.3548 11.6774Z" stroke="#00ADEF" stroke-width="2" mask="url(#path-1-inside-1_1004_1038)"/>
<path d="M10.3871 11.6774H2.64516C2.25806 11.6774 2 11.4194 2 11.0323V5.87097C2 5.54839 2.25806 5.29032 2.51613 5.22581L10.2581 3.93548C10.4516 3.93548 10.6452 3.93548 10.7742 4.06452C10.9677 4.19355 11.0323 4.3871 11.0323 4.58065V11.0323C11.0323 11.4194 10.7742 11.6774 10.3871 11.6774Z" stroke="#00ADEF" stroke-width="2" mask="url(#path-1-inside-1_1004_1038)"/>
<path d="M10.3871 20.7097C10.3226 20.7097 10.3226 20.7097 10.2581 20.7097L2.51613 19.4194C2.25806 19.3548 2 19.0968 2 18.7742V13.6129C2 13.2258 2.25806 12.9677 2.64516 12.9677H10.3871C10.7742 12.9677 11.0323 13.2258 11.0323 13.6129V20.0645C11.0323 20.2581 10.9677 20.4516 10.7742 20.5806C10.7097 20.6452 10.5161 20.7097 10.3871 20.7097Z" stroke="#00ADEF" stroke-width="2" mask="url(#path-1-inside-1_1004_1038)"/>
<path d="M17.0438 13C15.3545 13 13.8801 13.8064 13.0876 15H14.2046C14.6164 14.5552 15.1538 14.2032 15.7793 14.0008C15.6361 14.292 15.5213 14.632 15.4334 15H16.3744C16.5936 14.2092 16.9006 13.8 17.0438 13.8C17.187 13.8 17.494 14.2092 17.7131 15H18.6542C18.5663 14.632 18.4511 14.292 18.3083 14.0008C18.9333 14.2032 19.4711 14.5552 19.8829 15H21C20.2075 13.8064 18.7331 13 17.0438 13ZM13 15.8V18.2H13.9759C14.2138 18.1988 14.4281 18.1511 14.6175 18.0555C14.8069 17.9599 14.9533 17.8252 15.0572 17.6516C15.1611 17.478 15.2136 17.2794 15.2136 17.0562V16.9453C15.2136 16.7221 15.1602 16.5229 15.0545 16.3477C14.9488 16.1725 14.802 16.0374 14.613 15.9422C14.4241 15.8474 14.2098 15.8 13.9705 15.8H13ZM15.9937 15.8V18.2H16.5594V16.6211L17.6604 18.2H18.2261V15.8H17.6622V17.382L16.5594 15.8H15.9937ZM19.9419 15.8C19.7525 15.8 19.5813 15.828 19.429 15.8836C19.2766 15.9392 19.1601 16.0168 19.0786 16.1156C18.9972 16.2144 18.9562 16.3267 18.9562 16.4531C18.9562 16.6959 19.1086 16.8888 19.412 17.032C19.5236 17.0844 19.6743 17.1382 19.8651 17.1922C20.0559 17.2462 20.1877 17.2973 20.2609 17.3461C20.3346 17.3945 20.3718 17.4647 20.3718 17.5555C20.3718 17.6387 20.3346 17.7044 20.2609 17.7508C20.1873 17.7972 20.0853 17.8203 19.9544 17.8203C19.6021 17.8203 19.4263 17.6904 19.4263 17.4328H18.874C18.874 17.5836 18.9184 17.7161 19.0071 17.8305C19.0959 17.9449 19.2244 18.036 19.3932 18.1016C19.562 18.1676 19.749 18.2 19.9544 18.2C20.2505 18.2 20.4861 18.1425 20.6604 18.0273C20.8357 17.9125 20.9231 17.7536 20.9231 17.5516C20.9231 17.3696 20.8519 17.2181 20.7087 17.0961C20.5655 16.9741 20.3371 16.8722 20.0241 16.7898C19.8544 16.745 19.7255 16.6965 19.6381 16.6453C19.5507 16.5941 19.5067 16.5307 19.5067 16.4547C19.5067 16.3735 19.5447 16.3074 19.6193 16.2578C19.6939 16.2082 19.7985 16.1836 19.933 16.1836C20.0725 16.1836 20.1805 16.2135 20.2574 16.2727C20.3347 16.3323 20.3735 16.4159 20.3735 16.5227H20.924C20.924 16.3823 20.8822 16.2573 20.7998 16.1469C20.7175 16.0365 20.6014 15.951 20.4522 15.8906C20.303 15.8302 20.1327 15.8 19.9419 15.8ZM13.5898 16.2008H13.9294C14.1499 16.2008 14.3177 16.2631 14.4325 16.3891C14.5474 16.5151 14.605 16.6998 14.605 16.9438V17.0703C14.6027 17.3055 14.5429 17.4861 14.4272 17.6125C14.3114 17.7389 14.1432 17.8023 13.924 17.8023H13.5898V16.2008ZM13.0876 19C13.8801 20.1936 15.3545 21 17.0438 21C18.7331 21 20.2075 20.1936 21 19H19.8829C19.4711 19.4448 18.9338 19.7968 18.3083 19.9992C18.4511 19.708 18.5654 19.368 18.6533 19H17.7122C17.4931 19.7908 17.1861 20.2 17.0429 20.2C16.8997 20.2 16.5936 19.7908 16.3744 19H15.4334C15.5213 19.368 15.6365 19.708 15.7793 19.9992C15.1543 19.7968 14.6164 19.4448 14.2046 19H13.0876Z" stroke="#00ADEF" stroke-width="2" mask="url(#path-1-inside-1_1004_1038)"/>
</svg>
