<svg width="24" height="24" viewBox="0 0 24 24" fill="none" xmlns="http://www.w3.org/2000/svg">
<path d="M12.5217 6.02102V17.4992H13.7274L13.8555 6.02102H12.5217ZM14.9349 6.02102L14.8068 17.4992H16.1406L16.2687 6.02102H14.9349ZM17.7097 16.7841C18.2613 17.1738 19.3481 17.5016 20.3691 17.5016C22.8061 17.5016 24 16.0134 24 14.2771C24 12.6383 23.1108 11.7082 21.3406 10.9995C19.8998 10.406 19.2905 9.89217 19.2905 8.85573C19.2905 8.07618 19.8174 7.18148 21.2583 7.18148C22.1969 7.18148 22.8967 7.50924 23.2261 7.72185L23.5883 6.56139C23.119 6.29563 22.3698 6.02102 21.2912 6.02102C19.2658 6.02102 17.9402 7.3055 17.9402 9.05948C17.9402 10.6363 18.9941 11.5664 20.6819 12.222C22.0981 12.7889 22.6497 13.3824 22.6497 14.4277C22.6497 15.5616 21.8428 16.3412 20.4843 16.3412C19.5704 16.3412 18.6812 16.0134 18.0719 15.6236L17.7097 16.7841Z" fill="#121721"/>
<path d="M20.3691 17.5016C19.3481 17.5016 18.2613 17.1738 17.7097 16.7841L18.0719 15.6236C18.6812 16.0134 19.5704 16.3412 20.4843 16.3412C21.8428 16.3412 22.6497 15.5616 22.6497 14.4277C22.6497 13.3824 22.0981 12.7889 20.6819 12.222C18.9941 11.5664 17.9402 10.6363 17.9402 9.05948C17.9402 7.3055 19.2658 6.02102 21.2912 6.02102C22.3698 6.02102 23.119 6.29563 23.5883 6.56139L23.2261 7.72185C22.8967 7.50924 22.1969 7.18148 21.2583 7.18148C19.8174 7.18148 19.2905 8.07618 19.2905 8.85573C19.2905 9.89217 19.8998 10.406 21.3406 10.9995C23.1108 11.7082 24 12.6383 24 14.2771C24 16.0134 22.8061 17.5016 20.3691 17.5016Z" fill="#121721"/>
<path d="M10.3125 11.1562H5.84375C5.6375 11.1562 5.5 11.0188 5.5 10.8125V7.13437C5.5 6.9625 5.6375 6.825 5.775 6.79062L10.2437 6C10.3469 6 10.45 6 10.5188 6.06875C10.6219 6.1375 10.6562 6.24062 10.6562 6.34375V10.8125C10.6562 11.0188 10.5188 11.1562 10.3125 11.1562Z" fill="#00ADEF"/>
<path d="M4.46875 11.1562H0.34375C0.1375 11.1562 0 11.0187 0 10.8125V8.0625C0 7.89062 0.1375 7.75313 0.275 7.71875L4.4 7.03125C4.50313 7.03125 4.60625 7.03125 4.675 7.1C4.77813 7.16875 4.8125 7.27187 4.8125 7.375V10.8125C4.8125 11.0187 4.675 11.1562 4.46875 11.1562Z" fill="#00ADEF"/>
<path d="M10.3125 17C10.2781 17 10.2781 17 10.2437 17L5.775 16.2094C5.60312 16.175 5.5 16.0375 5.5 15.8656V12.1875C5.5 11.9812 5.6375 11.8438 5.84375 11.8438H10.3125C10.5188 11.8438 10.6562 11.9812 10.6562 12.1875V16.6562C10.6562 16.7594 10.6219 16.8625 10.5188 16.9312C10.4844 16.9656 10.3812 17 10.3125 17Z" fill="#00ADEF"/>
<path d="M4.46875 15.9688C4.43437 15.9688 4.43438 15.9688 4.4 15.9688L0.275 15.2812C0.1375 15.2469 0 15.1094 0 14.9375V12.1875C0 11.9812 0.1375 11.8438 0.34375 11.8438H4.46875C4.675 11.8438 4.8125 11.9812 4.8125 12.1875V15.625C4.8125 15.7281 4.77813 15.8312 4.675 15.9C4.64062 15.9344 4.5375 15.9688 4.46875 15.9688Z" fill="#00ADEF"/>
</svg>
