<svg width="24" height="24" viewBox="0 0 24 24" fill="none" xmlns="http://www.w3.org/2000/svg">
<path d="M14.6905 11.2703L10.2847 12.709L6.45171 14.4007L5.37938 14.6838C5.10628 14.9435 4.81993 15.2066 4.51022 15.473C4.17055 15.7661 3.85419 16.0325 3.61105 16.2256C3.34133 16.4388 2.9417 16.8384 2.73858 17.0914C2.43552 17.4711 2.19576 17.874 2.09252 18.1837C1.90934 18.7432 1.9993 19.3093 2.35229 19.8322C2.80518 20.4982 3.70767 21.1775 4.75996 21.6404C5.29615 21.8769 6.19861 22.1799 6.87793 22.3497C8.00682 22.6362 10.1914 22.9459 11.3936 22.9925C11.6366 23.0025 11.963 23.0025 11.9763 22.9925C12.003 22.9758 12.1895 22.6195 12.406 22.1766C13.1453 20.668 13.6781 19.2527 13.9678 18.0439C14.1409 17.3113 14.2775 16.3356 14.3673 15.18C14.3907 14.857 14.4007 13.7747 14.3807 13.4084C14.3507 12.8089 14.2974 12.3228 14.2142 11.8465C14.2009 11.7766 14.1975 11.7133 14.2042 11.71C14.2175 11.7 14.2574 11.6867 14.8003 11.5301L14.6904 11.2704V11.2704H14.6905V11.2703ZM13.6848 11.8598C13.7247 11.8598 13.8313 12.8821 13.8579 13.5282C13.8646 13.6647 13.8612 13.7547 13.8546 13.7547C13.828 13.7547 13.2918 13.4383 12.9089 13.1986C12.5758 12.9888 11.9431 12.5691 11.8432 12.4892C11.8099 12.4659 11.8132 12.4626 12.0863 12.3693C12.5491 12.2128 13.6481 11.8598 13.6848 11.8598ZM11.4402 12.5991C11.4702 12.5991 11.5468 12.6424 11.73 12.7556C12.4159 13.1852 13.3484 13.7047 13.748 13.8779C13.8712 13.9312 13.8845 13.9112 13.6015 14.1044C12.9954 14.5173 12.2394 14.9235 11.3136 15.3332C11.1505 15.4064 11.014 15.463 11.0106 15.463C11.004 15.463 11.0239 15.3798 11.0505 15.2799C11.2737 14.4506 11.4002 13.6114 11.4069 12.9388C11.4103 12.6057 11.4103 12.6057 11.4402 12.5958C11.4336 12.5991 11.4369 12.5991 11.4402 12.5991ZM10.9774 12.7756C10.9973 12.7955 10.984 13.5415 10.9573 13.7446C10.8974 14.2309 10.8042 14.6837 10.651 15.1933C10.6144 15.3164 10.581 15.4197 10.5744 15.4264C10.5611 15.443 10.1048 14.9968 9.95498 14.8236C9.69521 14.5239 9.49212 14.2242 9.34226 13.9311C9.26566 13.7813 9.1458 13.4883 9.15577 13.4782C9.20904 13.4416 10.964 12.7623 10.9774 12.7756ZM8.79942 13.6314C8.80274 13.6314 8.80605 13.6314 8.80943 13.6347C8.81607 13.6414 8.83942 13.6947 8.8594 13.7546C8.96593 14.0444 9.20566 14.4706 9.41219 14.7437C9.63864 15.0434 9.93505 15.3631 10.1814 15.5729C10.2614 15.6395 10.3346 15.7027 10.3446 15.7128C10.3646 15.7327 10.3712 15.7294 9.8284 15.9359C9.19907 16.1756 8.51302 16.4154 7.72709 16.6685C7.53935 16.729 7.35178 16.7901 7.16438 16.8517C7.13436 16.8617 7.14437 16.845 7.23095 16.7085C7.62056 16.099 8.21331 14.9035 8.54634 14.0577C8.60296 13.9111 8.65957 13.7646 8.66958 13.7313C8.68291 13.6847 8.69952 13.668 8.7428 13.6447C8.76611 13.6381 8.78945 13.6314 8.79942 13.6314ZM8.13345 13.9078C8.14342 13.9145 7.97358 14.2708 7.80706 14.5972C7.48402 15.2266 7.13104 15.846 6.65817 16.5986C6.57825 16.7285 6.50168 16.8484 6.49167 16.8617C6.47504 16.885 6.46834 16.8783 6.41507 16.7751C6.30185 16.552 6.20857 16.2656 6.15863 16.0025C6.10866 15.7427 6.11868 15.2898 6.17531 15.0101C6.21855 14.8037 6.21527 14.807 6.31516 14.757C6.74141 14.5406 8.12012 13.8945 8.13345 13.9078ZM13.8779 14.141V14.2808C13.8779 15.0234 13.798 16.0425 13.6814 16.7851C13.6614 16.915 13.6447 17.0215 13.6414 17.0249C13.6414 17.0249 13.5449 16.9983 13.4317 16.9649C12.9322 16.8084 12.3893 16.5786 11.8998 16.3089C11.5767 16.1324 11.1072 15.8426 11.1205 15.8293C11.1238 15.826 11.2637 15.7527 11.4269 15.6661C12.0796 15.3265 12.7057 14.9602 13.2485 14.5972C13.4516 14.4606 13.7579 14.2409 13.8246 14.1809L13.8779 14.141ZM5.61914 15.1266C5.63246 15.1266 5.62912 15.1533 5.60915 15.2732C5.59582 15.3598 5.57919 15.5196 5.57257 15.6295C5.54586 16.1157 5.62584 16.4754 5.8656 16.9682C5.9322 17.1047 5.98552 17.218 5.98214 17.2213C5.95881 17.2413 3.75431 17.8874 3.06159 18.0772C2.85514 18.1337 2.67534 18.1837 2.66195 18.187C2.63869 18.1937 2.63534 18.1904 2.64532 18.1337C2.7219 17.6442 3.0949 17.0048 3.61438 16.4653C3.96073 16.1057 4.23715 15.8959 4.71002 15.6261C5.04969 15.433 5.57252 15.1433 5.61248 15.13C5.61251 15.1266 5.61583 15.1266 5.61914 15.1266ZM10.8142 16.0557C10.8175 16.0524 10.8974 16.0957 10.994 16.1523C11.7066 16.5653 12.699 16.9483 13.5448 17.1447L13.6215 17.1614L13.5149 17.2213C13.072 17.4677 11.6167 18.0738 10.1282 18.63C9.91168 18.7098 9.69857 18.7898 9.65855 18.8064C9.6186 18.8231 9.58196 18.8331 9.58196 18.8298C9.58196 18.8264 9.64194 18.7098 9.71847 18.5667C10.1347 17.7874 10.5544 16.8383 10.7675 16.179C10.7942 16.1157 10.8108 16.0591 10.8142 16.0557ZM10.2847 16.2289C10.2881 16.2323 10.2614 16.3022 10.2281 16.3821C9.93837 17.0848 9.55868 17.8508 9.0725 18.7099C8.94931 18.9297 8.84606 19.1062 8.84268 19.1062C8.83941 19.1062 8.73947 19.0462 8.61959 18.973C7.91356 18.5401 7.28752 18.0072 6.87795 17.4911L6.81798 17.4178L7.121 17.3345C8.20664 17.0382 9.12905 16.7185 10.0449 16.3256C10.1748 16.2723 10.2814 16.2289 10.2847 16.2289ZM13.5749 17.3778C13.5782 17.4544 13.4083 18.1405 13.2685 18.6366C13.1519 19.0529 13.052 19.3792 12.8689 19.9553C12.7889 20.2085 12.719 20.4182 12.7157 20.4182C12.7124 20.4182 12.6924 20.4149 12.6724 20.4083C11.6834 20.2284 10.7975 19.9786 9.96499 19.6457C9.73185 19.5524 9.39886 19.4025 9.37888 19.3859C9.37225 19.3792 9.57207 19.286 9.82514 19.1761C11.3404 18.5134 12.9122 17.7607 13.4516 17.4378C13.5149 17.3978 13.5649 17.3778 13.5749 17.3778ZM5.97882 17.6376C5.98549 17.6442 5.56255 18.2537 4.96976 19.0829C4.76331 19.3726 4.52355 19.7123 4.43365 19.8388C4.34372 19.9653 4.2072 20.1652 4.1306 20.2851L3.99068 20.5015L3.84081 20.375C3.6643 20.2284 3.35797 19.9154 3.22144 19.7422C2.93502 19.3859 2.74191 19.0096 2.66532 18.6667C2.62867 18.5068 2.62867 18.4268 2.66194 18.4169C2.71188 18.4036 3.60103 18.1938 4.43362 18.0006C4.89651 17.894 5.43262 17.7675 5.62578 17.7209C5.81895 17.6742 5.97551 17.6376 5.97882 17.6376ZM6.40506 17.8008L6.51159 17.9207C6.99119 18.4568 7.48071 18.8532 8.07347 19.1994C8.18006 19.2594 8.25996 19.3126 8.25326 19.316C8.23001 19.3327 6.19524 20.0552 5.25283 20.3816C4.72337 20.5681 4.28709 20.7179 4.2838 20.7179C4.28048 20.7179 4.25049 20.698 4.21714 20.6747L4.15723 20.6314L4.25379 20.4915C4.56681 20.0386 4.95983 19.5424 5.81566 18.5101L6.40506 17.8008ZM9.06255 19.7023C9.06582 19.699 9.21236 19.7522 9.39217 19.8189C9.82514 19.982 10.1681 20.0852 10.6277 20.2018C11.1938 20.345 12.013 20.4849 12.4959 20.5248C12.5692 20.5315 12.6091 20.5382 12.5958 20.5482C12.5725 20.5615 12.083 20.7247 11.7233 20.8379C11.1505 21.0177 9.40219 21.5338 7.97691 21.9435C7.71382 22.0201 7.48736 22.0833 7.47404 22.0866C7.44078 22.0933 7.33084 22.0633 7.33084 22.05C7.33084 22.0434 7.41076 21.9402 7.50735 21.8269C7.98686 21.2541 8.46311 20.6148 8.8594 20.0087C8.96926 19.8421 9.06255 19.7056 9.06255 19.7023ZM8.47639 19.7189C8.47971 19.7223 8.2433 20.1019 7.83041 20.7546C7.65387 21.031 7.45738 21.344 7.38743 21.4539C7.32083 21.5605 7.22094 21.727 7.16435 21.8202L7.06776 21.9901L7.01782 21.9768C6.8979 21.9434 6.05539 21.647 5.83226 21.5571C5.55584 21.4472 5.26946 21.3141 5.05631 21.2008C4.78994 21.0576 4.45695 20.8445 4.48356 20.8379C4.49021 20.8345 4.94645 20.7113 5.49589 20.5615C6.95452 20.1651 7.76371 19.9354 8.29325 19.7689C8.38984 19.7389 8.47308 19.7156 8.47639 19.7189ZM12.6224 20.6913H12.6257C12.6391 20.7246 12.0996 22.2232 11.9031 22.696C11.8598 22.8026 11.8432 22.8293 11.8199 22.8259C11.7633 22.8226 10.9807 22.7127 10.5044 22.6428C9.67528 22.5162 8.28325 22.2731 7.93362 22.1932L7.8537 22.1766L8.34983 22.0633C9.41551 21.8235 9.92834 21.6937 10.4478 21.5338C11.1039 21.334 11.7533 21.0842 12.4093 20.7779C12.5125 20.7313 12.5991 20.6946 12.6224 20.6913Z" fill="url(#paint0_linear_1002_171)"/>
<path d="M10.1482 1.00017C10.0749 0.990235 8.8927 1.41649 8.13013 1.72615C7.10109 2.1458 6.3019 2.54544 5.80902 2.8917C5.62589 3.02163 5.39607 3.25138 5.35949 3.34127C5.34617 3.37458 5.33948 3.41454 5.33948 3.4545L5.78574 3.87743L6.84803 4.2171L9.37562 4.67001L12.2661 5.16621L12.2961 4.91645C12.2862 4.91645 12.2795 4.91314 12.2696 4.91314L11.8898 4.85317L11.8133 4.71665C11.4203 4.02396 10.9874 3.16478 10.7343 2.58533C10.5379 2.13576 10.3514 1.61631 10.2481 1.24331C10.1915 1.01686 10.1849 1.00355 10.1483 1.00023V1.00016H10.1482V1.00017ZM10.0949 1.17006H10.0983C10.1016 1.17335 10.1149 1.26665 10.1282 1.37648C10.1848 1.84277 10.2881 2.29227 10.4513 2.77849C10.5744 3.14482 10.5744 3.12485 10.4313 3.08153C10.0916 2.98832 8.56974 2.72523 7.46746 2.57205C7.29095 2.54872 7.14109 2.52543 7.14109 2.52211C7.12778 2.5088 7.93697 2.08583 8.29331 1.91937C8.74953 1.70952 10.0017 1.18669 10.0949 1.17006ZM6.88462 2.66195L7.01455 2.70519C7.72049 2.945 9.49542 3.28468 10.4745 3.3646C10.5844 3.3746 10.6777 3.38461 10.681 3.38461C10.6843 3.38793 10.5911 3.43788 10.4712 3.49447C9.99834 3.73091 9.47882 4.02065 9.11915 4.24378C9.01262 4.31035 8.916 4.36366 8.90271 4.36366C8.88939 4.36366 8.81948 4.35034 8.74622 4.34034L8.61301 4.32033L8.28004 3.99396C7.69393 3.42454 7.23435 2.98497 7.05784 2.81843L6.88462 2.66195ZM6.75146 2.76516L7.22101 3.35129C7.4774 3.67431 7.73715 3.99065 7.79382 4.06056C7.85038 4.13054 7.89703 4.18717 7.89371 4.19049C7.88038 4.20047 7.2144 4.07057 6.86136 3.99069C6.49837 3.90741 6.34852 3.86745 6.12541 3.79755L5.94224 3.73758V3.69093C5.94555 3.4678 6.22865 3.1348 6.70817 2.79516L6.75146 2.76516ZM10.741 3.5644C10.7543 3.5644 10.7709 3.59436 10.8109 3.68428C10.9241 3.93402 11.2771 4.60674 11.3636 4.7366C11.3904 4.77993 11.4369 4.78325 10.9674 4.70665C9.83853 4.52345 9.4755 4.46357 9.4755 4.45691C9.4755 4.45359 9.50881 4.43027 9.5521 4.40694C9.90178 4.21383 10.2547 3.96737 10.5678 3.70429C10.6444 3.641 10.7143 3.58107 10.7276 3.57105C10.7309 3.5644 10.7376 3.56109 10.741 3.5644Z" fill="url(#paint1_linear_1002_171)"/>
<path d="M5.38268 3.29465C5.38268 3.29465 5.30946 3.41125 5.37937 3.58443C5.42271 3.69096 5.54923 3.82081 5.6924 3.95404C5.6924 3.95404 7.17431 5.39931 7.35415 5.60581C8.17333 6.55154 8.52967 7.48399 8.56298 8.76944C8.58296 9.59531 8.4264 10.3213 8.03681 11.1638C7.34413 12.6757 5.88218 14.3441 3.62769 16.1957L3.95742 16.0858C4.17054 15.9259 4.46027 15.7561 5.1396 15.3831C6.70807 14.5239 8.47305 13.7347 10.6377 12.9221C13.7546 11.7499 18.8797 10.3778 21.7969 9.93165L22.1 9.885L22.0533 9.81173C21.787 9.39878 21.6037 9.14239 21.3839 8.86932C20.7446 8.07674 19.9687 7.43405 19.0196 6.90121C17.7142 6.17194 16.0257 5.60249 13.8878 5.17956C13.4849 5.0996 12.5991 4.94643 11.8798 4.83654C10.3546 4.60016 9.36883 4.43695 8.28323 4.25046C7.89364 4.18382 7.31081 4.08395 6.92452 4.00071C6.72471 3.95738 6.34178 3.86748 6.04207 3.76425C5.80231 3.67096 5.45594 3.57772 5.38268 3.29465ZM6.2419 4.12722C6.24519 4.12393 6.29846 4.14385 6.36844 4.16718C6.49498 4.21042 6.65814 4.26039 6.85134 4.31371C6.9975 4.35391 7.14403 4.39276 7.29091 4.43025C7.49071 4.48018 7.65719 4.52681 7.66051 4.52681C7.68387 4.55014 8.02022 5.6257 8.13344 6.03865C8.17667 6.19521 8.21004 6.32838 8.20671 6.32838C8.20329 6.33176 8.16671 6.27511 8.12343 6.19852C7.73379 5.5125 7.11772 4.81651 6.40505 4.25703C6.31185 4.19049 6.2419 4.13054 6.2419 4.12722ZM7.88032 4.58012C7.89698 4.58012 7.97025 4.59011 8.06012 4.61008C8.62625 4.73661 9.64196 4.92977 10.2913 5.03967C10.4012 5.05631 10.4878 5.07633 10.4878 5.08295C10.4878 5.08964 10.4478 5.11291 10.3979 5.13958C10.288 5.19617 9.84507 5.45923 9.69858 5.55916C9.3289 5.80558 8.99593 6.07199 8.75614 6.31175C8.65958 6.40834 8.57628 6.48826 8.57628 6.48826C8.57628 6.48826 8.55636 6.43167 8.53964 6.36169C8.41983 5.8988 8.17002 5.21277 7.94358 4.72993C7.90694 4.65337 7.87694 4.58342 7.87694 4.57678C7.87694 4.58343 7.87694 4.58012 7.88032 4.58012ZM10.7642 5.12959C10.7842 5.13622 10.8175 5.24946 10.8841 5.4992C11.0073 5.9821 11.0639 6.52158 11.044 7.02443C11.0373 7.1643 11.0306 7.29415 11.0239 7.31084L11.014 7.34411L10.8408 7.28752C10.4845 7.17429 9.90505 7.00442 9.40888 6.86458C9.12577 6.78798 8.89605 6.71805 8.89605 6.7114C8.89605 6.69139 9.309 6.27847 9.48548 6.12197C9.82176 5.82555 10.7342 5.11957 10.7642 5.12959ZM10.994 5.16285C11.004 5.15291 12.3727 5.3893 12.9954 5.5092C13.4583 5.5991 14.131 5.73898 14.1709 5.75566C14.1909 5.76229 14.121 5.80225 13.8978 5.90214C13.0187 6.29846 12.366 6.65474 11.7167 7.0877C11.5468 7.20092 11.4036 7.29415 11.4003 7.29415C11.397 7.29415 11.3936 7.1976 11.3936 7.08103C11.3936 6.44833 11.2671 5.80893 11.0339 5.26945C11.0106 5.21617 10.9906 5.16623 10.994 5.16285ZM14.5339 5.86222C14.5439 5.8722 14.5006 6.14197 14.4606 6.30178C14.3408 6.79798 14.0178 7.53399 13.6215 8.22662C13.5515 8.34984 13.4883 8.44975 13.4816 8.45306C13.475 8.45638 13.385 8.40641 13.2818 8.34647C12.8955 8.12003 12.4559 7.90691 11.9764 7.70707C11.8432 7.65048 11.7266 7.60383 11.7233 7.59723C11.6999 7.57722 12.7723 6.8679 13.3384 6.52823C13.788 6.25517 14.5206 5.84887 14.5339 5.86222ZM14.787 5.90216C14.817 5.90216 15.4231 6.06868 15.7394 6.16193C16.522 6.39506 17.4211 6.72472 18.0072 6.99112L18.2503 7.10106L18.0805 7.14099C16.6486 7.47064 15.4231 7.85033 14.2408 8.32986C14.1443 8.36982 14.0577 8.40312 14.0511 8.40312C14.0444 8.40312 14.0777 8.32654 14.121 8.23326C14.4773 7.47734 14.7071 6.68809 14.7637 6.01537C14.767 5.95208 14.777 5.90216 14.787 5.90216ZM8.75282 7.28752C8.76279 7.2775 9.22569 7.38743 9.47545 7.4573C9.85508 7.5639 10.6609 7.83361 10.6609 7.85362C10.6609 7.85694 10.5711 7.93354 10.4645 8.02681C10.0283 8.38979 9.60865 8.77271 9.10577 9.25893C8.95591 9.40217 8.8294 9.51871 8.82277 9.51871C8.81607 9.51871 8.8128 9.49869 8.81607 9.47206C8.89266 8.91258 8.87605 8.19329 8.76948 7.46399C8.75945 7.37072 8.74949 7.29083 8.75282 7.28752ZM18.4802 7.29753C18.4867 7.30415 18.267 7.65048 18.1271 7.84694C17.9274 8.13332 17.6342 8.51303 16.9715 9.34555C16.6219 9.78509 16.2289 10.2813 16.0991 10.4478C15.9658 10.6143 15.856 10.7541 15.8526 10.7541C15.8493 10.7541 15.8061 10.6942 15.7594 10.621C15.3864 10.0615 14.9401 9.57197 14.4107 9.1324C14.3108 9.04913 14.2009 8.95921 14.1643 8.93257C14.1276 8.90594 14.0976 8.8793 14.0976 8.87598C14.0976 8.86601 14.6637 8.62286 15.0934 8.44973C15.846 8.14334 16.8716 7.77704 17.6409 7.54058C18.0439 7.41405 18.4735 7.29083 18.4802 7.29753ZM18.7365 7.36409C18.7498 7.36078 18.8298 7.40074 18.9264 7.4573C19.7356 7.92019 20.5281 8.51632 21.1542 9.12907C21.3307 9.30226 21.767 9.75516 21.7603 9.75847C21.7603 9.75847 21.6071 9.77179 21.4273 9.78509C20.0253 9.89169 18.2304 10.188 16.5054 10.6043C16.3888 10.6309 16.2856 10.6542 16.2789 10.6542C16.2723 10.6542 16.4022 10.5244 16.5654 10.3679C17.5777 9.39214 18.0406 8.77607 18.5867 7.6771C18.6633 7.51396 18.7299 7.3741 18.7365 7.36409C18.7332 7.36409 18.7332 7.36409 18.7365 7.36409ZM11.3203 8.1234C11.367 8.13334 11.7999 8.33655 12.1262 8.49968C12.4259 8.64949 12.8755 8.88931 12.8988 8.90926C12.9022 8.91258 12.7423 8.99584 12.5459 9.09243C11.9198 9.40546 11.3836 9.70181 10.8241 10.0415C10.6643 10.1381 10.5311 10.218 10.5278 10.218C10.5145 10.218 10.5178 10.2047 10.6077 10.0415C10.9074 9.4954 11.1472 8.84269 11.2837 8.20661C11.297 8.15667 11.3104 8.1234 11.3203 8.1234ZM10.8874 8.20329C10.8974 8.2133 10.7842 8.62287 10.7143 8.846C10.5777 9.26894 10.3479 9.79842 10.1248 10.198C10.0715 10.2912 9.9916 10.4278 9.94831 10.5044L9.86508 10.6376L9.67859 10.4578C9.46215 10.248 9.28561 10.1181 9.05921 10.0015C8.96924 9.95495 8.89934 9.91494 8.89934 9.90832C8.89934 9.88168 9.46879 9.36552 9.90504 8.99254C10.218 8.72278 10.8774 8.19331 10.8874 8.20329ZM13.5349 9.29227L13.6981 9.39879C14.071 9.64193 14.5106 9.96493 14.847 10.248C15.0367 10.4045 15.403 10.7342 15.4764 10.8141L15.5163 10.8575L15.2466 10.934C13.7214 11.3569 12.5425 11.7332 11.1671 12.2394C11.014 12.296 10.8841 12.3426 10.8741 12.3426C10.8541 12.3426 10.8374 12.3593 11.1805 12.0429C12.0597 11.2337 12.8389 10.3412 13.4183 9.47205L13.5349 9.29227ZM12.8389 9.46543C12.8455 9.47206 12.3893 10.1148 12.1162 10.4778C11.7899 10.9107 11.2104 11.6366 10.8108 12.1095C10.6443 12.306 10.5012 12.4692 10.4945 12.4725C10.4845 12.4758 10.4812 12.4259 10.4812 12.3493C10.4812 11.9463 10.3779 11.5167 10.1981 11.1504C10.1215 10.9973 10.1082 10.9606 10.1249 10.944C10.1881 10.8873 11.1572 10.3345 11.7699 10.0049C12.1828 9.7851 12.8288 9.45876 12.8389 9.46543ZM8.62957 10.4978C8.63958 10.4978 8.71618 10.5377 8.80277 10.5843C9.01589 10.7009 9.20571 10.8308 9.37554 10.9707C9.38218 10.9773 9.29563 11.0473 9.1824 11.1305C8.86603 11.3569 8.3865 11.7199 8.10682 11.943C7.81369 12.1762 7.80377 12.1828 7.83703 12.1329C8.05685 11.7965 8.16669 11.6067 8.28329 11.3636C8.3865 11.1472 8.48972 10.8907 8.56298 10.6676C8.58961 10.571 8.62293 10.4978 8.62957 10.4978ZM9.75187 11.3769C9.76847 11.3736 9.78851 11.4035 9.87838 11.5368C10.0682 11.8198 10.2147 12.1995 10.2514 12.5058L10.258 12.5725L9.80184 12.749C8.9859 13.0653 8.23334 13.3784 7.72376 13.6114C7.58061 13.6781 7.33084 13.7979 7.16769 13.8779C7.00449 13.9611 6.87129 14.0244 6.87129 14.0211C6.87129 14.0177 6.9745 13.9411 7.10104 13.8479C8.09682 13.1253 8.95929 12.3327 9.60532 11.5401C9.67527 11.4568 9.73857 11.3802 9.74517 11.3769L9.75187 11.3769ZM9.2357 11.5035C9.24903 11.5168 8.86941 11.9464 8.60965 12.2094C7.96693 12.8655 7.33087 13.3784 6.5416 13.8779C6.44171 13.9411 6.35181 13.9977 6.3418 14.0044C6.31847 14.0177 6.34843 13.9844 6.69478 13.6081C6.9146 13.3717 7.08108 13.1719 7.2709 12.9255C7.39744 12.7623 7.42076 12.739 7.60395 12.6091C8.09349 12.2561 9.22237 11.4901 9.2357 11.5035Z" fill="url(#paint2_radial_1002_171)"/>
<defs>
<linearGradient id="paint0_linear_1002_171" x1="5.31464" y1="20.8238" x2="6.90777" y2="19.8824" gradientUnits="userSpaceOnUse">
<stop stop-color="#909CA9"/>
<stop offset="1" stop-color="#EDEDEE"/>
</linearGradient>
<linearGradient id="paint1_linear_1002_171" x1="5.35116" y1="3.07668" x2="6.63303" y2="3.07668" gradientUnits="userSpaceOnUse">
<stop stop-color="#939FAB"/>
<stop offset="1" stop-color="#DCDEE1"/>
</linearGradient>
<radialGradient id="paint2_radial_1002_171" cx="0" cy="0" r="1" gradientUnits="userSpaceOnUse" gradientTransform="translate(11.8194 8.95574) rotate(-171.457) scale(1.65269 3.3062)">
<stop stop-color="#EE352C"/>
<stop offset="1" stop-color="#A91D22"/>
</radialGradient>
</defs>
</svg>
