<svg width="24" height="24" viewBox="0 0 24 24" fill="none" xmlns="http://www.w3.org/2000/svg">
<path opacity="0.976" fill-rule="evenodd" clip-rule="evenodd" d="M11.8489 2.01673C12.4291 1.95888 12.9822 2.05105 13.5081 2.29326C15.9836 3.66273 18.4593 5.03221 20.9348 6.40168C21.3461 6.68065 21.5962 7.06252 21.6854 7.5473C21.7381 10.5233 21.7381 13.4992 21.6854 16.4752C21.5386 17.0439 21.2094 17.4785 20.6978 17.7789C18.3412 19.0492 15.9973 20.3397 13.6661 21.6503C12.731 22.1416 11.8092 22.1152 10.9008 21.5712C8.62227 20.287 6.33104 19.0229 4.02711 17.7789C3.49255 17.5342 3.16336 17.126 3.0395 16.5542C2.98683 13.5256 2.98683 10.4969 3.0395 7.46829C3.0951 7.14236 3.23995 6.86583 3.47405 6.63871C3.79008 6.42802 4.10611 6.21733 4.42215 6.00664C6.89503 4.65199 9.37062 3.32203 11.8489 2.01673ZM12.0859 5.80912C12.5202 5.78885 12.9153 5.90736 13.2711 6.16466C14.7985 7.00742 16.3261 7.85016 17.8535 8.69292C18.0019 8.81483 18.1204 8.95965 18.2091 9.12746C18.2866 11.1095 18.2602 13.0847 18.1301 15.0531C17.6439 15.4332 17.1173 15.7492 16.5499 16.0012C16.4889 15.9897 16.4362 15.9634 16.3919 15.9222C16.3656 14.263 16.3392 12.6038 16.3129 10.9447C16.1765 10.8596 16.0317 10.8464 15.8783 10.9051C15.18 11.3203 14.4689 11.7153 13.7451 12.0903C13.5967 12.2122 13.4782 12.357 13.3896 12.5248C13.3633 14.2103 13.3369 15.8959 13.3106 17.5813C13.289 17.7258 13.2231 17.8444 13.113 17.9369C12.4556 18.366 11.8894 18.2738 11.4144 17.6603C11.4127 15.8888 11.36 14.1243 11.2563 12.3668C11.1641 12.2746 11.072 12.1825 10.9798 12.0903C9.49501 11.3029 8.02019 10.4997 6.55537 9.68052C6.39818 9.27 6.50352 8.94077 6.8714 8.69292C7.14985 8.49445 7.45271 8.34955 7.77999 8.25838C9.2145 8.95594 10.6235 9.70652 12.0069 10.5101C12.3041 10.5684 12.5938 10.5421 12.876 10.4311C13.4028 10.1414 13.9294 9.85173 14.4562 9.56201C14.6918 9.3889 14.7181 9.20458 14.5352 9.00895C13.2124 8.31479 11.9088 7.59053 10.6243 6.83623C10.5842 6.71803 10.6237 6.62585 10.7428 6.5597C11.1954 6.30733 11.6432 6.05713 12.0859 5.80912ZM6.55537 10.8656C7.07604 11.0733 7.57643 11.3235 8.05652 11.6162C8.17503 11.682 8.26721 11.7742 8.33305 11.8927C8.39821 13.2549 8.38504 14.6112 8.29354 15.9617C8.1882 16.0144 8.08285 16.0144 7.97751 15.9617C7.60881 15.751 7.24011 15.5403 6.8714 15.3296C6.723 15.2077 6.60449 15.0629 6.51586 14.8951C6.45124 13.5461 6.46441 12.2029 6.55537 10.8656Z" fill="#283238"/>
</svg>
