<svg width="24" height="24" viewBox="0 0 24 24" fill="none" xmlns="http://www.w3.org/2000/svg">
<path d="M12 22C17.5228 22 22 17.5228 22 12C22 6.47715 17.5228 2 12 2C6.47715 2 2 6.47715 2 12C2 17.5228 6.47715 22 12 22Z" fill="#13AA52"/>
<path d="M14.6731 10.7781C14.0415 7.99043 12.5487 7.07383 12.388 6.72363C12.2122 6.47656 12.0341 6.03711 12.0341 6.03711C12.0311 6.02969 12.0264 6.0166 12.021 6.00391C12.0028 6.25098 11.9934 6.34629 11.7598 6.59551C11.3981 6.87832 9.54226 8.43555 9.39128 11.6027C9.25046 14.5566 11.5251 16.3168 11.8327 16.5412L11.8676 16.566V16.5639C11.8696 16.5787 11.9653 17.267 12.0325 17.9963H12.2735C12.3301 17.4808 12.4148 16.9687 12.5274 16.4625L12.5469 16.4498C12.6845 16.3511 12.8157 16.2438 12.9397 16.1285L12.9538 16.1158C13.6077 15.5117 14.7833 14.1145 14.7717 11.8867C14.7693 11.5151 14.7363 11.1443 14.6731 10.7781ZM12.0069 14.8734C12.0069 14.8734 12.0069 10.7305 12.1436 10.7313C12.2503 10.7313 12.3884 16.0752 12.3884 16.0752C12.1985 16.0523 12.0069 15.1957 12.0069 14.8734Z" fill="white"/>
</svg>
