<svg width="24" height="24" viewBox="0 0 24 24" fill="none" xmlns="http://www.w3.org/2000/svg">
<g clip-path="url(#clip0_1001_83)">
<path d="M2 2H22V22H2V2Z" fill="#FFBE00"/>
<path d="M12.0001 18.1652C17.3182 18.1652 21.6294 15.528 21.6294 12.2749C21.6294 9.02172 17.3182 6.38453 12.0001 6.38453C6.68193 6.38453 2.37073 9.02172 2.37073 12.2749C2.37073 15.528 6.68193 18.1652 12.0001 18.1652Z" fill="#005C87"/>
<path d="M18.4041 9.96L17.5221 15H16.2551L17.1441 9.96H18.4041Z" fill="white"/>
<path d="M14.1862 11.731L15.3692 9.96H16.6292L14.4732 13.061L14.1302 15H12.8632L13.2062 13.061L12.1422 9.96H13.4792L14.0252 11.731H14.1862Z" fill="white"/>
<path d="M7.96013 9.96L8.70913 12.375L10.3191 9.96H11.6421L10.7531 15H9.48613L9.99013 12.158L8.91213 13.852H7.99513L7.51913 12.158L7.01513 15H5.75513L6.64413 9.96H7.96013Z" fill="white"/>
</g>
<defs>
<clipPath id="clip0_1001_83">
<rect width="20" height="20" fill="white" transform="translate(2 2)"/>
</clipPath>
</defs>
</svg>
