<svg width="24" height="24" viewBox="0 0 24 24" fill="none" xmlns="http://www.w3.org/2000/svg">
<path d="M2 2H22V22H2V2Z" fill="#FFBE00"/>
<path d="M12.0001 18.1652C17.3182 18.1652 21.6294 15.528 21.6294 12.2748C21.6294 9.02171 17.3182 6.38452 12.0001 6.38452C6.68193 6.38452 2.37073 9.02171 2.37073 12.2748C2.37073 15.528 6.68193 18.1652 12.0001 18.1652Z" fill="#005C87"/>
<path d="M15.4212 9L15.2795 13.5417H15.4712L16.9212 9H18.5545L16.4962 15H13.9962L14.2212 11.1583L13.1045 15H10.6045L10.6628 9H12.2962L12.1462 13.5417H12.3378L13.7962 9H15.4212Z" fill="white"/>
<path d="M9.8 15H6L7.05833 9H8.55833L7.73333 13.7H10.0333L9.8 15Z" fill="white"/>
</svg>
