<svg width="24" height="24" viewBox="0 0 24 24" fill="none" xmlns="http://www.w3.org/2000/svg">
<path d="M2 2H22V22H2V2Z" fill="#FFBE00"/>
<path d="M12.0001 18.1652C17.3182 18.1652 21.6294 15.528 21.6294 12.2748C21.6294 9.02171 17.3182 6.38452 12.0001 6.38452C6.68193 6.38452 2.37073 9.02171 2.37073 12.2748C2.37073 15.528 6.68193 18.1652 12.0001 18.1652Z" fill="#005C87"/>
<path d="M14.3926 15L14.4433 13.6917H13.0305L12.6159 15H11L13.1743 9H15.9662L16 15H14.3926ZM14.0457 10.4583L13.3773 12.575H14.4856L14.5787 10.4583H14.0457Z" fill="white"/>
<path d="M10.7686 15H7L8.04959 9H9.53719L8.71901 13.7H11L10.7686 15Z" fill="white"/>
</svg>
