<svg width="24" height="24" viewBox="0 0 24 24" fill="none" xmlns="http://www.w3.org/2000/svg">
<g clip-path="url(#clip0_1003_5)">
<path d="M2 2H22V22H2V2Z" fill="#FFBE00"/>
<path d="M12.0001 18.1652C17.3182 18.1652 21.6294 15.528 21.6294 12.2749C21.6294 9.02172 17.3182 6.38453 12.0001 6.38453C6.68193 6.38453 2.37073 9.02172 2.37073 12.2749C2.37073 15.528 6.68193 18.1652 12.0001 18.1652Z" fill="#005C87"/>
<path d="M13.849 15.098C13.1864 15.098 12.729 14.944 12.477 14.636C12.3044 14.4213 12.218 14.1273 12.218 13.754C12.218 13.5813 12.2367 13.3923 12.274 13.187L12.519 11.787C12.7384 10.5363 13.5037 9.911 14.815 9.911C15.3564 9.911 15.767 10.0277 16.047 10.261C16.327 10.4897 16.467 10.8047 16.467 11.206C16.467 11.3693 16.4437 11.535 16.397 11.703C16.355 11.871 16.313 11.997 16.271 12.081L16.201 12.207H14.962C15.0834 12.039 15.144 11.8453 15.144 11.626C15.144 11.206 14.969 10.996 14.619 10.996C14.1477 10.996 13.8654 11.269 13.772 11.815L13.534 13.159C13.5107 13.285 13.499 13.4087 13.499 13.53C13.499 13.852 13.688 14.013 14.066 14.013C14.4487 14.013 14.6937 13.8217 14.801 13.439H14.227L14.367 12.662H16.222L16.11 13.264L16.075 13.467C15.879 14.5543 15.137 15.098 13.849 15.098Z" fill="white"/>
<path d="M9.99417 13.467H9.16117L8.88817 15H7.62817L8.51717 9.96H10.6522C11.1795 9.96 11.5552 10.0813 11.7792 10.324C11.9425 10.5107 12.0242 10.7487 12.0242 11.038C12.0242 11.136 12.0148 11.2387 11.9962 11.346L11.8562 12.137C11.7862 12.5243 11.5808 12.844 11.2402 13.096C10.8995 13.3433 10.4842 13.467 9.99417 13.467ZM10.2112 11.052H9.58117L9.35017 12.375H9.97317C10.3558 12.375 10.5775 12.2047 10.6382 11.864L10.6872 11.577C10.6965 11.535 10.7012 11.479 10.7012 11.409C10.7012 11.339 10.6662 11.262 10.5962 11.178C10.5262 11.094 10.3978 11.052 10.2112 11.052Z" fill="white"/>
</g>
<defs>
<clipPath id="clip0_1003_5">
<rect width="20" height="20" fill="white" transform="translate(2 2)"/>
</clipPath>
</defs>
</svg>
