<svg width="24" height="24" viewBox="0 0 24 24" fill="none" xmlns="http://www.w3.org/2000/svg">
<g clip-path="url(#clip0_1004_76)">
<path d="M2 2H22V22H2V2Z" fill="#FFBE00"/>
<path d="M12.0001 18.1652C17.3182 18.1652 21.6294 15.528 21.6294 12.2749C21.6294 9.02172 17.3182 6.38453 12.0001 6.38453C6.68193 6.38453 2.37073 9.02172 2.37073 12.2749C2.37073 15.528 6.68193 18.1652 12.0001 18.1652Z" fill="#005C87"/>
<path d="M6.76386 15.098C6.09653 15.098 5.63453 14.9533 5.37786 14.664C5.20053 14.4587 5.11186 14.1717 5.11186 13.803C5.11186 13.6443 5.1282 13.474 5.16086 13.292L5.44786 11.682C5.65786 10.5013 6.4162 9.911 7.72286 9.911C8.2642 9.911 8.67486 10.0277 8.95486 10.261C9.23486 10.4897 9.37486 10.8047 9.37486 11.206C9.37486 11.3927 9.34686 11.5793 9.29086 11.766C9.23953 11.948 9.1882 12.0833 9.13686 12.172L9.05986 12.312H7.82086C7.97486 12.1347 8.05186 11.8827 8.05186 11.556C8.05186 11.3833 8.00753 11.248 7.91886 11.15C7.8302 11.0473 7.69953 10.996 7.52686 10.996C7.05553 10.996 6.77553 11.2573 6.68686 11.78L6.44186 13.194C6.41853 13.3153 6.40686 13.4343 6.40686 13.551C6.40686 13.859 6.5912 14.013 6.95986 14.013C7.4032 14.013 7.6692 13.7633 7.75786 13.264H9.01786L8.98286 13.467C8.7962 14.5543 8.05653 15.098 6.76386 15.098ZM12.7171 15H9.52509L10.4141 9.96H11.6741L10.9811 13.908H12.9131L12.7171 15ZM15.483 9.96L16.232 12.375L17.842 9.96H19.165L18.276 15H17.009L17.513 12.158L16.435 13.852H15.518L15.042 12.158L14.538 15H13.278L14.167 9.96H15.483Z" fill="white"/>
</g>
<defs>
<clipPath id="clip0_1004_76">
<rect width="20" height="20" fill="white" transform="translate(2 2)"/>
</clipPath>
</defs>
</svg>
