<svg width="24" height="24" viewBox="0 0 24 24" fill="none" xmlns="http://www.w3.org/2000/svg">
<g clip-path="url(#clip0_1004_101)">
<path d="M2 2H22V22H2V2Z" fill="#FFBE00"/>
<path d="M12.0001 18.1652C17.3182 18.1652 21.6294 15.528 21.6294 12.2749C21.6294 9.02172 17.3182 6.38453 12.0001 6.38453C6.68193 6.38453 2.37073 9.02172 2.37073 12.2749C2.37073 15.528 6.68193 18.1652 12.0001 18.1652Z" fill="#005C87"/>
<path d="M10.1523 9.96L8.5493 12.501L9.2633 15H7.9333L7.4083 13.152H6.8553L6.5263 15H5.2663L6.1553 9.96H7.4153L7.0443 12.06H7.4923L8.8223 9.96H10.1523ZM12.7791 9.96C13.3111 9.96 13.6891 10.0767 13.9131 10.31C14.0811 10.4873 14.1651 10.7113 14.1651 10.982C14.1651 11.0753 14.1557 11.1733 14.1371 11.276L14.0741 11.612C14.0227 11.878 13.9224 12.0857 13.7731 12.235C13.6284 12.3843 13.5001 12.459 13.3881 12.459L13.3811 12.515C13.5117 12.515 13.6447 12.5873 13.7801 12.732C13.9154 12.8767 13.9831 13.047 13.9831 13.243C13.9831 13.3223 13.9737 13.4063 13.9551 13.495L13.9131 13.712C13.8384 14.1133 13.6587 14.4283 13.3741 14.657C13.0941 14.8857 12.7021 15 12.1981 15H9.86005L10.7491 9.96H12.7791ZM12.1491 12.942H11.4841L11.3161 13.908H11.9811C11.9904 13.908 11.9997 13.908 12.0091 13.908C12.2237 13.908 12.3941 13.859 12.5201 13.761C12.6461 13.6583 12.7091 13.5347 12.7091 13.39C12.7091 13.0913 12.5224 12.942 12.1491 12.942ZM12.3381 11.052H11.8131L11.6311 12.095H12.1491C12.5971 12.095 12.8211 11.899 12.8211 11.507C12.8211 11.3717 12.7791 11.262 12.6951 11.178C12.6157 11.094 12.4967 11.052 12.3381 11.052ZM15.7976 13.565C15.7976 13.887 16.0286 14.048 16.4906 14.048C16.9573 14.048 17.1906 13.9033 17.1906 13.614C17.1906 13.46 17.1113 13.334 16.9526 13.236C16.794 13.138 16.6003 13.0563 16.3716 12.991C16.1476 12.9257 15.9213 12.851 15.6926 12.767C15.4686 12.6783 15.2773 12.543 15.1186 12.361C14.96 12.1743 14.8806 11.9433 14.8806 11.668C14.8806 10.4967 15.6343 9.911 17.1416 9.911C17.6923 9.911 18.1076 10.016 18.3876 10.226C18.6723 10.4313 18.8146 10.7183 18.8146 11.087C18.8146 11.2223 18.796 11.353 18.7586 11.479C18.726 11.6003 18.691 11.6867 18.6536 11.738L18.5976 11.822H17.3586C17.4613 11.7147 17.5126 11.5793 17.5126 11.416C17.5126 11.1127 17.3143 10.961 16.9176 10.961C16.4183 10.961 16.1686 11.1197 16.1686 11.437C16.1686 11.5957 16.248 11.7217 16.4066 11.815C16.5653 11.9083 16.7566 11.983 16.9806 12.039C17.2093 12.0903 17.438 12.1557 17.6666 12.235C17.8953 12.3143 18.089 12.4473 18.2476 12.634C18.4063 12.816 18.4856 13.054 18.4856 13.348C18.4856 13.9407 18.3083 14.3817 17.9536 14.671C17.599 14.9557 17.053 15.098 16.3156 15.098C15.5783 15.098 15.0743 14.9673 14.8036 14.706C14.603 14.51 14.5026 14.2393 14.5026 13.894C14.5026 13.7633 14.5166 13.621 14.5446 13.467L14.5656 13.355H15.8256L15.8116 13.439C15.8023 13.4857 15.7976 13.5277 15.7976 13.565Z" fill="white"/>
</g>
<defs>
<clipPath id="clip0_1004_101">
<rect width="20" height="20" fill="white" transform="translate(2 2)"/>
</clipPath>
</defs>
</svg>
