<svg width="24" height="24" viewBox="0 0 24 24" fill="none" xmlns="http://www.w3.org/2000/svg">
<g clip-path="url(#clip0_1001_70)">
<path d="M2 2H22V22H2V2Z" fill="#FFBE00"/>
<path d="M12.0001 18.1652C17.3182 18.1652 21.6294 15.528 21.6294 12.2749C21.6294 9.02172 17.3182 6.38453 12.0001 6.38453C6.68193 6.38453 2.37073 9.02172 2.37073 12.2749C2.37073 15.528 6.68193 18.1652 12.0001 18.1652Z" fill="#005C87"/>
<path d="M15.5215 9.96L15.4025 13.775H15.5635L16.7815 9.96H18.1535L16.4245 15H14.3245L14.5135 11.773L13.5755 15H11.4755L11.5245 9.96H12.8965L12.7705 13.775H12.9315L14.1565 9.96H15.5215Z" fill="white"/>
<path d="M9.16467 9.96C9.77601 9.96 10.2123 10.114 10.4737 10.422C10.665 10.6553 10.7607 10.947 10.7607 11.297C10.7607 11.423 10.749 11.556 10.7257 11.696L10.4527 13.257C10.3593 13.7843 10.1307 14.2067 9.76667 14.524C9.40267 14.8413 8.93134 15 8.35267 15H6.31567L7.20467 9.96H9.16467ZM8.72367 11.052H8.26867L7.77167 13.908H8.43667C8.65601 13.908 8.82634 13.8497 8.94767 13.733C9.07367 13.6117 9.16001 13.4157 9.20667 13.145L9.40967 11.997C9.42834 11.8943 9.43767 11.801 9.43767 11.717C9.43767 11.2737 9.19967 11.052 8.72367 11.052Z" fill="white"/>
</g>
<defs>
<clipPath id="clip0_1001_70">
<rect width="20" height="20" fill="white" transform="translate(2 2)"/>
</clipPath>
</defs>
</svg>
