<svg width="24" height="24" viewBox="0 0 24 24" fill="none" xmlns="http://www.w3.org/2000/svg">
<path d="M2 2H22V22H2V2Z" fill="#FFBE00"/>
<path d="M12.0001 18.1652C17.3182 18.1652 21.6294 15.528 21.6294 12.2748C21.6294 9.02171 17.3182 6.38452 12.0001 6.38452C6.68193 6.38452 2.37073 9.02171 2.37073 12.2748C2.37073 15.528 6.68193 18.1652 12.0001 18.1652Z" fill="#005C87"/>
<path d="M17.1568 14.9879L17.1979 13.9107H16.0522L15.716 14.9879H14.4055L16.1688 10.048H18.4329L18.4604 14.9879H17.1568ZM16.8755 11.2487L16.3335 12.9914H17.2322L17.3077 11.2487H16.8755Z" fill="white"/>
<path d="M12.0615 15.084C11.4074 15.084 10.9545 14.9422 10.703 14.6586C10.5292 14.4574 10.4423 14.1761 10.4423 13.8147C10.4423 13.6592 10.4583 13.4922 10.4903 13.3139L10.7716 11.7358C10.9774 10.5786 11.7207 10 13.0014 10C13.532 10 13.9345 10.1144 14.209 10.3431C14.4834 10.5672 14.6206 10.8759 14.6206 11.2693C14.6206 11.4522 14.5932 11.6352 14.5383 11.8182C14.488 11.9966 14.4377 12.1292 14.3873 12.2161L14.3119 12.3533H13.0975C13.2484 12.1795 13.3239 11.9325 13.3239 11.6123C13.3239 11.4431 13.2804 11.3105 13.1935 11.2144C13.1066 11.1138 12.9785 11.0635 12.8093 11.0635C12.3473 11.0635 12.0729 11.3196 11.986 11.8319L11.7459 13.2178C11.723 13.3367 11.7115 13.4534 11.7115 13.5677C11.7115 13.8696 11.8922 14.0205 12.2536 14.0205C12.6881 14.0205 12.9488 13.7758 13.0357 13.2864H14.2707L14.2364 13.4854C14.0534 14.5511 13.3285 15.084 12.0615 15.084Z" fill="white"/>
<path d="M7.6192 15.084C6.96511 15.084 6.51229 14.9422 6.26072 14.6586C6.08691 14.4574 6 14.1761 6 13.8147C6 13.6592 6.01601 13.4922 6.04803 13.3139L6.32933 11.7358C6.53516 10.5786 7.27843 10 8.55915 10C9.08974 10 9.49225 10.1144 9.76669 10.3431C10.0411 10.5672 10.1783 10.8759 10.1783 11.2693C10.1783 11.4522 10.1509 11.6352 10.096 11.8182C10.0457 11.9966 9.99539 12.1292 9.94507 12.2161L9.8696 12.3533H8.65521C8.80615 12.1795 8.88162 11.9325 8.88162 11.6123C8.88162 11.4431 8.83817 11.3105 8.75126 11.2144C8.66435 11.1138 8.53628 11.0635 8.36704 11.0635C7.90507 11.0635 7.63063 11.3196 7.54372 11.8319L7.30359 13.2178C7.28072 13.3367 7.26928 13.4534 7.26928 13.5677C7.26928 13.8696 7.44996 14.0205 7.8113 14.0205C8.24583 14.0205 8.50655 13.7758 8.59346 13.2864H9.82844L9.79413 13.4854C9.61117 14.5511 8.88619 15.084 7.6192 15.084Z" fill="white"/>
</svg>
