<svg width="24" height="24" viewBox="0 0 24 24" fill="none" xmlns="http://www.w3.org/2000/svg">
<g clip-path="url(#clip0_1002_149)">
<path d="M2 2H22V22H2V2Z" fill="#FFBE00"/>
<path d="M12.0001 18.1652C17.3182 18.1652 21.6294 15.528 21.6294 12.2749C21.6294 9.02172 17.3182 6.38453 12.0001 6.38453C6.68193 6.38453 2.37073 9.02172 2.37073 12.2749C2.37073 15.528 6.68193 18.1652 12.0001 18.1652Z" fill="#005C87"/>
<path d="M16.2016 9.96L16.0826 13.775H16.2436L17.4616 9.96H18.8336L17.1046 15H15.0046L15.1936 11.773L14.2556 15H12.1556L12.2046 9.96H13.5766L13.4506 13.775H13.6116L14.8366 9.96H16.2016Z" fill="white"/>
<path d="M7.8405 9.96L8.5895 12.375L10.1995 9.96H11.5225L10.6335 15H9.3665L9.8705 12.158L8.7925 13.852H7.8755L7.3995 12.158L6.8955 15H5.6355L6.5245 9.96H7.8405Z" fill="white"/>
</g>
<defs>
<clipPath id="clip0_1002_149">
<rect width="20" height="20" fill="white" transform="translate(2 2)"/>
</clipPath>
</defs>
</svg>
