<svg width="24" height="24" viewBox="0 0 24 24" fill="none" xmlns="http://www.w3.org/2000/svg">
<g clip-path="url(#clip0_1002_179)">
<path d="M2 2H22V22H2V2Z" fill="#FFBE00"/>
<path d="M12.0001 18.1652C17.3182 18.1652 21.6294 15.528 21.6294 12.2749C21.6294 9.02172 17.3182 6.38453 12.0001 6.38453C6.68193 6.38453 2.37073 9.02172 2.37073 12.2749C2.37073 15.528 6.68193 18.1652 12.0001 18.1652Z" fill="#005C87"/>
<path d="M14.8023 9C15.3343 9 15.7123 9.11667 15.9363 9.35C16.1043 9.52733 16.1883 9.75133 16.1883 10.022C16.1883 10.1153 16.179 10.2133 16.1603 10.316L16.0623 10.862C16.0063 11.1653 15.9083 11.4103 15.7683 11.597C15.633 11.7837 15.4813 11.9167 15.3133 11.996L15.9503 14.04H14.5363L13.9483 12.157H13.5143L13.2273 14.04H11.8833L12.7723 9H14.8023ZM14.3613 10.092H13.8363L13.6543 11.31H14.1443C14.3916 11.31 14.569 11.2517 14.6763 11.135C14.7836 11.0137 14.8373 10.855 14.8373 10.659C14.8373 10.281 14.6786 10.092 14.3613 10.092Z" fill="white"/>
<path d="M9.456 14.138C8.48533 14.138 8 13.802 8 13.13C8 13.0367 8.00933 12.9363 8.028 12.829L8.175 11.961C8.25433 11.513 8.45967 11.17 8.791 10.932C9.127 10.6893 9.57033 10.568 10.121 10.568C11.059 10.568 11.528 10.9227 11.528 11.632C11.528 11.7347 11.5187 11.8467 11.5 11.968L11.416 12.465H9.281L9.253 12.626C9.24367 12.682 9.239 12.7333 9.239 12.78C9.239 13.0367 9.39067 13.165 9.694 13.165C9.806 13.165 9.90167 13.13 9.981 13.06C10.0603 12.99 10.107 12.9083 10.121 12.815L11.283 12.829C11.129 13.7017 10.52 14.138 9.456 14.138ZM10.296 12.038C10.3147 11.9587 10.324 11.8863 10.324 11.821C10.324 11.751 10.2937 11.681 10.233 11.611C10.1723 11.541 10.0743 11.506 9.939 11.506C9.80833 11.506 9.687 11.5503 9.575 11.639C9.46767 11.7277 9.393 11.8607 9.351 12.038H10.296Z" fill="white"/>
</g>
<defs>
<clipPath id="clip0_1002_179">
<rect width="20" height="20" fill="white" transform="translate(2 2)"/>
</clipPath>
</defs>
</svg>
