<svg width="241" height="240" viewBox="0 0 241 240" fill="none" xmlns="http://www.w3.org/2000/svg">
<path d="M20 20H220V220H20V20Z" fill="#FFBE00"/>
<path d="M120.001 181.652C173.182 181.652 216.294 155.28 216.294 122.749C216.294 90.2172 173.182 63.8453 120.001 63.8453C66.8193 63.8453 23.7073 90.2172 23.7073 122.749C23.7073 155.28 66.8193 181.652 120.001 181.652Z" fill="#005C87"/>
<path d="M65.2598 140H40L46.3904 100H71.6502L70.2413 108.667H54.0388L52.8815 116.167H66.2662L64.8572 124.833H51.4726L50.4662 131.333H66.6687L65.2598 140Z" fill="white"/>
<path d="M92.0386 100C95.8627 100 98.5799 100.926 100.19 102.778C101.398 104.185 102.002 105.963 102.002 108.111C102.002 108.852 101.934 109.63 101.8 110.444L101.096 114.778C100.693 117.185 99.9888 119.13 98.9825 120.611C98.0097 122.093 96.9194 123.148 95.7118 123.778L100.291 140H90.1265L85.8997 125.056H82.78L80.7169 140H71.0558L77.4463 100H92.0386ZM88.8685 108.667H85.0946L83.7864 118.333H87.3086C89.0865 118.333 90.3613 117.87 91.1328 116.944C91.9044 115.981 92.2901 114.722 92.2901 113.167C92.2901 110.167 91.1496 108.667 88.8685 108.667Z" fill="white"/>
<path d="M121.991 140L122.292 131.278H113.889L111.424 140H101.813L114.745 100H131.35L131.551 140H121.991ZM119.927 109.722L115.952 123.833H122.544L123.098 109.722H119.927Z" fill="white"/>
<path d="M153.32 127.833H147.332L145.37 140H136.312L142.703 100H158.05C161.841 100 164.541 100.963 166.151 102.889C167.325 104.37 167.912 106.259 167.912 108.556C167.912 109.333 167.845 110.148 167.711 111L166.705 117.278C166.201 120.352 164.725 122.889 162.277 124.889C159.828 126.852 156.842 127.833 153.32 127.833ZM154.88 108.667H150.351L148.691 119.167H153.169C155.92 119.167 157.513 117.815 157.949 115.111L158.301 112.833C158.369 112.5 158.402 112.056 158.402 111.5C158.402 110.944 158.151 110.333 157.647 109.667C157.144 109 156.222 108.667 154.88 108.667Z" fill="white"/>
<path d="M185.408 127.833H179.42L177.457 140H168.4L174.791 100H190.138C193.928 100 196.629 100.963 198.239 102.889C199.413 104.37 200 106.259 200 108.556C200 109.333 199.933 110.148 199.799 111L198.792 117.278C198.289 120.352 196.813 122.889 194.364 124.889C191.916 126.852 188.93 127.833 185.408 127.833ZM186.968 108.667H182.439L180.778 119.167H185.257C188.007 119.167 189.601 117.815 190.037 115.111L190.389 112.833C190.456 112.5 190.49 112.056 190.49 111.5C190.49 110.944 190.238 110.333 189.735 109.667C189.232 109 188.309 108.667 186.968 108.667Z" fill="white"/>
</svg>
