<svg width="24" height="24" viewBox="0 0 24 24" fill="none" xmlns="http://www.w3.org/2000/svg">
<path d="M2 2H22V22H2V2Z" fill="#FFBE00"/>
<path d="M12.0001 18.1652C17.3182 18.1652 21.6294 15.528 21.6294 12.2748C21.6294 9.02171 17.3182 6.38452 12.0001 6.38452C6.68193 6.38452 2.37073 9.02171 2.37073 12.2748C2.37073 15.528 6.68193 18.1652 12.0001 18.1652Z" fill="#005C87"/>
<path d="M18.1856 14.1112L18.2196 13.2234H17.2752L16.9981 14.1112H15.918L17.3713 10.0396H19.2375L19.2601 14.1112H18.1856ZM17.9538 11.0292L17.507 12.4656H18.2478L18.3101 11.0292H17.9538Z" fill="white"/>
<path d="M16.5929 10.9218H15.2017L14.6419 14.1112H13.6183L14.1782 10.9218H12.7814L12.9397 10.0396H16.7512L16.5929 10.9218Z" fill="white"/>
<path d="M11.033 10C11.9415 10 12.3958 10.3713 12.3958 11.114C12.3958 11.2385 12.3826 11.3723 12.3562 11.5156L12.1583 12.6466C12.0678 13.1706 11.8718 13.5589 11.5702 13.8115C11.2686 14.0641 10.8445 14.1904 10.2978 14.1904C9.75115 14.1904 9.37037 14.0641 9.15548 13.8115C9.00845 13.6381 8.93494 13.3987 8.93494 13.0933C8.93494 12.9576 8.95002 12.8087 8.98018 12.6466L9.1781 11.5156C9.35529 10.5052 9.97358 10 11.033 10ZM10.4505 13.3139C10.639 13.3139 10.7898 13.2648 10.9029 13.1668C11.016 13.0688 11.0952 12.8878 11.1404 12.6239L11.3327 11.5382C11.344 11.4628 11.3496 11.3949 11.3496 11.3346C11.3496 11.0292 11.1951 10.8765 10.8859 10.8765C10.4976 10.8841 10.2658 11.1046 10.1904 11.5382L9.99808 12.6239C9.983 12.7182 9.97546 12.8162 9.97546 12.918C9.97546 13.1819 10.1338 13.3139 10.4505 13.3139Z" fill="white"/>
<path d="M7.26767 14.1112L7.3016 13.2234H6.35721L6.08011 14.1112H5L6.45335 10.0396H8.31951L8.34213 14.1112H7.26767ZM7.03581 11.0292L6.58907 12.4656H7.32988L7.39208 11.0292H7.03581Z" fill="white"/>
</svg>
