<svg width="241" height="240" viewBox="0 0 241 240" fill="none" xmlns="http://www.w3.org/2000/svg">
<path d="M20 20H220V220H20V20Z" fill="#FFBE00"/>
<path d="M120.001 181.652C173.182 181.652 216.294 155.28 216.294 122.749C216.294 90.2172 173.182 63.8453 120.001 63.8453C66.8193 63.8453 23.7073 90.2172 23.7073 122.749C23.7073 155.28 66.8193 181.652 120.001 181.652Z" fill="#005C87"/>
<path d="M65.8024 150L66.1885 139.097H55.4429L52.2899 150H40L56.5367 100H77.7707L78.028 150H65.8024ZM63.1643 112.153L58.081 129.792H66.5102L67.218 112.153H63.1643Z" fill="white"/>
<path d="M105.865 134.792H98.2083L95.6989 150H84.1167L92.2886 100H111.914C116.761 100 120.214 101.204 122.273 103.611C123.775 105.463 124.526 107.824 124.526 110.694C124.526 111.667 124.44 112.685 124.268 113.75L122.981 121.597C122.338 125.44 120.45 128.611 117.319 131.111C114.187 133.565 110.37 134.792 105.865 134.792ZM107.86 110.833H102.069L99.9456 123.958H105.672C109.19 123.958 111.228 122.269 111.785 118.889L112.236 116.042C112.321 115.625 112.364 115.069 112.364 114.375C112.364 113.681 112.043 112.917 111.399 112.083C110.756 111.25 109.576 110.833 107.86 110.833Z" fill="white"/>
<path d="M144.903 100L136.796 150H125.149L133.321 100H144.903Z" fill="white"/>
<path d="M166.154 100L173.039 123.958L187.839 100H200L191.828 150H180.182L184.815 121.806L174.905 138.611H166.476L162.101 121.806L157.468 150H145.886L154.057 100H166.154Z" fill="white"/>
</svg>
