<svg width="24" height="24" viewBox="0 0 24 24" fill="none" xmlns="http://www.w3.org/2000/svg">
<path d="M2 2H22V22H2V2Z" fill="#FFBE00"/>
<path d="M12.0001 18.1652C17.3182 18.1652 21.6294 15.528 21.6294 12.2748C21.6294 9.02171 17.3182 6.38452 12.0001 6.38452C6.68193 6.38452 2.37073 9.02171 2.37073 12.2748C2.37073 15.528 6.68193 18.1652 12.0001 18.1652Z" fill="#005C87"/>
<path d="M14.6304 10.0455L15.3259 12.288L16.8209 10.0455H18.0494L17.2239 14.7255H16.0474L16.5154 12.0865L15.5144 13.6595H14.6629L14.2209 12.0865L13.7529 14.7255H12.5829L13.4084 10.0455H14.6304Z" fill="white"/>
<path d="M12.062 14.7255H9.09802L9.92352 10.0455H11.0935L10.45 13.7115H12.244L12.062 14.7255Z" fill="white"/>
<path d="M6.534 14.8165C5.91433 14.8165 5.48533 14.6822 5.247 14.4135C5.08233 14.2228 5 13.9563 5 13.614C5 13.4667 5.01517 13.3085 5.0455 13.1395L5.312 11.6445C5.507 10.5482 6.21117 10 7.4245 10C7.92717 10 8.3085 10.1083 8.5685 10.325C8.8285 10.5373 8.9585 10.8298 8.9585 11.2025C8.9585 11.3758 8.9325 11.5492 8.8805 11.7225C8.83283 11.8915 8.78517 12.0172 8.7375 12.0995L8.666 12.2295H7.5155C7.6585 12.0648 7.73 11.8308 7.73 11.5275C7.73 11.3672 7.68883 11.2415 7.6065 11.1505C7.52417 11.0552 7.40283 11.0075 7.2425 11.0075C6.80483 11.0075 6.54483 11.2502 6.4625 11.7355L6.235 13.0485C6.21333 13.1612 6.2025 13.2717 6.2025 13.38C6.2025 13.666 6.37367 13.809 6.716 13.809C7.12767 13.809 7.37467 13.5772 7.457 13.1135H8.627L8.5945 13.302C8.42117 14.3117 7.73433 14.8165 6.534 14.8165Z" fill="white"/>
</svg>
