<svg width="24" height="24" viewBox="0 0 24 24" fill="none" xmlns="http://www.w3.org/2000/svg">
<path d="M2 2H22V22H2V2Z" fill="#FFBE00"/>
<path d="M12.0001 18.1652C17.3182 18.1652 21.6294 15.528 21.6294 12.2748C21.6294 9.02171 17.3182 6.38452 12.0001 6.38452C6.68193 6.38452 2.37073 9.02171 2.37073 12.2748C2.37073 15.528 6.68193 18.1652 12.0001 18.1652Z" fill="#005C87"/>
<path d="M14.3523 13.5765H13.5788L13.3253 15H12.1553L12.9808 10.32H14.9633C15.4529 10.32 15.8018 10.4327 16.0098 10.658C16.1614 10.8313 16.2373 11.0523 16.2373 11.321C16.2373 11.412 16.2286 11.5073 16.2113 11.607L16.0813 12.3415C16.0163 12.7012 15.8256 12.998 15.5093 13.232C15.1929 13.4617 14.8073 13.5765 14.3523 13.5765ZM14.5538 11.334H13.9688L13.7543 12.5625H14.3328C14.6881 12.5625 14.8939 12.4043 14.9503 12.088L14.9958 11.8215C15.0044 11.7825 15.0088 11.7305 15.0088 11.6655C15.0088 11.6005 14.9763 11.529 14.9113 11.451C14.8463 11.373 14.7271 11.334 14.5538 11.334Z" fill="white"/>
<path d="M9.59125 15.091C8.97158 15.091 8.54258 14.9567 8.30425 14.688C8.13958 14.4973 8.05725 14.2308 8.05725 13.8885C8.05725 13.7412 8.07242 13.583 8.10275 13.414L8.36925 11.919C8.56425 10.8227 9.26842 10.2745 10.4818 10.2745C10.9844 10.2745 11.3658 10.3828 11.6258 10.5995C11.8858 10.8118 12.0158 11.1043 12.0158 11.477C12.0158 11.6503 11.9898 11.8237 11.9378 11.997C11.8901 12.166 11.8424 12.2917 11.7948 12.374L11.7233 12.504H10.5728C10.7158 12.3393 10.7873 12.1053 10.7873 11.802C10.7873 11.6417 10.7461 11.516 10.6638 11.425C10.5814 11.3297 10.4601 11.282 10.2998 11.282C9.86208 11.282 9.60208 11.5247 9.51975 12.01L9.29225 13.323C9.27058 13.4357 9.25975 13.5462 9.25975 13.6545C9.25975 13.9405 9.43092 14.0835 9.77325 14.0835C10.1849 14.0835 10.4319 13.8517 10.5143 13.388H11.6843L11.6518 13.5765C11.4784 14.5862 10.7916 15.091 9.59125 15.091Z" fill="white"/>
</svg>
