<svg width="24" height="24" viewBox="0 0 24 24" fill="none" xmlns="http://www.w3.org/2000/svg">
<path d="M2 2H22V22H2V2Z" fill="#FFBE00"/>
<path d="M12.0001 18.1652C17.3182 18.1652 21.6294 15.528 21.6294 12.2748C21.6294 9.02171 17.3182 6.38452 12.0001 6.38452C6.68193 6.38452 2.37073 9.02171 2.37073 12.2748C2.37073 15.528 6.68193 18.1652 12.0001 18.1652Z" fill="#005C87"/>
<path d="M5.16222 14.056C4.78089 14.056 4.51689 13.9733 4.37022 13.808C4.26889 13.6907 4.21822 13.5267 4.21822 13.316C4.21822 13.2253 4.22755 13.128 4.24622 13.024L4.41022 12.104C4.53022 11.4293 4.96355 11.092 5.71022 11.092C6.01955 11.092 6.25422 11.1587 6.41422 11.292C6.57422 11.4227 6.65422 11.6027 6.65422 11.832C6.65422 11.9387 6.63822 12.0453 6.60622 12.152C6.57689 12.256 6.54755 12.3333 6.51822 12.384L6.47422 12.464H5.76622C5.85422 12.3627 5.89822 12.2187 5.89822 12.032C5.89822 11.9333 5.87289 11.856 5.82222 11.8C5.77155 11.7413 5.69689 11.712 5.59822 11.712C5.32889 11.712 5.16889 11.8613 5.11822 12.16L4.97822 12.968C4.96489 13.0373 4.95822 13.1053 4.95822 13.172C4.95822 13.348 5.06355 13.436 5.27422 13.436C5.52755 13.436 5.67955 13.2933 5.73022 13.008H6.45022L6.43022 13.124C6.32355 13.7453 5.90089 14.056 5.16222 14.056ZM8.56406 14H6.74006L7.24806 11.12H7.96806L7.57206 13.376H8.67606L8.56406 14ZM10.1446 11.12L10.5726 12.5L11.4926 11.12H12.2486L11.7406 14H11.0166L11.3046 12.376L10.6886 13.344H10.1646L9.89259 12.376L9.60459 14H8.88459L9.39259 11.12H10.1446ZM13.9784 11.12C14.2824 11.12 14.4984 11.1867 14.6264 11.32C14.7224 11.4213 14.7704 11.5493 14.7704 11.704C14.7704 11.7573 14.765 11.8133 14.7544 11.872L14.6984 12.184C14.6664 12.3573 14.6104 12.4973 14.5304 12.604C14.453 12.7107 14.3664 12.7867 14.2704 12.832L14.6344 14H13.8264L13.4904 12.924H13.2424L13.0784 14H12.3104L12.8184 11.12H13.9784ZM13.7264 11.744H13.4264L13.3224 12.44H13.6024C13.7437 12.44 13.845 12.4067 13.9064 12.34C13.9677 12.2707 13.9984 12.18 13.9984 12.068C13.9984 11.852 13.9077 11.744 13.7264 11.744ZM16.9434 14H14.9354L15.4434 11.12H17.4514L17.3394 11.744H16.0514L15.9594 12.284H17.0234L16.9114 12.908H15.8474L15.7674 13.376H17.0554L16.9434 14ZM18.4081 14.056C18.0295 14.056 17.7681 13.968 17.6241 13.792C17.5255 13.6693 17.4761 13.5013 17.4761 13.288C17.4761 13.1893 17.4868 13.0813 17.5081 12.964L17.6481 12.164C17.7735 11.4493 18.2108 11.092 18.9601 11.092C19.2695 11.092 19.5041 11.1587 19.6641 11.292C19.8241 11.4227 19.9041 11.6027 19.9041 11.832C19.9041 11.9253 19.8908 12.02 19.8641 12.116C19.8401 12.212 19.8161 12.284 19.7921 12.332L19.7521 12.404H19.0441C19.1135 12.308 19.1481 12.1973 19.1481 12.072C19.1481 11.832 19.0481 11.712 18.8481 11.712C18.5788 11.712 18.4175 11.868 18.3641 12.18L18.2281 12.948C18.2148 13.02 18.2081 13.0907 18.2081 13.16C18.2081 13.344 18.3161 13.436 18.5321 13.436C18.7508 13.436 18.8908 13.3267 18.9521 13.108H18.6241L18.7041 12.664H19.7641L19.7001 13.008L19.6801 13.124C19.5681 13.7453 19.1441 14.056 18.4081 14.056Z" fill="white"/>
</svg>
