<svg width="241" height="240" viewBox="0 0 241 240" fill="none" xmlns="http://www.w3.org/2000/svg">
<path d="M20.0007 20H220.001V220H20.0007V20Z" fill="#FFBE00"/>
<path d="M120.001 181.652C173.183 181.652 216.295 155.28 216.295 122.749C216.295 90.2172 173.183 63.8453 120.001 63.8453C66.82 63.8453 23.708 90.2172 23.708 122.749C23.708 155.28 66.82 181.652 120.001 181.652Z" fill="#005C87"/>
<path d="M70.6814 150.98C64.008 150.98 59.388 149.533 56.8214 146.64C55.048 144.587 54.1614 141.717 54.1614 138.03C54.1614 136.443 54.3247 134.74 54.6514 132.92L57.5214 116.82C59.6214 105.013 67.2047 99.11 80.2714 99.11C85.6847 99.11 89.7914 100.277 92.5914 102.61C95.3914 104.897 96.7914 108.047 96.7914 112.06C96.7914 113.927 96.5114 115.793 95.9514 117.66C95.438 119.48 94.9247 120.833 94.4114 121.72L93.6414 123.12H81.2514C82.7914 121.347 83.5614 118.827 83.5614 115.56C83.5614 113.833 83.118 112.48 82.2314 111.5C81.3447 110.473 80.038 109.96 78.3114 109.96C73.598 109.96 70.798 112.573 69.9114 117.8L67.4614 131.94C67.228 133.153 67.1114 134.343 67.1114 135.51C67.1114 138.59 68.9547 140.13 72.6414 140.13C77.0747 140.13 79.7347 137.633 80.6214 132.64H93.2214L92.8714 134.67C91.0047 145.543 83.608 150.98 70.6814 150.98Z" fill="white"/>
<path d="M127.484 99.6C132.804 99.6 136.584 100.767 138.824 103.1C140.504 104.873 141.344 107.113 141.344 109.82C141.344 110.753 141.25 111.733 141.064 112.76L140.434 116.12C139.92 118.78 138.917 120.857 137.424 122.35C135.977 123.843 134.694 124.59 133.574 124.59L133.504 125.15C134.81 125.15 136.14 125.873 137.494 127.32C138.847 128.767 139.524 130.47 139.524 132.43C139.524 133.223 139.43 134.063 139.244 134.95L138.824 137.12C138.077 141.133 136.28 144.283 133.434 146.57C130.634 148.857 126.714 150 121.674 150H98.2936L107.184 99.6H127.484ZM121.184 129.42H114.534L112.854 139.08H119.504C119.597 139.08 119.69 139.08 119.784 139.08C121.93 139.08 123.634 138.59 124.894 137.61C126.154 136.583 126.784 135.347 126.784 133.9C126.784 130.913 124.917 129.42 121.184 129.42ZM123.074 110.52H117.824L116.004 120.95H121.184C125.664 120.95 127.904 118.99 127.904 115.07C127.904 113.717 127.484 112.62 126.644 111.78C125.85 110.94 124.66 110.52 123.074 110.52Z" fill="white"/>
<path d="M157.669 135.65C157.669 138.87 159.979 140.48 164.599 140.48C169.266 140.48 171.599 139.033 171.599 136.14C171.599 134.6 170.806 133.34 169.219 132.36C167.633 131.38 165.696 130.563 163.409 129.91C161.169 129.257 158.906 128.51 156.619 127.67C154.379 126.783 152.466 125.43 150.879 123.61C149.293 121.743 148.499 119.433 148.499 116.68C148.499 104.967 156.036 99.11 171.109 99.11C176.616 99.11 180.769 100.16 183.569 102.26C186.416 104.313 187.839 107.183 187.839 110.87C187.839 112.223 187.653 113.53 187.279 114.79C186.953 116.003 186.603 116.867 186.229 117.38L185.669 118.22H173.279C174.306 117.147 174.819 115.793 174.819 114.16C174.819 111.127 172.836 109.61 168.869 109.61C163.876 109.61 161.379 111.197 161.379 114.37C161.379 115.957 162.173 117.217 163.759 118.15C165.346 119.083 167.259 119.83 169.499 120.39C171.786 120.903 174.073 121.557 176.359 122.35C178.646 123.143 180.583 124.473 182.169 126.34C183.756 128.16 184.549 130.54 184.549 133.48C184.549 139.407 182.776 143.817 179.229 146.71C175.683 149.557 170.223 150.98 162.849 150.98C155.476 150.98 150.436 149.673 147.729 147.06C145.723 145.1 144.719 142.393 144.719 138.94C144.719 137.633 144.859 136.21 145.139 134.67L145.349 133.55H157.949L157.809 134.39C157.716 134.857 157.669 135.277 157.669 135.65Z" fill="white"/>
</svg>
