<svg width="24" height="24" viewBox="0 0 24 24" fill="none" xmlns="http://www.w3.org/2000/svg">
<path d="M2 2H22V22H2V2Z" fill="#FFBE00"/>
<path d="M12.0001 18.1652C17.3182 18.1652 21.6294 15.528 21.6294 12.2748C21.6294 9.02171 17.3182 6.38452 12.0001 6.38452C6.68193 6.38452 2.37073 9.02171 2.37073 12.2748C2.37073 15.528 6.68193 18.1652 12.0001 18.1652Z" fill="#005C87"/>
<path d="M17.3837 10.32L17.2732 13.8625H17.4227L18.5537 10.32H19.8277L18.2222 15H16.2722L16.4477 12.0035L15.5767 15H13.6267L13.6722 10.32H14.9462L14.8292 13.8625H14.9787L16.1162 10.32H17.3837Z" fill="white"/>
<path d="M10.5875 15.091C9.97216 15.091 9.5475 14.948 9.3135 14.662C9.15316 14.4627 9.073 14.1897 9.073 13.843C9.073 13.6827 9.09033 13.5072 9.125 13.3165L9.3525 12.0165C9.55616 10.8552 10.2668 10.2745 11.4845 10.2745C11.9872 10.2745 12.3685 10.3828 12.6285 10.5995C12.8885 10.8118 13.0185 11.1043 13.0185 11.477C13.0185 11.6287 12.9968 11.7825 12.9535 11.9385C12.9145 12.0945 12.8755 12.2115 12.8365 12.2895L12.7715 12.4065H11.621C11.7337 12.2505 11.79 12.0707 11.79 11.867C11.79 11.477 11.6275 11.282 11.3025 11.282C10.8648 11.282 10.6027 11.5355 10.516 12.0425L10.295 13.2905C10.2733 13.4075 10.2625 13.5223 10.2625 13.635C10.2625 13.934 10.438 14.0835 10.789 14.0835C11.1443 14.0835 11.3718 13.9058 11.4715 13.5505H10.9385L11.0685 12.829H12.791L12.687 13.388L12.6545 13.5765C12.4725 14.5862 11.7835 15.091 10.5875 15.091Z" fill="white"/>
<path d="M7.25341 10.32C7.82108 10.32 8.22624 10.463 8.46891 10.749C8.64658 10.9657 8.73541 11.2365 8.73541 11.5615C8.73541 11.6785 8.72458 11.802 8.70291 11.932L8.44941 13.3815C8.36274 13.8712 8.15041 14.2633 7.81241 14.558C7.47441 14.8527 7.03674 15 6.49941 15H4.60791L5.43341 10.32H7.25341ZM6.84391 11.334H6.42141L5.95991 13.986H6.57741C6.78108 13.986 6.93924 13.9318 7.05191 13.8235C7.16891 13.7108 7.24908 13.5288 7.29241 13.2775L7.48091 12.2115C7.49824 12.1162 7.50691 12.0295 7.50691 11.9515C7.50691 11.5398 7.28591 11.334 6.84391 11.334Z" fill="white"/>
</svg>
