<svg width="241" height="240" viewBox="0 0 241 240" fill="none" xmlns="http://www.w3.org/2000/svg">
<path d="M20 20H220V220H20V20Z" fill="#FFBE00"/>
<path d="M120.001 181.652C173.182 181.652 216.294 155.28 216.294 122.749C216.294 90.2172 173.182 63.8453 120.001 63.8453C66.8193 63.8453 23.7073 90.2172 23.7073 122.749C23.7073 155.28 66.8193 181.652 120.001 181.652Z" fill="#005C87"/>
<path d="M88.76 150H53.62L62.51 99.6H97.65L95.69 110.52H73.15L71.54 119.97H90.16L88.2 130.89H69.58L68.18 139.08H90.72L88.76 150Z" fill="white"/>
<path d="M125.313 99.6C131.427 99.6 135.79 101.14 138.403 104.22C140.317 106.553 141.273 109.47 141.273 112.97C141.273 114.23 141.156 115.56 140.923 116.96L138.193 132.57C137.26 137.843 134.973 142.067 131.333 145.24C127.693 148.413 122.98 150 117.193 150H96.8232L105.713 99.6H125.313ZM120.903 110.52H116.353L111.383 139.08H118.033C120.226 139.08 121.93 138.497 123.143 137.33C124.403 136.117 125.266 134.157 125.733 131.45L127.763 119.97C127.95 118.943 128.043 118.01 128.043 117.17C128.043 112.737 125.663 110.52 120.903 110.52Z" fill="white"/>
<path d="M157.019 135.65C157.019 138.87 159.329 140.48 163.949 140.48C168.616 140.48 170.949 139.033 170.949 136.14C170.949 134.6 170.156 133.34 168.569 132.36C166.983 131.38 165.046 130.563 162.759 129.91C160.519 129.257 158.256 128.51 155.969 127.67C153.729 126.783 151.816 125.43 150.229 123.61C148.643 121.743 147.849 119.433 147.849 116.68C147.849 104.967 155.386 99.11 170.459 99.11C175.966 99.11 180.119 100.16 182.919 102.26C185.766 104.313 187.189 107.183 187.189 110.87C187.189 112.223 187.003 113.53 186.629 114.79C186.303 116.003 185.953 116.867 185.579 117.38L185.019 118.22H172.629C173.656 117.147 174.169 115.793 174.169 114.16C174.169 111.127 172.186 109.61 168.219 109.61C163.226 109.61 160.729 111.197 160.729 114.37C160.729 115.957 161.523 117.217 163.109 118.15C164.696 119.083 166.609 119.83 168.849 120.39C171.136 120.903 173.423 121.557 175.709 122.35C177.996 123.143 179.933 124.473 181.519 126.34C183.106 128.16 183.899 130.54 183.899 133.48C183.899 139.407 182.126 143.817 178.579 146.71C175.033 149.557 169.573 150.98 162.199 150.98C154.826 150.98 149.786 149.673 147.079 147.06C145.073 145.1 144.069 142.393 144.069 138.94C144.069 137.633 144.209 136.21 144.489 134.67L144.699 133.55H157.299L157.159 134.39C157.066 134.857 157.019 135.277 157.019 135.65Z" fill="white"/>
</svg>
