<svg width="241" height="240" viewBox="0 0 241 240" fill="none" xmlns="http://www.w3.org/2000/svg">
<path d="M20.0007 20H220.001V220H20.0007V20Z" fill="#FFBE00"/>
<path d="M120.001 181.652C173.183 181.652 216.295 155.28 216.295 122.749C216.295 90.2172 173.183 63.8453 120.001 63.8453C66.82 63.8453 23.708 90.2172 23.708 122.749C23.708 155.28 66.82 181.652 120.001 181.652Z" fill="#005C87"/>
<path d="M82.1151 131.52H63.4951L60.2751 150H47.6051L56.4951 99.6H91.6351L89.6751 110.52H67.1351L65.3851 120.6H84.0051L82.1151 131.52Z" fill="white"/>
<path d="M111.765 99.6L119.255 123.75L135.355 99.6H148.585L139.695 150H127.025L132.065 121.58L121.285 138.52H112.115L107.355 121.58L102.315 150H89.7145L98.6045 99.6H111.765Z" fill="white"/>
<path d="M163.036 135.65C163.036 138.87 165.346 140.48 169.966 140.48C174.632 140.48 176.966 139.033 176.966 136.14C176.966 134.6 176.172 133.34 174.586 132.36C172.999 131.38 171.062 130.563 168.776 129.91C166.536 129.257 164.272 128.51 161.986 127.67C159.746 126.783 157.832 125.43 156.246 123.61C154.659 121.743 153.866 119.433 153.866 116.68C153.866 104.967 161.402 99.11 176.476 99.11C181.982 99.11 186.136 100.16 188.936 102.26C191.782 104.313 193.206 107.183 193.206 110.87C193.206 112.223 193.019 113.53 192.646 114.79C192.319 116.003 191.969 116.867 191.596 117.38L191.036 118.22H178.646C179.672 117.147 180.186 115.793 180.186 114.16C180.186 111.127 178.202 109.61 174.236 109.61C169.242 109.61 166.746 111.197 166.746 114.37C166.746 115.957 167.539 117.217 169.126 118.15C170.712 119.083 172.626 119.83 174.866 120.39C177.152 120.903 179.439 121.557 181.726 122.35C184.012 123.143 185.949 124.473 187.536 126.34C189.122 128.16 189.916 130.54 189.916 133.48C189.916 139.407 188.142 143.817 184.596 146.71C181.049 149.557 175.589 150.98 168.216 150.98C160.842 150.98 155.802 149.673 153.096 147.06C151.089 145.1 150.086 142.393 150.086 138.94C150.086 137.633 150.226 136.21 150.506 134.67L150.716 133.55H163.316L163.176 134.39C163.082 134.857 163.036 135.277 163.036 135.65Z" fill="white"/>
</svg>
