<svg width="24" height="24" viewBox="0 0 24 24" fill="none" xmlns="http://www.w3.org/2000/svg">
<path d="M2 2H22V22H2V2Z" fill="#FFBE00"/>
<path d="M12.0001 18.1652C17.3182 18.1652 21.6294 15.528 21.6294 12.2748C21.6294 9.02171 17.3182 6.38452 12.0001 6.38452C6.68193 6.38452 2.37073 9.02171 2.37073 12.2748C2.37073 15.528 6.68193 18.1652 12.0001 18.1652Z" fill="#005C87"/>
<path d="M17.9396 12.794H17.2851L17.0706 13.9985H16.0806L16.7791 10.0385H18.4566C18.8709 10.0385 19.1661 10.1338 19.3421 10.3245C19.4704 10.4712 19.5346 10.6582 19.5346 10.8855C19.5346 10.9625 19.5272 11.0432 19.5126 11.1275L19.4026 11.749C19.3476 12.0533 19.1862 12.3045 18.9186 12.5025C18.6509 12.6968 18.3246 12.794 17.9396 12.794ZM18.1101 10.8965H17.6151L17.4336 11.936H17.9231C18.2237 11.936 18.3979 11.8022 18.4456 11.5345L18.4841 11.309C18.4914 11.276 18.4951 11.232 18.4951 11.177C18.4951 11.122 18.4676 11.0615 18.4126 10.9955C18.3576 10.9295 18.2567 10.8965 18.1101 10.8965Z" fill="white"/>
<path d="M14.6399 10.0385C15.1202 10.0385 15.463 10.1595 15.6684 10.4015C15.8187 10.5848 15.8939 10.814 15.8939 11.089C15.8939 11.188 15.8847 11.2925 15.8664 11.4025L15.6519 12.629C15.5785 13.0433 15.3989 13.3752 15.1129 13.6245C14.8269 13.8738 14.4565 13.9985 14.0019 13.9985H12.4014L13.0999 10.0385H14.6399ZM14.2934 10.8965H13.9359L13.5454 13.1405H14.0679C14.2402 13.1405 14.374 13.0947 14.4694 13.003C14.5684 12.9077 14.6362 12.7537 14.6729 12.541L14.8324 11.639C14.847 11.5583 14.8544 11.485 14.8544 11.419C14.8544 11.0707 14.6674 10.8965 14.2934 10.8965Z" fill="white"/>
<path d="M9.88542 12.871C9.88542 13.124 10.0669 13.2505 10.4299 13.2505C10.7966 13.2505 10.9799 13.1368 10.9799 12.9095C10.9799 12.7885 10.9176 12.6895 10.7929 12.6125C10.6683 12.5355 10.5161 12.4713 10.3364 12.42C10.1604 12.3687 9.98259 12.31 9.80292 12.244C9.62692 12.1743 9.47659 12.068 9.35192 11.925C9.22725 11.7783 9.16492 11.5968 9.16492 11.3805C9.16492 10.4602 9.75709 10 10.9414 10C11.3741 10 11.7004 10.0825 11.9204 10.2475C12.1441 10.4088 12.2559 10.6343 12.2559 10.924C12.2559 11.0303 12.2413 11.133 12.2119 11.232C12.1863 11.3273 12.1588 11.3952 12.1294 11.4355L12.0854 11.5015H11.1119C11.1926 11.4172 11.2329 11.3108 11.2329 11.1825C11.2329 10.9442 11.0771 10.825 10.7654 10.825C10.3731 10.825 10.1769 10.9497 10.1769 11.199C10.1769 11.3237 10.2393 11.4227 10.3639 11.496C10.4886 11.5693 10.6389 11.628 10.8149 11.672C10.9946 11.7123 11.1743 11.7637 11.3539 11.826C11.5336 11.8883 11.6858 11.9928 11.8104 12.1395C11.9351 12.2825 11.9974 12.4695 11.9974 12.7005C11.9974 13.1662 11.8581 13.5127 11.5794 13.74C11.3008 13.9637 10.8718 14.0755 10.2924 14.0755C9.71309 14.0755 9.31709 13.9728 9.10442 13.7675C8.94675 13.6135 8.86792 13.4008 8.86792 13.1295C8.86792 13.0268 8.87892 12.915 8.90092 12.794L8.91742 12.706H9.90742L9.89642 12.772C9.88909 12.8087 9.88542 12.8417 9.88542 12.871Z" fill="white"/>
<path d="M8.751 10.0385L8.058 13.9985H7.0625L7.3155 12.5685H6.243L5.9955 13.9985H5L5.6985 10.0385H6.6885L6.3915 11.7105H7.464L7.761 10.0385H8.751Z" fill="white"/>
</svg>
