<svg width="241" height="240" viewBox="0 0 241 240" fill="none" xmlns="http://www.w3.org/2000/svg">
<path d="M20.0007 20H220.001V220H20.0007V20Z" fill="#FFBE00"/>
<path d="M120.001 181.652C173.183 181.652 216.295 155.28 216.295 122.749C216.295 90.2172 173.183 63.8453 120.001 63.8453C66.82 63.8453 23.708 90.2172 23.708 122.749C23.708 155.28 66.82 181.652 120.001 181.652Z" fill="#005C87"/>
<path d="M56.6721 141.04C57.7454 141.04 58.7021 140.807 59.5421 140.34L59.1921 148.25C56.9987 150.07 54.5021 150.98 51.7021 150.98C47.4554 150.98 44.7021 150 43.4421 148.04C42.6021 146.733 42.1821 145.357 42.1821 143.91C42.1821 142.417 42.2754 141.11 42.4621 139.99L46.6621 116.33H58.5621L54.6421 138.38C54.5954 138.66 54.5721 138.917 54.5721 139.15C54.5721 140.41 55.2721 141.04 56.6721 141.04ZM48.0621 104.92C48.0621 101.933 48.7154 99.7633 50.0221 98.41C51.3754 97.01 53.4521 96.31 56.2521 96.31C60.1721 96.31 62.1321 98.0367 62.1321 101.49C62.1321 104.43 61.4554 106.577 60.1021 107.93C58.7954 109.283 56.7187 109.96 53.8721 109.96C49.9987 109.96 48.0621 108.28 48.0621 104.92Z" fill="white"/>
<path d="M112.495 99.6L96.4654 125.01L103.605 150H90.3054L85.0554 131.52H79.5254L76.2354 150H63.6354L72.5254 99.6H85.1254L81.4154 120.6H85.8954L99.1954 99.6H112.495Z" fill="white"/>
<path d="M138.763 99.6C144.083 99.6 147.863 100.767 150.103 103.1C151.783 104.873 152.623 107.113 152.623 109.82C152.623 110.753 152.53 111.733 152.343 112.76L151.713 116.12C151.2 118.78 150.196 120.857 148.703 122.35C147.256 123.843 145.973 124.59 144.853 124.59L144.783 125.15C146.09 125.15 147.42 125.873 148.773 127.32C150.126 128.767 150.803 130.47 150.803 132.43C150.803 133.223 150.71 134.063 150.523 134.95L150.103 137.12C149.356 141.133 147.56 144.283 144.713 146.57C141.913 148.857 137.993 150 132.953 150H109.573L118.463 99.6H138.763ZM132.463 129.42H125.813L124.133 139.08H130.783C130.876 139.08 130.97 139.08 131.063 139.08C133.21 139.08 134.913 138.59 136.173 137.61C137.433 136.583 138.063 135.347 138.063 133.9C138.063 130.913 136.196 129.42 132.463 129.42ZM134.353 110.52H129.103L127.283 120.95H132.463C136.943 120.95 139.183 118.99 139.183 115.07C139.183 113.717 138.763 112.62 137.923 111.78C137.13 110.94 135.94 110.52 134.353 110.52Z" fill="white"/>
<path d="M168.949 135.65C168.949 138.87 171.259 140.48 175.879 140.48C180.545 140.48 182.879 139.033 182.879 136.14C182.879 134.6 182.085 133.34 180.499 132.36C178.912 131.38 176.975 130.563 174.689 129.91C172.449 129.257 170.185 128.51 167.899 127.67C165.659 126.783 163.745 125.43 162.159 123.61C160.572 121.743 159.779 119.433 159.779 116.68C159.779 104.967 167.315 99.11 182.389 99.11C187.895 99.11 192.049 100.16 194.849 102.26C197.695 104.313 199.119 107.183 199.119 110.87C199.119 112.223 198.932 113.53 198.559 114.79C198.232 116.003 197.882 116.867 197.509 117.38L196.949 118.22H184.559C185.585 117.147 186.099 115.793 186.099 114.16C186.099 111.127 184.115 109.61 180.149 109.61C175.155 109.61 172.659 111.197 172.659 114.37C172.659 115.957 173.452 117.217 175.039 118.15C176.625 119.083 178.539 119.83 180.779 120.39C183.065 120.903 185.352 121.557 187.639 122.35C189.925 123.143 191.862 124.473 193.449 126.34C195.035 128.16 195.829 130.54 195.829 133.48C195.829 139.407 194.055 143.817 190.509 146.71C186.962 149.557 181.502 150.98 174.129 150.98C166.755 150.98 161.715 149.673 159.009 147.06C157.002 145.1 155.999 142.393 155.999 138.94C155.999 137.633 156.139 136.21 156.419 134.67L156.629 133.55H169.229L169.089 134.39C168.995 134.857 168.949 135.277 168.949 135.65Z" fill="white"/>
</svg>
