<svg width="24" height="24" viewBox="0 0 24 24" fill="none" xmlns="http://www.w3.org/2000/svg">
<path d="M2 2H22V22H2V2Z" fill="#FFBE00"/>
<path d="M12.0001 18.1652C17.3182 18.1652 21.6294 15.528 21.6294 12.2748C21.6294 9.02171 17.3182 6.38452 12.0001 6.38452C6.68193 6.38452 2.37073 9.02171 2.37073 12.2748C2.37073 15.528 6.68193 18.1652 12.0001 18.1652Z" fill="#005C87"/>
<path d="M15.0863 15.098C14.4237 15.098 13.9663 14.944 13.7143 14.636C13.5417 14.4213 13.4553 14.1273 13.4553 13.754C13.4553 13.5813 13.474 13.3923 13.5113 13.187L13.7563 11.787C13.9757 10.5363 14.741 9.91101 16.0523 9.91101C16.5937 9.91101 17.0043 10.0277 17.2843 10.261C17.5643 10.4897 17.7043 10.8047 17.7043 11.206C17.7043 11.3693 17.681 11.535 17.6343 11.703C17.5923 11.871 17.5503 11.997 17.5083 12.081L17.4383 12.207H16.1993C16.3207 12.039 16.3813 11.8453 16.3813 11.626C16.3813 11.206 16.2063 10.996 15.8563 10.996C15.385 10.996 15.1027 11.269 15.0093 11.815L14.7713 13.159C14.748 13.285 14.7363 13.4087 14.7363 13.53C14.7363 13.852 14.9253 14.013 15.3033 14.013C15.686 14.013 15.931 13.8217 16.0383 13.439H15.4643L15.6043 12.662H17.4593L17.3473 13.264L17.3123 13.467C17.1163 14.5543 16.3743 15.098 15.0863 15.098Z" fill="white"/>
<path d="M11.4957 9.96002C12.1071 9.96002 12.5434 10.114 12.8047 10.422C12.9961 10.6554 13.0917 10.947 13.0917 11.297C13.0917 11.423 13.0801 11.556 13.0567 11.696L12.7837 13.257C12.6904 13.7844 12.4617 14.2067 12.0977 14.524C11.7337 14.8414 11.2624 15 10.6837 15H8.64673L9.53573 9.96002H11.4957ZM11.0547 11.052H10.5997L10.1027 13.908H10.7677C10.9871 13.908 11.1574 13.8497 11.2787 13.733C11.4047 13.6117 11.4911 13.4157 11.5377 13.145L11.7407 11.997C11.7594 11.8944 11.7687 11.801 11.7687 11.717C11.7687 11.2737 11.5307 11.052 11.0547 11.052Z" fill="white"/>
<path d="M8.53987 9.96002L7.65787 15H6.39087L7.27987 9.96002H8.53987Z" fill="white"/>
</svg>
