<svg width="24" height="24" viewBox="0 0 24 24" fill="none" xmlns="http://www.w3.org/2000/svg">
<path d="M2 2H22V22H2V2Z" fill="#FFBE00"/>
<path d="M12.0001 18.1652C17.3182 18.1652 21.6294 15.528 21.6294 12.2748C21.6294 9.02171 17.3182 6.38452 12.0001 6.38452C6.68193 6.38452 2.37073 9.02171 2.37073 12.2748C2.37073 15.528 6.68193 18.1652 12.0001 18.1652Z" fill="#005C87"/>
<path d="M16.5827 12.975C16.5827 13.205 16.7477 13.32 17.0777 13.32C17.411 13.32 17.5777 13.2167 17.5777 13.01C17.5777 12.9 17.521 12.81 17.4077 12.74C17.2944 12.67 17.156 12.6117 16.9927 12.565C16.8327 12.5183 16.671 12.465 16.5077 12.405C16.3477 12.3417 16.211 12.245 16.0977 12.115C15.9844 11.9817 15.9277 11.8167 15.9277 11.62C15.9277 10.7833 16.466 10.365 17.5427 10.365C17.936 10.365 18.2327 10.44 18.4327 10.59C18.636 10.7367 18.7377 10.9417 18.7377 11.205C18.7377 11.3017 18.7244 11.395 18.6977 11.485C18.6744 11.5717 18.6494 11.6333 18.6227 11.67L18.5827 11.73H17.6977C17.771 11.6533 17.8077 11.5567 17.8077 11.44C17.8077 11.2233 17.666 11.115 17.3827 11.115C17.026 11.115 16.8477 11.2283 16.8477 11.455C16.8477 11.5683 16.9044 11.6583 17.0177 11.725C17.131 11.7917 17.2677 11.845 17.4277 11.885C17.591 11.9217 17.7544 11.9683 17.9177 12.025C18.081 12.0817 18.2194 12.1767 18.3327 12.31C18.446 12.44 18.5027 12.61 18.5027 12.82C18.5027 13.2433 18.376 13.5583 18.1227 13.765C17.8694 13.9683 17.4794 14.07 16.9527 14.07C16.426 14.07 16.066 13.9767 15.8727 13.79C15.7294 13.65 15.6577 13.4567 15.6577 13.21C15.6577 13.1167 15.6677 13.015 15.6877 12.905L15.7027 12.825H16.6027L16.5927 12.885C16.586 12.9183 16.5827 12.9483 16.5827 12.975Z" fill="white"/>
<path d="M12.9205 10.4L13.4555 12.125L14.6055 10.4H15.5505L14.9155 14H14.0105L14.3705 11.97L13.6005 13.18H12.9455L12.6055 11.97L12.2455 14H11.3455L11.9805 10.4H12.9205Z" fill="white"/>
<path d="M10.0357 10.4C10.4724 10.4 10.7841 10.51 10.9707 10.73C11.1074 10.8967 11.1757 11.105 11.1757 11.355C11.1757 11.445 11.1674 11.54 11.1507 11.64L10.9557 12.755C10.8891 13.1317 10.7257 13.4333 10.4657 13.66C10.2057 13.8867 9.86907 14 9.45573 14H8.00073L8.63573 10.4H10.0357ZM9.72073 11.18H9.39573L9.04073 13.22H9.51573C9.6724 13.22 9.79407 13.1783 9.88073 13.095C9.97073 13.0083 10.0324 12.8683 10.0657 12.675L10.2107 11.855C10.2241 11.7817 10.2307 11.715 10.2307 11.655C10.2307 11.3383 10.0607 11.18 9.72073 11.18Z" fill="white"/>
<path d="M7.60007 14H5.32007L5.95507 10.4H6.85507L6.36007 13.22H7.74007L7.60007 14Z" fill="white"/>
</svg>
