<svg width="24" height="24" viewBox="0 0 24 24" fill="none" xmlns="http://www.w3.org/2000/svg">
<path d="M2 2H22V22H2V2Z" fill="#FFBE00"/>
<path d="M12.0001 18.1652C17.3182 18.1652 21.6294 15.528 21.6294 12.2748C21.6294 9.02171 17.3182 6.38452 12.0001 6.38452C6.68193 6.38452 2.37073 9.02171 2.37073 12.2748C2.37073 15.528 6.68193 18.1652 12.0001 18.1652Z" fill="#005C87"/>
<path d="M17.8151 12.794H17.1606L16.9461 13.9985H15.9561L16.6546 10.0385H18.3321C18.7464 10.0385 19.0416 10.1338 19.2176 10.3245C19.3459 10.4712 19.4101 10.6582 19.4101 10.8855C19.4101 10.9625 19.4027 11.0432 19.3881 11.1275L19.2781 11.749C19.2231 12.0533 19.0617 12.3045 18.7941 12.5025C18.5264 12.6968 18.2001 12.794 17.8151 12.794ZM17.9856 10.8965H17.4906L17.3091 11.936H17.7986C18.0992 11.936 18.2734 11.8022 18.3211 11.5345L18.3596 11.309C18.3669 11.276 18.3706 11.232 18.3706 11.177C18.3706 11.122 18.3431 11.0615 18.2881 10.9955C18.2331 10.9295 18.1322 10.8965 17.9856 10.8965Z" fill="white"/>
<path d="M14.5154 10.0385C14.9957 10.0385 15.3385 10.1595 15.5439 10.4015C15.6942 10.5848 15.7694 10.814 15.7694 11.089C15.7694 11.188 15.7602 11.2925 15.7419 11.4025L15.5274 12.629C15.454 13.0433 15.2744 13.3752 14.9884 13.6245C14.7024 13.8738 14.332 13.9985 13.8774 13.9985H12.2769L12.9754 10.0385H14.5154ZM14.1689 10.8965H13.8114L13.4209 13.1405H13.9434C14.1157 13.1405 14.2495 13.0947 14.3449 13.003C14.4439 12.9077 14.5117 12.7537 14.5484 12.541L14.7079 11.639C14.7225 11.5583 14.7299 11.485 14.7299 11.419C14.7299 11.0707 14.5429 10.8965 14.1689 10.8965Z" fill="white"/>
<path d="M9.76091 12.871C9.76091 13.124 9.94241 13.2505 10.3054 13.2505C10.6721 13.2505 10.8554 13.1368 10.8554 12.9095C10.8554 12.7885 10.7931 12.6895 10.6684 12.6125C10.5437 12.5355 10.3916 12.4713 10.2119 12.42C10.0359 12.3687 9.85808 12.31 9.67841 12.244C9.50241 12.1743 9.35208 12.068 9.22741 11.925C9.10274 11.7783 9.04041 11.5968 9.04041 11.3805C9.04041 10.4602 9.63258 10 10.8169 10C11.2496 10 11.5759 10.0825 11.7959 10.2475C12.0196 10.4088 12.1314 10.6343 12.1314 10.924C12.1314 11.0303 12.1167 11.133 12.0874 11.232C12.0617 11.3273 12.0342 11.3952 12.0049 11.4355L11.9609 11.5015H10.9874C11.0681 11.4172 11.1084 11.3108 11.1084 11.1825C11.1084 10.9442 10.9526 10.825 10.6409 10.825C10.2486 10.825 10.0524 10.9497 10.0524 11.199C10.0524 11.3237 10.1147 11.4227 10.2394 11.496C10.3641 11.5693 10.5144 11.628 10.6904 11.672C10.8701 11.7123 11.0497 11.7637 11.2294 11.826C11.4091 11.8883 11.5612 11.9928 11.6859 12.1395C11.8106 12.2825 11.8729 12.4695 11.8729 12.7005C11.8729 13.1662 11.7336 13.5127 11.4549 13.74C11.1762 13.9637 10.7472 14.0755 10.1679 14.0755C9.58858 14.0755 9.19258 13.9728 8.97991 13.7675C8.82224 13.6135 8.74341 13.4008 8.74341 13.1295C8.74341 13.0268 8.75441 12.915 8.77641 12.794L8.79291 12.706H9.78291L9.77191 12.772C9.76458 12.8087 9.76091 12.8417 9.76091 12.871Z" fill="white"/>
<path d="M5.7325 10.0385L6.321 11.936L7.586 10.0385H8.6255L7.927 13.9985H6.9315L7.3275 11.7655L6.4805 13.0965H5.76L5.386 11.7655L4.99 13.9985H4L4.6985 10.0385H5.7325Z" fill="white"/>
</svg>
