<svg width="24" height="24" viewBox="0 0 24 24" fill="none" xmlns="http://www.w3.org/2000/svg">
<path d="M2 2H22V22H2V2Z" fill="#FFBE00"/>
<path d="M12.0001 18.1652C17.3182 18.1652 21.6294 15.528 21.6294 12.2748C21.6294 9.02171 17.3182 6.38452 12.0001 6.38452C6.68193 6.38452 2.37073 9.02171 2.37073 12.2748C2.37073 15.528 6.68193 18.1652 12.0001 18.1652Z" fill="#005C87"/>
<path d="M19.9324 11.18H18.7024L18.2074 14H17.3024L17.7974 11.18H16.5624L16.7024 10.4H20.0724L19.9324 11.18Z" fill="white"/>
<path d="M15.2324 14L15.2624 13.215H14.4274L14.1824 14H13.2274L14.5124 10.4H16.1624L16.1824 14H15.2324ZM15.0274 11.275L14.6324 12.545H15.2874L15.3424 11.275H15.0274Z" fill="white"/>
<path d="M11.1896 12.975C11.1896 13.205 11.3546 13.32 11.6846 13.32C12.018 13.32 12.1846 13.2167 12.1846 13.01C12.1846 12.9 12.128 12.81 12.0146 12.74C11.9013 12.67 11.763 12.6117 11.5996 12.565C11.4396 12.5183 11.278 12.465 11.1146 12.405C10.9546 12.3417 10.818 12.245 10.7046 12.115C10.5913 11.9817 10.5346 11.8167 10.5346 11.62C10.5346 10.7833 11.073 10.365 12.1496 10.365C12.543 10.365 12.8396 10.44 13.0396 10.59C13.243 10.7367 13.3446 10.9417 13.3446 11.205C13.3446 11.3017 13.3313 11.395 13.3046 11.485C13.2813 11.5717 13.2563 11.6333 13.2296 11.67L13.1896 11.73H12.3046C12.378 11.6533 12.4146 11.5567 12.4146 11.44C12.4146 11.2233 12.273 11.115 11.9896 11.115C11.633 11.115 11.4546 11.2283 11.4546 11.455C11.4546 11.5683 11.5113 11.6583 11.6246 11.725C11.738 11.7917 11.8746 11.845 12.0346 11.885C12.198 11.9217 12.3613 11.9683 12.5246 12.025C12.688 12.0817 12.8263 12.1767 12.9396 12.31C13.053 12.44 13.1096 12.61 13.1096 12.82C13.1096 13.2433 12.983 13.5583 12.7296 13.765C12.4763 13.9683 12.0863 14.07 11.5596 14.07C11.033 14.07 10.673 13.9767 10.4796 13.79C10.3363 13.65 10.2646 13.4567 10.2646 13.21C10.2646 13.1167 10.2746 13.015 10.2946 12.905L10.3096 12.825H11.2096L11.1996 12.885C11.193 12.9183 11.1896 12.9483 11.1896 12.975Z" fill="white"/>
<path d="M10.1583 10.4L9.52829 14H8.62329L9.25829 10.4H10.1583Z" fill="white"/>
<path d="M5.91606 10.4L6.45106 12.125L7.60106 10.4H8.54606L7.91106 14H7.00606L7.36606 11.97L6.59606 13.18H5.94106L5.60106 11.97L5.24106 14H4.34106L4.97606 10.4H5.91606Z" fill="white"/>
</svg>
