<svg width="24" height="24" viewBox="0 0 24 24" fill="none" xmlns="http://www.w3.org/2000/svg">
<path d="M2 2H22V22H2V2Z" fill="#FFBE00"/>
<path d="M11.9999 18.1652C17.3181 18.1652 21.6293 15.528 21.6293 12.2748C21.6293 9.02171 17.3181 6.38452 11.9999 6.38452C6.68181 6.38452 2.37061 9.02171 2.37061 12.2748C2.37061 15.528 6.68181 18.1652 11.9999 18.1652Z" fill="#005C87"/>
<path d="M15.2647 13.467H14.4317L14.1587 15H12.8987L13.7877 9.95999H15.9227C16.45 9.95999 16.8257 10.0813 17.0497 10.324C17.213 10.5107 17.2947 10.7487 17.2947 11.038C17.2947 11.136 17.2853 11.2387 17.2667 11.346L17.1267 12.137C17.0567 12.5243 16.8513 12.844 16.5107 13.096C16.17 13.3433 15.7547 13.467 15.2647 13.467ZM15.4817 11.052H14.8517L14.6207 12.375H15.2437C15.6263 12.375 15.848 12.2047 15.9087 11.864L15.9577 11.577C15.967 11.535 15.9717 11.479 15.9717 11.409C15.9717 11.339 15.9367 11.262 15.8667 11.178C15.7967 11.094 15.6683 11.052 15.4817 11.052Z" fill="white"/>
<path d="M9.10856 9.95999L9.85756 12.375L11.4676 9.95999H12.7906L11.9016 15H10.6346L11.1386 12.158L10.0606 13.852H9.14356L8.66756 12.158L8.16356 15H6.90356L7.79256 9.95999H9.10856Z" fill="white"/>
</svg>
