<svg width="241" height="240" viewBox="0 0 241 240" fill="none" xmlns="http://www.w3.org/2000/svg">
<path d="M20 20H220V220H20V20Z" fill="#FFBE00"/>
<path d="M120.001 181.652C173.182 181.652 216.294 155.28 216.294 122.749C216.294 90.2172 173.182 63.8453 120.001 63.8453C66.8193 63.8453 23.7073 90.2172 23.7073 122.749C23.7073 155.28 66.8193 181.652 120.001 181.652Z" fill="#005C87"/>
<path d="M61.9283 110.283L56.0294 139.433H47.5556L41.6567 123.482L38.4732 139.433H29.9994L35.9451 110.283H44.653L50.4583 125.182L53.5013 110.283H61.9283Z" fill="white"/>
<path d="M74.3939 140C69.962 140 66.9033 139.109 65.2179 137.328C64.0631 136.086 63.4857 134.386 63.4857 132.227C63.4857 131.228 63.6105 130.135 63.8602 128.947L65.4988 120.85C66.9657 113.617 72.0843 110 80.8546 110C84.4751 110 87.2217 110.675 89.0943 112.024C90.967 113.347 91.9033 115.169 91.9033 117.49C91.9033 118.435 91.7473 119.393 91.4351 120.364C91.1542 121.336 90.8733 122.065 90.5924 122.551L90.1243 123.279H81.8378C82.6492 122.308 83.055 121.188 83.055 119.919C83.055 117.49 81.8846 116.275 79.5437 116.275C76.3914 116.275 74.5032 117.854 73.8789 121.012L72.2872 128.785C72.1311 129.514 72.0531 130.229 72.0531 130.931C72.0531 132.794 73.3171 133.725 75.8452 133.725C78.4045 133.725 80.0431 132.618 80.761 130.405H76.922L77.8583 125.911H90.2647L89.5157 129.393L89.2816 130.567C87.9707 136.856 83.0082 140 74.3939 140Z" fill="white"/>
<path d="M107.793 110.283L112.803 124.251L123.571 110.283H132.419L126.473 139.433H117.999L121.37 122.996L114.161 132.794H108.028L104.844 122.996L101.473 139.433H93.0463L98.992 110.283H107.793Z" fill="white"/>
<path d="M147.515 110.283L141.616 139.433H133.142L139.088 110.283H147.515Z" fill="white"/>
<path d="M171.45 137.328C168.985 139.109 165.489 140 160.964 140C156.438 140 153.301 139.096 151.553 137.287C150.305 136.046 149.681 134.332 149.681 132.146C149.681 131.174 149.806 130.108 150.055 128.947L153.847 110.283H162.274L158.482 128.785C158.357 129.46 158.295 130.162 158.295 130.891C158.295 132.78 159.606 133.725 162.228 133.725C163.788 133.725 165.037 133.374 165.973 132.672C166.909 131.97 167.565 130.675 167.939 128.785L171.731 110.283H180.158L176.366 128.947C175.586 132.726 173.947 135.52 171.45 137.328Z" fill="white"/>
<path d="M196.423 130.567H190.851L189.026 139.433H180.599L186.544 110.283H200.823C204.35 110.283 206.863 110.985 208.361 112.389C209.453 113.468 209.999 114.845 209.999 116.518C209.999 117.085 209.937 117.679 209.812 118.3L208.876 122.874C208.408 125.115 207.034 126.964 204.756 128.421C202.478 129.852 199.7 130.567 196.423 130.567ZM197.874 116.599H193.66L192.116 124.251H196.282C198.841 124.251 200.324 123.266 200.73 121.296L201.057 119.636C201.12 119.393 201.151 119.069 201.151 118.664C201.151 118.259 200.917 117.814 200.449 117.328C199.981 116.842 199.122 116.599 197.874 116.599Z" fill="white"/>
</svg>
