<svg width="241" height="240" viewBox="0 0 241 240" fill="none" xmlns="http://www.w3.org/2000/svg">
<g clip-path="url(#clip0_1781_234)">
<path d="M20 20H220V220H20V20Z" fill="#FFBE00"/>
<path d="M120.001 181.652C173.182 181.652 216.294 155.28 216.294 122.748C216.294 90.2171 173.182 63.8452 120.001 63.8452C66.8195 63.8452 23.7075 90.2171 23.7075 122.748C23.7075 155.28 66.8195 181.652 120.001 181.652Z" fill="#005C87"/>
<path d="M46.4353 110C53.5531 110 57.112 112.659 57.112 117.976C57.112 118.866 57.0086 119.825 56.8018 120.85L55.2513 128.947C54.5425 132.699 53.0067 135.479 50.644 137.287C48.2812 139.096 44.9586 140 40.6761 140C36.3937 140 33.4107 139.096 31.7273 137.287C30.5754 136.046 29.9995 134.332 29.9995 132.146C29.9995 131.174 30.1176 130.108 30.3539 128.947L31.9045 120.85C33.2926 113.617 38.1362 110 46.4353 110ZM41.8723 133.725C43.349 133.725 44.5304 133.374 45.4164 132.672C46.3024 131.97 46.9226 130.675 47.2771 128.785L48.7833 121.012C48.8719 120.472 48.9162 119.987 48.9162 119.555C48.9162 117.368 47.7053 116.275 45.2835 116.275C42.2415 116.329 40.4251 117.908 39.8344 121.012L38.3282 128.785C38.21 129.46 38.151 130.162 38.151 130.891C38.151 132.78 39.3914 133.725 41.8723 133.725Z" fill="white"/>
<path d="M73.5948 130.567H68.323L66.5952 139.433H58.621L64.2473 110.283H77.7592C81.0965 110.283 83.4741 110.985 84.8917 112.389C85.9254 113.468 86.4422 114.845 86.4422 116.518C86.4422 117.085 86.3832 117.679 86.265 118.3L85.379 122.874C84.936 125.115 83.6365 126.964 81.4805 128.421C79.3245 129.852 76.6959 130.567 73.5948 130.567ZM74.9682 116.599H70.9811L69.5191 124.251H73.4619C75.8837 124.251 77.2866 123.266 77.6706 121.296L77.9807 119.636C78.0397 119.393 78.0693 119.069 78.0693 118.664C78.0693 118.259 77.8478 117.814 77.4048 117.328C76.9618 116.842 76.1496 116.599 74.9682 116.599Z" fill="white"/>
<path d="M95.3333 131.134C95.3333 132.996 96.7953 133.927 99.7192 133.927C102.673 133.927 104.149 133.09 104.149 131.417C104.149 130.526 103.647 129.798 102.643 129.231C101.639 128.664 100.413 128.192 98.966 127.814C97.5484 127.436 96.116 127.004 94.6688 126.518C93.2512 126.005 92.0402 125.223 91.0361 124.17C90.0319 123.09 89.5298 121.754 89.5298 120.162C89.5298 113.387 94.2996 110 103.839 110C107.324 110 109.953 110.607 111.725 111.822C113.526 113.009 114.427 114.669 114.427 116.802C114.427 117.584 114.309 118.34 114.073 119.069C113.866 119.771 113.645 120.27 113.408 120.567L113.054 121.053H105.213C105.862 120.432 106.187 119.649 106.187 118.704C106.187 116.95 104.932 116.073 102.422 116.073C99.2614 116.073 97.6813 116.991 97.6813 118.826C97.6813 119.744 98.1834 120.472 99.1875 121.012C100.192 121.552 101.403 121.984 102.82 122.308C104.267 122.605 105.715 122.982 107.162 123.441C108.609 123.9 109.835 124.669 110.839 125.749C111.843 126.802 112.345 128.178 112.345 129.879C112.345 133.306 111.223 135.857 108.978 137.53C106.734 139.177 103.278 140 98.6116 140C93.9452 140 90.7555 139.244 89.0425 137.733C87.7726 136.599 87.1376 135.034 87.1376 133.036C87.1376 132.281 87.2262 131.457 87.4034 130.567L87.5363 129.919H95.5105L95.4219 130.405C95.3629 130.675 95.3333 130.918 95.3333 131.134Z" fill="white"/>
<path d="M129.553 110.283L134.294 124.251L144.483 110.283H152.856L147.23 139.433H139.211L142.401 122.996L135.578 132.794H129.775L126.762 122.996L123.573 139.433H115.598L121.225 110.283H129.553Z" fill="white"/>
<path d="M162.002 131.134C162.002 132.996 163.464 133.927 166.388 133.927C169.341 133.927 170.818 133.09 170.818 131.417C170.818 130.526 170.316 129.798 169.311 129.231C168.307 128.664 167.082 128.192 165.634 127.814C164.217 127.436 162.784 127.004 161.337 126.518C159.92 126.005 158.709 125.223 157.704 124.17C156.7 123.09 156.198 121.754 156.198 120.162C156.198 113.387 160.968 110 170.508 110C173.993 110 176.621 110.607 178.393 111.822C180.195 113.009 181.096 114.669 181.096 116.802C181.096 117.584 180.977 118.34 180.741 119.069C180.534 119.771 180.313 120.27 180.077 120.567L179.722 121.053H171.881C172.531 120.432 172.856 119.649 172.856 118.704C172.856 116.95 171.6 116.073 169.09 116.073C165.93 116.073 164.35 116.991 164.35 118.826C164.35 119.744 164.852 120.472 165.856 121.012C166.86 121.552 168.071 121.984 169.489 122.308C170.936 122.605 172.383 122.982 173.83 123.441C175.277 123.9 176.503 124.669 177.507 125.749C178.511 126.802 179.013 128.178 179.013 129.879C179.013 133.306 177.891 135.857 175.647 137.53C173.402 139.177 169.946 140 165.28 140C160.614 140 157.424 139.244 155.711 137.733C154.441 136.599 153.806 135.034 153.806 133.036C153.806 132.281 153.895 131.457 154.072 130.567L154.205 129.919H162.179L162.09 130.405C162.031 130.675 162.002 130.918 162.002 131.134Z" fill="white"/>
<path d="M193.475 140C189.252 140 186.328 139.163 184.703 137.49C183.581 136.302 183.02 134.642 183.02 132.51C183.02 131.592 183.123 130.607 183.33 129.555L185.146 120.243C186.475 113.414 191.275 110 199.544 110C202.97 110 205.569 110.675 207.341 112.024C209.113 113.347 210 115.169 210 117.49C210 118.57 209.822 119.649 209.468 120.729C209.143 121.781 208.818 122.564 208.493 123.077L208.006 123.887H200.165C201.139 122.861 201.627 121.404 201.627 119.514C201.627 118.516 201.346 117.733 200.785 117.166C200.224 116.572 199.397 116.275 198.304 116.275C195.321 116.275 193.549 117.787 192.988 120.81L191.437 128.988C191.29 129.69 191.216 130.378 191.216 131.053C191.216 132.834 192.382 133.725 194.716 133.725C197.521 133.725 199.205 132.281 199.766 129.393H207.74L207.519 130.567C206.337 136.856 201.656 140 193.475 140Z" fill="white"/>
</g>
<defs>
<clipPath id="clip0_1781_234">
<rect width="200" height="200" fill="white" transform="translate(20 20)"/>
</clipPath>
</defs>
</svg>
