<svg width="24" height="24" viewBox="0 0 24 24" fill="none" xmlns="http://www.w3.org/2000/svg">
<path d="M2 2H22V22H2V2Z" fill="#FFBE00"/>
<path d="M12.0001 18.1652C17.3182 18.1652 21.6294 15.528 21.6294 12.2748C21.6294 9.02171 17.3182 6.38452 12.0001 6.38452C6.68193 6.38452 2.37073 9.02171 2.37073 12.2748C2.37073 15.528 6.68193 18.1652 12.0001 18.1652Z" fill="#005C87"/>
<path d="M17.3586 14.5627C16.5485 14.5627 16.1434 14.2823 16.1434 13.7214C16.1434 13.6435 16.1512 13.5598 16.1668 13.4702L16.2895 12.7458C16.3557 12.3719 16.5271 12.0856 16.8036 11.887C17.084 11.6845 17.454 11.5832 17.9136 11.5832C18.6964 11.5832 19.0878 11.8792 19.0878 12.4712C19.0878 12.5569 19.08 12.6504 19.0645 12.7516L18.9944 13.1664H17.2125L17.1892 13.3008C17.1814 13.3475 17.1775 13.3904 17.1775 13.4293C17.1775 13.6435 17.3041 13.7506 17.5572 13.7506C17.6507 13.7506 17.7305 13.7214 17.7967 13.663C17.8629 13.6046 17.9019 13.5364 17.9136 13.4585L18.8834 13.4702C18.7548 14.1985 18.2466 14.5627 17.3586 14.5627ZM18.0596 12.8101C18.0752 12.7438 18.083 12.6835 18.083 12.6289C18.083 12.5705 18.0577 12.5121 18.007 12.4537C17.9564 12.3953 17.8746 12.3661 17.7617 12.3661C17.6526 12.3661 17.5514 12.4031 17.4579 12.4771C17.3683 12.5511 17.306 12.6621 17.2709 12.8101H18.0596Z" fill="white"/>
<path d="M14.1351 14.5627C13.325 14.5627 12.9199 14.2823 12.9199 13.7214C12.9199 13.6435 12.9277 13.5598 12.9433 13.4702L13.066 12.7458C13.1322 12.3719 13.3036 12.0856 13.5801 11.887C13.8605 11.6845 14.2305 11.5832 14.6901 11.5832C15.4729 11.5832 15.8643 11.8792 15.8643 12.4712C15.8643 12.5569 15.8565 12.6504 15.8409 12.7516L15.7708 13.1664H13.989L13.9656 13.3008C13.9579 13.3475 13.954 13.3904 13.954 13.4293C13.954 13.6435 14.0805 13.7506 14.3337 13.7506C14.4272 13.7506 14.507 13.7214 14.5732 13.663C14.6394 13.6046 14.6784 13.5364 14.6901 13.4585L15.6598 13.4702C15.5313 14.1985 15.0231 14.5627 14.1351 14.5627ZM14.8361 12.8101C14.8517 12.7438 14.8595 12.6835 14.8595 12.6289C14.8595 12.5705 14.8342 12.5121 14.7835 12.4537C14.7329 12.3953 14.6511 12.3661 14.5382 12.3661C14.4291 12.3661 14.3279 12.4031 14.2344 12.4771C14.1448 12.5511 14.0825 12.6621 14.0474 12.8101H14.8361Z" fill="white"/>
<path d="M12.3563 13.7331C12.4459 13.7331 12.5257 13.7136 12.5958 13.6747L12.5666 14.3348C12.3835 14.4867 12.1752 14.5626 11.9415 14.5626C11.5871 14.5626 11.3573 14.4809 11.2521 14.3173C11.182 14.2082 11.147 14.0933 11.147 13.9726C11.147 13.848 11.1548 13.7389 11.1703 13.6454L11.5209 11.6708H12.514L12.1869 13.5111C12.183 13.5344 12.181 13.5559 12.181 13.5753C12.181 13.6805 12.2394 13.7331 12.3563 13.7331ZM11.6377 10.7186C11.6377 10.4693 11.6922 10.2882 11.8013 10.1753C11.9142 10.0584 12.0875 10 12.3212 10C12.6484 10 12.812 10.1441 12.812 10.4323C12.812 10.6777 12.7555 10.8568 12.6425 10.9698C12.5335 11.0827 12.3602 11.1392 12.1226 11.1392C11.7993 11.1392 11.6377 10.999 11.6377 10.7186Z" fill="white"/>
<path d="M9.79568 11.589C10.1813 11.589 10.4519 11.6961 10.6077 11.9103C10.7246 12.0622 10.783 12.2472 10.783 12.4653C10.783 12.5549 10.7732 12.6484 10.7538 12.7458L10.6369 13.4001C10.5707 13.774 10.3974 14.0622 10.117 14.2647C9.84047 14.4633 9.48994 14.5626 9.06542 14.5626C8.64479 14.5626 8.32153 14.4789 8.09564 14.3114C7.91648 14.179 7.8269 13.994 7.8269 13.7564C7.8269 13.6941 7.83275 13.6298 7.84443 13.5636L8.46369 10.0467H9.45684L9.15889 11.7468C9.32247 11.6416 9.53473 11.589 9.79568 11.589ZM9.7431 12.8334C9.74699 12.8022 9.74894 12.7594 9.74894 12.7049C9.74894 12.6464 9.72363 12.5861 9.67299 12.5238C9.62626 12.4575 9.5211 12.4244 9.35752 12.4244C9.19784 12.4244 9.08295 12.4731 9.01284 12.5705L8.84342 13.5461C8.89016 13.663 8.98753 13.7214 9.13553 13.7214C9.43542 13.7214 9.61263 13.5714 9.66715 13.2715L9.7431 12.8334Z" fill="white"/>
<path d="M6.1674 10.2337C7.10603 10.2337 7.57534 10.6173 7.57534 11.3846C7.57534 11.5131 7.56171 11.6514 7.53444 11.7994L7.32997 12.9678C7.2365 13.5091 7.03397 13.9103 6.7224 14.1712C6.41082 14.4322 5.97267 14.5627 5.40794 14.5627C4.8432 14.5627 4.44984 14.4322 4.22784 14.1712C4.07595 13.9921 4 13.7448 4 13.4293C4 13.2891 4.01558 13.1353 4.04674 12.9678L4.25121 11.7994C4.43426 10.7556 5.07299 10.2337 6.1674 10.2337ZM5.56567 13.6571C5.76041 13.6571 5.91619 13.6065 6.03304 13.5053C6.14988 13.404 6.23167 13.217 6.2784 12.9444L6.47703 11.8227C6.48872 11.7448 6.49456 11.6747 6.49456 11.6124C6.49456 11.297 6.33487 11.1392 6.01551 11.1392C5.61435 11.147 5.37483 11.3749 5.29694 11.8227L5.09831 12.9444C5.08273 13.0418 5.07494 13.143 5.07494 13.2482C5.07494 13.5208 5.23852 13.6571 5.56567 13.6571Z" fill="white"/>
</svg>
