<svg width="24" height="24" viewBox="0 0 24 24" fill="none" xmlns="http://www.w3.org/2000/svg">
<path d="M2 2H22V22H2V2Z" fill="#FFBE00"/>
<path d="M12.0001 18.1652C17.3182 18.1652 21.6294 15.528 21.6294 12.2748C21.6294 9.02171 17.3182 6.38452 12.0001 6.38452C6.68193 6.38452 2.37073 9.02171 2.37073 12.2748C2.37073 15.528 6.68193 18.1652 12.0001 18.1652Z" fill="#005C87"/>
<path d="M19.2276 13.2335H18.8111L18.6746 14H18.0446L18.4891 11.48H19.5566C19.8202 11.48 20.0081 11.5407 20.1201 11.662C20.2017 11.7553 20.2426 11.8743 20.2426 12.019C20.2426 12.068 20.2379 12.1193 20.2286 12.173L20.1586 12.5685C20.1236 12.7622 20.0209 12.922 19.8506 13.048C19.6802 13.1717 19.4726 13.2335 19.2276 13.2335ZM19.3361 12.026H19.0211L18.9056 12.6875H19.2171C19.4084 12.6875 19.5192 12.6023 19.5496 12.432L19.5741 12.2885C19.5787 12.2675 19.5811 12.2395 19.5811 12.2045C19.5811 12.1695 19.5636 12.131 19.5286 12.089C19.4936 12.047 19.4294 12.026 19.3361 12.026Z" fill="white"/>
<path d="M16.9956 13.2335H16.5791L16.4426 14H15.8126L16.2571 11.48H17.3246C17.5883 11.48 17.7761 11.5407 17.8881 11.662C17.9698 11.7553 18.0106 11.8743 18.0106 12.019C18.0106 12.068 18.006 12.1193 17.9966 12.173L17.9266 12.5685C17.8916 12.7622 17.789 12.922 17.6186 13.048C17.4483 13.1717 17.2406 13.2335 16.9956 13.2335ZM17.1041 12.026H16.7891L16.6736 12.6875H16.9851C17.1765 12.6875 17.2873 12.6023 17.3176 12.432L17.3421 12.2885C17.3468 12.2675 17.3491 12.2395 17.3491 12.2045C17.3491 12.1695 17.3316 12.131 17.2966 12.089C17.2616 12.047 17.1975 12.026 17.1041 12.026Z" fill="white"/>
<path d="M14.8165 14L14.8375 13.4505H14.253L14.0815 14H13.413L14.3125 11.48H15.4675L15.4815 14H14.8165ZM14.673 12.0925L14.3965 12.9815H14.855L14.8935 12.0925H14.673Z" fill="white"/>
<path d="M11.9865 13.2825C11.9865 13.4435 12.102 13.524 12.333 13.524C12.5663 13.524 12.683 13.4517 12.683 13.307C12.683 13.23 12.6433 13.167 12.564 13.118C12.4847 13.069 12.3878 13.0282 12.2735 12.9955C12.1615 12.9628 12.0483 12.9255 11.934 12.8835C11.822 12.8392 11.7263 12.7715 11.647 12.6805C11.5677 12.5872 11.528 12.4717 11.528 12.334C11.528 11.7483 11.9048 11.4555 12.6585 11.4555C12.9338 11.4555 13.1415 11.508 13.2815 11.613C13.4238 11.7157 13.495 11.8592 13.495 12.0435C13.495 12.1112 13.4857 12.1765 13.467 12.2395C13.4507 12.3002 13.4332 12.3433 13.4145 12.369L13.3865 12.411H12.767C12.8183 12.3573 12.844 12.2897 12.844 12.208C12.844 12.0563 12.7448 11.9805 12.5465 11.9805C12.2968 11.9805 12.172 12.0598 12.172 12.2185C12.172 12.2978 12.2117 12.3608 12.291 12.4075C12.3703 12.4542 12.466 12.4915 12.578 12.5195C12.6923 12.5452 12.8067 12.5778 12.921 12.6175C13.0353 12.6572 13.1322 12.7237 13.2115 12.817C13.2908 12.908 13.3305 13.027 13.3305 13.174C13.3305 13.4703 13.2418 13.6908 13.0645 13.8355C12.8872 13.9778 12.6142 14.049 12.2455 14.049C11.8768 14.049 11.6248 13.9837 11.4895 13.853C11.3892 13.755 11.339 13.6197 11.339 13.447C11.339 13.3817 11.346 13.3105 11.36 13.2335L11.3705 13.1775H12.0005L11.9935 13.2195C11.9888 13.2428 11.9865 13.2638 11.9865 13.2825Z" fill="white"/>
<path d="M9.42293 11.48L9.79743 12.6875L10.6024 11.48H11.2639L10.8194 14H10.1859L10.4379 12.579L9.89893 13.426H9.44043L9.20243 12.579L8.95043 14H8.32043L8.76493 11.48H9.42293Z" fill="white"/>
<path d="M7.2715 13.2335H6.855L6.7185 14H6.0885L6.533 11.48H7.6005C7.86417 11.48 8.052 11.5407 8.164 11.662C8.24567 11.7553 8.2865 11.8743 8.2865 12.019C8.2865 12.068 8.28183 12.1193 8.2725 12.173L8.2025 12.5685C8.1675 12.7622 8.06483 12.922 7.8945 13.048C7.72417 13.1717 7.5165 13.2335 7.2715 13.2335ZM7.38 12.026H7.065L6.9495 12.6875H7.261C7.45233 12.6875 7.56317 12.6023 7.5935 12.432L7.618 12.2885C7.62267 12.2675 7.625 12.2395 7.625 12.2045C7.625 12.1695 7.6075 12.131 7.5725 12.089C7.5375 12.047 7.47333 12.026 7.38 12.026Z" fill="white"/>
<path d="M5.03957 13.2335H4.62307L4.48657 14H3.85657L4.30107 11.48H5.36857C5.63223 11.48 5.82007 11.5407 5.93207 11.662C6.01373 11.7553 6.05457 11.8743 6.05457 12.019C6.05457 12.068 6.0499 12.1193 6.04057 12.173L5.97057 12.5685C5.93557 12.7622 5.8329 12.922 5.66257 13.048C5.49223 13.1717 5.28457 13.2335 5.03957 13.2335ZM5.14807 12.026H4.83307L4.71757 12.6875H5.02907C5.2204 12.6875 5.33123 12.6023 5.36157 12.432L5.38607 12.2885C5.39073 12.2675 5.39307 12.2395 5.39307 12.2045C5.39307 12.1695 5.37557 12.131 5.34057 12.089C5.30557 12.047 5.2414 12.026 5.14807 12.026Z" fill="white"/>
</svg>
