<svg width="24" height="24" viewBox="0 0 24 24" fill="none" xmlns="http://www.w3.org/2000/svg">
<path d="M2 2H22V22H2V2Z" fill="#FFBE00"/>
<path d="M12.0001 18.1652C17.3182 18.1652 21.6294 15.528 21.6294 12.2748C21.6294 9.02171 17.3182 6.38452 12.0001 6.38452C6.68193 6.38452 2.37073 9.02171 2.37073 12.2748C2.37073 15.528 6.68193 18.1652 12.0001 18.1652Z" fill="#005C87"/>
<path d="M18.3338 14.108C18.3338 14.692 18.1838 15.17 17.8838 15.542C17.5878 15.918 17.1838 16.106 16.6718 16.106C16.1638 16.106 15.8258 15.98 15.6578 15.728C15.5538 15.568 15.5018 15.372 15.5018 15.14C15.5018 14.912 15.5218 14.684 15.5618 14.456L16.3298 10.112H17.3498L17.1698 11.114H18.6638L18.5138 11.96H17.3378C17.6218 12.188 17.8578 12.484 18.0458 12.848C18.2378 13.212 18.3338 13.632 18.3338 14.108ZM16.8278 15.248C16.9518 15.248 17.0578 15.148 17.1458 14.948C17.2338 14.748 17.2778 14.484 17.2778 14.156C17.2778 13.832 17.2438 13.504 17.1758 13.172C17.1118 12.84 17.0338 12.58 16.9418 12.392L16.5818 14.45C16.5578 14.59 16.5458 14.712 16.5458 14.816C16.5458 15.104 16.6398 15.248 16.8278 15.248Z" fill="white"/>
<path d="M14.1311 11.03C14.5631 11.03 14.8891 11.124 15.1091 11.312C15.2811 11.46 15.3671 11.666 15.3671 11.93C15.3671 12.018 15.3571 12.114 15.3371 12.218L15.2111 12.92C15.1351 13.344 14.9571 13.644 14.6771 13.82C14.4011 13.996 14.0311 14.084 13.5671 14.084C13.1031 14.084 12.7631 13.996 12.5471 13.82C12.3871 13.688 12.3071 13.49 12.3071 13.226C12.3071 13.134 12.3171 13.032 12.3371 12.92L12.4631 12.218C12.6031 11.426 13.1591 11.03 14.1311 11.03ZM14.2931 12.338C14.3011 12.298 14.3051 12.248 14.3051 12.188C14.3051 12.124 14.2791 12.054 14.2271 11.978C14.1751 11.902 14.0831 11.864 13.9511 11.864C13.8231 11.864 13.7151 11.908 13.6271 11.996C13.5391 12.08 13.4831 12.194 13.4591 12.338L13.3811 12.788C13.3731 12.828 13.3691 12.88 13.3691 12.944C13.3691 13.004 13.3951 13.07 13.4471 13.142C13.4991 13.214 13.5891 13.25 13.7171 13.25C13.8491 13.25 13.9591 13.206 14.0471 13.118C14.1351 13.026 14.1911 12.916 14.2151 12.788L14.2931 12.338Z" fill="white"/>
<path d="M12.165 11.726C12.165 11.862 12.141 11.994 12.093 12.122C12.049 12.25 12.005 12.344 11.961 12.404L11.895 12.488H10.989C11.089 12.396 11.139 12.282 11.139 12.146C11.139 12.074 11.115 12.016 11.067 11.972C11.023 11.924 10.961 11.9 10.881 11.9C10.745 11.9 10.627 11.968 10.527 12.104L10.191 14H9.17102L9.68102 11.114H10.629L10.557 11.516C10.785 11.192 11.061 11.03 11.385 11.03C11.645 11.03 11.839 11.092 11.967 11.216C12.099 11.34 12.165 11.51 12.165 11.726Z" fill="white"/>
<path d="M7.43889 12.686H6.72489L6.49089 14H5.41089L6.17289 9.67999H8.00289C8.45489 9.67999 8.77689 9.78399 8.96889 9.99199C9.10889 10.152 9.17889 10.356 9.17889 10.604C9.17889 10.688 9.17089 10.776 9.15489 10.868L9.03489 11.546C8.97489 11.878 8.79889 12.152 8.50689 12.368C8.21489 12.58 7.85889 12.686 7.43889 12.686ZM7.62489 10.616H7.08489L6.88689 11.75H7.42089C7.74889 11.75 7.93889 11.604 7.99089 11.312L8.03289 11.066C8.04089 11.03 8.04489 10.982 8.04489 10.922C8.04489 10.862 8.01489 10.796 7.95489 10.724C7.89489 10.652 7.78489 10.616 7.62489 10.616Z" fill="white"/>
</svg>
