<svg width="24" height="24" viewBox="0 0 24 24" fill="none" xmlns="http://www.w3.org/2000/svg">
<path d="M2 2H22V22H2V2Z" fill="#FFBE00"/>
<path d="M12.0001 18.1652C17.3182 18.1652 21.6294 15.528 21.6294 12.2748C21.6294 9.02171 17.3182 6.38452 12.0001 6.38452C6.68193 6.38452 2.37073 9.02171 2.37073 12.2748C2.37073 15.528 6.68193 18.1652 12.0001 18.1652Z" fill="#005C87"/>
<path d="M17.4958 13.0329C17.4958 13.3001 17.6875 13.4338 18.071 13.4338C18.4583 13.4338 18.652 13.3137 18.652 13.0735C18.652 12.9457 18.5861 12.8411 18.4544 12.7598C18.3227 12.6784 18.162 12.6107 17.9722 12.5564C17.7863 12.5022 17.5984 12.4402 17.4086 12.3705C17.2227 12.2969 17.0639 12.1846 16.9322 12.0335C16.8005 11.8786 16.7346 11.6869 16.7346 11.4583C16.7346 10.4861 17.3602 10 18.6113 10C19.0684 10 19.4131 10.0872 19.6455 10.2615C19.8818 10.4319 19.9999 10.6701 19.9999 10.9761C19.9999 11.0884 19.9844 11.1969 19.9534 11.3015C19.9263 11.4022 19.8973 11.4738 19.8663 11.5164L19.8198 11.5862H18.7914C18.8766 11.4971 18.9192 11.3847 18.9192 11.2492C18.9192 10.9974 18.7546 10.8715 18.4254 10.8715C18.0109 10.8715 17.8037 11.0032 17.8037 11.2666C17.8037 11.3983 17.8695 11.5029 18.0012 11.5803C18.1329 11.6578 18.2917 11.7198 18.4777 11.7663C18.6675 11.8089 18.8573 11.8631 19.0471 11.9289C19.2369 11.9948 19.3976 12.1052 19.5293 12.2601C19.661 12.4112 19.7268 12.6087 19.7268 12.8527C19.7268 13.3447 19.5796 13.7107 19.2853 13.9509C18.9909 14.1871 18.5377 14.3053 17.9257 14.3053C17.3137 14.3053 16.8954 14.1968 16.6707 13.9799C16.5042 13.8172 16.4209 13.5926 16.4209 13.3059C16.4209 13.1975 16.4325 13.0793 16.4558 12.9515L16.4732 12.8586H17.519L17.5074 12.9283C17.4996 12.967 17.4958 13.0019 17.4958 13.0329Z" fill="white"/>
<path d="M13.2403 10.0407L13.862 12.0452L15.1983 10.0407H16.2964L15.5586 14.2239H14.5069L14.9253 11.865L14.0305 13.2711H13.2694L12.8743 11.865L12.456 14.2239H11.4102L12.148 10.0407H13.2403Z" fill="white"/>
<path d="M9.66888 12.9515H8.97749L8.75089 14.2239H7.70508L8.44296 10.0407H10.215C10.6527 10.0407 10.9645 10.1414 11.1505 10.3428C11.286 10.4977 11.3538 10.6953 11.3538 10.9354C11.3538 11.0168 11.3461 11.102 11.3306 11.1911L11.2144 11.8476C11.1563 12.1691 10.9858 12.4344 10.7031 12.6436C10.4203 12.8489 10.0756 12.9515 9.66888 12.9515ZM9.849 10.9471H9.32609L9.13436 12.0452H9.65145C9.96907 12.0452 10.1531 11.9038 10.2034 11.621L10.2441 11.3828C10.2518 11.3479 10.2557 11.3015 10.2557 11.2434C10.2557 11.1853 10.2267 11.1214 10.1686 11.0516C10.1105 10.9819 10.0039 10.9471 9.849 10.9471Z" fill="white"/>
<path d="M5.96381 12.9515H5.27241L5.04581 14.2239H4L4.73788 10.0407H6.50995C6.94765 10.0407 7.25945 10.1414 7.44538 10.3428C7.58094 10.4977 7.64873 10.6953 7.64873 10.9354C7.64873 11.0168 7.64098 11.102 7.62549 11.1911L7.50929 11.8476C7.45119 12.1691 7.28076 12.4344 6.998 12.6436C6.71524 12.8489 6.37051 12.9515 5.96381 12.9515ZM6.14392 10.9471H5.62101L5.42928 12.0452H5.94638C6.26399 12.0452 6.44798 11.9038 6.49833 11.621L6.539 11.3828C6.54675 11.3479 6.55062 11.3015 6.55062 11.2434C6.55062 11.1853 6.52157 11.1214 6.46347 11.0516C6.40537 10.9819 6.29885 10.9471 6.14392 10.9471Z" fill="white"/>
</svg>
