<svg width="241" height="240" viewBox="0 0 241 240" fill="none" xmlns="http://www.w3.org/2000/svg">
<path d="M20 20H220V220H20V20Z" fill="#FFBE00"/>
<path d="M120.001 181.652C173.182 181.652 216.294 155.28 216.294 122.749C216.294 90.2172 173.182 63.8453 120.001 63.8453C66.8193 63.8453 23.7073 90.2172 23.7073 122.749C23.7073 155.28 66.8193 181.652 120.001 181.652Z" fill="#005C87"/>
<path d="M69.4458 99.6C74.7658 99.6 78.5458 100.767 80.7858 103.1C82.4658 104.873 83.3058 107.113 83.3058 109.82C83.3058 110.753 83.2124 111.733 83.0258 112.76L82.0458 118.22C81.4858 121.253 80.5058 123.703 79.1058 125.57C77.7524 127.437 76.2358 128.767 74.5558 129.56L80.9258 150H66.7858L60.9058 131.17H56.5658L53.6958 150H40.2558L49.1458 99.6H69.4458ZM65.0358 110.52H59.7858L57.9658 122.7H62.8658C65.3391 122.7 67.1124 122.117 68.1858 120.95C69.2591 119.737 69.7958 118.15 69.7958 116.19C69.7958 112.41 68.2091 110.52 65.0358 110.52Z" fill="white"/>
<path d="M111.113 150L111.533 139.01H99.8433L96.4133 150H83.0433L101.033 99.6H124.133L124.413 150H111.113ZM108.243 111.85L102.713 129.63H111.883L112.653 111.85H108.243Z" fill="white"/>
<path d="M152.527 99.6L143.707 150H131.037L139.927 99.6H152.527Z" fill="white"/>
<path d="M201.336 99.6L192.516 150H179.846L171.026 122.42L166.266 150H153.596L162.486 99.6H175.506L184.186 125.36L188.736 99.6H201.336Z" fill="white"/>
</svg>
