<svg width="24" height="24" viewBox="0 0 24 24" fill="none" xmlns="http://www.w3.org/2000/svg">
<path d="M2 2H22V22H2V2Z" fill="#FFBE00"/>
<path d="M12.0001 18.1652C17.3182 18.1652 21.6294 15.528 21.6294 12.2748C21.6294 9.02171 17.3182 6.38452 12.0001 6.38452C6.68193 6.38452 2.37073 9.02171 2.37073 12.2748C2.37073 15.528 6.68193 18.1652 12.0001 18.1652Z" fill="#005C87"/>
<path d="M19.6679 11.12C19.9719 11.12 20.1879 11.1867 20.3159 11.32C20.4119 11.4213 20.4599 11.5493 20.4599 11.704C20.4599 11.7573 20.4545 11.8133 20.4439 11.872L20.4079 12.064C20.3785 12.216 20.3212 12.3347 20.2359 12.42C20.1532 12.5053 20.0799 12.548 20.0159 12.548L20.0119 12.58C20.0865 12.58 20.1625 12.6213 20.2399 12.704C20.3172 12.7867 20.3559 12.884 20.3559 12.996C20.3559 13.0413 20.3505 13.0893 20.3399 13.14L20.3159 13.264C20.2732 13.4933 20.1705 13.6733 20.0079 13.804C19.8479 13.9347 19.6239 14 19.3359 14H17.9999L18.5079 11.12H19.6679ZM19.3079 12.824H18.9279L18.8319 13.376H19.2119C19.2172 13.376 19.2225 13.376 19.2279 13.376C19.3505 13.376 19.4479 13.348 19.5199 13.292C19.5919 13.2333 19.6279 13.1627 19.6279 13.08C19.6279 12.9093 19.5212 12.824 19.3079 12.824ZM19.4159 11.744H19.1159L19.0119 12.34H19.3079C19.5639 12.34 19.6919 12.228 19.6919 12.004C19.6919 11.9267 19.6679 11.864 19.6199 11.816C19.5745 11.768 19.5065 11.744 19.4159 11.744Z" fill="white"/>
<path d="M17.5391 14H15.5311L16.0391 11.12H18.0471L17.9351 11.744H16.6471L16.5551 12.284H17.6191L17.5071 12.908H16.4431L16.3631 13.376H17.6511L17.5391 14Z" fill="white"/>
<path d="M14.1432 11.12L14.0752 13.3H14.1672L14.8632 11.12H15.6472L14.6592 14H13.4592L13.5672 12.156L13.0312 14H11.8312L11.8592 11.12H12.6432L12.5712 13.3H12.6632L13.3632 11.12H14.1432Z" fill="white"/>
<path d="M11.598 11.744H10.614L10.218 14H9.49398L9.88998 11.744H8.90198L9.01398 11.12H11.71L11.598 11.744Z" fill="white"/>
<path d="M7.81632 11.12C8.12032 11.12 8.33632 11.1867 8.46432 11.32C8.56032 11.4213 8.60832 11.5493 8.60832 11.704C8.60832 11.7573 8.60298 11.8133 8.59232 11.872L8.55632 12.064C8.52698 12.216 8.46965 12.3347 8.38432 12.42C8.30165 12.5053 8.22832 12.548 8.16432 12.548L8.16032 12.58C8.23498 12.58 8.31098 12.6213 8.38832 12.704C8.46565 12.7867 8.50432 12.884 8.50432 12.996C8.50432 13.0413 8.49898 13.0893 8.48832 13.14L8.46432 13.264C8.42165 13.4933 8.31898 13.6733 8.15632 13.804C7.99632 13.9347 7.77232 14 7.48432 14H6.14832L6.65632 11.12H7.81632ZM7.45632 12.824H7.07632L6.98032 13.376H7.36032C7.36565 13.376 7.37098 13.376 7.37632 13.376C7.49898 13.376 7.59632 13.348 7.66832 13.292C7.74032 13.2333 7.77632 13.1627 7.77632 13.08C7.77632 12.9093 7.66965 12.824 7.45632 12.824ZM7.56432 11.744H7.26432L7.16032 12.34H7.45632C7.71232 12.34 7.84032 12.228 7.84032 12.004C7.84032 11.9267 7.81632 11.864 7.76832 11.816C7.72298 11.768 7.65498 11.744 7.56432 11.744Z" fill="white"/>
<path d="M5.19132 11.12C5.49532 11.12 5.71132 11.1867 5.83932 11.32C5.93532 11.4213 5.98332 11.5493 5.98332 11.704C5.98332 11.7573 5.97798 11.8133 5.96732 11.872L5.91132 12.184C5.87932 12.3573 5.82332 12.4973 5.74332 12.604C5.66598 12.7107 5.57932 12.7867 5.48332 12.832L5.84732 14H5.03932L4.70332 12.924H4.45532L4.29132 14H3.52332L4.03132 11.12H5.19132ZM4.93932 11.744H4.63932L4.53532 12.44H4.81532C4.95665 12.44 5.05798 12.4067 5.11932 12.34C5.18065 12.2707 5.21132 12.18 5.21132 12.068C5.21132 11.852 5.12065 11.744 4.93932 11.744Z" fill="white"/>
</svg>
