<svg width="241" height="240" viewBox="0 0 241 240" fill="none" xmlns="http://www.w3.org/2000/svg">
<path d="M20 20H220V220H20V20Z" fill="#FFBE00"/>
<path d="M120.001 181.652C173.182 181.652 216.294 155.28 216.294 122.749C216.294 90.2172 173.182 63.8453 120.001 63.8453C66.8193 63.8453 23.7073 90.2172 23.7073 122.749C23.7073 155.28 66.8193 181.652 120.001 181.652Z" fill="#005C87"/>
<path d="M208.592 108.185H196.24L191.269 136.505H182.18L187.151 108.185H174.748L176.154 100.351H209.998L208.592 108.185Z" fill="white"/>
<path d="M162.979 133.894C160.334 136.104 156.585 137.208 151.731 137.208C146.877 137.208 143.512 136.087 141.638 133.844C140.299 132.304 139.629 130.178 139.629 127.467C139.629 126.262 139.763 124.939 140.031 123.5L144.098 100.351H153.137L149.069 123.299C148.935 124.136 148.869 125.006 148.869 125.91C148.869 128.254 150.274 129.425 153.086 129.425C154.76 129.425 156.099 128.99 157.104 128.12C158.108 127.249 158.811 125.642 159.213 123.299L163.28 100.351H172.318L168.251 123.5C167.414 128.187 165.657 131.651 162.979 133.894Z" fill="white"/>
<path d="M124.261 100C132.329 100 136.363 103.297 136.363 109.892C136.363 110.997 136.246 112.185 136.011 113.457L134.254 123.5C133.45 128.153 131.71 131.601 129.032 133.844C126.353 136.087 122.587 137.208 117.733 137.208C112.879 137.208 109.498 136.087 107.59 133.844C106.285 132.304 105.632 130.178 105.632 127.467C105.632 126.262 105.766 124.939 106.034 123.5L107.791 113.457C109.365 104.486 114.855 100 124.261 100ZM119.089 129.425C120.763 129.425 122.102 128.99 123.106 128.12C124.111 127.249 124.814 125.642 125.215 123.299L126.923 113.658C127.023 112.989 127.073 112.386 127.073 111.85C127.073 109.139 125.701 107.783 122.956 107.783C119.508 107.85 117.449 109.808 116.779 113.658L115.072 123.299C114.938 124.136 114.871 125.006 114.871 125.91C114.871 128.254 116.277 129.425 119.089 129.425Z" fill="white"/>
<path d="M90.8303 136.505L91.1316 128.622H82.7459L80.2854 136.505H70.6946L83.5995 100.351H100.17L100.371 136.505H90.8303ZM88.7715 109.139L84.8046 121.893H91.3826L91.935 109.139H88.7715Z" fill="white"/>
<path d="M60.9385 100.351C64.7548 100.351 67.4663 101.188 69.0732 102.862C70.2783 104.134 70.8809 105.741 70.8809 107.683C70.8809 108.352 70.8139 109.055 70.68 109.792L69.977 113.708C69.5753 115.884 68.8723 117.642 67.868 118.981C66.8972 120.32 65.8093 121.274 64.6041 121.843L69.1736 136.505H59.0304L54.8125 122.998H51.6992L49.6405 136.505H39.9994L46.3766 100.351H60.9385ZM57.7751 108.185H54.0091L52.7035 116.922H56.2185C57.9927 116.922 59.2648 116.504 60.0347 115.667C60.8046 114.796 61.1896 113.658 61.1896 112.252C61.1896 109.541 60.0514 108.185 57.7751 108.185Z" fill="white"/>
</svg>
