<svg width="24" height="24" viewBox="0 0 24 24" fill="none" xmlns="http://www.w3.org/2000/svg">
<path d="M2 2H22V22H2V2Z" fill="#FFBE00"/>
<path d="M12.0001 18.1652C17.3182 18.1652 21.6294 15.528 21.6294 12.2748C21.6294 9.02171 17.3182 6.38452 12.0001 6.38452C6.68193 6.38452 2.37073 9.02171 2.37073 12.2748C2.37073 15.528 6.68193 18.1652 12.0001 18.1652Z" fill="#005C87"/>
<path d="M18.138 15H14.946L15.835 9.96002H17.095L16.402 13.908H18.334L18.138 15Z" fill="white"/>
<path d="M13.5782 14.636C13.2096 14.944 12.6869 15.098 12.0102 15.098C11.3336 15.098 10.8646 14.9417 10.6032 14.629C10.4166 14.4144 10.3232 14.118 10.3232 13.74C10.3232 13.572 10.3419 13.3877 10.3792 13.187L10.9462 9.96002H12.2062L11.6392 13.159C11.6206 13.2757 11.6112 13.397 11.6112 13.523C11.6112 13.8497 11.8072 14.013 12.1992 14.013C12.4326 14.013 12.6192 13.9524 12.7592 13.831C12.8992 13.7097 12.9972 13.4857 13.0532 13.159L13.6202 9.96002H14.8802L14.3132 13.187C14.1966 13.8404 13.9516 14.3234 13.5782 14.636Z" fill="white"/>
<path d="M6.90413 13.565C6.90413 13.887 7.13513 14.048 7.59713 14.048C8.0638 14.048 8.29713 13.9033 8.29713 13.614C8.29713 13.46 8.2178 13.334 8.05913 13.236C7.90046 13.138 7.7068 13.0563 7.47813 12.991C7.25413 12.9257 7.0278 12.851 6.79913 12.767C6.57513 12.6783 6.3838 12.543 6.22513 12.361C6.06646 12.1743 5.98713 11.9433 5.98713 11.668C5.98713 10.4967 6.7408 9.91101 8.24813 9.91101C8.7988 9.91101 9.21413 10.016 9.49413 10.226C9.7788 10.4313 9.92113 10.7183 9.92113 11.087C9.92113 11.2223 9.90246 11.353 9.86513 11.479C9.83246 11.6003 9.79746 11.6867 9.76013 11.738L9.70413 11.822H8.46513C8.5678 11.7147 8.61913 11.5793 8.61913 11.416C8.61913 11.1127 8.4208 10.961 8.02413 10.961C7.5248 10.961 7.27513 11.1197 7.27513 11.437C7.27513 11.5957 7.35446 11.7217 7.51313 11.815C7.6718 11.9083 7.86313 11.983 8.08713 12.039C8.3158 12.0903 8.54446 12.1557 8.77313 12.235C9.0018 12.3143 9.19546 12.4473 9.35413 12.634C9.5128 12.816 9.59213 13.054 9.59213 13.348C9.59213 13.9407 9.4148 14.3817 9.06013 14.671C8.70546 14.9557 8.15946 15.098 7.42213 15.098C6.6848 15.098 6.1808 14.9673 5.91013 14.706C5.70946 14.51 5.60913 14.2393 5.60913 13.894C5.60913 13.7633 5.62313 13.621 5.65113 13.467L5.67213 13.355H6.93213L6.91813 13.439C6.9088 13.4857 6.90413 13.5277 6.90413 13.565Z" fill="white"/>
</svg>
