<svg width="24" height="24" viewBox="0 0 24 24" fill="none" xmlns="http://www.w3.org/2000/svg">
<path d="M2 2H22V22H2V2Z" fill="#FFBE00"/>
<path d="M12.0001 18.1652C17.3182 18.1652 21.6294 15.528 21.6294 12.2748C21.6294 9.02171 17.3182 6.38452 12.0001 6.38452C6.68193 6.38452 2.37073 9.02171 2.37073 12.2748C2.37073 15.528 6.68193 18.1652 12.0001 18.1652Z" fill="#005C87"/>
<path d="M18.669 10.365C19.4723 10.365 19.874 10.6933 19.874 11.35C19.874 11.46 19.8623 11.5783 19.839 11.705L19.664 12.705C19.584 13.1683 19.4106 13.5117 19.144 13.735C18.8773 13.9583 18.5023 14.07 18.019 14.07C17.5356 14.07 17.199 13.9583 17.009 13.735C16.879 13.5817 16.814 13.37 16.814 13.1C16.814 12.98 16.8273 12.8483 16.854 12.705L17.029 11.705C17.1856 10.8117 17.7323 10.365 18.669 10.365ZM18.154 13.295C18.3206 13.295 18.454 13.2517 18.554 13.165C18.654 13.0783 18.724 12.9183 18.764 12.685L18.934 11.725C18.944 11.6583 18.949 11.5983 18.949 11.545C18.949 11.275 18.8123 11.14 18.539 11.14C18.1956 11.1467 17.9906 11.3417 17.924 11.725L17.754 12.685C17.7406 12.7683 17.734 12.855 17.734 12.945C17.734 13.1783 17.874 13.295 18.154 13.295Z" fill="white"/>
<path d="M14.0168 10.4L14.5518 12.125L15.7018 10.4H16.6468L16.0118 14H15.1068L15.4668 11.97L14.6968 13.18H14.0418L13.7018 11.97L13.3418 14H12.4418L13.0768 10.4H14.0168Z" fill="white"/>
<path d="M11.0185 14L11.0485 13.215H10.2135L9.96855 14H9.01355L10.2985 10.4H11.9486L11.9685 14H11.0185ZM10.8135 11.275L10.4186 12.545H11.0736L11.1285 11.275H10.8135Z" fill="white"/>
<path d="M9.16232 10.4L8.53232 14H7.62732L8.26232 10.4H9.16232Z" fill="white"/>
<path d="M7.71082 11.18H6.48082L5.98582 14H5.08082L5.57582 11.18H4.34082L4.48082 10.4H7.85082L7.71082 11.18Z" fill="white"/>
</svg>
