<svg width="241" height="240" viewBox="0 0 241 240" fill="none" xmlns="http://www.w3.org/2000/svg">
<path d="M20 20H220V220H20V20Z" fill="#FFBE00"/>
<path d="M120.001 181.652C173.182 181.652 216.294 155.28 216.294 122.749C216.294 90.2172 173.182 63.8453 120.001 63.8453C66.8193 63.8453 23.7073 90.2172 23.7073 122.749C23.7073 155.28 66.8193 181.652 120.001 181.652Z" fill="#005C87"/>
<path d="M62.8546 136.437C60.2659 138.812 56.5959 140 51.8446 140C47.0933 140 43.8001 138.794 41.9651 136.383C40.6544 134.728 39.999 132.443 39.999 129.528C39.999 128.232 40.1301 126.811 40.3922 125.263L44.3735 100.378H53.2208L49.2395 125.047C49.1085 125.947 49.0429 126.883 49.0429 127.854C49.0429 130.373 50.4192 131.633 53.1717 131.633C54.8101 131.633 56.1208 131.165 57.1038 130.229C58.0869 129.294 58.775 127.566 59.1682 125.047L63.1495 100.378H71.9968L68.0155 125.263C67.1963 130.301 65.476 134.026 62.8546 136.437Z" fill="white"/>
<path d="M81.8471 128.178C81.8471 130.661 83.4691 131.903 86.7131 131.903C89.9899 131.903 91.6283 130.787 91.6283 128.556C91.6283 127.368 91.0712 126.397 89.9571 125.641C88.843 124.885 87.4832 124.256 85.8775 123.752C84.3047 123.248 82.7155 122.672 81.1098 122.024C79.537 121.341 78.1935 120.297 77.0794 118.893C75.9653 117.454 75.4082 115.673 75.4082 113.549C75.4082 104.516 80.7002 100 91.2842 100C95.1508 100 98.0672 100.81 100.033 102.429C102.032 104.013 103.032 106.226 103.032 109.069C103.032 110.112 102.9 111.12 102.638 112.092C102.409 113.027 102.163 113.693 101.901 114.089L101.508 114.737H92.8079C93.5288 113.909 93.8893 112.865 93.8893 111.606C93.8893 109.267 92.4966 108.097 89.7114 108.097C86.2052 108.097 84.4521 109.321 84.4521 111.768C84.4521 112.991 85.0092 113.963 86.1233 114.683C87.2374 115.403 88.5809 115.978 90.1537 116.41C91.7594 116.806 93.365 117.31 94.9706 117.922C96.5762 118.534 97.9361 119.559 99.0502 120.999C100.164 122.402 100.721 124.238 100.721 126.505C100.721 131.075 99.4762 134.476 96.9858 136.707C94.4955 138.902 90.6616 140 85.4843 140C80.307 140 76.7681 138.992 74.8676 136.977C73.4585 135.466 72.754 133.378 72.754 130.715C72.754 129.708 72.8523 128.61 73.0489 127.422L73.1964 126.559H82.0437L81.9454 127.206C81.8799 127.566 81.8471 127.89 81.8471 128.178Z" fill="white"/>
<path d="M113.719 128.178C113.719 130.661 115.341 131.903 118.585 131.903C121.862 131.903 123.5 130.787 123.5 128.556C123.5 127.368 122.943 126.397 121.829 125.641C120.715 124.885 119.355 124.256 117.749 123.752C116.177 123.248 114.587 122.672 112.982 122.024C111.409 121.341 110.065 120.297 108.951 118.893C107.837 117.454 107.28 115.673 107.28 113.549C107.28 104.516 112.572 100 123.156 100C127.023 100 129.939 100.81 131.905 102.429C133.904 104.013 134.903 106.226 134.903 109.069C134.903 110.112 134.772 111.12 134.51 112.092C134.281 113.027 134.035 113.693 133.773 114.089L133.38 114.737H124.68C125.401 113.909 125.761 112.865 125.761 111.606C125.761 109.267 124.368 108.097 121.583 108.097C118.077 108.097 116.324 109.321 116.324 111.768C116.324 112.991 116.881 113.963 117.995 114.683C119.109 115.403 120.453 115.978 122.026 116.41C123.631 116.806 125.237 117.31 126.842 117.922C128.448 118.534 129.808 119.559 130.922 120.999C132.036 122.402 132.593 124.238 132.593 126.505C132.593 131.075 131.348 134.476 128.858 136.707C126.367 138.902 122.533 140 117.356 140C112.179 140 108.64 138.992 106.739 136.977C105.33 135.466 104.626 133.378 104.626 130.715C104.626 129.708 104.724 128.61 104.921 127.422L105.068 126.559H113.916L113.817 127.206C113.752 127.566 113.719 127.89 113.719 128.178Z" fill="white"/>
<path d="M156.208 100.378C160.5 100.378 163.564 101.565 165.399 103.941C166.742 105.74 167.414 107.989 167.414 110.688C167.414 111.66 167.332 112.686 167.168 113.765L165.251 125.803C164.596 129.87 162.99 133.126 160.435 135.574C157.879 138.021 154.569 139.244 150.506 139.244H136.203L142.445 100.378H156.208ZM153.111 108.799H149.916L146.426 130.823H151.096C152.636 130.823 153.832 130.373 154.684 129.474C155.569 128.538 156.175 127.027 156.502 124.939L157.928 116.086C158.059 115.295 158.124 114.575 158.124 113.927C158.124 110.508 156.453 108.799 153.111 108.799Z" fill="white"/>
<path d="M193.314 124.993H180.24L177.979 139.244H169.083L175.325 100.378H199.999L198.623 108.799H182.796L181.567 116.572H194.641L193.314 124.993Z" fill="white"/>
</svg>
