<svg width="241" height="240" viewBox="0 0 241 240" fill="none" xmlns="http://www.w3.org/2000/svg">
<path d="M20 20H220V220H20V20Z" fill="#FFBE00"/>
<path d="M120.001 181.652C173.182 181.652 216.294 155.28 216.294 122.749C216.294 90.2172 173.182 63.8453 120.001 63.8453C66.8193 63.8453 23.7073 90.2172 23.7073 122.749C23.7073 155.28 66.8193 181.652 120.001 181.652Z" fill="#005C87"/>
<path d="M79.1799 146.36C75.4932 149.44 70.2666 150.98 63.4999 150.98C56.7332 150.98 52.0432 149.417 49.4299 146.29C47.5632 144.143 46.6299 141.18 46.6299 137.4C46.6299 135.72 46.8165 133.877 47.1899 131.87L52.8599 99.6H65.4599L59.7899 131.59C59.6032 132.757 59.5099 133.97 59.5099 135.23C59.5099 138.497 61.4699 140.13 65.3899 140.13C67.7232 140.13 69.5899 139.523 70.9899 138.31C72.3899 137.097 73.3699 134.857 73.9299 131.59L79.5999 99.6H92.1999L86.5299 131.87C85.3632 138.403 82.9132 143.233 79.1799 146.36Z" fill="white"/>
<path d="M114.908 99.6L122.398 123.75L138.498 99.6H151.728L142.838 150H130.168L135.208 121.58L124.428 138.52H115.258L110.498 121.58L105.458 150H92.8583L101.748 99.6H114.908Z" fill="white"/>
<path d="M166.179 135.65C166.179 138.87 168.489 140.48 173.109 140.48C177.776 140.48 180.11 139.033 180.11 136.14C180.11 134.6 179.316 133.34 177.729 132.36C176.143 131.38 174.206 130.563 171.919 129.91C169.679 129.257 167.416 128.51 165.129 127.67C162.889 126.783 160.976 125.43 159.389 123.61C157.803 121.743 157.009 119.433 157.009 116.68C157.009 104.967 164.546 99.11 179.619 99.11C185.126 99.11 189.279 100.16 192.079 102.26C194.926 104.313 196.349 107.183 196.349 110.87C196.349 112.223 196.163 113.53 195.789 114.79C195.463 116.003 195.113 116.867 194.739 117.38L194.179 118.22H181.789C182.816 117.147 183.329 115.793 183.329 114.16C183.329 111.127 181.346 109.61 177.379 109.61C172.386 109.61 169.889 111.197 169.889 114.37C169.889 115.957 170.683 117.217 172.269 118.15C173.856 119.083 175.769 119.83 178.009 120.39C180.296 120.903 182.583 121.557 184.869 122.35C187.156 123.143 189.093 124.473 190.679 126.34C192.266 128.16 193.06 130.54 193.06 133.48C193.06 139.407 191.286 143.817 187.739 146.71C184.193 149.557 178.733 150.98 171.359 150.98C163.986 150.98 158.946 149.673 156.239 147.06C154.233 145.1 153.229 142.393 153.229 138.94C153.229 137.633 153.369 136.21 153.649 134.67L153.859 133.55H166.459L166.319 134.39C166.226 134.857 166.179 135.277 166.179 135.65Z" fill="white"/>
</svg>
