<svg width="24" height="24" viewBox="0 0 24 24" fill="none" xmlns="http://www.w3.org/2000/svg">
<path d="M2 2H22V22H2V2Z" fill="#FFBE00"/>
<path d="M11.9999 18.1652C17.3181 18.1652 21.6293 15.528 21.6293 12.2748C21.6293 9.02171 17.3181 6.38452 11.9999 6.38452C6.68181 6.38452 2.37061 9.02171 2.37061 12.2748C2.37061 15.528 6.68181 18.1652 11.9999 18.1652Z" fill="#005C87"/>
<path d="M15.1378 15.098C14.4705 15.098 14.0085 14.9533 13.7518 14.664C13.5745 14.4587 13.4858 14.1717 13.4858 13.803C13.4858 13.6443 13.5022 13.474 13.5348 13.292L13.8218 11.682C14.0318 10.5013 14.7902 9.91101 16.0968 9.91101C16.6382 9.91101 17.0488 10.0277 17.3288 10.261C17.6088 10.4897 17.7488 10.8047 17.7488 11.206C17.7488 11.3927 17.7208 11.5793 17.6648 11.766C17.6135 11.948 17.5622 12.0833 17.5108 12.172L17.4338 12.312H16.1948C16.3488 12.1347 16.4258 11.8827 16.4258 11.556C16.4258 11.3833 16.3815 11.248 16.2928 11.15C16.2042 11.0473 16.0735 10.996 15.9008 10.996C15.4295 10.996 15.1495 11.2573 15.0608 11.78L14.8158 13.194C14.7925 13.3153 14.7808 13.4343 14.7808 13.551C14.7808 13.859 14.9652 14.013 15.3338 14.013C15.7772 14.013 16.0432 13.7633 16.1318 13.264H17.3918L17.3568 13.467C17.1702 14.5543 16.4305 15.098 15.1378 15.098Z" fill="white"/>
<path d="M10.9378 9.96002L10.8188 13.775H10.9798L12.1978 9.96002H13.5698L11.8408 15H9.74085L9.92985 11.773L8.99185 15H6.89185L6.94085 9.96002H8.31285L8.18685 13.775H8.34785L9.57285 9.96002H10.9378Z" fill="white"/>
</svg>
