<svg width="24" height="24" viewBox="0 0 24 24" fill="none" xmlns="http://www.w3.org/2000/svg">
<path d="M11.9611 1.5H12.0099C12.2597 1.619 12.5031 1.75118 12.7389 1.896C15.4534 3.457 18.1679 5.0185 20.8824 6.5805C20.9874 6.63656 21.0731 6.72287 21.1285 6.82825C21.1839 6.93363 21.2063 7.05322 21.1929 7.1715C21.1869 10.4633 21.1929 13.7542 21.1891 17.0445C21.1538 17.2015 21.0578 17.3382 20.9221 17.4247C18.0356 19.0868 15.1489 20.7478 12.2619 22.4078C12.1919 22.4611 12.1076 22.4922 12.0198 22.4972C11.9319 22.5021 11.8446 22.4806 11.7691 22.4355C8.87912 20.7785 5.99187 19.1185 3.10737 17.4555C3.01363 17.4112 2.93511 17.3401 2.88172 17.2512C2.82833 17.1623 2.80246 17.0596 2.80737 16.956C2.80737 13.665 2.80737 10.3742 2.80737 7.08375C2.8003 6.98062 2.82414 6.87773 2.87584 6.78822C2.92754 6.69871 3.00476 6.62665 3.09762 6.58125C5.80862 5.02225 8.51962 3.46225 11.2306 1.90125C11.4721 1.76325 11.7091 1.617 11.9611 1.5Z" fill="#019639"/>
<path d="M6.57525 7.9035C6.57525 10.618 6.57525 13.3327 6.57525 16.0477C6.57179 16.1981 6.59832 16.3476 6.65331 16.4876C6.7083 16.6276 6.79063 16.7552 6.8955 16.863C7.09652 17.0616 7.35954 17.1852 7.64069 17.2133C7.92185 17.2415 8.20414 17.1723 8.4405 17.0175C8.59871 16.91 8.72823 16.7654 8.81778 16.5964C8.90732 16.4274 8.95418 16.239 8.95425 16.0477C8.95425 14.0827 8.9505 12.1177 8.95425 10.1527C10.7458 12.2977 12.541 14.4397 14.34 16.5787C14.5899 16.832 14.8995 17.0183 15.2402 17.1208C15.5809 17.2233 15.9419 17.2386 16.29 17.1652C16.5358 17.1168 16.7597 16.9908 16.9285 16.8057C17.0974 16.6206 17.2025 16.3862 17.2283 16.137C17.2323 13.3665 17.2323 10.5962 17.2283 7.82625C17.2024 7.53057 17.0667 7.2553 16.8479 7.05477C16.6291 6.85423 16.3431 6.74299 16.0463 6.74299C15.7494 6.74299 15.4634 6.85423 15.2446 7.05477C15.0258 7.2553 14.8901 7.53057 14.8643 7.82625C14.8643 9.82275 14.8523 11.817 14.8643 13.8127C13.1048 11.7382 11.367 9.64575 9.61425 7.56375C9.38317 7.26744 9.07725 7.03813 8.72803 6.89944C8.3788 6.76075 7.9989 6.71771 7.6275 6.77475C7.34615 6.80607 7.08532 6.93714 6.89229 7.14421C6.69925 7.35128 6.58678 7.62064 6.57525 7.9035Z" fill="white"/>
</svg>
