<svg width="24" height="24" viewBox="0 0 24 24" fill="none" xmlns="http://www.w3.org/2000/svg">
<g clip-path="url(#clip0_996_91)">
<path d="M2 2H22V22H2V2Z" fill="#FFBE00"/>
<path d="M11.9999 18.1652C17.3181 18.1652 21.6293 15.528 21.6293 12.2749C21.6293 9.02172 17.3181 6.38453 11.9999 6.38453C6.68181 6.38453 2.37061 9.02172 2.37061 12.2749C2.37061 15.528 6.68181 18.1652 11.9999 18.1652Z" fill="#005C87"/>
<path d="M14.0575 15.098C13.3948 15.098 12.9375 14.944 12.6855 14.636C12.5128 14.4213 12.4265 14.1273 12.4265 13.754C12.4265 13.5813 12.4452 13.3923 12.4825 13.187L12.7275 11.787C12.9468 10.5363 13.7122 9.911 15.0235 9.911C15.5648 9.911 15.9755 10.0277 16.2555 10.261C16.5355 10.4897 16.6755 10.8047 16.6755 11.206C16.6755 11.3693 16.6522 11.535 16.6055 11.703C16.5635 11.871 16.5215 11.997 16.4795 12.081L16.4095 12.207H15.1705C15.2918 12.039 15.3525 11.8453 15.3525 11.626C15.3525 11.206 15.1775 10.996 14.8275 10.996C14.3562 10.996 14.0738 11.269 13.9805 11.815L13.7425 13.159C13.7192 13.285 13.7075 13.4087 13.7075 13.53C13.7075 13.852 13.8965 14.013 14.2745 14.013C14.6572 14.013 14.9022 13.8217 15.0095 13.439H14.4355L14.5755 12.662H16.4305L16.3185 13.264L16.2835 13.467C16.0875 14.5543 15.3455 15.098 14.0575 15.098Z" fill="white"/>
<path d="M12.1937 9.96L11.3117 15H10.0447L9.16268 12.242L8.68668 15H7.41968L8.30868 9.96H9.61068L10.4787 12.536L10.9337 9.96H12.1937Z" fill="white"/>
</g>
<defs>
<clipPath id="clip0_996_91">
<rect width="20" height="20" fill="white" transform="translate(2 2)"/>
</clipPath>
</defs>
</svg>
