<svg width="241" height="240" viewBox="0 0 241 240" fill="none" xmlns="http://www.w3.org/2000/svg">
<path d="M117.5 62.5H217.5V107.5H117.5V62.5Z" fill="#B6DCFE"/>
<path d="M215 65V105H120V65H215ZM220 60H115V110H220V60Z" fill="#4788C7"/>
<path d="M117.5 132.5H217.5V177.5H117.5V132.5Z" fill="#B6DCFE"/>
<path d="M215 135V175H120V135H215ZM220 130H115V180H220V130Z" fill="#4788C7"/>
<path d="M56.34 197.5L47.5 184.245V107.5H40C30.35 107.5 22.5 99.65 22.5 90V60C22.5 50.35 30.35 42.5 40 42.5H85C94.65 42.5 102.5 50.35 102.5 60V90C102.5 99.65 94.65 107.5 85 107.5H77.5V128.965L72.5 133.965V141.035L77.5 146.035V153.965L72.5 158.965V166.035L77.5 171.035V184.245L68.66 197.5H56.34ZM45 57.5C40.865 57.5 37.5 60.865 37.5 65V70C37.5 74.135 40.865 77.5 45 77.5H80C84.135 77.5 87.5 74.135 87.5 70V65C87.5 60.865 84.135 57.5 80 57.5H45Z" fill="#DFF0FE"/>
<path d="M85 45C93.27 45 100 51.73 100 60V90C100 98.27 93.27 105 85 105H75V127.93L70 132.93V142.07L75 147.07V152.93L70 157.93V167.07L75 172.07V183.485L67.325 195H57.675L50 183.485V105H40C31.73 105 25 98.27 25 90V60C25 51.73 31.73 45 40 45H85ZM45 80H80C85.515 80 90 75.515 90 70V65C90 59.485 85.515 55 80 55H45C39.485 55 35 59.485 35 65V70C35 75.515 39.485 80 45 80ZM85 40H40C28.955 40 20 48.955 20 60V90C20 101.045 28.955 110 40 110H45V185L55 200H70L80 185V170L75 165V160L80 155V145L75 140V135L80 130V110H85C96.045 110 105 101.045 105 90V60C105 48.955 96.045 40 85 40ZM45 75C42.24 75 40 72.76 40 70V65C40 62.24 42.24 60 45 60H80C82.76 60 85 62.24 85 65V70C85 72.76 82.76 75 80 75H45Z" fill="#4788C7"/>
<path d="M60 195V110H55V190.985L57.675 195H60Z" fill="#98CCFD"/>
<path d="M57.5 130C56.125 130 55 128.875 55 127.5V107.5C55 106.125 56.125 105 57.5 105C58.875 105 60 106.125 60 107.5V127.5C60 128.875 58.875 130 57.5 130Z" fill="#98CCFD"/>
</svg>
