<svg width="24" height="24" viewBox="0 0 24 24" fill="none" xmlns="http://www.w3.org/2000/svg">
<path d="M21.9471 14.3516C21.8269 13.9876 21.512 13.734 21.1047 13.6731C20.9127 13.6444 20.6928 13.6567 20.4326 13.7103C19.979 13.8039 19.6425 13.8395 19.3969 13.8464C20.3239 12.2813 21.0776 10.4966 21.5116 8.81651C22.2132 6.09997 21.8383 4.86241 21.4001 4.30259C20.2406 2.82098 18.5488 2.02499 16.5078 2.00059C15.419 1.9873 14.4632 2.20227 13.9646 2.35682C13.5004 2.27496 13.0012 2.22922 12.4774 2.22075C11.4956 2.2051 10.6282 2.4191 9.88694 2.85895C9.47649 2.72023 8.81796 2.52461 8.05738 2.39974C6.26852 2.10606 4.82682 2.33492 3.77229 3.0799C2.49532 3.98192 1.90333 5.54909 2.01283 7.73794C2.04755 8.43291 2.43634 10.5473 3.04843 12.5526C3.40022 13.7052 3.77534 14.6623 4.16339 15.3977C4.71367 16.4404 5.30247 17.0545 5.9635 17.275C6.33404 17.3985 7.0072 17.4849 7.71527 16.8953C7.805 17.0039 7.92469 17.1119 8.08364 17.2122C8.28541 17.3395 8.53219 17.4435 8.7786 17.5051C9.66678 17.7272 10.4987 17.6716 11.2084 17.3604C11.2128 17.4866 11.2162 17.6072 11.219 17.7114C11.2238 17.8803 11.2284 18.0459 11.2346 18.2008C11.2766 19.2482 11.3479 20.0626 11.559 20.6324C11.5706 20.6638 11.5862 20.7115 11.6027 20.7621C11.708 21.0846 11.8842 21.6245 12.3322 22.0473C12.7963 22.4853 13.3575 22.6197 13.8716 22.6196C14.1294 22.6196 14.3753 22.5858 14.5911 22.5396C15.3602 22.3748 16.2336 22.1236 16.8654 21.224C17.4627 20.3735 17.7531 19.0926 17.8056 17.0742C17.8125 17.0171 17.8187 16.9626 17.8248 16.9107C17.8289 16.8756 17.8331 16.8398 17.8373 16.8041L17.978 16.8164L18.0143 16.8189C18.7976 16.8546 19.7554 16.6884 20.3436 16.4152C20.8084 16.1995 22.2978 15.4132 21.9471 14.3516Z" fill="black"/>
<path d="M20.6078 14.5581C18.2788 15.0385 18.1187 14.2499 18.1187 14.2499C20.5777 10.6011 21.6057 5.96945 20.7186 4.83588C18.2984 1.74371 14.1091 3.20611 14.0392 3.24408L14.0167 3.2481C13.5566 3.15259 13.0416 3.09568 12.4628 3.08624C11.409 3.06897 10.6096 3.36251 10.003 3.82251C10.003 3.82251 2.52966 0.743764 2.87724 7.6946C2.95118 9.17335 4.99668 18.8834 7.43648 15.9505C8.32822 14.8781 9.18983 13.9713 9.18983 13.9713C9.61778 14.2556 10.1301 14.4006 10.6672 14.3485L10.7089 14.3131C10.6959 14.4462 10.7019 14.5765 10.7256 14.7306C10.0971 15.4329 10.2818 15.5562 9.02532 15.8148C7.75396 16.0768 8.50083 16.5433 8.98847 16.6652C9.57963 16.813 10.9473 17.0225 11.8714 15.7288L11.8345 15.8764C12.0808 16.0737 12.2538 17.1595 12.2248 18.1437C12.1958 19.128 12.1764 19.8038 12.3705 20.3316C12.5645 20.8594 12.7579 22.047 14.4096 21.6931C15.7898 21.3973 16.505 20.6309 16.6045 19.3524C16.6751 18.4435 16.8349 18.5778 16.845 17.7652L16.9731 17.3805C17.1209 16.1484 16.9966 15.7509 17.8469 15.9358L18.0536 15.9539C18.6794 15.9824 19.4985 15.8533 19.9792 15.6298C21.0144 15.1494 21.6284 14.3473 20.6077 14.5581H20.6078Z" fill="#336791"/>
<path d="M10.4404 8.35591C10.2306 8.3267 10.0405 8.35374 9.94433 8.42652C9.8902 8.4675 9.87349 8.51495 9.869 8.54764C9.85691 8.63418 9.91757 8.72983 9.95479 8.77919C10.0602 8.91888 10.2142 9.0149 10.3666 9.03606C10.3887 9.03912 10.4106 9.0406 10.4325 9.0406C10.6867 9.0406 10.9177 8.84271 10.9381 8.69664C10.9635 8.5137 10.698 8.39175 10.4404 8.35591Z" fill="white"/>
<path d="M17.3935 8.3617C17.3735 8.21831 17.1182 8.17742 16.8761 8.21108C16.6343 8.24479 16.3998 8.35392 16.4194 8.49764C16.4351 8.60941 16.6368 8.80021 16.8757 8.80016C16.8959 8.80016 16.9163 8.79882 16.9368 8.79595C17.0962 8.77387 17.2132 8.67261 17.2688 8.61422C17.3535 8.52533 17.4024 8.42615 17.3935 8.3617Z" fill="white"/>
<path d="M21.3828 14.5035C21.294 14.2349 21.0082 14.1485 20.5333 14.2466C19.1232 14.5376 18.6183 14.336 18.4524 14.2139C19.5485 12.5442 20.4501 10.5261 20.9364 8.64297C21.1669 7.751 21.2942 6.92264 21.3045 6.24749C21.316 5.50631 21.1899 4.96177 20.9295 4.6291C19.8799 3.28797 18.3396 2.5686 16.4749 2.54883C15.193 2.53443 14.11 2.86251 13.9 2.95475C13.4578 2.84478 12.9758 2.77728 12.4511 2.76866C11.4887 2.75311 10.6569 2.9835 9.96822 3.45308C9.66907 3.34177 8.89595 3.07638 7.95054 2.92409C6.31595 2.66088 5.01709 2.86029 4.09016 3.51697C2.98413 4.30056 2.47353 5.70124 2.57248 7.68002C2.60577 8.34582 2.98506 10.3938 3.58372 12.3552C4.37171 14.9367 5.22822 16.3981 6.1295 16.6987C6.23498 16.7339 6.35665 16.7585 6.49074 16.7585C6.81952 16.7585 7.22256 16.6103 7.64195 16.1061C8.33854 15.2681 8.98892 14.5659 9.22866 14.3107C9.58295 14.5009 9.97211 14.6071 10.3702 14.6177C10.3709 14.6281 10.372 14.6385 10.3729 14.6489C10.2931 14.7436 10.2275 14.8267 10.1717 14.8975C9.8959 15.2477 9.83849 15.3206 8.95063 15.5034C8.69811 15.5555 8.02726 15.6937 8.01749 16.1639C8.0068 16.6776 8.81034 16.8934 8.90192 16.9162C9.22098 16.9961 9.52832 17.0355 9.82145 17.0355C10.5344 17.0355 11.1617 16.8012 11.6631 16.3479C11.6476 18.1793 11.724 19.9839 11.9439 20.5338C12.124 20.9839 12.564 22.084 13.9538 22.0839C14.1576 22.0839 14.3821 22.0602 14.629 22.0072C16.0794 21.6962 16.7093 21.0552 16.953 19.6419C17.0833 18.8866 17.3071 17.083 17.4123 16.1155C17.6344 16.1848 17.9204 16.2165 18.2295 16.2165C18.8741 16.2165 19.618 16.0795 20.0845 15.863C20.6085 15.6196 21.5543 15.0223 21.3828 14.5035ZM17.9287 7.96588C17.9239 8.25151 17.8846 8.51079 17.8429 8.78146C17.7981 9.07255 17.7517 9.3735 17.7401 9.73886C17.7285 10.0944 17.7729 10.4641 17.8159 10.8215C17.9027 11.5435 17.9917 12.2869 17.647 13.0203C17.5934 12.9252 17.5417 12.8214 17.4943 12.7064C17.4515 12.6026 17.3584 12.4358 17.2297 12.2049C16.7285 11.3062 15.555 9.20164 16.1558 8.34286C16.3347 8.08719 16.7888 7.82443 17.9287 7.96588ZM16.547 3.12721C18.2177 3.16412 19.5392 3.78912 20.475 4.98478C21.1926 5.9019 20.4024 10.075 18.1146 13.675C18.092 13.6463 18.069 13.6173 18.0452 13.5876C18.0357 13.5757 18.0261 13.5636 18.0163 13.5514C18.6074 12.5751 18.4918 11.6091 18.389 10.7527C18.3467 10.4012 18.3068 10.0692 18.3169 9.75742C18.3274 9.42684 18.3711 9.14344 18.4134 8.86934C18.4654 8.53153 18.5182 8.18206 18.5036 7.77003C18.5145 7.72683 18.5189 7.67576 18.5132 7.61515C18.476 7.22003 18.0249 6.03765 17.1055 4.96733C16.6026 4.382 15.8692 3.7269 14.8678 3.28505C15.2985 3.19578 15.8875 3.11254 16.547 3.12721ZM7.19816 15.7371C6.73613 16.2926 6.41703 16.1862 6.31211 16.1512C5.62839 15.9231 4.83513 14.4782 4.13572 12.1867C3.53052 10.204 3.17684 8.21025 3.14887 7.65117C3.06048 5.88306 3.48909 4.65077 4.42283 3.98859C5.9424 2.91094 8.44077 3.55596 9.44465 3.88311C9.43021 3.89733 9.41521 3.91066 9.4009 3.92511C7.75358 5.58882 7.79266 8.43129 7.79669 8.60501C7.79655 8.67205 7.80215 8.76697 7.80988 8.89753C7.83822 9.37559 7.89095 10.2654 7.75006 11.2731C7.61908 12.2094 7.90771 13.126 8.54184 13.7876C8.6075 13.8561 8.67602 13.9204 8.74682 13.9809C8.46452 14.2832 7.85109 14.9516 7.19816 15.7371ZM8.95855 13.3883C8.44744 12.855 8.21533 12.1132 8.32164 11.353C8.47045 10.2885 8.41549 9.36142 8.386 8.86336C8.38188 8.79368 8.37822 8.73261 8.37604 8.68441C8.61671 8.47106 9.73195 7.87346 10.5272 8.0557C10.8902 8.13886 11.1113 8.38596 11.2033 8.81109C11.6792 11.0119 11.2663 11.9292 10.9346 12.6663C10.8662 12.8182 10.8016 12.9617 10.7464 13.1102L10.7037 13.225C10.5954 13.5153 10.4947 13.7851 10.4323 14.0414C9.889 14.0397 9.36043 13.8076 8.95855 13.3883ZM9.04193 16.3563C8.88331 16.3167 8.74061 16.2479 8.6569 16.1908C8.72681 16.1578 8.85127 16.1131 9.06708 16.0687C10.1116 15.8536 10.2728 15.7019 10.6251 15.2546C10.7059 15.1521 10.7974 15.0358 10.9242 14.8943L10.9243 14.8941C11.1132 14.6827 11.1995 14.7185 11.3562 14.7835C11.4831 14.836 11.6067 14.9951 11.6569 15.1702C11.6806 15.2529 11.7073 15.4099 11.6201 15.532C10.8842 16.5623 9.812 16.549 9.04193 16.3563ZM14.5081 21.4429C13.2303 21.7167 12.7779 21.0648 12.4798 20.3195C12.2874 19.8383 12.1928 17.6685 12.2599 15.2724C12.2608 15.2405 12.2562 15.2097 12.2474 15.1808C12.2398 15.1249 12.228 15.0684 12.2117 15.0114C12.1119 14.6628 11.8688 14.3712 11.5771 14.2503C11.4612 14.2023 11.2485 14.1141 10.9928 14.1795C11.0474 13.9549 11.1419 13.7013 11.2444 13.4267L11.2874 13.3111C11.3358 13.1809 11.3965 13.046 11.4608 12.9032C11.808 12.1319 12.2834 11.0755 11.7674 8.68909C11.5741 7.79526 10.9287 7.35879 9.95021 7.46014C9.36358 7.52084 8.82696 7.75753 8.5593 7.89323C8.50175 7.9224 8.4491 7.95055 8.39993 7.97801C8.47462 7.07738 8.75691 5.39431 9.81274 4.32945C10.4775 3.65902 11.3628 3.32793 12.4415 3.34575C14.567 3.38057 15.9299 4.47131 16.6991 5.38024C17.3619 6.1635 17.7208 6.95246 17.864 7.37796C16.7869 7.26846 16.0543 7.48111 15.6828 8.01204C14.8749 9.16696 16.1249 11.4086 16.7256 12.486C16.8358 12.6834 16.9309 12.854 16.9608 12.9265C17.1564 13.4007 17.4097 13.7172 17.5946 13.9483C17.6513 14.019 17.7063 14.0877 17.7481 14.1477C17.4218 14.2418 16.8358 14.459 16.8892 15.5453C16.8461 16.0904 16.5398 18.6423 16.3842 19.5439C16.1789 20.735 15.7405 21.1787 14.5081 21.4429ZM19.8415 15.3395C19.5079 15.4944 18.9496 15.6105 18.4192 15.6354C17.8334 15.6629 17.5353 15.5698 17.4651 15.5126C17.4322 14.8357 17.6842 14.7649 17.9508 14.6901C17.9927 14.6783 18.0336 14.6668 18.073 14.653C18.0976 14.673 18.1244 14.6928 18.1538 14.7122C18.6247 15.023 19.4645 15.0565 20.65 14.8118C20.6543 14.8109 20.6587 14.81 20.663 14.8092C20.5031 14.9587 20.2295 15.1593 19.8415 15.3395Z" fill="white"/>
</svg>
