<svg width="241" height="240" viewBox="0 0 241 240" fill="none" xmlns="http://www.w3.org/2000/svg">
<path d="M219.766 143.516C218.564 139.876 215.415 137.34 211.342 136.731C209.422 136.444 207.223 136.567 204.621 137.103C200.085 138.039 196.72 138.395 194.264 138.464C203.534 122.813 211.071 104.966 215.411 88.1651C222.427 60.9997 218.678 48.6241 214.296 43.0259C202.701 28.2098 185.783 20.2499 165.373 20.0059C154.485 19.873 144.927 22.0227 139.941 23.5682C135.299 22.7496 130.306 22.2922 125.069 22.2075C115.251 22.051 106.577 24.191 99.1644 28.5895C95.0599 27.2023 88.4746 25.2461 80.8688 23.9974C62.9802 21.0606 48.5632 23.3492 38.0179 30.799C25.2482 39.8192 19.3283 55.4909 20.4233 77.3794C20.7705 84.3291 24.6583 105.473 30.7793 125.526C34.2972 137.052 38.0484 146.623 41.9288 153.977C47.4316 164.404 53.3197 170.545 59.93 172.75C63.6354 173.985 70.367 174.849 77.4477 168.953C78.345 170.039 79.5419 171.119 81.1313 172.122C83.1491 173.395 85.6169 174.435 88.081 175.051C96.9628 177.272 105.282 176.716 112.379 173.604C112.423 174.866 112.457 176.072 112.485 177.114C112.533 178.803 112.579 180.459 112.641 182.008C113.061 192.482 113.774 200.626 115.885 206.324C116.001 206.638 116.157 207.115 116.322 207.621C117.375 210.846 119.137 216.245 123.617 220.473C128.258 224.853 133.87 226.197 139.01 226.196C141.588 226.196 144.048 225.858 146.206 225.396C153.897 223.748 162.631 221.236 168.949 212.24C174.922 203.735 177.826 190.926 178.351 170.742C178.419 170.171 178.482 169.626 178.543 169.107C178.584 168.756 178.626 168.398 178.668 168.041L180.075 168.164L180.438 168.189C188.271 168.546 197.849 166.884 203.73 164.152C208.379 161.995 223.272 154.132 219.766 143.516Z" fill="black"/>
<path d="M206.372 145.581C183.082 150.385 181.481 142.499 181.481 142.499C206.072 106.011 216.351 59.6945 207.48 48.3588C183.279 17.4371 141.386 32.0611 140.686 32.4408L140.461 32.481C135.86 31.5259 130.711 30.9568 124.923 30.8624C114.385 30.6897 106.391 33.6251 100.325 38.2251C100.325 38.2251 25.5912 7.43763 29.0669 76.946C29.8063 91.7335 50.2614 188.834 74.6593 159.505C83.5768 148.781 92.1928 139.713 92.1928 139.713C96.4724 142.555 101.596 144.006 106.966 143.485L107.384 143.131C107.254 144.462 107.313 145.765 107.551 147.306C101.265 154.329 103.112 155.562 90.5478 158.148C77.8342 160.768 85.3029 165.433 90.1792 166.652C96.0909 168.13 109.768 170.225 119.009 157.288L118.64 158.764C121.103 160.737 122.832 171.595 122.542 181.437C122.252 191.28 122.059 198.038 123.999 203.316C125.94 208.594 127.874 220.47 144.391 216.931C158.193 213.973 165.345 206.309 166.34 193.524C167.046 184.435 168.643 185.778 168.744 177.652L170.026 173.805C171.504 161.484 170.261 157.509 178.764 159.358L180.83 159.539C187.089 159.824 195.28 158.533 200.087 156.298C210.439 151.494 216.579 143.473 206.372 145.581Z" fill="#336791"/>
<path d="M104.7 83.5591C102.601 83.267 100.7 83.5374 99.7387 84.2652C99.1974 84.675 99.0303 85.1495 98.9854 85.4764C98.8645 86.3418 99.4711 87.2983 99.8433 87.7919C100.897 89.1888 102.437 90.149 103.961 90.3606C104.182 90.3912 104.402 90.406 104.62 90.406C107.162 90.406 109.472 88.4271 109.676 86.9664C109.931 85.137 107.275 83.9175 104.7 83.5591Z" fill="white"/>
<path d="M174.229 83.617C174.029 82.1831 171.477 81.7742 169.055 82.1108C166.638 82.4479 164.292 83.5392 164.488 84.9764C164.646 86.0941 166.663 88.0021 169.052 88.0016C169.253 88.0016 169.457 87.9882 169.662 87.9595C171.257 87.7387 172.427 86.7261 172.983 86.1422C173.829 85.2532 174.319 84.2615 174.229 83.617Z" fill="white"/>
<path d="M214.122 145.035C213.234 142.349 210.376 141.485 205.627 142.466C191.527 145.376 186.477 143.36 184.819 142.139C195.779 125.442 204.795 105.261 209.659 86.4297C211.963 77.51 213.236 69.2264 213.34 62.4749C213.455 55.0631 212.193 49.6177 209.59 46.291C199.094 32.8797 183.69 25.686 165.044 25.4883C152.225 25.3443 141.394 28.6251 139.295 29.5474C134.873 28.4478 130.052 27.7728 124.805 27.6866C115.182 27.5311 106.864 29.835 99.9767 34.5308C96.9852 33.4177 89.254 30.7638 79.7999 29.2409C63.454 26.6088 50.4654 28.6029 41.1961 35.1697C30.1359 43.0056 25.0299 57.0124 26.0193 76.8002C26.3522 83.4582 30.1451 103.938 36.1318 123.552C44.0116 149.367 52.5767 163.981 61.5895 166.987C62.6443 167.339 63.861 167.585 65.2019 167.585C68.4897 167.585 72.5201 166.103 76.714 161.061C83.6799 152.681 90.1837 145.659 92.5811 143.107C96.124 145.009 100.016 146.071 103.997 146.177C104.004 146.281 104.015 146.385 104.024 146.489C103.225 147.436 102.57 148.267 102.012 148.975C99.2535 152.477 98.6794 153.206 89.8008 155.034C87.2756 155.555 80.5671 156.937 80.4694 161.639C80.3625 166.776 88.3979 168.934 89.3137 169.162C92.5043 169.961 95.5777 170.355 98.509 170.355C105.638 170.355 111.912 168.012 116.925 163.479C116.771 181.793 117.535 199.839 119.734 205.338C121.534 209.839 125.934 220.84 139.832 220.839C141.871 220.839 144.116 220.602 146.585 220.072C161.089 216.962 167.387 210.552 169.824 196.419C171.128 188.866 173.366 170.83 174.417 161.155C176.639 161.848 179.498 162.165 182.589 162.165C189.036 162.165 196.475 160.795 201.14 158.63C206.38 156.196 215.837 150.223 214.122 145.035ZM179.582 79.6588C179.534 82.5151 179.141 85.1079 178.724 87.8146C178.276 90.7255 177.812 93.735 177.695 97.3886C177.58 100.944 178.024 104.641 178.453 108.215C179.321 115.435 180.212 122.869 176.764 130.203C176.229 129.252 175.712 128.214 175.237 127.064C174.809 126.026 173.879 124.358 172.591 122.049C167.58 113.062 155.845 92.0163 161.852 83.4286C163.641 80.8719 168.182 78.2443 179.582 79.6588ZM165.764 31.2721C182.471 31.6411 195.687 37.8912 205.044 49.8478C212.221 59.019 204.318 100.75 181.441 136.75C181.215 136.463 180.985 136.173 180.747 135.876C180.652 135.757 180.555 135.636 180.457 135.514C186.369 125.751 185.213 116.091 184.184 107.527C183.761 104.012 183.362 100.692 183.464 97.5742C183.569 94.2684 184.006 91.4344 184.428 88.6934C184.948 85.3153 185.476 81.8205 185.33 77.7003C185.439 77.2683 185.483 76.7576 185.426 76.1515C185.054 72.2003 180.543 60.3765 171.349 49.6733C166.32 43.82 158.986 37.269 148.972 32.8505C153.28 31.9578 159.17 31.1254 165.764 31.2721ZM72.2761 157.371C67.6558 162.926 64.4648 161.862 63.4156 161.512C56.5785 159.231 48.6458 144.782 41.6517 121.867C35.5998 102.04 32.0629 82.1025 31.7832 76.5117C30.8993 58.8306 35.1854 46.5077 44.5228 39.8859C59.7185 29.1094 84.7022 35.5595 94.7411 38.8311C94.5966 38.9733 94.4466 39.1066 94.3035 39.2511C77.8303 55.8882 78.2211 84.3129 78.2614 86.0501C78.26 86.7205 78.316 87.6697 78.3933 88.9753C78.6767 93.7559 79.204 102.654 77.7951 112.731C76.4853 122.094 79.3716 131.26 85.7129 137.876C86.3695 138.561 87.0547 139.204 87.7627 139.809C84.9397 142.832 78.8054 149.516 72.2761 157.371ZM89.88 133.883C84.7689 128.55 82.4478 121.132 83.5109 113.53C84.999 102.885 84.4494 93.6142 84.1545 88.6336C84.1133 87.9368 84.0767 87.3261 84.0549 86.8441C86.4616 84.7106 97.614 78.7346 105.567 80.557C109.197 81.3886 111.408 83.8596 112.327 88.1109C117.086 110.119 112.957 119.292 109.64 126.663C108.956 128.182 108.31 129.617 107.758 131.102L107.331 132.25C106.249 135.153 105.242 137.851 104.617 140.414C99.1845 140.397 93.8989 138.076 89.88 133.883ZM90.7138 163.563C89.1276 163.167 87.7006 162.479 86.8635 161.908C87.5626 161.578 88.8072 161.131 90.9653 160.687C101.41 158.536 103.023 157.019 106.545 152.546C107.353 151.521 108.269 150.358 109.536 148.943C111.425 146.829 112.29 147.185 113.856 147.835C115.126 148.36 116.362 149.951 116.863 151.702C117.1 152.529 117.367 154.099 116.495 155.32C109.137 165.623 98.4145 165.49 90.7138 163.563ZM145.375 214.429C132.598 217.167 128.074 210.648 125.092 203.195C123.168 198.383 122.223 176.685 122.894 152.724C122.902 152.405 122.857 152.097 122.769 151.808C122.693 151.249 122.575 150.684 122.412 150.114C121.414 146.628 118.983 143.712 116.066 142.503C114.907 142.023 112.779 141.141 110.223 141.795C110.768 139.549 111.714 137.013 112.738 134.267L113.169 133.111C113.653 131.809 114.26 130.46 114.903 129.032C118.374 121.319 123.129 110.755 117.969 86.8909C116.036 77.9526 109.581 73.5879 99.7966 74.6014C93.9303 75.2084 88.5641 77.5753 85.8875 78.9323C85.312 79.224 84.7856 79.5055 84.2938 79.7801C85.0407 70.7737 87.8636 53.9431 98.4219 43.2945C105.069 36.5902 113.923 33.2793 124.71 33.4575C145.964 33.8057 159.594 44.7131 167.285 53.8023C173.913 61.635 177.502 69.5246 178.935 73.7796C168.163 72.6846 160.837 74.8111 157.123 80.1204C149.043 91.6696 161.543 114.086 167.551 124.859C168.652 126.834 169.603 128.54 169.902 129.265C171.858 134.007 174.391 137.172 176.24 139.483C176.807 140.19 177.357 140.877 177.775 141.477C174.513 142.418 168.653 144.59 169.186 155.453C168.756 160.904 165.693 186.423 164.137 195.439C162.083 207.35 157.7 211.787 145.375 214.429ZM198.709 153.395C195.373 154.944 189.791 156.105 184.487 156.354C178.629 156.629 175.647 155.698 174.946 155.126C174.616 148.357 177.136 147.649 179.803 146.901C180.222 146.783 180.631 146.668 181.025 146.53C181.27 146.73 181.539 146.928 181.833 147.122C186.541 150.23 194.939 150.565 206.794 148.118C206.838 148.109 206.881 148.1 206.924 148.092C205.326 149.587 202.589 151.593 198.709 153.395Z" fill="white"/>
</svg>
