<svg width="24" height="24" viewBox="0 0 24 24" fill="none" xmlns="http://www.w3.org/2000/svg">
<path d="M20.007 18.0495C19.857 17.8815 19.788 17.571 19.7115 17.2395C19.6365 16.9095 19.551 16.554 19.2795 16.3245V16.323C19.1804 16.2372 19.0672 16.1692 18.945 16.122C19.323 15.0045 19.1745 13.8915 18.795 12.8865C18.327 11.652 17.5125 10.5765 16.89 9.8415C16.194 8.9625 15.513 8.1285 15.525 6.897C15.546 5.016 15.732 1.5285 12.423 1.524C12.288 1.524 12.1485 1.53 12.003 1.542C8.30396 1.839 9.28496 5.7465 9.22946 7.0545C9.16196 8.0115 8.96846 8.7645 8.30996 9.7005C7.53746 10.62 6.44996 12.1065 5.93396 13.656C5.69096 14.3865 5.57396 15.132 5.68196 15.837C5.64746 15.867 5.61596 15.8985 5.58596 15.9315C5.35946 16.173 5.19146 16.467 5.00396 16.665C4.82996 16.839 4.58096 16.905 4.30796 17.0025C4.03346 17.1015 3.73346 17.2455 3.55196 17.595V17.5965C3.47144 17.7536 3.43172 17.9285 3.43646 18.105C3.43646 18.267 3.46046 18.4305 3.48446 18.588C3.53546 18.918 3.58646 19.2285 3.51896 19.4385C3.30296 20.031 3.27446 20.439 3.42746 20.736C3.58046 21.0345 3.89246 21.165 4.24796 21.2385C4.95746 21.3885 5.91896 21.351 6.67646 21.7515C7.48646 22.176 8.30996 22.326 8.96546 22.1775C9.19466 22.1325 9.41001 22.0341 9.59402 21.8902C9.77803 21.7463 9.9255 21.5611 10.0245 21.3495C10.5375 21.3465 11.1 21.1305 12.0015 21.0795C12.6135 21.0315 13.3785 21.297 14.256 21.249C14.2787 21.3443 14.313 21.4365 14.358 21.5235L14.3595 21.525C14.7 22.2075 15.3345 22.518 16.0095 22.4655C16.6845 22.4115 17.4015 22.014 17.982 21.3225C18.537 20.6505 19.455 20.373 20.064 20.0055C20.3685 19.821 20.616 19.5915 20.634 19.257C20.6535 18.924 20.457 18.5505 20.007 18.0495Z" fill="#202020"/>
<path d="M20.3565 19.242C20.346 19.4475 20.196 19.602 19.9215 19.767C19.3695 20.1 18.393 20.388 17.7705 21.144C17.2275 21.789 16.5675 22.1415 15.9855 22.188C15.405 22.233 14.904 21.993 14.607 21.399V21.396C14.4225 21.0465 14.499 20.496 14.6535 19.9155C14.808 19.335 15.03 18.738 15.06 18.2535C15.09 17.631 15.126 17.088 15.231 16.6695C15.336 16.2495 15.4995 15.9675 15.7905 15.807C15.8039 15.7998 15.8174 15.7928 15.831 15.786C15.864 16.3245 16.131 16.8735 16.602 16.992C17.1165 17.127 17.859 16.686 18.1725 16.3245L18.3555 16.3185C18.6315 16.311 18.861 16.3275 19.098 16.533C19.2795 16.686 19.3665 16.9785 19.4415 17.3025C19.5165 17.628 19.5765 17.982 19.8 18.234C20.2305 18.714 20.37 19.035 20.3565 19.242ZM9.88804 20.7645V20.769C9.83704 21.4215 9.46804 21.777 8.90404 21.906C8.33854 22.035 7.57204 21.906 6.80704 21.507C5.95954 21.057 4.95154 21.102 4.30654 20.967C3.98254 20.8995 3.77104 20.7975 3.67504 20.61C3.57904 20.421 3.57604 20.0925 3.78154 19.53V19.5285L3.78304 19.5255C3.88504 19.212 3.81004 18.8685 3.76054 18.546C3.71104 18.225 3.68704 17.931 3.79654 17.727L3.79804 17.7255C3.93904 17.454 4.14604 17.3565 4.40254 17.265C4.65754 17.172 4.96204 17.1 5.20204 16.86L5.20354 16.8585C5.42554 16.623 5.59504 16.329 5.79004 16.1205C5.95504 15.945 6.12004 15.828 6.36754 15.8265H6.37504C6.42177 15.8269 6.46841 15.8309 6.51454 15.8385C6.84454 15.888 7.13104 16.119 7.40854 16.494L8.20804 17.9505V17.952C8.42104 18.396 8.86954 18.885 9.25054 19.383C9.63154 19.8825 9.92554 20.382 9.88804 20.7645Z" fill="#F8BF11"/>
<path d="M13.875 7.182C13.8105 7.056 13.68 6.936 13.455 6.8445C12.99 6.645 12.789 6.6315 12.5295 6.4635C12.1095 6.192 11.76 6.0975 11.4705 6.0975C11.3316 6.09817 11.1937 6.122 11.0625 6.168C10.7085 6.288 10.4745 6.543 10.3275 6.681C10.2975 6.7095 10.2615 6.7335 10.1715 6.801C10.0815 6.8655 9.94655 6.966 9.75155 7.113C9.57605 7.242 9.52055 7.413 9.58055 7.611C9.64055 7.809 9.83105 8.0385 10.1805 8.2365C10.398 8.364 10.548 8.5365 10.719 8.673C10.8049 8.74439 10.9004 8.80346 11.0025 8.8485C11.1105 8.895 11.2365 8.9265 11.3925 8.9355C11.7645 8.958 12.0375 8.8455 12.2775 8.709C12.5175 8.571 12.7215 8.403 12.9555 8.3265C13.4355 8.1765 13.779 7.875 13.887 7.587C13.9143 7.5226 13.9273 7.45308 13.9253 7.38319C13.9232 7.31329 13.9061 7.24467 13.875 7.182Z" fill="#D6A312"/>
<path d="M12.6569 7.89C12.2744 8.0895 11.8289 8.331 11.3534 8.331C10.8794 8.331 10.5044 8.112 10.2359 7.8975C10.1009 7.7925 9.99145 7.6845 9.90895 7.608C9.76495 7.4955 9.78295 7.3365 9.84145 7.341C9.94045 7.353 9.95545 7.4835 10.0169 7.542C10.1009 7.62 10.2059 7.722 10.3334 7.8225C10.5884 8.025 10.9289 8.2215 11.3534 8.2215C11.7794 8.2215 12.2744 7.9725 12.5774 7.8015C12.7499 7.7055 12.9674 7.533 13.1459 7.4025C13.2809 7.302 13.2764 7.182 13.3889 7.1955C13.5014 7.209 13.4189 7.329 13.2614 7.4655C13.1039 7.6035 12.8564 7.7865 12.6569 7.89Z" fill="#202020"/>
<path d="M18.5055 16.041C18.4535 16.0394 18.4015 16.0394 18.3495 16.041H18.3345C18.4665 15.6255 18.1755 15.321 17.403 14.9715C16.602 14.619 15.963 14.6535 15.855 15.369C15.8475 15.4065 15.8415 15.444 15.8385 15.483C15.7764 15.505 15.7162 15.5321 15.6585 15.564C15.2805 15.7695 15.075 16.143 14.961 16.602C14.847 17.0595 14.814 17.613 14.7825 18.237C14.763 18.549 14.634 18.972 14.5035 19.422C13.191 20.358 11.3685 20.763 9.82049 19.707C9.71549 19.542 9.59549 19.377 9.47099 19.215C9.39195 19.1118 9.31195 19.0092 9.23099 18.9075C9.36878 18.9112 9.50579 18.8856 9.63299 18.8325C9.69654 18.8058 9.75403 18.7666 9.80198 18.7171C9.84993 18.6676 9.88735 18.6089 9.91199 18.5445C10.0065 18.2895 9.91199 17.9325 9.60899 17.5245C9.30749 17.115 8.79599 16.6545 8.04449 16.1925C7.49249 15.8475 7.18349 15.4275 7.03949 14.9715C6.89399 14.514 6.91349 14.019 7.02449 13.5315C7.23899 12.594 7.78949 11.682 8.13899 11.1105C8.23349 11.0415 8.17349 11.2395 7.78499 11.961C7.43699 12.621 6.78449 14.1435 7.67699 15.333C7.70099 14.487 7.90199 13.623 8.24249 12.8175C8.73599 11.697 9.76949 9.756 9.85049 8.208C9.89399 8.238 10.038 8.337 10.104 8.373C10.293 8.4855 10.4355 8.649 10.62 8.7975C10.8606 9.00056 11.1678 9.10742 11.4825 9.0975C11.8425 9.0975 12.123 8.979 12.3555 8.8455C12.6105 8.7015 12.8115 8.5395 13.005 8.478C13.41 8.3505 13.734 8.1255 13.917 7.863C14.232 9.108 14.967 10.9035 15.438 11.7795C15.6885 12.2445 16.188 13.233 16.4025 14.4225C16.539 14.4195 16.689 14.4375 16.851 14.4795C17.4135 13.02 16.3725 11.4465 15.897 11.0085C15.705 10.8225 15.6945 10.7385 15.792 10.743C16.3065 11.199 16.9845 12.1185 17.232 13.155C17.3445 13.6275 17.367 14.124 17.247 14.6145C17.307 14.64 17.367 14.6655 17.427 14.6955C18.3315 15.135 18.666 15.5175 18.5055 16.041Z" fill="white"/>
<path d="M12.06 12.093C11.226 12.096 10.4115 12.4695 9.72304 13.167C9.03304 13.863 8.50204 14.85 8.19604 15.999L8.28754 16.056V16.062C8.99254 16.509 9.49504 16.959 9.80554 17.379C10.134 17.823 10.2795 18.255 10.14 18.63C10.0664 18.8194 9.92081 18.972 9.73504 19.0545L9.67354 19.077C9.78454 19.2225 9.89254 19.3725 9.99304 19.527C11.409 20.469 13.056 20.121 14.2935 19.269C14.4135 18.852 14.523 18.465 14.538 18.222C14.5695 17.5995 14.601 17.034 14.724 16.542C14.847 16.047 15.087 15.597 15.54 15.3495C15.5655 15.3345 15.591 15.327 15.6165 15.315C15.6245 15.2673 15.6356 15.2202 15.6495 15.174C15.2865 14.241 14.763 13.464 14.1345 12.924C13.5045 12.384 12.789 12.0975 12.0615 12.093H12.06ZM15.615 15.3255L15.612 15.333V15.33L15.6135 15.324L15.615 15.3255Z" fill="#E6E6E6"/>
<path d="M13.917 5.7495C13.9235 6.10447 13.8098 6.45122 13.5945 6.7335C13.4868 6.68539 13.3778 6.64037 13.2675 6.5985L13.077 6.531C13.1205 6.4785 13.2045 6.4185 13.2375 6.3405C13.285 6.22474 13.3105 6.10111 13.3125 5.976L13.314 5.961C13.3177 5.84081 13.3 5.72093 13.2615 5.607C13.2313 5.50295 13.1756 5.40809 13.0995 5.331C13.0693 5.29896 13.0331 5.2732 12.993 5.25518C12.9528 5.23716 12.9095 5.22725 12.8655 5.226H12.855C12.771 5.22717 12.6904 5.2592 12.6285 5.316C12.5466 5.38691 12.4837 5.47714 12.4455 5.5785C12.3982 5.69433 12.3728 5.81791 12.3705 5.943V5.958C12.3681 6.02827 12.3727 6.09861 12.384 6.168C12.2139 6.08946 12.0359 6.02912 11.853 5.988C11.8443 5.92183 11.8393 5.85523 11.838 5.7885V5.769C11.8317 5.53847 11.8768 5.30942 11.97 5.0985C12.0494 4.9043 12.1788 4.73456 12.345 4.6065C12.492 4.48779 12.6751 4.42271 12.864 4.422H12.873C13.0605 4.422 13.221 4.476 13.386 4.596C13.5559 4.72036 13.6891 4.88827 13.7715 5.082C13.866 5.289 13.9125 5.4915 13.917 5.7315L13.9185 5.7495H13.917ZM11.082 5.9955C10.9352 6.03752 10.7952 6.10068 10.6665 6.183C10.6766 6.10839 10.6776 6.03285 10.6695 5.958V5.946C10.6603 5.84689 10.6361 5.74977 10.5975 5.658C10.5666 5.57725 10.5173 5.50482 10.4535 5.4465C10.4301 5.42349 10.4021 5.40561 10.3714 5.39399C10.3406 5.38237 10.3078 5.37727 10.275 5.379C10.212 5.385 10.1595 5.415 10.11 5.4765C10.0573 5.54529 10.0214 5.62541 10.005 5.7105C9.98163 5.81123 9.97504 5.91513 9.98551 6.018V6.03C9.99414 6.12969 10.0184 6.22739 10.0575 6.3195C10.0934 6.41172 10.1535 6.49256 10.2315 6.5535L10.0785 6.6735L9.96151 6.7575C9.85759 6.6553 9.77589 6.53274 9.72151 6.3975C9.64201 6.2175 9.59851 6.0375 9.58651 5.826V5.8245C9.57278 5.62701 9.59566 5.42868 9.65401 5.2395C9.69878 5.07452 9.78502 4.92374 9.90451 4.8015C9.95464 4.74615 10.0157 4.70184 10.0839 4.67137C10.1521 4.64089 10.2258 4.62493 10.3005 4.6245C10.4265 4.6245 10.5375 4.6665 10.653 4.7595C10.785 4.86788 10.8876 5.00765 10.9515 5.166C11.031 5.346 11.0715 5.526 11.085 5.739C11.0895 5.829 11.0895 5.913 11.082 5.9955Z" fill="white"/>
<path d="M11.709 6.5025C11.724 6.5535 11.8065 6.546 11.8545 6.57C11.895 6.591 11.9295 6.6375 11.9745 6.639C12.0195 6.6405 12.0885 6.624 12.0945 6.579C12.102 6.522 12.0165 6.4845 11.9625 6.4635C11.892 6.435 11.802 6.4215 11.736 6.459C11.721 6.4665 11.7045 6.4845 11.709 6.5025ZM11.226 6.5025C11.211 6.5535 11.1285 6.546 11.082 6.57C11.04 6.591 11.007 6.6375 10.9605 6.639C10.9155 6.6405 10.8466 6.624 10.8406 6.579C10.8331 6.522 10.9185 6.4845 10.9725 6.4635C11.043 6.435 11.1345 6.4215 11.2005 6.459C11.2155 6.4665 11.2305 6.4845 11.226 6.5025Z" fill="#202020"/>
</svg>
