<svg width="24" height="24" viewBox="0 0 24 24" fill="none" xmlns="http://www.w3.org/2000/svg">
<g clip-path="url(#clip0_1454_190)">
<path d="M20.4 0H3.6C1.61177 0 0 1.61177 0 3.6V20.4C0 22.3882 1.61177 24 3.6 24H20.4C22.3882 24 24 22.3882 24 20.4V3.6C24 1.61177 22.3882 0 20.4 0Z" fill="white"/>
<path d="M22 12C22 17.5283 17.5283 22 12 22C6.4717 22 2 17.5283 2 12C2 6.4717 6.4717 2 12 2C17.5283 2 22 6.4717 22 12Z" fill="#616466"/>
<path d="M16.7169 13.4528C16.981 13.0755 17.3206 12.566 17.6225 11.7736C17.6603 11.6226 17.4716 11.5849 17.3206 11.566C16.8301 11.5283 16.1697 11.9811 16.1697 11.9811C16.1697 11.9811 15.6791 12.2453 15.6791 12.0189C15.6791 11.6792 15.9622 11.2264 16.2829 11.0566C16.3206 11.0377 16.3395 11.0189 16.3772 11.0189C16.4338 11 16.5093 10.9811 16.5848 10.9811H16.6037C16.7357 10.9811 16.9055 11 17.0565 11.1321C17.415 11.434 17.8489 10.9057 17.5848 10.6415C17.415 10.4717 17.0188 10.3019 16.7357 10.283C16.7169 10.283 16.698 10.283 16.6791 10.283H16.6603C16.6225 10.283 16.5848 10.283 16.5471 10.3019C15.8867 10.4717 14.9433 11.717 14.9433 12.2642C14.9433 12.6226 15.0754 12.717 15.415 12.717C15.9055 12.717 16.4338 12.1509 16.9244 12.0943C16.7169 12.5283 16.1508 13.0943 16.1508 13.4528C16.1508 14.5472 18.4527 14.2642 18.5471 15.8302C18.6414 17.566 16.6414 18.3585 15.8301 18.3585C15.3772 18.3585 14.7923 18.3019 14.4338 18.0377C14.3018 17.9623 13.7735 17.6792 13.698 16.8491C13.6225 15.9057 14.264 15.0943 14.2452 15.1132C13.4527 15.6038 13.1508 16.6981 13.3206 17.2264C13.4716 17.6792 13.8112 18.2264 14.264 18.434C14.9244 18.717 15.6414 18.7358 15.8301 18.7358C16.9055 18.7358 19.132 17.9434 19.1886 16.0189C19.2452 14.0189 16.5093 13.7547 16.7169 13.4528Z" fill="white"/>
<path d="M13.6415 12.0189C13.6415 11.6981 13.2453 10.434 12.8868 10.4906C12.5849 10.5283 12.3585 11.0566 12.0566 11.0566C11.7736 11.0566 11.4717 10.434 11.1698 10.4906C10.8114 10.566 10.6038 11.4906 10.3019 11.4906C9.88682 11.4906 9.9623 10.0189 9.39626 10.0189C9.22645 10.0189 8.92456 10.3585 8.84909 10.566V10.5849C8.84909 10.5849 8.77362 10.7924 9.0189 10.7547C9.32079 10.717 9.37739 10.5283 9.56607 10.8302C9.77362 11.1132 9.67928 13 10.0944 13C10.3208 13 10.6793 11.9623 10.9057 12C11.0944 12.0189 11.434 12.7736 11.6038 12.7547C11.8302 12.717 12.4151 11.4717 12.6604 11.4528C12.9812 11.434 13.2076 12.5283 13.5095 12.5283C13.6604 12.5283 13.6415 12.1321 13.6415 12.0189Z" fill="white"/>
<path d="M6.22652 11.1509C6.30199 11.5094 6.8303 11.5283 6.98124 11.6226C7.07558 11.6792 7.22652 11.7358 7.22652 11.8868C7.22652 12.3019 6.32086 13.0943 5.92464 13C5.81143 12.9811 5.77369 12.9056 5.69822 12.7924C5.58501 12.6415 5.52841 12.5094 5.81143 12.4339C6.22652 12.3396 6.62275 12.1887 6.62275 11.9811C6.60388 11.6792 5.67935 11.7924 5.62275 11.3962C5.52841 10.717 6.28313 10.1698 6.81143 9.90565L6.8869 9.79244C6.98124 9.66036 7.11332 9.52829 7.28313 9.52829C7.50954 9.52829 7.62275 9.73584 7.62275 9.92452C7.62275 10.2641 7.4152 10.4151 7.11332 10.4151C6.8303 10.4151 6.13218 10.849 6.22652 11.1509Z" fill="white"/>
<path d="M21.0944 19.8113C20.6981 19.8113 20.3962 19.4906 20.3962 19.1132C20.3962 18.717 20.717 18.4151 21.0944 18.4151C21.4906 18.4151 21.7925 18.7359 21.7925 19.1132C21.7925 19.4906 21.4906 19.8113 21.0944 19.8113ZM21.0944 18.4906C20.7547 18.4906 20.4906 18.7547 20.4906 19.0943C20.4906 19.434 20.7547 19.6981 21.0944 19.6981C21.434 19.6981 21.6981 19.4151 21.6981 19.0943C21.6981 18.7547 21.434 18.4906 21.0944 18.4906ZM21.283 19.5094L21.0755 19.1887H20.9245V19.5094H20.8113V18.6981H21.1321C21.2642 18.6981 21.3962 18.7925 21.3962 18.9434C21.3962 19.1321 21.2453 19.1887 21.1887 19.1887L21.3962 19.5094H21.283ZM21.151 18.7925H20.9245V19.0943H21.151C21.2264 19.0943 21.3019 19.0377 21.3019 18.9434C21.3019 18.8491 21.2264 18.7925 21.151 18.7925Z" fill="#616466"/>
</g>
<defs>
<clipPath id="clip0_1454_190">
<rect width="24" height="24" fill="white"/>
</clipPath>
</defs>
</svg>
