<svg width="24" height="24" viewBox="0 0 24 24" fill="none" xmlns="http://www.w3.org/2000/svg">
<g clip-path="url(#clip0_1452_126)">
<path d="M20.4 0H3.6C1.61177 0 0 1.61177 0 3.6V20.4C0 22.3882 1.61177 24 3.6 24H20.4C22.3882 24 24 22.3882 24 20.4V3.6C24 1.61177 22.3882 0 20.4 0Z" fill="white"/>
<path d="M2.79629 9.0283C3.2997 9.01604 3.80369 9.02716 4.3074 9.0226C4.63072 9.01547 4.96165 9.12746 5.19377 9.35059C5.39373 9.53182 5.53201 9.78002 5.57089 10.0442C5.62351 10.3559 5.54224 10.6885 5.34813 10.9418C5.13355 11.2393 4.769 11.426 4.39685 11.4362C3.90923 11.4362 3.4219 11.4354 2.93456 11.4365C2.60305 11.4456 2.26744 11.3217 2.03328 11.0914C1.78713 10.8575 1.6468 10.5189 1.66814 10.1835C1.66931 9.59223 2.1926 9.06363 2.79629 9.0283ZM2.85388 9.45403C2.45454 9.48708 2.12186 9.85098 2.1394 10.2419C2.13121 10.644 2.49488 11.0002 2.90387 11.0116C3.3722 11.0133 3.84053 11.0116 4.30886 11.0125C4.65645 11.015 4.99089 10.7723 5.08181 10.4443C5.17185 10.1607 5.06748 9.83303 4.83536 9.64267C4.67779 9.50276 4.45941 9.44092 4.24893 9.44861C3.78411 9.45317 3.31841 9.44206 2.85388 9.45403Z" fill="#E00024"/>
<path d="M5.83262 9.02311C6.54271 9.0234 7.25339 9.02226 7.96349 9.02368C8.37569 9.0328 8.74287 9.38216 8.76011 9.78396C8.79081 10.1416 8.54758 10.5035 8.1959 10.6126C8.04066 10.6708 7.87315 10.6443 7.71149 10.6528C8.024 10.9178 8.3447 11.1737 8.66247 11.4333C8.42831 11.4387 8.19414 11.4353 7.96027 11.4356C7.4934 11.0304 7.01163 10.6414 6.55148 10.2294C7.01192 10.2182 7.47294 10.2288 7.93338 10.2242C8.16257 10.2105 8.33564 9.96804 8.27775 9.75347C8.23741 9.57651 8.06288 9.44286 7.87637 9.44913C7.356 9.44856 6.83564 9.44913 6.31527 9.44913C6.31527 10.1114 6.31469 10.7736 6.31556 11.4359C6.15448 11.4362 5.9934 11.4356 5.83203 11.4364C5.8332 10.632 5.83262 9.82756 5.83262 9.02311Z" fill="#E00024"/>
<path d="M10.2706 9.15648C10.3931 8.94789 10.7407 8.94874 10.8667 9.15363C11.3681 9.91277 11.865 10.6748 12.3649 11.4347C12.1773 11.4373 11.9893 11.4353 11.8013 11.4362C11.713 11.2943 11.625 11.1518 11.5373 11.0096C11.1079 11.0084 10.6784 11.011 10.249 11.0084C10.1572 10.8668 10.0625 10.7275 9.96863 10.5873C10.3911 10.5821 10.8135 10.5884 11.2359 10.5841C11.0178 10.2336 10.7968 9.88513 10.5711 9.53947C10.1537 10.1681 9.75142 10.8058 9.33776 11.4365C9.15037 11.4345 8.96298 11.4384 8.77588 11.4342C9.27578 10.6759 9.77101 9.91476 10.2706 9.15648Z" fill="#E00024"/>
<path d="M12.526 9.3332C12.7462 9.13686 13.0417 9.02487 13.3402 9.02316C13.9176 9.02231 14.4955 9.02459 15.0732 9.02231C14.9826 9.1665 14.887 9.30727 14.7931 9.44918C14.3286 9.44889 13.8641 9.44861 13.3995 9.44918C13.1867 9.44804 12.9727 9.53239 12.8251 9.68256C12.624 9.87377 12.5392 10.1753 12.621 10.4383C12.7082 10.7603 13.0277 11.0025 13.368 11.0116C13.9486 11.0139 14.5288 11.0099 15.1091 11.0136C15.022 11.157 14.9235 11.2934 14.8349 11.4359C14.3163 11.4356 13.7977 11.4371 13.2794 11.4354C12.7386 11.414 12.2492 11.0019 12.146 10.4847C12.0486 10.0715 12.2012 9.61446 12.526 9.3332Z" fill="#E00024"/>
<path d="M15.3225 9.02338C15.4833 9.0231 15.6443 9.02338 15.8054 9.02338C15.8054 9.6862 15.8051 10.349 15.8057 11.0121C16.5448 11.0144 17.2841 11.0084 18.0231 11.015C17.9272 11.1529 17.841 11.2965 17.7454 11.4344C17.0166 11.4373 16.2881 11.4361 15.5593 11.4353C15.4225 11.4398 15.3143 11.311 15.3222 11.1825C15.3225 10.4627 15.3225 9.74319 15.3225 9.02338Z" fill="#E00024"/>
<path d="M17.9735 9.85749C18.1202 9.38616 18.5941 9.03823 19.0987 9.02455C19.6889 9.0217 20.2794 9.02341 20.87 9.02398C20.7706 9.16276 20.6843 9.30951 20.587 9.44943C20.1099 9.44914 19.6328 9.44772 19.1557 9.45C18.8163 9.4594 18.5038 9.70276 18.4155 10.0213C19.1873 10.025 19.9593 10.0205 20.7311 10.0236C20.637 10.1655 20.5478 10.3106 20.4484 10.4494C19.7716 10.4476 19.0946 10.4482 18.4178 10.4491C18.495 10.6981 18.7025 10.9076 18.9613 10.9785C19.1098 11.0255 19.2676 11.0102 19.4214 11.0122C19.9155 11.0127 20.4095 11.0107 20.9039 11.0133C20.8135 11.1558 20.7212 11.2971 20.6256 11.4365C20.1947 11.4356 19.764 11.4362 19.3334 11.4362C19.1975 11.4347 19.0604 11.4442 18.9265 11.4177C18.5239 11.3515 18.1711 11.0717 18.012 10.707C17.8942 10.4408 17.8837 10.133 17.9735 9.85749Z" fill="#E00024"/>
<path d="M21.2425 9.02817C21.4334 8.94582 21.6588 9.1376 21.6132 9.33166C21.586 9.52173 21.3293 9.61833 21.175 9.50178C21.0022 9.38694 21.039 9.08973 21.2425 9.02817ZM21.2454 9.08688C21.0817 9.15099 21.0782 9.39891 21.2364 9.47072C21.3779 9.5545 21.5723 9.42854 21.5614 9.27182C21.5579 9.12535 21.3805 9.01592 21.2454 9.08688Z" fill="#E00024"/>
<path d="M21.2382 9.11945C21.3083 9.12999 21.4212 9.10064 21.4495 9.18584C21.4668 9.23315 21.4223 9.27218 21.4048 9.31179C21.427 9.35112 21.4495 9.39016 21.4717 9.42948C21.3764 9.43718 21.3726 9.32832 21.3033 9.29356C21.2975 9.33858 21.2922 9.38389 21.2878 9.4292C21.2759 9.42549 21.2519 9.41808 21.2399 9.41467C21.2323 9.31635 21.2384 9.21776 21.2382 9.11945ZM21.2995 9.1619C21.2981 9.19496 21.2969 9.2283 21.2963 9.26164C21.327 9.25822 21.3577 9.2548 21.3887 9.2511C21.3893 9.22773 21.3899 9.20436 21.3908 9.181C21.3601 9.17444 21.3297 9.16817 21.2995 9.1619Z" fill="#E00024"/>
<path d="M21.2454 9.08666C21.3805 9.0157 21.5579 9.12513 21.5614 9.2716C21.5722 9.42833 21.3778 9.55428 21.2363 9.4705C21.0782 9.39869 21.0817 9.15078 21.2454 9.08666ZM21.2384 9.11943C21.2387 9.21774 21.2325 9.31634 21.2401 9.41465C21.2521 9.41807 21.2761 9.42548 21.2881 9.42918C21.2925 9.38387 21.2977 9.33857 21.3036 9.29354C21.3729 9.32831 21.3767 9.43716 21.472 9.42947C21.4497 9.39014 21.4272 9.3511 21.405 9.31178C21.4226 9.27217 21.467 9.23313 21.4497 9.18583C21.4214 9.10062 21.3085 9.12997 21.2384 9.11943Z" fill="#F3CAD1"/>
<path d="M21.3001 9.1619C21.3302 9.16816 21.3606 9.17443 21.3913 9.18099C21.3904 9.20435 21.3898 9.22772 21.3893 9.25109C21.3583 9.25479 21.3276 9.25821 21.2969 9.26163C21.2975 9.22829 21.2986 9.19495 21.3001 9.1619Z" fill="#F3CAD1"/>
<path d="M1 12.2238C8.0001 12.2235 14.9999 12.2235 22 12.2238C21.9982 12.2728 21.9971 12.3218 21.9959 12.3711C14.9973 12.368 7.99864 12.3705 1.00029 12.37C1 12.321 1 12.2722 1 12.2238Z" fill="#0B0B0B"/>
<path d="M14.5647 13.7438C14.6934 13.6347 14.8734 13.6076 15.0386 13.6173C15.1897 13.6295 15.3532 13.6777 15.4458 13.8028C15.4988 13.8669 15.5157 13.9493 15.5254 14.029C15.4409 14.0325 15.3564 14.033 15.2722 14.0319C15.2514 13.9555 15.2213 13.8709 15.133 13.8498C14.9889 13.809 14.7986 13.8093 14.7056 13.9447C14.7129 13.998 14.705 14.0701 14.767 14.0957C14.9793 14.2032 15.245 14.1769 15.44 14.3237C15.6069 14.4647 15.5856 14.7508 15.4116 14.8788C15.243 14.9999 15.0181 15.0187 14.8173 14.9839C14.686 14.9569 14.5466 14.9002 14.4747 14.7833C14.4259 14.7101 14.4104 14.6226 14.3943 14.5383C14.4779 14.5374 14.5615 14.5371 14.6454 14.5377C14.6694 14.6465 14.7486 14.7477 14.8644 14.7719C14.9948 14.7973 15.157 14.8019 15.2552 14.6993C15.2994 14.6585 15.2953 14.5901 15.2777 14.5385C15.2316 14.4684 15.1427 14.4476 15.0661 14.4251C14.9047 14.3793 14.7296 14.3619 14.5864 14.2701C14.4074 14.1561 14.4066 13.8752 14.5647 13.7438Z" fill="#0B0B0B"/>
<path d="M7.4653 13.7221C7.65181 13.595 7.90469 13.5899 8.11488 13.6589C8.27742 13.7096 8.39816 13.8635 8.39669 14.0316C8.31279 14.0322 8.22918 14.0325 8.14557 14.0316C8.12511 13.9629 8.10231 13.8803 8.0225 13.8566C7.87662 13.8059 7.67637 13.8059 7.57931 13.9438C7.58808 13.9963 7.57522 14.0689 7.63719 14.0943C7.85528 14.2051 8.13183 14.1764 8.32829 14.3351C8.44727 14.4545 8.46072 14.6577 8.36424 14.7944C8.28911 14.909 8.14908 14.9614 8.01811 14.9868C7.82166 15.017 7.60445 14.9965 7.43869 14.8811C7.32731 14.8016 7.28785 14.6645 7.26709 14.5383C7.3507 14.5374 7.4346 14.5371 7.51821 14.5377C7.54364 14.6323 7.60153 14.7252 7.70034 14.7602C7.85645 14.8095 8.06284 14.8036 8.16487 14.6591C8.16516 14.5918 8.16165 14.512 8.08886 14.4801C7.88861 14.3818 7.64538 14.3915 7.45594 14.2673C7.26943 14.1456 7.28405 13.8421 7.4653 13.7221Z" fill="#0B0B0B"/>
<path d="M9.02639 13.6512C9.20998 13.5916 9.42105 13.6041 9.59002 13.699C9.76045 13.7865 9.86482 13.9652 9.89552 14.1464C9.9189 14.3513 9.90896 14.5747 9.7815 14.7486C9.55406 15.0751 8.99686 15.0825 8.74779 14.7768C8.59694 14.5961 8.57472 14.3459 8.61331 14.1239C8.65424 13.9111 8.80918 13.7139 9.02639 13.6512ZM9.14391 13.8498C9.0489 13.8774 8.96967 13.9458 8.92787 14.0336C8.8466 14.2023 8.84689 14.4052 8.92465 14.575C8.99569 14.7201 9.17168 14.8178 9.33539 14.7736C9.50115 14.7429 9.60668 14.5858 9.63095 14.432C9.65083 14.2764 9.64206 14.1051 9.54383 13.9743C9.45671 13.8535 9.28686 13.8008 9.14391 13.8498Z" fill="#0B0B0B"/>
<path d="M10.1323 13.6389C10.22 13.6392 10.3077 13.6389 10.3957 13.6372C10.4007 14.0076 10.3972 14.3784 10.3975 14.7488C10.605 14.7519 10.8129 14.7494 11.0207 14.7505C11.0207 14.8246 11.021 14.899 11.0222 14.9731C10.7255 14.9785 10.4287 14.9745 10.1323 14.9754C10.132 14.53 10.132 14.0846 10.1323 13.6389Z" fill="#0B0B0B"/>
<path d="M11.5792 13.6392C11.6763 13.6387 11.7733 13.6387 11.8704 13.6387C12.0338 14.0863 12.2148 14.528 12.3794 14.9754C12.2887 14.9757 12.1984 14.9757 12.1081 14.9757C12.063 14.8614 12.0224 14.7457 11.9818 14.6301C11.8107 14.6246 11.6397 14.6283 11.4687 14.6278C11.4295 14.7438 11.3898 14.86 11.3494 14.976C11.2617 14.9757 11.1743 14.9757 11.0869 14.9754C11.2509 14.53 11.4176 14.0855 11.5792 13.6392ZM11.7222 13.8681C11.6543 14.0516 11.5985 14.2391 11.5357 14.4243C11.6631 14.4252 11.7906 14.4252 11.9183 14.4246C11.8555 14.2382 11.7891 14.053 11.7222 13.8681Z" fill="#0B0B0B"/>
<path d="M12.5201 13.6387C12.7353 13.639 12.9501 13.6387 13.1653 13.6387C13.2966 13.6384 13.4413 13.6586 13.5401 13.7512C13.6535 13.882 13.674 14.0889 13.5737 14.2328C13.5231 14.3026 13.441 14.3391 13.3609 14.3665C13.4296 14.4163 13.5 14.4716 13.5351 14.5505C13.5971 14.6896 13.645 14.8341 13.7023 14.9751C13.6082 14.9754 13.5141 14.9757 13.4199 14.9769C13.372 14.8526 13.334 14.7249 13.2802 14.603C13.2451 14.5232 13.1691 14.4594 13.0788 14.4508C12.9811 14.4428 12.8832 14.4488 12.7856 14.4482C12.785 14.6241 12.7856 14.7999 12.7853 14.9757C12.6967 14.9757 12.6084 14.9757 12.5201 14.9757C12.5198 14.53 12.5195 14.0844 12.5201 13.6387ZM12.7859 13.8413C12.785 13.9721 12.785 14.1029 12.7859 14.2337C12.9326 14.2288 13.0802 14.2445 13.2261 14.2257C13.4077 14.2032 13.4252 13.9051 13.251 13.8587C13.0992 13.8219 12.9402 13.8495 12.7859 13.8413Z" fill="#0B0B0B"/>
<path d="M13.9156 13.6387C13.9998 13.639 14.0843 13.639 14.1688 13.639C14.1694 14.0844 14.1691 14.53 14.1688 14.9757C14.0843 14.9757 13.9998 14.9757 13.9156 14.9757C13.9153 14.53 13.915 14.0844 13.9156 13.6387Z" fill="#0B0B0B"/>
</g>
<defs>
<clipPath id="clip0_1452_126">
<rect width="24" height="24" fill="white"/>
</clipPath>
</defs>
</svg>
