<svg width="24" height="24" viewBox="0 0 24 24" fill="none" xmlns="http://www.w3.org/2000/svg">
<g clip-path="url(#clip0_996_130)">
<g clip-path="url(#clip1_996_130)">
<path d="M2 2V14.645C2 15.9608 2.71354 17.1735 3.8634 17.8127L11.9919 22.3303L20.1337 17.8127C21.2853 17.1741 21.9994 15.9608 21.9994 14.6438V2H2ZM13.8772 16.5752H7.26282V14.2963L13.8772 14.3228C14.528 14.3228 15.0605 13.7902 15.0605 13.1395C15.0605 12.4888 14.528 11.9562 13.8772 11.9562H10.2075C8.31816 11.9562 6.77176 10.4104 6.77176 8.52046C6.77176 6.63112 8.31758 5.08473 10.2075 5.08473H16.8219V7.36369L10.2075 7.33718C9.55677 7.33718 9.02421 7.86974 9.02421 8.52046C9.02421 9.17118 9.55677 9.70375 10.2075 9.70375H13.8772C15.7666 9.70375 17.313 11.2496 17.313 13.1395C17.313 15.0294 15.7671 16.5752 13.8772 16.5752Z" fill="#005BC8"/>
</g>
</g>
<defs>
<clipPath id="clip0_996_130">
<rect width="24" height="24" fill="white"/>
</clipPath>
<clipPath id="clip1_996_130">
<rect width="20" height="20.3297" fill="white" transform="translate(2 2)"/>
</clipPath>
</defs>
</svg>
