<svg width="241" height="240" viewBox="0 0 241 240" fill="none" xmlns="http://www.w3.org/2000/svg">
<g clip-path="url(#clip0_1781_167)">
<path d="M231.094 131.64C231.554 131.64 231.814 131.51 231.814 131.02C231.814 130.54 231.564 130.43 231.084 130.43H230.064V131.64H231.094ZM230.064 132.06V133.35H229.614V130H231.104C231.954 130 232.274 130.34 232.274 131C232.274 131.54 232.044 131.91 231.474 132.02L232.224 133.34H231.744L230.994 132.05L230.064 132.06ZM230.804 129.14C230.133 129.143 229.491 129.41 229.018 129.884C228.544 130.358 228.276 131 228.274 131.67C228.274 133.07 229.414 134.21 230.804 134.21C231.476 134.207 232.119 133.939 232.593 133.462C233.067 132.986 233.334 132.342 233.334 131.67C233.334 130.999 233.067 130.355 232.593 129.881C232.118 129.407 231.475 129.14 230.804 129.14ZM227.904 131.67C227.906 130.902 228.213 130.166 228.756 129.622C229.299 129.079 230.035 128.773 230.804 128.77C231.572 128.773 232.308 129.079 232.851 129.622C233.395 130.166 233.701 130.902 233.704 131.67C233.704 132.44 233.398 133.179 232.855 133.724C232.311 134.27 231.574 134.577 230.804 134.58C230.035 134.577 229.299 134.271 228.756 133.728C228.213 133.184 227.906 132.448 227.904 131.68V131.67ZM20.4536 125.07V88.3H16.2336V125.07C16.2336 133.57 16.5636 140.4 1.83364 140.4C1.30016 140.401 0.766725 140.391 0.233643 140.37L0.233643 144.34C0.766868 144.353 1.30025 144.36 1.83364 144.36C19.6936 144.36 20.4536 136.36 20.4536 125.07ZM175.854 108.1H207.194C206.774 98.92 206.184 91.09 192.794 91.09C179.894 91.09 176.364 98.08 175.854 108.09V108.1ZM192.874 87.21C210.814 87.21 211.404 99.25 211.324 111.97H175.774C175.854 123.17 178.634 131.52 193.204 131.52C200.954 131.52 204.504 129.42 208.284 126.63L210.644 129.75C206.434 132.87 201.464 135.31 193.204 135.31C175.004 135.31 171.644 124.78 171.644 111.21C171.644 97.66 175.524 87.21 192.874 87.21ZM151.384 114.26C158.824 114.26 162.524 110.64 162.524 103.32C162.524 95.99 158.534 92.52 151.204 92.52H133.914V114.27L151.384 114.26ZM151.334 88.4C162.014 88.4 166.854 93.7 166.854 103.14C166.854 112.64 162.074 118.41 151.274 118.41H133.924V134.39H129.804V88.4H151.334ZM122.084 88.4V134.4H117.964V88.4H122.084ZM110.144 134.4H105.844V106.26C105.844 98.17 105.934 91.35 91.1036 91.35C76.3636 91.35 76.7036 98.17 76.7036 106.68V134.39H72.4836V106.68C72.4836 95.39 73.2436 87.38 91.1036 87.38C109.044 87.38 110.144 95.39 110.144 106.34V134.4ZM27.7036 88.3H32.0036V116.44C32.0036 124.53 31.9036 131.34 46.7336 131.34C61.4736 131.34 61.1336 124.53 61.1336 116.02V88.3H65.3536V116.02C65.3536 127.3 64.5936 135.31 46.7336 135.31C28.7936 135.31 27.7036 127.31 27.7036 116.35V88.3ZM217.374 106.67V134.38H221.584V106.67C221.584 98.17 221.244 91.34 235.984 91.34C237.574 91.34 238.974 91.42 240.234 91.57V87.56C238.824 87.4382 237.409 87.3781 235.994 87.38C218.134 87.38 217.374 95.38 217.374 106.67ZM213.064 150.27C214.418 151.136 215.997 151.584 217.604 151.56C220.224 151.56 221.394 150.82 221.394 149.07C221.394 147.27 219.884 147.01 217.594 146.6C214.864 146.12 213.004 145.66 213.004 143.09C213.004 140.63 214.584 139.67 217.604 139.67C219.594 139.67 221.014 140.12 222.024 140.81L221.304 141.91C220.189 141.235 218.906 140.889 217.604 140.91C215.324 140.91 214.344 141.54 214.344 143.05C214.344 144.66 215.664 144.97 217.924 145.38C220.704 145.88 222.714 146.29 222.714 149.02C222.714 151.54 221.104 152.75 217.634 152.75C215.774 152.81 213.94 152.305 212.374 151.3L213.064 150.27ZM205.174 145.85L202.634 148.62V152.58H201.314V139.88H202.634V146.89L209.064 139.89H210.624L206.064 144.87L211.244 152.58H209.714L205.174 145.85ZM194.174 146.17C195.974 146.17 197.074 145.62 197.074 143.62C197.074 141.65 196.004 141.13 194.114 141.13H189.984V146.17H194.174ZM193.794 147.41H189.994V152.58H188.664V139.88H194.154C197.104 139.88 198.434 141.06 198.434 143.58C198.434 145.78 197.394 147.06 195.174 147.35L198.244 152.58H196.804L193.794 147.41ZM184.554 146.24C184.554 142.81 182.954 140.96 179.494 140.96C176.044 140.96 174.474 142.81 174.474 146.24C174.474 149.69 176.044 151.54 179.494 151.54C182.954 151.54 184.554 149.69 184.554 146.24ZM179.494 139.67C183.574 139.67 185.904 141.7 185.904 146.22C185.904 150.77 183.574 152.79 179.494 152.79C175.434 152.79 173.114 150.77 173.114 146.22C173.114 141.7 175.434 139.67 179.494 139.67ZM155.924 139.88L159.264 150.38L162.674 139.88H163.844L167.244 150.38L170.594 139.88H171.894L167.814 152.67H166.654L163.224 142.09L159.814 152.67H158.634L154.534 139.88H155.924ZM142.004 141.17V139.88H152.884V141.17H148.124V152.58H146.764V141.17H142.004ZM139.964 139.88V141.17H132.914V145.37H139.794V146.64H132.914V151.34H140.034V152.58H131.564V139.88H139.964ZM119.424 139.88L127.024 150.36V139.88H128.324V152.58H127.084L119.254 141.8V152.58H117.954V139.88H119.424Z" fill="black"/>
</g>
<defs>
<clipPath id="clip0_1781_167">
<rect width="240" height="240" fill="white" transform="translate(0.233643)"/>
</clipPath>
</defs>
</svg>
