<svg width="24" height="24" viewBox="0 0 24 24" fill="none" xmlns="http://www.w3.org/2000/svg">
<g clip-path="url(#clip0_1449_43)">
<path d="M20.4 0H3.6C1.61177 0 0 1.61177 0 3.6V20.4C0 22.3882 1.61177 24 3.6 24H20.4C22.3882 24 24 22.3882 24 20.4V3.6C24 1.61177 22.3882 0 20.4 0Z" fill="white"/>
<path d="M7.72272 5.02718C7.85059 4.98648 8.00726 4.98894 8.11018 5.08578C8.2117 5.16403 8.25421 5.29455 8.24753 5.41911C8.24858 6.69489 8.24683 7.97032 8.24823 9.2461C8.25772 9.38048 8.20432 9.51838 8.09332 9.59838C7.93033 9.72153 7.65809 9.68118 7.55516 9.49908C7.49474 9.41557 7.4972 9.3089 7.49685 9.21101C7.49755 7.93488 7.4958 6.6591 7.49791 5.38297C7.49123 5.23245 7.58151 5.08332 7.72272 5.02718Z" fill="#01BDEB"/>
<path d="M15.871 5.02438C16.081 4.94158 16.3617 5.07737 16.375 5.31526C16.3933 6.09876 16.3712 6.88191 16.3838 7.66542C16.3642 8.22717 16.3993 8.78962 16.3761 9.35102C16.3585 9.59838 16.0599 9.74715 15.8443 9.63628C15.7143 9.57031 15.63 9.42645 15.6342 9.28119C15.6342 7.9819 15.6353 6.68262 15.6339 5.38368C15.631 5.2314 15.7248 5.07666 15.871 5.02438Z" fill="#01BDEB"/>
<path d="M5.68052 6.42718C5.91131 6.31174 6.22043 6.49314 6.21305 6.75525C6.21305 7.35173 6.21446 7.94822 6.2134 8.54471C6.22675 8.77277 5.99596 8.98295 5.76939 8.92751C5.60148 8.90225 5.46413 8.74646 5.46659 8.57593C5.46273 7.98015 5.46343 7.38436 5.46589 6.78858C5.46097 6.63981 5.53895 6.48578 5.68052 6.42718Z" fill="#01BDEB"/>
<path d="M9.75607 6.4226C9.9837 6.31664 10.2907 6.49629 10.284 6.75348C10.2823 7.35066 10.2858 7.9482 10.2837 8.54539C10.296 8.77416 10.0684 8.97521 9.84319 8.93135C9.67668 8.90504 9.5288 8.75451 9.53688 8.58083C9.5446 8.01803 9.50421 7.45558 9.53617 6.89312C9.51088 6.71067 9.56814 6.49453 9.75607 6.4226Z" fill="#01BDEB"/>
<path d="M13.8873 6.40227C14.1202 6.3335 14.3724 6.54683 14.351 6.78683C14.3415 7.38437 14.358 7.98191 14.3471 8.57945C14.3471 8.80646 14.0994 8.99242 13.8816 8.92295C13.712 8.88506 13.5957 8.71664 13.5968 8.54646C13.5975 7.9605 13.5911 7.37419 13.5978 6.78788C13.5957 6.6142 13.7127 6.44016 13.8873 6.40227Z" fill="#01BDEB"/>
<path d="M17.9343 6.40682C18.1563 6.33068 18.4296 6.51559 18.411 6.75699C18.411 7.31699 18.4099 7.87698 18.4117 8.43698C18.4103 8.55662 18.4233 8.68961 18.3432 8.7896C18.2209 8.95767 17.9557 8.98609 17.7998 8.8482C17.7232 8.78118 17.6677 8.68294 17.6694 8.57943C17.6715 7.97172 17.6642 7.36365 17.6708 6.75594C17.6698 6.59875 17.7843 6.45068 17.9343 6.40682Z" fill="#01BDEB"/>
<path d="M3.75078 7.40927C3.9633 7.37418 4.18566 7.55137 4.17934 7.77067C4.17969 8.04014 4.18075 8.30996 4.17864 8.57943C4.18039 8.80083 3.9489 8.98013 3.73427 8.93066C3.56917 8.89768 3.43323 8.74364 3.43639 8.57312C3.43428 8.3061 3.43498 8.03909 3.43639 7.77242C3.43217 7.59523 3.5762 7.43313 3.75078 7.40927Z" fill="#01BDEB"/>
<path d="M11.8692 7.41522C12.0863 7.3654 12.3157 7.54785 12.3157 7.77031C12.3153 8.04013 12.3146 8.30995 12.3153 8.57977C12.3182 8.83802 12.0017 9.02258 11.7765 8.89591C11.6121 8.82539 11.5545 8.63732 11.558 8.47206C11.5629 8.23101 11.5464 7.9889 11.5685 7.74855C11.5808 7.5861 11.7101 7.44645 11.8692 7.41522Z" fill="#01BDEB"/>
<path d="M20.0357 7.41139C20.2285 7.38683 20.434 7.53876 20.4421 7.73876C20.4477 8.01911 20.4453 8.2998 20.4439 8.58015C20.4488 8.79313 20.2275 8.96927 20.0213 8.93103C19.853 8.90471 19.7023 8.75489 19.703 8.5805C19.703 8.31138 19.7037 8.04226 19.702 7.77314C19.6981 7.58999 19.8586 7.43279 20.0357 7.41139Z" fill="#01BDEB"/>
<path d="M5.52179 11.2401C5.99321 10.8573 6.67117 10.8212 7.22654 11.0141C7.23813 11.2773 7.22513 11.5408 7.229 11.8043C6.97221 11.6948 6.68733 11.6099 6.40701 11.6703C6.14812 11.7145 5.91663 11.904 5.83056 12.1531C5.71991 12.4471 5.79368 12.811 6.03395 13.0204C6.22575 13.1948 6.50221 13.2524 6.75372 13.2113C6.91952 13.1913 7.07514 13.1299 7.22865 13.0689C7.22584 13.339 7.23883 13.6096 7.22513 13.8797C6.87386 13.9482 6.50923 14.0138 6.15409 13.9292C5.69181 13.8331 5.26957 13.5148 5.08761 13.0741C4.95764 12.7871 4.9464 12.464 4.98293 12.1555C5.04476 11.7994 5.23058 11.4598 5.52179 11.2401Z" fill="#01BDEB"/>
<path d="M10.5703 10.9885C10.9746 10.8419 11.4186 10.9022 11.8282 10.9931C11.8292 11.204 11.8261 11.4148 11.8268 11.6257C11.5349 11.5826 11.2268 11.4864 10.9377 11.5955C10.8432 11.6306 10.742 11.7313 10.7888 11.8394C10.8583 12.0033 11.0554 12.0334 11.205 12.0875C11.5071 12.1625 11.8212 12.3247 11.9561 12.6201C12.0832 12.9008 12.0477 13.239 11.8921 13.5015C11.707 13.7825 11.3705 13.9145 11.0477 13.9548C10.6953 13.9867 10.3405 13.9552 9.99418 13.8896C9.99137 13.6604 9.99312 13.4317 9.99418 13.2029C10.31 13.2938 10.6437 13.3373 10.9704 13.2871C11.0947 13.2653 11.2475 13.1797 11.2377 13.0348C11.2405 12.8871 11.0828 12.8152 10.9648 12.7703C10.6711 12.6675 10.3356 12.5868 10.1431 12.3197C9.97977 12.1201 9.96678 11.8443 10.0121 11.6012C10.0746 11.3166 10.2966 11.0826 10.5703 10.9885Z" fill="#01BDEB"/>
<path d="M13.5026 11.1085C13.9536 10.857 14.5153 10.8436 14.9972 11.0096C15.0123 11.2738 15.0215 11.539 15.0173 11.8043C14.7412 11.6882 14.4303 11.5941 14.1324 11.6836C13.8605 11.7555 13.6332 11.9861 13.584 12.265C13.5155 12.5531 13.6241 12.8797 13.8647 13.0569C14.1229 13.2555 14.4805 13.2608 14.7791 13.1597C14.8588 13.1303 14.9344 13.085 15.0211 13.0801C15.0222 13.3432 14.9983 13.6057 15.0022 13.8689C14.5852 13.9924 14.1261 14.0159 13.7144 13.8611C13.3652 13.738 13.0701 13.4759 12.9047 13.1454C12.7217 12.771 12.6971 12.3257 12.8246 11.9299C12.9377 11.5857 13.1815 11.2808 13.5026 11.1085Z" fill="#01BDEB"/>
<path d="M17.0671 10.9218C17.4682 10.8594 17.8929 10.9324 18.2351 11.1555C18.5674 11.3608 18.7933 11.7127 18.8811 12.0896C19.0016 12.5924 18.8442 13.1502 18.4827 13.5197C17.9544 14.0513 17.0397 14.1194 16.4288 13.6899C16.028 13.4127 15.773 12.9281 15.7916 12.439C15.7751 12.0752 15.9152 11.7127 16.1495 11.4369C16.3821 11.1639 16.7151 10.9843 17.0671 10.9218ZM17.2462 11.6678C16.8272 11.7173 16.5068 12.1601 16.5971 12.5727C16.6459 12.8853 16.909 13.1499 17.2213 13.2004C17.6239 13.2832 18.0436 12.9808 18.1083 12.5794C18.1613 12.3281 18.0675 12.0608 17.8898 11.8797C17.7222 11.7173 17.4784 11.6317 17.2462 11.6678Z" fill="#01BDEB"/>
<path d="M8.23999 13.9148C8.24491 12.9264 8.23648 11.938 8.24421 10.9492C8.49291 10.9514 8.74126 10.9482 8.98997 10.9478C8.99067 11.9394 8.99524 12.9313 8.98751 13.9229C8.73845 13.9162 8.48905 13.9219 8.23999 13.9148Z" fill="#01BDEB"/>
<path d="M2.14282 15.5938C2.32127 15.3405 2.65568 15.2601 2.9497 15.2615C3.26093 15.2492 3.59219 15.3485 3.80436 15.5857C3.90623 15.699 3.95295 15.8475 3.98632 15.9931C3.88515 15.9934 3.78363 15.9934 3.68247 15.9941C3.6361 15.7324 3.38739 15.5499 3.12956 15.539C2.91071 15.5317 2.66727 15.511 2.4811 15.6496C2.29211 15.785 2.29984 16.1047 2.49515 16.2306C2.72348 16.3868 3.01012 16.3983 3.26655 16.4826C3.47556 16.5496 3.6916 16.6422 3.83457 16.8159C4.04604 17.0825 4.00951 17.5082 3.75904 17.738C3.61362 17.8727 3.42287 17.9538 3.22686 17.9787C2.9079 18.0313 2.55557 17.9913 2.28438 17.8046C2.08205 17.6703 1.95243 17.4383 1.93311 17.1973C2.03111 17.198 2.12912 17.1976 2.22712 17.1952C2.26436 17.4025 2.39995 17.5889 2.60123 17.6618C2.79268 17.7359 3.00204 17.7313 3.20262 17.7082C3.31468 17.6759 3.43482 17.6527 3.52299 17.5703C3.67614 17.4461 3.71689 17.2134 3.62907 17.0401C3.57181 16.9261 3.45238 16.8675 3.34348 16.8138C3.2388 16.7769 3.13237 16.7454 3.02558 16.7155C2.65814 16.6397 2.19551 16.532 2.06273 16.1292C2.04587 15.9485 2.03006 15.7489 2.14282 15.5938Z" fill="#010101"/>
<path d="M9.25203 15.3138C9.34828 15.311 9.44488 15.3114 9.54113 15.3177C9.54113 16.1917 9.54148 17.0654 9.54078 17.9391C9.44453 17.9401 9.34828 17.9401 9.25203 17.9401C9.25133 17.0647 9.25063 16.1892 9.25203 15.3138Z" fill="#010101"/>
<path d="M11.0457 15.3187C11.1401 15.3128 11.235 15.311 11.3295 15.3089C11.3351 15.6064 11.3267 15.904 11.3326 16.2019C11.529 15.9899 11.8427 15.9099 12.1185 15.9921C12.2878 16.0394 12.4374 16.1612 12.5035 16.3261C12.5814 16.4805 12.5621 16.6566 12.5632 16.8233C12.5649 17.1956 12.5632 17.5678 12.5635 17.9398C12.468 17.9405 12.3728 17.9401 12.2779 17.9387C12.2765 17.5092 12.2779 17.0794 12.2776 16.6499C12.2818 16.5078 12.2245 16.3556 12.0956 16.2833C11.9548 16.2159 11.783 16.1949 11.6411 16.272C11.4496 16.3492 11.3372 16.5542 11.3334 16.7549C11.3277 17.1499 11.3323 17.5454 11.3319 17.9405C11.2367 17.9401 11.1416 17.9401 11.0464 17.9391C11.0457 17.0657 11.0464 16.192 11.0457 15.3187Z" fill="#010101"/>
<path d="M20.4765 15.3117C20.5688 15.312 20.6612 15.312 20.754 15.3131C20.755 15.6054 20.755 15.898 20.7543 16.1906C20.8751 16.1057 20.9925 16.0057 21.1432 15.9804C21.4267 15.9162 21.7751 16.012 21.9125 16.2868C22.0182 16.4861 21.9753 16.7169 21.988 16.9331C22.0136 17.2678 21.9915 17.6046 21.9852 17.9397C21.8988 17.9397 21.8099 17.9317 21.7273 17.9629C21.7129 17.912 21.701 17.8601 21.7045 17.8071C21.7084 17.4078 21.7094 17.0082 21.7024 16.6092C21.7003 16.4566 21.6093 16.3148 21.4692 16.2531C21.3638 16.2313 21.2528 16.2018 21.1477 16.2408C20.9191 16.2969 20.7617 16.5236 20.7575 16.7541C20.7508 17.1492 20.7568 17.5446 20.7547 17.9401C20.6616 17.9401 20.5685 17.9397 20.4757 17.9394C20.474 17.0636 20.4729 16.1878 20.4765 15.3117Z" fill="#010101"/>
<path d="M4.41918 15.5791C4.50876 15.578 4.59868 15.578 4.68861 15.5773C4.68966 15.7261 4.68791 15.8748 4.69212 16.024C4.76905 16.0233 4.84633 16.0233 4.92326 16.0212C4.98509 16.0131 5.04726 16.0096 5.10944 16.0068C5.11225 16.0969 5.1126 16.1875 5.1112 16.2783C4.97069 16.2791 4.83018 16.2798 4.69002 16.2801C4.69353 16.6962 4.68721 17.112 4.68966 17.5282C4.68791 17.5976 4.70828 17.6783 4.77467 17.7138C4.89797 17.7492 5.02689 17.7211 5.15089 17.7047C5.15124 17.7889 5.15054 17.8731 5.14843 17.9573C5.00581 17.9899 4.85793 18.0169 4.7125 17.985C4.52702 17.9345 4.40162 17.7524 4.40653 17.5629C4.39705 17.1355 4.40267 16.7082 4.40197 16.2812C4.31345 16.2798 4.22492 16.2783 4.1364 16.2755C4.1364 16.1952 4.1357 16.1145 4.13184 16.0345C4.2186 15.9861 4.31942 16.0391 4.41145 16.0096C4.40548 15.8661 4.41145 15.7222 4.41918 15.5791Z" fill="#010101"/>
<path d="M10.0687 15.5777C10.16 15.578 10.2513 15.5784 10.3427 15.5791C10.343 15.7222 10.3444 15.8657 10.3419 16.0092C10.4087 16.0173 10.4758 16.0233 10.5432 16.0229C10.6173 16.0047 10.6932 16.0106 10.7673 16.025C10.7663 16.1089 10.7659 16.1928 10.7652 16.2766C10.6251 16.2794 10.4846 16.2801 10.3444 16.2794C10.3465 16.6956 10.3419 17.1117 10.3434 17.5275C10.3416 17.5973 10.3581 17.6762 10.4231 17.7148C10.5496 17.7471 10.6792 17.7222 10.8053 17.7043C10.8053 17.7878 10.8042 17.8713 10.8025 17.9552C10.6412 17.992 10.4649 18.031 10.3068 17.9615C10.1923 17.9198 10.1178 17.8152 10.0701 17.7082C10.0469 17.398 10.0571 17.0861 10.0599 16.7749L10.0335 16.7664C10.082 16.6106 10.0441 16.4433 10.0571 16.2826C9.96749 16.2798 9.87791 16.2787 9.78869 16.2763C9.78798 16.1942 9.78728 16.1124 9.78271 16.031C9.87405 15.9998 9.97135 16.0303 10.0641 16.0064C10.0588 15.8633 10.0637 15.7205 10.0687 15.5777Z" fill="#010101"/>
<path d="M17.6117 15.5762C17.7051 15.5769 17.7986 15.5773 17.892 15.5776C17.891 15.7218 17.892 15.8661 17.8913 16.0106C18.0234 16.0099 18.1558 16.0131 18.2882 16.0064C18.3244 16.0927 18.3093 16.1871 18.3114 16.2783C18.1709 16.2783 18.0304 16.2783 17.8899 16.279C17.8895 16.7057 17.8906 17.1324 17.8924 17.559C17.8888 17.6148 17.9212 17.6625 17.9454 17.7103C17.9939 17.7204 18.0427 17.7313 18.0915 17.7422C18.1765 17.7267 18.2619 17.7152 18.348 17.7067C18.3469 17.7902 18.3466 17.8741 18.3469 17.958C18.3072 17.9639 18.2675 17.9706 18.2285 17.9776C18.1361 18.0067 18.0385 17.9955 17.9436 17.9938C17.7406 17.9513 17.604 17.7664 17.5938 17.5639C17.5941 17.1355 17.5903 16.7071 17.5913 16.279C17.5067 16.2794 17.4216 16.2797 17.337 16.2801C17.337 16.1955 17.3366 16.111 17.3359 16.0264C17.4178 16.012 17.501 16.012 17.5829 16.0268C17.6261 15.8801 17.6061 15.7264 17.6117 15.5762Z" fill="#010101"/>
<path d="M5.4442 16.3334C5.72558 15.8706 6.4875 15.8296 6.81419 16.2629C7.00001 16.4931 7.02952 16.798 7.04216 17.0822C6.54967 17.0871 6.05683 17.0752 5.56434 17.085C5.58963 17.2646 5.63776 17.4552 5.77651 17.5825C5.93634 17.7387 6.1847 17.7569 6.3923 17.7053C6.5567 17.6573 6.66595 17.512 6.71653 17.3552C6.81173 17.3236 6.91816 17.3492 7.01722 17.3425C6.96699 17.6429 6.72812 17.9039 6.42883 17.9706C6.30027 18.0099 6.16432 17.9994 6.03189 17.9927C5.68869 17.9411 5.39643 17.6713 5.31775 17.3338C5.23941 17.0018 5.26119 16.6285 5.4442 16.3334ZM5.9114 16.2731C5.70345 16.3699 5.60614 16.5994 5.5661 16.8124C5.95602 16.8134 6.34593 16.8145 6.7355 16.8141C6.72321 16.7222 6.70002 16.6327 6.67157 16.5447C6.55354 16.2583 6.18435 16.1338 5.9114 16.2731Z" fill="#010101"/>
<path d="M16.0255 16.0212C16.2696 15.9331 16.5559 15.9341 16.7881 16.058C16.989 16.1633 17.1102 16.3896 17.1018 16.6145C17.0986 17.0619 17.1102 17.5099 17.0958 17.9569C17.0628 17.9555 16.9971 17.9524 16.9641 17.9506C16.9254 17.9447 16.8865 17.939 16.8482 17.9341C16.8443 17.8675 16.8404 17.8004 16.8369 17.7341C16.7185 17.8573 16.5682 17.9464 16.4013 17.9843C16.2759 18.0015 16.1477 18.0057 16.023 17.9836C15.8323 17.9352 15.6436 17.8117 15.5871 17.6138C15.547 17.4113 15.5516 17.1668 15.7251 17.0247C16.0237 16.7587 16.4526 16.8029 16.8159 16.704C16.8208 16.5527 16.805 16.3727 16.6592 16.2885C16.4667 16.1917 16.2138 16.1864 16.035 16.3159C15.9436 16.3805 15.9145 16.491 15.8959 16.5948C15.7993 16.5945 15.7027 16.5945 15.6061 16.5941C15.598 16.3345 15.7873 16.1054 16.0255 16.0212ZM16.0223 17.1412C15.834 17.219 15.7968 17.5026 15.945 17.6352C16.0283 17.7204 16.1565 17.7187 16.2658 17.7433C16.454 17.7257 16.65 17.6433 16.7477 17.4727C16.8482 17.3222 16.7993 17.1338 16.8099 16.9647C16.5464 17.0148 16.2696 17.0313 16.0223 17.1412Z" fill="#010101"/>
<path d="M18.7546 16.191C18.9931 15.945 19.384 15.9026 19.6932 16.0278C19.925 16.1317 20.1295 16.3562 20.1252 16.6225C20.0283 16.6215 19.9313 16.6218 19.8347 16.6229C19.8147 16.5633 19.794 16.5036 19.7729 16.4443C19.5952 16.1513 19.1185 16.1492 18.9218 16.4218C18.7742 16.6268 18.7549 16.8927 18.7711 17.1366C18.7886 17.3629 18.8986 17.611 19.1248 17.6952C19.3798 17.8057 19.7237 17.6934 19.8231 17.4232C19.8291 17.3836 19.8354 17.3439 19.8421 17.3046C19.944 17.3025 20.0459 17.3025 20.1477 17.3036C20.1249 17.4882 20.0462 17.6678 19.9036 17.791C19.7062 17.9783 19.4114 18.0267 19.1501 17.9836C18.9376 17.9387 18.7447 17.8113 18.6295 17.6264C18.4806 17.3882 18.4521 17.0955 18.4714 16.8211C18.5048 16.591 18.5758 16.352 18.7546 16.191Z" fill="#010101"/>
<path d="M7.55996 16.1254C7.8171 15.9331 8.17821 15.9145 8.46942 16.0352C8.69494 16.1352 8.83229 16.371 8.83053 16.6145C8.82878 17.0615 8.83089 17.5089 8.82878 17.9562C8.74904 17.9415 8.66789 17.939 8.58886 17.958C8.57059 17.885 8.55794 17.8106 8.54951 17.7362C8.3528 17.9692 8.01733 18.0447 7.72823 17.9741C7.54591 17.9341 7.3766 17.8078 7.31653 17.6275C7.24452 17.4183 7.28351 17.1569 7.46407 17.0134C7.75984 16.7608 8.17716 16.8026 8.53195 16.7054C8.53616 16.5601 8.53125 16.3857 8.3939 16.2984C8.22142 16.1948 7.99485 16.1945 7.81394 16.2787C7.69415 16.3345 7.62917 16.465 7.62671 16.5934C7.52659 16.5952 7.42648 16.5952 7.32601 16.5941C7.3369 16.4145 7.41454 16.2359 7.55996 16.1254ZM7.73525 17.1478C7.56629 17.2282 7.52132 17.471 7.64216 17.611C7.72155 17.712 7.85855 17.7194 7.97482 17.7433C8.19964 17.7331 8.43008 17.6103 8.51087 17.391C8.54951 17.2524 8.52527 17.1061 8.52984 16.9647C8.26357 17.0162 7.98466 17.0338 7.73525 17.1478Z" fill="#010101"/>
<path d="M12.9963 16.7215C12.9366 16.4819 12.8319 16.2524 12.7971 16.0082C12.892 16.0103 12.9865 16.0166 13.0806 16.0261C13.2267 16.5275 13.396 17.0229 13.5243 17.5292C13.6809 17.0313 13.8358 16.5324 13.9704 16.0278C14.0445 16.0243 14.1183 16.0215 14.1924 16.0156C14.2201 16.0191 14.2753 16.0268 14.3027 16.0303C14.4411 16.531 14.6157 17.0215 14.7544 17.5222C14.8837 17.0563 15.0196 16.592 15.1486 16.1257C15.1521 16.1019 15.1588 16.0545 15.1623 16.0306C15.2561 16.0071 15.3527 16.0085 15.4489 16.0078C15.4507 16.1321 15.3976 16.2464 15.366 16.3643C15.3042 16.578 15.236 16.7903 15.1823 17.0064C15.0934 17.318 15.0038 17.6292 14.9108 17.9398C14.8085 17.9401 14.7067 17.9405 14.6048 17.9405C14.4843 17.5429 14.354 17.1489 14.2335 16.7513C14.1977 16.6436 14.1643 16.5352 14.1292 16.4275C13.9802 16.9313 13.8362 17.4366 13.6837 17.9394C13.5791 17.9405 13.4747 17.9405 13.3704 17.9405C13.2475 17.5334 13.1203 17.1278 12.9963 16.7215Z" fill="#010101"/>
</g>
<defs>
<clipPath id="clip0_1449_43">
<rect width="24" height="24" fill="white"/>
</clipPath>
</defs>
</svg>
