<svg width="24" height="24" viewBox="0 0 24 24" fill="none" xmlns="http://www.w3.org/2000/svg">
<g clip-path="url(#clip0_1447_11)">
<path d="M20.4 0H3.6C1.61177 0 0 1.61177 0 3.6V20.4C0 22.3882 1.61177 24 3.6 24H20.4C22.3882 24 24 22.3882 24 20.4V3.6C24 1.61177 22.3882 0 20.4 0Z" fill="white"/>
<path d="M18.6469 4.54688V5.10938H19.2094V4.54688H18.6469ZM11.1656 7.64064C12.5953 7.64808 13.9637 8.22222 14.9708 9.23714C15.9778 10.2521 16.5412 11.6249 16.5375 13.0546C16.5338 14.4844 15.9632 15.8543 14.9509 16.8639C13.9386 17.8736 12.5672 18.4406 11.1375 18.4406C9.70777 18.4406 8.33639 17.8736 7.3241 16.8639C6.31181 15.8543 5.74124 14.4844 5.73752 13.0546C5.73379 11.6249 6.29722 10.2521 7.30424 9.23714C8.31125 8.22222 9.67966 7.64808 11.1094 7.64064M11.1656 4.94063C9.01982 4.94808 6.96465 5.80669 5.45129 7.32796C3.93792 8.84923 3.09004 10.9088 3.09376 13.0547C3.09749 15.2005 3.95252 17.2571 5.47116 18.7732C6.9898 20.2892 9.04793 21.1406 11.1937 21.1406C13.3396 21.1406 15.3977 20.2892 16.9163 18.7732C18.435 17.2571 19.29 15.2005 19.2937 13.0547C19.2975 10.9088 18.4496 8.84923 16.9362 7.32796C15.4228 5.80669 13.3677 4.94808 11.2219 4.94063H11.1656ZM20.3906 3.98438V4.54688H20.9531V3.98438H20.3906ZM20.3906 2.85938V3.42188H20.9531V2.85938H20.3906Z" fill="#FDB511"/>
<path fill-rule="evenodd" clip-rule="evenodd" d="M14.6559 10.7906V11.3531C13.0817 12.8719 12.7443 14.1656 12.4632 15.3469C12.3508 16.0781 12.3508 16.5281 11.5074 16.6406C11.3388 16.6406 10.9452 16.4719 10.7766 16.1906C10.5517 15.7969 9.93321 14.2781 9.37099 13.3781C8.97743 12.5906 8.35898 11.9156 7.79675 11.2406C7.57186 10.9594 7.45942 10.7344 7.62809 10.5094C7.79675 10.2281 7.96542 10.2844 8.19031 10.3406C9.59588 10.9594 10.383 11.9156 11.0577 13.2656C11.6761 11.7469 12.0135 10.9594 13.5315 9.10312H14.0937V8.54063H14.6559V7.92188H15.2181V7.35938H16.3426V7.92188H15.7804V6.79688H16.3426V6.23438H19.2099V5.10938H19.7722V5.67188H16.961V5.10938H17.5233V6.79688H18.0855V4.54688H19.7722V3.42188H20.3906V3.98438H18.6477V7.35938H18.0855V7.92188H17.5233V8.54063H16.961V9.10312H15.7804V8.54063H16.3426V9.66562H15.7804V10.2281H15.2181V10.7906H14.6559Z" fill="black"/>
</g>
<defs>
<clipPath id="clip0_1447_11">
<rect width="24" height="24" fill="white"/>
</clipPath>
</defs>
</svg>
