<svg width="24" height="24" viewBox="0 0 24 24" fill="none" xmlns="http://www.w3.org/2000/svg">
<path d="M21.3548 11.6774H12.9677C12.5806 11.6774 12.3225 11.4194 12.3225 11.0323V4.12903C12.3225 3.80645 12.5806 3.54839 12.8386 3.48387L21.2257 2C21.4193 2 21.6128 2 21.7419 2.12903C21.9354 2.25806 21.9999 2.45161 21.9999 2.64516V11.0323C21.9999 11.4194 21.7419 11.6774 21.3548 11.6774Z" fill="#00ADEF"/>
<path d="M10.3871 11.6774H2.64516C2.25806 11.6774 2 11.4194 2 11.0323V5.87097C2 5.54839 2.25806 5.29032 2.51613 5.22581L10.2581 3.93548C10.4516 3.93548 10.6452 3.93548 10.7742 4.06452C10.9677 4.19355 11.0323 4.3871 11.0323 4.58065V11.0323C11.0323 11.4194 10.7742 11.6774 10.3871 11.6774Z" fill="#00ADEF"/>
<path d="M10.3871 20.7097C10.3226 20.7097 10.3226 20.7097 10.2581 20.7097L2.51613 19.4194C2.25806 19.3548 2 19.0968 2 18.7742V13.6129C2 13.2258 2.25806 12.9677 2.64516 12.9677H10.3871C10.7742 12.9677 11.0323 13.2258 11.0323 13.6129V20.0645C11.0323 20.2581 10.9677 20.4516 10.7742 20.5806C10.7097 20.6452 10.5161 20.7097 10.3871 20.7097Z" fill="#00ADEF"/>
<path fill-rule="evenodd" clip-rule="evenodd" d="M13.4444 14.375C13.4241 14.375 13.4058 14.383 13.3932 14.3954C13.3809 14.4076 13.375 14.4228 13.375 14.4375V18.8125C13.375 18.8272 13.3809 18.8424 13.3932 18.8546C13.4058 18.867 13.4241 18.875 13.4444 18.875H20.5556C20.5759 18.875 20.5942 18.867 20.6068 18.8546C20.6191 18.8424 20.625 18.8272 20.625 18.8125V14.4375C20.625 14.4228 20.6191 14.4076 20.6068 14.3954C20.5942 14.383 20.5759 14.375 20.5556 14.375H13.4444ZM18.7083 19.625H20.5556C20.771 19.625 20.9788 19.5408 21.1329 19.3891C21.2872 19.2372 21.375 19.0299 21.375 18.8125V14.4375C21.375 14.2201 21.2872 14.0128 21.1329 13.8609C20.9788 13.7092 20.771 13.625 20.5556 13.625H13.4444C13.229 13.625 13.0212 13.7092 12.8671 13.8609C12.7128 14.0128 12.625 14.2201 12.625 14.4375V18.8125C12.625 19.0299 12.7128 19.2372 12.8671 19.3891C13.0212 19.5408 13.229 19.625 13.4444 19.625H15.2917V20.625H14.7778C14.5707 20.625 14.4028 20.7929 14.4028 21C14.4028 21.2071 14.5707 21.375 14.7778 21.375H19.2222C19.4293 21.375 19.5972 21.2071 19.5972 21C19.5972 20.7929 19.4293 20.625 19.2222 20.625H18.7083V19.625ZM17.9583 19.625H16.0417V20.625H17.9583V19.625ZM17.4444 14.9375C17.6052 14.9375 17.7481 15.04 17.7996 15.1922L18.1578 16.25H19.2222C19.4293 16.25 19.5972 16.4179 19.5972 16.625C19.5972 16.8321 19.4293 17 19.2222 17H17.8889C17.7281 17 17.5853 16.8975 17.5337 16.7453L17.4444 16.4817L16.9107 18.0578C16.8651 18.1927 16.7469 18.29 16.6058 18.3091C16.4647 18.3282 16.3249 18.2657 16.2451 18.1478L15.4677 17H14.7778C14.5707 17 14.4028 16.8321 14.4028 16.625C14.4028 16.4179 14.5707 16.25 14.7778 16.25H15.6667C15.7911 16.25 15.9074 16.3117 15.9772 16.4147L16.4426 17.1019L17.0893 15.1922C17.1408 15.04 17.2837 14.9375 17.4444 14.9375Z" fill="#00ADEF"/>
</svg>
