<svg width="241" height="240" viewBox="0 0 241 240" fill="none" xmlns="http://www.w3.org/2000/svg">
<path d="M97.6498 199.42C100.709 197.392 92.6948 198.157 92.0297 196.793C88.8568 196.528 85.7165 195.96 82.6518 195.097C76.8987 193.634 63.2642 184.422 61.8342 175.776C60.4043 167.13 61.8342 150.336 67.9199 140.493C71.8068 134.461 76.8064 129.224 82.6518 125.062C82.6518 125.062 70.7798 96.8288 69.7489 75.5124C68.718 54.196 70.2477 16.0193 84.3478 15.3209C98.4479 14.6226 95.9538 50.1721 93.7257 73.2843C92.2962 88.64 92.0627 104.084 93.0274 119.475C98.9561 117.579 105.128 116.549 111.351 116.416C116.823 116.292 122.292 116.805 127.646 117.946C127.646 117.946 132.035 85.1563 146.734 64.7378C161.433 44.3192 176.664 23.3021 186.64 29.2547C196.616 35.2074 183.946 56.4905 175.134 67.5644C166.321 78.6383 151.024 95.2658 145.936 104.145C142.606 110.056 139.662 116.177 137.123 122.468C146.201 127.132 153.629 134.468 158.407 143.485C165.29 157.719 165.955 175.377 162.231 182.826C160.29 186.278 157.612 189.26 154.388 191.56C151.163 193.859 147.471 195.419 143.575 196.128C139.185 196.461 120.596 201.05 120.596 201.05L97.6498 199.42Z" fill="white"/>
<path d="M130.104 118.212C130.104 118.212 141.178 89.2799 151.121 72.985C161.065 56.69 174.4 44.419 178.59 46.9131C182.78 49.4072 170.01 64.7045 158.903 79.5694C149.782 92.7368 141.518 106.477 134.161 120.706L130.104 118.212Z" fill="#DD00A1"/>
<path d="M85.6778 123.2L88.8371 120.706C88.8371 120.706 88.4047 91.7742 88.8371 74.1491C89.2694 56.524 90.2005 34.5425 84.3144 34.7753C78.4283 35.0081 74.3379 51.9016 76.6325 75.9449C78.3291 91.9206 81.3547 107.727 85.6778 123.2Z" fill="#DD00A1"/>
<path d="M75.7333 185.287C79.2964 185.287 82.1848 182.399 82.1848 178.835C82.1848 175.272 79.2964 172.384 75.7333 172.384C72.1703 172.384 69.2819 175.272 69.2819 178.835C69.2819 182.399 72.1703 185.287 75.7333 185.287Z" fill="#F9D8D2"/>
<path d="M151.956 185.287C155.519 185.287 158.407 182.399 158.407 178.835C158.407 175.272 155.519 172.384 151.956 172.384C148.393 172.384 145.504 175.272 145.504 178.835C145.504 182.399 148.393 185.287 151.956 185.287Z" fill="#F9D8D2"/>
<path d="M124.551 178.27C124.436 178.17 124.288 178.114 124.135 178.114C123.982 178.114 123.834 178.17 123.719 178.27C123.719 178.27 121.824 181.596 119.03 181.795C118.085 181.764 117.156 181.541 116.298 181.141C115.441 180.741 114.674 180.172 114.042 179.467V174.945C115.838 173.98 118.731 170.987 118.731 169.957C118.485 168.848 117.842 167.868 116.923 167.2C116.004 166.532 114.873 166.224 113.743 166.332C110.417 166.332 108.089 168.493 108.089 170.289C108.089 172.085 111.748 174.379 112.778 175.078V179.9C112.268 180.576 111.617 181.134 110.871 181.536C110.125 181.938 109.301 182.174 108.455 182.228C105.795 182.228 103.8 178.636 103.8 178.603C103.722 178.46 103.592 178.353 103.437 178.303C103.282 178.254 103.114 178.266 102.968 178.337C102.836 178.408 102.735 178.526 102.686 178.667C102.637 178.809 102.643 178.964 102.702 179.102C102.702 179.301 105.063 183.391 108.455 183.391C109.407 183.359 110.342 183.13 111.201 182.718C112.059 182.305 112.823 181.72 113.444 180.997C114.849 182.427 116.731 183.291 118.731 183.425H119.197C120.393 183.197 121.525 182.706 122.508 181.987C123.492 181.268 124.303 180.339 124.883 179.268C124.991 179.156 125.051 179.007 125.051 178.852C125.051 178.697 124.991 178.548 124.883 178.437C124.787 178.356 124.673 178.299 124.551 178.27Z" fill="#10110E"/>
<path d="M82.6521 125.062C82.6521 125.062 73.5735 101.784 71.6447 89.4462C69.7159 77.1086 68.3192 56.9229 70.6471 43.3881C71.5821 37.116 72.9037 30.9077 74.6044 24.7986C74.6044 24.7986 70.248 56.3575 71.8775 70.1583C73.507 83.9591 82.6521 125.062 82.6521 125.062Z" fill="#E5E5E5"/>
<path d="M127.644 117.913C127.644 117.913 134.295 82.6958 143.972 68.8285C153.649 54.9611 165.787 38.2672 171.74 34.0105L177.792 29.7539C177.792 29.7539 153.383 55.2272 143.972 76.3108C134.561 97.3944 127.644 117.913 127.644 117.913Z" fill="#E5E5E5"/>
<path d="M88.8717 157.818C87.8719 157.818 86.8947 158.115 86.0634 158.67C85.2322 159.226 84.5843 160.015 84.2017 160.939C83.8191 161.862 83.719 162.879 83.9141 163.859C84.1091 164.84 84.5905 165.74 85.2974 166.447C86.0043 167.154 86.905 167.636 87.8855 167.831C88.8661 168.026 89.8824 167.926 90.806 167.543C91.7297 167.161 92.5191 166.513 93.0745 165.681C93.63 164.85 93.9264 163.873 93.9264 162.873C93.9265 161.544 93.4031 160.268 92.4695 159.322C91.5359 158.376 90.2672 157.836 88.9382 157.818H88.8717ZM90.2019 162.507C89.9256 162.507 89.6556 162.425 89.4259 162.272C89.1962 162.118 89.0172 161.9 88.9115 161.645C88.8058 161.39 88.7781 161.109 88.832 160.838C88.8859 160.567 89.0189 160.318 89.2143 160.123C89.4096 159.928 89.6585 159.795 89.9294 159.741C90.2003 159.687 90.4812 159.714 90.7364 159.82C90.9916 159.926 91.2097 160.105 91.3632 160.335C91.5167 160.564 91.5986 160.834 91.5986 161.111C91.603 161.294 91.5712 161.477 91.5051 161.648C91.439 161.819 91.3397 161.975 91.2131 162.108C91.0865 162.241 90.935 162.347 90.7672 162.422C90.5993 162.496 90.4186 162.536 90.2351 162.541L90.2019 162.507Z" fill="#10110E"/>
<path d="M138.587 157.818C137.587 157.812 136.608 158.102 135.773 158.652C134.938 159.202 134.285 159.987 133.897 160.908C133.508 161.829 133.401 162.845 133.59 163.827C133.779 164.808 134.254 165.712 134.956 166.424C135.659 167.135 136.556 167.623 137.535 167.824C138.514 168.026 139.531 167.932 140.458 167.556C141.384 167.179 142.177 166.537 142.738 165.709C143.299 164.881 143.602 163.906 143.609 162.906C143.613 162.243 143.487 161.585 143.237 160.97C142.987 160.355 142.618 159.795 142.152 159.322C141.685 158.85 141.131 158.474 140.519 158.216C139.907 157.958 139.251 157.823 138.587 157.818ZM140.084 162.507C139.9 162.512 139.718 162.48 139.547 162.414C139.375 162.348 139.219 162.249 139.086 162.122C138.953 161.995 138.847 161.844 138.773 161.676C138.698 161.508 138.658 161.327 138.654 161.144C138.653 160.776 138.795 160.422 139.049 160.156C139.303 159.889 139.649 159.731 140.017 159.714C140.201 159.71 140.383 159.741 140.554 159.807C140.725 159.874 140.882 159.973 141.015 160.099C141.147 160.226 141.254 160.378 141.328 160.545C141.402 160.713 141.443 160.894 141.447 161.077C141.451 161.257 141.421 161.435 141.356 161.602C141.292 161.769 141.195 161.922 141.071 162.051C140.948 162.181 140.8 162.285 140.636 162.358C140.472 162.43 140.296 162.47 140.117 162.474L140.084 162.507Z" fill="#10110E"/>
<path opacity="0.2" d="M114.676 198.589C140.572 198.589 161.565 183.462 161.565 164.802C161.565 146.142 140.572 131.015 114.676 131.015C88.7795 131.015 67.7863 146.142 67.7863 164.802C67.7863 183.462 88.7795 198.589 114.676 198.589Z" fill="#8ACCCE"/>
<path d="M171.442 146.013V123.665C173.188 123.267 174.755 122.306 175.903 120.93C177.05 119.554 177.714 117.84 177.793 116.05C177.562 113.887 176.539 111.886 174.922 110.432C173.304 108.978 171.206 108.174 169.031 108.174C166.855 108.174 164.757 108.978 163.139 110.432C161.522 111.886 160.499 113.887 160.268 116.05C160.361 117.845 161.039 119.561 162.198 120.936C163.356 122.311 164.932 123.269 166.686 123.665V145.447H166.021C159.37 122.368 139.716 107.936 114.044 107.936C88.3707 107.936 68.6173 122.235 62.0993 145.447H59.8712C57.4692 145.338 55.12 146.175 53.329 147.78C51.538 149.384 50.4481 151.628 50.2938 154.027V171.12C50.4313 173.529 51.515 175.786 53.3089 177.399C55.1028 179.012 57.4615 179.851 59.8712 179.733H62.8974C65.4371 186.284 69.5348 192.116 74.836 196.726L70.5461 200.617C70.2861 200.838 70.0721 201.107 69.9163 201.41C69.7605 201.714 69.6661 202.045 69.6383 202.384C69.6105 202.724 69.6499 203.066 69.7543 203.39C69.8587 203.715 70.0261 204.016 70.2468 204.275C79.9905 216.014 95.9196 222.898 113.911 222.898C131.901 222.898 147.864 216.247 157.608 204.275C158.055 203.745 158.275 203.06 158.219 202.368C158.163 201.676 157.835 201.035 157.308 200.584L152.985 196.627C158.273 192.045 162.37 186.248 164.924 179.733H168.249C170.661 179.851 173.021 179.006 174.81 177.385C176.6 175.764 177.673 173.499 177.793 171.087V154.027C177.735 152.186 177.086 150.413 175.942 148.97C174.798 147.527 173.22 146.49 171.442 146.013ZM114.044 132.711C137.788 132.711 157.075 148.341 157.075 167.529C157.075 188.313 135.426 197.458 114.044 197.458C92.6606 197.458 71.0116 188.246 71.0116 167.362C71.0116 148.341 90.1997 132.544 114.044 132.544V132.711Z" fill="white"/>
<path d="M173.039 165.5H166.687V162.174C166.687 157.94 166.253 153.717 165.39 149.571H168.117C169.303 149.489 170.473 149.88 171.371 150.659C172.269 151.438 172.821 152.542 172.906 153.728L173.039 165.5Z" fill="#515151"/>
<path d="M168.25 175.543H164.925C165.556 173.162 166.023 170.739 166.321 168.294H172.972V171.12C172.964 171.706 172.84 172.283 172.608 172.821C172.376 173.358 172.04 173.844 171.62 174.252C171.2 174.66 170.704 174.981 170.16 175.196C169.616 175.412 169.035 175.519 168.45 175.51H168.25V175.543Z" fill="#515151"/>
<path d="M114.045 218.509C98.1159 218.509 83.9161 212.789 75.0038 202.613L79.3269 198.589C89.5467 205.41 101.63 208.895 113.912 208.566C126.198 208.926 138.291 205.438 148.497 198.589L152.987 202.613C144.174 212.789 130.107 218.509 114.045 218.509Z" fill="#515151"/>
<path d="M59.8716 149.737H62.6983C61.8632 153.887 61.4399 158.108 61.4346 162.341C61.3681 163.448 61.3681 164.559 61.4346 165.666H55.2492V154.027C55.2313 152.913 55.6548 151.836 56.4272 151.033C57.1997 150.229 58.2585 149.763 59.3728 149.737H59.8716Z" fill="#515151"/>
<path d="M114.044 129.685C108.654 129.715 103.294 130.487 98.1152 131.979V114.587C103.299 113.133 108.661 112.416 114.044 112.459C119.439 112.416 124.812 113.133 130.007 114.587V132.079C124.84 130.469 119.456 129.662 114.044 129.685Z" fill="black"/>
<path d="M55.0811 168.294H61.7321C62.058 170.716 62.5356 173.115 63.1621 175.477H59.8366C58.6506 175.559 57.4805 175.168 56.5828 174.388C55.6851 173.609 55.1331 172.506 55.0479 171.32V168.294H55.0811Z" fill="#515151"/>
<path d="M169.046 119.642C171.25 119.642 173.037 118.034 173.037 116.05C173.037 114.067 171.25 112.459 169.046 112.459C166.842 112.459 165.056 114.067 165.056 116.05C165.056 118.034 166.842 119.642 169.046 119.642Z" fill="#515151"/>
</svg>
