<svg width="241" height="240" viewBox="0 0 241 240" fill="none" xmlns="http://www.w3.org/2000/svg">
<path d="M179.707 15.625L172.478 24.8799C172.638 25.0682 184.98 43.9839 184.98 66.4367C184.98 88.8895 172.638 107.809 172.492 107.987L179.714 117.241C180.51 116.314 199.188 94.2532 199.188 66.4367C199.188 38.6202 180.506 16.5557 179.707 15.625ZM69.4741 15.6319C68.6785 16.559 50 38.6202 50 66.4367C50 94.2532 68.6785 116.314 69.4741 117.241L76.7101 107.994C76.5503 107.805 64.2084 88.8895 64.2084 66.4367C64.2084 43.9839 76.5506 25.0644 76.6963 24.8868L69.4741 15.6319ZM86.9294 40.8852C86.5813 41.3505 78.4168 52.4734 78.4168 66.4367C78.4168 80.4 86.5813 91.5229 86.9294 91.9883L94.7898 83.5312C94.7365 83.4531 92.6252 75.594 92.6252 66.4367C92.6252 57.2794 94.7368 49.4197 94.7759 49.37L86.9294 40.8852ZM162.266 40.8852L154.399 49.3422C154.452 49.4204 156.563 57.2794 156.563 66.4367C156.563 75.594 154.451 83.4537 154.412 83.5035L162.259 91.9883C162.607 91.5229 170.771 80.4 170.771 66.4367C170.771 52.4734 162.61 41.3505 162.266 40.8852ZM124.594 48.6762C122.098 48.6766 119.645 49.3348 117.484 50.5846C115.322 51.8343 113.529 53.6316 112.283 55.7952C111.037 57.9589 110.384 60.4125 110.388 62.9092C110.392 65.4058 111.054 67.8572 112.307 70.0166L66.1093 215.625H81.0185L124.594 78.2655L137.484 118.886L124.289 112.822L119.96 126.469L135.736 133.725L115.027 142.009L105.224 172.917L159.005 186.729L159.532 188.395L97.0099 198.815L92.1882 214.022L163.868 202.069L168.17 215.625H183.079L136.874 69.9958C138.122 67.8375 138.779 65.3889 138.781 62.8959C138.783 60.4029 138.129 57.9533 136.885 55.793C135.641 53.6327 133.85 51.8379 131.693 50.5887C129.535 49.3395 127.087 48.6799 124.594 48.6762ZM145.768 145.02L153.934 170.752L109.789 159.416L145.768 145.02Z" fill="#E02D3C"/>
</svg>
