<svg width="241" height="240" viewBox="0 0 241 240" fill="none" xmlns="http://www.w3.org/2000/svg">
<path d="M30.8168 135.874H32.3949V140.753C32.7818 140.245 33.2292 139.852 33.7371 139.574C34.245 139.296 34.8436 139.157 35.5329 139.157C36.198 139.157 36.7814 139.278 37.2832 139.519C37.7851 139.761 38.2023 140.1 38.5348 140.535C38.8674 140.971 39.1153 141.488 39.2785 142.086C39.4418 142.685 39.5234 143.347 39.5234 144.072C39.5234 144.846 39.4266 145.545 39.2332 146.167C39.0397 146.79 38.7616 147.319 38.3988 147.754C38.036 148.19 37.5977 148.525 37.0837 148.761C36.5698 148.997 35.9924 149.115 35.3515 149.115C34.8073 149.115 34.2783 149.003 33.7643 148.779C33.2504 148.556 32.7879 148.172 32.3767 147.627V148.825H30.8168V135.874ZM32.3767 144.399C32.3767 145.003 32.4463 145.52 32.5853 145.95C32.7244 146.379 32.9149 146.733 33.1567 147.011C33.3986 147.289 33.6888 147.491 34.0274 147.618C34.366 147.745 34.7348 147.809 35.1338 147.809C35.5208 147.809 35.8805 147.742 36.2131 147.609C36.5456 147.476 36.8328 147.262 37.0747 146.965C37.3165 146.669 37.507 146.285 37.646 145.814C37.7851 145.342 37.8546 144.768 37.8546 144.09C37.8546 143.401 37.779 142.824 37.6279 142.358C37.4767 141.893 37.2802 141.521 37.0384 141.243C36.7965 140.965 36.5214 140.765 36.2131 140.644C35.9047 140.523 35.5873 140.463 35.2608 140.463C34.8496 140.463 34.4687 140.532 34.118 140.671C33.7674 140.81 33.462 141.016 33.202 141.288C32.942 141.56 32.7395 141.905 32.5944 142.322C32.4493 142.739 32.3767 143.22 32.3767 143.764V144.399ZM41.6093 150.82C41.9479 150.941 42.2865 151.001 42.6251 151.001C43.0121 151.001 43.3113 150.902 43.523 150.702C43.7346 150.502 43.9432 150.131 44.1488 149.586L44.5297 148.589L40.5573 139.447H42.3893L45.3459 146.811L48.0486 139.447H49.7899L45.6905 149.713C45.5212 150.137 45.3519 150.509 45.1827 150.829C45.0134 151.149 44.8259 151.425 44.6204 151.654C44.4148 151.884 44.1699 152.056 43.8857 152.171C43.6016 152.286 43.2539 152.344 42.8428 152.344C42.5525 152.344 42.2926 152.325 42.0628 152.289C41.833 152.253 41.5791 152.186 41.301 152.09L41.6093 150.82ZM74.0253 138.121C76.8135 138.121 78.7996 140.17 78.7996 143.852C78.7996 146.13 77.9594 149.698 73.8726 149.698C72.4212 149.698 71.2754 148.901 71.008 148.445V153.076H67.6469V138.386H71.0462V139.373C71.3517 138.88 72.383 138.121 74.0253 138.121ZM60.7337 138.121C65.3934 138.386 66.4247 141.878 66.4247 143.89C66.4247 146.699 64.7442 149.736 60.3136 149.736C57.1053 149.736 54.1643 147.99 54.1643 143.89C54.1643 140.512 56.3796 137.893 60.7337 138.121ZM89.876 139.563C91.3655 141.119 91.4419 143.283 91.4801 144.535H83.2684C83.2684 145.902 84.0705 147.306 85.9038 147.306C87.7371 147.306 88.3864 146.13 88.8065 145.37L91.3274 146.585C91.0218 147.23 90.0288 149.736 85.6364 149.736C82.2371 149.736 79.8691 147.724 79.8691 144.08C79.8691 141.423 81.2441 138.121 85.751 138.121C86.4385 138.121 88.3864 138.045 89.876 139.563ZM120.852 139.525C122.341 141.081 122.417 143.245 122.456 144.497H114.282C114.244 145.864 114.97 147.268 116.765 147.268C118.598 147.268 119.133 146.092 119.553 145.333L122.112 146.585L121.463 147.534C120.852 148.369 119.744 149.698 116.497 149.698C113.098 149.698 110.845 147.686 110.845 144.042C110.845 141.385 112.22 138.083 116.727 138.083L116.833 138.082C117.599 138.079 119.433 138.079 120.852 139.525ZM138.192 136.071V138.424H140.407V140.702H138.192V145.598C138.154 146.281 138.154 146.851 139.07 146.851L140.254 146.813V149.356C139.567 149.47 139.108 149.546 138.497 149.546C137.313 149.546 136.053 149.47 135.327 148.445C134.869 147.8 134.831 147.003 134.831 145.94V140.664H132.768L134.296 138.386H134.831V136.071H138.192ZM108.095 136.071V138.386H111.57L110.043 140.664H108.056V145.598C108.018 146.281 108.018 146.851 108.935 146.851L110.119 146.813V149.356C109.393 149.47 108.973 149.546 108.362 149.546C107.216 149.546 105.918 149.47 105.192 148.445C104.734 147.8 104.695 147.003 104.695 145.94V136.071H108.095ZM99.5773 138.121C100.265 138.121 101.029 138.234 101.602 138.538C102.786 139.145 103.129 140.132 103.129 141.878V149.47H99.7301V143.207C99.7301 142.22 99.6919 141.84 99.5773 141.537C99.31 140.929 98.737 140.702 98.0495 140.702C96.4421 140.702 96.3053 141.845 96.2937 143.116L96.2927 143.294L96.2926 149.47H92.9315V138.386H96.3308V139.373C96.6746 139.032 96.8655 138.766 97.4767 138.5C98.0114 138.272 98.737 138.121 99.5773 138.121ZM125.626 138.424L127.421 140.892L129.063 138.424H132.883L129.407 143.662L133.608 149.47H129.751L127.536 146.395L125.511 149.47H121.692L125.588 143.662L121.806 138.424H125.626ZM60.0844 140.74C59.1678 140.778 58.5948 141.081 58.1365 141.765C57.7164 142.372 57.5636 143.131 57.5636 143.89C57.5636 145.598 58.4421 147.155 60.3136 147.155C62.1469 147.155 63.0254 145.712 63.0254 144.042C63.0254 142.827 62.7199 141.916 62.0706 141.347C61.3831 140.74 60.5809 140.702 60.0844 140.74ZM73.3379 140.664C72.7268 140.664 72.0774 140.892 71.6191 141.499C71.1226 142.068 70.9316 142.941 70.9316 143.928C70.9316 145.219 71.3135 146.016 71.7337 146.471C72.1156 146.889 72.6886 147.155 73.2615 147.155C74.9038 147.155 75.6295 145.484 75.6295 143.852C75.6295 142.486 75.2094 141.043 73.8344 140.74C73.6434 140.702 73.4907 140.664 73.3379 140.664ZM85.6746 140.322C84.8725 140.322 84.2996 140.702 83.9559 141.043C83.4975 141.537 83.383 142.03 83.2684 142.524L87.9663 142.486C87.8899 142.03 87.8135 141.385 87.3169 140.929C86.8968 140.512 86.2475 140.322 85.6746 140.322ZM116.688 140.322C115.886 140.322 115.313 140.702 114.97 141.043C114.511 141.537 114.397 142.03 114.282 142.524L118.98 142.486C118.904 142.03 118.827 141.385 118.331 140.929C117.911 140.512 117.261 140.322 116.688 140.322ZM144.99 138.424L145.563 140.246L146.136 138.424H146.709V140.702H146.327V139.297L146.365 138.842L146.251 139.221L145.754 140.74H145.372L144.876 139.221L144.761 138.842L144.799 139.297V140.702H144.417V138.424H144.99ZM144.226 138.386V138.728H143.463V140.702H143.081V138.728H142.317V138.386H144.226ZM32.77 87.2597L46.3672 111.375L60.0108 87.2597H84.2527V92.9094H63.3141L46.411 122.845L26.295 87.2597H32.77ZM84.254 101.597V107.247H65.8347V115.63H84.254V121.28H60.1849V101.597H84.254ZM143.824 121.279H149.471V87.2589H143.824V121.279ZM105.024 87.2609C110.411 87.2609 114.756 91.6059 114.756 96.9927C114.756 101.033 112.236 104.553 108.673 105.987L117.015 121.281H111.367L103.415 106.681H92.2494V121.281H86.6021V87.2609H105.024ZM141.607 87.2599V92.9071H130.006V121.28H124.358V92.9071H116.666C115.885 90.6921 114.539 88.7813 112.757 87.3476V87.2599H141.607ZM105.024 92.9081H92.2494V101.077H105.024C107.283 101.077 109.109 99.2516 109.109 96.9927C109.109 94.7338 107.283 92.9081 105.024 92.9081ZM193.093 86L178.581 110.157V110.2C176.538 113.589 172.846 115.85 168.632 115.85C162.201 115.85 156.987 110.636 156.987 104.205C156.987 97.774 162.201 92.56 168.632 92.56C172.585 92.56 176.061 94.5146 178.191 97.5574L181.232 92.4749C178.104 89.084 173.627 87.0005 168.632 87.0005C159.117 87.0005 151.425 94.69 151.425 104.205C151.425 113.72 159.117 121.41 168.632 121.41C174.888 121.41 180.363 118.065 183.405 113.068L193.093 96.905L207.779 121.366L214.295 121.281L193.093 86Z" fill="#475659"/>
</svg>
