<svg width="24" height="24" viewBox="0 0 24 24" fill="none" xmlns="http://www.w3.org/2000/svg">
<g clip-path="url(#clip0_1006_1189)">
<path opacity="0.981" fill-rule="evenodd" clip-rule="evenodd" d="M4.77498 1.975C6.99164 1.975 9.20833 1.975 11.425 1.975C11.1851 2.2399 10.9351 2.49823 10.675 2.75C8.90833 2.76667 7.14163 2.78334 5.37498 2.8C3.79998 2.94167 2.94164 3.8 2.79998 5.375C2.76664 9.775 2.76664 14.175 2.79998 18.575C2.88963 19.9144 3.5813 20.7561 4.87498 21.1C6.79048 21.1718 8.70713 21.1968 10.625 21.175C10.625 21.4417 10.625 21.7084 10.625 21.975C8.67498 21.975 6.72498 21.975 4.77498 21.975C3.29164 21.5917 2.35831 20.6584 1.97498 19.175C1.97498 14.375 1.97498 9.575 1.97498 4.775C2.35831 3.29167 3.29164 2.35833 4.77498 1.975Z" fill="#00C1D5"/>
<path opacity="0.978" fill-rule="evenodd" clip-rule="evenodd" d="M13.125 1.975C15.1417 1.975 17.1584 1.975 19.175 1.975C20.6584 2.35833 21.5917 3.29167 21.975 4.775C21.975 6.75834 21.975 8.74165 21.975 10.725C21.7084 10.725 21.4417 10.725 21.175 10.725C21.1969 8.77385 21.1719 6.82384 21.1 4.875C20.8417 3.78334 20.1667 3.10834 19.075 2.85C16.8427 2.78603 14.6094 2.7527 12.375 2.75C12.6352 2.49823 12.8852 2.2399 13.125 1.975Z" fill="#77BE1F"/>
<path opacity="0.939" fill-rule="evenodd" clip-rule="evenodd" d="M5.77503 4.275C8.85978 4.25131 11.9431 4.27631 15.025 4.35C15.593 4.55129 15.9514 4.94296 16.1 5.525C16.125 5.95801 16.1333 6.39134 16.125 6.825C15.8454 6.84033 15.5704 6.82366 15.3 6.775C15.2834 6.39166 15.2667 6.00833 15.25 5.625C15.1497 5.35811 14.958 5.19978 14.675 5.15C11.6917 5.11666 8.70838 5.11666 5.72503 5.15C5.38695 5.25444 5.19529 5.47944 5.15003 5.825C5.11669 8.825 5.11669 11.825 5.15003 14.825C5.19673 15.1718 5.38839 15.3968 5.72503 15.5C6.15804 15.525 6.59137 15.5333 7.02503 15.525C7.02503 15.8083 7.02503 16.0916 7.02503 16.375C6.60803 16.3833 6.19136 16.375 5.77503 16.35C4.91669 16.225 4.42503 15.7333 4.30003 14.875C4.26669 11.825 4.26669 8.775 4.30003 5.725C4.45763 4.89232 4.9493 4.40898 5.77503 4.275Z" fill="#0090DA"/>
<path opacity="0.939" fill-rule="evenodd" clip-rule="evenodd" d="M8.97504 7.575C12.1084 7.56665 15.2417 7.575 18.375 7.6C19.1054 7.79705 19.5137 8.27205 19.6 9.025C19.625 9.5914 19.6334 10.1581 19.625 10.725C19.3417 10.725 19.0584 10.725 18.775 10.725C18.7834 10.1748 18.775 9.62475 18.75 9.075C18.6851 8.77655 18.5101 8.56825 18.225 8.45C15.1917 8.41665 12.1584 8.41665 9.12504 8.45C8.90004 8.54165 8.74169 8.7 8.65004 8.925C8.61669 12.0417 8.61669 15.1583 8.65004 18.275C8.74169 18.5 8.90004 18.6583 9.12504 18.75C9.62474 18.775 10.1247 18.7833 10.625 18.775C10.625 19.0583 10.625 19.3416 10.625 19.625C10.1081 19.6333 9.59144 19.625 9.07504 19.6C8.42709 19.4521 8.00209 19.0604 7.80004 18.425C7.76669 15.2083 7.76669 11.9917 7.80004 8.775C8.00094 8.1825 8.39259 7.7825 8.97504 7.575Z" fill="#0090DA"/>
<path opacity="0.939" fill-rule="evenodd" clip-rule="evenodd" d="M14.025 12.075C15.6026 12.061 16.4859 12.836 16.675 14.4C16.5717 15.6865 15.8884 16.4532 14.625 16.7C13.2542 16.7773 12.3959 16.1523 12.05 14.825C11.9312 13.3373 12.5895 12.4206 14.025 12.075ZM14.075 12.925C15.3352 12.9434 15.8935 13.5767 15.75 14.825C15.4427 15.6081 14.8677 15.9498 14.025 15.85C12.9732 15.4544 12.6482 14.7294 13.05 13.675C13.2934 13.2833 13.635 13.0333 14.075 12.925Z" fill="#1D418A"/>
<path opacity="0.943" fill-rule="evenodd" clip-rule="evenodd" d="M21.9749 12.175C21.9749 13.6584 21.9749 15.1417 21.9749 16.625C20.4916 16.625 19.0083 16.625 17.5249 16.625C17.5236 15.141 17.5236 13.6577 17.5249 12.175C19.0083 12.175 20.4916 12.175 21.9749 12.175ZM18.3249 13.025C19.2583 13.025 20.1916 13.025 21.1249 13.025C21.1249 13.9417 21.1249 14.8584 21.1249 15.775C20.1916 15.775 19.2583 15.775 18.3249 15.775C18.3249 14.8584 18.3249 13.9417 18.3249 13.025Z" fill="#1D418A"/>
<path opacity="0.943" fill-rule="evenodd" clip-rule="evenodd" d="M21.9751 19.625C21.9751 19.7083 21.9751 19.7916 21.9751 19.875C21.8245 20.9589 21.2245 21.6589 20.1751 21.975C19.7917 21.975 19.4084 21.975 19.0251 21.975C17.7858 21.5084 17.2275 20.6084 17.3501 19.275C17.7665 17.8593 18.7081 17.2509 20.1751 17.45C21.0262 17.6678 21.5845 18.1928 21.8501 19.025C21.892 19.2318 21.9337 19.4318 21.9751 19.625ZM19.4251 18.225C20.657 18.2736 21.1987 18.907 21.0501 20.125C20.7422 20.9083 20.1672 21.25 19.3251 21.15C18.4515 20.8783 18.0765 20.2866 18.2001 19.375C18.3938 18.7561 18.8021 18.3728 19.4251 18.225Z" fill="#1D418A"/>
<path opacity="0.955" fill-rule="evenodd" clip-rule="evenodd" d="M12.075 17.475C13.5583 17.475 15.0416 17.475 16.525 17.475C16.525 18.9584 16.525 20.4417 16.525 21.925C15.0416 21.925 13.5583 21.925 12.075 21.925C12.075 20.4417 12.075 18.9584 12.075 17.475ZM12.925 18.325C13.8416 18.325 14.7583 18.325 15.675 18.325C15.675 19.2584 15.675 20.1917 15.675 21.125C14.7583 21.125 13.8416 21.125 12.925 21.125C12.925 20.1917 12.925 19.2584 12.925 18.325Z" fill="#1D418A"/>
</g>
<defs>
<clipPath id="clip0_1006_1189">
<rect width="20" height="20" fill="white" transform="translate(2 2)"/>
</clipPath>
</defs>
</svg>
