<svg width="24" height="24" viewBox="0 0 24 24" fill="none" xmlns="http://www.w3.org/2000/svg">
<path d="M20.8125 11.9062H13.0938C12.7375 11.9062 12.5 11.6687 12.5 11.3125V4.95938C12.5 4.6625 12.7375 4.425 12.975 4.36563L20.6937 3C20.8719 3 21.05 3 21.1687 3.11875C21.3469 3.2375 21.4062 3.41563 21.4062 3.59375V11.3125C21.4062 11.6687 21.1687 11.9062 20.8125 11.9062Z" fill="#00ADEF"/>
<path d="M10.7188 11.9062H3.59375C3.2375 11.9062 3 11.6687 3 11.3125V6.5625C3 6.26562 3.2375 6.02813 3.475 5.96875L10.6 4.78125C10.7781 4.78125 10.9563 4.78125 11.075 4.9C11.2531 5.01875 11.3125 5.19688 11.3125 5.375V11.3125C11.3125 11.6687 11.075 11.9062 10.7188 11.9062Z" fill="#00ADEF"/>
<path d="M20.8125 22C20.7531 22 20.7531 22 20.6937 22L12.975 20.6344C12.6781 20.575 12.5 20.3375 12.5 20.0406V13.6875C12.5 13.3312 12.7375 13.0938 13.0938 13.0938H20.8125C21.1687 13.0938 21.4062 13.3312 21.4062 13.6875V21.4062C21.4062 21.5844 21.3469 21.7625 21.1687 21.8812C21.1094 21.9406 20.9312 22 20.8125 22Z" fill="#00ADEF"/>
<path d="M10.7188 20.2188C10.6594 20.2188 10.6594 20.2188 10.6 20.2188L3.475 19.0312C3.2375 18.9719 3 18.7344 3 18.4375V13.6875C3 13.3312 3.2375 13.0938 3.59375 13.0938H10.7188C11.075 13.0938 11.3125 13.3312 11.3125 13.6875V19.625C11.3125 19.8031 11.2531 19.9812 11.075 20.1C11.0156 20.1594 10.8375 20.2188 10.7188 20.2188Z" fill="#00ADEF"/>
</svg>
