<svg width="241" height="240" viewBox="0 0 241 240" fill="none" xmlns="http://www.w3.org/2000/svg">
<path d="M89.9034 26.049C85.0085 25.2959 81.9963 27.3668 78.984 28.6847C31.9176 50.147 9.13749 103.05 25.7049 152.187C40.5778 196.241 86.1381 225.234 131.51 219.209C178.953 212.997 216.606 174.967 219.618 130.348C219.807 127.524 221.501 123.571 218.677 121.688C216.23 120.182 213.594 123.194 211.146 124.512C172.74 145.033 134.522 165.742 96.1162 186.075C91.033 188.71 85.3851 195.111 79.1723 189.087C73.1478 183.251 78.984 177.226 81.2432 171.955C92.3509 144.28 103.647 116.981 114.943 89.3062C116.261 86.1057 117.955 81.7756 115.319 79.7046C112.119 77.2572 109.295 81.2108 106.659 83.47C94.4218 93.6363 82.1845 104.179 69.9473 114.346C67.1233 116.793 63.9228 118.864 60.7223 120.747C57.8983 122.441 54.6978 123.194 51.8738 120.935C48.8615 118.676 49.8029 115.099 50.7442 112.275C51.8738 108.698 53.7564 105.309 55.2626 101.92C66.5585 76.8807 78.0427 51.8413 89.9034 26.049ZM128.498 97.9664C127.933 103.803 129.439 106.438 135.275 103.426C136.97 102.485 138.664 101.543 139.982 100.414C156.361 85.5409 172.74 70.2914 189.308 55.6067C193.638 51.6531 191.379 49.5822 188.555 46.7582C168.598 28.6847 145.442 19.4597 118.332 20.0245C114.19 20.0245 112.119 21.7188 110.613 25.1076C105.529 36.9684 100.07 48.4526 95.1749 60.3133C94.0453 62.949 91.2213 66.7143 94.4218 68.7853C97.8106 71.2327 100.635 67.4674 103.27 65.2082C113.437 56.9245 123.415 48.2643 133.769 40.1689C137.723 37.1566 141.865 30.3791 147.136 33.9561C152.596 37.7214 146.948 43.7459 145.442 48.2643C139.417 65.0199 132.828 81.2108 128.498 97.9664Z" fill="#FDFDFC"/>
<path d="M89.9034 26.049C78.0427 51.8413 66.5586 76.8807 55.0744 101.92C53.5682 105.309 51.6856 108.698 50.556 112.275C49.6147 115.287 48.6733 118.676 51.6856 120.935C54.5096 123.194 57.7101 122.441 60.5341 120.747C63.7346 118.864 66.9351 116.793 69.7591 114.346C81.9963 104.179 94.2336 93.6363 106.471 83.47C108.918 81.3991 111.931 77.2572 115.131 79.7047C117.767 81.7756 116.072 86.1057 114.755 89.3062C103.459 116.793 92.1627 144.28 81.055 171.955C78.7958 177.415 73.1479 183.439 78.9841 189.087C85.1969 195.111 90.8448 188.71 95.928 186.075C134.334 165.742 172.74 145.033 210.958 124.512C213.406 123.194 216.041 120.182 218.489 121.688C221.501 123.571 219.618 127.336 219.43 130.348C216.606 175.155 178.953 212.997 131.322 219.209C85.9499 225.046 40.3896 196.241 25.5167 152.187C9.13756 103.05 31.9176 50.147 78.984 28.6847C81.9963 27.3668 84.8203 25.2959 89.9034 26.049Z" fill="#FE8503"/>
<path d="M128.498 97.9664C132.828 81.399 139.418 65.0199 145.254 48.6408C146.948 44.1225 152.408 38.098 146.948 34.3327C141.677 30.7556 137.535 37.3449 133.581 40.5454C123.415 48.4526 113.437 57.1128 103.271 65.3965C100.635 67.4674 97.8108 71.2327 94.422 68.9735C91.4098 66.7143 94.0455 63.1373 95.1751 60.5016C100.258 48.6408 105.53 36.9684 110.613 25.2959C112.119 21.7189 114.19 20.2127 118.332 20.2127C145.442 19.8362 168.599 28.873 188.555 46.9464C191.567 49.5822 193.826 51.8414 189.308 55.7949C172.741 70.2914 156.361 85.3526 139.982 100.414C138.664 101.732 136.97 102.673 135.275 103.426C129.439 106.438 127.933 103.803 128.498 97.9664Z" fill="#FE8605"/>
</svg>
