<svg width="241" height="240" viewBox="0 0 241 240" fill="none" xmlns="http://www.w3.org/2000/svg">
<path d="M30.8317 87.6047C36.7885 87.5711 42.7405 87.6239 48.6973 87.5759C51.2749 92.8223 53.7037 98.1359 56.2717 103.387C56.6845 104.232 56.9965 105.12 57.3037 106.013C60.3949 101.779 64.1437 98.1071 67.7053 94.2767C69.9517 91.9583 72.0733 89.5247 74.3629 87.2495C75.8605 87.7967 77.4733 87.5615 79.0381 87.5951C83.3629 87.6047 87.6877 87.5711 92.0125 87.6143C82.8157 97.4687 73.9549 107.635 64.7725 117.499C64.8781 118.109 65.0749 118.685 65.3581 119.237C70.2829 129.413 75.1837 139.603 80.1421 149.755C80.0941 149.928 79.9885 150.283 79.9357 150.456C74.3773 150.413 68.7901 150.691 63.2461 150.307C60.4285 143.64 57.2461 137.131 54.3661 130.488C53.1949 131.99 52.1485 133.613 50.7421 134.918C45.4045 140.16 40.2157 145.56 34.8109 150.739C34.0381 150.59 33.2605 150.456 32.4733 150.47C27.3613 150.504 22.2493 150.47 17.1421 150.49C18.0301 149.098 18.9565 147.715 20.0893 146.506C28.7773 137.05 37.3405 127.483 46.0717 118.07C45.9949 116.99 45.6637 115.963 45.1549 115.013C40.6333 105.749 35.5789 96.7535 30.8317 87.6047Z" fill="#1A1A1A"/>
<path d="M102.788 88.4447C111.188 88.4207 119.588 88.4351 127.988 88.4351C132.64 88.5887 137.248 89.3279 141.851 89.9855C147.404 90.7391 152.104 94.8191 154.374 99.8351C156.894 105.37 156.726 111.643 156.347 117.576C155.704 125.386 152.065 132.672 146.977 138.538C141.692 144.278 134.536 148.541 126.721 149.558C124.729 149.818 122.795 150.528 120.769 150.494C116.286 150.485 111.793 151.142 107.315 150.638C105.548 150.374 103.796 150.826 102.04 150.946C97.2157 151.262 92.3821 151.171 87.5533 151.33C92.5789 130.354 97.7581 109.416 102.788 88.4447ZM116.473 98.7647C115.614 103.368 115.12 108.043 113.9 112.574C112.264 119.155 110.9 125.808 108.995 132.317C108.544 134.626 108.284 136.968 108.025 139.301C111.817 139.238 115.628 139.507 119.406 139.123C122.603 138.509 125.867 137.784 128.66 136.037C132.107 133.968 134.934 130.939 136.878 127.43C139.484 122.856 140.123 117.485 140.094 112.306C140.012 109.483 138.452 107.03 137.128 104.635C135.044 100.896 130.705 98.9423 126.558 98.7695C123.198 98.7503 119.833 98.7791 116.473 98.7647Z" fill="#1A1A1A"/>
<path d="M174.625 89.7119C174.76 89.0303 175.129 88.2671 175.974 88.4447C184.46 88.4111 192.947 88.4543 201.438 88.4255C205.873 88.3391 210.371 89.1791 214.369 91.1423C216.328 92.1647 218.444 93.0575 219.966 94.7231C222.188 97.0751 223.648 100.387 223.168 103.661C223.062 104.251 223.225 104.837 223.374 105.408C222.923 109.93 221.133 114.49 217.811 117.686C214.24 120.686 210.241 123.384 205.585 124.32C210.318 133.056 215.228 141.701 219.841 150.499C213.889 150.475 207.937 150.47 201.98 150.504C198.217 143.434 194.632 136.272 190.854 129.211C187.806 129.264 184.758 129.226 181.71 129.235C180.03 137.16 178.278 145.07 176.646 153.005C170.934 153.005 165.227 153.014 159.515 153C160.604 149.227 161.939 145.517 162.697 141.653C165.606 127.987 168.548 114.326 171.472 100.666C172.081 96.8927 173.512 93.3455 174.625 89.7119ZM187.571 100.416C186.428 105.739 185.329 111.067 184.268 116.41C187.878 116.328 191.497 116.501 195.102 116.333C198.64 115.618 202.432 114.158 204.337 110.875C205.624 109.003 205.59 106.56 204.98 104.462C204.054 102.053 201.356 101.112 199.072 100.531C195.246 100.301 191.401 100.522 187.571 100.416Z" fill="#1A1A1A"/>
</svg>
