<svg width="32" height="14" viewBox="0 0 32 14" fill="none" xmlns="http://www.w3.org/2000/svg">
<path d="M3.354 1.28195C2.952 0.357951 1.958 -0.0580489 1.03 0.371951C0.0999969 0.803951 -0.242003 1.88395 0.177997 2.80795L4.076 11.682C4.688 13.072 5.336 13.802 6.548 13.802C7.842 13.802 8.408 13.006 9.02 11.682L12.454 3.84795C12.4892 3.74749 12.5559 3.6611 12.6442 3.60164C12.7325 3.54217 12.8377 3.51282 12.944 3.51795C13.236 3.51795 13.484 3.76395 13.484 4.09195V11.672C13.484 12.842 14.1 13.8 15.292 13.8C16.482 13.8 17.124 12.84 17.124 11.674V5.46995C17.124 4.27195 17.944 3.49595 19.06 3.49595C20.176 3.49595 20.918 4.29995 20.918 5.46995V11.674C20.918 12.842 21.538 13.8 22.728 13.8C23.918 13.8 24.564 12.84 24.564 11.674V5.46995C24.564 4.27195 25.38 3.49595 26.496 3.49595C27.61 3.49595 28.356 4.29995 28.356 5.46995V11.674C28.356 12.842 28.976 13.8 30.166 13.8C31.354 13.8 32 12.84 32 11.674V4.61395C32 2.01795 30.008 0.199951 27.61 0.199951C25.216 0.199951 23.716 1.93595 23.716 1.93595C22.916 0.851951 21.818 0.201951 19.96 0.201951C17.996 0.201951 16.28 1.93595 16.28 1.93595C15.48 0.851951 14.124 0.201951 13 0.201951C11.26 0.201951 9.88 1.00195 9.036 3.02195L6.548 9.16595L3.354 1.28195Z" fill="#696566"/>
</svg>
