<svg width="32" height="10" viewBox="0 0 32 10" fill="none" xmlns="http://www.w3.org/2000/svg">
<path d="M30.7813 6.55193C30.8427 6.55193 30.8773 6.5346 30.8773 6.46926C30.8773 6.40526 30.844 6.3906 30.78 6.3906H30.644V6.55193H30.7813ZM30.644 6.60793V6.77993H30.584V6.33326H30.7827C30.896 6.33326 30.9387 6.3786 30.9387 6.4666C30.9387 6.5386 30.908 6.58793 30.832 6.6026L30.932 6.7786H30.868L30.768 6.6066L30.644 6.60793ZM30.7427 6.2186C30.6533 6.21895 30.5677 6.2546 30.5045 6.31779C30.4413 6.38097 30.4057 6.46657 30.4053 6.55593C30.4053 6.7426 30.5573 6.8946 30.7427 6.8946C30.8323 6.89424 30.9181 6.85841 30.9813 6.79493C31.0445 6.73146 31.08 6.64552 31.08 6.55593C31.08 6.46646 31.0445 6.38066 30.9812 6.3174C30.9179 6.25414 30.8321 6.2186 30.7427 6.2186ZM30.356 6.55593C30.3564 6.45349 30.3972 6.35534 30.4696 6.2829C30.5421 6.21047 30.6402 6.16961 30.7427 6.16926C30.8451 6.16961 30.9433 6.21047 31.0157 6.2829C31.0881 6.35534 31.129 6.45349 31.1293 6.55593C31.1293 6.6586 31.0886 6.75709 31.0162 6.82982C30.9437 6.90254 30.8453 6.94358 30.7427 6.94393C30.6402 6.94358 30.5421 6.90273 30.4696 6.83029C30.3972 6.75785 30.3564 6.65971 30.356 6.55726V6.55593ZM2.696 5.67593V0.773263H2.13333V5.67593C2.13333 6.80926 2.17733 7.71993 0.213333 7.71993C0.142203 7.72001 0.0710776 7.71867 0 7.71593L0 8.24526C0.0710967 8.24707 0.142214 8.24796 0.213333 8.24793C2.59467 8.24793 2.696 7.18126 2.696 5.67593ZM23.416 3.41326H27.5947C27.5387 2.18926 27.46 1.14526 25.6747 1.14526C23.9547 1.14526 23.484 2.07726 23.416 3.41193V3.41326ZM25.6853 0.62793C28.0773 0.62793 28.156 2.23326 28.1453 3.92926H23.4053C23.416 5.4226 23.7867 6.53593 25.7293 6.53593C26.7627 6.53593 27.236 6.25593 27.74 5.88393L28.0547 6.29993C27.4933 6.71593 26.8307 7.04126 25.7293 7.04126C23.3027 7.04126 22.8547 5.63726 22.8547 3.82793C22.8547 2.02126 23.372 0.62793 25.6853 0.62793ZM20.1533 4.2346C21.1453 4.2346 21.6387 3.75193 21.6387 2.77593C21.6387 1.7986 21.1067 1.33593 20.1293 1.33593H17.824V4.23593L20.1533 4.2346ZM20.1467 0.786597C21.5707 0.786597 22.216 1.49326 22.216 2.75193C22.216 4.0186 21.5787 4.78793 20.1387 4.78793H17.8253V6.9186H17.276V0.786597H20.1467ZM16.2467 0.786597V6.91993H15.6973V0.786597H16.2467ZM14.6547 6.91993H14.0813V3.16793C14.0813 2.08926 14.0933 1.17993 12.116 1.17993C10.1507 1.17993 10.196 2.08926 10.196 3.22393V6.9186H9.63333V3.22393C9.63333 1.7186 9.73467 0.650597 12.116 0.650597C14.508 0.650597 14.6547 1.7186 14.6547 3.1786V6.91993ZM3.66267 0.773263H4.236V4.52526C4.236 5.60393 4.22267 6.51193 6.2 6.51193C8.16533 6.51193 8.12 5.60393 8.12 4.46926V0.773263H8.68267V4.46926C8.68267 5.97326 8.58133 7.04126 6.2 7.04126C3.808 7.04126 3.66267 5.9746 3.66267 4.51326V0.773263ZM28.952 3.2226V6.91726H29.5133V3.2226C29.5133 2.08926 29.468 1.1786 31.4333 1.1786C31.6453 1.1786 31.832 1.18926 32 1.20926V0.674596C31.812 0.658358 31.6234 0.650351 31.4347 0.650597C29.0533 0.650597 28.952 1.71726 28.952 3.2226ZM28.3773 9.03593C28.5579 9.15135 28.7684 9.21116 28.9827 9.20793C29.332 9.20793 29.488 9.10926 29.488 8.87593C29.488 8.63593 29.2867 8.60126 28.9813 8.5466C28.6173 8.4826 28.3693 8.42126 28.3693 8.0786C28.3693 7.7506 28.58 7.6226 28.9827 7.6226C29.248 7.6226 29.4373 7.6826 29.572 7.7746L29.476 7.92126C29.3274 7.83132 29.1564 7.78511 28.9827 7.78793C28.6787 7.78793 28.548 7.87193 28.548 8.07326C28.548 8.28793 28.724 8.32926 29.0253 8.38393C29.396 8.4506 29.664 8.50526 29.664 8.86926C29.664 9.20526 29.4493 9.3666 28.9867 9.3666C28.7387 9.37464 28.4942 9.30722 28.2853 9.17326L28.3773 9.03593ZM27.3253 8.4466L26.9867 8.81593V9.34393H26.8107V7.6506H26.9867V8.58526L27.844 7.65193H28.052L27.444 8.31593L28.1347 9.34393H27.9307L27.3253 8.4466ZM25.8587 8.48926C26.0987 8.48926 26.2453 8.41593 26.2453 8.14926C26.2453 7.8866 26.1027 7.81726 25.8507 7.81726H25.3V8.48926H25.8587ZM25.808 8.6546H25.3013V9.34393H25.124V7.6506H25.856C26.2493 7.6506 26.4267 7.80793 26.4267 8.14393C26.4267 8.43726 26.288 8.60793 25.992 8.6466L26.4013 9.34393H26.2093L25.808 8.6546ZM24.576 8.4986C24.576 8.04126 24.3627 7.7946 23.9013 7.7946C23.4413 7.7946 23.232 8.04126 23.232 8.4986C23.232 8.9586 23.4413 9.20526 23.9013 9.20526C24.3627 9.20526 24.576 8.9586 24.576 8.4986ZM23.9013 7.6226C24.4453 7.6226 24.756 7.89326 24.756 8.49593C24.756 9.1026 24.4453 9.37193 23.9013 9.37193C23.36 9.37193 23.0507 9.1026 23.0507 8.49593C23.0507 7.89326 23.36 7.6226 23.9013 7.6226ZM20.7587 7.6506L21.204 9.0506L21.6587 7.6506H21.8147L22.268 9.0506L22.7147 7.6506H22.888L22.344 9.35593H22.1893L21.732 7.94526L21.2773 9.35593H21.12L20.5733 7.6506H20.7587ZM18.9027 7.8226V7.6506H20.3533V7.8226H19.7187V9.34393H19.5373V7.8226H18.9027ZM18.6307 7.6506V7.8226H17.6907V8.3826H18.608V8.55193H17.6907V9.1786H18.64V9.34393H17.5107V7.6506H18.6307ZM15.892 7.6506L16.9053 9.04793V7.6506H17.0787V9.34393H16.9133L15.8693 7.9066V9.34393H15.696V7.6506H15.892Z" fill="black"/>
</svg>
