<svg width="30" height="32" viewBox="0 0 30 32" fill="none" xmlns="http://www.w3.org/2000/svg">
<path d="M29.7098 8.25169C29.6706 8.16259 29.6297 8.07706 29.5834 8.00045C29.5371 7.92383 29.4819 7.84721 29.4196 7.77237C29.0973 7.3768 28.5721 6.98836 27.9009 6.61952L22.5009 3.65811L17.1009 0.693134C16.4297 0.324294 15.8136 0.08731 15.292 0.0196002C15.1923 0.00712735 15.0943 0 15.0018 0C14.4249 0 13.7021 0.254803 12.9009 0.693134L7.50088 3.65633L2.10089 6.61774C1.42967 6.98658 0.90445 7.37324 0.582195 7.77059C0.519881 7.84721 0.464688 7.92383 0.418397 7.99866C0.372107 8.07528 0.331157 8.16081 0.291988 8.2499C0.0925815 8.71496 0 9.3386 0 10.0745V21.9237C0 22.8022 0.12997 23.5238 0.418397 23.9996C0.706824 24.4753 1.2997 24.9421 2.10089 25.3805L7.50088 28.3437L12.9009 31.3051C13.5721 31.6721 14.1881 31.9109 14.7098 31.9786C14.8095 31.9911 14.9074 32 15 32C15.0926 32 15.1905 31.9929 15.2902 31.9786C15.8119 31.9109 16.4279 31.6739 17.0991 31.3051L27.8991 25.3805C28.6985 24.9421 29.2931 24.4753 29.5816 23.9996C29.6279 23.9229 29.6688 23.8374 29.708 23.7483C29.9074 23.285 30 22.6596 30 21.9237V10.0745C30.0018 9.3386 29.9092 8.71496 29.7098 8.25169ZM8.64925 22.1536C8.64925 22.4226 8.36082 22.5955 8.12403 22.4654L6.19228 21.4052C5.73827 21.1557 5.45519 20.6782 5.45519 20.1597V14.4329C5.45519 14.1638 5.74362 13.9928 5.98041 14.1211L8.28249 15.3826C8.51038 15.5073 8.65103 15.7461 8.65103 16.0062V22.1536H8.64925ZM24.5466 20.1597C24.5466 20.6782 24.2635 21.1575 23.8095 21.407L21.8777 22.4654C21.6409 22.5955 21.3525 22.4244 21.3525 22.1536V14.5665C21.3525 14.2975 21.0641 14.1246 20.8273 14.2547L17.3377 16.1684C16.8837 16.4178 16.6006 16.8954 16.6006 17.4139V24.9404C16.6006 25.2005 16.4599 25.4393 16.232 25.564L15.6837 25.8634C15.2581 26.0968 14.7436 26.0968 14.3181 25.8634L13.7733 25.564C13.5454 25.4393 13.4047 25.2005 13.4047 24.9404V17.4157C13.4047 16.8972 13.1217 16.4196 12.6676 16.1702L5.45519 12.2145V11.8403C5.45519 11.3218 5.73827 10.8443 6.19228 10.5948L6.98812 10.1565C7.41364 9.92305 7.92818 9.92305 8.35192 10.1565L14.3181 13.4279C14.7436 13.6613 15.2581 13.6613 15.6819 13.4279L18.438 11.9151C18.6837 11.7797 18.6837 11.4269 18.438 11.2915L12.2457 7.89532C12 7.7599 12 7.40709 12.2457 7.27167L14.3181 6.13486C14.7436 5.90144 15.2581 5.90144 15.6837 6.13486L23.8095 10.5912C24.2653 10.8407 24.5483 11.3182 24.5483 11.8385V20.1597H24.5466Z" fill="#293239"/>
</svg>
