<svg width="32" height="26" viewBox="0 0 32 26" fill="none" xmlns="http://www.w3.org/2000/svg">
<path d="M14.804 24.0248C18.9153 23.2985 22.3109 22.6975 22.3499 22.6892L22.4208 22.6742L18.5394 18.0574C16.4046 15.5181 14.658 13.4307 14.658 13.4186C14.658 13.3959 18.6659 2.35896 18.6884 2.31966C18.6959 2.30656 21.4234 7.01552 25.3 13.7345C28.9294 20.025 31.9216 25.2114 31.9494 25.26L32 25.3484L19.6645 25.3468L7.32898 25.3452L14.804 24.0248ZM0 22.6168C0 22.6103 1.82891 19.4355 4.06425 15.5616L8.1285 8.51822L12.8649 4.54342C15.4699 2.35728 17.6083 0.565942 17.6169 0.562585C17.6255 0.559408 17.5912 0.645658 17.5408 0.754342C17.4903 0.863025 15.1759 5.82714 12.3977 11.7857L7.34634 22.6194L3.67317 22.624C1.65293 22.6266 0 22.6233 0 22.6168Z" fill="#0089D6"/>
</svg>
