<svg width="32" height="28" viewBox="0 0 32 28" fill="none" xmlns="http://www.w3.org/2000/svg">
<g clip-path="url(#clip0_2175_17996)">
<path fill-rule="evenodd" clip-rule="evenodd" d="M16.1125 0C7.24613 0 0 7 0 15.673C0 19.9874 1.80028 24.1698 5.04079 27.1195C6.16596 28.1761 7.92124 28.2642 9.18143 27.3396C13.2321 24.3899 18.8129 24.3899 22.8636 27.3396C24.1238 28.2642 25.879 28.1761 27.0042 27.1195C33.4402 21.1321 33.7103 11.1824 27.5893 4.88679C24.6188 1.80503 20.4332 0.0440252 16.1125 0ZM16.0225 23.5535C11.7018 23.6855 8.10127 20.3396 8.01125 16.1572C8.01125 16.0252 8.01125 15.8931 8.01125 15.761C8.01125 11.4465 11.6118 7.92453 16.0225 7.92453C20.4332 7.92453 24.0338 11.4465 24.0338 15.761C24.1688 19.9874 20.7482 23.4654 16.4726 23.5975C16.2925 23.5535 16.1575 23.5535 16.0225 23.5535Z" fill="#62D84E"/>
</g>
<defs>
<clipPath id="clip0_2175_17996">
<rect width="32" height="28" fill="white"/>
</clipPath>
</defs>
</svg>
