<svg width="215" height="133" viewBox="0 0 215 133" fill="none" xmlns="http://www.w3.org/2000/svg">
<path d="M2.55898 123.952V97.6312H7.01893L15.7195 115.105L24.42 97.6312H28.88V123.952H24.2372V108.233L16.5968 123.952H14.8421L7.20171 108.233V123.952H2.55898ZM42.8941 124.501C40.9078 124.501 39.1653 124.056 37.6665 123.166C36.1676 122.277 34.9978 121.052 34.157 119.492C33.3284 117.92 32.9141 116.117 32.9141 114.082C32.9141 112.022 33.3406 110.213 34.1936 108.653C35.0466 107.081 36.2225 105.856 37.7213 104.979C39.2201 104.102 40.9444 103.663 42.8941 103.663C44.8804 103.663 46.6229 104.108 48.1217 104.997C49.6328 105.887 50.8087 107.118 51.6495 108.69C52.4903 110.249 52.9107 112.047 52.9107 114.082C52.9107 116.129 52.4842 117.939 51.6312 119.51C50.7904 121.07 49.6145 122.295 48.1035 123.184C46.6046 124.062 44.8682 124.501 42.8941 124.501ZM42.8941 119.858C44.4904 119.858 45.6785 119.322 46.4584 118.249C47.2505 117.165 47.6465 115.776 47.6465 114.082C47.6465 112.327 47.2444 110.926 46.4401 109.878C45.6481 108.83 44.4661 108.306 42.8941 108.306C41.8096 108.306 40.92 108.55 40.2254 109.037C39.5309 109.524 39.013 110.201 38.6718 111.066C38.3428 111.931 38.1783 112.936 38.1783 114.082C38.1783 115.849 38.5743 117.256 39.3664 118.304C40.1706 119.34 41.3465 119.858 42.8941 119.858ZM70.3832 123.952V114.63C70.3832 114.179 70.3588 113.607 70.3101 112.912C70.2613 112.205 70.109 111.498 69.8531 110.792C69.5972 110.085 69.1768 109.494 68.5919 109.019C68.0192 108.543 67.2027 108.306 66.1426 108.306C65.7161 108.306 65.2591 108.373 64.7717 108.507C64.2843 108.641 63.8273 108.903 63.4008 109.293C62.9743 109.671 62.6209 110.231 62.3407 110.974C62.0726 111.718 61.9385 112.705 61.9385 113.936L59.0871 112.583C59.0871 111.023 59.4039 109.561 60.0376 108.196C60.6712 106.831 61.6217 105.729 62.889 104.888C64.1685 104.047 65.777 103.627 67.7145 103.627C69.2621 103.627 70.5233 103.888 71.4982 104.412C72.473 104.936 73.2285 105.601 73.7647 106.405C74.3131 107.209 74.703 108.05 74.9345 108.927C75.166 109.792 75.3062 110.585 75.3549 111.303C75.4037 112.022 75.428 112.546 75.428 112.875V123.952H70.3832ZM56.8937 123.952V104.211H61.3171V110.755H61.9385V123.952H56.8937ZM88.6973 124.501C86.7111 124.501 84.9685 124.056 83.4697 123.166C81.9709 122.277 80.801 121.052 79.9602 119.492C79.1316 117.92 78.7173 116.117 78.7173 114.082C78.7173 112.022 79.1438 110.213 79.9968 108.653C80.8498 107.081 82.0257 105.856 83.5245 104.979C85.0234 104.102 86.7476 103.663 88.6973 103.663C90.6836 103.663 92.4261 104.108 93.925 104.997C95.436 105.887 96.6119 107.118 97.4527 108.69C98.2935 110.249 98.7139 112.047 98.7139 114.082C98.7139 116.129 98.2874 117.939 97.4344 119.51C96.5936 121.07 95.4177 122.295 93.9067 123.184C92.4079 124.062 90.6714 124.501 88.6973 124.501ZM88.6973 119.858C90.2937 119.858 91.4818 119.322 92.2616 118.249C93.0537 117.165 93.4497 115.776 93.4497 114.082C93.4497 112.327 93.0476 110.926 92.2434 109.878C91.4513 108.83 90.2693 108.306 88.6973 108.306C87.6128 108.306 86.7233 108.55 86.0287 109.037C85.3341 109.524 84.8162 110.201 84.475 111.066C84.146 111.931 83.9815 112.936 83.9815 114.082C83.9815 115.849 84.3775 117.256 85.1696 118.304C85.9739 119.34 87.1498 119.858 88.6973 119.858ZM107.147 123.952L99.4334 97.6312H104.661L109.596 115.727L114.531 97.6677L119.759 97.6312L124.694 115.727L129.629 97.6312H134.857L127.144 123.952H122.245L117.145 106.185L112.045 123.952H107.147ZM141.632 124.501C140.219 124.501 139.018 124.232 138.031 123.696C137.057 123.148 136.313 122.423 135.801 121.521C135.302 120.607 135.052 119.602 135.052 118.505C135.052 117.591 135.192 116.757 135.472 116.001C135.753 115.246 136.204 114.581 136.825 114.009C137.459 113.424 138.306 112.936 139.366 112.546C140.097 112.278 140.968 112.041 141.98 111.834C142.991 111.626 144.136 111.431 145.416 111.249C146.695 111.054 148.103 110.84 149.638 110.609L147.847 111.596C147.847 110.426 147.567 109.567 147.006 109.019C146.446 108.47 145.507 108.196 144.191 108.196C143.46 108.196 142.699 108.373 141.906 108.726C141.114 109.08 140.56 109.707 140.243 110.609L135.747 109.183C136.246 107.55 137.185 106.222 138.562 105.198C139.939 104.175 141.815 103.663 144.191 103.663C145.934 103.663 147.481 103.931 148.834 104.467C150.187 105.003 151.21 105.93 151.905 107.246C152.295 107.977 152.526 108.708 152.599 109.439C152.673 110.17 152.709 110.987 152.709 111.888V123.952H148.359V119.894L148.98 120.735C148.018 122.063 146.976 123.026 145.855 123.623C144.746 124.208 143.338 124.501 141.632 124.501ZM142.692 120.589C143.606 120.589 144.374 120.43 144.996 120.114C145.629 119.785 146.129 119.413 146.494 118.999C146.872 118.584 147.128 118.237 147.262 117.957C147.518 117.421 147.664 116.799 147.701 116.092C147.75 115.373 147.774 114.776 147.774 114.301L149.236 114.667C147.762 114.91 146.568 115.118 145.654 115.288C144.74 115.447 144.002 115.593 143.442 115.727C142.881 115.861 142.388 116.007 141.961 116.166C141.474 116.36 141.078 116.574 140.773 116.805C140.481 117.025 140.261 117.268 140.115 117.536C139.981 117.804 139.914 118.103 139.914 118.432C139.914 118.883 140.024 119.273 140.243 119.602C140.475 119.919 140.798 120.162 141.212 120.333C141.626 120.504 142.12 120.589 142.692 120.589ZM169.306 123.952C167.941 124.208 166.601 124.318 165.285 124.281C163.981 124.257 162.811 124.031 161.775 123.605C160.752 123.166 159.972 122.466 159.436 121.503C158.948 120.601 158.692 119.687 158.668 118.761C158.644 117.823 158.632 116.763 158.632 115.581V98.7279H163.603V115.288C163.603 116.056 163.609 116.75 163.622 117.372C163.646 117.981 163.774 118.469 164.005 118.834C164.444 119.529 165.145 119.907 166.107 119.967C167.07 120.028 168.136 119.98 169.306 119.821V123.952ZM155.268 108.05V104.211H169.306V108.05H155.268ZM181.335 124.501C179.288 124.501 177.533 124.044 176.071 123.13C174.608 122.216 173.487 120.973 172.707 119.401C171.928 117.829 171.538 116.056 171.538 114.082C171.538 112.083 171.94 110.298 172.744 108.726C173.56 107.154 174.706 105.917 176.18 105.016C177.655 104.114 179.397 103.663 181.408 103.663C183.735 103.663 185.685 104.254 187.257 105.436C188.841 106.606 189.853 108.208 190.291 110.243L185.32 111.559C185.027 110.536 184.515 109.738 183.784 109.165C183.065 108.592 182.249 108.306 181.335 108.306C180.287 108.306 179.428 108.562 178.758 109.073C178.087 109.573 177.594 110.262 177.277 111.139C176.96 112.004 176.802 112.985 176.802 114.082C176.802 115.8 177.18 117.195 177.935 118.268C178.703 119.328 179.836 119.858 181.335 119.858C182.456 119.858 183.309 119.602 183.894 119.09C184.479 118.578 184.917 117.847 185.21 116.897L190.291 117.957C189.731 120.053 188.671 121.667 187.111 122.801C185.551 123.934 183.626 124.501 181.335 124.501ZM207.4 123.952V114.63C207.4 114.179 207.376 113.607 207.327 112.912C207.278 112.205 207.126 111.498 206.87 110.792C206.614 110.085 206.194 109.494 205.609 109.019C205.036 108.543 204.22 108.306 203.16 108.306C202.733 108.306 202.276 108.373 201.789 108.507C201.301 108.641 200.844 108.903 200.418 109.293C199.991 109.671 199.638 110.231 199.358 110.974C199.09 111.718 198.956 112.705 198.956 113.936L196.104 112.583C196.104 111.023 196.421 109.561 197.055 108.196C197.688 106.831 198.639 105.729 199.906 104.888C201.186 104.047 202.794 103.627 204.732 103.627C206.279 103.627 207.54 103.888 208.515 104.412C209.49 104.936 210.246 105.601 210.782 106.405C211.33 107.209 211.72 108.05 211.952 108.927C212.183 109.792 212.323 110.585 212.372 111.303C212.421 112.022 212.445 112.546 212.445 112.875V123.952H207.4ZM193.911 123.952V97.6312H198.334V111.157H198.956V123.952H193.911Z" fill="white"/>
<path d="M72.7545 27.0419C72.7545 12.3584 84.6578 0.455078 99.3413 0.455078H138.414C140.25 0.455078 141.738 1.94299 141.738 3.77843V48.6437C141.738 63.3272 129.834 75.2306 115.151 75.2306H99.3413C84.6578 75.2306 72.7545 63.3272 72.7545 48.6437V27.0419Z" fill="#E9ECEF"/>
<ellipse cx="107.246" cy="37.8429" rx="19.5763" ry="21.2201" fill="#211F31"/>
</svg>
