<svg width="161" height="37" viewBox="0 0 161 37" fill="none" xmlns="http://www.w3.org/2000/svg">
<path d="M46.4 26V11.6H48.57L53.55 21.8L58.53 11.6H60.7V26H58.45V16.77L54.03 26H53.07L48.66 16.77V26H46.4ZM68.2794 26.3C67.1994 26.3 66.256 26.0567 65.4494 25.57C64.6427 25.0833 64.016 24.4133 63.5694 23.56C63.1294 22.7 62.9094 21.7133 62.9094 20.6C62.9094 19.4667 63.136 18.4733 63.5894 17.62C64.0427 16.7667 64.6727 16.1 65.4794 15.62C66.286 15.14 67.2194 14.9 68.2794 14.9C69.366 14.9 70.3127 15.1433 71.1194 15.63C71.926 16.1167 72.5527 16.79 72.9994 17.65C73.446 18.5033 73.6694 19.4867 73.6694 20.6C73.6694 21.72 73.4427 22.71 72.9894 23.57C72.5427 24.4233 71.916 25.0933 71.1094 25.58C70.3027 26.06 69.3594 26.3 68.2794 26.3ZM68.2794 24.04C69.2394 24.04 69.9527 23.72 70.4194 23.08C70.886 22.44 71.1194 21.6133 71.1194 20.6C71.1194 19.5533 70.8827 18.72 70.4094 18.1C69.936 17.4733 69.226 17.16 68.2794 17.16C67.6327 17.16 67.0994 17.3067 66.6794 17.6C66.266 17.8867 65.9594 18.29 65.7594 18.81C65.5594 19.3233 65.4594 19.92 65.4594 20.6C65.4594 21.6467 65.696 22.4833 66.1694 23.11C66.6494 23.73 67.3527 24.04 68.2794 24.04ZM83.3427 26V20.8C83.3427 20.46 83.3193 20.0833 83.2727 19.67C83.226 19.2567 83.116 18.86 82.9427 18.48C82.776 18.0933 82.5227 17.7767 82.1827 17.53C81.8493 17.2833 81.396 17.16 80.8227 17.16C80.516 17.16 80.2127 17.21 79.9127 17.31C79.6127 17.41 79.3393 17.5833 79.0927 17.83C78.8527 18.07 78.6593 18.4033 78.5127 18.83C78.366 19.25 78.2927 19.79 78.2927 20.45L76.8627 19.84C76.8627 18.92 77.0393 18.0867 77.3927 17.34C77.7527 16.5933 78.2793 16 78.9727 15.56C79.666 15.1133 80.5193 14.89 81.5327 14.89C82.3327 14.89 82.9927 15.0233 83.5127 15.29C84.0327 15.5567 84.446 15.8967 84.7527 16.31C85.0593 16.7233 85.286 17.1633 85.4327 17.63C85.5793 18.0967 85.6727 18.54 85.7127 18.96C85.7593 19.3733 85.7827 19.71 85.7827 19.97V26H83.3427ZM75.8527 26V15.2H78.0027V18.55H78.2927V26H75.8527ZM92.9864 26.3C91.9064 26.3 90.9631 26.0567 90.1564 25.57C89.3497 25.0833 88.7231 24.4133 88.2764 23.56C87.8364 22.7 87.6164 21.7133 87.6164 20.6C87.6164 19.4667 87.8431 18.4733 88.2964 17.62C88.7497 16.7667 89.3797 16.1 90.1864 15.62C90.9931 15.14 91.9264 14.9 92.9864 14.9C94.0731 14.9 95.0197 15.1433 95.8264 15.63C96.6331 16.1167 97.2597 16.79 97.7064 17.65C98.1531 18.5033 98.3764 19.4867 98.3764 20.6C98.3764 21.72 98.1497 22.71 97.6964 23.57C97.2497 24.4233 96.6231 25.0933 95.8164 25.58C95.0097 26.06 94.0664 26.3 92.9864 26.3ZM92.9864 24.04C93.9464 24.04 94.6597 23.72 95.1264 23.08C95.5931 22.44 95.8264 21.6133 95.8264 20.6C95.8264 19.5533 95.5897 18.72 95.1164 18.1C94.6431 17.4733 93.9331 17.16 92.9864 17.16C92.3397 17.16 91.8064 17.3067 91.3864 17.6C90.9731 17.8867 90.6664 18.29 90.4664 18.81C90.2664 19.3233 90.1664 19.92 90.1664 20.6C90.1664 21.6467 90.4031 22.4833 90.8764 23.11C91.3564 23.73 92.0597 24.04 92.9864 24.04ZM103.014 26L98.8042 11.6H101.334L104.204 22L107.064 11.62L109.594 11.6L112.464 22L115.324 11.6H117.854L113.654 26H111.274L108.324 15.76L105.394 26H103.014ZM121.608 26.3C120.828 26.3 120.168 26.1533 119.628 25.86C119.088 25.56 118.678 25.1633 118.398 24.67C118.124 24.1767 117.988 23.6333 117.988 23.04C117.988 22.52 118.074 22.0533 118.248 21.64C118.421 21.22 118.688 20.86 119.048 20.56C119.408 20.2533 119.874 20.0033 120.448 19.81C120.881 19.67 121.388 19.5433 121.968 19.43C122.554 19.3167 123.188 19.2133 123.868 19.12C124.554 19.02 125.271 18.9133 126.018 18.8L125.158 19.29C125.164 18.5433 124.998 17.9933 124.658 17.64C124.318 17.2867 123.744 17.11 122.938 17.11C122.451 17.11 121.981 17.2233 121.528 17.45C121.074 17.6767 120.758 18.0667 120.578 18.62L118.378 17.93C118.644 17.0167 119.151 16.2833 119.898 15.73C120.651 15.1767 121.664 14.9 122.938 14.9C123.898 14.9 124.741 15.0567 125.468 15.37C126.201 15.6833 126.744 16.1967 127.098 16.91C127.291 17.29 127.408 17.68 127.448 18.08C127.488 18.4733 127.508 18.9033 127.508 19.37V26H125.398V23.66L125.748 24.04C125.261 24.82 124.691 25.3933 124.038 25.76C123.391 26.12 122.581 26.3 121.608 26.3ZM122.088 24.38C122.634 24.38 123.101 24.2833 123.488 24.09C123.874 23.8967 124.181 23.66 124.408 23.38C124.641 23.1 124.798 22.8367 124.878 22.59C125.004 22.2833 125.074 21.9333 125.088 21.54C125.108 21.14 125.118 20.8167 125.118 20.57L125.858 20.79C125.131 20.9033 124.508 21.0033 123.988 21.09C123.468 21.1767 123.021 21.26 122.648 21.34C122.274 21.4133 121.944 21.4967 121.658 21.59C121.378 21.69 121.141 21.8067 120.948 21.94C120.754 22.0733 120.604 22.2267 120.498 22.4C120.398 22.5733 120.348 22.7767 120.348 23.01C120.348 23.2767 120.414 23.5133 120.548 23.72C120.681 23.92 120.874 24.08 121.128 24.2C121.388 24.32 121.708 24.38 122.088 24.38ZM136.441 26C135.728 26.1333 135.028 26.19 134.341 26.17C133.661 26.1567 133.051 26.0333 132.511 25.8C131.971 25.56 131.561 25.1833 131.281 24.67C131.034 24.2033 130.904 23.7267 130.891 23.24C130.878 22.7533 130.871 22.2033 130.871 21.59V12.2H133.271V21.45C133.271 21.8833 133.274 22.2633 133.281 22.59C133.294 22.9167 133.364 23.1833 133.491 23.39C133.731 23.79 134.114 24.0133 134.641 24.06C135.168 24.1067 135.768 24.08 136.441 23.98V26ZM128.911 17.09V15.2H136.441V17.09H128.911ZM142.906 26.3C141.793 26.3 140.843 26.0533 140.056 25.56C139.27 25.06 138.666 24.38 138.246 23.52C137.833 22.66 137.623 21.6867 137.616 20.6C137.623 19.4933 137.84 18.5133 138.266 17.66C138.7 16.8 139.313 16.1267 140.106 15.64C140.9 15.1467 141.843 14.9 142.936 14.9C144.163 14.9 145.2 15.21 146.046 15.83C146.9 16.4433 147.456 17.2833 147.716 18.35L145.316 19C145.13 18.42 144.82 17.97 144.386 17.65C143.953 17.3233 143.46 17.16 142.906 17.16C142.28 17.16 141.763 17.31 141.356 17.61C140.95 17.9033 140.65 18.31 140.456 18.83C140.263 19.35 140.166 19.94 140.166 20.6C140.166 21.6267 140.396 22.4567 140.856 23.09C141.316 23.7233 142 24.04 142.906 24.04C143.546 24.04 144.05 23.8933 144.416 23.6C144.79 23.3067 145.07 22.8833 145.256 22.33L147.716 22.88C147.383 23.98 146.8 24.8267 145.966 25.42C145.133 26.0067 144.113 26.3 142.906 26.3ZM157.19 26V20.8C157.19 20.46 157.167 20.0833 157.12 19.67C157.074 19.2567 156.964 18.86 156.79 18.48C156.624 18.0933 156.37 17.7767 156.03 17.53C155.697 17.2833 155.244 17.16 154.67 17.16C154.364 17.16 154.06 17.21 153.76 17.31C153.46 17.41 153.187 17.5833 152.94 17.83C152.7 18.07 152.507 18.4033 152.36 18.83C152.214 19.25 152.14 19.79 152.14 20.45L150.71 19.84C150.71 18.92 150.887 18.0867 151.24 17.34C151.6 16.5933 152.127 16 152.82 15.56C153.514 15.1133 154.367 14.89 155.38 14.89C156.18 14.89 156.84 15.0233 157.36 15.29C157.88 15.5567 158.294 15.8967 158.6 16.31C158.907 16.7233 159.134 17.1633 159.28 17.63C159.427 18.0967 159.52 18.54 159.56 18.96C159.607 19.3733 159.63 19.71 159.63 19.97V26H157.19ZM149.7 26V11.6H151.85V19.18H152.14V26H149.7Z" fill="#211F31"/>
<path d="M0 14C0 6.26801 6.26801 0 14 0H35C36.1046 0 37 0.89543 37 2V23C37 30.732 30.732 37 23 37H14C6.26801 37 0 30.732 0 23V14Z" fill="#211F31"/>
<circle cx="18.5" cy="18.5" r="10.5" fill="white"/>
</svg>
