<svg width="100" height="100" viewBox="0 0 100 100" fill="none" xmlns="http://www.w3.org/2000/svg">
<path fill-rule="evenodd" clip-rule="evenodd" d="M38.0226 8.65515C38.8874 5.59603 41.6986 3.35453 45.0331 3.35453H71.9004C69.6607 4.70477 67.7295 6.51527 66.2376 8.65515H38.0226ZM64.6984 11.3055H25.8278C21.4388 11.3055 17.8808 14.8652 17.8808 19.2564V68.2871H58.9404H59.6027C60.3342 68.2871 60.9272 68.8804 60.9272 69.6123V76.5694C60.9272 82.2413 65.5229 86.8393 71.1921 86.8393C76.8612 86.8393 81.457 82.2413 81.457 76.5694V37.8086C71.2159 37.8086 62.9139 29.5025 62.9139 19.2564C62.9139 16.411 63.5541 13.7153 64.6984 11.3055ZM84.106 37.6207V74.803C87.8645 74.1721 90.7285 70.9017 90.7285 66.962V35.3266C88.7273 36.4848 86.4898 37.2795 84.106 37.6207ZM93.3775 33.4677V66.962C93.3775 72.3791 89.3164 76.8473 84.074 77.4851C83.6045 84.1935 78.0165 89.4896 71.1921 89.4896C71.0765 89.4896 70.9613 89.4881 70.8464 89.4851L70.8609 89.4896H23.1788C15.8638 89.4896 9.93377 83.5567 9.93377 76.2381V73.5878C9.93377 70.6603 12.3058 68.2871 15.2318 68.2871V19.2564C15.2318 13.4015 19.9758 8.65515 25.8278 8.65515H35.2981C36.2185 4.11867 40.2272 0.704224 45.0331 0.704224H80.1325V0.750821C80.5699 0.719931 81.0116 0.704224 81.457 0.704224C91.698 0.704224 100 9.01031 100 19.2564C100 24.9611 97.4264 30.0645 93.3775 33.4677ZM2.64901 81.2074C2.64901 80.6585 3.09376 80.2135 3.64238 80.2135C4.19101 80.2135 4.63576 80.6585 4.63576 81.2074V81.5387C4.63576 88.8573 10.5658 94.7902 17.8808 94.7902H20.9272C21.4392 94.7902 21.8543 95.2056 21.8543 95.7179C21.8543 96.2302 21.4392 96.6455 20.9272 96.6455H17.8808C9.08862 96.6455 2.64901 90.307 2.64901 81.5387V81.2074ZM3.64238 77.5632C1.63075 77.5632 0 79.1948 0 81.2074V81.5387C0 91.7988 7.65389 99.2958 17.8808 99.2958H20.9272C22.9022 99.2958 24.5033 97.6939 24.5033 95.7179C24.5033 93.7418 22.9022 92.1399 20.9272 92.1399H17.8808C12.0288 92.1399 7.28477 87.3936 7.28477 81.5387V81.2074C7.28477 79.1948 5.65402 77.5632 3.64238 77.5632ZM24.5033 46.4221C24.5033 44.5924 25.9858 43.1092 27.8146 43.1092H47.6821C49.5109 43.1092 50.9934 44.5924 50.9934 46.4221C50.9934 48.2517 49.5109 49.735 47.6821 49.735H27.8146C25.9858 49.735 24.5033 48.2517 24.5033 46.4221ZM27.8146 45.7595C27.4488 45.7595 27.1523 46.0561 27.1523 46.4221C27.1523 46.788 27.4488 47.0847 27.8146 47.0847H47.6821C48.0479 47.0847 48.3444 46.788 48.3444 46.4221C48.3444 46.0561 48.0479 45.7595 47.6821 45.7595H27.8146ZM24.5033 57.0233C24.5033 55.1937 25.9858 53.7104 27.8146 53.7104H67.5497C69.3784 53.7104 70.8609 55.1937 70.8609 57.0233C70.8609 58.853 69.3784 60.3362 67.5497 60.3362H27.8146C25.9858 60.3362 24.5033 58.853 24.5033 57.0233ZM27.8146 56.3607C27.4488 56.3607 27.1523 56.6574 27.1523 57.0233C27.1523 57.3893 27.4488 57.6859 27.8146 57.6859H67.5497C67.9154 57.6859 68.2119 57.3893 68.2119 57.0233C68.2119 56.6574 67.9154 56.3607 67.5497 56.3607H27.8146ZM65.5629 19.2564C65.5629 10.474 72.6789 3.35453 81.457 3.35453C90.235 3.35453 97.351 10.474 97.351 19.2564C97.351 28.0388 90.235 35.1583 81.457 35.1583C72.6789 35.1583 65.5629 28.0388 65.5629 19.2564ZM78.1457 10.6429C78.1457 8.81323 79.6282 7.33 81.457 7.33C83.2857 7.33 84.7682 8.81323 84.7682 10.6429V18.5938C84.7682 20.4235 83.2857 21.9067 81.457 21.9067C79.6282 21.9067 78.1457 20.4235 78.1457 18.5938V10.6429ZM81.457 9.98031C81.0912 9.98031 80.7947 10.277 80.7947 10.6429V18.5938C80.7947 18.9597 81.0912 19.2564 81.457 19.2564C81.8227 19.2564 82.1192 18.9597 82.1192 18.5938V10.6429C82.1192 10.277 81.8227 9.98031 81.457 9.98031ZM81.457 31.1828C79.6282 31.1828 78.1457 29.6996 78.1457 27.8699C78.1457 26.0402 79.6282 24.557 81.457 24.557C83.2857 24.557 84.7682 26.0402 84.7682 27.8699C84.7682 29.6996 83.2857 31.1828 81.457 31.1828ZM80.7947 27.8699C80.7947 28.2358 81.0912 28.5325 81.457 28.5325C81.8227 28.5325 82.1192 28.2358 82.1192 27.8699C82.1192 27.504 81.8227 27.2073 81.457 27.2073C81.0912 27.2073 80.7947 27.504 80.7947 27.8699Z" fill="#1E2E4F"/>
</svg>
