<svg width="142" height="140" viewBox="0 0 142 140" fill="none" xmlns="http://www.w3.org/2000/svg">
<path fill-rule="evenodd" clip-rule="evenodd" d="M53.992 11.2903C55.2201 6.94636 59.212 3.76344 63.947 3.76344H102.099C98.9182 5.68078 96.1758 8.25169 94.0574 11.2903H53.992ZM91.8717 15.0538H36.6755C30.4431 15.0538 25.3907 20.1086 25.3907 26.3441V95.9677H83.6954H84.6358C85.6745 95.9677 86.5166 96.8102 86.5166 97.8495V107.728C86.5166 115.783 93.0425 122.312 101.093 122.312C109.143 122.312 115.669 115.783 115.669 107.728V52.6882C101.127 52.6882 89.3378 40.8935 89.3378 26.3441C89.3378 22.3037 90.2469 18.4757 91.8717 15.0538ZM119.43 52.4214V105.22C124.768 104.324 128.834 99.6804 128.834 94.086V49.1638C125.993 50.8084 122.815 51.937 119.43 52.4214ZM132.596 46.5241V94.086C132.596 101.778 126.829 108.123 119.385 109.029C118.718 118.555 110.783 126.075 101.093 126.075C100.929 126.075 100.765 126.073 100.602 126.069L100.623 126.075H32.9139C22.5266 126.075 14.106 117.651 14.106 107.258V103.495C14.106 99.3377 17.4742 95.9677 21.6291 95.9677V26.3441C21.6291 18.0301 28.3656 11.2903 36.6755 11.2903H50.1232C51.4302 4.84852 57.1227 0 63.947 0H113.788V0.0661689C114.409 0.0223041 115.036 0 115.669 0C130.211 0 142 11.7946 142 26.3441C142 34.4448 138.346 41.6916 132.596 46.5241ZM3.76159 114.315C3.76159 113.535 4.39313 112.903 5.17219 112.903C5.95124 112.903 6.58278 113.535 6.58278 114.315V114.785C6.58278 125.177 15.0034 133.602 25.3907 133.602H29.7166C30.4437 133.602 31.0331 134.192 31.0331 134.919C31.0331 135.647 30.4437 136.237 29.7166 136.237H25.3907C12.9058 136.237 3.76159 127.236 3.76159 114.785V114.315ZM5.17219 109.14C2.31567 109.14 0 111.457 0 114.315V114.785C0 129.354 10.8685 140 25.3907 140H29.7166C32.5211 140 34.7947 137.725 34.7947 134.919C34.7947 132.113 32.5211 129.839 29.7166 129.839H25.3907C17.0809 129.839 10.3444 123.099 10.3444 114.785V114.315C10.3444 111.457 8.0287 109.14 5.17219 109.14ZM34.7947 64.9194C34.7947 62.3212 36.8999 60.2151 39.4967 60.2151H67.7086C70.3055 60.2151 72.4106 62.3212 72.4106 64.9194C72.4106 67.5175 70.3055 69.6237 67.7086 69.6237H39.4967C36.8999 69.6237 34.7947 67.5175 34.7947 64.9194ZM39.4967 63.9785C38.9773 63.9785 38.5563 64.3997 38.5563 64.9194C38.5563 65.439 38.9773 65.8602 39.4967 65.8602H67.7086C68.228 65.8602 68.649 65.439 68.649 64.9194C68.649 64.3997 68.228 63.9785 67.7086 63.9785H39.4967ZM34.7947 79.9731C34.7947 77.375 36.8999 75.2688 39.4967 75.2688H95.9205C98.5174 75.2688 100.623 77.375 100.623 79.9731C100.623 82.5712 98.5174 84.6774 95.9205 84.6774H39.4967C36.8999 84.6774 34.7947 82.5712 34.7947 79.9731ZM39.4967 79.0323C38.9773 79.0323 38.5563 79.4535 38.5563 79.9731C38.5563 80.4927 38.9773 80.914 39.4967 80.914H95.9205C96.4399 80.914 96.8609 80.4927 96.8609 79.9731C96.8609 79.4535 96.4399 79.0323 95.9205 79.0323H39.4967ZM93.0993 26.3441C93.0993 13.8731 103.204 3.76344 115.669 3.76344C128.134 3.76344 138.238 13.8731 138.238 26.3441C138.238 38.815 128.134 48.9247 115.669 48.9247C103.204 48.9247 93.0993 38.815 93.0993 26.3441ZM110.967 14.1129C110.967 11.5148 113.072 9.4086 115.669 9.4086C118.266 9.4086 120.371 11.5148 120.371 14.1129V25.4032C120.371 28.0013 118.266 30.1075 115.669 30.1075C113.072 30.1075 110.967 28.0013 110.967 25.4032V14.1129ZM115.669 13.172C115.15 13.172 114.728 13.5933 114.728 14.1129V25.4032C114.728 25.9228 115.15 26.3441 115.669 26.3441C116.188 26.3441 116.609 25.9228 116.609 25.4032V14.1129C116.609 13.5933 116.188 13.172 115.669 13.172ZM115.669 43.2796C113.072 43.2796 110.967 41.1734 110.967 38.5753C110.967 35.9772 113.072 33.871 115.669 33.871C118.266 33.871 120.371 35.9772 120.371 38.5753C120.371 41.1734 118.266 43.2796 115.669 43.2796ZM114.728 38.5753C114.728 39.0949 115.15 39.5161 115.669 39.5161C116.188 39.5161 116.609 39.0949 116.609 38.5753C116.609 38.0556 116.188 37.6344 115.669 37.6344C115.15 37.6344 114.728 38.0556 114.728 38.5753Z" fill="#1E2E4F"/>
</svg>
