<svg width="41" height="40" viewBox="0 0 41 40" fill="none" xmlns="http://www.w3.org/2000/svg">
<path d="M37.1668 19.9999C37.1668 29.2041 29.7043 36.6666 20.5002 36.6666C11.296 36.6666 3.8335 29.2041 3.8335 19.9999C3.8335 10.7958 11.296 3.33325 20.5002 3.33325C29.7043 3.33325 37.1668 10.7958 37.1668 19.9999Z" fill="url(#paint0_linear_4431_23123)"/>
<path opacity="0.05" d="M13.3249 29.6118C13.1507 29.6118 12.9774 29.5843 12.8099 29.5301L8.21652 28.0376C7.66986 27.8601 7.28736 27.3751 7.24236 26.8018C7.19652 26.2285 7.49902 25.6901 8.01152 25.4285L9.00819 24.9209C6.40569 18.8676 8.90819 11.8776 14.8249 8.86345C16.6065 7.95512 18.5115 7.49512 20.4874 7.49512C21.4707 7.49512 22.4574 7.61345 23.4199 7.84595C23.8765 7.95595 24.2699 8.25345 24.4982 8.66178C24.7265 9.07095 24.774 9.54178 24.629 9.98762L24.1124 11.5776C23.8874 12.2685 23.2565 12.7318 22.5407 12.7318C22.419 12.7318 22.2974 12.7176 22.1774 12.6901C21.6215 12.5618 21.0549 12.4968 20.4907 12.4968C19.3074 12.4968 18.1649 12.7735 17.0949 13.3176C15.3132 14.226 13.9899 15.7768 13.3707 17.6843C12.8407 19.3143 12.8824 21.0576 13.4799 22.6426L14.4124 22.1676C14.6157 22.0634 14.8324 22.011 15.0565 22.011C15.5074 22.011 15.9365 22.231 16.204 22.6001C16.4715 22.9693 16.5449 23.431 16.4024 23.8676L14.9099 28.461C14.6857 29.1493 14.049 29.6118 13.3249 29.6118Z" fill="black"/>
<path opacity="0.07" d="M13.325 29.1951C13.1942 29.1951 13.0642 29.1742 12.9384 29.1334L8.34504 27.6409C7.9592 27.5159 7.6892 27.1726 7.65754 26.7684C7.62504 26.3634 7.8392 25.9834 8.20087 25.7984L9.55087 25.1109C6.8092 19.2451 9.20254 12.1942 15.0142 9.23339C16.7367 8.35506 18.5784 7.91089 20.4875 7.91089C21.4375 7.91089 22.3909 8.02505 23.3217 8.25005C23.6667 8.33339 23.9625 8.55755 24.135 8.86505C24.3067 9.17172 24.3417 9.52506 24.2334 9.85839L23.7167 11.4484C23.5484 11.9667 23.0759 12.3142 22.5409 12.3142C22.45 12.3142 22.3592 12.3034 22.2709 12.2834C21.6859 12.1476 21.0867 12.0792 20.4909 12.0792C19.2409 12.0792 18.035 12.3709 16.9059 12.9459C15.025 13.9042 13.6284 15.5409 12.9742 17.5551C12.3634 19.4351 12.4692 21.4301 13.2667 23.2184L14.6017 22.5384C14.7459 22.4651 14.8992 22.4276 15.0567 22.4276C15.3742 22.4276 15.6775 22.5834 15.8675 22.8442C16.0567 23.1042 16.1075 23.4301 16.0067 23.7376L14.5142 28.3309C14.3459 28.8476 13.8684 29.1951 13.325 29.1951Z" fill="black"/>
<path d="M23.2234 8.65505C20.5218 8.00172 17.7059 8.33005 15.2034 9.60505C9.47178 12.5259 7.18428 19.5651 10.1051 25.2967L8.39012 26.1709C7.92678 26.4067 7.98012 27.085 8.47428 27.245L13.0676 28.7375C13.5051 28.88 13.9751 28.64 14.1176 28.2025L15.6101 23.6092C15.7709 23.115 15.2534 22.6734 14.7901 22.9092L13.0751 23.7834C10.9893 19.6892 12.6226 14.6609 16.7168 12.5751C18.4793 11.6767 20.4593 11.4367 22.3651 11.8776C22.7768 11.9726 23.1901 11.7225 23.3201 11.32L23.8368 9.73005C23.9893 9.26172 23.7026 8.77005 23.2234 8.65505Z" fill="white"/>
<path opacity="0.05" d="M20.5123 32.5058C19.529 32.5058 18.5423 32.3874 17.5798 32.1549C17.1231 32.0449 16.7298 31.7474 16.5015 31.3391C16.2731 30.9299 16.2256 30.4591 16.3706 30.0133L16.8873 28.4233C17.1123 27.7325 17.7431 27.2691 18.459 27.2691C18.5806 27.2691 18.7023 27.2833 18.8223 27.3108C19.3781 27.4391 19.9456 27.5041 20.509 27.5041C21.6923 27.5041 22.8348 27.2275 23.9048 26.6833C25.6865 25.775 27.0098 24.2241 27.629 22.3166C28.159 20.6866 28.1173 18.9433 27.5198 17.3583L26.5873 17.8333C26.384 17.9375 26.1673 17.99 25.9431 17.99C25.4923 17.99 25.0631 17.77 24.7956 17.4008C24.5281 17.0316 24.4548 16.57 24.5973 16.1333L26.0898 11.54C26.314 10.8508 26.9506 10.3875 27.6748 10.3875C27.849 10.3875 28.0223 10.415 28.1898 10.4691L32.7823 11.9616C33.3298 12.14 33.7123 12.625 33.7573 13.1983C33.8023 13.7716 33.4998 14.31 32.9881 14.5708L31.9915 15.0783C34.594 21.1316 32.0915 28.1216 26.1748 31.1358C24.3931 32.0458 22.4881 32.5058 20.5123 32.5058Z" fill="black"/>
<path opacity="0.07" d="M20.5127 32.0891C19.5627 32.0891 18.6094 31.9749 17.6785 31.7499C17.3335 31.6666 17.0377 31.4424 16.8652 31.1349C16.6935 30.8283 16.6585 30.4749 16.7669 30.1416L17.2835 28.5516C17.4519 28.0333 17.9244 27.6858 18.4594 27.6858C18.5502 27.6858 18.641 27.6966 18.7294 27.7166C19.3152 27.8524 19.9135 27.9208 20.5094 27.9208C21.7594 27.9208 22.9652 27.6291 24.0944 27.0541C25.9752 26.0958 27.3719 24.4591 28.026 22.4449C28.6369 20.5649 28.531 18.5699 27.7335 16.7816L26.3985 17.4616C26.2544 17.5349 26.101 17.5724 25.9435 17.5724C25.626 17.5724 25.3227 17.4166 25.1327 17.1558C24.9435 16.8958 24.8927 16.5699 24.9935 16.2624L26.486 11.6691C26.6535 11.1524 27.131 10.8049 27.6744 10.8049C27.8052 10.8049 27.9352 10.8258 28.061 10.8666L32.6535 12.3591C33.0402 12.4849 33.3102 12.8274 33.3419 13.2324C33.3735 13.6374 33.1602 14.0174 32.7985 14.2016L31.4485 14.8891C34.1902 20.7549 31.7969 27.8058 25.9852 30.7666C24.2635 31.6441 22.4219 32.0891 20.5127 32.0891Z" fill="black"/>
<path d="M32.5257 12.755L27.9323 11.2625C27.4948 11.12 27.0248 11.36 26.8823 11.7975L25.3898 16.3909C25.229 16.885 25.7465 17.3267 26.2098 17.0909L27.9248 16.2167C30.0107 20.3109 28.3773 25.3392 24.2832 27.425C22.5207 28.3234 20.5407 28.5634 18.6348 28.1225C18.2232 28.0275 17.8098 28.2775 17.679 28.68L17.1623 30.27C17.0107 30.7384 17.2973 31.2292 17.7757 31.345C20.4773 31.9984 23.2932 31.67 25.7957 30.395C31.5273 27.4742 33.8148 20.435 30.894 14.7034L32.609 13.8292C33.0732 13.5934 33.0198 12.9159 32.5257 12.755Z" fill="white"/>
<defs>
<linearGradient id="paint0_linear_4431_23123" x1="13.4918" y1="6.32159" x2="28.986" y2="36.5616" gradientUnits="userSpaceOnUse">
<stop stop-color="#21AD64"/>
<stop offset="1" stop-color="#088242"/>
</linearGradient>
</defs>
</svg>
