<svg width="41" height="40" viewBox="0 0 41 40" fill="none" xmlns="http://www.w3.org/2000/svg">
<g clip-path="url(#clip0_4431_22984)">
<path d="M11.9282 21.5626L40.4999 10.3843V30.9376C40.4999 31.8009 39.7899 32.5001 38.9124 32.5001H11.9282V21.5626Z" fill="url(#paint0_linear_4431_22984)"/>
<path d="M7.1665 10.3843V30.9376C7.1665 31.8009 7.8765 32.5001 8.754 32.5001H38.9123C39.3023 32.5001 39.654 32.3568 39.9307 32.1268L7.1665 10.3843Z" fill="url(#paint1_linear_4431_22984)"/>
<path opacity="0.05" d="M7.1665 9.84424H40.4998V11.1659L26.754 21.6734C25.0357 22.9867 22.6307 22.9867 20.9123 21.6734L7.1665 11.1659V9.84424Z" fill="black"/>
<path opacity="0.07" d="M7.1665 9.45337H40.4998V10.775L26.1873 21.0184C24.789 22.0375 22.8782 22.0375 21.479 21.0184L7.1665 10.775V9.45337Z" fill="black"/>
<path d="M8.754 7.5H38.9123C39.7898 7.5 40.4998 8.19917 40.4998 9.0625V10.3842L25.6207 20.3642C24.5423 21.0875 23.124 21.0875 22.0457 20.3642L7.1665 10.3842V9.0625C7.1665 8.19917 7.8765 7.5 8.754 7.5Z" fill="#50E6FF"/>
<path opacity="0.05" d="M13.4165 21.6667H7.1665V25.8334H13.4165C14.1057 25.8334 14.6665 25.2726 14.6665 24.5834V22.9167C14.6665 22.2276 14.1057 21.6667 13.4165 21.6667Z" fill="black"/>
<path opacity="0.05" d="M13.4165 25.8333H7.1665V29.9999H13.4165C14.1057 29.9999 14.6665 29.4391 14.6665 28.7499V27.0833C14.6665 26.3941 14.1057 25.8333 13.4165 25.8333Z" fill="black"/>
<path opacity="0.07" d="M13.4165 26.25H7.1665V29.5833H13.4165C13.8765 29.5833 14.2498 29.2092 14.2498 28.75V27.0833C14.2498 26.6242 13.8765 26.25 13.4165 26.25Z" fill="black"/>
<path opacity="0.07" d="M13.4165 22.0833H7.1665V25.4166H13.4165C13.8765 25.4166 14.2498 25.0424 14.2498 24.5833V22.9166C14.2498 22.4574 13.8765 22.0833 13.4165 22.0833Z" fill="black"/>
<path opacity="0.05" d="M13.4165 17.5H7.1665V21.6667H13.4165C14.1057 21.6667 14.6665 21.1058 14.6665 20.4167V18.75C14.6665 18.0608 14.1057 17.5 13.4165 17.5Z" fill="black"/>
<path d="M13.4167 29.1667H0.916667C0.686667 29.1667 0.5 28.9801 0.5 28.7501V27.0834C0.5 26.8534 0.686667 26.6667 0.916667 26.6667H13.4167C13.6467 26.6667 13.8333 26.8534 13.8333 27.0834V28.7501C13.8333 28.9801 13.6467 29.1667 13.4167 29.1667Z" fill="url(#paint2_linear_4431_22984)"/>
<path opacity="0.07" d="M13.4165 17.9167H7.1665V21.2501H13.4165C13.8765 21.2501 14.2498 20.8759 14.2498 20.4167V18.7501C14.2498 18.2909 13.8765 17.9167 13.4165 17.9167Z" fill="black"/>
<path d="M13.4165 25H2.58317C2.35317 25 2.1665 24.8133 2.1665 24.5833V22.9167C2.1665 22.6867 2.35317 22.5 2.58317 22.5H13.4165C13.6465 22.5 13.8332 22.6867 13.8332 22.9167V24.5833C13.8332 24.8133 13.6465 25 13.4165 25Z" fill="url(#paint3_linear_4431_22984)"/>
<path d="M13.4165 20.8333H5.08317C4.85317 20.8333 4.6665 20.6466 4.6665 20.4166V18.7499C4.6665 18.5199 4.85317 18.3333 5.08317 18.3333H13.4165C13.6465 18.3333 13.8332 18.5199 13.8332 18.7499V20.4166C13.8332 20.6466 13.6465 20.8333 13.4165 20.8333Z" fill="url(#paint4_linear_4431_22984)"/>
</g>
<defs>
<linearGradient id="paint0_linear_4431_22984" x1="21.8607" y1="14.9268" x2="40.8591" y2="43.3609" gradientUnits="userSpaceOnUse">
<stop stop-color="#28AFEA"/>
<stop offset="1" stop-color="#0B88DA"/>
</linearGradient>
<linearGradient id="paint1_linear_4431_22984" x1="5.964" y1="20.3426" x2="33.5532" y2="37.5276" gradientUnits="userSpaceOnUse">
<stop stop-color="#28AFEA"/>
<stop offset="1" stop-color="#0B88DA"/>
</linearGradient>
<linearGradient id="paint2_linear_4431_22984" x1="0.5" y1="27.9167" x2="13.8333" y2="27.9167" gradientUnits="userSpaceOnUse">
<stop stop-color="#5961C3"/>
<stop offset="1" stop-color="#3A41AC"/>
</linearGradient>
<linearGradient id="paint3_linear_4431_22984" x1="2.1665" y1="23.75" x2="13.8332" y2="23.75" gradientUnits="userSpaceOnUse">
<stop stop-color="#5961C3"/>
<stop offset="1" stop-color="#3A41AC"/>
</linearGradient>
<linearGradient id="paint4_linear_4431_22984" x1="4.6665" y1="19.5833" x2="13.8332" y2="19.5833" gradientUnits="userSpaceOnUse">
<stop stop-color="#5961C3"/>
<stop offset="1" stop-color="#3A41AC"/>
</linearGradient>
<clipPath id="clip0_4431_22984">
<rect width="40" height="40" fill="white" transform="translate(0.5)"/>
</clipPath>
</defs>
</svg>
