<svg width="41" height="40" viewBox="0 0 41 40" fill="none" xmlns="http://www.w3.org/2000/svg">
<path d="M20.4998 3.33325C11.2948 3.33325 3.83318 10.7949 3.83318 19.9999C3.83318 23.0308 4.65484 25.8641 6.06818 28.3124L2.26484 36.9658C1.84318 37.9249 2.85734 38.8824 3.79068 38.4074L11.919 34.2683C14.4282 35.7808 17.3573 36.6666 20.4998 36.6666C29.7048 36.6666 37.1665 29.2049 37.1665 19.9999C37.1665 10.7949 29.7048 3.33325 20.4998 3.33325Z" fill="url(#paint0_linear_4431_23015)"/>
<path opacity="0.3" d="M20.5 22.5C21.8807 22.5 23 21.3807 23 20C23 18.6193 21.8807 17.5 20.5 17.5C19.1193 17.5 18 18.6193 18 20C18 21.3807 19.1193 22.5 20.5 22.5Z" fill="url(#paint1_radial_4431_23015)"/>
<path d="M20.5002 21.6666C21.4206 21.6666 22.1668 20.9204 22.1668 19.9999C22.1668 19.0794 21.4206 18.3333 20.5002 18.3333C19.5797 18.3333 18.8335 19.0794 18.8335 19.9999C18.8335 20.9204 19.5797 21.6666 20.5002 21.6666Z" fill="white"/>
<path opacity="0.3" d="M13.8335 22.5C15.2142 22.5 16.3335 21.3807 16.3335 20C16.3335 18.6193 15.2142 17.5 13.8335 17.5C12.4528 17.5 11.3335 18.6193 11.3335 20C11.3335 21.3807 12.4528 22.5 13.8335 22.5Z" fill="url(#paint2_radial_4431_23015)"/>
<path d="M13.8332 21.6666C14.7536 21.6666 15.4998 20.9204 15.4998 19.9999C15.4998 19.0794 14.7536 18.3333 13.8332 18.3333C12.9127 18.3333 12.1665 19.0794 12.1665 19.9999C12.1665 20.9204 12.9127 21.6666 13.8332 21.6666Z" fill="white"/>
<path opacity="0.3" d="M27.1665 22.5C28.5472 22.5 29.6665 21.3807 29.6665 20C29.6665 18.6193 28.5472 17.5 27.1665 17.5C25.7858 17.5 24.6665 18.6193 24.6665 20C24.6665 21.3807 25.7858 22.5 27.1665 22.5Z" fill="url(#paint3_radial_4431_23015)"/>
<path d="M27.1667 21.6666C28.0871 21.6666 28.8333 20.9204 28.8333 19.9999C28.8333 19.0794 28.0871 18.3333 27.1667 18.3333C26.2462 18.3333 25.5 19.0794 25.5 19.9999C25.5 20.9204 26.2462 21.6666 27.1667 21.6666Z" fill="white"/>
<defs>
<linearGradient id="paint0_linear_4431_23015" x1="29.0015" y1="5.66159" x2="8.79067" y2="39.7483" gradientUnits="userSpaceOnUse">
<stop stop-color="#0176D0"/>
<stop offset="1" stop-color="#16538C"/>
</linearGradient>
<radialGradient id="paint1_radial_4431_23015" cx="0" cy="0" r="1" gradientUnits="userSpaceOnUse" gradientTransform="translate(20.5 20) scale(2.5)">
<stop/>
<stop offset="1" stop-opacity="0"/>
</radialGradient>
<radialGradient id="paint2_radial_4431_23015" cx="0" cy="0" r="1" gradientUnits="userSpaceOnUse" gradientTransform="translate(13.8335 20) scale(2.5)">
<stop/>
<stop offset="1" stop-opacity="0"/>
</radialGradient>
<radialGradient id="paint3_radial_4431_23015" cx="0" cy="0" r="1" gradientUnits="userSpaceOnUse" gradientTransform="translate(27.1665 20) scale(2.5)">
<stop/>
<stop offset="1" stop-opacity="0"/>
</radialGradient>
</defs>
</svg>
