<svg width="41" height="40" viewBox="0 0 41 40" fill="none" xmlns="http://www.w3.org/2000/svg">
<path d="M32.9998 9.16675H27.1665V28.3334H32.9998V9.16675Z" fill="url(#paint0_linear_4431_23005)"/>
<path d="M37.1668 16.6858V9.16667C37.1668 8.24583 36.421 7.5 35.5002 7.5H5.50016C4.57933 7.5 3.8335 8.24583 3.8335 9.16667V16.6858C4.84016 17.4458 5.50016 18.6417 5.50016 20C5.50016 21.3583 4.84016 22.5542 3.8335 23.3142V30.8333C3.8335 31.7542 4.57933 32.5 5.50016 32.5H35.5002C36.421 32.5 37.1668 31.7542 37.1668 30.8333V23.3142C36.1602 22.5533 35.5002 21.3583 35.5002 20C35.5002 18.6417 36.1602 17.4458 37.1668 16.6858ZM29.6668 30.8333C29.2068 30.8333 28.8335 30.46 28.8335 30C28.8335 29.54 29.2068 29.1667 29.6668 29.1667C30.1268 29.1667 30.5002 29.54 30.5002 30C30.5002 30.46 30.1268 30.8333 29.6668 30.8333ZM29.6668 27.5C29.2068 27.5 28.8335 27.1267 28.8335 26.6667C28.8335 26.2067 29.2068 25.8333 29.6668 25.8333C30.1268 25.8333 30.5002 26.2067 30.5002 26.6667C30.5002 27.1267 30.1268 27.5 29.6668 27.5ZM29.6668 24.1667C29.2068 24.1667 28.8335 23.7933 28.8335 23.3333C28.8335 22.8733 29.2068 22.5 29.6668 22.5C30.1268 22.5 30.5002 22.8733 30.5002 23.3333C30.5002 23.7933 30.1268 24.1667 29.6668 24.1667ZM29.6668 20.8333C29.2068 20.8333 28.8335 20.46 28.8335 20C28.8335 19.54 29.2068 19.1667 29.6668 19.1667C30.1268 19.1667 30.5002 19.54 30.5002 20C30.5002 20.46 30.1268 20.8333 29.6668 20.8333ZM29.6668 17.5C29.2068 17.5 28.8335 17.1267 28.8335 16.6667C28.8335 16.2067 29.2068 15.8333 29.6668 15.8333C30.1268 15.8333 30.5002 16.2067 30.5002 16.6667C30.5002 17.1267 30.1268 17.5 29.6668 17.5ZM29.6668 14.1667C29.2068 14.1667 28.8335 13.7933 28.8335 13.3333C28.8335 12.8733 29.2068 12.5 29.6668 12.5C30.1268 12.5 30.5002 12.8733 30.5002 13.3333C30.5002 13.7933 30.1268 14.1667 29.6668 14.1667ZM29.6668 10.8333C29.2068 10.8333 28.8335 10.46 28.8335 10C28.8335 9.54 29.2068 9.16667 29.6668 9.16667C30.1268 9.16667 30.5002 9.54 30.5002 10C30.5002 10.46 30.1268 10.8333 29.6668 10.8333Z" fill="url(#paint1_linear_4431_23005)"/>
<path d="M36.0166 7.5001L35.3108 3.94843C35.1316 3.0451 34.2541 2.45926 33.3508 2.63843L8.89746 7.5001H36.0166ZM27.9541 5.41093C28.405 5.32093 28.8441 5.61426 28.9341 6.06593C29.0241 6.51676 28.7308 6.95593 28.2791 7.04593C27.8283 7.13593 27.3891 6.8426 27.2991 6.39093C27.2091 5.93926 27.5033 5.5001 27.9541 5.41093Z" fill="url(#paint2_linear_4431_23005)"/>
<defs>
<linearGradient id="paint0_linear_4431_23005" x1="28.4765" y1="9.34091" x2="31.659" y2="27.9751" gradientUnits="userSpaceOnUse">
<stop stop-color="#D69400"/>
<stop offset="0.057" stop-color="#D49200"/>
<stop offset="0.554" stop-color="#C78600"/>
<stop offset="1" stop-color="#C28200"/>
</linearGradient>
<linearGradient id="paint1_linear_4431_23005" x1="11.0718" y1="4.66" x2="30.1502" y2="35.7008" gradientUnits="userSpaceOnUse">
<stop stop-color="#FFD869"/>
<stop offset="1" stop-color="#FEC52B"/>
</linearGradient>
<linearGradient id="paint2_linear_4431_23005" x1="21.9791" y1="3.65176" x2="24.9566" y2="27.6243" gradientUnits="userSpaceOnUse">
<stop stop-color="#D69400"/>
<stop offset="0.057" stop-color="#D49200"/>
<stop offset="0.554" stop-color="#C78600"/>
<stop offset="1" stop-color="#C28200"/>
</linearGradient>
</defs>
</svg>
