<svg width="41" height="40" viewBox="0 0 41 40" fill="none" xmlns="http://www.w3.org/2000/svg">
<path d="M3.8335 31.6667V11.6667H37.1668V31.6667C37.1668 32.5834 36.4168 33.3334 35.5002 33.3334H5.50016C4.5835 33.3334 3.8335 32.5834 3.8335 31.6667Z" fill="#50E6FF"/>
<path d="M37.1668 8.33341V12.5001H3.8335V8.33341C3.8335 7.41675 4.5835 6.66675 5.50016 6.66675H35.5002C36.4168 6.66675 37.1668 7.41675 37.1668 8.33341Z" fill="url(#paint0_linear_4431_23137)"/>
<path d="M14.2502 10.8333H35.0835C35.3135 10.8333 35.5002 10.6466 35.5002 10.4166V8.74992C35.5002 8.51992 35.3135 8.33325 35.0835 8.33325H14.2502C14.0202 8.33325 13.8335 8.51992 13.8335 8.74992V10.4166C13.8335 10.6466 14.0202 10.8333 14.2502 10.8333Z" fill="url(#paint1_linear_4431_23137)"/>
<path d="M6.75 10.8333C7.44036 10.8333 8 10.2736 8 9.58325C8 8.8929 7.44036 8.33325 6.75 8.33325C6.05964 8.33325 5.5 8.8929 5.5 9.58325C5.5 10.2736 6.05964 10.8333 6.75 10.8333Z" fill="url(#paint2_linear_4431_23137)"/>
<path d="M10.9165 10.8333C11.6069 10.8333 12.1665 10.2736 12.1665 9.58325C12.1665 8.8929 11.6069 8.33325 10.9165 8.33325C10.2261 8.33325 9.6665 8.8929 9.6665 9.58325C9.6665 10.2736 10.2261 10.8333 10.9165 10.8333Z" fill="url(#paint3_linear_4431_23137)"/>
<path opacity="0.05" d="M20.5002 30.8333C16.1352 30.8333 12.5835 27.2817 12.5835 22.9167C12.5835 18.5517 16.1352 15 20.5002 15C24.8652 15 28.4168 18.5517 28.4168 22.9167C28.4168 27.2817 24.8652 30.8333 20.5002 30.8333ZM19.9635 26.6275C20.141 26.6533 20.3202 26.6667 20.5002 26.6667C22.5677 26.6667 24.2502 24.9842 24.2502 22.9167C24.2502 22.6033 24.211 22.2942 24.1335 21.9942L19.9635 26.6275ZM20.5002 19.1667C18.4327 19.1667 16.7502 20.8492 16.7502 22.9167C16.7502 23.23 16.7893 23.5392 16.8668 23.8392L21.0377 19.205C20.8602 19.18 20.681 19.1667 20.5002 19.1667Z" fill="black"/>
<path opacity="0.07" d="M20.5 30.4167C16.365 30.4167 13 27.0526 13 22.9167C13 18.7817 16.365 15.4167 20.5 15.4167C24.635 15.4167 28 18.7817 28 22.9167C28 27.0526 24.635 30.4167 20.5 30.4167ZM19.1867 26.8676C19.6108 27.0109 20.0508 27.0834 20.5 27.0834C22.7975 27.0834 24.6667 25.2142 24.6667 22.9167C24.6667 22.3226 24.5375 21.7367 24.29 21.1967L19.1867 26.8676ZM20.5 18.7501C18.2025 18.7501 16.3333 20.6192 16.3333 22.9167C16.3333 23.5109 16.4625 24.0967 16.71 24.6367L21.8142 18.9659C21.3892 18.8226 20.95 18.7501 20.5 18.7501Z" fill="black"/>
<path d="M20.4998 15.8333C16.594 15.8333 13.4165 19.0108 13.4165 22.9166C13.4165 26.8224 16.594 29.9999 20.4998 29.9999C24.4057 29.9999 27.5832 26.8224 27.5832 22.9166C27.5832 19.0108 24.4057 15.8333 20.4998 15.8333ZM20.4998 18.3333C21.224 18.3333 21.9073 18.5066 22.5165 18.8074L16.6248 25.3533C16.179 24.6466 15.9165 23.8124 15.9165 22.9166C15.9165 20.3891 17.9723 18.3333 20.4998 18.3333ZM20.4998 27.4999C19.7757 27.4999 19.0923 27.3266 18.4832 27.0258L24.3748 20.4791C24.8207 21.1858 25.0832 22.0199 25.0832 22.9158C25.0832 25.4441 23.0273 27.4999 20.4998 27.4999Z" fill="url(#paint4_linear_4431_23137)"/>
<defs>
<linearGradient id="paint0_linear_4431_23137" x1="4.34516" y1="6.45091" x2="36.2802" y2="12.9442" gradientUnits="userSpaceOnUse">
<stop stop-color="#0077D2"/>
<stop offset="1" stop-color="#0B59A2"/>
</linearGradient>
<linearGradient id="paint1_linear_4431_23137" x1="13.8335" y1="9.58325" x2="35.5002" y2="9.58325" gradientUnits="userSpaceOnUse">
<stop stop-color="#7DD8F3"/>
<stop offset="1" stop-color="#45B0D0"/>
</linearGradient>
<linearGradient id="paint2_linear_4431_23137" x1="6.12583" y1="8.67992" x2="7.19333" y2="10.2241" gradientUnits="userSpaceOnUse">
<stop stop-color="#75DAFF"/>
<stop offset="1" stop-color="#49BEF1"/>
</linearGradient>
<linearGradient id="paint3_linear_4431_23137" x1="10.2923" y1="8.67992" x2="11.3598" y2="10.2241" gradientUnits="userSpaceOnUse">
<stop stop-color="#75DAFF"/>
<stop offset="1" stop-color="#49BEF1"/>
</linearGradient>
<linearGradient id="paint4_linear_4431_23137" x1="14.8782" y1="13.3466" x2="25.689" y2="31.7508" gradientUnits="userSpaceOnUse">
<stop stop-color="#F44F5A"/>
<stop offset="0.443" stop-color="#EE3D4A"/>
<stop offset="1" stop-color="#E52030"/>
</linearGradient>
</defs>
</svg>
