<svg width="41" height="40" viewBox="0 0 41 40" fill="none" xmlns="http://www.w3.org/2000/svg">
<g clip-path="url(#clip0_4431_23089)">
<path d="M3.8335 31.6667V12.5H37.1668V31.6667C37.1668 32.5833 36.4168 33.3333 35.5002 33.3333H5.50016C4.5835 33.3333 3.8335 32.5833 3.8335 31.6667Z" fill="#50E6FF"/>
<path d="M37.1668 8.33341V12.5001H3.8335V8.33341C3.8335 7.41675 4.5835 6.66675 5.50016 6.66675H35.5002C36.4168 6.66675 37.1668 7.41675 37.1668 8.33341Z" fill="url(#paint0_linear_4431_23089)"/>
<path d="M6.75 10.8333C7.44036 10.8333 8 10.2736 8 9.58325C8 8.8929 7.44036 8.33325 6.75 8.33325C6.05964 8.33325 5.5 8.8929 5.5 9.58325C5.5 10.2736 6.05964 10.8333 6.75 10.8333Z" fill="url(#paint1_linear_4431_23089)"/>
<path opacity="0.05" d="M35.7693 23.6617C34.931 23.09 34.0652 22.5 32.5835 22.5C31.1018 22.5 30.236 23.09 29.3977 23.6617C28.4327 24.32 27.4343 25 25.0835 25C24.3943 25 23.8335 25.5608 23.8335 26.25V30C23.8335 30.6133 23.911 31.2408 24.0627 31.865C24.186 32.37 24.3593 32.86 24.571 33.3333H35.5002C36.4168 33.3333 37.1668 32.5833 37.1668 31.6667V24.48C36.621 24.2417 36.1918 23.9492 35.7693 23.6617Z" fill="black"/>
<path opacity="0.07" d="M35.535 24.0059C34.7133 23.4459 33.9367 22.9167 32.5833 22.9167C31.23 22.9167 30.4533 23.4459 29.6317 24.0059C28.6617 24.6676 27.5617 25.4167 25.0833 25.4167C24.6233 25.4167 24.25 25.7901 24.25 26.2501V30.0001C24.25 30.5809 24.3233 31.1751 24.4675 31.7659C24.6 32.3084 24.7908 32.8317 25.025 33.3334H35.5C36.4167 33.3334 37.1667 32.5834 37.1667 31.6667V24.9292C36.5 24.6634 36.0025 24.3242 35.535 24.0059Z" fill="black"/>
<path d="M10.9165 10.8333C11.6069 10.8333 12.1665 10.2736 12.1665 9.58325C12.1665 8.8929 11.6069 8.33325 10.9165 8.33325C10.2261 8.33325 9.6665 8.8929 9.6665 9.58325C9.6665 10.2736 10.2261 10.8333 10.9165 10.8333Z" fill="url(#paint2_linear_4431_23089)"/>
<path d="M32.5832 40.0001C32.3532 40.0001 32.1665 39.8134 32.1665 39.5834C32.1665 39.3534 32.3532 39.1667 32.5832 39.1667V40.0001Z" fill="#107C42"/>
<path d="M33.0002 39.5834C33.0002 39.8134 32.8135 40.0001 32.5835 40.0001V39.1667C32.8135 39.1667 33.0002 39.3534 33.0002 39.5834Z" fill="#185C37"/>
<path d="M40.0832 26.6666C40.3133 26.6666 40.4998 26.48 40.4998 26.2499C40.4998 26.0198 40.3133 25.8333 40.0832 25.8333C39.8531 25.8333 39.6665 26.0198 39.6665 26.2499C39.6665 26.48 39.8531 26.6666 40.0832 26.6666Z" fill="#21A366"/>
<path d="M25.0832 26.6666C25.3133 26.6666 25.4998 26.48 25.4998 26.2499C25.4998 26.0198 25.3133 25.8333 25.0832 25.8333C24.8531 25.8333 24.6665 26.0198 24.6665 26.2499C24.6665 26.48 24.8531 26.6666 25.0832 26.6666Z" fill="#33C481"/>
<path d="M32.5835 39.5834L32.7618 39.9609C32.7618 39.9609 39.0718 36.6692 40.2952 31.6667H32.5835V39.5834Z" fill="#185C37"/>
<path d="M40.5002 26.2499L40.0835 25.8333C35.4493 25.8333 35.3843 23.3333 32.5835 23.3333V31.6666H40.2952C40.426 31.1299 40.5002 30.5741 40.5002 29.9999C40.5002 28.6899 40.5002 26.2499 40.5002 26.2499Z" fill="#21A366"/>
<path d="M32.5832 39.5834L32.4049 39.9609C32.4049 39.9609 26.0949 36.6692 24.8716 31.6667H32.5832V39.5834Z" fill="#107C42"/>
<path d="M24.6665 26.2499L25.0832 25.8333C29.7173 25.8333 29.7823 23.3333 32.5832 23.3333V31.6666H24.8723C24.7407 31.1299 24.6665 30.5741 24.6665 29.9999C24.6665 28.6899 24.6665 26.2499 24.6665 26.2499Z" fill="#33C481"/>
</g>
<defs>
<linearGradient id="paint0_linear_4431_23089" x1="4.34516" y1="6.45091" x2="36.2802" y2="12.9442" gradientUnits="userSpaceOnUse">
<stop stop-color="#0077D2"/>
<stop offset="1" stop-color="#0B59A2"/>
</linearGradient>
<linearGradient id="paint1_linear_4431_23089" x1="6.12583" y1="8.67992" x2="7.19333" y2="10.2241" gradientUnits="userSpaceOnUse">
<stop stop-color="#75DAFF"/>
<stop offset="1" stop-color="#49BEF1"/>
</linearGradient>
<linearGradient id="paint2_linear_4431_23089" x1="10.2923" y1="8.67992" x2="11.3598" y2="10.2241" gradientUnits="userSpaceOnUse">
<stop stop-color="#75DAFF"/>
<stop offset="1" stop-color="#49BEF1"/>
</linearGradient>
<clipPath id="clip0_4431_23089">
<rect width="40" height="40" fill="white" transform="translate(0.5)"/>
</clipPath>
</defs>
</svg>
