<svg width="41" height="40" viewBox="0 0 41 40" fill="none" xmlns="http://www.w3.org/2000/svg">
<g clip-path="url(#clip0_4431_23152)">
<path d="M29.7227 6.77914L33.8335 11.8116V3.86164C33.8335 3.42164 33.301 3.20164 32.9893 3.51247L29.7227 6.77914Z" fill="url(#paint0_radial_4431_23152)"/>
<path d="M20.5002 3.33325C11.3102 3.33325 3.8335 10.8099 3.8335 19.9999C3.8335 29.1899 11.3102 36.6666 20.5002 36.6666C23.5402 36.6666 26.3877 35.8399 28.8435 34.4099C29.2343 34.1824 29.356 33.6716 29.1293 33.2791L27.886 31.1258C27.6602 30.7349 27.1577 30.5824 26.7677 30.8099C24.9243 31.8841 22.7835 32.4999 20.5002 32.4999C13.6077 32.4999 8.00016 26.8924 8.00016 19.9999C8.00016 13.1074 13.6077 7.49992 20.5002 7.49992C22.9243 7.49992 25.1768 8.20909 27.0918 9.41075L24.846 11.6566C24.5352 11.9674 24.7552 12.4999 25.196 12.4999H33.1735C33.5377 12.4999 33.8335 12.2041 33.8335 11.8399V10.0424C30.791 5.97908 25.9552 3.33325 20.5002 3.33325Z" fill="url(#paint1_linear_4431_23152)"/>
<path d="M27.8856 31.1258C27.6598 30.7349 27.1573 30.5824 26.7673 30.8099C25.3906 31.6124 23.8473 32.1583 22.2031 32.3833C22.3065 33.8299 22.7098 35.1958 23.3656 36.4083C25.3298 36.0633 27.1781 35.3791 28.844 34.4099C29.2348 34.1824 29.3565 33.6716 29.1298 33.2791L27.8856 31.1258Z" fill="url(#paint2_radial_4431_23152)"/>
<path d="M40.5002 31.6666C40.5002 36.2683 36.7685 39.9999 32.1668 39.9999C27.5652 39.9999 23.8335 36.2683 23.8335 31.6666C23.8335 27.0649 27.5652 23.3333 32.1668 23.3333C36.7685 23.3333 40.5002 27.0649 40.5002 31.6666Z" fill="url(#paint3_linear_4431_23152)"/>
<path d="M31.0382 35.295L27.7049 31.9617C27.5424 31.7992 27.5424 31.535 27.7049 31.3725L28.2941 30.7833C28.4566 30.6208 28.7207 30.6208 28.8832 30.7833L31.3332 33.2325L35.8657 28.7C36.0282 28.5375 36.2924 28.5375 36.4549 28.7L37.0441 29.2892C37.2066 29.4517 37.2066 29.7158 37.0441 29.8783L31.6274 35.295C31.4649 35.4575 31.2015 35.4575 31.0382 35.295Z" fill="white"/>
</g>
<defs>
<radialGradient id="paint0_radial_4431_23152" cx="0" cy="0" r="1" gradientUnits="userSpaceOnUse" gradientTransform="translate(20.4629 19.9168) rotate(-134.999) scale(21.075)">
<stop offset="0.752" stop-color="#076CB3"/>
<stop offset="0.825" stop-color="#138CD2"/>
<stop offset="0.865" stop-color="#1898DE"/>
<stop offset="1" stop-color="#199AE0"/>
</radialGradient>
<linearGradient id="paint1_linear_4431_23152" x1="16.7352" y1="3.85242" x2="22.6435" y2="37.3633" gradientUnits="userSpaceOnUse">
<stop stop-color="#32BDEF"/>
<stop offset="1" stop-color="#1EA2E4"/>
</linearGradient>
<radialGradient id="paint2_radial_4431_23152" cx="0" cy="0" r="1" gradientUnits="userSpaceOnUse" gradientTransform="translate(31.0773 32.3149) scale(8.91333 8.91333)">
<stop/>
<stop offset="0.979" stop-opacity="0"/>
</radialGradient>
<linearGradient id="paint3_linear_4431_23152" x1="26.2743" y1="25.7741" x2="38.0593" y2="37.5591" gradientUnits="userSpaceOnUse">
<stop stop-color="#21AD64"/>
<stop offset="1" stop-color="#088242"/>
</linearGradient>
<clipPath id="clip0_4431_23152">
<rect width="40" height="40" fill="white" transform="translate(0.5)"/>
</clipPath>
</defs>
</svg>
