<svg width="41" height="40" viewBox="0 0 41 40" fill="none" xmlns="http://www.w3.org/2000/svg">
<path d="M20.5002 3.33325C11.296 3.33325 3.8335 10.7958 3.8335 19.9999C3.8335 29.2041 11.296 36.6666 20.5002 36.6666C29.7043 36.6666 37.1668 29.2041 37.1668 19.9999C37.1668 10.7958 29.7043 3.33325 20.5002 3.33325ZM20.5002 31.6666C14.0568 31.6666 8.8335 26.4433 8.8335 19.9999C8.8335 13.5566 14.0568 8.33325 20.5002 8.33325C26.9435 8.33325 32.1668 13.5566 32.1668 19.9999C32.1668 26.4433 26.9435 31.6666 20.5002 31.6666Z" fill="url(#paint0_linear_4431_23080)"/>
<path d="M11.6424 32.3924L8.10742 28.8574L29.3574 7.60742L32.8924 11.1424L11.6424 32.3924Z" fill="url(#paint1_linear_4431_23080)"/>
<defs>
<linearGradient id="paint0_linear_4431_23080" x1="8.67683" y1="8.17658" x2="32.4677" y2="31.9674" gradientUnits="userSpaceOnUse">
<stop stop-color="#F44F5A"/>
<stop offset="0.443" stop-color="#EE3D4A"/>
<stop offset="1" stop-color="#E52030"/>
</linearGradient>
<linearGradient id="paint1_linear_4431_23080" x1="6.06242" y1="5.56242" x2="34.6116" y2="34.1116" gradientUnits="userSpaceOnUse">
<stop stop-color="#F44F5A"/>
<stop offset="0.443" stop-color="#EE3D4A"/>
<stop offset="1" stop-color="#E52030"/>
</linearGradient>
</defs>
</svg>
