<svg width="41" height="40" viewBox="0 0 41 40" fill="none" xmlns="http://www.w3.org/2000/svg">
<path d="M32.696 4.75928L28.0394 6.66678L22.4869 12.2343C22.6219 12.3826 22.7094 12.5751 22.7094 12.7918C22.7094 13.2526 22.3369 13.6251 21.876 13.6251C21.661 13.6251 21.4702 13.5384 21.3227 13.4051L19.9919 14.7418C20.1227 14.8901 20.2094 15.0784 20.2094 15.2918C20.2094 15.7526 19.8369 16.1251 19.376 16.1251C19.1644 16.1251 18.9769 16.0401 18.8302 15.9101L17.4977 17.2493C17.6244 17.3959 17.7094 17.5809 17.7094 17.7909C17.7094 18.2518 17.3369 18.6243 16.876 18.6243C16.6677 18.6243 16.4835 18.5401 16.3377 18.4143L14.1727 20.5926L14.7035 21.2501L5.08854 30.7018C4.7602 31.0293 4.7602 31.5593 5.08854 31.8876L8.6452 35.4443C8.97437 35.7718 9.50353 35.7718 9.83187 35.4443L19.4452 25.9943L20.0377 26.5876C20.0377 26.5876 20.0985 26.5259 20.6944 25.9301C20.0394 25.2751 27.2427 14.6401 30.0835 11.7976C32.471 9.41094 32.9985 5.97844 32.696 4.75928Z" fill="#64717C"/>
<path d="M10.2551 36.2185C9.6001 36.8735 8.5376 36.8735 7.88343 36.2185L4.3251 32.6618C3.67093 32.0068 3.67093 30.9443 4.3251 30.2893L14.3134 20.4526L20.2426 26.381L10.2551 36.2185Z" fill="url(#paint0_linear_4431_23110)"/>
<path d="M13.834 27.4992C14.2937 27.4992 14.6665 27.1265 14.6665 26.6667C14.6665 26.207 14.2937 25.8342 13.834 25.8342C13.3742 25.8342 13.0015 26.207 13.0015 26.6667C13.0015 27.1265 13.3742 27.4992 13.834 27.4992Z" fill="#CFD8DC"/>
<path d="M8.00081 33.3334C8.46105 33.3334 8.83415 32.9603 8.83415 32.5001C8.83415 32.0398 8.46105 31.6667 8.00081 31.6667C7.54058 31.6667 7.16748 32.0398 7.16748 32.5001C7.16748 32.9603 7.54058 33.3334 8.00081 33.3334Z" fill="#CFD8DC"/>
<path d="M36.1768 3.33325L32.6959 4.75909C32.9984 5.97825 32.4709 9.41075 30.0843 11.7966C27.2434 14.6391 19.0434 22.8374 17.5593 24.3224L20.5259 26.0974C24.3726 22.2516 31.6884 14.9349 33.2126 13.4124C37.3618 9.26158 36.1768 3.33325 36.1768 3.33325ZM19.1318 18.8691L17.4659 17.2033C17.6168 17.3541 17.7093 17.5624 17.7093 17.7916C17.7093 18.2524 17.3368 18.6249 16.8759 18.6249C16.6468 18.6249 16.4384 18.5324 16.2876 18.3816L17.9534 20.0474C18.1159 20.2099 18.3293 20.2916 18.5426 20.2916C18.7559 20.2916 18.9693 20.2099 19.1318 20.0474C19.4568 19.7224 19.4568 19.1949 19.1318 18.8691ZM21.6318 16.3691L19.9659 14.7033C20.1168 14.8541 20.2093 15.0624 20.2093 15.2916C20.2093 15.7524 19.8368 16.1249 19.3759 16.1249C19.1468 16.1249 18.9384 16.0324 18.7876 15.8816L20.4534 17.5474C20.6159 17.7099 20.8293 17.7916 21.0426 17.7916C21.2559 17.7916 21.4693 17.7099 21.6318 17.5474C21.9568 17.2224 21.9568 16.6949 21.6318 16.3691ZM24.1318 13.8691L22.4659 12.2033C22.6168 12.3541 22.7093 12.5624 22.7093 12.7916C22.7093 13.2524 22.3368 13.6249 21.8759 13.6249C21.6468 13.6249 21.4384 13.5324 21.2876 13.3816L22.9534 15.0474C23.1159 15.2099 23.3293 15.2916 23.5426 15.2916C23.7559 15.2916 23.9693 15.2099 24.1318 15.0474C24.4568 14.7224 24.4568 14.1949 24.1318 13.8691Z" fill="#90A4AE"/>
<path d="M20.1532 28.9207L11.5774 20.3449C11.2515 20.019 11.2515 19.4915 11.5774 19.1666L12.1665 18.5774C12.4924 18.2515 13.0199 18.2515 13.3449 18.5774L21.9207 27.1532C22.2465 27.479 22.2465 28.0066 21.9207 28.3316L21.3315 28.9207C21.0057 29.2457 20.4782 29.2457 20.1532 28.9207Z" fill="url(#paint1_linear_4431_23110)"/>
<defs>
<linearGradient id="paint0_linear_4431_23110" x1="10.3834" y1="21.0701" x2="13.3326" y2="35.2276" gradientUnits="userSpaceOnUse">
<stop stop-color="#636363"/>
<stop offset="1" stop-color="#444444"/>
</linearGradient>
<linearGradient id="paint1_linear_4431_23110" x1="11.3332" y1="23.7491" x2="22.1649" y2="23.7491" gradientUnits="userSpaceOnUse">
<stop stop-color="#636363"/>
<stop offset="0.998" stop-color="#3B3B3B"/>
</linearGradient>
</defs>
</svg>
