<svg width="41" height="40" viewBox="0 0 41 40" fill="none" xmlns="http://www.w3.org/2000/svg">
<path d="M28.2557 29.6724L27.0774 28.4941C26.7515 28.1682 26.7515 27.6407 27.0774 27.3157L34.3932 19.9999L27.0774 12.684C26.7515 12.3582 26.7515 11.8307 27.0774 11.5057L28.2557 10.3274C28.5815 10.0015 29.1091 10.0015 29.4341 10.3274L37.9282 18.8216C38.5791 19.4724 38.5791 20.5274 37.9282 21.1782L29.4341 29.6724C29.1082 29.9982 28.5807 29.9982 28.2557 29.6724Z" fill="url(#paint0_linear_4431_23066)"/>
<path d="M11.5658 29.6724L3.07162 21.1782C2.42079 20.5274 2.42079 19.4724 3.07162 18.8216L11.5658 10.3274C11.8916 10.0015 12.4191 10.0015 12.7441 10.3274L13.9225 11.5057C14.2483 11.8316 14.2483 12.359 13.9225 12.684L6.60662 19.9999L13.9225 27.3157C14.2483 27.6416 14.2483 28.1691 13.9225 28.4941L12.7441 29.6724C12.4191 29.9982 11.8916 29.9982 11.5658 29.6724Z" fill="url(#paint1_linear_4431_23066)"/>
<path d="M15.5002 21.6666C16.4206 21.6666 17.1668 20.9204 17.1668 19.9999C17.1668 19.0794 16.4206 18.3333 15.5002 18.3333C14.5797 18.3333 13.8335 19.0794 13.8335 19.9999C13.8335 20.9204 14.5797 21.6666 15.5002 21.6666Z" fill="url(#paint2_linear_4431_23066)"/>
<path d="M21.3327 21.6666C22.2532 21.6666 22.9993 20.9204 22.9993 19.9999C22.9993 19.0794 22.2532 18.3333 21.3327 18.3333C20.4122 18.3333 19.666 19.0794 19.666 19.9999C19.666 20.9204 20.4122 21.6666 21.3327 21.6666Z" fill="url(#paint3_linear_4431_23066)"/>
<path d="M27.1667 21.6666C28.0871 21.6666 28.8333 20.9204 28.8333 19.9999C28.8333 19.0794 28.0871 18.3333 27.1667 18.3333C26.2462 18.3333 25.5 19.0794 25.5 19.9999C25.5 20.9204 26.2462 21.6666 27.1667 21.6666Z" fill="url(#paint4_linear_4431_23066)"/>
<defs>
<linearGradient id="paint0_linear_4431_23066" x1="32.6249" y1="5.19572" x2="32.6249" y2="29.8949" gradientUnits="userSpaceOnUse">
<stop stop-color="#737BE6"/>
<stop offset="1" stop-color="#4750B3"/>
</linearGradient>
<linearGradient id="paint1_linear_4431_23066" x1="8.37495" y1="5.19572" x2="8.37495" y2="29.8949" gradientUnits="userSpaceOnUse">
<stop stop-color="#737BE6"/>
<stop offset="1" stop-color="#4750B3"/>
</linearGradient>
<linearGradient id="paint2_linear_4431_23066" x1="15.5002" y1="4.68075" x2="15.5002" y2="30.2399" gradientUnits="userSpaceOnUse">
<stop stop-color="#737BE6"/>
<stop offset="1" stop-color="#4750B3"/>
</linearGradient>
<linearGradient id="paint3_linear_4431_23066" x1="21.3327" y1="4.68075" x2="21.3327" y2="30.2399" gradientUnits="userSpaceOnUse">
<stop stop-color="#737BE6"/>
<stop offset="1" stop-color="#4750B3"/>
</linearGradient>
<linearGradient id="paint4_linear_4431_23066" x1="27.1667" y1="4.68075" x2="27.1667" y2="30.2399" gradientUnits="userSpaceOnUse">
<stop stop-color="#737BE6"/>
<stop offset="1" stop-color="#4750B3"/>
</linearGradient>
</defs>
</svg>
