<svg width="41" height="40" viewBox="0 0 41 40" fill="none" xmlns="http://www.w3.org/2000/svg">
<g clip-path="url(#clip0_4431_23050)">
<path d="M41.8018 1H40.7457C40.7457 1.58299 40.2726 2.05614 39.6896 2.05614C39.1066 2.05614 38.6334 1.58299 38.6334 1H36.5211C36.5211 1.58299 36.048 2.05614 35.465 2.05614C34.882 2.05614 34.4088 1.58299 34.4088 1H32.2966C32.2966 1.58299 31.8234 2.05614 31.2404 2.05614C30.6574 2.05614 30.1843 1.58299 30.1843 1H28.072C28.072 1.58299 27.5988 2.05614 27.0159 2.05614C26.4329 2.05614 25.9597 1.58299 25.9597 1H23.8474C23.8474 1.58299 23.3743 2.05614 22.7913 2.05614C22.2083 2.05614 21.7351 1.58299 21.7351 1H19.6229C19.6229 1.58299 19.1497 2.05614 18.5667 2.05614C17.9837 2.05614 17.5106 1.58299 17.5106 1H15.3983C15.3983 1.58299 14.9251 2.05614 14.3421 2.05614C13.7591 2.05614 13.286 1.58299 13.286 1H11.1737C11.1737 1.58299 10.7006 2.05614 10.1176 2.05614C9.53458 2.05614 9.06143 1.58299 9.06143 1H6.94914C6.94914 1.58299 6.47599 2.05614 5.893 2.05614C5.31001 2.05614 4.83686 1.58299 4.83686 1H2.72457C2.72457 1.58299 2.25142 2.05614 1.66843 2.05614C1.08544 2.05614 0.612285 1.58299 0.612285 1H-0.443857C-1.02685 1 -1.5 1.47315 -1.5 2.05614V23.179C-1.5 24.346 -0.554752 25.2913 0.612285 25.2913H40.7457C41.9127 25.2913 42.858 24.346 42.858 23.179V2.05614C42.858 1.47315 42.3848 1 41.8018 1Z" fill="#50E6FF"/>
<path d="M37.0493 9.4492H4.30883C4.01734 9.4492 3.78076 9.21262 3.78076 8.92113V7.86499C3.78076 7.57349 4.01734 7.33691 4.30883 7.33691H37.0493C37.3407 7.33691 37.5773 7.57349 37.5773 7.86499V8.92113C37.5773 9.21262 37.3407 9.4492 37.0493 9.4492Z" fill="#199BE2"/>
<path d="M37.0493 13.6738H4.30883C4.01734 13.6738 3.78076 13.4372 3.78076 13.1457V12.0896C3.78076 11.7981 4.01734 11.5615 4.30883 11.5615H37.0493C37.3407 11.5615 37.5773 11.7981 37.5773 12.0896V13.1457C37.5773 13.4372 37.3407 13.6738 37.0493 13.6738Z" fill="#199BE2"/>
<path d="M37.0494 21.0666H22.2634C21.9719 21.0666 21.7354 20.8301 21.7354 20.5386V19.4824C21.7354 19.1909 21.9719 18.9543 22.2634 18.9543H37.0494C37.3409 18.9543 37.5775 19.1909 37.5775 19.4824V20.5386C37.5775 20.8301 37.3409 21.0666 37.0494 21.0666Z" fill="#199BE2"/>
<path opacity="0.05" d="M30.9255 10.7177L26.8192 12.6673C26.4907 12.8236 26.1961 13.0338 25.9415 13.2883L13.9385 25.2914H24.3922L31.1684 18.5152C31.424 18.2596 31.632 17.9649 31.7894 17.6354L33.7412 13.5302C34.058 12.8595 34.0147 12.1202 33.6229 11.5024C33.2363 10.8888 32.5519 10.5085 31.838 10.5085C31.5222 10.5085 31.2149 10.5783 30.9255 10.7177Z" fill="black"/>
<path opacity="0.07" d="M31.1529 11.1939L27.0477 13.1436C26.7742 13.2745 26.5281 13.4488 26.3158 13.6611L14.6855 25.2913H23.6459L30.7949 18.1423C31.0072 17.93 31.1814 17.6829 31.3124 17.4093L33.2631 13.3052C33.5007 12.8024 33.469 12.249 33.1754 11.7854C32.885 11.3238 32.3707 11.0376 31.8362 11.0376C31.6039 11.0366 31.3726 11.0894 31.1529 11.1939Z" fill="black"/>
<path d="M27.2754 13.6199L31.3796 11.6703C32.2773 11.2436 33.213 12.1804 32.7863 13.077L30.8367 17.1812C30.7332 17.3988 30.5927 17.5973 30.4227 17.7684L9.96416 38.227C8.93336 39.2578 7.26149 39.2578 6.22964 38.227C5.19884 37.1962 5.19884 35.5243 6.22964 34.4924L26.6882 14.035C26.8593 13.8639 27.0578 13.7234 27.2754 13.6199Z" fill="#107C42"/>
<path d="M12.0297 28.6939L15.7637 32.428L18.0041 30.1876L14.2702 26.4535L12.0297 28.6939Z" fill="#21A366"/>
</g>
<defs>
<clipPath id="clip0_4431_23050">
<rect width="40" height="40" fill="white" transform="translate(0.5)"/>
</clipPath>
</defs>
</svg>
