<svg width="37" height="36" viewBox="0 0 37 36" fill="none" xmlns="http://www.w3.org/2000/svg">
<path d="M34.5 36H2.5C1.4 36 0.5 35.1 0.5 34V2C0.5 0.9 1.4 0 2.5 0H34.5C35.6 0 36.5 0.9 36.5 2V34C36.5 35.1 35.6 36 34.5 36Z" fill="url(#paint0_linear_4431_23035)"/>
<path opacity="0.05" d="M31.5197 14.243V13.5C31.5197 12.673 30.8467 12 30.0197 12H27.0927C26.2657 12 25.5927 12.673 25.5927 13.5V14.029C25.0127 12.94 23.7957 12 21.3087 12H18.2797C17.4527 12 16.7797 12.673 16.7797 13.5V21.229L13.8507 12.995C13.6387 12.4 13.0707 12 12.4387 12H10.4697C9.84269 12 9.27669 12.396 9.06069 12.987L5.72469 22.151C5.57069 22.573 5.63169 23.044 5.88969 23.412C6.14669 23.78 6.56869 24 7.01869 24H8.55569C9.21369 24 9.78869 23.579 9.98569 22.953L10.3587 21.776H12.4527L12.8307 22.959C13.0297 23.581 13.6037 24 14.2587 24H15.8157C16.2617 24 16.6817 23.782 16.9397 23.418C16.9687 23.377 16.9857 23.331 17.0097 23.288C17.2747 23.714 17.7427 24 18.2797 24H19.5317C20.3587 24 21.0317 23.327 21.0317 22.5V20.555H21.1057C22.5547 20.555 23.7487 20.16 24.6547 19.383C25.6047 18.567 26.0877 17.491 26.0877 16.187C26.0877 15.906 26.0667 15.59 26.0097 15.262C26.1317 15.392 26.2687 15.508 26.4297 15.588V20.411C25.9347 20.656 25.5927 21.167 25.5927 21.756V22.5C25.5927 23.327 26.2657 24 27.0927 24H30.0197C30.8467 24 31.5197 23.327 31.5197 22.5V21.757C31.5197 21.168 31.1777 20.657 30.6827 20.412V15.589C31.1777 15.343 31.5197 14.833 31.5197 14.243ZM21.7167 16.271C21.7167 16.601 21.7167 16.824 21.0317 16.845V15.731C21.7167 15.751 21.7167 15.961 21.7167 16.271Z" fill="black"/>
<path opacity="0.07" d="M13.3808 13.1642C13.2388 12.7672 12.8598 12.5002 12.4398 12.5002H10.4708C10.0528 12.5002 9.67476 12.7642 9.53176 13.1582L6.19577 22.3232C6.09777 22.5922 6.13677 22.8912 6.29977 23.1262C6.46377 23.3602 6.73277 23.5002 7.01877 23.5002H8.55576C8.99376 23.5002 9.37776 23.2192 9.50876 22.8022L9.99176 21.2762H12.8168L13.3048 22.8062C13.4388 23.2222 13.8218 23.5012 14.2578 23.5012H15.8148C16.0988 23.5012 16.3668 23.3622 16.5308 23.1302C16.6948 22.8982 16.7358 22.5992 16.6398 22.3312L13.3808 13.1642ZM11.9808 18.5462H10.7928L11.3888 16.6902L11.9808 18.5462Z" fill="black"/>
<path opacity="0.07" d="M21.3088 12.5002H18.2798C17.7278 12.5002 17.2798 12.9492 17.2798 13.5002V22.5002C17.2798 23.0512 17.7278 23.5002 18.2798 23.5002H19.5318C20.0838 23.5002 20.5318 23.0512 20.5318 22.5002V20.0552H21.1058C22.4318 20.0552 23.5158 19.7012 24.3298 19.0032C25.1648 18.2862 25.5878 17.3382 25.5878 16.1872C25.5878 14.5052 24.8458 12.5002 21.3088 12.5002ZM22.2168 16.2712C22.2168 16.8302 22.0598 17.3472 20.9178 17.3472H20.5318V15.2302H20.9178C22.0598 15.2292 22.2168 15.7302 22.2168 16.2712Z" fill="black"/>
<path opacity="0.07" d="M31.0198 14.2432V13.5002C31.0198 12.9492 30.5718 12.5002 30.0198 12.5002H27.0928C26.5408 12.5002 26.0928 12.9492 26.0928 13.5002V14.2432C26.0928 14.7392 26.4558 15.1522 26.9298 15.2302V20.7702C26.4558 20.8482 26.0928 21.2612 26.0928 21.7572V22.5002C26.0928 23.0512 26.5408 23.5002 27.0928 23.5002H30.0198C30.5718 23.5002 31.0198 23.0512 31.0198 22.5002V21.7572C31.0198 21.2612 30.6568 20.8482 30.1828 20.7702V15.2302C30.6558 15.1522 31.0198 14.7392 31.0198 14.2432Z" fill="black"/>
<path d="M15.814 23H14.257C14.04 23 13.847 22.859 13.781 22.652L13.181 20.775H9.62499L9.03099 22.65C8.96499 22.859 8.77199 23 8.55399 23H7.01699C6.75599 23 6.57399 22.74 6.66299 22.495L9.99999 13.329C10.072 13.131 10.26 13 10.47 13H12.438C12.65 13 12.838 13.133 12.909 13.332L16.169 22.497C16.256 22.743 16.074 23 15.814 23ZM12.665 19.046L11.591 15.685C11.512 15.434 11.456 15.134 11.424 14.785H11.368C11.345 15.078 11.287 15.368 11.194 15.657L10.106 19.046H12.665Z" fill="white"/>
<path d="M20.0323 19.555V22.5C20.0323 22.776 19.8083 23 19.5323 23H18.2803C18.0043 23 17.7803 22.776 17.7803 22.5V13.5C17.7803 13.224 18.0043 13 18.2803 13H21.3093C23.8293 13 25.0893 14.062 25.0893 16.187C25.0893 17.191 24.7283 18.004 24.0053 18.624C23.2823 19.244 22.3163 19.555 21.1083 19.555H20.0323ZM20.0323 14.729V17.846H20.9183C22.1173 17.846 22.7173 17.321 22.7173 16.27C22.7173 15.243 22.1173 14.729 20.9183 14.729H20.0323Z" fill="white"/>
<path d="M30.5193 13.5V14.243C30.5193 14.519 30.2953 14.743 30.0193 14.743H29.6823V21.256H30.0193C30.2953 21.256 30.5193 21.48 30.5193 21.756V22.5C30.5193 22.776 30.2953 23 30.0193 23H27.0933C26.8173 23 26.5933 22.776 26.5933 22.5V21.757C26.5933 21.481 26.8173 21.257 27.0933 21.257H27.4303V14.744H27.0933C26.8173 14.744 26.5933 14.52 26.5933 14.244V13.5C26.5933 13.224 26.8173 13 27.0933 13H30.0193C30.2953 13 30.5193 13.224 30.5193 13.5Z" fill="white"/>
<defs>
<linearGradient id="paint0_linear_4431_23035" x1="18.5" y1="0.121" x2="18.5" y2="36.039" gradientUnits="userSpaceOnUse">
<stop stop-color="#33BEF0"/>
<stop offset="1" stop-color="#0A85D9"/>
</linearGradient>
</defs>
</svg>
